<?xml version="1.0" encoding="UTF-8" standalone="no"?>
<!DOCTYPE svg PUBLIC "-//W3C//DTD SVG 1.1//EN"
 "http://www.w3.org/Graphics/SVG/1.1/DTD/svg11.dtd">
<!-- Generated by graphviz version 5.0.0 (20220707.1540)
 -->
<!-- Title: dependencies Pages: 1 -->
<svg width="449pt" height="247pt"
 viewBox="0.00 0.00 449.00 246.80" xmlns="http://www.w3.org/2000/svg" xmlns:xlink="http://www.w3.org/1999/xlink">
<g id="graph0" class="graph" transform="scale(1 1) rotate(0) translate(4 242.8)">
<title>dependencies</title>
<polygon fill="white" stroke="transparent" points="-4,4 -4,-242.8 445,-242.8 445,4 -4,4"/>
<text text-anchor="middle" x="220.5" y="-8.2" font-family="sans-serif" font-size="14.00">dependencies</text>
<g id="clust1" class="cluster">
<title>cluster_BreadcrumbModule</title>
<polygon fill="none" stroke="black" stroke-dasharray="1,5" points="8,-32.8 8,-230.8 433,-230.8 433,-32.8 8,-32.8"/>
</g>
<g id="clust2" class="cluster">
<title>cluster_BreadcrumbModule_declarations</title>
<polygon fill="none" stroke="black" points="259,-40.8 259,-92.8 425,-92.8 425,-40.8 259,-40.8"/>
</g>
<g id="clust5" class="cluster">
<title>cluster_BreadcrumbModule_exports</title>
<polygon fill="none" stroke="black" points="115,-170.8 115,-222.8 285,-222.8 285,-170.8 115,-170.8"/>
</g>
<g id="clust4" class="cluster">
<title>cluster_BreadcrumbModule_imports</title>
<polygon fill="none" stroke="black" points="16,-40.8 16,-92.8 251,-92.8 251,-40.8 16,-40.8"/>
</g>
<!-- BreadcrumbComponent -->
<g id="node1" class="node">
<title>BreadcrumbComponent</title>
<polygon fill="#ffffb3" stroke="black" points="417.03,-84.8 266.97,-84.8 266.97,-48.8 417.03,-48.8 417.03,-84.8"/>
<text text-anchor="middle" x="342" y="-62.6" font-family="Times,serif" font-size="14.00">BreadcrumbComponent</text>
</g>
<!-- BreadcrumbModule -->
<g id="node2" class="node">
<title>BreadcrumbModule</title>
<polygon fill="#8dd3c7" stroke="black" points="264.25,-149.8 261.25,-153.8 240.25,-153.8 237.25,-149.8 135.75,-149.8 135.75,-113.8 264.25,-113.8 264.25,-149.8"/>
<text text-anchor="middle" x="200" y="-127.6" font-family="Times,serif" font-size="14.00">BreadcrumbModule</text>
</g>
<!-- BreadcrumbComponent&#45;&gt;BreadcrumbModule -->
<g id="edge1" class="edge">
<title>BreadcrumbComponent&#45;&gt;BreadcrumbModule</title>
<path fill="none" stroke="black" d="M271.88,-84.91C271.88,-104.14 271.88,-131.8 271.88,-131.8 271.88,-131.8 271.13,-131.8 271.13,-131.8"/>
<polygon fill="black" stroke="black" points="274.45,-128.3 264.45,-131.8 274.45,-135.3 274.45,-128.3"/>
</g>
<!-- BreadcrumbComponent  -->
<g id="node5" class="node">
<title>BreadcrumbComponent </title>
<polygon fill="#fb8072" stroke="black" points="277.02,-214.8 122.98,-214.8 122.98,-178.8 277.02,-178.8 277.02,-214.8"/>
<text text-anchor="middle" x="200" y="-192.6" font-family="Times,serif" font-size="14.00">BreadcrumbComponent </text>
</g>
<!-- BreadcrumbModule&#45;&gt;BreadcrumbComponent  -->
<g id="edge4" class="edge">
<title>BreadcrumbModule&#45;&gt;BreadcrumbComponent </title>
<path fill="none" stroke="black" stroke-dasharray="5,2" d="M200,-149.91C200,-149.91 200,-168.79 200,-168.79"/>
<polygon fill="black" stroke="black" points="196.5,-168.79 200,-178.79 203.5,-168.79 196.5,-168.79"/>
</g>
<!-- I18nModule -->
<g id="node3" class="node">
<title>I18nModule</title>
<polygon fill="#8dd3c7" stroke="black" points="242.71,-84.8 239.71,-88.8 218.71,-88.8 215.71,-84.8 157.29,-84.8 157.29,-48.8 242.71,-48.8 242.71,-84.8"/>
<text text-anchor="middle" x="200" y="-62.6" font-family="Times,serif" font-size="14.00">I18nModule</text>
</g>
<!-- I18nModule&#45;&gt;BreadcrumbModule -->
<g id="edge2" class="edge">
<title>I18nModule&#45;&gt;BreadcrumbModule</title>
<path fill="none" stroke="black" d="M200,-84.91C200,-84.91 200,-103.79 200,-103.79"/>
<polygon fill="black" stroke="black" points="196.5,-103.79 200,-113.79 203.5,-103.79 196.5,-103.79"/>
</g>
<!-- PageMetaModule -->
<g id="node4" class="node">
<title>PageMetaModule</title>
<polygon fill="#8dd3c7" stroke="black" points="139.53,-84.8 136.53,-88.8 115.53,-88.8 112.53,-84.8 24.47,-84.8 24.47,-48.8 139.53,-48.8 139.53,-84.8"/>
<text text-anchor="middle" x="82" y="-62.6" font-family="Times,serif" font-size="14.00">PageMetaModule</text>
</g>
<!-- PageMetaModule&#45;&gt;BreadcrumbModule -->
<g id="edge3" class="edge">
<title>PageMetaModule&#45;&gt;BreadcrumbModule</title>
<path fill="none" stroke="black" d="M129.31,-84.91C129.31,-104.14 129.31,-131.8 129.31,-131.8 129.31,-131.8 129.91,-131.8 129.91,-131.8"/>
<polygon fill="black" stroke="black" points="125.33,-135.3 135.33,-131.8 125.33,-128.3 125.33,-135.3"/>
</g>
</g>
</svg>
