<?xml version="1.0" encoding="UTF-8" standalone="no"?>
<!DOCTYPE svg PUBLIC "-//W3C//DTD SVG 1.1//EN"
 "http://www.w3.org/Graphics/SVG/1.1/DTD/svg11.dtd">
<!-- Generated by graphviz version 5.0.0 (20220707.1540)
 -->
<!-- Title: dependencies Pages: 1 -->
<svg width="449pt" height="247pt"
 viewBox="0.00 0.00 449.00 246.80" xmlns="http://www.w3.org/2000/svg" xmlns:xlink="http://www.w3.org/1999/xlink">
<g id="graph0" class="graph" transform="scale(1 1) rotate(0) translate(4 242.8)">
<title>dependencies</title>
<polygon fill="white" stroke="transparent" points="-4,4 -4,-242.8 445,-242.8 445,4 -4,4"/>
<text text-anchor="middle" x="220.5" y="-8.2" font-family="sans-serif" font-size="14.00">dependencies</text>
<g id="clust1" class="cluster">
<title>cluster_BreadcrumbModule</title>
<polygon fill="none" stroke="black" stroke-dasharray="1,5" points="8,-32.8 8,-230.8 433,-230.8 433,-32.8 8,-32.8"/>
</g>
<g id="clust5" class="cluster">
<title>cluster_BreadcrumbModule_exports</title>
<polygon fill="none" stroke="black" points="171,-170.8 171,-222.8 341,-222.8 341,-170.8 171,-170.8"/>
</g>
<g id="clust4" class="cluster">
<title>cluster_BreadcrumbModule_imports</title>
<polygon fill="none" stroke="black" points="190,-40.8 190,-92.8 425,-92.8 425,-40.8 190,-40.8"/>
</g>
<g id="clust2" class="cluster">
<title>cluster_BreadcrumbModule_declarations</title>
<polygon fill="none" stroke="black" points="16,-40.8 16,-92.8 182,-92.8 182,-40.8 16,-40.8"/>
</g>
<!-- BreadcrumbComponent -->
<g id="node1" class="node">
<title>BreadcrumbComponent</title>
<polygon fill="#ffffb3" stroke="black" points="174.03,-84.8 23.97,-84.8 23.97,-48.8 174.03,-48.8 174.03,-84.8"/>
<text text-anchor="middle" x="99" y="-62.6" font-family="Times,serif" font-size="14.00">BreadcrumbComponent</text>
</g>
<!-- BreadcrumbModule -->
<g id="node2" class="node">
<title>BreadcrumbModule</title>
<polygon fill="#8dd3c7" stroke="black" points="320.25,-149.8 317.25,-153.8 296.25,-153.8 293.25,-149.8 191.75,-149.8 191.75,-113.8 320.25,-113.8 320.25,-149.8"/>
<text text-anchor="middle" x="256" y="-127.6" font-family="Times,serif" font-size="14.00">BreadcrumbModule</text>
</g>
<!-- BreadcrumbComponent&#45;&gt;BreadcrumbModule -->
<g id="edge1" class="edge">
<title>BreadcrumbComponent&#45;&gt;BreadcrumbModule</title>
<path fill="none" stroke="black" d="M99,-84.91C99,-104.14 99,-131.8 99,-131.8 99,-131.8 181.69,-131.8 181.69,-131.8"/>
<polygon fill="black" stroke="black" points="181.69,-135.3 191.69,-131.8 181.69,-128.3 181.69,-135.3"/>
</g>
<!-- BreadcrumbComponent  -->
<g id="node5" class="node">
<title>BreadcrumbComponent </title>
<polygon fill="#fb8072" stroke="black" points="333.02,-214.8 178.98,-214.8 178.98,-178.8 333.02,-178.8 333.02,-214.8"/>
<text text-anchor="middle" x="256" y="-192.6" font-family="Times,serif" font-size="14.00">BreadcrumbComponent </text>
</g>
<!-- BreadcrumbModule&#45;&gt;BreadcrumbComponent  -->
<g id="edge4" class="edge">
<title>BreadcrumbModule&#45;&gt;BreadcrumbComponent </title>
<path fill="none" stroke="black" stroke-dasharray="5,2" d="M256,-149.91C256,-149.91 256,-168.79 256,-168.79"/>
<polygon fill="black" stroke="black" points="252.5,-168.79 256,-178.79 259.5,-168.79 252.5,-168.79"/>
</g>
<!-- I18nModule -->
<g id="node3" class="node">
<title>I18nModule</title>
<polygon fill="#8dd3c7" stroke="black" points="416.71,-84.8 413.71,-88.8 392.71,-88.8 389.71,-84.8 331.29,-84.8 331.29,-48.8 416.71,-48.8 416.71,-84.8"/>
<text text-anchor="middle" x="374" y="-62.6" font-family="Times,serif" font-size="14.00">I18nModule</text>
</g>
<!-- I18nModule&#45;&gt;BreadcrumbModule -->
<g id="edge2" class="edge">
<title>I18nModule&#45;&gt;BreadcrumbModule</title>
<path fill="none" stroke="black" d="M374.81,-84.91C374.81,-104.14 374.81,-131.8 374.81,-131.8 374.81,-131.8 330.27,-131.8 330.27,-131.8"/>
<polygon fill="black" stroke="black" points="330.27,-128.3 320.27,-131.8 330.27,-135.3 330.27,-128.3"/>
</g>
<!-- PageMetaModule -->
<g id="node4" class="node">
<title>PageMetaModule</title>
<polygon fill="#8dd3c7" stroke="black" points="313.53,-84.8 310.53,-88.8 289.53,-88.8 286.53,-84.8 198.47,-84.8 198.47,-48.8 313.53,-48.8 313.53,-84.8"/>
<text text-anchor="middle" x="256" y="-62.6" font-family="Times,serif" font-size="14.00">PageMetaModule</text>
</g>
<!-- PageMetaModule&#45;&gt;BreadcrumbModule -->
<g id="edge3" class="edge">
<title>PageMetaModule&#45;&gt;BreadcrumbModule</title>
<path fill="none" stroke="black" d="M256,-84.91C256,-84.91 256,-103.79 256,-103.79"/>
<polygon fill="black" stroke="black" points="252.5,-103.79 256,-113.79 259.5,-103.79 252.5,-103.79"/>
</g>
</g>
</svg>
