<?xml version="1.0" encoding="UTF-8" standalone="no"?>
<!DOCTYPE svg PUBLIC "-//W3C//DTD SVG 1.1//EN"
 "http://www.w3.org/Graphics/SVG/1.1/DTD/svg11.dtd">
<!-- Generated by graphviz version 5.0.0 (20220707.1540)
 -->
<!-- Title: dependencies Pages: 1 -->
<svg width="324pt" height="174pt"
 viewBox="0.00 0.00 324.00 173.80" xmlns="http://www.w3.org/2000/svg" xmlns:xlink="http://www.w3.org/1999/xlink">
<g id="graph0" class="graph" transform="scale(1 1) rotate(0) translate(4 169.8)">
<title>dependencies</title>
<polygon fill="white" stroke="transparent" points="-4,4 -4,-169.8 320,-169.8 320,4 -4,4"/>
<text text-anchor="middle" x="158" y="-8.2" font-family="sans-serif" font-size="14.00">dependencies</text>
<g id="clust1" class="cluster">
<title>cluster_VariantConfiguratorOverviewModule</title>
<polygon fill="none" stroke="black" stroke-dasharray="1,5" points="8,-32.8 8,-157.8 308,-157.8 308,-32.8 8,-32.8"/>
</g>
<g id="clust3" class="cluster">
<title>cluster_VariantConfiguratorOverviewModule_imports</title>
<polygon fill="none" stroke="black" points="16,-40.8 16,-92.8 300,-92.8 300,-40.8 16,-40.8"/>
</g>
<!-- VariantConfiguratorOverviewLayoutModule -->
<g id="node1" class="node">
<title>VariantConfiguratorOverviewLayoutModule</title>
<polygon fill="#8dd3c7" stroke="black" points="292.2,-84.8 289.2,-88.8 268.2,-88.8 265.2,-84.8 23.8,-84.8 23.8,-48.8 292.2,-48.8 292.2,-84.8"/>
<text text-anchor="middle" x="158" y="-62.6" font-family="Times,serif" font-size="14.00">VariantConfiguratorOverviewLayoutModule</text>
</g>
<!-- VariantConfiguratorOverviewModule -->
<g id="node2" class="node">
<title>VariantConfiguratorOverviewModule</title>
<polygon fill="#8dd3c7" stroke="black" points="272.55,-149.8 269.55,-153.8 248.55,-153.8 245.55,-149.8 43.45,-149.8 43.45,-113.8 272.55,-113.8 272.55,-149.8"/>
<text text-anchor="middle" x="158" y="-127.6" font-family="Times,serif" font-size="14.00">VariantConfiguratorOverviewModule</text>
</g>
<!-- VariantConfiguratorOverviewLayoutModule&#45;&gt;VariantConfiguratorOverviewModule -->
<g id="edge1" class="edge">
<title>VariantConfiguratorOverviewLayoutModule&#45;&gt;VariantConfiguratorOverviewModule</title>
<path fill="none" stroke="black" d="M158,-84.91C158,-84.91 158,-103.79 158,-103.79"/>
<polygon fill="black" stroke="black" points="154.5,-103.79 158,-113.79 161.5,-103.79 154.5,-103.79"/>
</g>
</g>
</svg>
