<?xml version="1.0" encoding="UTF-8" standalone="no"?>
<!DOCTYPE svg PUBLIC "-//W3C//DTD SVG 1.1//EN"
 "http://www.w3.org/Graphics/SVG/1.1/DTD/svg11.dtd">
<!-- Generated by graphviz version 5.0.0 (20220707.1540)
 -->
<!-- Title: dependencies Pages: 1 -->
<svg width="882pt" height="247pt"
 viewBox="0.00 0.00 882.00 246.80" xmlns="http://www.w3.org/2000/svg" xmlns:xlink="http://www.w3.org/1999/xlink">
<g id="graph0" class="graph" transform="scale(1 1) rotate(0) translate(4 242.8)">
<title>dependencies</title>
<polygon fill="white" stroke="transparent" points="-4,4 -4,-242.8 878,-242.8 878,4 -4,4"/>
<text text-anchor="middle" x="437" y="-8.2" font-family="sans-serif" font-size="14.00">dependencies</text>
<g id="clust1" class="cluster">
<title>cluster_CardModule</title>
<polygon fill="none" stroke="black" stroke-dasharray="1,5" points="8,-32.8 8,-230.8 866,-230.8 866,-32.8 8,-32.8"/>
</g>
<g id="clust4" class="cluster">
<title>cluster_CardModule_imports</title>
<polygon fill="none" stroke="black" points="148,-40.8 148,-92.8 858,-92.8 858,-40.8 148,-40.8"/>
</g>
<g id="clust5" class="cluster">
<title>cluster_CardModule_exports</title>
<polygon fill="none" stroke="black" points="433,-170.8 433,-222.8 561,-222.8 561,-170.8 433,-170.8"/>
</g>
<g id="clust2" class="cluster">
<title>cluster_CardModule_declarations</title>
<polygon fill="none" stroke="black" points="16,-40.8 16,-92.8 140,-92.8 140,-40.8 16,-40.8"/>
</g>
<!-- CardComponent -->
<g id="node1" class="node">
<title>CardComponent</title>
<polygon fill="#ffffb3" stroke="black" points="132.05,-84.8 23.95,-84.8 23.95,-48.8 132.05,-48.8 132.05,-84.8"/>
<text text-anchor="middle" x="78" y="-62.6" font-family="Times,serif" font-size="14.00">CardComponent</text>
</g>
<!-- CardModule -->
<g id="node2" class="node">
<title>CardModule</title>
<polygon fill="#8dd3c7" stroke="black" points="540.27,-149.8 537.27,-153.8 516.27,-153.8 513.27,-149.8 453.73,-149.8 453.73,-113.8 540.27,-113.8 540.27,-149.8"/>
<text text-anchor="middle" x="497" y="-127.6" font-family="Times,serif" font-size="14.00">CardModule</text>
</g>
<!-- CardComponent&#45;&gt;CardModule -->
<g id="edge1" class="edge">
<title>CardComponent&#45;&gt;CardModule</title>
<path fill="none" stroke="black" d="M78,-85.08C78,-106.12 78,-137.8 78,-137.8 78,-137.8 443.35,-137.8 443.35,-137.8"/>
<polygon fill="black" stroke="black" points="443.35,-141.3 453.35,-137.8 443.35,-134.3 443.35,-141.3"/>
</g>
<!-- CardComponent  -->
<g id="node8" class="node">
<title>CardComponent </title>
<polygon fill="#fb8072" stroke="black" points="553.04,-214.8 440.96,-214.8 440.96,-178.8 553.04,-178.8 553.04,-214.8"/>
<text text-anchor="middle" x="497" y="-192.6" font-family="Times,serif" font-size="14.00">CardComponent </text>
</g>
<!-- CardModule&#45;&gt;CardComponent  -->
<g id="edge7" class="edge">
<title>CardModule&#45;&gt;CardComponent </title>
<path fill="none" stroke="black" stroke-dasharray="5,2" d="M497,-149.91C497,-149.91 497,-168.79 497,-168.79"/>
<polygon fill="black" stroke="black" points="493.5,-168.79 497,-178.79 500.5,-168.79 493.5,-168.79"/>
</g>
<!-- AtMessageModule -->
<g id="node3" class="node">
<title>AtMessageModule</title>
<polygon fill="#8dd3c7" stroke="black" points="850.04,-84.8 847.04,-88.8 826.04,-88.8 823.04,-84.8 727.96,-84.8 727.96,-48.8 850.04,-48.8 850.04,-84.8"/>
<text text-anchor="middle" x="789" y="-62.6" font-family="Times,serif" font-size="14.00">AtMessageModule</text>
</g>
<!-- AtMessageModule&#45;&gt;CardModule -->
<g id="edge2" class="edge">
<title>AtMessageModule&#45;&gt;CardModule</title>
<path fill="none" stroke="black" d="M789,-85.08C789,-106.12 789,-137.8 789,-137.8 789,-137.8 550.4,-137.8 550.4,-137.8"/>
<polygon fill="black" stroke="black" points="550.4,-134.3 540.4,-137.8 550.4,-141.3 550.4,-134.3"/>
</g>
<!-- I18nModule -->
<g id="node4" class="node">
<title>I18nModule</title>
<polygon fill="#8dd3c7" stroke="black" points="709.71,-84.8 706.71,-88.8 685.71,-88.8 682.71,-84.8 624.29,-84.8 624.29,-48.8 709.71,-48.8 709.71,-84.8"/>
<text text-anchor="middle" x="667" y="-62.6" font-family="Times,serif" font-size="14.00">I18nModule</text>
</g>
<!-- I18nModule&#45;&gt;CardModule -->
<g id="edge3" class="edge">
<title>I18nModule&#45;&gt;CardModule</title>
<path fill="none" stroke="black" d="M667,-84.82C667,-102.17 667,-125.8 667,-125.8 667,-125.8 550.34,-125.8 550.34,-125.8"/>
<polygon fill="black" stroke="black" points="550.34,-122.3 540.34,-125.8 550.34,-129.3 550.34,-122.3"/>
</g>
<!-- IconModule -->
<g id="node5" class="node">
<title>IconModule</title>
<polygon fill="#8dd3c7" stroke="black" points="606.43,-84.8 603.43,-88.8 582.43,-88.8 579.43,-84.8 521.57,-84.8 521.57,-48.8 606.43,-48.8 606.43,-84.8"/>
<text text-anchor="middle" x="564" y="-62.6" font-family="Times,serif" font-size="14.00">IconModule</text>
</g>
<!-- IconModule&#45;&gt;CardModule -->
<g id="edge4" class="edge">
<title>IconModule&#45;&gt;CardModule</title>
<path fill="none" stroke="black" d="M531.08,-84.91C531.08,-84.91 531.08,-103.79 531.08,-103.79"/>
<polygon fill="black" stroke="black" points="527.58,-103.79 531.08,-113.79 534.58,-103.79 527.58,-103.79"/>
</g>
<!-- KeyboardFocusModule -->
<g id="node6" class="node">
<title>KeyboardFocusModule</title>
<polygon fill="#8dd3c7" stroke="black" points="504.2,-84.8 501.2,-88.8 480.2,-88.8 477.2,-84.8 355.8,-84.8 355.8,-48.8 504.2,-48.8 504.2,-84.8"/>
<text text-anchor="middle" x="430" y="-62.6" font-family="Times,serif" font-size="14.00">KeyboardFocusModule</text>
</g>
<!-- KeyboardFocusModule&#45;&gt;CardModule -->
<g id="edge5" class="edge">
<title>KeyboardFocusModule&#45;&gt;CardModule</title>
<path fill="none" stroke="black" d="M478.86,-84.91C478.86,-84.91 478.86,-103.79 478.86,-103.79"/>
<polygon fill="black" stroke="black" points="475.36,-103.79 478.86,-113.79 482.36,-103.79 475.36,-103.79"/>
</g>
<!-- TruncateTextPopoverModule -->
<g id="node7" class="node">
<title>TruncateTextPopoverModule</title>
<polygon fill="#8dd3c7" stroke="black" points="337.61,-84.8 334.61,-88.8 313.61,-88.8 310.61,-84.8 156.39,-84.8 156.39,-48.8 337.61,-48.8 337.61,-84.8"/>
<text text-anchor="middle" x="247" y="-62.6" font-family="Times,serif" font-size="14.00">TruncateTextPopoverModule</text>
</g>
<!-- TruncateTextPopoverModule&#45;&gt;CardModule -->
<g id="edge6" class="edge">
<title>TruncateTextPopoverModule&#45;&gt;CardModule</title>
<path fill="none" stroke="black" d="M247,-84.82C247,-102.17 247,-125.8 247,-125.8 247,-125.8 443.45,-125.8 443.45,-125.8"/>
<polygon fill="black" stroke="black" points="443.45,-129.3 453.45,-125.8 443.45,-122.3 443.45,-129.3"/>
</g>
</g>
</svg>
