<?xml version="1.0" encoding="UTF-8" standalone="no"?>
<!DOCTYPE svg PUBLIC "-//W3C//DTD SVG 1.1//EN"
 "http://www.w3.org/Graphics/SVG/1.1/DTD/svg11.dtd">
<!-- Generated by graphviz version 5.0.0 (20220707.1540)
 -->
<!-- Title: dependencies Pages: 1 -->
<svg width="348pt" height="247pt"
 viewBox="0.00 0.00 348.00 246.80" xmlns="http://www.w3.org/2000/svg" xmlns:xlink="http://www.w3.org/1999/xlink">
<g id="graph0" class="graph" transform="scale(1 1) rotate(0) translate(4 242.8)">
<title>dependencies</title>
<polygon fill="white" stroke="transparent" points="-4,4 -4,-242.8 344,-242.8 344,4 -4,4"/>
<text text-anchor="middle" x="170" y="-8.2" font-family="sans-serif" font-size="14.00">dependencies</text>
<g id="clust1" class="cluster">
<title>cluster_ConfiguratorPriceModule</title>
<polygon fill="none" stroke="black" stroke-dasharray="1,5" points="8,-32.8 8,-230.8 332,-230.8 332,-32.8 8,-32.8"/>
</g>
<g id="clust2" class="cluster">
<title>cluster_ConfiguratorPriceModule_declarations</title>
<polygon fill="none" stroke="black" points="126,-40.8 126,-92.8 324,-92.8 324,-40.8 126,-40.8"/>
</g>
<g id="clust4" class="cluster">
<title>cluster_ConfiguratorPriceModule_imports</title>
<polygon fill="none" stroke="black" points="16,-40.8 16,-92.8 118,-92.8 118,-40.8 16,-40.8"/>
</g>
<g id="clust5" class="cluster">
<title>cluster_ConfiguratorPriceModule_exports</title>
<polygon fill="none" stroke="black" points="69,-170.8 69,-222.8 271,-222.8 271,-170.8 69,-170.8"/>
</g>
<!-- ConfiguratorPriceComponent -->
<g id="node1" class="node">
<title>ConfiguratorPriceComponent</title>
<polygon fill="#ffffb3" stroke="black" points="316.41,-84.8 133.59,-84.8 133.59,-48.8 316.41,-48.8 316.41,-84.8"/>
<text text-anchor="middle" x="225" y="-62.6" font-family="Times,serif" font-size="14.00">ConfiguratorPriceComponent</text>
</g>
<!-- ConfiguratorPriceModule -->
<g id="node2" class="node">
<title>ConfiguratorPriceModule</title>
<polygon fill="#8dd3c7" stroke="black" points="250.14,-149.8 247.14,-153.8 226.14,-153.8 223.14,-149.8 89.86,-149.8 89.86,-113.8 250.14,-113.8 250.14,-149.8"/>
<text text-anchor="middle" x="170" y="-127.6" font-family="Times,serif" font-size="14.00">ConfiguratorPriceModule</text>
</g>
<!-- ConfiguratorPriceComponent&#45;&gt;ConfiguratorPriceModule -->
<g id="edge1" class="edge">
<title>ConfiguratorPriceComponent&#45;&gt;ConfiguratorPriceModule</title>
<path fill="none" stroke="black" d="M192.06,-84.91C192.06,-84.91 192.06,-103.79 192.06,-103.79"/>
<polygon fill="black" stroke="black" points="188.56,-103.79 192.06,-113.79 195.56,-103.79 188.56,-103.79"/>
</g>
<!-- ConfiguratorPriceComponent  -->
<g id="node4" class="node">
<title>ConfiguratorPriceComponent </title>
<polygon fill="#fb8072" stroke="black" points="262.91,-214.8 77.09,-214.8 77.09,-178.8 262.91,-178.8 262.91,-214.8"/>
<text text-anchor="middle" x="170" y="-192.6" font-family="Times,serif" font-size="14.00">ConfiguratorPriceComponent </text>
</g>
<!-- ConfiguratorPriceModule&#45;&gt;ConfiguratorPriceComponent  -->
<g id="edge3" class="edge">
<title>ConfiguratorPriceModule&#45;&gt;ConfiguratorPriceComponent </title>
<path fill="none" stroke="black" stroke-dasharray="5,2" d="M170,-149.91C170,-149.91 170,-168.79 170,-168.79"/>
<polygon fill="black" stroke="black" points="166.5,-168.79 170,-178.79 173.5,-168.79 166.5,-168.79"/>
</g>
<!-- I18nModule -->
<g id="node3" class="node">
<title>I18nModule</title>
<polygon fill="#8dd3c7" stroke="black" points="109.71,-84.8 106.71,-88.8 85.71,-88.8 82.71,-84.8 24.29,-84.8 24.29,-48.8 109.71,-48.8 109.71,-84.8"/>
<text text-anchor="middle" x="67" y="-62.6" font-family="Times,serif" font-size="14.00">I18nModule</text>
</g>
<!-- I18nModule&#45;&gt;ConfiguratorPriceModule -->
<g id="edge2" class="edge">
<title>I18nModule&#45;&gt;ConfiguratorPriceModule</title>
<path fill="none" stroke="black" d="M99.64,-84.91C99.64,-84.91 99.64,-103.79 99.64,-103.79"/>
<polygon fill="black" stroke="black" points="96.14,-103.79 99.64,-113.79 103.14,-103.79 96.14,-103.79"/>
</g>
</g>
</svg>
