<?xml version="1.0" encoding="UTF-8" standalone="no"?>
<!DOCTYPE svg PUBLIC "-//W3C//DTD SVG 1.1//EN"
 "http://www.w3.org/Graphics/SVG/1.1/DTD/svg11.dtd">
<!-- Generated by graphviz version 5.0.0 (20220707.1540)
 -->
<!-- Title: dependencies Pages: 1 -->
<svg width="933pt" height="174pt"
 viewBox="0.00 0.00 933.00 173.80" xmlns="http://www.w3.org/2000/svg" xmlns:xlink="http://www.w3.org/1999/xlink">
<g id="graph0" class="graph" transform="scale(1 1) rotate(0) translate(4 169.8)">
<title>dependencies</title>
<polygon fill="white" stroke="transparent" points="-4,4 -4,-169.8 929,-169.8 929,4 -4,4"/>
<text text-anchor="middle" x="462.5" y="-8.2" font-family="sans-serif" font-size="14.00">dependencies</text>
<g id="clust1" class="cluster">
<title>cluster_CheckoutB2BComponentsModule</title>
<polygon fill="none" stroke="black" stroke-dasharray="1,5" points="8,-32.8 8,-157.8 917,-157.8 917,-32.8 8,-32.8"/>
</g>
<g id="clust3" class="cluster">
<title>cluster_CheckoutB2BComponentsModule_imports</title>
<polygon fill="none" stroke="black" points="16,-40.8 16,-92.8 909,-92.8 909,-40.8 16,-40.8"/>
</g>
<!-- B2BCheckoutDeliveryAddressModule -->
<g id="node1" class="node">
<title>B2BCheckoutDeliveryAddressModule</title>
<polygon fill="#8dd3c7" stroke="black" points="900.75,-84.8 897.75,-88.8 876.75,-88.8 873.75,-84.8 667.25,-84.8 667.25,-48.8 900.75,-48.8 900.75,-84.8"/>
<text text-anchor="middle" x="784" y="-62.6" font-family="Times,serif" font-size="14.00">B2BCheckoutDeliveryAddressModule</text>
</g>
<!-- CheckoutB2BComponentsModule -->
<g id="node5" class="node">
<title>CheckoutB2BComponentsModule</title>
<polygon fill="#8dd3c7" stroke="black" points="533.66,-149.8 530.66,-153.8 509.66,-153.8 506.66,-149.8 324.34,-149.8 324.34,-113.8 533.66,-113.8 533.66,-149.8"/>
<text text-anchor="middle" x="429" y="-127.6" font-family="Times,serif" font-size="14.00">CheckoutB2BComponentsModule</text>
</g>
<!-- B2BCheckoutDeliveryAddressModule&#45;&gt;CheckoutB2BComponentsModule -->
<g id="edge1" class="edge">
<title>B2BCheckoutDeliveryAddressModule&#45;&gt;CheckoutB2BComponentsModule</title>
<path fill="none" stroke="black" d="M784,-84.91C784,-104.14 784,-131.8 784,-131.8 784,-131.8 544.07,-131.8 544.07,-131.8"/>
<polygon fill="black" stroke="black" points="544.07,-128.3 534.07,-131.8 544.07,-135.3 544.07,-128.3"/>
</g>
<!-- B2BCheckoutReviewSubmitModule -->
<g id="node2" class="node">
<title>B2BCheckoutReviewSubmitModule</title>
<polygon fill="#8dd3c7" stroke="black" points="649.1,-84.8 646.1,-88.8 625.1,-88.8 622.1,-84.8 426.9,-84.8 426.9,-48.8 649.1,-48.8 649.1,-84.8"/>
<text text-anchor="middle" x="538" y="-62.6" font-family="Times,serif" font-size="14.00">B2BCheckoutReviewSubmitModule</text>
</g>
<!-- B2BCheckoutReviewSubmitModule&#45;&gt;CheckoutB2BComponentsModule -->
<g id="edge2" class="edge">
<title>B2BCheckoutReviewSubmitModule&#45;&gt;CheckoutB2BComponentsModule</title>
<path fill="none" stroke="black" d="M480.39,-84.91C480.39,-84.91 480.39,-103.79 480.39,-103.79"/>
<polygon fill="black" stroke="black" points="476.89,-103.79 480.39,-113.79 483.89,-103.79 476.89,-103.79"/>
</g>
<!-- CheckoutCostCenterModule -->
<g id="node3" class="node">
<title>CheckoutCostCenterModule</title>
<polygon fill="#8dd3c7" stroke="black" points="409.2,-84.8 406.2,-88.8 385.2,-88.8 382.2,-84.8 232.8,-84.8 232.8,-48.8 409.2,-48.8 409.2,-84.8"/>
<text text-anchor="middle" x="321" y="-62.6" font-family="Times,serif" font-size="14.00">CheckoutCostCenterModule</text>
</g>
<!-- CheckoutCostCenterModule&#45;&gt;CheckoutB2BComponentsModule -->
<g id="edge3" class="edge">
<title>CheckoutCostCenterModule&#45;&gt;CheckoutB2BComponentsModule</title>
<path fill="none" stroke="black" d="M366.63,-84.91C366.63,-84.91 366.63,-103.79 366.63,-103.79"/>
<polygon fill="black" stroke="black" points="363.13,-103.79 366.63,-113.79 370.13,-103.79 363.13,-103.79"/>
</g>
<!-- CheckoutPaymentTypeModule -->
<g id="node4" class="node">
<title>CheckoutPaymentTypeModule</title>
<polygon fill="#8dd3c7" stroke="black" points="214.47,-84.8 211.47,-88.8 190.47,-88.8 187.47,-84.8 23.53,-84.8 23.53,-48.8 214.47,-48.8 214.47,-84.8"/>
<text text-anchor="middle" x="119" y="-62.6" font-family="Times,serif" font-size="14.00">CheckoutPaymentTypeModule</text>
</g>
<!-- CheckoutPaymentTypeModule&#45;&gt;CheckoutB2BComponentsModule -->
<g id="edge4" class="edge">
<title>CheckoutPaymentTypeModule&#45;&gt;CheckoutB2BComponentsModule</title>
<path fill="none" stroke="black" d="M119,-84.91C119,-104.14 119,-131.8 119,-131.8 119,-131.8 314.05,-131.8 314.05,-131.8"/>
<polygon fill="black" stroke="black" points="314.05,-135.3 324.05,-131.8 314.05,-128.3 314.05,-135.3"/>
</g>
</g>
</svg>
