<?xml version="1.0" encoding="UTF-8" standalone="no"?>
<!DOCTYPE svg PUBLIC "-//W3C//DTD SVG 1.1//EN"
 "http://www.w3.org/Graphics/SVG/1.1/DTD/svg11.dtd">
<!-- Generated by graphviz version 5.0.0 (20220707.1540)
 -->
<!-- Title: dependencies Pages: 1 -->
<svg width="2178pt" height="247pt"
 viewBox="0.00 0.00 2178.00 246.80" xmlns="http://www.w3.org/2000/svg" xmlns:xlink="http://www.w3.org/1999/xlink">
<g id="graph0" class="graph" transform="scale(1 1) rotate(0) translate(4 242.8)">
<title>dependencies</title>
<polygon fill="white" stroke="transparent" points="-4,4 -4,-242.8 2174,-242.8 2174,4 -4,4"/>
<text text-anchor="middle" x="1085" y="-8.2" font-family="sans-serif" font-size="14.00">dependencies</text>
<g id="clust1" class="cluster">
<title>cluster_OrderConfirmationModule</title>
<polygon fill="none" stroke="black" stroke-dasharray="1,5" points="8,-32.8 8,-230.8 2162,-230.8 2162,-32.8 8,-32.8"/>
</g>
<g id="clust7" class="cluster">
<title>cluster_OrderConfirmationModule_imports</title>
<polygon fill="none" stroke="black" points="1060,-40.8 1060,-92.8 2154,-92.8 2154,-40.8 1060,-40.8"/>
</g>
<g id="clust2" class="cluster">
<title>cluster_OrderConfirmationModule_declarations</title>
<polygon fill="none" stroke="black" points="16,-40.8 16,-92.8 1052,-92.8 1052,-40.8 16,-40.8"/>
</g>
<g id="clust8" class="cluster">
<title>cluster_OrderConfirmationModule_exports</title>
<polygon fill="none" stroke="black" points="814,-170.8 814,-222.8 1866,-222.8 1866,-170.8 814,-170.8"/>
</g>
<!-- OrderConfirmationItemsComponent -->
<g id="node1" class="node">
<title>OrderConfirmationItemsComponent</title>
<polygon fill="#ffffb3" stroke="black" points="1044.02,-84.8 823.98,-84.8 823.98,-48.8 1044.02,-48.8 1044.02,-84.8"/>
<text text-anchor="middle" x="934" y="-62.6" font-family="Times,serif" font-size="14.00">OrderConfirmationItemsComponent</text>
</g>
<!-- OrderConfirmationModule -->
<g id="node5" class="node">
<title>OrderConfirmationModule</title>
<polygon fill="#8dd3c7" stroke="black" points="1406.64,-149.8 1403.64,-153.8 1382.64,-153.8 1379.64,-149.8 1239.36,-149.8 1239.36,-113.8 1406.64,-113.8 1406.64,-149.8"/>
<text text-anchor="middle" x="1323" y="-127.6" font-family="Times,serif" font-size="14.00">OrderConfirmationModule</text>
</g>
<!-- OrderConfirmationItemsComponent&#45;&gt;OrderConfirmationModule -->
<g id="edge1" class="edge">
<title>OrderConfirmationItemsComponent&#45;&gt;OrderConfirmationModule</title>
<path fill="none" stroke="black" d="M897.25,-84.83C897.25,-101.86 897.25,-124.8 897.25,-124.8 897.25,-124.8 1229.14,-124.8 1229.14,-124.8"/>
<polygon fill="black" stroke="black" points="1229.14,-128.3 1239.14,-124.8 1229.14,-121.3 1229.14,-128.3"/>
</g>
<!-- OrderConfirmationThankYouMessageComponent -->
<g id="node2" class="node">
<title>OrderConfirmationThankYouMessageComponent</title>
<polygon fill="#ffffb3" stroke="black" points="806.28,-84.8 507.72,-84.8 507.72,-48.8 806.28,-48.8 806.28,-84.8"/>
<text text-anchor="middle" x="657" y="-62.6" font-family="Times,serif" font-size="14.00">OrderConfirmationThankYouMessageComponent</text>
</g>
<!-- OrderConfirmationThankYouMessageComponent&#45;&gt;OrderConfirmationModule -->
<g id="edge2" class="edge">
<title>OrderConfirmationThankYouMessageComponent&#45;&gt;OrderConfirmationModule</title>
<path fill="none" stroke="black" d="M657,-85.02C657,-103.63 657,-129.8 657,-129.8 657,-129.8 1229.33,-129.8 1229.33,-129.8"/>
<polygon fill="black" stroke="black" points="1229.33,-133.3 1239.33,-129.8 1229.32,-126.3 1229.33,-133.3"/>
</g>
<!-- OrderConfirmationTotalsComponent -->
<g id="node3" class="node">
<title>OrderConfirmationTotalsComponent</title>
<polygon fill="#ffffb3" stroke="black" points="490.41,-84.8 265.59,-84.8 265.59,-48.8 490.41,-48.8 490.41,-84.8"/>
<text text-anchor="middle" x="378" y="-62.6" font-family="Times,serif" font-size="14.00">OrderConfirmationTotalsComponent</text>
</g>
<!-- OrderConfirmationTotalsComponent&#45;&gt;OrderConfirmationModule -->
<g id="edge3" class="edge">
<title>OrderConfirmationTotalsComponent&#45;&gt;OrderConfirmationModule</title>
<path fill="none" stroke="black" d="M378,-85.02C378,-105.17 378,-134.8 378,-134.8 378,-134.8 1229.14,-134.8 1229.14,-134.8"/>
<polygon fill="black" stroke="black" points="1229.14,-138.3 1239.14,-134.8 1229.14,-131.3 1229.14,-138.3"/>
</g>
<!-- OrderGuestRegisterFormComponent -->
<g id="node4" class="node">
<title>OrderGuestRegisterFormComponent</title>
<polygon fill="#ffffb3" stroke="black" points="247.64,-84.8 24.36,-84.8 24.36,-48.8 247.64,-48.8 247.64,-84.8"/>
<text text-anchor="middle" x="136" y="-62.6" font-family="Times,serif" font-size="14.00">OrderGuestRegisterFormComponent</text>
</g>
<!-- OrderGuestRegisterFormComponent&#45;&gt;OrderConfirmationModule -->
<g id="edge4" class="edge">
<title>OrderGuestRegisterFormComponent&#45;&gt;OrderConfirmationModule</title>
<path fill="none" stroke="black" d="M136,-84.84C136,-106.46 136,-139.8 136,-139.8 136,-139.8 1229.06,-139.8 1229.06,-139.8"/>
<polygon fill="black" stroke="black" points="1229.06,-143.3 1239.06,-139.8 1229.06,-136.3 1229.06,-143.3"/>
</g>
<!-- OrderConfirmationItemsComponent  -->
<g id="node14" class="node">
<title>OrderConfirmationItemsComponent </title>
<polygon fill="#fb8072" stroke="black" points="1858.02,-214.8 1633.98,-214.8 1633.98,-178.8 1858.02,-178.8 1858.02,-214.8"/>
<text text-anchor="middle" x="1746" y="-192.6" font-family="Times,serif" font-size="14.00">OrderConfirmationItemsComponent </text>
</g>
<!-- OrderConfirmationModule&#45;&gt;OrderConfirmationItemsComponent  -->
<g id="edge13" class="edge">
<title>OrderConfirmationModule&#45;&gt;OrderConfirmationItemsComponent </title>
<path fill="none" stroke="black" stroke-dasharray="5,2" d="M1407.01,-144.8C1501.26,-144.8 1641.15,-144.8 1641.15,-144.8 1641.15,-144.8 1641.15,-168.61 1641.15,-168.61"/>
<polygon fill="black" stroke="black" points="1637.65,-168.61 1641.15,-178.61 1644.65,-168.61 1637.65,-168.61"/>
</g>
<!-- OrderConfirmationThankYouMessageComponent  -->
<g id="node15" class="node">
<title>OrderConfirmationThankYouMessageComponent </title>
<polygon fill="#fb8072" stroke="black" points="1615.78,-214.8 1314.22,-214.8 1314.22,-178.8 1615.78,-178.8 1615.78,-214.8"/>
<text text-anchor="middle" x="1465" y="-192.6" font-family="Times,serif" font-size="14.00">OrderConfirmationThankYouMessageComponent </text>
</g>
<!-- OrderConfirmationModule&#45;&gt;OrderConfirmationThankYouMessageComponent  -->
<g id="edge14" class="edge">
<title>OrderConfirmationModule&#45;&gt;OrderConfirmationThankYouMessageComponent </title>
<path fill="none" stroke="black" stroke-dasharray="5,2" d="M1360.46,-149.91C1360.46,-149.91 1360.46,-168.79 1360.46,-168.79"/>
<polygon fill="black" stroke="black" points="1356.96,-168.79 1360.46,-178.79 1363.96,-168.79 1356.96,-168.79"/>
</g>
<!-- OrderConfirmationTotalsComponent  -->
<g id="node16" class="node">
<title>OrderConfirmationTotalsComponent </title>
<polygon fill="#fb8072" stroke="black" points="1295.91,-214.8 1068.09,-214.8 1068.09,-178.8 1295.91,-178.8 1295.91,-214.8"/>
<text text-anchor="middle" x="1182" y="-192.6" font-family="Times,serif" font-size="14.00">OrderConfirmationTotalsComponent </text>
</g>
<!-- OrderConfirmationModule&#45;&gt;OrderConfirmationTotalsComponent  -->
<g id="edge15" class="edge">
<title>OrderConfirmationModule&#45;&gt;OrderConfirmationTotalsComponent </title>
<path fill="none" stroke="black" stroke-dasharray="5,2" d="M1267.57,-149.91C1267.57,-149.91 1267.57,-168.79 1267.57,-168.79"/>
<polygon fill="black" stroke="black" points="1264.07,-168.79 1267.57,-178.79 1271.07,-168.79 1264.07,-168.79"/>
</g>
<!-- OrderGuestRegisterFormComponent  -->
<g id="node17" class="node">
<title>OrderGuestRegisterFormComponent </title>
<polygon fill="#fb8072" stroke="black" points="1049.63,-214.8 822.37,-214.8 822.37,-178.8 1049.63,-178.8 1049.63,-214.8"/>
<text text-anchor="middle" x="936" y="-192.6" font-family="Times,serif" font-size="14.00">OrderGuestRegisterFormComponent </text>
</g>
<!-- OrderConfirmationModule&#45;&gt;OrderGuestRegisterFormComponent  -->
<g id="edge16" class="edge">
<title>OrderConfirmationModule&#45;&gt;OrderGuestRegisterFormComponent </title>
<path fill="none" stroke="black" stroke-dasharray="5,2" d="M1239.08,-144.8C1134.89,-144.8 970.75,-144.8 970.75,-144.8 970.75,-144.8 970.75,-168.61 970.75,-168.61"/>
<polygon fill="black" stroke="black" points="967.25,-168.61 970.75,-178.61 974.25,-168.61 967.25,-168.61"/>
</g>
<!-- CardModule -->
<g id="node6" class="node">
<title>CardModule</title>
<polygon fill="#8dd3c7" stroke="black" points="2146.27,-84.8 2143.27,-88.8 2122.27,-88.8 2119.27,-84.8 2059.73,-84.8 2059.73,-48.8 2146.27,-48.8 2146.27,-84.8"/>
<text text-anchor="middle" x="2103" y="-62.6" font-family="Times,serif" font-size="14.00">CardModule</text>
</g>
<!-- CardModule&#45;&gt;OrderConfirmationModule -->
<g id="edge5" class="edge">
<title>CardModule&#45;&gt;OrderConfirmationModule</title>
<path fill="none" stroke="black" d="M2103,-84.84C2103,-106.46 2103,-139.8 2103,-139.8 2103,-139.8 1416.84,-139.8 1416.84,-139.8"/>
<polygon fill="black" stroke="black" points="1416.84,-136.3 1406.84,-139.8 1416.84,-143.3 1416.84,-136.3"/>
</g>
<!-- FormErrorsModule -->
<g id="node7" class="node">
<title>FormErrorsModule</title>
<polygon fill="#8dd3c7" stroke="black" points="2041.38,-84.8 2038.38,-88.8 2017.38,-88.8 2014.38,-84.8 1916.62,-84.8 1916.62,-48.8 2041.38,-48.8 2041.38,-84.8"/>
<text text-anchor="middle" x="1979" y="-62.6" font-family="Times,serif" font-size="14.00">FormErrorsModule</text>
</g>
<!-- FormErrorsModule&#45;&gt;OrderConfirmationModule -->
<g id="edge6" class="edge">
<title>FormErrorsModule&#45;&gt;OrderConfirmationModule</title>
<path fill="none" stroke="black" d="M1979,-85.02C1979,-105.17 1979,-134.8 1979,-134.8 1979,-134.8 1416.75,-134.8 1416.75,-134.8"/>
<polygon fill="black" stroke="black" points="1416.75,-131.3 1406.75,-134.8 1416.75,-138.3 1416.75,-131.3"/>
</g>
<!-- I18nModule -->
<g id="node8" class="node">
<title>I18nModule</title>
<polygon fill="#8dd3c7" stroke="black" points="1898.71,-84.8 1895.71,-88.8 1874.71,-88.8 1871.71,-84.8 1813.29,-84.8 1813.29,-48.8 1898.71,-48.8 1898.71,-84.8"/>
<text text-anchor="middle" x="1856" y="-62.6" font-family="Times,serif" font-size="14.00">I18nModule</text>
</g>
<!-- I18nModule&#45;&gt;OrderConfirmationModule -->
<g id="edge7" class="edge">
<title>I18nModule&#45;&gt;OrderConfirmationModule</title>
<path fill="none" stroke="black" d="M1835.7,-85.02C1835.7,-103.63 1835.7,-129.8 1835.7,-129.8 1835.7,-129.8 1416.8,-129.8 1416.8,-129.8"/>
<polygon fill="black" stroke="black" points="1416.8,-126.3 1406.8,-129.8 1416.8,-133.3 1416.8,-126.3"/>
</g>
<!-- OrderOverviewModule -->
<g id="node9" class="node">
<title>OrderOverviewModule</title>
<polygon fill="#8dd3c7" stroke="black" points="1795.9,-84.8 1792.9,-88.8 1771.9,-88.8 1768.9,-84.8 1648.1,-84.8 1648.1,-48.8 1795.9,-48.8 1795.9,-84.8"/>
<text text-anchor="middle" x="1722" y="-62.6" font-family="Times,serif" font-size="14.00">OrderOverviewModule</text>
</g>
<!-- OrderOverviewModule&#45;&gt;OrderConfirmationModule -->
<g id="edge8" class="edge">
<title>OrderOverviewModule&#45;&gt;OrderConfirmationModule</title>
<path fill="none" stroke="black" d="M1722,-84.83C1722,-101.86 1722,-124.8 1722,-124.8 1722,-124.8 1416.64,-124.8 1416.64,-124.8"/>
<polygon fill="black" stroke="black" points="1416.64,-121.3 1406.64,-124.8 1416.64,-128.3 1416.64,-121.3"/>
</g>
<!-- OutletModule -->
<g id="node10" class="node">
<title>OutletModule</title>
<polygon fill="#8dd3c7" stroke="black" points="1630.05,-84.8 1627.05,-88.8 1606.05,-88.8 1603.05,-84.8 1535.95,-84.8 1535.95,-48.8 1630.05,-48.8 1630.05,-84.8"/>
<text text-anchor="middle" x="1583" y="-62.6" font-family="Times,serif" font-size="14.00">OutletModule</text>
</g>
<!-- OutletModule&#45;&gt;OrderConfirmationModule -->
<g id="edge9" class="edge">
<title>OutletModule&#45;&gt;OrderConfirmationModule</title>
<path fill="none" stroke="black" d="M1575.81,-85.04C1575.81,-100.37 1575.81,-119.8 1575.81,-119.8 1575.81,-119.8 1416.83,-119.8 1416.83,-119.8"/>
<polygon fill="black" stroke="black" points="1416.83,-116.3 1406.83,-119.8 1416.83,-123.3 1416.83,-116.3"/>
</g>
<!-- PasswordVisibilityToggleModule -->
<g id="node11" class="node">
<title>PasswordVisibilityToggleModule</title>
<polygon fill="#8dd3c7" stroke="black" points="1517.77,-84.8 1514.77,-88.8 1493.77,-88.8 1490.77,-84.8 1312.23,-84.8 1312.23,-48.8 1517.77,-48.8 1517.77,-84.8"/>
<text text-anchor="middle" x="1415" y="-62.6" font-family="Times,serif" font-size="14.00">PasswordVisibilityToggleModule</text>
</g>
<!-- PasswordVisibilityToggleModule&#45;&gt;OrderConfirmationModule -->
<g id="edge10" class="edge">
<title>PasswordVisibilityToggleModule&#45;&gt;OrderConfirmationModule</title>
<path fill="none" stroke="black" d="M1359.47,-84.91C1359.47,-84.91 1359.47,-103.79 1359.47,-103.79"/>
<polygon fill="black" stroke="black" points="1355.97,-103.79 1359.47,-113.79 1362.97,-103.79 1355.97,-103.79"/>
</g>
<!-- PromotionsModule -->
<g id="node12" class="node">
<title>PromotionsModule</title>
<polygon fill="#8dd3c7" stroke="black" points="1294.12,-84.8 1291.12,-88.8 1270.12,-88.8 1267.12,-84.8 1169.88,-84.8 1169.88,-48.8 1294.12,-48.8 1294.12,-84.8"/>
<text text-anchor="middle" x="1232" y="-62.6" font-family="Times,serif" font-size="14.00">PromotionsModule</text>
</g>
<!-- PromotionsModule&#45;&gt;OrderConfirmationModule -->
<g id="edge11" class="edge">
<title>PromotionsModule&#45;&gt;OrderConfirmationModule</title>
<path fill="none" stroke="black" d="M1266.62,-84.91C1266.62,-84.91 1266.62,-103.79 1266.62,-103.79"/>
<polygon fill="black" stroke="black" points="1263.12,-103.79 1266.62,-113.79 1270.12,-103.79 1263.12,-103.79"/>
</g>
<!-- PwaModule -->
<g id="node13" class="node">
<title>PwaModule</title>
<polygon fill="#8dd3c7" stroke="black" points="1151.66,-84.8 1148.66,-88.8 1127.66,-88.8 1124.66,-84.8 1068.34,-84.8 1068.34,-48.8 1151.66,-48.8 1151.66,-84.8"/>
<text text-anchor="middle" x="1110" y="-62.6" font-family="Times,serif" font-size="14.00">PwaModule</text>
</g>
<!-- PwaModule&#45;&gt;OrderConfirmationModule -->
<g id="edge12" class="edge">
<title>PwaModule&#45;&gt;OrderConfirmationModule</title>
<path fill="none" stroke="black" d="M1110,-85.04C1110,-100.37 1110,-119.8 1110,-119.8 1110,-119.8 1229.12,-119.8 1229.12,-119.8"/>
<polygon fill="black" stroke="black" points="1229.12,-123.3 1239.12,-119.8 1229.12,-116.3 1229.12,-123.3"/>
</g>
</g>
</svg>
