<?xml version="1.0" encoding="UTF-8" standalone="no"?>
<!DOCTYPE svg PUBLIC "-//W3C//DTD SVG 1.1//EN"
 "http://www.w3.org/Graphics/SVG/1.1/DTD/svg11.dtd">
<!-- Generated by graphviz version 5.0.0 (20220707.1540)
 -->
<!-- Title: dependencies Pages: 1 -->
<svg width="2178pt" height="247pt"
 viewBox="0.00 0.00 2178.00 246.80" xmlns="http://www.w3.org/2000/svg" xmlns:xlink="http://www.w3.org/1999/xlink">
<g id="graph0" class="graph" transform="scale(1 1) rotate(0) translate(4 242.8)">
<title>dependencies</title>
<polygon fill="white" stroke="transparent" points="-4,4 -4,-242.8 2174,-242.8 2174,4 -4,4"/>
<text text-anchor="middle" x="1085" y="-8.2" font-family="sans-serif" font-size="14.00">dependencies</text>
<g id="clust1" class="cluster">
<title>cluster_OrderConfirmationModule</title>
<polygon fill="none" stroke="black" stroke-dasharray="1,5" points="8,-32.8 8,-230.8 2162,-230.8 2162,-32.8 8,-32.8"/>
</g>
<g id="clust2" class="cluster">
<title>cluster_OrderConfirmationModule_declarations</title>
<polygon fill="none" stroke="black" points="1118,-40.8 1118,-92.8 2154,-92.8 2154,-40.8 1118,-40.8"/>
</g>
<g id="clust7" class="cluster">
<title>cluster_OrderConfirmationModule_imports</title>
<polygon fill="none" stroke="black" points="16,-40.8 16,-92.8 1110,-92.8 1110,-40.8 16,-40.8"/>
</g>
<g id="clust8" class="cluster">
<title>cluster_OrderConfirmationModule_exports</title>
<polygon fill="none" stroke="black" points="364,-170.8 364,-222.8 1416,-222.8 1416,-170.8 364,-170.8"/>
</g>
<!-- OrderConfirmationItemsComponent -->
<g id="node1" class="node">
<title>OrderConfirmationItemsComponent</title>
<polygon fill="#ffffb3" stroke="black" points="2146.02,-84.8 1925.98,-84.8 1925.98,-48.8 2146.02,-48.8 2146.02,-84.8"/>
<text text-anchor="middle" x="2036" y="-62.6" font-family="Times,serif" font-size="14.00">OrderConfirmationItemsComponent</text>
</g>
<!-- OrderConfirmationModule -->
<g id="node5" class="node">
<title>OrderConfirmationModule</title>
<polygon fill="#8dd3c7" stroke="black" points="956.64,-149.8 953.64,-153.8 932.64,-153.8 929.64,-149.8 789.36,-149.8 789.36,-113.8 956.64,-113.8 956.64,-149.8"/>
<text text-anchor="middle" x="873" y="-127.6" font-family="Times,serif" font-size="14.00">OrderConfirmationModule</text>
</g>
<!-- OrderConfirmationItemsComponent&#45;&gt;OrderConfirmationModule -->
<g id="edge1" class="edge">
<title>OrderConfirmationItemsComponent&#45;&gt;OrderConfirmationModule</title>
<path fill="none" stroke="black" d="M2036,-84.84C2036,-106.46 2036,-139.8 2036,-139.8 2036,-139.8 966.64,-139.8 966.64,-139.8"/>
<polygon fill="black" stroke="black" points="966.64,-136.3 956.64,-139.8 966.64,-143.3 966.64,-136.3"/>
</g>
<!-- OrderConfirmationThankYouMessageComponent -->
<g id="node2" class="node">
<title>OrderConfirmationThankYouMessageComponent</title>
<polygon fill="#ffffb3" stroke="black" points="1908.28,-84.8 1609.72,-84.8 1609.72,-48.8 1908.28,-48.8 1908.28,-84.8"/>
<text text-anchor="middle" x="1759" y="-62.6" font-family="Times,serif" font-size="14.00">OrderConfirmationThankYouMessageComponent</text>
</g>
<!-- OrderConfirmationThankYouMessageComponent&#45;&gt;OrderConfirmationModule -->
<g id="edge2" class="edge">
<title>OrderConfirmationThankYouMessageComponent&#45;&gt;OrderConfirmationModule</title>
<path fill="none" stroke="black" d="M1759,-85.02C1759,-105.17 1759,-134.8 1759,-134.8 1759,-134.8 966.75,-134.8 966.75,-134.8"/>
<polygon fill="black" stroke="black" points="966.75,-131.3 956.75,-134.8 966.75,-138.3 966.75,-131.3"/>
</g>
<!-- OrderConfirmationTotalsComponent -->
<g id="node3" class="node">
<title>OrderConfirmationTotalsComponent</title>
<polygon fill="#ffffb3" stroke="black" points="1592.41,-84.8 1367.59,-84.8 1367.59,-48.8 1592.41,-48.8 1592.41,-84.8"/>
<text text-anchor="middle" x="1480" y="-62.6" font-family="Times,serif" font-size="14.00">OrderConfirmationTotalsComponent</text>
</g>
<!-- OrderConfirmationTotalsComponent&#45;&gt;OrderConfirmationModule -->
<g id="edge3" class="edge">
<title>OrderConfirmationTotalsComponent&#45;&gt;OrderConfirmationModule</title>
<path fill="none" stroke="black" d="M1387.9,-85.02C1387.9,-103.63 1387.9,-129.8 1387.9,-129.8 1387.9,-129.8 966.87,-129.8 966.87,-129.8"/>
<polygon fill="black" stroke="black" points="966.87,-126.3 956.87,-129.8 966.87,-133.3 966.87,-126.3"/>
</g>
<!-- OrderGuestRegisterFormComponent -->
<g id="node4" class="node">
<title>OrderGuestRegisterFormComponent</title>
<polygon fill="#ffffb3" stroke="black" points="1349.64,-84.8 1126.36,-84.8 1126.36,-48.8 1349.64,-48.8 1349.64,-84.8"/>
<text text-anchor="middle" x="1238" y="-62.6" font-family="Times,serif" font-size="14.00">OrderGuestRegisterFormComponent</text>
</g>
<!-- OrderGuestRegisterFormComponent&#45;&gt;OrderConfirmationModule -->
<g id="edge4" class="edge">
<title>OrderGuestRegisterFormComponent&#45;&gt;OrderConfirmationModule</title>
<path fill="none" stroke="black" d="M1146.04,-84.83C1146.04,-101.86 1146.04,-124.8 1146.04,-124.8 1146.04,-124.8 966.78,-124.8 966.78,-124.8"/>
<polygon fill="black" stroke="black" points="966.78,-121.3 956.78,-124.8 966.78,-128.3 966.78,-121.3"/>
</g>
<!-- OrderConfirmationItemsComponent  -->
<g id="node14" class="node">
<title>OrderConfirmationItemsComponent </title>
<polygon fill="#fb8072" stroke="black" points="1408.02,-214.8 1183.98,-214.8 1183.98,-178.8 1408.02,-178.8 1408.02,-214.8"/>
<text text-anchor="middle" x="1296" y="-192.6" font-family="Times,serif" font-size="14.00">OrderConfirmationItemsComponent </text>
</g>
<!-- OrderConfirmationModule&#45;&gt;OrderConfirmationItemsComponent  -->
<g id="edge13" class="edge">
<title>OrderConfirmationModule&#45;&gt;OrderConfirmationItemsComponent </title>
<path fill="none" stroke="black" stroke-dasharray="5,2" d="M957.02,-144.8C1072.7,-144.8 1266.9,-144.8 1266.9,-144.8 1266.9,-144.8 1266.9,-168.61 1266.9,-168.61"/>
<polygon fill="black" stroke="black" points="1263.4,-168.61 1266.9,-178.61 1270.4,-168.61 1263.4,-168.61"/>
</g>
<!-- OrderConfirmationThankYouMessageComponent  -->
<g id="node15" class="node">
<title>OrderConfirmationThankYouMessageComponent </title>
<polygon fill="#fb8072" stroke="black" points="1165.78,-214.8 864.22,-214.8 864.22,-178.8 1165.78,-178.8 1165.78,-214.8"/>
<text text-anchor="middle" x="1015" y="-192.6" font-family="Times,serif" font-size="14.00">OrderConfirmationThankYouMessageComponent </text>
</g>
<!-- OrderConfirmationModule&#45;&gt;OrderConfirmationThankYouMessageComponent  -->
<g id="edge14" class="edge">
<title>OrderConfirmationModule&#45;&gt;OrderConfirmationThankYouMessageComponent </title>
<path fill="none" stroke="black" stroke-dasharray="5,2" d="M910.46,-149.91C910.46,-149.91 910.46,-168.79 910.46,-168.79"/>
<polygon fill="black" stroke="black" points="906.96,-168.79 910.46,-178.79 913.96,-168.79 906.96,-168.79"/>
</g>
<!-- OrderConfirmationTotalsComponent  -->
<g id="node16" class="node">
<title>OrderConfirmationTotalsComponent </title>
<polygon fill="#fb8072" stroke="black" points="845.91,-214.8 618.09,-214.8 618.09,-178.8 845.91,-178.8 845.91,-214.8"/>
<text text-anchor="middle" x="732" y="-192.6" font-family="Times,serif" font-size="14.00">OrderConfirmationTotalsComponent </text>
</g>
<!-- OrderConfirmationModule&#45;&gt;OrderConfirmationTotalsComponent  -->
<g id="edge15" class="edge">
<title>OrderConfirmationModule&#45;&gt;OrderConfirmationTotalsComponent </title>
<path fill="none" stroke="black" stroke-dasharray="5,2" d="M817.57,-149.91C817.57,-149.91 817.57,-168.79 817.57,-168.79"/>
<polygon fill="black" stroke="black" points="814.07,-168.79 817.57,-178.79 821.07,-168.79 814.07,-168.79"/>
</g>
<!-- OrderGuestRegisterFormComponent  -->
<g id="node17" class="node">
<title>OrderGuestRegisterFormComponent </title>
<polygon fill="#fb8072" stroke="black" points="599.63,-214.8 372.37,-214.8 372.37,-178.8 599.63,-178.8 599.63,-214.8"/>
<text text-anchor="middle" x="486" y="-192.6" font-family="Times,serif" font-size="14.00">OrderGuestRegisterFormComponent </text>
</g>
<!-- OrderConfirmationModule&#45;&gt;OrderGuestRegisterFormComponent  -->
<g id="edge16" class="edge">
<title>OrderConfirmationModule&#45;&gt;OrderGuestRegisterFormComponent </title>
<path fill="none" stroke="black" stroke-dasharray="5,2" d="M789.35,-144.8C706.82,-144.8 592.92,-144.8 592.92,-144.8 592.92,-144.8 592.92,-168.61 592.92,-168.61"/>
<polygon fill="black" stroke="black" points="589.42,-168.61 592.92,-178.61 596.42,-168.61 589.42,-168.61"/>
</g>
<!-- CardModule -->
<g id="node6" class="node">
<title>CardModule</title>
<polygon fill="#8dd3c7" stroke="black" points="1102.27,-84.8 1099.27,-88.8 1078.27,-88.8 1075.27,-84.8 1015.73,-84.8 1015.73,-48.8 1102.27,-48.8 1102.27,-84.8"/>
<text text-anchor="middle" x="1059" y="-62.6" font-family="Times,serif" font-size="14.00">CardModule</text>
</g>
<!-- CardModule&#45;&gt;OrderConfirmationModule -->
<g id="edge5" class="edge">
<title>CardModule&#45;&gt;OrderConfirmationModule</title>
<path fill="none" stroke="black" d="M1059,-85.04C1059,-100.37 1059,-119.8 1059,-119.8 1059,-119.8 966.75,-119.8 966.75,-119.8"/>
<polygon fill="black" stroke="black" points="966.75,-116.3 956.75,-119.8 966.75,-123.3 966.75,-116.3"/>
</g>
<!-- FormErrorsModule -->
<g id="node7" class="node">
<title>FormErrorsModule</title>
<polygon fill="#8dd3c7" stroke="black" points="997.38,-84.8 994.38,-88.8 973.38,-88.8 970.38,-84.8 872.62,-84.8 872.62,-48.8 997.38,-48.8 997.38,-84.8"/>
<text text-anchor="middle" x="935" y="-62.6" font-family="Times,serif" font-size="14.00">FormErrorsModule</text>
</g>
<!-- FormErrorsModule&#45;&gt;OrderConfirmationModule -->
<g id="edge6" class="edge">
<title>FormErrorsModule&#45;&gt;OrderConfirmationModule</title>
<path fill="none" stroke="black" d="M914.69,-84.91C914.69,-84.91 914.69,-103.79 914.69,-103.79"/>
<polygon fill="black" stroke="black" points="911.19,-103.79 914.69,-113.79 918.19,-103.79 911.19,-103.79"/>
</g>
<!-- I18nModule -->
<g id="node8" class="node">
<title>I18nModule</title>
<polygon fill="#8dd3c7" stroke="black" points="854.71,-84.8 851.71,-88.8 830.71,-88.8 827.71,-84.8 769.29,-84.8 769.29,-48.8 854.71,-48.8 854.71,-84.8"/>
<text text-anchor="middle" x="812" y="-62.6" font-family="Times,serif" font-size="14.00">I18nModule</text>
</g>
<!-- I18nModule&#45;&gt;OrderConfirmationModule -->
<g id="edge7" class="edge">
<title>I18nModule&#45;&gt;OrderConfirmationModule</title>
<path fill="none" stroke="black" d="M821.89,-84.91C821.89,-84.91 821.89,-103.79 821.89,-103.79"/>
<polygon fill="black" stroke="black" points="818.39,-103.79 821.89,-113.79 825.39,-103.79 818.39,-103.79"/>
</g>
<!-- OrderOverviewModule -->
<g id="node9" class="node">
<title>OrderOverviewModule</title>
<polygon fill="#8dd3c7" stroke="black" points="751.9,-84.8 748.9,-88.8 727.9,-88.8 724.9,-84.8 604.1,-84.8 604.1,-48.8 751.9,-48.8 751.9,-84.8"/>
<text text-anchor="middle" x="678" y="-62.6" font-family="Times,serif" font-size="14.00">OrderOverviewModule</text>
</g>
<!-- OrderOverviewModule&#45;&gt;OrderConfirmationModule -->
<g id="edge8" class="edge">
<title>OrderOverviewModule&#45;&gt;OrderConfirmationModule</title>
<path fill="none" stroke="black" d="M684.87,-85.04C684.87,-100.37 684.87,-119.8 684.87,-119.8 684.87,-119.8 779.12,-119.8 779.12,-119.8"/>
<polygon fill="black" stroke="black" points="779.12,-123.3 789.12,-119.8 779.12,-116.3 779.12,-123.3"/>
</g>
<!-- OutletModule -->
<g id="node10" class="node">
<title>OutletModule</title>
<polygon fill="#8dd3c7" stroke="black" points="586.05,-84.8 583.05,-88.8 562.05,-88.8 559.05,-84.8 491.95,-84.8 491.95,-48.8 586.05,-48.8 586.05,-84.8"/>
<text text-anchor="middle" x="539" y="-62.6" font-family="Times,serif" font-size="14.00">OutletModule</text>
</g>
<!-- OutletModule&#45;&gt;OrderConfirmationModule -->
<g id="edge9" class="edge">
<title>OutletModule&#45;&gt;OrderConfirmationModule</title>
<path fill="none" stroke="black" d="M539,-84.83C539,-101.86 539,-124.8 539,-124.8 539,-124.8 779.15,-124.8 779.15,-124.8"/>
<polygon fill="black" stroke="black" points="779.15,-128.3 789.15,-124.8 779.15,-121.3 779.15,-128.3"/>
</g>
<!-- PasswordVisibilityToggleModule -->
<g id="node11" class="node">
<title>PasswordVisibilityToggleModule</title>
<polygon fill="#8dd3c7" stroke="black" points="473.77,-84.8 470.77,-88.8 449.77,-88.8 446.77,-84.8 268.23,-84.8 268.23,-48.8 473.77,-48.8 473.77,-84.8"/>
<text text-anchor="middle" x="371" y="-62.6" font-family="Times,serif" font-size="14.00">PasswordVisibilityToggleModule</text>
</g>
<!-- PasswordVisibilityToggleModule&#45;&gt;OrderConfirmationModule -->
<g id="edge10" class="edge">
<title>PasswordVisibilityToggleModule&#45;&gt;OrderConfirmationModule</title>
<path fill="none" stroke="black" d="M423.16,-85.02C423.16,-103.63 423.16,-129.8 423.16,-129.8 423.16,-129.8 779.18,-129.8 779.18,-129.8"/>
<polygon fill="black" stroke="black" points="779.18,-133.3 789.18,-129.8 779.18,-126.3 779.18,-133.3"/>
</g>
<!-- PromotionsModule -->
<g id="node12" class="node">
<title>PromotionsModule</title>
<polygon fill="#8dd3c7" stroke="black" points="250.12,-84.8 247.12,-88.8 226.12,-88.8 223.12,-84.8 125.88,-84.8 125.88,-48.8 250.12,-48.8 250.12,-84.8"/>
<text text-anchor="middle" x="188" y="-62.6" font-family="Times,serif" font-size="14.00">PromotionsModule</text>
</g>
<!-- PromotionsModule&#45;&gt;OrderConfirmationModule -->
<g id="edge11" class="edge">
<title>PromotionsModule&#45;&gt;OrderConfirmationModule</title>
<path fill="none" stroke="black" d="M188,-85.02C188,-105.17 188,-134.8 188,-134.8 188,-134.8 779.35,-134.8 779.35,-134.8"/>
<polygon fill="black" stroke="black" points="779.35,-138.3 789.35,-134.8 779.35,-131.3 779.35,-138.3"/>
</g>
<!-- PwaModule -->
<g id="node13" class="node">
<title>PwaModule</title>
<polygon fill="#8dd3c7" stroke="black" points="107.66,-84.8 104.66,-88.8 83.66,-88.8 80.66,-84.8 24.34,-84.8 24.34,-48.8 107.66,-48.8 107.66,-84.8"/>
<text text-anchor="middle" x="66" y="-62.6" font-family="Times,serif" font-size="14.00">PwaModule</text>
</g>
<!-- PwaModule&#45;&gt;OrderConfirmationModule -->
<g id="edge12" class="edge">
<title>PwaModule&#45;&gt;OrderConfirmationModule</title>
<path fill="none" stroke="black" d="M66,-84.84C66,-106.46 66,-139.8 66,-139.8 66,-139.8 779.3,-139.8 779.3,-139.8"/>
<polygon fill="black" stroke="black" points="779.3,-143.3 789.3,-139.8 779.3,-136.3 779.3,-143.3"/>
</g>
</g>
</svg>
