<?xml version="1.0" encoding="UTF-8" standalone="no"?>
<!DOCTYPE svg PUBLIC "-//W3C//DTD SVG 1.1//EN"
 "http://www.w3.org/Graphics/SVG/1.1/DTD/svg11.dtd">
<!-- Generated by graphviz version 5.0.0 (20220707.1540)
 -->
<!-- Title: dependencies Pages: 1 -->
<svg width="734pt" height="247pt"
 viewBox="0.00 0.00 734.00 246.80" xmlns="http://www.w3.org/2000/svg" xmlns:xlink="http://www.w3.org/1999/xlink">
<g id="graph0" class="graph" transform="scale(1 1) rotate(0) translate(4 242.8)">
<title>dependencies</title>
<polygon fill="white" stroke="transparent" points="-4,4 -4,-242.8 730,-242.8 730,4 -4,4"/>
<text text-anchor="middle" x="363" y="-8.2" font-family="sans-serif" font-size="14.00">dependencies</text>
<g id="clust1" class="cluster">
<title>cluster_ReturnOrderModule</title>
<polygon fill="none" stroke="black" stroke-dasharray="1,5" points="8,-32.8 8,-230.8 718,-230.8 718,-32.8 8,-32.8"/>
</g>
<g id="clust2" class="cluster">
<title>cluster_ReturnOrderModule_declarations</title>
<polygon fill="none" stroke="black" points="542,-40.8 542,-92.8 710,-92.8 710,-40.8 542,-40.8"/>
</g>
<g id="clust4" class="cluster">
<title>cluster_ReturnOrderModule_imports</title>
<polygon fill="none" stroke="black" points="16,-40.8 16,-92.8 534,-92.8 534,-40.8 16,-40.8"/>
</g>
<g id="clust5" class="cluster">
<title>cluster_ReturnOrderModule_exports</title>
<polygon fill="none" stroke="black" points="257,-170.8 257,-222.8 429,-222.8 429,-170.8 257,-170.8"/>
</g>
<!-- ReturnOrderComponent -->
<g id="node1" class="node">
<title>ReturnOrderComponent</title>
<polygon fill="#ffffb3" stroke="black" points="702.08,-84.8 549.92,-84.8 549.92,-48.8 702.08,-48.8 702.08,-84.8"/>
<text text-anchor="middle" x="626" y="-62.6" font-family="Times,serif" font-size="14.00">ReturnOrderComponent</text>
</g>
<!-- ReturnOrderModule -->
<g id="node2" class="node">
<title>ReturnOrderModule</title>
<polygon fill="#8dd3c7" stroke="black" points="408.3,-149.8 405.3,-153.8 384.3,-153.8 381.3,-149.8 277.7,-149.8 277.7,-113.8 408.3,-113.8 408.3,-149.8"/>
<text text-anchor="middle" x="343" y="-127.6" font-family="Times,serif" font-size="14.00">ReturnOrderModule</text>
</g>
<!-- ReturnOrderComponent&#45;&gt;ReturnOrderModule -->
<g id="edge1" class="edge">
<title>ReturnOrderComponent&#45;&gt;ReturnOrderModule</title>
<path fill="none" stroke="black" d="M626,-84.91C626,-104.14 626,-131.8 626,-131.8 626,-131.8 418.28,-131.8 418.28,-131.8"/>
<polygon fill="black" stroke="black" points="418.28,-128.3 408.28,-131.8 418.28,-135.3 418.28,-128.3"/>
</g>
<!-- ReturnOrderComponent  -->
<g id="node6" class="node">
<title>ReturnOrderComponent </title>
<polygon fill="#fb8072" stroke="black" points="420.58,-214.8 265.42,-214.8 265.42,-178.8 420.58,-178.8 420.58,-214.8"/>
<text text-anchor="middle" x="343" y="-192.6" font-family="Times,serif" font-size="14.00">ReturnOrderComponent </text>
</g>
<!-- ReturnOrderModule&#45;&gt;ReturnOrderComponent  -->
<g id="edge5" class="edge">
<title>ReturnOrderModule&#45;&gt;ReturnOrderComponent </title>
<path fill="none" stroke="black" stroke-dasharray="5,2" d="M343,-149.91C343,-149.91 343,-168.79 343,-168.79"/>
<polygon fill="black" stroke="black" points="339.5,-168.79 343,-178.79 346.5,-168.79 339.5,-168.79"/>
</g>
<!-- AmendOrderActionsModule -->
<g id="node3" class="node">
<title>AmendOrderActionsModule</title>
<polygon fill="#8dd3c7" stroke="black" points="526.47,-84.8 523.47,-88.8 502.47,-88.8 499.47,-84.8 349.53,-84.8 349.53,-48.8 526.47,-48.8 526.47,-84.8"/>
<text text-anchor="middle" x="438" y="-62.6" font-family="Times,serif" font-size="14.00">AmendOrderActionsModule</text>
</g>
<!-- AmendOrderActionsModule&#45;&gt;ReturnOrderModule -->
<g id="edge2" class="edge">
<title>AmendOrderActionsModule&#45;&gt;ReturnOrderModule</title>
<path fill="none" stroke="black" d="M378.83,-84.91C378.83,-84.91 378.83,-103.79 378.83,-103.79"/>
<polygon fill="black" stroke="black" points="375.33,-103.79 378.83,-113.79 382.33,-103.79 375.33,-103.79"/>
</g>
<!-- AmendOrderItemsModule -->
<g id="node4" class="node">
<title>AmendOrderItemsModule</title>
<polygon fill="#8dd3c7" stroke="black" points="331.02,-84.8 328.02,-88.8 307.02,-88.8 304.02,-84.8 166.98,-84.8 166.98,-48.8 331.02,-48.8 331.02,-84.8"/>
<text text-anchor="middle" x="249" y="-62.6" font-family="Times,serif" font-size="14.00">AmendOrderItemsModule</text>
</g>
<!-- AmendOrderItemsModule&#45;&gt;ReturnOrderModule -->
<g id="edge3" class="edge">
<title>AmendOrderItemsModule&#45;&gt;ReturnOrderModule</title>
<path fill="none" stroke="black" d="M304.55,-84.91C304.55,-84.91 304.55,-103.79 304.55,-103.79"/>
<polygon fill="black" stroke="black" points="301.05,-103.79 304.55,-113.79 308.05,-103.79 301.05,-103.79"/>
</g>
<!-- FormErrorsModule -->
<g id="node5" class="node">
<title>FormErrorsModule</title>
<polygon fill="#8dd3c7" stroke="black" points="148.38,-84.8 145.38,-88.8 124.38,-88.8 121.38,-84.8 23.62,-84.8 23.62,-48.8 148.38,-48.8 148.38,-84.8"/>
<text text-anchor="middle" x="86" y="-62.6" font-family="Times,serif" font-size="14.00">FormErrorsModule</text>
</g>
<!-- FormErrorsModule&#45;&gt;ReturnOrderModule -->
<g id="edge4" class="edge">
<title>FormErrorsModule&#45;&gt;ReturnOrderModule</title>
<path fill="none" stroke="black" d="M86,-84.91C86,-104.14 86,-131.8 86,-131.8 86,-131.8 267.82,-131.8 267.82,-131.8"/>
<polygon fill="black" stroke="black" points="267.82,-135.3 277.82,-131.8 267.82,-128.3 267.82,-135.3"/>
</g>
</g>
</svg>
