<?xml version="1.0" encoding="UTF-8" standalone="no"?>
<!DOCTYPE svg PUBLIC "-//W3C//DTD SVG 1.1//EN"
 "http://www.w3.org/Graphics/SVG/1.1/DTD/svg11.dtd">
<!-- Generated by graphviz version 5.0.0 (20220707.1540)
 -->
<!-- Title: dependencies Pages: 1 -->
<svg width="830pt" height="247pt"
 viewBox="0.00 0.00 830.00 246.80" xmlns="http://www.w3.org/2000/svg" xmlns:xlink="http://www.w3.org/1999/xlink">
<g id="graph0" class="graph" transform="scale(1 1) rotate(0) translate(4 242.8)">
<title>dependencies</title>
<polygon fill="white" stroke="transparent" points="-4,4 -4,-242.8 826,-242.8 826,4 -4,4"/>
<text text-anchor="middle" x="411" y="-8.2" font-family="sans-serif" font-size="14.00">dependencies</text>
<g id="clust1" class="cluster">
<title>cluster_CheckoutPaymentMethodModule</title>
<polygon fill="none" stroke="black" stroke-dasharray="1,5" points="8,-32.8 8,-230.8 814,-230.8 814,-32.8 8,-32.8"/>
</g>
<g id="clust2" class="cluster">
<title>cluster_CheckoutPaymentMethodModule_declarations</title>
<polygon fill="none" stroke="black" points="562,-40.8 562,-92.8 806,-92.8 806,-40.8 562,-40.8"/>
</g>
<g id="clust5" class="cluster">
<title>cluster_CheckoutPaymentMethodModule_exports</title>
<polygon fill="none" stroke="black" points="221,-170.8 221,-222.8 469,-222.8 469,-170.8 221,-170.8"/>
</g>
<g id="clust4" class="cluster">
<title>cluster_CheckoutPaymentMethodModule_imports</title>
<polygon fill="none" stroke="black" points="16,-40.8 16,-92.8 554,-92.8 554,-40.8 16,-40.8"/>
</g>
<!-- CheckoutPaymentMethodComponent -->
<g id="node1" class="node">
<title>CheckoutPaymentMethodComponent</title>
<polygon fill="#ffffb3" stroke="black" points="797.53,-84.8 570.47,-84.8 570.47,-48.8 797.53,-48.8 797.53,-84.8"/>
<text text-anchor="middle" x="684" y="-62.6" font-family="Times,serif" font-size="14.00">CheckoutPaymentMethodComponent</text>
</g>
<!-- CheckoutPaymentMethodModule -->
<g id="node2" class="node">
<title>CheckoutPaymentMethodModule</title>
<polygon fill="#8dd3c7" stroke="black" points="447.75,-149.8 444.75,-153.8 423.75,-153.8 420.75,-149.8 242.25,-149.8 242.25,-113.8 447.75,-113.8 447.75,-149.8"/>
<text text-anchor="middle" x="345" y="-127.6" font-family="Times,serif" font-size="14.00">CheckoutPaymentMethodModule</text>
</g>
<!-- CheckoutPaymentMethodComponent&#45;&gt;CheckoutPaymentMethodModule -->
<g id="edge1" class="edge">
<title>CheckoutPaymentMethodComponent&#45;&gt;CheckoutPaymentMethodModule</title>
<path fill="none" stroke="black" d="M684,-85.08C684,-106.12 684,-137.8 684,-137.8 684,-137.8 458.09,-137.8 458.09,-137.8"/>
<polygon fill="black" stroke="black" points="458.09,-134.3 448.09,-137.8 458.09,-141.3 458.09,-134.3"/>
</g>
<!-- CheckoutPaymentMethodComponent  -->
<g id="node7" class="node">
<title>CheckoutPaymentMethodComponent </title>
<polygon fill="#fb8072" stroke="black" points="460.53,-214.8 229.47,-214.8 229.47,-178.8 460.53,-178.8 460.53,-214.8"/>
<text text-anchor="middle" x="345" y="-192.6" font-family="Times,serif" font-size="14.00">CheckoutPaymentMethodComponent </text>
</g>
<!-- CheckoutPaymentMethodModule&#45;&gt;CheckoutPaymentMethodComponent  -->
<g id="edge6" class="edge">
<title>CheckoutPaymentMethodModule&#45;&gt;CheckoutPaymentMethodComponent </title>
<path fill="none" stroke="black" stroke-dasharray="5,2" d="M345,-149.91C345,-149.91 345,-168.79 345,-168.79"/>
<polygon fill="black" stroke="black" points="341.5,-168.79 345,-178.79 348.5,-168.79 341.5,-168.79"/>
</g>
<!-- CardModule -->
<g id="node3" class="node">
<title>CardModule</title>
<polygon fill="#8dd3c7" stroke="black" points="546.27,-84.8 543.27,-88.8 522.27,-88.8 519.27,-84.8 459.73,-84.8 459.73,-48.8 546.27,-48.8 546.27,-84.8"/>
<text text-anchor="middle" x="503" y="-62.6" font-family="Times,serif" font-size="14.00">CardModule</text>
</g>
<!-- CardModule&#45;&gt;CheckoutPaymentMethodModule -->
<g id="edge2" class="edge">
<title>CardModule&#45;&gt;CheckoutPaymentMethodModule</title>
<path fill="none" stroke="black" d="M503.45,-84.82C503.45,-102.17 503.45,-125.8 503.45,-125.8 503.45,-125.8 458.03,-125.8 458.03,-125.8"/>
<polygon fill="black" stroke="black" points="458.03,-122.3 448.03,-125.8 458.03,-129.3 458.03,-122.3"/>
</g>
<!-- CheckoutPaymentFormModule -->
<g id="node4" class="node">
<title>CheckoutPaymentFormModule</title>
<polygon fill="#8dd3c7" stroke="black" points="441.04,-84.8 438.04,-88.8 417.04,-88.8 414.04,-84.8 248.96,-84.8 248.96,-48.8 441.04,-48.8 441.04,-84.8"/>
<text text-anchor="middle" x="345" y="-62.6" font-family="Times,serif" font-size="14.00">CheckoutPaymentFormModule</text>
</g>
<!-- CheckoutPaymentFormModule&#45;&gt;CheckoutPaymentMethodModule -->
<g id="edge3" class="edge">
<title>CheckoutPaymentFormModule&#45;&gt;CheckoutPaymentMethodModule</title>
<path fill="none" stroke="black" d="M345,-84.91C345,-84.91 345,-103.79 345,-103.79"/>
<polygon fill="black" stroke="black" points="341.5,-103.79 345,-113.79 348.5,-103.79 341.5,-103.79"/>
</g>
<!-- I18nModule -->
<g id="node5" class="node">
<title>I18nModule</title>
<polygon fill="#8dd3c7" stroke="black" points="230.71,-84.8 227.71,-88.8 206.71,-88.8 203.71,-84.8 145.29,-84.8 145.29,-48.8 230.71,-48.8 230.71,-84.8"/>
<text text-anchor="middle" x="188" y="-62.6" font-family="Times,serif" font-size="14.00">I18nModule</text>
</g>
<!-- I18nModule&#45;&gt;CheckoutPaymentMethodModule -->
<g id="edge4" class="edge">
<title>I18nModule&#45;&gt;CheckoutPaymentMethodModule</title>
<path fill="none" stroke="black" d="M187.44,-84.82C187.44,-102.17 187.44,-125.8 187.44,-125.8 187.44,-125.8 232.1,-125.8 232.1,-125.8"/>
<polygon fill="black" stroke="black" points="232.1,-129.3 242.1,-125.8 232.1,-122.3 232.1,-129.3"/>
</g>
<!-- SpinnerModule -->
<g id="node6" class="node">
<title>SpinnerModule</title>
<polygon fill="#8dd3c7" stroke="black" points="127.6,-84.8 124.6,-88.8 103.6,-88.8 100.6,-84.8 24.4,-84.8 24.4,-48.8 127.6,-48.8 127.6,-84.8"/>
<text text-anchor="middle" x="76" y="-62.6" font-family="Times,serif" font-size="14.00">SpinnerModule</text>
</g>
<!-- SpinnerModule&#45;&gt;CheckoutPaymentMethodModule -->
<g id="edge5" class="edge">
<title>SpinnerModule&#45;&gt;CheckoutPaymentMethodModule</title>
<path fill="none" stroke="black" d="M76,-85.08C76,-106.12 76,-137.8 76,-137.8 76,-137.8 232.15,-137.8 232.15,-137.8"/>
<polygon fill="black" stroke="black" points="232.15,-141.3 242.15,-137.8 232.15,-134.3 232.15,-141.3"/>
</g>
</g>
</svg>
