<?xml version="1.0" encoding="UTF-8" standalone="no"?>
<!DOCTYPE svg PUBLIC "-//W3C//DTD SVG 1.1//EN"
 "http://www.w3.org/Graphics/SVG/1.1/DTD/svg11.dtd">
<!-- Generated by graphviz version 5.0.0 (20220707.1540)
 -->
<!-- Title: dependencies Pages: 1 -->
<svg width="1807pt" height="247pt"
 viewBox="0.00 0.00 1807.00 246.80" xmlns="http://www.w3.org/2000/svg" xmlns:xlink="http://www.w3.org/1999/xlink">
<g id="graph0" class="graph" transform="scale(1 1) rotate(0) translate(4 242.8)">
<title>dependencies</title>
<polygon fill="white" stroke="transparent" points="-4,4 -4,-242.8 1803,-242.8 1803,4 -4,4"/>
<text text-anchor="middle" x="899.5" y="-8.2" font-family="sans-serif" font-size="14.00">dependencies</text>
<g id="clust1" class="cluster">
<title>cluster_QuickOrderListModule</title>
<polygon fill="none" stroke="black" stroke-dasharray="1,5" points="8,-32.8 8,-230.8 1791,-230.8 1791,-32.8 8,-32.8"/>
</g>
<g id="clust7" class="cluster">
<title>cluster_QuickOrderListModule_imports</title>
<polygon fill="none" stroke="black" points="774,-40.8 774,-92.8 1783,-92.8 1783,-40.8 774,-40.8"/>
</g>
<g id="clust2" class="cluster">
<title>cluster_QuickOrderListModule_declarations</title>
<polygon fill="none" stroke="black" points="16,-40.8 16,-92.8 766,-92.8 766,-40.8 16,-40.8"/>
</g>
<g id="clust8" class="cluster">
<title>cluster_QuickOrderListModule_exports</title>
<polygon fill="none" stroke="black" points="623,-170.8 623,-222.8 1388,-222.8 1388,-170.8 623,-170.8"/>
</g>
<!-- QuickOrderComponent -->
<g id="node1" class="node">
<title>QuickOrderComponent</title>
<polygon fill="#ffffb3" stroke="black" points="758.19,-84.8 609.81,-84.8 609.81,-48.8 758.19,-48.8 758.19,-84.8"/>
<text text-anchor="middle" x="684" y="-62.6" font-family="Times,serif" font-size="14.00">QuickOrderComponent</text>
</g>
<!-- QuickOrderListModule -->
<g id="node5" class="node">
<title>QuickOrderListModule</title>
<polygon fill="#8dd3c7" stroke="black" points="1094.19,-149.8 1091.19,-153.8 1070.19,-153.8 1067.19,-149.8 945.81,-149.8 945.81,-113.8 1094.19,-113.8 1094.19,-149.8"/>
<text text-anchor="middle" x="1020" y="-127.6" font-family="Times,serif" font-size="14.00">QuickOrderListModule</text>
</g>
<!-- QuickOrderComponent&#45;&gt;QuickOrderListModule -->
<g id="edge1" class="edge">
<title>QuickOrderComponent&#45;&gt;QuickOrderListModule</title>
<path fill="none" stroke="black" d="M694.66,-84.83C694.66,-101.86 694.66,-124.8 694.66,-124.8 694.66,-124.8 935.77,-124.8 935.77,-124.8"/>
<polygon fill="black" stroke="black" points="935.77,-128.3 945.77,-124.8 935.77,-121.3 935.77,-128.3"/>
</g>
<!-- QuickOrderFormComponent -->
<g id="node2" class="node">
<title>QuickOrderFormComponent</title>
<polygon fill="#ffffb3" stroke="black" points="592.03,-84.8 413.97,-84.8 413.97,-48.8 592.03,-48.8 592.03,-84.8"/>
<text text-anchor="middle" x="503" y="-62.6" font-family="Times,serif" font-size="14.00">QuickOrderFormComponent</text>
</g>
<!-- QuickOrderFormComponent&#45;&gt;QuickOrderListModule -->
<g id="edge2" class="edge">
<title>QuickOrderFormComponent&#45;&gt;QuickOrderListModule</title>
<path fill="none" stroke="black" d="M503,-85.02C503,-103.63 503,-129.8 503,-129.8 503,-129.8 935.65,-129.8 935.65,-129.8"/>
<polygon fill="black" stroke="black" points="935.65,-133.3 945.65,-129.8 935.65,-126.3 935.65,-133.3"/>
</g>
<!-- QuickOrderItemComponent -->
<g id="node3" class="node">
<title>QuickOrderItemComponent</title>
<polygon fill="#ffffb3" stroke="black" points="395.85,-84.8 222.15,-84.8 222.15,-48.8 395.85,-48.8 395.85,-84.8"/>
<text text-anchor="middle" x="309" y="-62.6" font-family="Times,serif" font-size="14.00">QuickOrderItemComponent</text>
</g>
<!-- QuickOrderItemComponent&#45;&gt;QuickOrderListModule -->
<g id="edge3" class="edge">
<title>QuickOrderItemComponent&#45;&gt;QuickOrderListModule</title>
<path fill="none" stroke="black" d="M309,-85.02C309,-105.17 309,-134.8 309,-134.8 309,-134.8 935.59,-134.8 935.59,-134.8"/>
<polygon fill="black" stroke="black" points="935.59,-138.3 945.59,-134.8 935.59,-131.3 935.59,-138.3"/>
</g>
<!-- QuickOrderTableComponent -->
<g id="node4" class="node">
<title>QuickOrderTableComponent</title>
<polygon fill="#ffffb3" stroke="black" points="204.06,-84.8 23.94,-84.8 23.94,-48.8 204.06,-48.8 204.06,-84.8"/>
<text text-anchor="middle" x="114" y="-62.6" font-family="Times,serif" font-size="14.00">QuickOrderTableComponent</text>
</g>
<!-- QuickOrderTableComponent&#45;&gt;QuickOrderListModule -->
<g id="edge4" class="edge">
<title>QuickOrderTableComponent&#45;&gt;QuickOrderListModule</title>
<path fill="none" stroke="black" d="M114,-84.84C114,-106.46 114,-139.8 114,-139.8 114,-139.8 935.86,-139.8 935.86,-139.8"/>
<polygon fill="black" stroke="black" points="935.86,-143.3 945.86,-139.8 935.86,-136.3 935.86,-143.3"/>
</g>
<!-- QuickOrderComponent  -->
<g id="node14" class="node">
<title>QuickOrderComponent </title>
<polygon fill="#fb8072" stroke="black" points="1379.69,-214.8 1228.31,-214.8 1228.31,-178.8 1379.69,-178.8 1379.69,-214.8"/>
<text text-anchor="middle" x="1304" y="-192.6" font-family="Times,serif" font-size="14.00">QuickOrderComponent </text>
</g>
<!-- QuickOrderListModule&#45;&gt;QuickOrderComponent  -->
<g id="edge13" class="edge">
<title>QuickOrderListModule&#45;&gt;QuickOrderComponent </title>
<path fill="none" stroke="black" stroke-dasharray="5,2" d="M1094.39,-144.8C1163.94,-144.8 1257.15,-144.8 1257.15,-144.8 1257.15,-144.8 1257.15,-168.61 1257.15,-168.61"/>
<polygon fill="black" stroke="black" points="1253.65,-168.61 1257.15,-178.61 1260.65,-168.61 1253.65,-168.61"/>
</g>
<!-- QuickOrderFormComponent  -->
<g id="node15" class="node">
<title>QuickOrderFormComponent </title>
<polygon fill="#fb8072" stroke="black" points="1210.03,-214.8 1027.97,-214.8 1027.97,-178.8 1210.03,-178.8 1210.03,-214.8"/>
<text text-anchor="middle" x="1119" y="-192.6" font-family="Times,serif" font-size="14.00">QuickOrderFormComponent </text>
</g>
<!-- QuickOrderListModule&#45;&gt;QuickOrderFormComponent  -->
<g id="edge14" class="edge">
<title>QuickOrderListModule&#45;&gt;QuickOrderFormComponent </title>
<path fill="none" stroke="black" stroke-dasharray="5,2" d="M1061.04,-149.91C1061.04,-149.91 1061.04,-168.79 1061.04,-168.79"/>
<polygon fill="black" stroke="black" points="1057.54,-168.79 1061.04,-178.79 1064.54,-168.79 1057.54,-168.79"/>
</g>
<!-- QuickOrderItemComponent  -->
<g id="node16" class="node">
<title>QuickOrderItemComponent </title>
<polygon fill="#fb8072" stroke="black" points="1009.85,-214.8 832.15,-214.8 832.15,-178.8 1009.85,-178.8 1009.85,-214.8"/>
<text text-anchor="middle" x="921" y="-192.6" font-family="Times,serif" font-size="14.00">QuickOrderItemComponent </text>
</g>
<!-- QuickOrderListModule&#45;&gt;QuickOrderItemComponent  -->
<g id="edge15" class="edge">
<title>QuickOrderListModule&#45;&gt;QuickOrderItemComponent </title>
<path fill="none" stroke="black" stroke-dasharray="5,2" d="M977.79,-149.91C977.79,-149.91 977.79,-168.79 977.79,-168.79"/>
<polygon fill="black" stroke="black" points="974.29,-168.79 977.79,-178.79 981.29,-168.79 974.29,-168.79"/>
</g>
<!-- QuickOrderTableComponent  -->
<g id="node17" class="node">
<title>QuickOrderTableComponent </title>
<polygon fill="#fb8072" stroke="black" points="814.56,-214.8 631.44,-214.8 631.44,-178.8 814.56,-178.8 814.56,-214.8"/>
<text text-anchor="middle" x="723" y="-192.6" font-family="Times,serif" font-size="14.00">QuickOrderTableComponent </text>
</g>
<!-- QuickOrderListModule&#45;&gt;QuickOrderTableComponent  -->
<g id="edge16" class="edge">
<title>QuickOrderListModule&#45;&gt;QuickOrderTableComponent </title>
<path fill="none" stroke="black" stroke-dasharray="5,2" d="M945.88,-144.8C881.44,-144.8 798.34,-144.8 798.34,-144.8 798.34,-144.8 798.34,-168.61 798.34,-168.61"/>
<polygon fill="black" stroke="black" points="794.84,-168.61 798.34,-178.61 801.84,-168.61 794.84,-168.61"/>
</g>
<!-- AtMessageModule -->
<g id="node6" class="node">
<title>AtMessageModule</title>
<polygon fill="#8dd3c7" stroke="black" points="1775.04,-84.8 1772.04,-88.8 1751.04,-88.8 1748.04,-84.8 1652.96,-84.8 1652.96,-48.8 1775.04,-48.8 1775.04,-84.8"/>
<text text-anchor="middle" x="1714" y="-62.6" font-family="Times,serif" font-size="14.00">AtMessageModule</text>
</g>
<!-- AtMessageModule&#45;&gt;QuickOrderListModule -->
<g id="edge5" class="edge">
<title>AtMessageModule&#45;&gt;QuickOrderListModule</title>
<path fill="none" stroke="black" d="M1714,-84.84C1714,-106.46 1714,-139.8 1714,-139.8 1714,-139.8 1104.27,-139.8 1104.27,-139.8"/>
<polygon fill="black" stroke="black" points="1104.27,-136.3 1094.27,-139.8 1104.27,-143.3 1104.27,-136.3"/>
</g>
<!-- FormErrorsModule -->
<g id="node7" class="node">
<title>FormErrorsModule</title>
<polygon fill="#8dd3c7" stroke="black" points="1634.38,-84.8 1631.38,-88.8 1610.38,-88.8 1607.38,-84.8 1509.62,-84.8 1509.62,-48.8 1634.38,-48.8 1634.38,-84.8"/>
<text text-anchor="middle" x="1572" y="-62.6" font-family="Times,serif" font-size="14.00">FormErrorsModule</text>
</g>
<!-- FormErrorsModule&#45;&gt;QuickOrderListModule -->
<g id="edge6" class="edge">
<title>FormErrorsModule&#45;&gt;QuickOrderListModule</title>
<path fill="none" stroke="black" d="M1572,-85.02C1572,-105.17 1572,-134.8 1572,-134.8 1572,-134.8 1104.16,-134.8 1104.16,-134.8"/>
<polygon fill="black" stroke="black" points="1104.16,-131.3 1094.16,-134.8 1104.16,-138.3 1104.16,-131.3"/>
</g>
<!-- I18nModule -->
<g id="node8" class="node">
<title>I18nModule</title>
<polygon fill="#8dd3c7" stroke="black" points="1491.71,-84.8 1488.71,-88.8 1467.71,-88.8 1464.71,-84.8 1406.29,-84.8 1406.29,-48.8 1491.71,-48.8 1491.71,-84.8"/>
<text text-anchor="middle" x="1449" y="-62.6" font-family="Times,serif" font-size="14.00">I18nModule</text>
</g>
<!-- I18nModule&#45;&gt;QuickOrderListModule -->
<g id="edge7" class="edge">
<title>I18nModule&#45;&gt;QuickOrderListModule</title>
<path fill="none" stroke="black" d="M1449,-85.02C1449,-103.63 1449,-129.8 1449,-129.8 1449,-129.8 1104.24,-129.8 1104.24,-129.8"/>
<polygon fill="black" stroke="black" points="1104.24,-126.3 1094.24,-129.8 1104.24,-133.3 1104.24,-126.3"/>
</g>
<!-- IconModule -->
<g id="node9" class="node">
<title>IconModule</title>
<polygon fill="#8dd3c7" stroke="black" points="1388.43,-84.8 1385.43,-88.8 1364.43,-88.8 1361.43,-84.8 1303.57,-84.8 1303.57,-48.8 1388.43,-48.8 1388.43,-84.8"/>
<text text-anchor="middle" x="1346" y="-62.6" font-family="Times,serif" font-size="14.00">IconModule</text>
</g>
<!-- IconModule&#45;&gt;QuickOrderListModule -->
<g id="edge8" class="edge">
<title>IconModule&#45;&gt;QuickOrderListModule</title>
<path fill="none" stroke="black" d="M1341.82,-84.83C1341.82,-101.86 1341.82,-124.8 1341.82,-124.8 1341.82,-124.8 1104.24,-124.8 1104.24,-124.8"/>
<polygon fill="black" stroke="black" points="1104.24,-121.3 1094.24,-124.8 1104.24,-128.3 1104.24,-121.3"/>
</g>
<!-- ItemCounterModule -->
<g id="node10" class="node">
<title>ItemCounterModule</title>
<polygon fill="#8dd3c7" stroke="black" points="1286.31,-84.8 1283.31,-88.8 1262.31,-88.8 1259.31,-84.8 1155.69,-84.8 1155.69,-48.8 1286.31,-48.8 1286.31,-84.8"/>
<text text-anchor="middle" x="1221" y="-62.6" font-family="Times,serif" font-size="14.00">ItemCounterModule</text>
</g>
<!-- ItemCounterModule&#45;&gt;QuickOrderListModule -->
<g id="edge9" class="edge">
<title>ItemCounterModule&#45;&gt;QuickOrderListModule</title>
<path fill="none" stroke="black" d="M1182.93,-85.04C1182.93,-100.37 1182.93,-119.8 1182.93,-119.8 1182.93,-119.8 1104.31,-119.8 1104.31,-119.8"/>
<polygon fill="black" stroke="black" points="1104.31,-116.3 1094.31,-119.8 1104.31,-123.3 1104.31,-116.3"/>
</g>
<!-- MediaModule -->
<g id="node11" class="node">
<title>MediaModule</title>
<polygon fill="#8dd3c7" stroke="black" points="1137.82,-84.8 1134.82,-88.8 1113.82,-88.8 1110.82,-84.8 1042.18,-84.8 1042.18,-48.8 1137.82,-48.8 1137.82,-84.8"/>
<text text-anchor="middle" x="1090" y="-62.6" font-family="Times,serif" font-size="14.00">MediaModule</text>
</g>
<!-- MediaModule&#45;&gt;QuickOrderListModule -->
<g id="edge10" class="edge">
<title>MediaModule&#45;&gt;QuickOrderListModule</title>
<path fill="none" stroke="black" d="M1068.22,-84.91C1068.22,-84.91 1068.22,-103.79 1068.22,-103.79"/>
<polygon fill="black" stroke="black" points="1064.72,-103.79 1068.22,-113.79 1071.72,-103.79 1064.72,-103.79"/>
</g>
<!-- ProgressButtonModule -->
<g id="node12" class="node">
<title>ProgressButtonModule</title>
<polygon fill="#8dd3c7" stroke="black" points="1023.89,-84.8 1020.89,-88.8 999.89,-88.8 996.89,-84.8 878.11,-84.8 878.11,-48.8 1023.89,-48.8 1023.89,-84.8"/>
<text text-anchor="middle" x="951" y="-62.6" font-family="Times,serif" font-size="14.00">ProgressButtonModule</text>
</g>
<!-- ProgressButtonModule&#45;&gt;QuickOrderListModule -->
<g id="edge11" class="edge">
<title>ProgressButtonModule&#45;&gt;QuickOrderListModule</title>
<path fill="none" stroke="black" d="M984.92,-84.91C984.92,-84.91 984.92,-103.79 984.92,-103.79"/>
<polygon fill="black" stroke="black" points="981.42,-103.79 984.92,-113.79 988.42,-103.79 981.42,-103.79"/>
</g>
<!-- UrlModule -->
<g id="node13" class="node">
<title>UrlModule</title>
<polygon fill="#8dd3c7" stroke="black" points="860.21,-84.8 857.21,-88.8 836.21,-88.8 833.21,-84.8 781.79,-84.8 781.79,-48.8 860.21,-48.8 860.21,-84.8"/>
<text text-anchor="middle" x="821" y="-62.6" font-family="Times,serif" font-size="14.00">UrlModule</text>
</g>
<!-- UrlModule&#45;&gt;QuickOrderListModule -->
<g id="edge12" class="edge">
<title>UrlModule&#45;&gt;QuickOrderListModule</title>
<path fill="none" stroke="black" d="M846.22,-85.04C846.22,-100.37 846.22,-119.8 846.22,-119.8 846.22,-119.8 935.8,-119.8 935.8,-119.8"/>
<polygon fill="black" stroke="black" points="935.8,-123.3 945.8,-119.8 935.8,-116.3 935.8,-123.3"/>
</g>
</g>
</svg>
