<?xml version="1.0" encoding="UTF-8" standalone="no"?>
<!DOCTYPE svg PUBLIC "-//W3C//DTD SVG 1.1//EN"
 "http://www.w3.org/Graphics/SVG/1.1/DTD/svg11.dtd">
<!-- Generated by graphviz version 5.0.0 (20220707.1540)
 -->
<!-- Title: dependencies Pages: 1 -->
<svg width="1807pt" height="247pt"
 viewBox="0.00 0.00 1807.00 246.80" xmlns="http://www.w3.org/2000/svg" xmlns:xlink="http://www.w3.org/1999/xlink">
<g id="graph0" class="graph" transform="scale(1 1) rotate(0) translate(4 242.8)">
<title>dependencies</title>
<polygon fill="white" stroke="transparent" points="-4,4 -4,-242.8 1803,-242.8 1803,4 -4,4"/>
<text text-anchor="middle" x="899.5" y="-8.2" font-family="sans-serif" font-size="14.00">dependencies</text>
<g id="clust1" class="cluster">
<title>cluster_QuickOrderListModule</title>
<polygon fill="none" stroke="black" stroke-dasharray="1,5" points="8,-32.8 8,-230.8 1791,-230.8 1791,-32.8 8,-32.8"/>
</g>
<g id="clust2" class="cluster">
<title>cluster_QuickOrderListModule_declarations</title>
<polygon fill="none" stroke="black" points="1033,-40.8 1033,-92.8 1783,-92.8 1783,-40.8 1033,-40.8"/>
</g>
<g id="clust8" class="cluster">
<title>cluster_QuickOrderListModule_exports</title>
<polygon fill="none" stroke="black" points="355,-170.8 355,-222.8 1120,-222.8 1120,-170.8 355,-170.8"/>
</g>
<g id="clust7" class="cluster">
<title>cluster_QuickOrderListModule_imports</title>
<polygon fill="none" stroke="black" points="16,-40.8 16,-92.8 1025,-92.8 1025,-40.8 16,-40.8"/>
</g>
<!-- QuickOrderComponent -->
<g id="node1" class="node">
<title>QuickOrderComponent</title>
<polygon fill="#ffffb3" stroke="black" points="1775.19,-84.8 1626.81,-84.8 1626.81,-48.8 1775.19,-48.8 1775.19,-84.8"/>
<text text-anchor="middle" x="1701" y="-62.6" font-family="Times,serif" font-size="14.00">QuickOrderComponent</text>
</g>
<!-- QuickOrderListModule -->
<g id="node5" class="node">
<title>QuickOrderListModule</title>
<polygon fill="#8dd3c7" stroke="black" points="826.19,-149.8 823.19,-153.8 802.19,-153.8 799.19,-149.8 677.81,-149.8 677.81,-113.8 826.19,-113.8 826.19,-149.8"/>
<text text-anchor="middle" x="752" y="-127.6" font-family="Times,serif" font-size="14.00">QuickOrderListModule</text>
</g>
<!-- QuickOrderComponent&#45;&gt;QuickOrderListModule -->
<g id="edge1" class="edge">
<title>QuickOrderComponent&#45;&gt;QuickOrderListModule</title>
<path fill="none" stroke="black" d="M1701,-84.84C1701,-106.46 1701,-139.8 1701,-139.8 1701,-139.8 836.47,-139.8 836.47,-139.8"/>
<polygon fill="black" stroke="black" points="836.47,-136.3 826.47,-139.8 836.47,-143.3 836.47,-136.3"/>
</g>
<!-- QuickOrderFormComponent -->
<g id="node2" class="node">
<title>QuickOrderFormComponent</title>
<polygon fill="#ffffb3" stroke="black" points="1609.03,-84.8 1430.97,-84.8 1430.97,-48.8 1609.03,-48.8 1609.03,-84.8"/>
<text text-anchor="middle" x="1520" y="-62.6" font-family="Times,serif" font-size="14.00">QuickOrderFormComponent</text>
</g>
<!-- QuickOrderFormComponent&#45;&gt;QuickOrderListModule -->
<g id="edge2" class="edge">
<title>QuickOrderFormComponent&#45;&gt;QuickOrderListModule</title>
<path fill="none" stroke="black" d="M1520,-85.02C1520,-105.17 1520,-134.8 1520,-134.8 1520,-134.8 836.34,-134.8 836.34,-134.8"/>
<polygon fill="black" stroke="black" points="836.34,-131.3 826.34,-134.8 836.34,-138.3 836.34,-131.3"/>
</g>
<!-- QuickOrderItemComponent -->
<g id="node3" class="node">
<title>QuickOrderItemComponent</title>
<polygon fill="#ffffb3" stroke="black" points="1412.85,-84.8 1239.15,-84.8 1239.15,-48.8 1412.85,-48.8 1412.85,-84.8"/>
<text text-anchor="middle" x="1326" y="-62.6" font-family="Times,serif" font-size="14.00">QuickOrderItemComponent</text>
</g>
<!-- QuickOrderItemComponent&#45;&gt;QuickOrderListModule -->
<g id="edge3" class="edge">
<title>QuickOrderItemComponent&#45;&gt;QuickOrderListModule</title>
<path fill="none" stroke="black" d="M1326,-85.02C1326,-103.63 1326,-129.8 1326,-129.8 1326,-129.8 836.16,-129.8 836.16,-129.8"/>
<polygon fill="black" stroke="black" points="836.16,-126.3 826.16,-129.8 836.16,-133.3 836.16,-126.3"/>
</g>
<!-- QuickOrderTableComponent -->
<g id="node4" class="node">
<title>QuickOrderTableComponent</title>
<polygon fill="#ffffb3" stroke="black" points="1221.06,-84.8 1040.94,-84.8 1040.94,-48.8 1221.06,-48.8 1221.06,-84.8"/>
<text text-anchor="middle" x="1131" y="-62.6" font-family="Times,serif" font-size="14.00">QuickOrderTableComponent</text>
</g>
<!-- QuickOrderTableComponent&#45;&gt;QuickOrderListModule -->
<g id="edge4" class="edge">
<title>QuickOrderTableComponent&#45;&gt;QuickOrderListModule</title>
<path fill="none" stroke="black" d="M1076.41,-84.83C1076.41,-101.86 1076.41,-124.8 1076.41,-124.8 1076.41,-124.8 836.43,-124.8 836.43,-124.8"/>
<polygon fill="black" stroke="black" points="836.43,-121.3 826.43,-124.8 836.43,-128.3 836.43,-121.3"/>
</g>
<!-- QuickOrderComponent  -->
<g id="node14" class="node">
<title>QuickOrderComponent </title>
<polygon fill="#fb8072" stroke="black" points="1111.69,-214.8 960.31,-214.8 960.31,-178.8 1111.69,-178.8 1111.69,-214.8"/>
<text text-anchor="middle" x="1036" y="-192.6" font-family="Times,serif" font-size="14.00">QuickOrderComponent </text>
</g>
<!-- QuickOrderListModule&#45;&gt;QuickOrderComponent  -->
<g id="edge13" class="edge">
<title>QuickOrderListModule&#45;&gt;QuickOrderComponent </title>
<path fill="none" stroke="black" stroke-dasharray="5,2" d="M826.25,-144.8C895.67,-144.8 988.71,-144.8 988.71,-144.8 988.71,-144.8 988.71,-168.61 988.71,-168.61"/>
<polygon fill="black" stroke="black" points="985.21,-168.61 988.71,-178.61 992.21,-168.61 985.21,-168.61"/>
</g>
<!-- QuickOrderFormComponent  -->
<g id="node15" class="node">
<title>QuickOrderFormComponent </title>
<polygon fill="#fb8072" stroke="black" points="942.03,-214.8 759.97,-214.8 759.97,-178.8 942.03,-178.8 942.03,-214.8"/>
<text text-anchor="middle" x="851" y="-192.6" font-family="Times,serif" font-size="14.00">QuickOrderFormComponent </text>
</g>
<!-- QuickOrderListModule&#45;&gt;QuickOrderFormComponent  -->
<g id="edge14" class="edge">
<title>QuickOrderListModule&#45;&gt;QuickOrderFormComponent </title>
<path fill="none" stroke="black" stroke-dasharray="5,2" d="M793.04,-149.91C793.04,-149.91 793.04,-168.79 793.04,-168.79"/>
<polygon fill="black" stroke="black" points="789.54,-168.79 793.04,-178.79 796.54,-168.79 789.54,-168.79"/>
</g>
<!-- QuickOrderItemComponent  -->
<g id="node16" class="node">
<title>QuickOrderItemComponent </title>
<polygon fill="#fb8072" stroke="black" points="741.85,-214.8 564.15,-214.8 564.15,-178.8 741.85,-178.8 741.85,-214.8"/>
<text text-anchor="middle" x="653" y="-192.6" font-family="Times,serif" font-size="14.00">QuickOrderItemComponent </text>
</g>
<!-- QuickOrderListModule&#45;&gt;QuickOrderItemComponent  -->
<g id="edge15" class="edge">
<title>QuickOrderListModule&#45;&gt;QuickOrderItemComponent </title>
<path fill="none" stroke="black" stroke-dasharray="5,2" d="M709.79,-149.91C709.79,-149.91 709.79,-168.79 709.79,-168.79"/>
<polygon fill="black" stroke="black" points="706.29,-168.79 709.79,-178.79 713.29,-168.79 706.29,-168.79"/>
</g>
<!-- QuickOrderTableComponent  -->
<g id="node17" class="node">
<title>QuickOrderTableComponent </title>
<polygon fill="#fb8072" stroke="black" points="546.56,-214.8 363.44,-214.8 363.44,-178.8 546.56,-178.8 546.56,-214.8"/>
<text text-anchor="middle" x="455" y="-192.6" font-family="Times,serif" font-size="14.00">QuickOrderTableComponent </text>
</g>
<!-- QuickOrderListModule&#45;&gt;QuickOrderTableComponent  -->
<g id="edge16" class="edge">
<title>QuickOrderListModule&#45;&gt;QuickOrderTableComponent </title>
<path fill="none" stroke="black" stroke-dasharray="5,2" d="M677.7,-144.8C615.54,-144.8 536.97,-144.8 536.97,-144.8 536.97,-144.8 536.97,-168.61 536.97,-168.61"/>
<polygon fill="black" stroke="black" points="533.47,-168.61 536.97,-178.61 540.47,-168.61 533.47,-168.61"/>
</g>
<!-- AtMessageModule -->
<g id="node6" class="node">
<title>AtMessageModule</title>
<polygon fill="#8dd3c7" stroke="black" points="1017.04,-84.8 1014.04,-88.8 993.04,-88.8 990.04,-84.8 894.96,-84.8 894.96,-48.8 1017.04,-48.8 1017.04,-84.8"/>
<text text-anchor="middle" x="956" y="-62.6" font-family="Times,serif" font-size="14.00">AtMessageModule</text>
</g>
<!-- AtMessageModule&#45;&gt;QuickOrderListModule -->
<g id="edge5" class="edge">
<title>AtMessageModule&#45;&gt;QuickOrderListModule</title>
<path fill="none" stroke="black" d="M918.37,-85.04C918.37,-100.37 918.37,-119.8 918.37,-119.8 918.37,-119.8 836.43,-119.8 836.43,-119.8"/>
<polygon fill="black" stroke="black" points="836.43,-116.3 826.43,-119.8 836.43,-123.3 836.43,-116.3"/>
</g>
<!-- FormErrorsModule -->
<g id="node7" class="node">
<title>FormErrorsModule</title>
<polygon fill="#8dd3c7" stroke="black" points="876.38,-84.8 873.38,-88.8 852.38,-88.8 849.38,-84.8 751.62,-84.8 751.62,-48.8 876.38,-48.8 876.38,-84.8"/>
<text text-anchor="middle" x="814" y="-62.6" font-family="Times,serif" font-size="14.00">FormErrorsModule</text>
</g>
<!-- FormErrorsModule&#45;&gt;QuickOrderListModule -->
<g id="edge6" class="edge">
<title>FormErrorsModule&#45;&gt;QuickOrderListModule</title>
<path fill="none" stroke="black" d="M788.83,-84.91C788.83,-84.91 788.83,-103.79 788.83,-103.79"/>
<polygon fill="black" stroke="black" points="785.33,-103.79 788.83,-113.79 792.33,-103.79 785.33,-103.79"/>
</g>
<!-- I18nModule -->
<g id="node8" class="node">
<title>I18nModule</title>
<polygon fill="#8dd3c7" stroke="black" points="733.71,-84.8 730.71,-88.8 709.71,-88.8 706.71,-84.8 648.29,-84.8 648.29,-48.8 733.71,-48.8 733.71,-84.8"/>
<text text-anchor="middle" x="691" y="-62.6" font-family="Times,serif" font-size="14.00">I18nModule</text>
</g>
<!-- I18nModule&#45;&gt;QuickOrderListModule -->
<g id="edge7" class="edge">
<title>I18nModule&#45;&gt;QuickOrderListModule</title>
<path fill="none" stroke="black" d="M705.76,-84.91C705.76,-84.91 705.76,-103.79 705.76,-103.79"/>
<polygon fill="black" stroke="black" points="702.26,-103.79 705.76,-113.79 709.26,-103.79 702.26,-103.79"/>
</g>
<!-- IconModule -->
<g id="node9" class="node">
<title>IconModule</title>
<polygon fill="#8dd3c7" stroke="black" points="630.43,-84.8 627.43,-88.8 606.43,-88.8 603.43,-84.8 545.57,-84.8 545.57,-48.8 630.43,-48.8 630.43,-84.8"/>
<text text-anchor="middle" x="588" y="-62.6" font-family="Times,serif" font-size="14.00">IconModule</text>
</g>
<!-- IconModule&#45;&gt;QuickOrderListModule -->
<g id="edge8" class="edge">
<title>IconModule&#45;&gt;QuickOrderListModule</title>
<path fill="none" stroke="black" d="M597.27,-85.04C597.27,-100.37 597.27,-119.8 597.27,-119.8 597.27,-119.8 667.81,-119.8 667.81,-119.8"/>
<polygon fill="black" stroke="black" points="667.81,-123.3 677.81,-119.8 667.81,-116.3 667.81,-123.3"/>
</g>
<!-- ItemCounterModule -->
<g id="node10" class="node">
<title>ItemCounterModule</title>
<polygon fill="#8dd3c7" stroke="black" points="528.31,-84.8 525.31,-88.8 504.31,-88.8 501.31,-84.8 397.69,-84.8 397.69,-48.8 528.31,-48.8 528.31,-84.8"/>
<text text-anchor="middle" x="463" y="-62.6" font-family="Times,serif" font-size="14.00">ItemCounterModule</text>
</g>
<!-- ItemCounterModule&#45;&gt;QuickOrderListModule -->
<g id="edge9" class="edge">
<title>ItemCounterModule&#45;&gt;QuickOrderListModule</title>
<path fill="none" stroke="black" d="M463,-84.83C463,-101.86 463,-124.8 463,-124.8 463,-124.8 667.58,-124.8 667.58,-124.8"/>
<polygon fill="black" stroke="black" points="667.58,-128.3 677.58,-124.8 667.58,-121.3 667.58,-128.3"/>
</g>
<!-- MediaModule -->
<g id="node11" class="node">
<title>MediaModule</title>
<polygon fill="#8dd3c7" stroke="black" points="379.82,-84.8 376.82,-88.8 355.82,-88.8 352.82,-84.8 284.18,-84.8 284.18,-48.8 379.82,-48.8 379.82,-84.8"/>
<text text-anchor="middle" x="332" y="-62.6" font-family="Times,serif" font-size="14.00">MediaModule</text>
</g>
<!-- MediaModule&#45;&gt;QuickOrderListModule -->
<g id="edge10" class="edge">
<title>MediaModule&#45;&gt;QuickOrderListModule</title>
<path fill="none" stroke="black" d="M371.44,-85.02C371.44,-103.63 371.44,-129.8 371.44,-129.8 371.44,-129.8 667.72,-129.8 667.72,-129.8"/>
<polygon fill="black" stroke="black" points="667.72,-133.3 677.72,-129.8 667.72,-126.3 667.72,-133.3"/>
</g>
<!-- ProgressButtonModule -->
<g id="node12" class="node">
<title>ProgressButtonModule</title>
<polygon fill="#8dd3c7" stroke="black" points="265.89,-84.8 262.89,-88.8 241.89,-88.8 238.89,-84.8 120.11,-84.8 120.11,-48.8 265.89,-48.8 265.89,-84.8"/>
<text text-anchor="middle" x="193" y="-62.6" font-family="Times,serif" font-size="14.00">ProgressButtonModule</text>
</g>
<!-- ProgressButtonModule&#45;&gt;QuickOrderListModule -->
<g id="edge11" class="edge">
<title>ProgressButtonModule&#45;&gt;QuickOrderListModule</title>
<path fill="none" stroke="black" d="M193,-85.02C193,-105.17 193,-134.8 193,-134.8 193,-134.8 667.77,-134.8 667.77,-134.8"/>
<polygon fill="black" stroke="black" points="667.77,-138.3 677.77,-134.8 667.77,-131.3 667.77,-138.3"/>
</g>
<!-- UrlModule -->
<g id="node13" class="node">
<title>UrlModule</title>
<polygon fill="#8dd3c7" stroke="black" points="102.21,-84.8 99.21,-88.8 78.21,-88.8 75.21,-84.8 23.79,-84.8 23.79,-48.8 102.21,-48.8 102.21,-84.8"/>
<text text-anchor="middle" x="63" y="-62.6" font-family="Times,serif" font-size="14.00">UrlModule</text>
</g>
<!-- UrlModule&#45;&gt;QuickOrderListModule -->
<g id="edge12" class="edge">
<title>UrlModule&#45;&gt;QuickOrderListModule</title>
<path fill="none" stroke="black" d="M63,-84.84C63,-106.46 63,-139.8 63,-139.8 63,-139.8 667.61,-139.8 667.61,-139.8"/>
<polygon fill="black" stroke="black" points="667.61,-143.3 677.61,-139.8 667.61,-136.3 667.61,-143.3"/>
</g>
</g>
</svg>
