<?xml version="1.0" encoding="UTF-8" standalone="no"?>
<!DOCTYPE svg PUBLIC "-//W3C//DTD SVG 1.1//EN"
 "http://www.w3.org/Graphics/SVG/1.1/DTD/svg11.dtd">
<!-- Generated by graphviz version 5.0.0 (20220707.1540)
 -->
<!-- Title: dependencies Pages: 1 -->
<svg width="570pt" height="247pt"
 viewBox="0.00 0.00 570.00 246.80" xmlns="http://www.w3.org/2000/svg" xmlns:xlink="http://www.w3.org/1999/xlink">
<g id="graph0" class="graph" transform="scale(1 1) rotate(0) translate(4 242.8)">
<title>dependencies</title>
<polygon fill="white" stroke="transparent" points="-4,4 -4,-242.8 566,-242.8 566,4 -4,4"/>
<text text-anchor="middle" x="281" y="-8.2" font-family="sans-serif" font-size="14.00">dependencies</text>
<g id="clust1" class="cluster">
<title>cluster_CheckoutScheduleReplenishmentOrderModule</title>
<polygon fill="none" stroke="black" stroke-dasharray="1,5" points="8,-32.8 8,-230.8 554,-230.8 554,-32.8 8,-32.8"/>
</g>
<g id="clust4" class="cluster">
<title>cluster_CheckoutScheduleReplenishmentOrderModule_imports</title>
<polygon fill="none" stroke="black" points="342,-40.8 342,-92.8 546,-92.8 546,-40.8 342,-40.8"/>
</g>
<g id="clust5" class="cluster">
<title>cluster_CheckoutScheduleReplenishmentOrderModule_exports</title>
<polygon fill="none" stroke="black" points="224,-170.8 224,-222.8 546,-222.8 546,-170.8 224,-170.8"/>
</g>
<g id="clust2" class="cluster">
<title>cluster_CheckoutScheduleReplenishmentOrderModule_declarations</title>
<polygon fill="none" stroke="black" points="16,-40.8 16,-92.8 334,-92.8 334,-40.8 16,-40.8"/>
</g>
<!-- CheckoutScheduleReplenishmentOrderComponent -->
<g id="node1" class="node">
<title>CheckoutScheduleReplenishmentOrderComponent</title>
<polygon fill="#ffffb3" stroke="black" points="326.44,-84.8 23.56,-84.8 23.56,-48.8 326.44,-48.8 326.44,-84.8"/>
<text text-anchor="middle" x="175" y="-62.6" font-family="Times,serif" font-size="14.00">CheckoutScheduleReplenishmentOrderComponent</text>
</g>
<!-- CheckoutScheduleReplenishmentOrderModule -->
<g id="node2" class="node">
<title>CheckoutScheduleReplenishmentOrderModule</title>
<polygon fill="#8dd3c7" stroke="black" points="528.66,-149.8 525.66,-153.8 504.66,-153.8 501.66,-149.8 247.34,-149.8 247.34,-113.8 528.66,-113.8 528.66,-149.8"/>
<text text-anchor="middle" x="388" y="-127.6" font-family="Times,serif" font-size="14.00">CheckoutScheduleReplenishmentOrderModule</text>
</g>
<!-- CheckoutScheduleReplenishmentOrderComponent&#45;&gt;CheckoutScheduleReplenishmentOrderModule -->
<g id="edge1" class="edge">
<title>CheckoutScheduleReplenishmentOrderComponent&#45;&gt;CheckoutScheduleReplenishmentOrderModule</title>
<path fill="none" stroke="black" d="M286.94,-84.91C286.94,-84.91 286.94,-103.79 286.94,-103.79"/>
<polygon fill="black" stroke="black" points="283.44,-103.79 286.94,-113.79 290.44,-103.79 283.44,-103.79"/>
</g>
<!-- CheckoutScheduleReplenishmentOrderComponent  -->
<g id="node5" class="node">
<title>CheckoutScheduleReplenishmentOrderComponent </title>
<polygon fill="#fb8072" stroke="black" points="538.44,-214.8 231.56,-214.8 231.56,-178.8 538.44,-178.8 538.44,-214.8"/>
<text text-anchor="middle" x="385" y="-192.6" font-family="Times,serif" font-size="14.00">CheckoutScheduleReplenishmentOrderComponent </text>
</g>
<!-- CheckoutScheduleReplenishmentOrderModule&#45;&gt;CheckoutScheduleReplenishmentOrderComponent  -->
<g id="edge4" class="edge">
<title>CheckoutScheduleReplenishmentOrderModule&#45;&gt;CheckoutScheduleReplenishmentOrderComponent </title>
<path fill="none" stroke="black" stroke-dasharray="5,2" d="M388,-149.91C388,-149.91 388,-168.79 388,-168.79"/>
<polygon fill="black" stroke="black" points="384.5,-168.79 388,-178.79 391.5,-168.79 384.5,-168.79"/>
</g>
<!-- I18nModule -->
<g id="node3" class="node">
<title>I18nModule</title>
<polygon fill="#8dd3c7" stroke="black" points="537.71,-84.8 534.71,-88.8 513.71,-88.8 510.71,-84.8 452.29,-84.8 452.29,-48.8 537.71,-48.8 537.71,-84.8"/>
<text text-anchor="middle" x="495" y="-62.6" font-family="Times,serif" font-size="14.00">I18nModule</text>
</g>
<!-- I18nModule&#45;&gt;CheckoutScheduleReplenishmentOrderModule -->
<g id="edge2" class="edge">
<title>I18nModule&#45;&gt;CheckoutScheduleReplenishmentOrderModule</title>
<path fill="none" stroke="black" d="M490.49,-84.91C490.49,-84.91 490.49,-103.79 490.49,-103.79"/>
<polygon fill="black" stroke="black" points="486.99,-103.79 490.49,-113.79 493.99,-103.79 486.99,-103.79"/>
</g>
<!-- IconModule -->
<g id="node4" class="node">
<title>IconModule</title>
<polygon fill="#8dd3c7" stroke="black" points="434.43,-84.8 431.43,-88.8 410.43,-88.8 407.43,-84.8 349.57,-84.8 349.57,-48.8 434.43,-48.8 434.43,-84.8"/>
<text text-anchor="middle" x="392" y="-62.6" font-family="Times,serif" font-size="14.00">IconModule</text>
</g>
<!-- IconModule&#45;&gt;CheckoutScheduleReplenishmentOrderModule -->
<g id="edge3" class="edge">
<title>IconModule&#45;&gt;CheckoutScheduleReplenishmentOrderModule</title>
<path fill="none" stroke="black" d="M392,-84.91C392,-84.91 392,-103.79 392,-103.79"/>
<polygon fill="black" stroke="black" points="388.5,-103.79 392,-113.79 395.5,-103.79 388.5,-103.79"/>
</g>
</g>
</svg>
