<?xml version="1.0" encoding="UTF-8" standalone="no"?>
<!DOCTYPE svg PUBLIC "-//W3C//DTD SVG 1.1//EN"
 "http://www.w3.org/Graphics/SVG/1.1/DTD/svg11.dtd">
<!-- Generated by graphviz version 5.0.0 (20220707.1540)
 -->
<!-- Title: dependencies Pages: 1 -->
<svg width="570pt" height="247pt"
 viewBox="0.00 0.00 570.00 246.80" xmlns="http://www.w3.org/2000/svg" xmlns:xlink="http://www.w3.org/1999/xlink">
<g id="graph0" class="graph" transform="scale(1 1) rotate(0) translate(4 242.8)">
<title>dependencies</title>
<polygon fill="white" stroke="transparent" points="-4,4 -4,-242.8 566,-242.8 566,4 -4,4"/>
<text text-anchor="middle" x="281" y="-8.2" font-family="sans-serif" font-size="14.00">dependencies</text>
<g id="clust1" class="cluster">
<title>cluster_CheckoutScheduleReplenishmentOrderModule</title>
<polygon fill="none" stroke="black" stroke-dasharray="1,5" points="8,-32.8 8,-230.8 554,-230.8 554,-32.8 8,-32.8"/>
</g>
<g id="clust2" class="cluster">
<title>cluster_CheckoutScheduleReplenishmentOrderModule_declarations</title>
<polygon fill="none" stroke="black" points="228,-40.8 228,-92.8 546,-92.8 546,-40.8 228,-40.8"/>
</g>
<g id="clust5" class="cluster">
<title>cluster_CheckoutScheduleReplenishmentOrderModule_exports</title>
<polygon fill="none" stroke="black" points="16,-170.8 16,-222.8 338,-222.8 338,-170.8 16,-170.8"/>
</g>
<g id="clust4" class="cluster">
<title>cluster_CheckoutScheduleReplenishmentOrderModule_imports</title>
<polygon fill="none" stroke="black" points="16,-40.8 16,-92.8 220,-92.8 220,-40.8 16,-40.8"/>
</g>
<!-- CheckoutScheduleReplenishmentOrderComponent -->
<g id="node1" class="node">
<title>CheckoutScheduleReplenishmentOrderComponent</title>
<polygon fill="#ffffb3" stroke="black" points="538.44,-84.8 235.56,-84.8 235.56,-48.8 538.44,-48.8 538.44,-84.8"/>
<text text-anchor="middle" x="387" y="-62.6" font-family="Times,serif" font-size="14.00">CheckoutScheduleReplenishmentOrderComponent</text>
</g>
<!-- CheckoutScheduleReplenishmentOrderModule -->
<g id="node2" class="node">
<title>CheckoutScheduleReplenishmentOrderModule</title>
<polygon fill="#8dd3c7" stroke="black" points="313.66,-149.8 310.66,-153.8 289.66,-153.8 286.66,-149.8 32.34,-149.8 32.34,-113.8 313.66,-113.8 313.66,-149.8"/>
<text text-anchor="middle" x="173" y="-127.6" font-family="Times,serif" font-size="14.00">CheckoutScheduleReplenishmentOrderModule</text>
</g>
<!-- CheckoutScheduleReplenishmentOrderComponent&#45;&gt;CheckoutScheduleReplenishmentOrderModule -->
<g id="edge1" class="edge">
<title>CheckoutScheduleReplenishmentOrderComponent&#45;&gt;CheckoutScheduleReplenishmentOrderModule</title>
<path fill="none" stroke="black" d="M274.56,-84.91C274.56,-84.91 274.56,-103.79 274.56,-103.79"/>
<polygon fill="black" stroke="black" points="271.06,-103.79 274.56,-113.79 278.06,-103.79 271.06,-103.79"/>
</g>
<!-- CheckoutScheduleReplenishmentOrderComponent  -->
<g id="node5" class="node">
<title>CheckoutScheduleReplenishmentOrderComponent </title>
<polygon fill="#fb8072" stroke="black" points="330.44,-214.8 23.56,-214.8 23.56,-178.8 330.44,-178.8 330.44,-214.8"/>
<text text-anchor="middle" x="177" y="-192.6" font-family="Times,serif" font-size="14.00">CheckoutScheduleReplenishmentOrderComponent </text>
</g>
<!-- CheckoutScheduleReplenishmentOrderModule&#45;&gt;CheckoutScheduleReplenishmentOrderComponent  -->
<g id="edge4" class="edge">
<title>CheckoutScheduleReplenishmentOrderModule&#45;&gt;CheckoutScheduleReplenishmentOrderComponent </title>
<path fill="none" stroke="black" stroke-dasharray="5,2" d="M173,-149.91C173,-149.91 173,-168.79 173,-168.79"/>
<polygon fill="black" stroke="black" points="169.5,-168.79 173,-178.79 176.5,-168.79 169.5,-168.79"/>
</g>
<!-- I18nModule -->
<g id="node3" class="node">
<title>I18nModule</title>
<polygon fill="#8dd3c7" stroke="black" points="211.71,-84.8 208.71,-88.8 187.71,-88.8 184.71,-84.8 126.29,-84.8 126.29,-48.8 211.71,-48.8 211.71,-84.8"/>
<text text-anchor="middle" x="169" y="-62.6" font-family="Times,serif" font-size="14.00">I18nModule</text>
</g>
<!-- I18nModule&#45;&gt;CheckoutScheduleReplenishmentOrderModule -->
<g id="edge2" class="edge">
<title>I18nModule&#45;&gt;CheckoutScheduleReplenishmentOrderModule</title>
<path fill="none" stroke="black" d="M169,-84.91C169,-84.91 169,-103.79 169,-103.79"/>
<polygon fill="black" stroke="black" points="165.5,-103.79 169,-113.79 172.5,-103.79 165.5,-103.79"/>
</g>
<!-- IconModule -->
<g id="node4" class="node">
<title>IconModule</title>
<polygon fill="#8dd3c7" stroke="black" points="108.43,-84.8 105.43,-88.8 84.43,-88.8 81.43,-84.8 23.57,-84.8 23.57,-48.8 108.43,-48.8 108.43,-84.8"/>
<text text-anchor="middle" x="66" y="-62.6" font-family="Times,serif" font-size="14.00">IconModule</text>
</g>
<!-- IconModule&#45;&gt;CheckoutScheduleReplenishmentOrderModule -->
<g id="edge3" class="edge">
<title>IconModule&#45;&gt;CheckoutScheduleReplenishmentOrderModule</title>
<path fill="none" stroke="black" d="M70.32,-84.91C70.32,-84.91 70.32,-103.79 70.32,-103.79"/>
<polygon fill="black" stroke="black" points="66.82,-103.79 70.32,-113.79 73.82,-103.79 66.82,-103.79"/>
</g>
</g>
</svg>
