<?xml version="1.0" encoding="UTF-8" standalone="no"?>
<!DOCTYPE svg PUBLIC "-//W3C//DTD SVG 1.1//EN"
 "http://www.w3.org/Graphics/SVG/1.1/DTD/svg11.dtd">
<!-- Generated by graphviz version 5.0.0 (20220707.1540)
 -->
<!-- Title: dependencies Pages: 1 -->
<svg width="904pt" height="174pt"
 viewBox="0.00 0.00 904.00 173.80" xmlns="http://www.w3.org/2000/svg" xmlns:xlink="http://www.w3.org/1999/xlink">
<g id="graph0" class="graph" transform="scale(1 1) rotate(0) translate(4 169.8)">
<title>dependencies</title>
<polygon fill="white" stroke="transparent" points="-4,4 -4,-169.8 900,-169.8 900,4 -4,4"/>
<text text-anchor="middle" x="448" y="-8.2" font-family="sans-serif" font-size="14.00">dependencies</text>
<g id="clust1" class="cluster">
<title>cluster_UpdateEmailModule</title>
<polygon fill="none" stroke="black" stroke-dasharray="1,5" points="8,-32.8 8,-157.8 888,-157.8 888,-32.8 8,-32.8"/>
</g>
<g id="clust2" class="cluster">
<title>cluster_UpdateEmailModule_declarations</title>
<polygon fill="none" stroke="black" points="708,-40.8 708,-92.8 880,-92.8 880,-40.8 708,-40.8"/>
</g>
<g id="clust4" class="cluster">
<title>cluster_UpdateEmailModule_imports</title>
<polygon fill="none" stroke="black" points="16,-40.8 16,-92.8 700,-92.8 700,-40.8 16,-40.8"/>
</g>
<!-- UpdateEmailComponent -->
<g id="node1" class="node">
<title>UpdateEmailComponent</title>
<polygon fill="#ffffb3" stroke="black" points="871.69,-84.8 716.31,-84.8 716.31,-48.8 871.69,-48.8 871.69,-84.8"/>
<text text-anchor="middle" x="794" y="-62.6" font-family="Times,serif" font-size="14.00">UpdateEmailComponent</text>
</g>
<!-- UpdateEmailModule -->
<g id="node2" class="node">
<title>UpdateEmailModule</title>
<polygon fill="#8dd3c7" stroke="black" points="491.91,-149.8 488.91,-153.8 467.91,-153.8 464.91,-149.8 358.09,-149.8 358.09,-113.8 491.91,-113.8 491.91,-149.8"/>
<text text-anchor="middle" x="425" y="-127.6" font-family="Times,serif" font-size="14.00">UpdateEmailModule</text>
</g>
<!-- UpdateEmailComponent&#45;&gt;UpdateEmailModule -->
<g id="edge1" class="edge">
<title>UpdateEmailComponent&#45;&gt;UpdateEmailModule</title>
<path fill="none" stroke="black" d="M794,-85.08C794,-106.12 794,-137.8 794,-137.8 794,-137.8 501.82,-137.8 501.82,-137.8"/>
<polygon fill="black" stroke="black" points="501.82,-134.3 491.82,-137.8 501.82,-141.3 501.82,-134.3"/>
</g>
<!-- FormErrorsModule -->
<g id="node3" class="node">
<title>FormErrorsModule</title>
<polygon fill="#8dd3c7" stroke="black" points="692.38,-84.8 689.38,-88.8 668.38,-88.8 665.38,-84.8 567.62,-84.8 567.62,-48.8 692.38,-48.8 692.38,-84.8"/>
<text text-anchor="middle" x="630" y="-62.6" font-family="Times,serif" font-size="14.00">FormErrorsModule</text>
</g>
<!-- FormErrorsModule&#45;&gt;UpdateEmailModule -->
<g id="edge2" class="edge">
<title>FormErrorsModule&#45;&gt;UpdateEmailModule</title>
<path fill="none" stroke="black" d="M630,-84.82C630,-102.17 630,-125.8 630,-125.8 630,-125.8 501.84,-125.8 501.84,-125.8"/>
<polygon fill="black" stroke="black" points="501.84,-122.3 491.84,-125.8 501.84,-129.3 501.84,-122.3"/>
</g>
<!-- I18nModule -->
<g id="node4" class="node">
<title>I18nModule</title>
<polygon fill="#8dd3c7" stroke="black" points="549.71,-84.8 546.71,-88.8 525.71,-88.8 522.71,-84.8 464.29,-84.8 464.29,-48.8 549.71,-48.8 549.71,-84.8"/>
<text text-anchor="middle" x="507" y="-62.6" font-family="Times,serif" font-size="14.00">I18nModule</text>
</g>
<!-- I18nModule&#45;&gt;UpdateEmailModule -->
<g id="edge3" class="edge">
<title>I18nModule&#45;&gt;UpdateEmailModule</title>
<path fill="none" stroke="black" d="M478.05,-84.91C478.05,-84.91 478.05,-103.79 478.05,-103.79"/>
<polygon fill="black" stroke="black" points="474.55,-103.79 478.05,-113.79 481.55,-103.79 474.55,-103.79"/>
</g>
<!-- PasswordVisibilityToggleModule -->
<g id="node5" class="node">
<title>PasswordVisibilityToggleModule</title>
<polygon fill="#8dd3c7" stroke="black" points="446.77,-84.8 443.77,-88.8 422.77,-88.8 419.77,-84.8 241.23,-84.8 241.23,-48.8 446.77,-48.8 446.77,-84.8"/>
<text text-anchor="middle" x="344" y="-62.6" font-family="Times,serif" font-size="14.00">PasswordVisibilityToggleModule</text>
</g>
<!-- PasswordVisibilityToggleModule&#45;&gt;UpdateEmailModule -->
<g id="edge4" class="edge">
<title>PasswordVisibilityToggleModule&#45;&gt;UpdateEmailModule</title>
<path fill="none" stroke="black" d="M402.59,-84.91C402.59,-84.91 402.59,-103.79 402.59,-103.79"/>
<polygon fill="black" stroke="black" points="399.09,-103.79 402.59,-113.79 406.09,-103.79 399.09,-103.79"/>
</g>
<!-- SpinnerModule -->
<g id="node6" class="node">
<title>SpinnerModule</title>
<polygon fill="#8dd3c7" stroke="black" points="223.6,-84.8 220.6,-88.8 199.6,-88.8 196.6,-84.8 120.4,-84.8 120.4,-48.8 223.6,-48.8 223.6,-84.8"/>
<text text-anchor="middle" x="172" y="-62.6" font-family="Times,serif" font-size="14.00">SpinnerModule</text>
</g>
<!-- SpinnerModule&#45;&gt;UpdateEmailModule -->
<g id="edge5" class="edge">
<title>SpinnerModule&#45;&gt;UpdateEmailModule</title>
<path fill="none" stroke="black" d="M172,-84.82C172,-102.17 172,-125.8 172,-125.8 172,-125.8 348.2,-125.8 348.2,-125.8"/>
<polygon fill="black" stroke="black" points="348.2,-129.3 358.2,-125.8 348.2,-122.3 348.2,-129.3"/>
</g>
<!-- UrlModule -->
<g id="node7" class="node">
<title>UrlModule</title>
<polygon fill="#8dd3c7" stroke="black" points="102.21,-84.8 99.21,-88.8 78.21,-88.8 75.21,-84.8 23.79,-84.8 23.79,-48.8 102.21,-48.8 102.21,-84.8"/>
<text text-anchor="middle" x="63" y="-62.6" font-family="Times,serif" font-size="14.00">UrlModule</text>
</g>
<!-- UrlModule&#45;&gt;UpdateEmailModule -->
<g id="edge6" class="edge">
<title>UrlModule&#45;&gt;UpdateEmailModule</title>
<path fill="none" stroke="black" d="M63,-85.08C63,-106.12 63,-137.8 63,-137.8 63,-137.8 348.18,-137.8 348.18,-137.8"/>
<polygon fill="black" stroke="black" points="348.18,-141.3 358.18,-137.8 348.18,-134.3 348.18,-141.3"/>
</g>
</g>
</svg>
