<?xml version="1.0" encoding="UTF-8" standalone="no"?>
<!DOCTYPE svg PUBLIC "-//W3C//DTD SVG 1.1//EN"
 "http://www.w3.org/Graphics/SVG/1.1/DTD/svg11.dtd">
<!-- Generated by graphviz version 5.0.0 (20220707.1540)
 -->
<!-- Title: dependencies Pages: 1 -->
<svg width="782pt" height="247pt"
 viewBox="0.00 0.00 782.00 246.80" xmlns="http://www.w3.org/2000/svg" xmlns:xlink="http://www.w3.org/1999/xlink">
<g id="graph0" class="graph" transform="scale(1 1) rotate(0) translate(4 242.8)">
<title>dependencies</title>
<polygon fill="white" stroke="transparent" points="-4,4 -4,-242.8 778,-242.8 778,4 -4,4"/>
<text text-anchor="middle" x="387" y="-8.2" font-family="sans-serif" font-size="14.00">dependencies</text>
<g id="clust1" class="cluster">
<title>cluster_FacetModule</title>
<polygon fill="none" stroke="black" stroke-dasharray="1,5" points="8,-32.8 8,-230.8 766,-230.8 766,-32.8 8,-32.8"/>
</g>
<g id="clust5" class="cluster">
<title>cluster_FacetModule_exports</title>
<polygon fill="none" stroke="black" points="331,-170.8 331,-222.8 463,-222.8 463,-170.8 331,-170.8"/>
</g>
<g id="clust4" class="cluster">
<title>cluster_FacetModule_imports</title>
<polygon fill="none" stroke="black" points="152,-40.8 152,-92.8 758,-92.8 758,-40.8 152,-40.8"/>
</g>
<g id="clust2" class="cluster">
<title>cluster_FacetModule_declarations</title>
<polygon fill="none" stroke="black" points="16,-40.8 16,-92.8 144,-92.8 144,-40.8 16,-40.8"/>
</g>
<!-- FacetComponent -->
<g id="node1" class="node">
<title>FacetComponent</title>
<polygon fill="#ffffb3" stroke="black" points="135.65,-84.8 24.35,-84.8 24.35,-48.8 135.65,-48.8 135.65,-84.8"/>
<text text-anchor="middle" x="80" y="-62.6" font-family="Times,serif" font-size="14.00">FacetComponent</text>
</g>
<!-- FacetModule -->
<g id="node2" class="node">
<title>FacetModule</title>
<polygon fill="#8dd3c7" stroke="black" points="441.87,-149.8 438.87,-153.8 417.87,-153.8 414.87,-149.8 352.13,-149.8 352.13,-113.8 441.87,-113.8 441.87,-149.8"/>
<text text-anchor="middle" x="397" y="-127.6" font-family="Times,serif" font-size="14.00">FacetModule</text>
</g>
<!-- FacetComponent&#45;&gt;FacetModule -->
<g id="edge1" class="edge">
<title>FacetComponent&#45;&gt;FacetModule</title>
<path fill="none" stroke="black" d="M80,-85.08C80,-106.12 80,-137.8 80,-137.8 80,-137.8 341.92,-137.8 341.92,-137.8"/>
<polygon fill="black" stroke="black" points="341.92,-141.3 351.92,-137.8 341.92,-134.3 341.92,-141.3"/>
</g>
<!-- FacetComponent  -->
<g id="node8" class="node">
<title>FacetComponent </title>
<polygon fill="#fb8072" stroke="black" points="454.65,-214.8 339.35,-214.8 339.35,-178.8 454.65,-178.8 454.65,-214.8"/>
<text text-anchor="middle" x="397" y="-192.6" font-family="Times,serif" font-size="14.00">FacetComponent </text>
</g>
<!-- FacetModule&#45;&gt;FacetComponent  -->
<g id="edge7" class="edge">
<title>FacetModule&#45;&gt;FacetComponent </title>
<path fill="none" stroke="black" stroke-dasharray="5,2" d="M397,-149.91C397,-149.91 397,-168.79 397,-168.79"/>
<polygon fill="black" stroke="black" points="393.5,-168.79 397,-178.79 400.5,-168.79 393.5,-168.79"/>
</g>
<!-- AtMessageModule -->
<g id="node3" class="node">
<title>AtMessageModule</title>
<polygon fill="#8dd3c7" stroke="black" points="750.04,-84.8 747.04,-88.8 726.04,-88.8 723.04,-84.8 627.96,-84.8 627.96,-48.8 750.04,-48.8 750.04,-84.8"/>
<text text-anchor="middle" x="689" y="-62.6" font-family="Times,serif" font-size="14.00">AtMessageModule</text>
</g>
<!-- AtMessageModule&#45;&gt;FacetModule -->
<g id="edge2" class="edge">
<title>AtMessageModule&#45;&gt;FacetModule</title>
<path fill="none" stroke="black" d="M689,-85.08C689,-106.12 689,-137.8 689,-137.8 689,-137.8 451.99,-137.8 451.99,-137.8"/>
<polygon fill="black" stroke="black" points="451.99,-134.3 441.99,-137.8 451.99,-141.3 451.99,-134.3"/>
</g>
<!-- I18nModule -->
<g id="node4" class="node">
<title>I18nModule</title>
<polygon fill="#8dd3c7" stroke="black" points="609.71,-84.8 606.71,-88.8 585.71,-88.8 582.71,-84.8 524.29,-84.8 524.29,-48.8 609.71,-48.8 609.71,-84.8"/>
<text text-anchor="middle" x="567" y="-62.6" font-family="Times,serif" font-size="14.00">I18nModule</text>
</g>
<!-- I18nModule&#45;&gt;FacetModule -->
<g id="edge3" class="edge">
<title>I18nModule&#45;&gt;FacetModule</title>
<path fill="none" stroke="black" d="M567,-84.82C567,-102.17 567,-125.8 567,-125.8 567,-125.8 452.11,-125.8 452.11,-125.8"/>
<polygon fill="black" stroke="black" points="452.11,-122.3 442.11,-125.8 452.11,-129.3 452.11,-122.3"/>
</g>
<!-- IconModule -->
<g id="node5" class="node">
<title>IconModule</title>
<polygon fill="#8dd3c7" stroke="black" points="506.43,-84.8 503.43,-88.8 482.43,-88.8 479.43,-84.8 421.57,-84.8 421.57,-48.8 506.43,-48.8 506.43,-84.8"/>
<text text-anchor="middle" x="464" y="-62.6" font-family="Times,serif" font-size="14.00">IconModule</text>
</g>
<!-- IconModule&#45;&gt;FacetModule -->
<g id="edge4" class="edge">
<title>IconModule&#45;&gt;FacetModule</title>
<path fill="none" stroke="black" d="M431.86,-84.91C431.86,-84.91 431.86,-103.79 431.86,-103.79"/>
<polygon fill="black" stroke="black" points="428.36,-103.79 431.86,-113.79 435.36,-103.79 428.36,-103.79"/>
</g>
<!-- KeyboardFocusModule -->
<g id="node6" class="node">
<title>KeyboardFocusModule</title>
<polygon fill="#8dd3c7" stroke="black" points="404.2,-84.8 401.2,-88.8 380.2,-88.8 377.2,-84.8 255.8,-84.8 255.8,-48.8 404.2,-48.8 404.2,-84.8"/>
<text text-anchor="middle" x="330" y="-62.6" font-family="Times,serif" font-size="14.00">KeyboardFocusModule</text>
</g>
<!-- KeyboardFocusModule&#45;&gt;FacetModule -->
<g id="edge5" class="edge">
<title>KeyboardFocusModule&#45;&gt;FacetModule</title>
<path fill="none" stroke="black" d="M378.08,-84.91C378.08,-84.91 378.08,-103.79 378.08,-103.79"/>
<polygon fill="black" stroke="black" points="374.58,-103.79 378.08,-113.79 381.58,-103.79 374.58,-103.79"/>
</g>
<!-- UrlModule -->
<g id="node7" class="node">
<title>UrlModule</title>
<polygon fill="#8dd3c7" stroke="black" points="238.21,-84.8 235.21,-88.8 214.21,-88.8 211.21,-84.8 159.79,-84.8 159.79,-48.8 238.21,-48.8 238.21,-84.8"/>
<text text-anchor="middle" x="199" y="-62.6" font-family="Times,serif" font-size="14.00">UrlModule</text>
</g>
<!-- UrlModule&#45;&gt;FacetModule -->
<g id="edge6" class="edge">
<title>UrlModule&#45;&gt;FacetModule</title>
<path fill="none" stroke="black" d="M199,-84.82C199,-102.17 199,-125.8 199,-125.8 199,-125.8 342.07,-125.8 342.07,-125.8"/>
<polygon fill="black" stroke="black" points="342.07,-129.3 352.07,-125.8 342.07,-122.3 342.07,-129.3"/>
</g>
</g>
</svg>
