<?xml version="1.0" encoding="UTF-8" standalone="no"?>
<!DOCTYPE svg PUBLIC "-//W3C//DTD SVG 1.1//EN"
 "http://www.w3.org/Graphics/SVG/1.1/DTD/svg11.dtd">
<!-- Generated by graphviz version 5.0.0 (20220707.1540)
 -->
<!-- Title: dependencies Pages: 1 -->
<svg width="782pt" height="247pt"
 viewBox="0.00 0.00 782.00 246.80" xmlns="http://www.w3.org/2000/svg" xmlns:xlink="http://www.w3.org/1999/xlink">
<g id="graph0" class="graph" transform="scale(1 1) rotate(0) translate(4 242.8)">
<title>dependencies</title>
<polygon fill="white" stroke="transparent" points="-4,4 -4,-242.8 778,-242.8 778,4 -4,4"/>
<text text-anchor="middle" x="387" y="-8.2" font-family="sans-serif" font-size="14.00">dependencies</text>
<g id="clust1" class="cluster">
<title>cluster_FacetModule</title>
<polygon fill="none" stroke="black" stroke-dasharray="1,5" points="8,-32.8 8,-230.8 766,-230.8 766,-32.8 8,-32.8"/>
</g>
<g id="clust2" class="cluster">
<title>cluster_FacetModule_declarations</title>
<polygon fill="none" stroke="black" points="630,-40.8 630,-92.8 758,-92.8 758,-40.8 630,-40.8"/>
</g>
<g id="clust4" class="cluster">
<title>cluster_FacetModule_imports</title>
<polygon fill="none" stroke="black" points="16,-40.8 16,-92.8 622,-92.8 622,-40.8 16,-40.8"/>
</g>
<g id="clust5" class="cluster">
<title>cluster_FacetModule_exports</title>
<polygon fill="none" stroke="black" points="313,-170.8 313,-222.8 445,-222.8 445,-170.8 313,-170.8"/>
</g>
<!-- FacetComponent -->
<g id="node1" class="node">
<title>FacetComponent</title>
<polygon fill="#ffffb3" stroke="black" points="749.65,-84.8 638.35,-84.8 638.35,-48.8 749.65,-48.8 749.65,-84.8"/>
<text text-anchor="middle" x="694" y="-62.6" font-family="Times,serif" font-size="14.00">FacetComponent</text>
</g>
<!-- FacetModule -->
<g id="node2" class="node">
<title>FacetModule</title>
<polygon fill="#8dd3c7" stroke="black" points="423.87,-149.8 420.87,-153.8 399.87,-153.8 396.87,-149.8 334.13,-149.8 334.13,-113.8 423.87,-113.8 423.87,-149.8"/>
<text text-anchor="middle" x="379" y="-127.6" font-family="Times,serif" font-size="14.00">FacetModule</text>
</g>
<!-- FacetComponent&#45;&gt;FacetModule -->
<g id="edge1" class="edge">
<title>FacetComponent&#45;&gt;FacetModule</title>
<path fill="none" stroke="black" d="M694,-85.08C694,-106.12 694,-137.8 694,-137.8 694,-137.8 434.13,-137.8 434.13,-137.8"/>
<polygon fill="black" stroke="black" points="434.13,-134.3 424.13,-137.8 434.13,-141.3 434.13,-134.3"/>
</g>
<!-- FacetComponent  -->
<g id="node8" class="node">
<title>FacetComponent </title>
<polygon fill="#fb8072" stroke="black" points="436.65,-214.8 321.35,-214.8 321.35,-178.8 436.65,-178.8 436.65,-214.8"/>
<text text-anchor="middle" x="379" y="-192.6" font-family="Times,serif" font-size="14.00">FacetComponent </text>
</g>
<!-- FacetModule&#45;&gt;FacetComponent  -->
<g id="edge7" class="edge">
<title>FacetModule&#45;&gt;FacetComponent </title>
<path fill="none" stroke="black" stroke-dasharray="5,2" d="M379,-149.91C379,-149.91 379,-168.79 379,-168.79"/>
<polygon fill="black" stroke="black" points="375.5,-168.79 379,-178.79 382.5,-168.79 375.5,-168.79"/>
</g>
<!-- AtMessageModule -->
<g id="node3" class="node">
<title>AtMessageModule</title>
<polygon fill="#8dd3c7" stroke="black" points="614.04,-84.8 611.04,-88.8 590.04,-88.8 587.04,-84.8 491.96,-84.8 491.96,-48.8 614.04,-48.8 614.04,-84.8"/>
<text text-anchor="middle" x="553" y="-62.6" font-family="Times,serif" font-size="14.00">AtMessageModule</text>
</g>
<!-- AtMessageModule&#45;&gt;FacetModule -->
<g id="edge2" class="edge">
<title>AtMessageModule&#45;&gt;FacetModule</title>
<path fill="none" stroke="black" d="M553,-84.82C553,-102.17 553,-125.8 553,-125.8 553,-125.8 434.26,-125.8 434.26,-125.8"/>
<polygon fill="black" stroke="black" points="434.26,-122.3 424.26,-125.8 434.26,-129.3 434.26,-122.3"/>
</g>
<!-- I18nModule -->
<g id="node4" class="node">
<title>I18nModule</title>
<polygon fill="#8dd3c7" stroke="black" points="473.71,-84.8 470.71,-88.8 449.71,-88.8 446.71,-84.8 388.29,-84.8 388.29,-48.8 473.71,-48.8 473.71,-84.8"/>
<text text-anchor="middle" x="431" y="-62.6" font-family="Times,serif" font-size="14.00">I18nModule</text>
</g>
<!-- I18nModule&#45;&gt;FacetModule -->
<g id="edge3" class="edge">
<title>I18nModule&#45;&gt;FacetModule</title>
<path fill="none" stroke="black" d="M406.16,-84.91C406.16,-84.91 406.16,-103.79 406.16,-103.79"/>
<polygon fill="black" stroke="black" points="402.66,-103.79 406.16,-113.79 409.66,-103.79 402.66,-103.79"/>
</g>
<!-- IconModule -->
<g id="node5" class="node">
<title>IconModule</title>
<polygon fill="#8dd3c7" stroke="black" points="370.43,-84.8 367.43,-88.8 346.43,-88.8 343.43,-84.8 285.57,-84.8 285.57,-48.8 370.43,-48.8 370.43,-84.8"/>
<text text-anchor="middle" x="328" y="-62.6" font-family="Times,serif" font-size="14.00">IconModule</text>
</g>
<!-- IconModule&#45;&gt;FacetModule -->
<g id="edge4" class="edge">
<title>IconModule&#45;&gt;FacetModule</title>
<path fill="none" stroke="black" d="M352.14,-84.91C352.14,-84.91 352.14,-103.79 352.14,-103.79"/>
<polygon fill="black" stroke="black" points="348.64,-103.79 352.14,-113.79 355.64,-103.79 348.64,-103.79"/>
</g>
<!-- KeyboardFocusModule -->
<g id="node6" class="node">
<title>KeyboardFocusModule</title>
<polygon fill="#8dd3c7" stroke="black" points="268.2,-84.8 265.2,-88.8 244.2,-88.8 241.2,-84.8 119.8,-84.8 119.8,-48.8 268.2,-48.8 268.2,-84.8"/>
<text text-anchor="middle" x="194" y="-62.6" font-family="Times,serif" font-size="14.00">KeyboardFocusModule</text>
</g>
<!-- KeyboardFocusModule&#45;&gt;FacetModule -->
<g id="edge5" class="edge">
<title>KeyboardFocusModule&#45;&gt;FacetModule</title>
<path fill="none" stroke="black" d="M194,-84.82C194,-102.17 194,-125.8 194,-125.8 194,-125.8 323.74,-125.8 323.74,-125.8"/>
<polygon fill="black" stroke="black" points="323.74,-129.3 333.74,-125.8 323.74,-122.3 323.74,-129.3"/>
</g>
<!-- UrlModule -->
<g id="node7" class="node">
<title>UrlModule</title>
<polygon fill="#8dd3c7" stroke="black" points="102.21,-84.8 99.21,-88.8 78.21,-88.8 75.21,-84.8 23.79,-84.8 23.79,-48.8 102.21,-48.8 102.21,-84.8"/>
<text text-anchor="middle" x="63" y="-62.6" font-family="Times,serif" font-size="14.00">UrlModule</text>
</g>
<!-- UrlModule&#45;&gt;FacetModule -->
<g id="edge6" class="edge">
<title>UrlModule&#45;&gt;FacetModule</title>
<path fill="none" stroke="black" d="M63,-85.08C63,-106.12 63,-137.8 63,-137.8 63,-137.8 324.06,-137.8 324.06,-137.8"/>
<polygon fill="black" stroke="black" points="324.06,-141.3 334.06,-137.8 324.06,-134.3 324.06,-141.3"/>
</g>
</g>
</svg>
