<?xml version="1.0" encoding="UTF-8" standalone="no"?>
<!DOCTYPE svg PUBLIC "-//W3C//DTD SVG 1.1//EN"
 "http://www.w3.org/Graphics/SVG/1.1/DTD/svg11.dtd">
<!-- Generated by graphviz version 5.0.0 (20220707.1540)
 -->
<!-- Title: dependencies Pages: 1 -->
<svg width="475pt" height="247pt"
 viewBox="0.00 0.00 475.00 246.80" xmlns="http://www.w3.org/2000/svg" xmlns:xlink="http://www.w3.org/1999/xlink">
<g id="graph0" class="graph" transform="scale(1 1) rotate(0) translate(4 242.8)">
<title>dependencies</title>
<polygon fill="white" stroke="transparent" points="-4,4 -4,-242.8 471,-242.8 471,4 -4,4"/>
<text text-anchor="middle" x="233.5" y="-8.2" font-family="sans-serif" font-size="14.00">dependencies</text>
<g id="clust1" class="cluster">
<title>cluster_BannerCarouselModule</title>
<polygon fill="none" stroke="black" stroke-dasharray="1,5" points="8,-32.8 8,-230.8 459,-230.8 459,-32.8 8,-32.8"/>
</g>
<g id="clust2" class="cluster">
<title>cluster_BannerCarouselModule_declarations</title>
<polygon fill="none" stroke="black" points="263,-40.8 263,-92.8 451,-92.8 451,-40.8 263,-40.8"/>
</g>
<g id="clust4" class="cluster">
<title>cluster_BannerCarouselModule_imports</title>
<polygon fill="none" stroke="black" points="16,-40.8 16,-92.8 255,-92.8 255,-40.8 16,-40.8"/>
</g>
<g id="clust5" class="cluster">
<title>cluster_BannerCarouselModule_exports</title>
<polygon fill="none" stroke="black" points="96,-170.8 96,-222.8 288,-222.8 288,-170.8 96,-170.8"/>
</g>
<!-- BannerCarouselComponent -->
<g id="node1" class="node">
<title>BannerCarouselComponent</title>
<polygon fill="#ffffb3" stroke="black" points="442.53,-84.8 271.47,-84.8 271.47,-48.8 442.53,-48.8 442.53,-84.8"/>
<text text-anchor="middle" x="357" y="-62.6" font-family="Times,serif" font-size="14.00">BannerCarouselComponent</text>
</g>
<!-- BannerCarouselModule -->
<g id="node2" class="node">
<title>BannerCarouselModule</title>
<polygon fill="#8dd3c7" stroke="black" points="266.75,-149.8 263.75,-153.8 242.75,-153.8 239.75,-149.8 117.25,-149.8 117.25,-113.8 266.75,-113.8 266.75,-149.8"/>
<text text-anchor="middle" x="192" y="-127.6" font-family="Times,serif" font-size="14.00">BannerCarouselModule</text>
</g>
<!-- BannerCarouselComponent&#45;&gt;BannerCarouselModule -->
<g id="edge1" class="edge">
<title>BannerCarouselComponent&#45;&gt;BannerCarouselModule</title>
<path fill="none" stroke="black" d="M275.38,-84.91C275.38,-104.14 275.38,-131.8 275.38,-131.8 275.38,-131.8 274.51,-131.8 274.51,-131.8"/>
<polygon fill="black" stroke="black" points="276.77,-128.3 266.77,-131.8 276.77,-135.3 276.77,-128.3"/>
</g>
<!-- BannerCarouselComponent  -->
<g id="node5" class="node">
<title>BannerCarouselComponent </title>
<polygon fill="#fb8072" stroke="black" points="279.52,-214.8 104.48,-214.8 104.48,-178.8 279.52,-178.8 279.52,-214.8"/>
<text text-anchor="middle" x="192" y="-192.6" font-family="Times,serif" font-size="14.00">BannerCarouselComponent </text>
</g>
<!-- BannerCarouselModule&#45;&gt;BannerCarouselComponent  -->
<g id="edge4" class="edge">
<title>BannerCarouselModule&#45;&gt;BannerCarouselComponent </title>
<path fill="none" stroke="black" stroke-dasharray="5,2" d="M192,-149.91C192,-149.91 192,-168.79 192,-168.79"/>
<polygon fill="black" stroke="black" points="188.5,-168.79 192,-178.79 195.5,-168.79 188.5,-168.79"/>
</g>
<!-- CarouselModule -->
<g id="node3" class="node">
<title>CarouselModule</title>
<polygon fill="#8dd3c7" stroke="black" points="246.82,-84.8 243.82,-88.8 222.82,-88.8 219.82,-84.8 137.18,-84.8 137.18,-48.8 246.82,-48.8 246.82,-84.8"/>
<text text-anchor="middle" x="192" y="-62.6" font-family="Times,serif" font-size="14.00">CarouselModule</text>
</g>
<!-- CarouselModule&#45;&gt;BannerCarouselModule -->
<g id="edge2" class="edge">
<title>CarouselModule&#45;&gt;BannerCarouselModule</title>
<path fill="none" stroke="black" d="M192,-84.91C192,-84.91 192,-103.79 192,-103.79"/>
<polygon fill="black" stroke="black" points="188.5,-103.79 192,-113.79 195.5,-103.79 188.5,-103.79"/>
</g>
<!-- MediaModule -->
<g id="node4" class="node">
<title>MediaModule</title>
<polygon fill="#8dd3c7" stroke="black" points="119.82,-84.8 116.82,-88.8 95.82,-88.8 92.82,-84.8 24.18,-84.8 24.18,-48.8 119.82,-48.8 119.82,-84.8"/>
<text text-anchor="middle" x="72" y="-62.6" font-family="Times,serif" font-size="14.00">MediaModule</text>
</g>
<!-- MediaModule&#45;&gt;BannerCarouselModule -->
<g id="edge3" class="edge">
<title>MediaModule&#45;&gt;BannerCarouselModule</title>
<path fill="none" stroke="black" d="M110.81,-84.91C110.81,-104.14 110.81,-131.8 110.81,-131.8 110.81,-131.8 111.44,-131.8 111.44,-131.8"/>
<polygon fill="black" stroke="black" points="107.18,-135.3 117.18,-131.8 107.18,-128.3 107.18,-135.3"/>
</g>
</g>
</svg>
