<?xml version="1.0" encoding="UTF-8" standalone="no"?>
<!DOCTYPE svg PUBLIC "-//W3C//DTD SVG 1.1//EN"
 "http://www.w3.org/Graphics/SVG/1.1/DTD/svg11.dtd">
<!-- Generated by graphviz version 5.0.0 (20220707.1540)
 -->
<!-- Title: dependencies Pages: 1 -->
<svg width="904pt" height="247pt"
 viewBox="0.00 0.00 904.00 246.80" xmlns="http://www.w3.org/2000/svg" xmlns:xlink="http://www.w3.org/1999/xlink">
<g id="graph0" class="graph" transform="scale(1 1) rotate(0) translate(4 242.8)">
<title>dependencies</title>
<polygon fill="white" stroke="transparent" points="-4,4 -4,-242.8 900,-242.8 900,4 -4,4"/>
<text text-anchor="middle" x="448" y="-8.2" font-family="sans-serif" font-size="14.00">dependencies</text>
<g id="clust1" class="cluster">
<title>cluster_ReplenishmentOrderCancellationDialogModule</title>
<polygon fill="none" stroke="black" stroke-dasharray="1,5" points="8,-32.8 8,-230.8 888,-230.8 888,-32.8 8,-32.8"/>
</g>
<g id="clust5" class="cluster">
<title>cluster_ReplenishmentOrderCancellationDialogModule_exports</title>
<polygon fill="none" stroke="black" points="399,-170.8 399,-222.8 725,-222.8 725,-170.8 399,-170.8"/>
</g>
<g id="clust4" class="cluster">
<title>cluster_ReplenishmentOrderCancellationDialogModule_imports</title>
<polygon fill="none" stroke="black" points="346,-40.8 346,-92.8 880,-92.8 880,-40.8 346,-40.8"/>
</g>
<g id="clust2" class="cluster">
<title>cluster_ReplenishmentOrderCancellationDialogModule_declarations</title>
<polygon fill="none" stroke="black" points="16,-40.8 16,-92.8 338,-92.8 338,-40.8 16,-40.8"/>
</g>
<!-- ReplenishmentOrderCancellationDialogComponent -->
<g id="node1" class="node">
<title>ReplenishmentOrderCancellationDialogComponent</title>
<polygon fill="#ffffb3" stroke="black" points="330.32,-84.8 23.68,-84.8 23.68,-48.8 330.32,-48.8 330.32,-84.8"/>
<text text-anchor="middle" x="177" y="-62.6" font-family="Times,serif" font-size="14.00">ReplenishmentOrderCancellationDialogComponent</text>
</g>
<!-- ReplenishmentOrderCancellationDialogModule -->
<g id="node2" class="node">
<title>ReplenishmentOrderCancellationDialogModule</title>
<polygon fill="#8dd3c7" stroke="black" points="704.54,-149.8 701.54,-153.8 680.54,-153.8 677.54,-149.8 419.46,-149.8 419.46,-113.8 704.54,-113.8 704.54,-149.8"/>
<text text-anchor="middle" x="562" y="-127.6" font-family="Times,serif" font-size="14.00">ReplenishmentOrderCancellationDialogModule</text>
</g>
<!-- ReplenishmentOrderCancellationDialogComponent&#45;&gt;ReplenishmentOrderCancellationDialogModule -->
<g id="edge1" class="edge">
<title>ReplenishmentOrderCancellationDialogComponent&#45;&gt;ReplenishmentOrderCancellationDialogModule</title>
<path fill="none" stroke="black" d="M177,-84.91C177,-104.14 177,-131.8 177,-131.8 177,-131.8 409.46,-131.8 409.46,-131.8"/>
<polygon fill="black" stroke="black" points="409.46,-135.3 419.46,-131.8 409.46,-128.3 409.46,-135.3"/>
</g>
<!-- ReplenishmentOrderCancellationDialogComponent  -->
<g id="node7" class="node">
<title>ReplenishmentOrderCancellationDialogComponent </title>
<polygon fill="#fb8072" stroke="black" points="717.32,-214.8 406.68,-214.8 406.68,-178.8 717.32,-178.8 717.32,-214.8"/>
<text text-anchor="middle" x="562" y="-192.6" font-family="Times,serif" font-size="14.00">ReplenishmentOrderCancellationDialogComponent </text>
</g>
<!-- ReplenishmentOrderCancellationDialogModule&#45;&gt;ReplenishmentOrderCancellationDialogComponent  -->
<g id="edge6" class="edge">
<title>ReplenishmentOrderCancellationDialogModule&#45;&gt;ReplenishmentOrderCancellationDialogComponent </title>
<path fill="none" stroke="black" stroke-dasharray="5,2" d="M562,-149.91C562,-149.91 562,-168.79 562,-168.79"/>
<polygon fill="black" stroke="black" points="558.5,-168.79 562,-178.79 565.5,-168.79 558.5,-168.79"/>
</g>
<!-- FeaturesConfigModule -->
<g id="node3" class="node">
<title>FeaturesConfigModule</title>
<polygon fill="#8dd3c7" stroke="black" points="871.87,-84.8 868.87,-88.8 847.87,-88.8 844.87,-84.8 726.13,-84.8 726.13,-48.8 871.87,-48.8 871.87,-84.8"/>
<text text-anchor="middle" x="799" y="-62.6" font-family="Times,serif" font-size="14.00">FeaturesConfigModule</text>
</g>
<!-- FeaturesConfigModule&#45;&gt;ReplenishmentOrderCancellationDialogModule -->
<g id="edge2" class="edge">
<title>FeaturesConfigModule&#45;&gt;ReplenishmentOrderCancellationDialogModule</title>
<path fill="none" stroke="black" d="M799,-84.91C799,-104.14 799,-131.8 799,-131.8 799,-131.8 714.65,-131.8 714.65,-131.8"/>
<polygon fill="black" stroke="black" points="714.65,-128.3 704.65,-131.8 714.65,-135.3 714.65,-128.3"/>
</g>
<!-- I18nModule -->
<g id="node4" class="node">
<title>I18nModule</title>
<polygon fill="#8dd3c7" stroke="black" points="707.71,-84.8 704.71,-88.8 683.71,-88.8 680.71,-84.8 622.29,-84.8 622.29,-48.8 707.71,-48.8 707.71,-84.8"/>
<text text-anchor="middle" x="665" y="-62.6" font-family="Times,serif" font-size="14.00">I18nModule</text>
</g>
<!-- I18nModule&#45;&gt;ReplenishmentOrderCancellationDialogModule -->
<g id="edge3" class="edge">
<title>I18nModule&#45;&gt;ReplenishmentOrderCancellationDialogModule</title>
<path fill="none" stroke="black" d="M663.46,-84.91C663.46,-84.91 663.46,-103.79 663.46,-103.79"/>
<polygon fill="black" stroke="black" points="659.96,-103.79 663.46,-113.79 666.96,-103.79 659.96,-103.79"/>
</g>
<!-- IconModule -->
<g id="node5" class="node">
<title>IconModule</title>
<polygon fill="#8dd3c7" stroke="black" points="604.43,-84.8 601.43,-88.8 580.43,-88.8 577.43,-84.8 519.57,-84.8 519.57,-48.8 604.43,-48.8 604.43,-84.8"/>
<text text-anchor="middle" x="562" y="-62.6" font-family="Times,serif" font-size="14.00">IconModule</text>
</g>
<!-- IconModule&#45;&gt;ReplenishmentOrderCancellationDialogModule -->
<g id="edge4" class="edge">
<title>IconModule&#45;&gt;ReplenishmentOrderCancellationDialogModule</title>
<path fill="none" stroke="black" d="M562,-84.91C562,-84.91 562,-103.79 562,-103.79"/>
<polygon fill="black" stroke="black" points="558.5,-103.79 562,-113.79 565.5,-103.79 558.5,-103.79"/>
</g>
<!-- KeyboardFocusModule -->
<g id="node6" class="node">
<title>KeyboardFocusModule</title>
<polygon fill="#8dd3c7" stroke="black" points="502.2,-84.8 499.2,-88.8 478.2,-88.8 475.2,-84.8 353.8,-84.8 353.8,-48.8 502.2,-48.8 502.2,-84.8"/>
<text text-anchor="middle" x="428" y="-62.6" font-family="Times,serif" font-size="14.00">KeyboardFocusModule</text>
</g>
<!-- KeyboardFocusModule&#45;&gt;ReplenishmentOrderCancellationDialogModule -->
<g id="edge5" class="edge">
<title>KeyboardFocusModule&#45;&gt;ReplenishmentOrderCancellationDialogModule</title>
<path fill="none" stroke="black" d="M460.79,-84.91C460.79,-84.91 460.79,-103.79 460.79,-103.79"/>
<polygon fill="black" stroke="black" points="457.29,-103.79 460.79,-113.79 464.29,-103.79 457.29,-103.79"/>
</g>
</g>
</svg>
