<?xml version="1.0" encoding="UTF-8" standalone="no"?>
<!DOCTYPE svg PUBLIC "-//W3C//DTD SVG 1.1//EN"
 "http://www.w3.org/Graphics/SVG/1.1/DTD/svg11.dtd">
<!-- Generated by graphviz version 5.0.0 (20220707.1540)
 -->
<!-- Title: dependencies Pages: 1 -->
<svg width="594pt" height="247pt"
 viewBox="0.00 0.00 594.00 246.80" xmlns="http://www.w3.org/2000/svg" xmlns:xlink="http://www.w3.org/1999/xlink">
<g id="graph0" class="graph" transform="scale(1 1) rotate(0) translate(4 242.8)">
<title>dependencies</title>
<polygon fill="white" stroke="transparent" points="-4,4 -4,-242.8 590,-242.8 590,4 -4,4"/>
<text text-anchor="middle" x="293" y="-8.2" font-family="sans-serif" font-size="14.00">dependencies</text>
<g id="clust1" class="cluster">
<title>cluster_ConfiguratorAttributeInputFieldModule</title>
<polygon fill="none" stroke="black" stroke-dasharray="1,5" points="8,-32.8 8,-230.8 578,-230.8 578,-32.8 8,-32.8"/>
</g>
<g id="clust5" class="cluster">
<title>cluster_ConfiguratorAttributeInputFieldModule_exports</title>
<polygon fill="none" stroke="black" points="243,-170.8 243,-222.8 525,-222.8 525,-170.8 243,-170.8"/>
</g>
<g id="clust4" class="cluster">
<title>cluster_ConfiguratorAttributeInputFieldModule_imports</title>
<polygon fill="none" stroke="black" points="302,-40.8 302,-92.8 570,-92.8 570,-40.8 302,-40.8"/>
</g>
<g id="clust2" class="cluster">
<title>cluster_ConfiguratorAttributeInputFieldModule_declarations</title>
<polygon fill="none" stroke="black" points="16,-40.8 16,-92.8 294,-92.8 294,-40.8 16,-40.8"/>
</g>
<!-- ConfiguratorAttributeInputFieldComponent -->
<g id="node1" class="node">
<title>ConfiguratorAttributeInputFieldComponent</title>
<polygon fill="#ffffb3" stroke="black" points="286.02,-84.8 23.98,-84.8 23.98,-48.8 286.02,-48.8 286.02,-84.8"/>
<text text-anchor="middle" x="155" y="-62.6" font-family="Times,serif" font-size="14.00">ConfiguratorAttributeInputFieldComponent</text>
</g>
<!-- ConfiguratorAttributeInputFieldModule -->
<g id="node2" class="node">
<title>ConfiguratorAttributeInputFieldModule</title>
<polygon fill="#8dd3c7" stroke="black" points="504.25,-149.8 501.25,-153.8 480.25,-153.8 477.25,-149.8 263.75,-149.8 263.75,-113.8 504.25,-113.8 504.25,-149.8"/>
<text text-anchor="middle" x="384" y="-127.6" font-family="Times,serif" font-size="14.00">ConfiguratorAttributeInputFieldModule</text>
</g>
<!-- ConfiguratorAttributeInputFieldComponent&#45;&gt;ConfiguratorAttributeInputFieldModule -->
<g id="edge1" class="edge">
<title>ConfiguratorAttributeInputFieldComponent&#45;&gt;ConfiguratorAttributeInputFieldModule</title>
<path fill="none" stroke="black" d="M274.94,-84.91C274.94,-84.91 274.94,-103.79 274.94,-103.79"/>
<polygon fill="black" stroke="black" points="271.44,-103.79 274.94,-113.79 278.44,-103.79 271.44,-103.79"/>
</g>
<!-- ConfiguratorAttributeInputFieldComponent  -->
<g id="node5" class="node">
<title>ConfiguratorAttributeInputFieldComponent </title>
<polygon fill="#fb8072" stroke="black" points="517.02,-214.8 250.98,-214.8 250.98,-178.8 517.02,-178.8 517.02,-214.8"/>
<text text-anchor="middle" x="384" y="-192.6" font-family="Times,serif" font-size="14.00">ConfiguratorAttributeInputFieldComponent </text>
</g>
<!-- ConfiguratorAttributeInputFieldModule&#45;&gt;ConfiguratorAttributeInputFieldComponent  -->
<g id="edge4" class="edge">
<title>ConfiguratorAttributeInputFieldModule&#45;&gt;ConfiguratorAttributeInputFieldComponent </title>
<path fill="none" stroke="black" stroke-dasharray="5,2" d="M384,-149.91C384,-149.91 384,-168.79 384,-168.79"/>
<polygon fill="black" stroke="black" points="380.5,-168.79 384,-178.79 387.5,-168.79 380.5,-168.79"/>
</g>
<!-- I18nModule -->
<g id="node3" class="node">
<title>I18nModule</title>
<polygon fill="#8dd3c7" stroke="black" points="561.71,-84.8 558.71,-88.8 537.71,-88.8 534.71,-84.8 476.29,-84.8 476.29,-48.8 561.71,-48.8 561.71,-84.8"/>
<text text-anchor="middle" x="519" y="-62.6" font-family="Times,serif" font-size="14.00">I18nModule</text>
</g>
<!-- I18nModule&#45;&gt;ConfiguratorAttributeInputFieldModule -->
<g id="edge2" class="edge">
<title>I18nModule&#45;&gt;ConfiguratorAttributeInputFieldModule</title>
<path fill="none" stroke="black" d="M490.38,-84.91C490.38,-84.91 490.38,-103.79 490.38,-103.79"/>
<polygon fill="black" stroke="black" points="486.88,-103.79 490.38,-113.79 493.88,-103.79 486.88,-103.79"/>
</g>
<!-- KeyboardFocusModule -->
<g id="node4" class="node">
<title>KeyboardFocusModule</title>
<polygon fill="#8dd3c7" stroke="black" points="458.2,-84.8 455.2,-88.8 434.2,-88.8 431.2,-84.8 309.8,-84.8 309.8,-48.8 458.2,-48.8 458.2,-84.8"/>
<text text-anchor="middle" x="384" y="-62.6" font-family="Times,serif" font-size="14.00">KeyboardFocusModule</text>
</g>
<!-- KeyboardFocusModule&#45;&gt;ConfiguratorAttributeInputFieldModule -->
<g id="edge3" class="edge">
<title>KeyboardFocusModule&#45;&gt;ConfiguratorAttributeInputFieldModule</title>
<path fill="none" stroke="black" d="M384,-84.91C384,-84.91 384,-103.79 384,-103.79"/>
<polygon fill="black" stroke="black" points="380.5,-103.79 384,-113.79 387.5,-103.79 380.5,-103.79"/>
</g>
</g>
</svg>
