<?xml version="1.0" encoding="UTF-8" standalone="no"?>
<!DOCTYPE svg PUBLIC "-//W3C//DTD SVG 1.1//EN"
 "http://www.w3.org/Graphics/SVG/1.1/DTD/svg11.dtd">
<!-- Generated by graphviz version 5.0.0 (20220707.1540)
 -->
<!-- Title: dependencies Pages: 1 -->
<svg width="638pt" height="247pt"
 viewBox="0.00 0.00 638.00 246.80" xmlns="http://www.w3.org/2000/svg" xmlns:xlink="http://www.w3.org/1999/xlink">
<g id="graph0" class="graph" transform="scale(1 1) rotate(0) translate(4 242.8)">
<title>dependencies</title>
<polygon fill="white" stroke="transparent" points="-4,4 -4,-242.8 634,-242.8 634,4 -4,4"/>
<text text-anchor="middle" x="315" y="-8.2" font-family="sans-serif" font-size="14.00">dependencies</text>
<g id="clust1" class="cluster">
<title>cluster_DeleteItemModule</title>
<polygon fill="none" stroke="black" stroke-dasharray="1,5" points="8,-32.8 8,-230.8 622,-230.8 622,-32.8 8,-32.8"/>
</g>
<g id="clust4" class="cluster">
<title>cluster_DeleteItemModule_imports</title>
<polygon fill="none" stroke="black" points="184,-40.8 184,-92.8 614,-92.8 614,-40.8 184,-40.8"/>
</g>
<g id="clust5" class="cluster">
<title>cluster_DeleteItemModule_exports</title>
<polygon fill="none" stroke="black" points="221,-170.8 221,-222.8 385,-222.8 385,-170.8 221,-170.8"/>
</g>
<g id="clust2" class="cluster">
<title>cluster_DeleteItemModule_declarations</title>
<polygon fill="none" stroke="black" points="16,-40.8 16,-92.8 176,-92.8 176,-40.8 16,-40.8"/>
</g>
<!-- DeleteItemComponent -->
<g id="node1" class="node">
<title>DeleteItemComponent</title>
<polygon fill="#ffffb3" stroke="black" points="167.52,-84.8 24.48,-84.8 24.48,-48.8 167.52,-48.8 167.52,-84.8"/>
<text text-anchor="middle" x="96" y="-62.6" font-family="Times,serif" font-size="14.00">DeleteItemComponent</text>
</g>
<!-- DeleteItemModule -->
<g id="node2" class="node">
<title>DeleteItemModule</title>
<polygon fill="#8dd3c7" stroke="black" points="363.74,-149.8 360.74,-153.8 339.74,-153.8 336.74,-149.8 242.26,-149.8 242.26,-113.8 363.74,-113.8 363.74,-149.8"/>
<text text-anchor="middle" x="303" y="-127.6" font-family="Times,serif" font-size="14.00">DeleteItemModule</text>
</g>
<!-- DeleteItemComponent&#45;&gt;DeleteItemModule -->
<g id="edge1" class="edge">
<title>DeleteItemComponent&#45;&gt;DeleteItemModule</title>
<path fill="none" stroke="black" d="M96,-84.91C96,-104.14 96,-131.8 96,-131.8 96,-131.8 232.01,-131.8 232.01,-131.8"/>
<polygon fill="black" stroke="black" points="232.01,-135.3 242.01,-131.8 232.01,-128.3 232.01,-135.3"/>
</g>
<!-- DeleteItemComponent  -->
<g id="node6" class="node">
<title>DeleteItemComponent </title>
<polygon fill="#fb8072" stroke="black" points="376.52,-214.8 229.48,-214.8 229.48,-178.8 376.52,-178.8 376.52,-214.8"/>
<text text-anchor="middle" x="303" y="-192.6" font-family="Times,serif" font-size="14.00">DeleteItemComponent </text>
</g>
<!-- DeleteItemModule&#45;&gt;DeleteItemComponent  -->
<g id="edge5" class="edge">
<title>DeleteItemModule&#45;&gt;DeleteItemComponent </title>
<path fill="none" stroke="black" stroke-dasharray="5,2" d="M303,-149.91C303,-149.91 303,-168.79 303,-168.79"/>
<polygon fill="black" stroke="black" points="299.5,-168.79 303,-178.79 306.5,-168.79 299.5,-168.79"/>
</g>
<!-- ConfirmationMessageModule -->
<g id="node3" class="node">
<title>ConfirmationMessageModule</title>
<polygon fill="#8dd3c7" stroke="black" points="605.97,-84.8 602.97,-88.8 581.97,-88.8 578.97,-84.8 422.03,-84.8 422.03,-48.8 605.97,-48.8 605.97,-84.8"/>
<text text-anchor="middle" x="514" y="-62.6" font-family="Times,serif" font-size="14.00">ConfirmationMessageModule</text>
</g>
<!-- ConfirmationMessageModule&#45;&gt;DeleteItemModule -->
<g id="edge2" class="edge">
<title>ConfirmationMessageModule&#45;&gt;DeleteItemModule</title>
<path fill="none" stroke="black" d="M514,-84.91C514,-104.14 514,-131.8 514,-131.8 514,-131.8 373.75,-131.8 373.75,-131.8"/>
<polygon fill="black" stroke="black" points="373.75,-128.3 363.75,-131.8 373.75,-135.3 373.75,-128.3"/>
</g>
<!-- I18nModule -->
<g id="node4" class="node">
<title>I18nModule</title>
<polygon fill="#8dd3c7" stroke="black" points="403.71,-84.8 400.71,-88.8 379.71,-88.8 376.71,-84.8 318.29,-84.8 318.29,-48.8 403.71,-48.8 403.71,-84.8"/>
<text text-anchor="middle" x="361" y="-62.6" font-family="Times,serif" font-size="14.00">I18nModule</text>
</g>
<!-- I18nModule&#45;&gt;DeleteItemModule -->
<g id="edge3" class="edge">
<title>I18nModule&#45;&gt;DeleteItemModule</title>
<path fill="none" stroke="black" d="M341.13,-84.91C341.13,-84.91 341.13,-103.79 341.13,-103.79"/>
<polygon fill="black" stroke="black" points="337.63,-103.79 341.13,-113.79 344.63,-103.79 337.63,-103.79"/>
</g>
<!-- MessageModule -->
<g id="node5" class="node">
<title>MessageModule</title>
<polygon fill="#8dd3c7" stroke="black" points="300.04,-84.8 297.04,-88.8 276.04,-88.8 273.04,-84.8 191.96,-84.8 191.96,-48.8 300.04,-48.8 300.04,-84.8"/>
<text text-anchor="middle" x="246" y="-62.6" font-family="Times,serif" font-size="14.00">MessageModule</text>
</g>
<!-- MessageModule&#45;&gt;DeleteItemModule -->
<g id="edge4" class="edge">
<title>MessageModule&#45;&gt;DeleteItemModule</title>
<path fill="none" stroke="black" d="M271.2,-84.91C271.2,-84.91 271.2,-103.79 271.2,-103.79"/>
<polygon fill="black" stroke="black" points="267.7,-103.79 271.2,-113.79 274.7,-103.79 267.7,-103.79"/>
</g>
</g>
</svg>
