<?xml version="1.0" encoding="UTF-8" standalone="no"?>
<!DOCTYPE svg PUBLIC "-//W3C//DTD SVG 1.1//EN"
 "http://www.w3.org/Graphics/SVG/1.1/DTD/svg11.dtd">
<!-- Generated by graphviz version 5.0.0 (20220707.1540)
 -->
<!-- Title: dependencies Pages: 1 -->
<svg width="894pt" height="174pt"
 viewBox="0.00 0.00 894.00 173.80" xmlns="http://www.w3.org/2000/svg" xmlns:xlink="http://www.w3.org/1999/xlink">
<g id="graph0" class="graph" transform="scale(1 1) rotate(0) translate(4 169.8)">
<title>dependencies</title>
<polygon fill="white" stroke="transparent" points="-4,4 -4,-169.8 890,-169.8 890,4 -4,4"/>
<text text-anchor="middle" x="443" y="-8.2" font-family="sans-serif" font-size="14.00">dependencies</text>
<g id="clust1" class="cluster">
<title>cluster_LoginFormModule</title>
<polygon fill="none" stroke="black" stroke-dasharray="1,5" points="8,-32.8 8,-157.8 878,-157.8 878,-32.8 8,-32.8"/>
</g>
<g id="clust4" class="cluster">
<title>cluster_LoginFormModule_imports</title>
<polygon fill="none" stroke="black" points="186,-40.8 186,-92.8 870,-92.8 870,-40.8 186,-40.8"/>
</g>
<g id="clust2" class="cluster">
<title>cluster_LoginFormModule_declarations</title>
<polygon fill="none" stroke="black" points="16,-40.8 16,-92.8 178,-92.8 178,-40.8 16,-40.8"/>
</g>
<!-- LoginFormComponent -->
<g id="node1" class="node">
<title>LoginFormComponent</title>
<polygon fill="#ffffb3" stroke="black" points="169.61,-84.8 24.39,-84.8 24.39,-48.8 169.61,-48.8 169.61,-84.8"/>
<text text-anchor="middle" x="97" y="-62.6" font-family="Times,serif" font-size="14.00">LoginFormComponent</text>
</g>
<!-- LoginFormModule -->
<g id="node2" class="node">
<title>LoginFormModule</title>
<polygon fill="#8dd3c7" stroke="black" points="489.83,-149.8 486.83,-153.8 465.83,-153.8 462.83,-149.8 366.17,-149.8 366.17,-113.8 489.83,-113.8 489.83,-149.8"/>
<text text-anchor="middle" x="428" y="-127.6" font-family="Times,serif" font-size="14.00">LoginFormModule</text>
</g>
<!-- LoginFormComponent&#45;&gt;LoginFormModule -->
<g id="edge1" class="edge">
<title>LoginFormComponent&#45;&gt;LoginFormModule</title>
<path fill="none" stroke="black" d="M97,-85.08C97,-106.12 97,-137.8 97,-137.8 97,-137.8 356.13,-137.8 356.13,-137.8"/>
<polygon fill="black" stroke="black" points="356.13,-141.3 366.13,-137.8 356.13,-134.3 356.13,-141.3"/>
</g>
<!-- FormErrorsModule -->
<g id="node3" class="node">
<title>FormErrorsModule</title>
<polygon fill="#8dd3c7" stroke="black" points="862.38,-84.8 859.38,-88.8 838.38,-88.8 835.38,-84.8 737.62,-84.8 737.62,-48.8 862.38,-48.8 862.38,-84.8"/>
<text text-anchor="middle" x="800" y="-62.6" font-family="Times,serif" font-size="14.00">FormErrorsModule</text>
</g>
<!-- FormErrorsModule&#45;&gt;LoginFormModule -->
<g id="edge2" class="edge">
<title>FormErrorsModule&#45;&gt;LoginFormModule</title>
<path fill="none" stroke="black" d="M800,-85.08C800,-106.12 800,-137.8 800,-137.8 800,-137.8 499.85,-137.8 499.85,-137.8"/>
<polygon fill="black" stroke="black" points="499.85,-134.3 489.85,-137.8 499.85,-141.3 499.85,-134.3"/>
</g>
<!-- I18nModule -->
<g id="node4" class="node">
<title>I18nModule</title>
<polygon fill="#8dd3c7" stroke="black" points="719.71,-84.8 716.71,-88.8 695.71,-88.8 692.71,-84.8 634.29,-84.8 634.29,-48.8 719.71,-48.8 719.71,-84.8"/>
<text text-anchor="middle" x="677" y="-62.6" font-family="Times,serif" font-size="14.00">I18nModule</text>
</g>
<!-- I18nModule&#45;&gt;LoginFormModule -->
<g id="edge3" class="edge">
<title>I18nModule&#45;&gt;LoginFormModule</title>
<path fill="none" stroke="black" d="M677,-84.82C677,-102.17 677,-125.8 677,-125.8 677,-125.8 499.87,-125.8 499.87,-125.8"/>
<polygon fill="black" stroke="black" points="499.87,-122.3 489.87,-125.8 499.87,-129.3 499.87,-122.3"/>
</g>
<!-- PasswordVisibilityToggleModule -->
<g id="node5" class="node">
<title>PasswordVisibilityToggleModule</title>
<polygon fill="#8dd3c7" stroke="black" points="616.77,-84.8 613.77,-88.8 592.77,-88.8 589.77,-84.8 411.23,-84.8 411.23,-48.8 616.77,-48.8 616.77,-84.8"/>
<text text-anchor="middle" x="514" y="-62.6" font-family="Times,serif" font-size="14.00">PasswordVisibilityToggleModule</text>
</g>
<!-- PasswordVisibilityToggleModule&#45;&gt;LoginFormModule -->
<g id="edge4" class="edge">
<title>PasswordVisibilityToggleModule&#45;&gt;LoginFormModule</title>
<path fill="none" stroke="black" d="M450.39,-84.91C450.39,-84.91 450.39,-103.79 450.39,-103.79"/>
<polygon fill="black" stroke="black" points="446.89,-103.79 450.39,-113.79 453.89,-103.79 446.89,-103.79"/>
</g>
<!-- SpinnerModule -->
<g id="node6" class="node">
<title>SpinnerModule</title>
<polygon fill="#8dd3c7" stroke="black" points="393.6,-84.8 390.6,-88.8 369.6,-88.8 366.6,-84.8 290.4,-84.8 290.4,-48.8 393.6,-48.8 393.6,-84.8"/>
<text text-anchor="middle" x="342" y="-62.6" font-family="Times,serif" font-size="14.00">SpinnerModule</text>
</g>
<!-- SpinnerModule&#45;&gt;LoginFormModule -->
<g id="edge5" class="edge">
<title>SpinnerModule&#45;&gt;LoginFormModule</title>
<path fill="none" stroke="black" d="M379.94,-84.91C379.94,-84.91 379.94,-103.79 379.94,-103.79"/>
<polygon fill="black" stroke="black" points="376.44,-103.79 379.94,-113.79 383.44,-103.79 376.44,-103.79"/>
</g>
<!-- UrlModule -->
<g id="node7" class="node">
<title>UrlModule</title>
<polygon fill="#8dd3c7" stroke="black" points="272.21,-84.8 269.21,-88.8 248.21,-88.8 245.21,-84.8 193.79,-84.8 193.79,-48.8 272.21,-48.8 272.21,-84.8"/>
<text text-anchor="middle" x="233" y="-62.6" font-family="Times,serif" font-size="14.00">UrlModule</text>
</g>
<!-- UrlModule&#45;&gt;LoginFormModule -->
<g id="edge6" class="edge">
<title>UrlModule&#45;&gt;LoginFormModule</title>
<path fill="none" stroke="black" d="M233,-84.82C233,-102.17 233,-125.8 233,-125.8 233,-125.8 356.3,-125.8 356.3,-125.8"/>
<polygon fill="black" stroke="black" points="356.3,-129.3 366.3,-125.8 356.3,-122.3 356.3,-129.3"/>
</g>
</g>
</svg>
