<?xml version="1.0" encoding="UTF-8" standalone="no"?>
<!DOCTYPE svg PUBLIC "-//W3C//DTD SVG 1.1//EN"
 "http://www.w3.org/Graphics/SVG/1.1/DTD/svg11.dtd">
<!-- Generated by graphviz version 5.0.0 (20220707.1540)
 -->
<!-- Title: dependencies Pages: 1 -->
<svg width="894pt" height="174pt"
 viewBox="0.00 0.00 894.00 173.80" xmlns="http://www.w3.org/2000/svg" xmlns:xlink="http://www.w3.org/1999/xlink">
<g id="graph0" class="graph" transform="scale(1 1) rotate(0) translate(4 169.8)">
<title>dependencies</title>
<polygon fill="white" stroke="transparent" points="-4,4 -4,-169.8 890,-169.8 890,4 -4,4"/>
<text text-anchor="middle" x="443" y="-8.2" font-family="sans-serif" font-size="14.00">dependencies</text>
<g id="clust1" class="cluster">
<title>cluster_LoginFormModule</title>
<polygon fill="none" stroke="black" stroke-dasharray="1,5" points="8,-32.8 8,-157.8 878,-157.8 878,-32.8 8,-32.8"/>
</g>
<g id="clust2" class="cluster">
<title>cluster_LoginFormModule_declarations</title>
<polygon fill="none" stroke="black" points="708,-40.8 708,-92.8 870,-92.8 870,-40.8 708,-40.8"/>
</g>
<g id="clust4" class="cluster">
<title>cluster_LoginFormModule_imports</title>
<polygon fill="none" stroke="black" points="16,-40.8 16,-92.8 700,-92.8 700,-40.8 16,-40.8"/>
</g>
<!-- LoginFormComponent -->
<g id="node1" class="node">
<title>LoginFormComponent</title>
<polygon fill="#ffffb3" stroke="black" points="861.61,-84.8 716.39,-84.8 716.39,-48.8 861.61,-48.8 861.61,-84.8"/>
<text text-anchor="middle" x="789" y="-62.6" font-family="Times,serif" font-size="14.00">LoginFormComponent</text>
</g>
<!-- LoginFormModule -->
<g id="node2" class="node">
<title>LoginFormModule</title>
<polygon fill="#8dd3c7" stroke="black" points="486.83,-149.8 483.83,-153.8 462.83,-153.8 459.83,-149.8 363.17,-149.8 363.17,-113.8 486.83,-113.8 486.83,-149.8"/>
<text text-anchor="middle" x="425" y="-127.6" font-family="Times,serif" font-size="14.00">LoginFormModule</text>
</g>
<!-- LoginFormComponent&#45;&gt;LoginFormModule -->
<g id="edge1" class="edge">
<title>LoginFormComponent&#45;&gt;LoginFormModule</title>
<path fill="none" stroke="black" d="M789,-85.08C789,-106.12 789,-137.8 789,-137.8 789,-137.8 496.75,-137.8 496.75,-137.8"/>
<polygon fill="black" stroke="black" points="496.75,-134.3 486.75,-137.8 496.75,-141.3 496.75,-134.3"/>
</g>
<!-- FormErrorsModule -->
<g id="node3" class="node">
<title>FormErrorsModule</title>
<polygon fill="#8dd3c7" stroke="black" points="692.38,-84.8 689.38,-88.8 668.38,-88.8 665.38,-84.8 567.62,-84.8 567.62,-48.8 692.38,-48.8 692.38,-84.8"/>
<text text-anchor="middle" x="630" y="-62.6" font-family="Times,serif" font-size="14.00">FormErrorsModule</text>
</g>
<!-- FormErrorsModule&#45;&gt;LoginFormModule -->
<g id="edge2" class="edge">
<title>FormErrorsModule&#45;&gt;LoginFormModule</title>
<path fill="none" stroke="black" d="M630,-84.82C630,-102.17 630,-125.8 630,-125.8 630,-125.8 496.78,-125.8 496.78,-125.8"/>
<polygon fill="black" stroke="black" points="496.78,-122.3 486.78,-125.8 496.78,-129.3 496.78,-122.3"/>
</g>
<!-- I18nModule -->
<g id="node4" class="node">
<title>I18nModule</title>
<polygon fill="#8dd3c7" stroke="black" points="549.71,-84.8 546.71,-88.8 525.71,-88.8 522.71,-84.8 464.29,-84.8 464.29,-48.8 549.71,-48.8 549.71,-84.8"/>
<text text-anchor="middle" x="507" y="-62.6" font-family="Times,serif" font-size="14.00">I18nModule</text>
</g>
<!-- I18nModule&#45;&gt;LoginFormModule -->
<g id="edge3" class="edge">
<title>I18nModule&#45;&gt;LoginFormModule</title>
<path fill="none" stroke="black" d="M475.53,-84.91C475.53,-84.91 475.53,-103.79 475.53,-103.79"/>
<polygon fill="black" stroke="black" points="472.03,-103.79 475.53,-113.79 479.03,-103.79 472.03,-103.79"/>
</g>
<!-- PasswordVisibilityToggleModule -->
<g id="node5" class="node">
<title>PasswordVisibilityToggleModule</title>
<polygon fill="#8dd3c7" stroke="black" points="446.77,-84.8 443.77,-88.8 422.77,-88.8 419.77,-84.8 241.23,-84.8 241.23,-48.8 446.77,-48.8 446.77,-84.8"/>
<text text-anchor="middle" x="344" y="-62.6" font-family="Times,serif" font-size="14.00">PasswordVisibilityToggleModule</text>
</g>
<!-- PasswordVisibilityToggleModule&#45;&gt;LoginFormModule -->
<g id="edge4" class="edge">
<title>PasswordVisibilityToggleModule&#45;&gt;LoginFormModule</title>
<path fill="none" stroke="black" d="M405.11,-84.91C405.11,-84.91 405.11,-103.79 405.11,-103.79"/>
<polygon fill="black" stroke="black" points="401.61,-103.79 405.11,-113.79 408.61,-103.79 401.61,-103.79"/>
</g>
<!-- SpinnerModule -->
<g id="node6" class="node">
<title>SpinnerModule</title>
<polygon fill="#8dd3c7" stroke="black" points="223.6,-84.8 220.6,-88.8 199.6,-88.8 196.6,-84.8 120.4,-84.8 120.4,-48.8 223.6,-48.8 223.6,-84.8"/>
<text text-anchor="middle" x="172" y="-62.6" font-family="Times,serif" font-size="14.00">SpinnerModule</text>
</g>
<!-- SpinnerModule&#45;&gt;LoginFormModule -->
<g id="edge5" class="edge">
<title>SpinnerModule&#45;&gt;LoginFormModule</title>
<path fill="none" stroke="black" d="M172,-84.82C172,-102.17 172,-125.8 172,-125.8 172,-125.8 353.11,-125.8 353.11,-125.8"/>
<polygon fill="black" stroke="black" points="353.11,-129.3 363.11,-125.8 353.11,-122.3 353.11,-129.3"/>
</g>
<!-- UrlModule -->
<g id="node7" class="node">
<title>UrlModule</title>
<polygon fill="#8dd3c7" stroke="black" points="102.21,-84.8 99.21,-88.8 78.21,-88.8 75.21,-84.8 23.79,-84.8 23.79,-48.8 102.21,-48.8 102.21,-84.8"/>
<text text-anchor="middle" x="63" y="-62.6" font-family="Times,serif" font-size="14.00">UrlModule</text>
</g>
<!-- UrlModule&#45;&gt;LoginFormModule -->
<g id="edge6" class="edge">
<title>UrlModule&#45;&gt;LoginFormModule</title>
<path fill="none" stroke="black" d="M63,-85.08C63,-106.12 63,-137.8 63,-137.8 63,-137.8 353.18,-137.8 353.18,-137.8"/>
<polygon fill="black" stroke="black" points="353.18,-141.3 363.18,-137.8 353.18,-134.3 353.18,-141.3"/>
</g>
</g>
</svg>
