<?xml version="1.0" encoding="UTF-8" standalone="no"?>
<!DOCTYPE svg PUBLIC "-//W3C//DTD SVG 1.1//EN"
 "http://www.w3.org/Graphics/SVG/1.1/DTD/svg11.dtd">
<!-- Generated by graphviz version 5.0.0 (20220707.1540)
 -->
<!-- Title: dependencies Pages: 1 -->
<svg width="469pt" height="247pt"
 viewBox="0.00 0.00 469.00 246.80" xmlns="http://www.w3.org/2000/svg" xmlns:xlink="http://www.w3.org/1999/xlink">
<g id="graph0" class="graph" transform="scale(1 1) rotate(0) translate(4 242.8)">
<title>dependencies</title>
<polygon fill="white" stroke="transparent" points="-4,4 -4,-242.8 465,-242.8 465,4 -4,4"/>
<text text-anchor="middle" x="230.5" y="-8.2" font-family="sans-serif" font-size="14.00">dependencies</text>
<g id="clust1" class="cluster">
<title>cluster_AccountSummaryListModule</title>
<polygon fill="none" stroke="black" stroke-dasharray="1,5" points="8,-32.8 8,-230.8 453,-230.8 453,-32.8 8,-32.8"/>
</g>
<g id="clust5" class="cluster">
<title>cluster_AccountSummaryListModule_exports</title>
<polygon fill="none" stroke="black" points="181,-170.8 181,-222.8 405,-222.8 405,-170.8 181,-170.8"/>
</g>
<g id="clust4" class="cluster">
<title>cluster_AccountSummaryListModule_imports</title>
<polygon fill="none" stroke="black" points="244,-40.8 244,-92.8 445,-92.8 445,-40.8 244,-40.8"/>
</g>
<g id="clust2" class="cluster">
<title>cluster_AccountSummaryListModule_declarations</title>
<polygon fill="none" stroke="black" points="16,-40.8 16,-92.8 236,-92.8 236,-40.8 16,-40.8"/>
</g>
<!-- AccountSummaryListComponent -->
<g id="node1" class="node">
<title>AccountSummaryListComponent</title>
<polygon fill="#ffffb3" stroke="black" points="228.48,-84.8 23.52,-84.8 23.52,-48.8 228.48,-48.8 228.48,-84.8"/>
<text text-anchor="middle" x="126" y="-62.6" font-family="Times,serif" font-size="14.00">AccountSummaryListComponent</text>
</g>
<!-- AccountSummaryListModule -->
<g id="node2" class="node">
<title>AccountSummaryListModule</title>
<polygon fill="#8dd3c7" stroke="black" points="384.7,-149.8 381.7,-153.8 360.7,-153.8 357.7,-149.8 201.3,-149.8 201.3,-113.8 384.7,-113.8 384.7,-149.8"/>
<text text-anchor="middle" x="293" y="-127.6" font-family="Times,serif" font-size="14.00">AccountSummaryListModule</text>
</g>
<!-- AccountSummaryListComponent&#45;&gt;AccountSummaryListModule -->
<g id="edge1" class="edge">
<title>AccountSummaryListComponent&#45;&gt;AccountSummaryListModule</title>
<path fill="none" stroke="black" d="M214.94,-84.91C214.94,-84.91 214.94,-103.79 214.94,-103.79"/>
<polygon fill="black" stroke="black" points="211.44,-103.79 214.94,-113.79 218.44,-103.79 211.44,-103.79"/>
</g>
<!-- AccountSummaryListComponent  -->
<g id="node5" class="node">
<title>AccountSummaryListComponent </title>
<polygon fill="#fb8072" stroke="black" points="397.48,-214.8 188.52,-214.8 188.52,-178.8 397.48,-178.8 397.48,-214.8"/>
<text text-anchor="middle" x="293" y="-192.6" font-family="Times,serif" font-size="14.00">AccountSummaryListComponent </text>
</g>
<!-- AccountSummaryListModule&#45;&gt;AccountSummaryListComponent  -->
<g id="edge4" class="edge">
<title>AccountSummaryListModule&#45;&gt;AccountSummaryListComponent </title>
<path fill="none" stroke="black" stroke-dasharray="5,2" d="M293,-149.91C293,-149.91 293,-168.79 293,-168.79"/>
<polygon fill="black" stroke="black" points="289.5,-168.79 293,-178.79 296.5,-168.79 289.5,-168.79"/>
</g>
<!-- I18nModule -->
<g id="node3" class="node">
<title>I18nModule</title>
<polygon fill="#8dd3c7" stroke="black" points="436.71,-84.8 433.71,-88.8 412.71,-88.8 409.71,-84.8 351.29,-84.8 351.29,-48.8 436.71,-48.8 436.71,-84.8"/>
<text text-anchor="middle" x="394" y="-62.6" font-family="Times,serif" font-size="14.00">I18nModule</text>
</g>
<!-- I18nModule&#45;&gt;AccountSummaryListModule -->
<g id="edge2" class="edge">
<title>I18nModule&#45;&gt;AccountSummaryListModule</title>
<path fill="none" stroke="black" d="M368,-84.91C368,-84.91 368,-103.79 368,-103.79"/>
<polygon fill="black" stroke="black" points="364.5,-103.79 368,-113.79 371.5,-103.79 364.5,-103.79"/>
</g>
<!-- ListModule -->
<g id="node4" class="node">
<title>ListModule</title>
<polygon fill="#8dd3c7" stroke="black" points="333.83,-84.8 330.83,-88.8 309.83,-88.8 306.83,-84.8 252.17,-84.8 252.17,-48.8 333.83,-48.8 333.83,-84.8"/>
<text text-anchor="middle" x="293" y="-62.6" font-family="Times,serif" font-size="14.00">ListModule</text>
</g>
<!-- ListModule&#45;&gt;AccountSummaryListModule -->
<g id="edge3" class="edge">
<title>ListModule&#45;&gt;AccountSummaryListModule</title>
<path fill="none" stroke="black" d="M293,-84.91C293,-84.91 293,-103.79 293,-103.79"/>
<polygon fill="black" stroke="black" points="289.5,-103.79 293,-113.79 296.5,-103.79 289.5,-103.79"/>
</g>
</g>
</svg>
