<?xml version="1.0" encoding="UTF-8" standalone="no"?>
<!DOCTYPE svg PUBLIC "-//W3C//DTD SVG 1.1//EN"
 "http://www.w3.org/Graphics/SVG/1.1/DTD/svg11.dtd">
<!-- Generated by graphviz version 5.0.0 (20220707.1540)
 -->
<!-- Title: dependencies Pages: 1 -->
<svg width="1133pt" height="174pt"
 viewBox="0.00 0.00 1133.00 173.80" xmlns="http://www.w3.org/2000/svg" xmlns:xlink="http://www.w3.org/1999/xlink">
<g id="graph0" class="graph" transform="scale(1 1) rotate(0) translate(4 169.8)">
<title>dependencies</title>
<polygon fill="white" stroke="transparent" points="-4,4 -4,-169.8 1129,-169.8 1129,4 -4,4"/>
<text text-anchor="middle" x="562.5" y="-8.2" font-family="sans-serif" font-size="14.00">dependencies</text>
<g id="clust1" class="cluster">
<title>cluster_UserChangePasswordFormModule</title>
<polygon fill="none" stroke="black" stroke-dasharray="1,5" points="8,-32.8 8,-157.8 1117,-157.8 1117,-32.8 8,-32.8"/>
</g>
<g id="clust2" class="cluster">
<title>cluster_UserChangePasswordFormModule_declarations</title>
<polygon fill="none" stroke="black" points="859,-40.8 859,-92.8 1109,-92.8 1109,-40.8 859,-40.8"/>
</g>
<g id="clust4" class="cluster">
<title>cluster_UserChangePasswordFormModule_imports</title>
<polygon fill="none" stroke="black" points="16,-40.8 16,-92.8 851,-92.8 851,-40.8 16,-40.8"/>
</g>
<!-- UserChangePasswordFormComponent -->
<g id="node1" class="node">
<title>UserChangePasswordFormComponent</title>
<polygon fill="#ffffb3" stroke="black" points="1101.04,-84.8 866.96,-84.8 866.96,-48.8 1101.04,-48.8 1101.04,-84.8"/>
<text text-anchor="middle" x="984" y="-62.6" font-family="Times,serif" font-size="14.00">UserChangePasswordFormComponent</text>
</g>
<!-- UserChangePasswordFormModule -->
<g id="node2" class="node">
<title>UserChangePasswordFormModule</title>
<polygon fill="#8dd3c7" stroke="black" points="659.26,-149.8 656.26,-153.8 635.26,-153.8 632.26,-149.8 446.74,-149.8 446.74,-113.8 659.26,-113.8 659.26,-149.8"/>
<text text-anchor="middle" x="553" y="-127.6" font-family="Times,serif" font-size="14.00">UserChangePasswordFormModule</text>
</g>
<!-- UserChangePasswordFormComponent&#45;&gt;UserChangePasswordFormModule -->
<g id="edge1" class="edge">
<title>UserChangePasswordFormComponent&#45;&gt;UserChangePasswordFormModule</title>
<path fill="none" stroke="black" d="M984,-85.08C984,-106.12 984,-137.8 984,-137.8 984,-137.8 669.26,-137.8 669.26,-137.8"/>
<polygon fill="black" stroke="black" points="669.26,-134.3 659.26,-137.8 669.26,-141.3 669.26,-134.3"/>
</g>
<!-- CardModule -->
<g id="node3" class="node">
<title>CardModule</title>
<polygon fill="#8dd3c7" stroke="black" points="843.27,-84.8 840.27,-88.8 819.27,-88.8 816.27,-84.8 756.73,-84.8 756.73,-48.8 843.27,-48.8 843.27,-84.8"/>
<text text-anchor="middle" x="800" y="-62.6" font-family="Times,serif" font-size="14.00">CardModule</text>
</g>
<!-- CardModule&#45;&gt;UserChangePasswordFormModule -->
<g id="edge2" class="edge">
<title>CardModule&#45;&gt;UserChangePasswordFormModule</title>
<path fill="none" stroke="black" d="M800,-84.82C800,-102.17 800,-125.8 800,-125.8 800,-125.8 669.54,-125.8 669.54,-125.8"/>
<polygon fill="black" stroke="black" points="669.54,-122.3 659.54,-125.8 669.54,-129.3 669.54,-122.3"/>
</g>
<!-- FormErrorsModule -->
<g id="node4" class="node">
<title>FormErrorsModule</title>
<polygon fill="#8dd3c7" stroke="black" points="738.38,-84.8 735.38,-88.8 714.38,-88.8 711.38,-84.8 613.62,-84.8 613.62,-48.8 738.38,-48.8 738.38,-84.8"/>
<text text-anchor="middle" x="676" y="-62.6" font-family="Times,serif" font-size="14.00">FormErrorsModule</text>
</g>
<!-- FormErrorsModule&#45;&gt;UserChangePasswordFormModule -->
<g id="edge3" class="edge">
<title>FormErrorsModule&#45;&gt;UserChangePasswordFormModule</title>
<path fill="none" stroke="black" d="M636.47,-84.91C636.47,-84.91 636.47,-103.79 636.47,-103.79"/>
<polygon fill="black" stroke="black" points="632.97,-103.79 636.47,-113.79 639.97,-103.79 632.97,-103.79"/>
</g>
<!-- I18nModule -->
<g id="node5" class="node">
<title>I18nModule</title>
<polygon fill="#8dd3c7" stroke="black" points="595.71,-84.8 592.71,-88.8 571.71,-88.8 568.71,-84.8 510.29,-84.8 510.29,-48.8 595.71,-48.8 595.71,-84.8"/>
<text text-anchor="middle" x="553" y="-62.6" font-family="Times,serif" font-size="14.00">I18nModule</text>
</g>
<!-- I18nModule&#45;&gt;UserChangePasswordFormModule -->
<g id="edge4" class="edge">
<title>I18nModule&#45;&gt;UserChangePasswordFormModule</title>
<path fill="none" stroke="black" d="M553,-84.91C553,-84.91 553,-103.79 553,-103.79"/>
<polygon fill="black" stroke="black" points="549.5,-103.79 553,-113.79 556.5,-103.79 549.5,-103.79"/>
</g>
<!-- KeyboardFocusModule -->
<g id="node6" class="node">
<title>KeyboardFocusModule</title>
<polygon fill="#8dd3c7" stroke="black" points="492.2,-84.8 489.2,-88.8 468.2,-88.8 465.2,-84.8 343.8,-84.8 343.8,-48.8 492.2,-48.8 492.2,-84.8"/>
<text text-anchor="middle" x="418" y="-62.6" font-family="Times,serif" font-size="14.00">KeyboardFocusModule</text>
</g>
<!-- KeyboardFocusModule&#45;&gt;UserChangePasswordFormModule -->
<g id="edge5" class="edge">
<title>KeyboardFocusModule&#45;&gt;UserChangePasswordFormModule</title>
<path fill="none" stroke="black" d="M469.36,-84.91C469.36,-84.91 469.36,-103.79 469.36,-103.79"/>
<polygon fill="black" stroke="black" points="465.86,-103.79 469.36,-113.79 472.86,-103.79 465.86,-103.79"/>
</g>
<!-- PasswordVisibilityToggleModule -->
<g id="node7" class="node">
<title>PasswordVisibilityToggleModule</title>
<polygon fill="#8dd3c7" stroke="black" points="325.77,-84.8 322.77,-88.8 301.77,-88.8 298.77,-84.8 120.23,-84.8 120.23,-48.8 325.77,-48.8 325.77,-84.8"/>
<text text-anchor="middle" x="223" y="-62.6" font-family="Times,serif" font-size="14.00">PasswordVisibilityToggleModule</text>
</g>
<!-- PasswordVisibilityToggleModule&#45;&gt;UserChangePasswordFormModule -->
<g id="edge6" class="edge">
<title>PasswordVisibilityToggleModule&#45;&gt;UserChangePasswordFormModule</title>
<path fill="none" stroke="black" d="M223,-84.82C223,-102.17 223,-125.8 223,-125.8 223,-125.8 436.31,-125.8 436.31,-125.8"/>
<polygon fill="black" stroke="black" points="436.31,-129.3 446.31,-125.8 436.31,-122.3 436.31,-129.3"/>
</g>
<!-- UrlModule -->
<g id="node8" class="node">
<title>UrlModule</title>
<polygon fill="#8dd3c7" stroke="black" points="102.21,-84.8 99.21,-88.8 78.21,-88.8 75.21,-84.8 23.79,-84.8 23.79,-48.8 102.21,-48.8 102.21,-84.8"/>
<text text-anchor="middle" x="63" y="-62.6" font-family="Times,serif" font-size="14.00">UrlModule</text>
</g>
<!-- UrlModule&#45;&gt;UserChangePasswordFormModule -->
<g id="edge7" class="edge">
<title>UrlModule&#45;&gt;UserChangePasswordFormModule</title>
<path fill="none" stroke="black" d="M63,-85.08C63,-106.12 63,-137.8 63,-137.8 63,-137.8 436.68,-137.8 436.68,-137.8"/>
<polygon fill="black" stroke="black" points="436.68,-141.3 446.68,-137.8 436.68,-134.3 436.68,-141.3"/>
</g>
</g>
</svg>
