<?xml version="1.0" encoding="UTF-8" standalone="no"?>
<!DOCTYPE svg PUBLIC "-//W3C//DTD SVG 1.1//EN"
 "http://www.w3.org/Graphics/SVG/1.1/DTD/svg11.dtd">
<!-- Generated by graphviz version 5.0.0 (20220707.1540)
 -->
<!-- Title: dependencies Pages: 1 -->
<svg width="1133pt" height="174pt"
 viewBox="0.00 0.00 1133.00 173.80" xmlns="http://www.w3.org/2000/svg" xmlns:xlink="http://www.w3.org/1999/xlink">
<g id="graph0" class="graph" transform="scale(1 1) rotate(0) translate(4 169.8)">
<title>dependencies</title>
<polygon fill="white" stroke="transparent" points="-4,4 -4,-169.8 1129,-169.8 1129,4 -4,4"/>
<text text-anchor="middle" x="562.5" y="-8.2" font-family="sans-serif" font-size="14.00">dependencies</text>
<g id="clust1" class="cluster">
<title>cluster_UserChangePasswordFormModule</title>
<polygon fill="none" stroke="black" stroke-dasharray="1,5" points="8,-32.8 8,-157.8 1117,-157.8 1117,-32.8 8,-32.8"/>
</g>
<g id="clust4" class="cluster">
<title>cluster_UserChangePasswordFormModule_imports</title>
<polygon fill="none" stroke="black" points="274,-40.8 274,-92.8 1109,-92.8 1109,-40.8 274,-40.8"/>
</g>
<g id="clust2" class="cluster">
<title>cluster_UserChangePasswordFormModule_declarations</title>
<polygon fill="none" stroke="black" points="16,-40.8 16,-92.8 266,-92.8 266,-40.8 16,-40.8"/>
</g>
<!-- UserChangePasswordFormComponent -->
<g id="node1" class="node">
<title>UserChangePasswordFormComponent</title>
<polygon fill="#ffffb3" stroke="black" points="258.04,-84.8 23.96,-84.8 23.96,-48.8 258.04,-48.8 258.04,-84.8"/>
<text text-anchor="middle" x="141" y="-62.6" font-family="Times,serif" font-size="14.00">UserChangePasswordFormComponent</text>
</g>
<!-- UserChangePasswordFormModule -->
<g id="node2" class="node">
<title>UserChangePasswordFormModule</title>
<polygon fill="#8dd3c7" stroke="black" points="782.26,-149.8 779.26,-153.8 758.26,-153.8 755.26,-149.8 569.74,-149.8 569.74,-113.8 782.26,-113.8 782.26,-149.8"/>
<text text-anchor="middle" x="676" y="-127.6" font-family="Times,serif" font-size="14.00">UserChangePasswordFormModule</text>
</g>
<!-- UserChangePasswordFormComponent&#45;&gt;UserChangePasswordFormModule -->
<g id="edge1" class="edge">
<title>UserChangePasswordFormComponent&#45;&gt;UserChangePasswordFormModule</title>
<path fill="none" stroke="black" d="M141,-85.08C141,-106.12 141,-137.8 141,-137.8 141,-137.8 559.66,-137.8 559.66,-137.8"/>
<polygon fill="black" stroke="black" points="559.66,-141.3 569.66,-137.8 559.66,-134.3 559.66,-141.3"/>
</g>
<!-- CardModule -->
<g id="node3" class="node">
<title>CardModule</title>
<polygon fill="#8dd3c7" stroke="black" points="1101.27,-84.8 1098.27,-88.8 1077.27,-88.8 1074.27,-84.8 1014.73,-84.8 1014.73,-48.8 1101.27,-48.8 1101.27,-84.8"/>
<text text-anchor="middle" x="1058" y="-62.6" font-family="Times,serif" font-size="14.00">CardModule</text>
</g>
<!-- CardModule&#45;&gt;UserChangePasswordFormModule -->
<g id="edge2" class="edge">
<title>CardModule&#45;&gt;UserChangePasswordFormModule</title>
<path fill="none" stroke="black" d="M1058,-85.08C1058,-106.12 1058,-137.8 1058,-137.8 1058,-137.8 792.41,-137.8 792.41,-137.8"/>
<polygon fill="black" stroke="black" points="792.41,-134.3 782.41,-137.8 792.41,-141.3 792.41,-134.3"/>
</g>
<!-- FormErrorsModule -->
<g id="node4" class="node">
<title>FormErrorsModule</title>
<polygon fill="#8dd3c7" stroke="black" points="996.38,-84.8 993.38,-88.8 972.38,-88.8 969.38,-84.8 871.62,-84.8 871.62,-48.8 996.38,-48.8 996.38,-84.8"/>
<text text-anchor="middle" x="934" y="-62.6" font-family="Times,serif" font-size="14.00">FormErrorsModule</text>
</g>
<!-- FormErrorsModule&#45;&gt;UserChangePasswordFormModule -->
<g id="edge3" class="edge">
<title>FormErrorsModule&#45;&gt;UserChangePasswordFormModule</title>
<path fill="none" stroke="black" d="M934,-84.82C934,-102.17 934,-125.8 934,-125.8 934,-125.8 792.43,-125.8 792.43,-125.8"/>
<polygon fill="black" stroke="black" points="792.43,-122.3 782.43,-125.8 792.43,-129.3 792.43,-122.3"/>
</g>
<!-- I18nModule -->
<g id="node5" class="node">
<title>I18nModule</title>
<polygon fill="#8dd3c7" stroke="black" points="853.71,-84.8 850.71,-88.8 829.71,-88.8 826.71,-84.8 768.29,-84.8 768.29,-48.8 853.71,-48.8 853.71,-84.8"/>
<text text-anchor="middle" x="811" y="-62.6" font-family="Times,serif" font-size="14.00">I18nModule</text>
</g>
<!-- I18nModule&#45;&gt;UserChangePasswordFormModule -->
<g id="edge4" class="edge">
<title>I18nModule&#45;&gt;UserChangePasswordFormModule</title>
<path fill="none" stroke="black" d="M775.39,-84.91C775.39,-84.91 775.39,-103.79 775.39,-103.79"/>
<polygon fill="black" stroke="black" points="771.89,-103.79 775.39,-113.79 778.89,-103.79 771.89,-103.79"/>
</g>
<!-- KeyboardFocusModule -->
<g id="node6" class="node">
<title>KeyboardFocusModule</title>
<polygon fill="#8dd3c7" stroke="black" points="750.2,-84.8 747.2,-88.8 726.2,-88.8 723.2,-84.8 601.8,-84.8 601.8,-48.8 750.2,-48.8 750.2,-84.8"/>
<text text-anchor="middle" x="676" y="-62.6" font-family="Times,serif" font-size="14.00">KeyboardFocusModule</text>
</g>
<!-- KeyboardFocusModule&#45;&gt;UserChangePasswordFormModule -->
<g id="edge5" class="edge">
<title>KeyboardFocusModule&#45;&gt;UserChangePasswordFormModule</title>
<path fill="none" stroke="black" d="M676,-84.91C676,-84.91 676,-103.79 676,-103.79"/>
<polygon fill="black" stroke="black" points="672.5,-103.79 676,-113.79 679.5,-103.79 672.5,-103.79"/>
</g>
<!-- PasswordVisibilityToggleModule -->
<g id="node7" class="node">
<title>PasswordVisibilityToggleModule</title>
<polygon fill="#8dd3c7" stroke="black" points="583.77,-84.8 580.77,-88.8 559.77,-88.8 556.77,-84.8 378.23,-84.8 378.23,-48.8 583.77,-48.8 583.77,-84.8"/>
<text text-anchor="middle" x="481" y="-62.6" font-family="Times,serif" font-size="14.00">PasswordVisibilityToggleModule</text>
</g>
<!-- PasswordVisibilityToggleModule&#45;&gt;UserChangePasswordFormModule -->
<g id="edge6" class="edge">
<title>PasswordVisibilityToggleModule&#45;&gt;UserChangePasswordFormModule</title>
<path fill="none" stroke="black" d="M576.75,-84.91C576.75,-84.91 576.75,-103.79 576.75,-103.79"/>
<polygon fill="black" stroke="black" points="573.25,-103.79 576.75,-113.79 580.25,-103.79 573.25,-103.79"/>
</g>
<!-- UrlModule -->
<g id="node8" class="node">
<title>UrlModule</title>
<polygon fill="#8dd3c7" stroke="black" points="360.21,-84.8 357.21,-88.8 336.21,-88.8 333.21,-84.8 281.79,-84.8 281.79,-48.8 360.21,-48.8 360.21,-84.8"/>
<text text-anchor="middle" x="321" y="-62.6" font-family="Times,serif" font-size="14.00">UrlModule</text>
</g>
<!-- UrlModule&#45;&gt;UserChangePasswordFormModule -->
<g id="edge7" class="edge">
<title>UrlModule&#45;&gt;UserChangePasswordFormModule</title>
<path fill="none" stroke="black" d="M321,-84.82C321,-102.17 321,-125.8 321,-125.8 321,-125.8 559.49,-125.8 559.49,-125.8"/>
<polygon fill="black" stroke="black" points="559.49,-129.3 569.49,-125.8 559.49,-122.3 559.49,-129.3"/>
</g>
</g>
</svg>
