<?xml version="1.0" encoding="UTF-8" standalone="no"?>
<!DOCTYPE svg PUBLIC "-//W3C//DTD SVG 1.1//EN"
 "http://www.w3.org/Graphics/SVG/1.1/DTD/svg11.dtd">
<!-- Generated by graphviz version 5.0.0 (20220707.1540)
 -->
<!-- Title: dependencies Pages: 1 -->
<svg width="610pt" height="247pt"
 viewBox="0.00 0.00 610.00 246.80" xmlns="http://www.w3.org/2000/svg" xmlns:xlink="http://www.w3.org/1999/xlink">
<g id="graph0" class="graph" transform="scale(1 1) rotate(0) translate(4 242.8)">
<title>dependencies</title>
<polygon fill="white" stroke="transparent" points="-4,4 -4,-242.8 606,-242.8 606,4 -4,4"/>
<text text-anchor="middle" x="301" y="-8.2" font-family="sans-serif" font-size="14.00">dependencies</text>
<g id="clust1" class="cluster">
<title>cluster_CarouselModule</title>
<polygon fill="none" stroke="black" stroke-dasharray="1,5" points="8,-32.8 8,-230.8 594,-230.8 594,-32.8 8,-32.8"/>
</g>
<g id="clust4" class="cluster">
<title>cluster_CarouselModule_imports</title>
<polygon fill="none" stroke="black" points="172,-40.8 172,-92.8 586,-92.8 586,-40.8 172,-40.8"/>
</g>
<g id="clust5" class="cluster">
<title>cluster_CarouselModule_exports</title>
<polygon fill="none" stroke="black" points="249,-170.8 249,-222.8 399,-222.8 399,-170.8 249,-170.8"/>
</g>
<g id="clust2" class="cluster">
<title>cluster_CarouselModule_declarations</title>
<polygon fill="none" stroke="black" points="16,-40.8 16,-92.8 164,-92.8 164,-40.8 16,-40.8"/>
</g>
<!-- CarouselComponent -->
<g id="node1" class="node">
<title>CarouselComponent</title>
<polygon fill="#ffffb3" stroke="black" points="155.6,-84.8 24.4,-84.8 24.4,-48.8 155.6,-48.8 155.6,-84.8"/>
<text text-anchor="middle" x="90" y="-62.6" font-family="Times,serif" font-size="14.00">CarouselComponent</text>
</g>
<!-- CarouselModule -->
<g id="node2" class="node">
<title>CarouselModule</title>
<polygon fill="#8dd3c7" stroke="black" points="378.82,-149.8 375.82,-153.8 354.82,-153.8 351.82,-149.8 269.18,-149.8 269.18,-113.8 378.82,-113.8 378.82,-149.8"/>
<text text-anchor="middle" x="324" y="-127.6" font-family="Times,serif" font-size="14.00">CarouselModule</text>
</g>
<!-- CarouselComponent&#45;&gt;CarouselModule -->
<g id="edge1" class="edge">
<title>CarouselComponent&#45;&gt;CarouselModule</title>
<path fill="none" stroke="black" d="M90,-84.91C90,-104.14 90,-131.8 90,-131.8 90,-131.8 259.14,-131.8 259.14,-131.8"/>
<polygon fill="black" stroke="black" points="259.14,-135.3 269.14,-131.8 259.14,-128.3 259.14,-135.3"/>
</g>
<!-- CarouselComponent  -->
<g id="node7" class="node">
<title>CarouselComponent </title>
<polygon fill="#fb8072" stroke="black" points="391.1,-214.8 256.9,-214.8 256.9,-178.8 391.1,-178.8 391.1,-214.8"/>
<text text-anchor="middle" x="324" y="-192.6" font-family="Times,serif" font-size="14.00">CarouselComponent </text>
</g>
<!-- CarouselModule&#45;&gt;CarouselComponent  -->
<g id="edge6" class="edge">
<title>CarouselModule&#45;&gt;CarouselComponent </title>
<path fill="none" stroke="black" stroke-dasharray="5,2" d="M324,-149.91C324,-149.91 324,-168.79 324,-168.79"/>
<polygon fill="black" stroke="black" points="320.5,-168.79 324,-178.79 327.5,-168.79 320.5,-168.79"/>
</g>
<!-- I18nModule -->
<g id="node3" class="node">
<title>I18nModule</title>
<polygon fill="#8dd3c7" stroke="black" points="577.71,-84.8 574.71,-88.8 553.71,-88.8 550.71,-84.8 492.29,-84.8 492.29,-48.8 577.71,-48.8 577.71,-84.8"/>
<text text-anchor="middle" x="535" y="-62.6" font-family="Times,serif" font-size="14.00">I18nModule</text>
</g>
<!-- I18nModule&#45;&gt;CarouselModule -->
<g id="edge2" class="edge">
<title>I18nModule&#45;&gt;CarouselModule</title>
<path fill="none" stroke="black" d="M535,-84.91C535,-104.14 535,-131.8 535,-131.8 535,-131.8 388.89,-131.8 388.89,-131.8"/>
<polygon fill="black" stroke="black" points="388.89,-128.3 378.89,-131.8 388.89,-135.3 388.89,-128.3"/>
</g>
<!-- IconModule -->
<g id="node4" class="node">
<title>IconModule</title>
<polygon fill="#8dd3c7" stroke="black" points="474.43,-84.8 471.43,-88.8 450.43,-88.8 447.43,-84.8 389.57,-84.8 389.57,-48.8 474.43,-48.8 474.43,-84.8"/>
<text text-anchor="middle" x="432" y="-62.6" font-family="Times,serif" font-size="14.00">IconModule</text>
</g>
<!-- IconModule&#45;&gt;CarouselModule -->
<g id="edge3" class="edge">
<title>IconModule&#45;&gt;CarouselModule</title>
<path fill="none" stroke="black" d="M389.5,-66.8C381.28,-66.8 375.16,-66.8 375.16,-66.8 375.16,-66.8 375.16,-103.69 375.16,-103.69"/>
<polygon fill="black" stroke="black" points="371.66,-103.69 375.16,-113.69 378.66,-103.69 371.66,-103.69"/>
</g>
<!-- MediaModule -->
<g id="node5" class="node">
<title>MediaModule</title>
<polygon fill="#8dd3c7" stroke="black" points="371.82,-84.8 368.82,-88.8 347.82,-88.8 344.82,-84.8 276.18,-84.8 276.18,-48.8 371.82,-48.8 371.82,-84.8"/>
<text text-anchor="middle" x="324" y="-62.6" font-family="Times,serif" font-size="14.00">MediaModule</text>
</g>
<!-- MediaModule&#45;&gt;CarouselModule -->
<g id="edge4" class="edge">
<title>MediaModule&#45;&gt;CarouselModule</title>
<path fill="none" stroke="black" d="M324,-84.91C324,-84.91 324,-103.79 324,-103.79"/>
<polygon fill="black" stroke="black" points="320.5,-103.79 324,-113.79 327.5,-103.79 320.5,-103.79"/>
</g>
<!-- UrlModule -->
<g id="node6" class="node">
<title>UrlModule</title>
<polygon fill="#8dd3c7" stroke="black" points="258.21,-84.8 255.21,-88.8 234.21,-88.8 231.21,-84.8 179.79,-84.8 179.79,-48.8 258.21,-48.8 258.21,-84.8"/>
<text text-anchor="middle" x="219" y="-62.6" font-family="Times,serif" font-size="14.00">UrlModule</text>
</g>
<!-- UrlModule&#45;&gt;CarouselModule -->
<g id="edge5" class="edge">
<title>UrlModule&#45;&gt;CarouselModule</title>
<path fill="none" stroke="black" d="M258.13,-66.8C266.48,-66.8 272.84,-66.8 272.84,-66.8 272.84,-66.8 272.84,-103.69 272.84,-103.69"/>
<polygon fill="black" stroke="black" points="269.34,-103.69 272.84,-113.69 276.34,-103.69 269.34,-103.69"/>
</g>
</g>
</svg>
