<?xml version="1.0" encoding="UTF-8" standalone="no"?>
<!DOCTYPE svg PUBLIC "-//W3C//DTD SVG 1.1//EN"
 "http://www.w3.org/Graphics/SVG/1.1/DTD/svg11.dtd">
<!-- Generated by graphviz version 5.0.0 (20220707.1540)
 -->
<!-- Title: dependencies Pages: 1 -->
<svg width="1014pt" height="247pt"
 viewBox="0.00 0.00 1014.00 246.80" xmlns="http://www.w3.org/2000/svg" xmlns:xlink="http://www.w3.org/1999/xlink">
<g id="graph0" class="graph" transform="scale(1 1) rotate(0) translate(4 242.8)">
<title>dependencies</title>
<polygon fill="white" stroke="transparent" points="-4,4 -4,-242.8 1010,-242.8 1010,4 -4,4"/>
<text text-anchor="middle" x="503" y="-8.2" font-family="sans-serif" font-size="14.00">dependencies</text>
<g id="clust1" class="cluster">
<title>cluster_StorefrontComponentModule</title>
<polygon fill="none" stroke="black" stroke-dasharray="1,5" points="8,-32.8 8,-230.8 998,-230.8 998,-32.8 8,-32.8"/>
</g>
<g id="clust5" class="cluster">
<title>cluster_StorefrontComponentModule_exports</title>
<polygon fill="none" stroke="black" points="405,-170.8 405,-222.8 563,-222.8 563,-170.8 405,-170.8"/>
</g>
<g id="clust2" class="cluster">
<title>cluster_StorefrontComponentModule_declarations</title>
<polygon fill="none" stroke="black" points="836,-40.8 836,-92.8 990,-92.8 990,-40.8 836,-40.8"/>
</g>
<g id="clust4" class="cluster">
<title>cluster_StorefrontComponentModule_imports</title>
<polygon fill="none" stroke="black" points="16,-40.8 16,-92.8 828,-92.8 828,-40.8 16,-40.8"/>
</g>
<!-- StorefrontComponent -->
<g id="node1" class="node">
<title>StorefrontComponent</title>
<polygon fill="#ffffb3" stroke="black" points="982.1,-84.8 843.9,-84.8 843.9,-48.8 982.1,-48.8 982.1,-84.8"/>
<text text-anchor="middle" x="913" y="-62.6" font-family="Times,serif" font-size="14.00">StorefrontComponent</text>
</g>
<!-- StorefrontComponentModule -->
<g id="node2" class="node">
<title>StorefrontComponentModule</title>
<polygon fill="#8dd3c7" stroke="black" points="574.65,-149.8 571.65,-153.8 550.65,-153.8 547.65,-149.8 393.35,-149.8 393.35,-113.8 574.65,-113.8 574.65,-149.8"/>
<text text-anchor="middle" x="484" y="-127.6" font-family="Times,serif" font-size="14.00">StorefrontComponentModule</text>
</g>
<!-- StorefrontComponent&#45;&gt;StorefrontComponentModule -->
<g id="edge1" class="edge">
<title>StorefrontComponent&#45;&gt;StorefrontComponentModule</title>
<path fill="none" stroke="black" d="M913,-85.08C913,-106.12 913,-137.8 913,-137.8 913,-137.8 584.72,-137.8 584.72,-137.8"/>
<polygon fill="black" stroke="black" points="584.72,-134.3 574.72,-137.8 584.72,-141.3 584.72,-134.3"/>
</g>
<!-- StorefrontComponent  -->
<g id="node9" class="node">
<title>StorefrontComponent </title>
<polygon fill="#fb8072" stroke="black" points="554.6,-214.8 413.4,-214.8 413.4,-178.8 554.6,-178.8 554.6,-214.8"/>
<text text-anchor="middle" x="484" y="-192.6" font-family="Times,serif" font-size="14.00">StorefrontComponent </text>
</g>
<!-- StorefrontComponentModule&#45;&gt;StorefrontComponent  -->
<g id="edge8" class="edge">
<title>StorefrontComponentModule&#45;&gt;StorefrontComponent </title>
<path fill="none" stroke="black" stroke-dasharray="5,2" d="M484,-149.91C484,-149.91 484,-168.79 484,-168.79"/>
<polygon fill="black" stroke="black" points="480.5,-168.79 484,-178.79 487.5,-168.79 480.5,-168.79"/>
</g>
<!-- KeyboardFocusModule -->
<g id="node3" class="node">
<title>KeyboardFocusModule</title>
<polygon fill="#8dd3c7" stroke="black" points="820.2,-84.8 817.2,-88.8 796.2,-88.8 793.2,-84.8 671.8,-84.8 671.8,-48.8 820.2,-48.8 820.2,-84.8"/>
<text text-anchor="middle" x="746" y="-62.6" font-family="Times,serif" font-size="14.00">KeyboardFocusModule</text>
</g>
<!-- KeyboardFocusModule&#45;&gt;StorefrontComponentModule -->
<g id="edge2" class="edge">
<title>KeyboardFocusModule&#45;&gt;StorefrontComponentModule</title>
<path fill="none" stroke="black" d="M746,-84.82C746,-102.17 746,-125.8 746,-125.8 746,-125.8 584.9,-125.8 584.9,-125.8"/>
<polygon fill="black" stroke="black" points="584.9,-122.3 574.9,-125.8 584.9,-129.3 584.9,-122.3"/>
</g>
<!-- OutletModule -->
<g id="node4" class="node">
<title>OutletModule</title>
<polygon fill="#8dd3c7" stroke="black" points="654.05,-84.8 651.05,-88.8 630.05,-88.8 627.05,-84.8 559.95,-84.8 559.95,-48.8 654.05,-48.8 654.05,-84.8"/>
<text text-anchor="middle" x="607" y="-62.6" font-family="Times,serif" font-size="14.00">OutletModule</text>
</g>
<!-- OutletModule&#45;&gt;StorefrontComponentModule -->
<g id="edge3" class="edge">
<title>OutletModule&#45;&gt;StorefrontComponentModule</title>
<path fill="none" stroke="black" d="M567.28,-84.91C567.28,-84.91 567.28,-103.79 567.28,-103.79"/>
<polygon fill="black" stroke="black" points="563.78,-103.79 567.28,-113.79 570.78,-103.79 563.78,-103.79"/>
</g>
<!-- OutletRefModule -->
<g id="node5" class="node">
<title>OutletRefModule</title>
<polygon fill="#8dd3c7" stroke="black" points="541.26,-84.8 538.26,-88.8 517.26,-88.8 514.26,-84.8 426.74,-84.8 426.74,-48.8 541.26,-48.8 541.26,-84.8"/>
<text text-anchor="middle" x="484" y="-62.6" font-family="Times,serif" font-size="14.00">OutletRefModule</text>
</g>
<!-- OutletRefModule&#45;&gt;StorefrontComponentModule -->
<g id="edge4" class="edge">
<title>OutletRefModule&#45;&gt;StorefrontComponentModule</title>
<path fill="none" stroke="black" d="M484,-84.91C484,-84.91 484,-103.79 484,-103.79"/>
<polygon fill="black" stroke="black" points="480.5,-103.79 484,-113.79 487.5,-103.79 480.5,-103.79"/>
</g>
<!-- PageLayoutModule -->
<g id="node6" class="node">
<title>PageLayoutModule</title>
<polygon fill="#8dd3c7" stroke="black" points="408.42,-84.8 405.42,-88.8 384.42,-88.8 381.42,-84.8 281.58,-84.8 281.58,-48.8 408.42,-48.8 408.42,-84.8"/>
<text text-anchor="middle" x="345" y="-62.6" font-family="Times,serif" font-size="14.00">PageLayoutModule</text>
</g>
<!-- PageLayoutModule&#45;&gt;StorefrontComponentModule -->
<g id="edge5" class="edge">
<title>PageLayoutModule&#45;&gt;StorefrontComponentModule</title>
<path fill="none" stroke="black" d="M400.69,-84.91C400.69,-84.91 400.69,-103.79 400.69,-103.79"/>
<polygon fill="black" stroke="black" points="397.19,-103.79 400.69,-113.79 404.19,-103.79 397.19,-103.79"/>
</g>
<!-- PageSlotModule -->
<g id="node7" class="node">
<title>PageSlotModule</title>
<polygon fill="#8dd3c7" stroke="black" points="263.83,-84.8 260.83,-88.8 239.83,-88.8 236.83,-84.8 154.17,-84.8 154.17,-48.8 263.83,-48.8 263.83,-84.8"/>
<text text-anchor="middle" x="209" y="-62.6" font-family="Times,serif" font-size="14.00">PageSlotModule</text>
</g>
<!-- PageSlotModule&#45;&gt;StorefrontComponentModule -->
<g id="edge6" class="edge">
<title>PageSlotModule&#45;&gt;StorefrontComponentModule</title>
<path fill="none" stroke="black" d="M209,-84.82C209,-102.17 209,-125.8 209,-125.8 209,-125.8 383.19,-125.8 383.19,-125.8"/>
<polygon fill="black" stroke="black" points="383.19,-129.3 393.19,-125.8 383.19,-122.3 383.19,-129.3"/>
</g>
<!-- SkipLinkModule -->
<g id="node8" class="node">
<title>SkipLinkModule</title>
<polygon fill="#8dd3c7" stroke="black" points="135.67,-84.8 132.67,-88.8 111.67,-88.8 108.67,-84.8 24.33,-84.8 24.33,-48.8 135.67,-48.8 135.67,-84.8"/>
<text text-anchor="middle" x="80" y="-62.6" font-family="Times,serif" font-size="14.00">SkipLinkModule</text>
</g>
<!-- SkipLinkModule&#45;&gt;StorefrontComponentModule -->
<g id="edge7" class="edge">
<title>SkipLinkModule&#45;&gt;StorefrontComponentModule</title>
<path fill="none" stroke="black" d="M80,-85.08C80,-106.12 80,-137.8 80,-137.8 80,-137.8 383.33,-137.8 383.33,-137.8"/>
<polygon fill="black" stroke="black" points="383.33,-141.3 393.33,-137.8 383.33,-134.3 383.33,-141.3"/>
</g>
</g>
</svg>
