<?xml version="1.0" encoding="UTF-8" standalone="no"?>
<!DOCTYPE svg PUBLIC "-//W3C//DTD SVG 1.1//EN"
 "http://www.w3.org/Graphics/SVG/1.1/DTD/svg11.dtd">
<!-- Generated by graphviz version 5.0.0 (20220707.1540)
 -->
<!-- Title: dependencies Pages: 1 -->
<svg width="1014pt" height="247pt"
 viewBox="0.00 0.00 1014.00 246.80" xmlns="http://www.w3.org/2000/svg" xmlns:xlink="http://www.w3.org/1999/xlink">
<g id="graph0" class="graph" transform="scale(1 1) rotate(0) translate(4 242.8)">
<title>dependencies</title>
<polygon fill="white" stroke="transparent" points="-4,4 -4,-242.8 1010,-242.8 1010,4 -4,4"/>
<text text-anchor="middle" x="503" y="-8.2" font-family="sans-serif" font-size="14.00">dependencies</text>
<g id="clust1" class="cluster">
<title>cluster_StorefrontComponentModule</title>
<polygon fill="none" stroke="black" stroke-dasharray="1,5" points="8,-32.8 8,-230.8 998,-230.8 998,-32.8 8,-32.8"/>
</g>
<g id="clust5" class="cluster">
<title>cluster_StorefrontComponentModule_exports</title>
<polygon fill="none" stroke="black" points="428,-170.8 428,-222.8 586,-222.8 586,-170.8 428,-170.8"/>
</g>
<g id="clust4" class="cluster">
<title>cluster_StorefrontComponentModule_imports</title>
<polygon fill="none" stroke="black" points="178,-40.8 178,-92.8 990,-92.8 990,-40.8 178,-40.8"/>
</g>
<g id="clust2" class="cluster">
<title>cluster_StorefrontComponentModule_declarations</title>
<polygon fill="none" stroke="black" points="16,-40.8 16,-92.8 170,-92.8 170,-40.8 16,-40.8"/>
</g>
<!-- StorefrontComponent -->
<g id="node1" class="node">
<title>StorefrontComponent</title>
<polygon fill="#ffffb3" stroke="black" points="162.1,-84.8 23.9,-84.8 23.9,-48.8 162.1,-48.8 162.1,-84.8"/>
<text text-anchor="middle" x="93" y="-62.6" font-family="Times,serif" font-size="14.00">StorefrontComponent</text>
</g>
<!-- StorefrontComponentModule -->
<g id="node2" class="node">
<title>StorefrontComponentModule</title>
<polygon fill="#8dd3c7" stroke="black" points="597.65,-149.8 594.65,-153.8 573.65,-153.8 570.65,-149.8 416.35,-149.8 416.35,-113.8 597.65,-113.8 597.65,-149.8"/>
<text text-anchor="middle" x="507" y="-127.6" font-family="Times,serif" font-size="14.00">StorefrontComponentModule</text>
</g>
<!-- StorefrontComponent&#45;&gt;StorefrontComponentModule -->
<g id="edge1" class="edge">
<title>StorefrontComponent&#45;&gt;StorefrontComponentModule</title>
<path fill="none" stroke="black" d="M93,-85.08C93,-106.12 93,-137.8 93,-137.8 93,-137.8 406.15,-137.8 406.15,-137.8"/>
<polygon fill="black" stroke="black" points="406.15,-141.3 416.15,-137.8 406.15,-134.3 406.15,-141.3"/>
</g>
<!-- StorefrontComponent  -->
<g id="node9" class="node">
<title>StorefrontComponent </title>
<polygon fill="#fb8072" stroke="black" points="577.6,-214.8 436.4,-214.8 436.4,-178.8 577.6,-178.8 577.6,-214.8"/>
<text text-anchor="middle" x="507" y="-192.6" font-family="Times,serif" font-size="14.00">StorefrontComponent </text>
</g>
<!-- StorefrontComponentModule&#45;&gt;StorefrontComponent  -->
<g id="edge8" class="edge">
<title>StorefrontComponentModule&#45;&gt;StorefrontComponent </title>
<path fill="none" stroke="black" stroke-dasharray="5,2" d="M507,-149.91C507,-149.91 507,-168.79 507,-168.79"/>
<polygon fill="black" stroke="black" points="503.5,-168.79 507,-178.79 510.5,-168.79 503.5,-168.79"/>
</g>
<!-- KeyboardFocusModule -->
<g id="node3" class="node">
<title>KeyboardFocusModule</title>
<polygon fill="#8dd3c7" stroke="black" points="982.2,-84.8 979.2,-88.8 958.2,-88.8 955.2,-84.8 833.8,-84.8 833.8,-48.8 982.2,-48.8 982.2,-84.8"/>
<text text-anchor="middle" x="908" y="-62.6" font-family="Times,serif" font-size="14.00">KeyboardFocusModule</text>
</g>
<!-- KeyboardFocusModule&#45;&gt;StorefrontComponentModule -->
<g id="edge2" class="edge">
<title>KeyboardFocusModule&#45;&gt;StorefrontComponentModule</title>
<path fill="none" stroke="black" d="M908,-85.08C908,-106.12 908,-137.8 908,-137.8 908,-137.8 607.99,-137.8 607.99,-137.8"/>
<polygon fill="black" stroke="black" points="607.99,-134.3 597.99,-137.8 607.99,-141.3 607.99,-134.3"/>
</g>
<!-- OutletModule -->
<g id="node4" class="node">
<title>OutletModule</title>
<polygon fill="#8dd3c7" stroke="black" points="816.05,-84.8 813.05,-88.8 792.05,-88.8 789.05,-84.8 721.95,-84.8 721.95,-48.8 816.05,-48.8 816.05,-84.8"/>
<text text-anchor="middle" x="769" y="-62.6" font-family="Times,serif" font-size="14.00">OutletModule</text>
</g>
<!-- OutletModule&#45;&gt;StorefrontComponentModule -->
<g id="edge3" class="edge">
<title>OutletModule&#45;&gt;StorefrontComponentModule</title>
<path fill="none" stroke="black" d="M769,-84.82C769,-102.17 769,-125.8 769,-125.8 769,-125.8 607.9,-125.8 607.9,-125.8"/>
<polygon fill="black" stroke="black" points="607.9,-122.3 597.9,-125.8 607.9,-129.3 607.9,-122.3"/>
</g>
<!-- OutletRefModule -->
<g id="node5" class="node">
<title>OutletRefModule</title>
<polygon fill="#8dd3c7" stroke="black" points="703.26,-84.8 700.26,-88.8 679.26,-88.8 676.26,-84.8 588.74,-84.8 588.74,-48.8 703.26,-48.8 703.26,-84.8"/>
<text text-anchor="middle" x="646" y="-62.6" font-family="Times,serif" font-size="14.00">OutletRefModule</text>
</g>
<!-- OutletRefModule&#45;&gt;StorefrontComponentModule -->
<g id="edge4" class="edge">
<title>OutletRefModule&#45;&gt;StorefrontComponentModule</title>
<path fill="none" stroke="black" d="M593.22,-84.91C593.22,-84.91 593.22,-103.79 593.22,-103.79"/>
<polygon fill="black" stroke="black" points="589.72,-103.79 593.22,-113.79 596.72,-103.79 589.72,-103.79"/>
</g>
<!-- PageLayoutModule -->
<g id="node6" class="node">
<title>PageLayoutModule</title>
<polygon fill="#8dd3c7" stroke="black" points="570.42,-84.8 567.42,-88.8 546.42,-88.8 543.42,-84.8 443.58,-84.8 443.58,-48.8 570.42,-48.8 570.42,-84.8"/>
<text text-anchor="middle" x="507" y="-62.6" font-family="Times,serif" font-size="14.00">PageLayoutModule</text>
</g>
<!-- PageLayoutModule&#45;&gt;StorefrontComponentModule -->
<g id="edge5" class="edge">
<title>PageLayoutModule&#45;&gt;StorefrontComponentModule</title>
<path fill="none" stroke="black" d="M507,-84.91C507,-84.91 507,-103.79 507,-103.79"/>
<polygon fill="black" stroke="black" points="503.5,-103.79 507,-113.79 510.5,-103.79 503.5,-103.79"/>
</g>
<!-- PageSlotModule -->
<g id="node7" class="node">
<title>PageSlotModule</title>
<polygon fill="#8dd3c7" stroke="black" points="425.83,-84.8 422.83,-88.8 401.83,-88.8 398.83,-84.8 316.17,-84.8 316.17,-48.8 425.83,-48.8 425.83,-84.8"/>
<text text-anchor="middle" x="371" y="-62.6" font-family="Times,serif" font-size="14.00">PageSlotModule</text>
</g>
<!-- PageSlotModule&#45;&gt;StorefrontComponentModule -->
<g id="edge6" class="edge">
<title>PageSlotModule&#45;&gt;StorefrontComponentModule</title>
<path fill="none" stroke="black" d="M420.92,-84.91C420.92,-84.91 420.92,-103.79 420.92,-103.79"/>
<polygon fill="black" stroke="black" points="417.42,-103.79 420.92,-113.79 424.42,-103.79 417.42,-103.79"/>
</g>
<!-- SkipLinkModule -->
<g id="node8" class="node">
<title>SkipLinkModule</title>
<polygon fill="#8dd3c7" stroke="black" points="297.67,-84.8 294.67,-88.8 273.67,-88.8 270.67,-84.8 186.33,-84.8 186.33,-48.8 297.67,-48.8 297.67,-84.8"/>
<text text-anchor="middle" x="242" y="-62.6" font-family="Times,serif" font-size="14.00">SkipLinkModule</text>
</g>
<!-- SkipLinkModule&#45;&gt;StorefrontComponentModule -->
<g id="edge7" class="edge">
<title>SkipLinkModule&#45;&gt;StorefrontComponentModule</title>
<path fill="none" stroke="black" d="M242,-84.82C242,-102.17 242,-125.8 242,-125.8 242,-125.8 406.17,-125.8 406.17,-125.8"/>
<polygon fill="black" stroke="black" points="406.17,-129.3 416.17,-125.8 406.17,-122.3 406.17,-129.3"/>
</g>
</g>
</svg>
