<?xml version="1.0" encoding="UTF-8" standalone="no"?>
<!DOCTYPE svg PUBLIC "-//W3C//DTD SVG 1.1//EN"
 "http://www.w3.org/Graphics/SVG/1.1/DTD/svg11.dtd">
<!-- Generated by graphviz version 5.0.0 (20220707.1540)
 -->
<!-- Title: dependencies Pages: 1 -->
<svg width="1422pt" height="358pt"
 viewBox="0.00 0.00 1422.00 358.39" xmlns="http://www.w3.org/2000/svg" xmlns:xlink="http://www.w3.org/1999/xlink">
<g id="graph0" class="graph" transform="scale(1 1) rotate(0) translate(4 354.39)">
<title>dependencies</title>
<polygon fill="white" stroke="transparent" points="-4,4 -4,-354.39 1418,-354.39 1418,4 -4,4"/>
<text text-anchor="middle" x="707" y="-8.2" font-family="sans-serif" font-size="14.00">dependencies</text>
<g id="clust1" class="cluster">
<title>cluster_UnitDetailsModule</title>
<polygon fill="none" stroke="black" stroke-dasharray="1,5" points="8,-32.8 8,-342.39 1406,-342.39 1406,-32.8 8,-32.8"/>
</g>
<g id="clust4" class="cluster">
<title>cluster_UnitDetailsModule_imports</title>
<polygon fill="none" stroke="black" points="498,-152.39 498,-204.39 1398,-204.39 1398,-152.39 498,-152.39"/>
</g>
<g id="clust3" class="cluster">
<title>cluster_UnitDetailsModule_UnitDetailsComponent_providers</title>
<polygon fill="none" stroke="black" points="16,-40.8 16,-204.39 490,-204.39 490,-40.8 16,-40.8"/>
</g>
<g id="clust5" class="cluster">
<title>cluster_UnitDetailsModule_exports</title>
<polygon fill="none" stroke="black" points="821,-282.39 821,-334.39 987,-334.39 987,-282.39 821,-282.39"/>
</g>
<!-- UnitDetailsComponent -->
<g id="node1" class="node">
<title>UnitDetailsComponent</title>
<polygon fill="#ffffb3" stroke="black" points="403.88,-196.39 258.12,-196.39 258.12,-160.39 403.88,-160.39 403.88,-196.39"/>
<text text-anchor="middle" x="331" y="-174.19" font-family="Times,serif" font-size="14.00">UnitDetailsComponent</text>
</g>
<!-- UnitDetailsModule -->
<g id="node2" class="node">
<title>UnitDetailsModule</title>
<polygon fill="#8dd3c7" stroke="black" points="966.1,-261.39 963.1,-265.39 942.1,-265.39 939.1,-261.39 841.9,-261.39 841.9,-225.39 966.1,-225.39 966.1,-261.39"/>
<text text-anchor="middle" x="904" y="-239.19" font-family="Times,serif" font-size="14.00">UnitDetailsModule</text>
</g>
<!-- UnitDetailsComponent&#45;&gt;UnitDetailsModule -->
<g id="edge1" class="edge">
<title>UnitDetailsComponent&#45;&gt;UnitDetailsModule</title>
<path fill="none" stroke="black" d="M331,-196.68C331,-218.6 331,-252.39 331,-252.39 331,-252.39 831.86,-252.39 831.86,-252.39"/>
<polygon fill="black" stroke="black" points="831.86,-255.89 841.86,-252.39 831.86,-248.89 831.86,-255.89"/>
</g>
<!-- UnitDetailsComponent  -->
<g id="node11" class="node">
<title>UnitDetailsComponent </title>
<polygon fill="#fb8072" stroke="black" points="978.88,-326.39 829.12,-326.39 829.12,-290.39 978.88,-290.39 978.88,-326.39"/>
<text text-anchor="middle" x="904" y="-304.19" font-family="Times,serif" font-size="14.00">UnitDetailsComponent </text>
</g>
<!-- UnitDetailsModule&#45;&gt;UnitDetailsComponent  -->
<g id="edge10" class="edge">
<title>UnitDetailsModule&#45;&gt;UnitDetailsComponent </title>
<path fill="none" stroke="black" stroke-dasharray="5,2" d="M904,-261.5C904,-261.5 904,-280.38 904,-280.38"/>
<polygon fill="black" stroke="black" points="900.5,-280.38 904,-290.38 907.5,-280.38 900.5,-280.38"/>
</g>
<!-- {
 &#160;&#160;&#160;provide: ItemService, useExisting: UnitItemService,
} -->
<g id="node3" class="node">
<title>{
 &#160;&#160;&#160;provide: ItemService, useExisting: UnitItemService,
}</title>
<ellipse fill="#fdb462" stroke="black" cx="253" cy="-90.1" rx="228.55" ry="41.09"/>
<text text-anchor="middle" x="253" y="-102.7" font-family="Times,serif" font-size="14.00">{</text>
<text text-anchor="middle" x="253" y="-85.9" font-family="Times,serif" font-size="14.00"> &#160;&#160;&#160;provide: ItemService, useExisting: UnitItemService,</text>
<text text-anchor="middle" x="253" y="-69.1" font-family="Times,serif" font-size="14.00">}</text>
</g>
<!-- {
 &#160;&#160;&#160;provide: ItemService, useExisting: UnitItemService,
}&#45;&gt;UnitDetailsComponent -->
<g id="edge2" class="edge">
<title>{
 &#160;&#160;&#160;provide: ItemService, useExisting: UnitItemService,
}&#45;&gt;UnitDetailsComponent</title>
<path fill="none" stroke="black" d="M331,-129.08C331,-129.08 331,-150.36 331,-150.36"/>
<polygon fill="black" stroke="black" points="327.5,-150.36 331,-160.36 334.5,-150.36 327.5,-150.36"/>
</g>
<!-- CardModule -->
<g id="node4" class="node">
<title>CardModule</title>
<polygon fill="#8dd3c7" stroke="black" points="1390.27,-196.39 1387.27,-200.39 1366.27,-200.39 1363.27,-196.39 1303.73,-196.39 1303.73,-160.39 1390.27,-160.39 1390.27,-196.39"/>
<text text-anchor="middle" x="1347" y="-174.19" font-family="Times,serif" font-size="14.00">CardModule</text>
</g>
<!-- CardModule&#45;&gt;UnitDetailsModule -->
<g id="edge3" class="edge">
<title>CardModule&#45;&gt;UnitDetailsModule</title>
<path fill="none" stroke="black" d="M1347,-196.68C1347,-218.6 1347,-252.39 1347,-252.39 1347,-252.39 976.06,-252.39 976.06,-252.39"/>
<polygon fill="black" stroke="black" points="976.06,-248.89 966.06,-252.39 976.06,-255.89 976.06,-248.89"/>
</g>
<!-- DisableInfoModule -->
<g id="node5" class="node">
<title>DisableInfoModule</title>
<polygon fill="#8dd3c7" stroke="black" points="1285.64,-196.39 1282.64,-200.39 1261.64,-200.39 1258.64,-196.39 1160.36,-196.39 1160.36,-160.39 1285.64,-160.39 1285.64,-196.39"/>
<text text-anchor="middle" x="1223" y="-174.19" font-family="Times,serif" font-size="14.00">DisableInfoModule</text>
</g>
<!-- DisableInfoModule&#45;&gt;UnitDetailsModule -->
<g id="edge4" class="edge">
<title>DisableInfoModule&#45;&gt;UnitDetailsModule</title>
<path fill="none" stroke="black" d="M1223,-196.5C1223,-215.73 1223,-243.39 1223,-243.39 1223,-243.39 976.26,-243.39 976.26,-243.39"/>
<polygon fill="black" stroke="black" points="976.26,-239.89 966.26,-243.39 976.26,-246.89 976.26,-239.89"/>
</g>
<!-- I18nModule -->
<g id="node6" class="node">
<title>I18nModule</title>
<polygon fill="#8dd3c7" stroke="black" points="1142.71,-196.39 1139.71,-200.39 1118.71,-200.39 1115.71,-196.39 1057.29,-196.39 1057.29,-160.39 1142.71,-160.39 1142.71,-196.39"/>
<text text-anchor="middle" x="1100" y="-174.19" font-family="Times,serif" font-size="14.00">I18nModule</text>
</g>
<!-- I18nModule&#45;&gt;UnitDetailsModule -->
<g id="edge5" class="edge">
<title>I18nModule&#45;&gt;UnitDetailsModule</title>
<path fill="none" stroke="black" d="M1100,-196.42C1100,-212.79 1100,-234.39 1100,-234.39 1100,-234.39 976.28,-234.39 976.28,-234.39"/>
<polygon fill="black" stroke="black" points="976.28,-230.89 966.28,-234.39 976.28,-237.89 976.28,-230.89"/>
</g>
<!-- ItemExistsModule -->
<g id="node7" class="node">
<title>ItemExistsModule</title>
<polygon fill="#8dd3c7" stroke="black" points="1039.94,-196.39 1036.94,-200.39 1015.94,-200.39 1012.94,-196.39 920.06,-196.39 920.06,-160.39 1039.94,-160.39 1039.94,-196.39"/>
<text text-anchor="middle" x="980" y="-174.19" font-family="Times,serif" font-size="14.00">ItemExistsModule</text>
</g>
<!-- ItemExistsModule&#45;&gt;UnitDetailsModule -->
<g id="edge6" class="edge">
<title>ItemExistsModule&#45;&gt;UnitDetailsModule</title>
<path fill="none" stroke="black" d="M943.17,-196.5C943.17,-196.5 943.17,-215.38 943.17,-215.38"/>
<polygon fill="black" stroke="black" points="939.67,-215.38 943.17,-225.38 946.67,-215.38 939.67,-215.38"/>
</g>
<!-- KeyboardFocusModule -->
<g id="node8" class="node">
<title>KeyboardFocusModule</title>
<polygon fill="#8dd3c7" stroke="black" points="902.2,-196.39 899.2,-200.39 878.2,-200.39 875.2,-196.39 753.8,-196.39 753.8,-160.39 902.2,-160.39 902.2,-196.39"/>
<text text-anchor="middle" x="828" y="-174.19" font-family="Times,serif" font-size="14.00">KeyboardFocusModule</text>
</g>
<!-- KeyboardFocusModule&#45;&gt;UnitDetailsModule -->
<g id="edge7" class="edge">
<title>KeyboardFocusModule&#45;&gt;UnitDetailsModule</title>
<path fill="none" stroke="black" d="M872.03,-196.5C872.03,-196.5 872.03,-215.38 872.03,-215.38"/>
<polygon fill="black" stroke="black" points="868.53,-215.38 872.03,-225.38 875.53,-215.38 868.53,-215.38"/>
</g>
<!-- ToggleStatusModule -->
<g id="node9" class="node">
<title>ToggleStatusModule</title>
<polygon fill="#8dd3c7" stroke="black" points="735.94,-196.39 732.94,-200.39 711.94,-200.39 708.94,-196.39 602.06,-196.39 602.06,-160.39 735.94,-160.39 735.94,-196.39"/>
<text text-anchor="middle" x="669" y="-174.19" font-family="Times,serif" font-size="14.00">ToggleStatusModule</text>
</g>
<!-- ToggleStatusModule&#45;&gt;UnitDetailsModule -->
<g id="edge8" class="edge">
<title>ToggleStatusModule&#45;&gt;UnitDetailsModule</title>
<path fill="none" stroke="black" d="M669,-196.42C669,-212.79 669,-234.39 669,-234.39 669,-234.39 831.95,-234.39 831.95,-234.39"/>
<polygon fill="black" stroke="black" points="831.95,-237.89 841.95,-234.39 831.95,-230.89 831.95,-237.89"/>
</g>
<!-- UrlModule -->
<g id="node10" class="node">
<title>UrlModule</title>
<polygon fill="#8dd3c7" stroke="black" points="584.21,-196.39 581.21,-200.39 560.21,-200.39 557.21,-196.39 505.79,-196.39 505.79,-160.39 584.21,-160.39 584.21,-196.39"/>
<text text-anchor="middle" x="545" y="-174.19" font-family="Times,serif" font-size="14.00">UrlModule</text>
</g>
<!-- UrlModule&#45;&gt;UnitDetailsModule -->
<g id="edge9" class="edge">
<title>UrlModule&#45;&gt;UnitDetailsModule</title>
<path fill="none" stroke="black" d="M545,-196.5C545,-215.73 545,-243.39 545,-243.39 545,-243.39 831.88,-243.39 831.88,-243.39"/>
<polygon fill="black" stroke="black" points="831.88,-246.89 841.88,-243.39 831.88,-239.89 831.88,-246.89"/>
</g>
</g>
</svg>
