<?xml version="1.0" encoding="UTF-8" standalone="no"?>
<!DOCTYPE svg PUBLIC "-//W3C//DTD SVG 1.1//EN"
 "http://www.w3.org/Graphics/SVG/1.1/DTD/svg11.dtd">
<!-- Generated by graphviz version 5.0.0 (20220707.1540)
 -->
<!-- Title: dependencies Pages: 1 -->
<svg width="499pt" height="247pt"
 viewBox="0.00 0.00 499.00 246.80" xmlns="http://www.w3.org/2000/svg" xmlns:xlink="http://www.w3.org/1999/xlink">
<g id="graph0" class="graph" transform="scale(1 1) rotate(0) translate(4 242.8)">
<title>dependencies</title>
<polygon fill="white" stroke="transparent" points="-4,4 -4,-242.8 495,-242.8 495,4 -4,4"/>
<text text-anchor="middle" x="245.5" y="-8.2" font-family="sans-serif" font-size="14.00">dependencies</text>
<g id="clust1" class="cluster">
<title>cluster_CategoryNavigationModule</title>
<polygon fill="none" stroke="black" stroke-dasharray="1,5" points="8,-32.8 8,-230.8 483,-230.8 483,-32.8 8,-32.8"/>
</g>
<g id="clust2" class="cluster">
<title>cluster_CategoryNavigationModule_declarations</title>
<polygon fill="none" stroke="black" points="265,-40.8 265,-92.8 475,-92.8 475,-40.8 265,-40.8"/>
</g>
<g id="clust4" class="cluster">
<title>cluster_CategoryNavigationModule_imports</title>
<polygon fill="none" stroke="black" points="16,-40.8 16,-92.8 257,-92.8 257,-40.8 16,-40.8"/>
</g>
<g id="clust5" class="cluster">
<title>cluster_CategoryNavigationModule_exports</title>
<polygon fill="none" stroke="black" points="99,-170.8 99,-222.8 313,-222.8 313,-170.8 99,-170.8"/>
</g>
<!-- CategoryNavigationComponent -->
<g id="node1" class="node">
<title>CategoryNavigationComponent</title>
<polygon fill="#ffffb3" stroke="black" points="467.36,-84.8 272.64,-84.8 272.64,-48.8 467.36,-48.8 467.36,-84.8"/>
<text text-anchor="middle" x="370" y="-62.6" font-family="Times,serif" font-size="14.00">CategoryNavigationComponent</text>
</g>
<!-- CategoryNavigationModule -->
<g id="node2" class="node">
<title>CategoryNavigationModule</title>
<polygon fill="#8dd3c7" stroke="black" points="292.58,-149.8 289.58,-153.8 268.58,-153.8 265.58,-149.8 119.42,-149.8 119.42,-113.8 292.58,-113.8 292.58,-149.8"/>
<text text-anchor="middle" x="206" y="-127.6" font-family="Times,serif" font-size="14.00">CategoryNavigationModule</text>
</g>
<!-- CategoryNavigationComponent&#45;&gt;CategoryNavigationModule -->
<g id="edge1" class="edge">
<title>CategoryNavigationComponent&#45;&gt;CategoryNavigationModule</title>
<path fill="none" stroke="black" d="M282.56,-84.91C282.56,-84.91 282.56,-103.79 282.56,-103.79"/>
<polygon fill="black" stroke="black" points="279.06,-103.79 282.56,-113.79 286.06,-103.79 279.06,-103.79"/>
</g>
<!-- CategoryNavigationComponent  -->
<g id="node5" class="node">
<title>CategoryNavigationComponent </title>
<polygon fill="#fb8072" stroke="black" points="305.36,-214.8 106.64,-214.8 106.64,-178.8 305.36,-178.8 305.36,-214.8"/>
<text text-anchor="middle" x="206" y="-192.6" font-family="Times,serif" font-size="14.00">CategoryNavigationComponent </text>
</g>
<!-- CategoryNavigationModule&#45;&gt;CategoryNavigationComponent  -->
<g id="edge4" class="edge">
<title>CategoryNavigationModule&#45;&gt;CategoryNavigationComponent </title>
<path fill="none" stroke="black" stroke-dasharray="5,2" d="M206,-149.91C206,-149.91 206,-168.79 206,-168.79"/>
<polygon fill="black" stroke="black" points="202.5,-168.79 206,-178.79 209.5,-168.79 202.5,-168.79"/>
</g>
<!-- I18nModule -->
<g id="node3" class="node">
<title>I18nModule</title>
<polygon fill="#8dd3c7" stroke="black" points="248.71,-84.8 245.71,-88.8 224.71,-88.8 221.71,-84.8 163.29,-84.8 163.29,-48.8 248.71,-48.8 248.71,-84.8"/>
<text text-anchor="middle" x="206" y="-62.6" font-family="Times,serif" font-size="14.00">I18nModule</text>
</g>
<!-- I18nModule&#45;&gt;CategoryNavigationModule -->
<g id="edge2" class="edge">
<title>I18nModule&#45;&gt;CategoryNavigationModule</title>
<path fill="none" stroke="black" d="M206,-84.91C206,-84.91 206,-103.79 206,-103.79"/>
<polygon fill="black" stroke="black" points="202.5,-103.79 206,-113.79 209.5,-103.79 202.5,-103.79"/>
</g>
<!-- NavigationModule -->
<g id="node4" class="node">
<title>NavigationModule</title>
<polygon fill="#8dd3c7" stroke="black" points="145.76,-84.8 142.76,-88.8 121.76,-88.8 118.76,-84.8 24.24,-84.8 24.24,-48.8 145.76,-48.8 145.76,-84.8"/>
<text text-anchor="middle" x="85" y="-62.6" font-family="Times,serif" font-size="14.00">NavigationModule</text>
</g>
<!-- NavigationModule&#45;&gt;CategoryNavigationModule -->
<g id="edge3" class="edge">
<title>NavigationModule&#45;&gt;CategoryNavigationModule</title>
<path fill="none" stroke="black" d="M132.67,-84.91C132.67,-84.91 132.67,-103.79 132.67,-103.79"/>
<polygon fill="black" stroke="black" points="129.17,-103.79 132.67,-113.79 136.17,-103.79 129.17,-103.79"/>
</g>
</g>
</svg>
