<?xml version="1.0" encoding="UTF-8" standalone="no"?>
<!DOCTYPE svg PUBLIC "-//W3C//DTD SVG 1.1//EN"
 "http://www.w3.org/Graphics/SVG/1.1/DTD/svg11.dtd">
<!-- Generated by graphviz version 5.0.0 (20220707.1540)
 -->
<!-- Title: dependencies Pages: 1 -->
<svg width="1193pt" height="285pt"
 viewBox="0.00 0.00 1193.00 285.39" xmlns="http://www.w3.org/2000/svg" xmlns:xlink="http://www.w3.org/1999/xlink">
<g id="graph0" class="graph" transform="scale(1 1) rotate(0) translate(4 281.39)">
<title>dependencies</title>
<polygon fill="white" stroke="transparent" points="-4,4 -4,-281.39 1189,-281.39 1189,4 -4,4"/>
<text text-anchor="middle" x="592.5" y="-8.2" font-family="sans-serif" font-size="14.00">dependencies</text>
<g id="clust1" class="cluster">
<title>cluster_UnitAddressDetailsModule</title>
<polygon fill="none" stroke="black" stroke-dasharray="1,5" points="8,-32.8 8,-269.39 1177,-269.39 1177,-32.8 8,-32.8"/>
</g>
<g id="clust4" class="cluster">
<title>cluster_UnitAddressDetailsModule_imports</title>
<polygon fill="none" stroke="black" points="562,-152.39 562,-204.39 1169,-204.39 1169,-152.39 562,-152.39"/>
</g>
<g id="clust3" class="cluster">
<title>cluster_UnitAddressDetailsModule_UnitAddressDetailsComponent_providers</title>
<polygon fill="none" stroke="black" points="16,-40.8 16,-204.39 554,-204.39 554,-40.8 16,-40.8"/>
</g>
<!-- UnitAddressDetailsComponent -->
<g id="node1" class="node">
<title>UnitAddressDetailsComponent</title>
<polygon fill="#ffffb3" stroke="black" points="462.76,-196.39 271.24,-196.39 271.24,-160.39 462.76,-160.39 462.76,-196.39"/>
<text text-anchor="middle" x="367" y="-174.19" font-family="Times,serif" font-size="14.00">UnitAddressDetailsComponent</text>
</g>
<!-- UnitAddressDetailsModule -->
<g id="node2" class="node">
<title>UnitAddressDetailsModule</title>
<polygon fill="#8dd3c7" stroke="black" points="891.98,-261.39 888.98,-265.39 867.98,-265.39 864.98,-261.39 722.02,-261.39 722.02,-225.39 891.98,-225.39 891.98,-261.39"/>
<text text-anchor="middle" x="807" y="-239.19" font-family="Times,serif" font-size="14.00">UnitAddressDetailsModule</text>
</g>
<!-- UnitAddressDetailsComponent&#45;&gt;UnitAddressDetailsModule -->
<g id="edge1" class="edge">
<title>UnitAddressDetailsComponent&#45;&gt;UnitAddressDetailsModule</title>
<path fill="none" stroke="black" d="M367,-196.67C367,-217.71 367,-249.39 367,-249.39 367,-249.39 711.9,-249.39 711.9,-249.39"/>
<polygon fill="black" stroke="black" points="711.9,-252.89 721.9,-249.39 711.9,-245.89 711.9,-252.89"/>
</g>
<!-- {
 &#160;&#160;&#160;provide: ItemService, useExisting: UnitAddressItemService,
} -->
<g id="node3" class="node">
<title>{
 &#160;&#160;&#160;provide: ItemService, useExisting: UnitAddressItemService,
}</title>
<ellipse fill="#fdb462" stroke="black" cx="285" cy="-90.1" rx="261.44" ry="41.09"/>
<text text-anchor="middle" x="285" y="-102.7" font-family="Times,serif" font-size="14.00">{</text>
<text text-anchor="middle" x="285" y="-85.9" font-family="Times,serif" font-size="14.00"> &#160;&#160;&#160;provide: ItemService, useExisting: UnitAddressItemService,</text>
<text text-anchor="middle" x="285" y="-69.1" font-family="Times,serif" font-size="14.00">}</text>
</g>
<!-- {
 &#160;&#160;&#160;provide: ItemService, useExisting: UnitAddressItemService,
}&#45;&gt;UnitAddressDetailsComponent -->
<g id="edge2" class="edge">
<title>{
 &#160;&#160;&#160;provide: ItemService, useExisting: UnitAddressItemService,
}&#45;&gt;UnitAddressDetailsComponent</title>
<path fill="none" stroke="black" d="M367,-129.34C367,-129.34 367,-150.01 367,-150.01"/>
<polygon fill="black" stroke="black" points="363.5,-150.01 367,-160.01 370.5,-150.01 363.5,-150.01"/>
</g>
<!-- CardModule -->
<g id="node4" class="node">
<title>CardModule</title>
<polygon fill="#8dd3c7" stroke="black" points="1161.27,-196.39 1158.27,-200.39 1137.27,-200.39 1134.27,-196.39 1074.73,-196.39 1074.73,-160.39 1161.27,-160.39 1161.27,-196.39"/>
<text text-anchor="middle" x="1118" y="-174.19" font-family="Times,serif" font-size="14.00">CardModule</text>
</g>
<!-- CardModule&#45;&gt;UnitAddressDetailsModule -->
<g id="edge3" class="edge">
<title>CardModule&#45;&gt;UnitAddressDetailsModule</title>
<path fill="none" stroke="black" d="M1118,-196.67C1118,-217.71 1118,-249.39 1118,-249.39 1118,-249.39 901.98,-249.39 901.98,-249.39"/>
<polygon fill="black" stroke="black" points="901.98,-245.89 891.98,-249.39 901.98,-252.89 901.98,-245.89"/>
</g>
<!-- DeleteItemModule -->
<g id="node5" class="node">
<title>DeleteItemModule</title>
<polygon fill="#8dd3c7" stroke="black" points="1056.74,-196.39 1053.74,-200.39 1032.74,-200.39 1029.74,-196.39 935.26,-196.39 935.26,-160.39 1056.74,-160.39 1056.74,-196.39"/>
<text text-anchor="middle" x="996" y="-174.19" font-family="Times,serif" font-size="14.00">DeleteItemModule</text>
</g>
<!-- DeleteItemModule&#45;&gt;UnitAddressDetailsModule -->
<g id="edge4" class="edge">
<title>DeleteItemModule&#45;&gt;UnitAddressDetailsModule</title>
<path fill="none" stroke="black" d="M996,-196.41C996,-213.76 996,-237.39 996,-237.39 996,-237.39 902.1,-237.39 902.1,-237.39"/>
<polygon fill="black" stroke="black" points="902.1,-233.89 892.1,-237.39 902.1,-240.89 902.1,-233.89"/>
</g>
<!-- I18nModule -->
<g id="node6" class="node">
<title>I18nModule</title>
<polygon fill="#8dd3c7" stroke="black" points="917.71,-196.39 914.71,-200.39 893.71,-200.39 890.71,-196.39 832.29,-196.39 832.29,-160.39 917.71,-160.39 917.71,-196.39"/>
<text text-anchor="middle" x="875" y="-174.19" font-family="Times,serif" font-size="14.00">I18nModule</text>
</g>
<!-- I18nModule&#45;&gt;UnitAddressDetailsModule -->
<g id="edge5" class="edge">
<title>I18nModule&#45;&gt;UnitAddressDetailsModule</title>
<path fill="none" stroke="black" d="M862.19,-196.5C862.19,-196.5 862.19,-215.38 862.19,-215.38"/>
<polygon fill="black" stroke="black" points="858.69,-215.38 862.19,-225.38 865.69,-215.38 858.69,-215.38"/>
</g>
<!-- KeyboardFocusModule -->
<g id="node7" class="node">
<title>KeyboardFocusModule</title>
<polygon fill="#8dd3c7" stroke="black" points="814.2,-196.39 811.2,-200.39 790.2,-200.39 787.2,-196.39 665.8,-196.39 665.8,-160.39 814.2,-160.39 814.2,-196.39"/>
<text text-anchor="middle" x="740" y="-174.19" font-family="Times,serif" font-size="14.00">KeyboardFocusModule</text>
</g>
<!-- KeyboardFocusModule&#45;&gt;UnitAddressDetailsModule -->
<g id="edge6" class="edge">
<title>KeyboardFocusModule&#45;&gt;UnitAddressDetailsModule</title>
<path fill="none" stroke="black" d="M768.06,-196.5C768.06,-196.5 768.06,-215.38 768.06,-215.38"/>
<polygon fill="black" stroke="black" points="764.56,-215.38 768.06,-225.38 771.56,-215.38 764.56,-215.38"/>
</g>
<!-- UrlModule -->
<g id="node8" class="node">
<title>UrlModule</title>
<polygon fill="#8dd3c7" stroke="black" points="648.21,-196.39 645.21,-200.39 624.21,-200.39 621.21,-196.39 569.79,-196.39 569.79,-160.39 648.21,-160.39 648.21,-196.39"/>
<text text-anchor="middle" x="609" y="-174.19" font-family="Times,serif" font-size="14.00">UrlModule</text>
</g>
<!-- UrlModule&#45;&gt;UnitAddressDetailsModule -->
<g id="edge7" class="edge">
<title>UrlModule&#45;&gt;UnitAddressDetailsModule</title>
<path fill="none" stroke="black" d="M609,-196.41C609,-213.76 609,-237.39 609,-237.39 609,-237.39 711.88,-237.39 711.88,-237.39"/>
<polygon fill="black" stroke="black" points="711.88,-240.89 721.88,-237.39 711.88,-233.89 711.88,-240.89"/>
</g>
</g>
</svg>
