<?xml version="1.0" encoding="UTF-8" standalone="no"?>
<!DOCTYPE svg PUBLIC "-//W3C//DTD SVG 1.1//EN"
 "http://www.w3.org/Graphics/SVG/1.1/DTD/svg11.dtd">
<!-- Generated by graphviz version 5.0.0 (20220707.1540)
 -->
<!-- Title: dependencies Pages: 1 -->
<svg width="827pt" height="247pt"
 viewBox="0.00 0.00 827.00 246.80" xmlns="http://www.w3.org/2000/svg" xmlns:xlink="http://www.w3.org/1999/xlink">
<g id="graph0" class="graph" transform="scale(1 1) rotate(0) translate(4 242.8)">
<title>dependencies</title>
<polygon fill="white" stroke="transparent" points="-4,4 -4,-242.8 823,-242.8 823,4 -4,4"/>
<text text-anchor="middle" x="409.5" y="-8.2" font-family="sans-serif" font-size="14.00">dependencies</text>
<g id="clust1" class="cluster">
<title>cluster_ReplenishmentOrderHistoryModule</title>
<polygon fill="none" stroke="black" stroke-dasharray="1,5" points="8,-32.8 8,-230.8 811,-230.8 811,-32.8 8,-32.8"/>
</g>
<g id="clust4" class="cluster">
<title>cluster_ReplenishmentOrderHistoryModule_imports</title>
<polygon fill="none" stroke="black" points="280,-40.8 280,-92.8 803,-92.8 803,-40.8 280,-40.8"/>
</g>
<g id="clust2" class="cluster">
<title>cluster_ReplenishmentOrderHistoryModule_declarations</title>
<polygon fill="none" stroke="black" points="16,-40.8 16,-92.8 272,-92.8 272,-40.8 16,-40.8"/>
</g>
<g id="clust5" class="cluster">
<title>cluster_ReplenishmentOrderHistoryModule_exports</title>
<polygon fill="none" stroke="black" points="326,-170.8 326,-222.8 586,-222.8 586,-170.8 326,-170.8"/>
</g>
<!-- ReplenishmentOrderHistoryComponent -->
<g id="node1" class="node">
<title>ReplenishmentOrderHistoryComponent</title>
<polygon fill="#ffffb3" stroke="black" points="263.97,-84.8 24.03,-84.8 24.03,-48.8 263.97,-48.8 263.97,-84.8"/>
<text text-anchor="middle" x="144" y="-62.6" font-family="Times,serif" font-size="14.00">ReplenishmentOrderHistoryComponent</text>
</g>
<!-- ReplenishmentOrderHistoryModule -->
<g id="node2" class="node">
<title>ReplenishmentOrderHistoryModule</title>
<polygon fill="#8dd3c7" stroke="black" points="565.19,-149.8 562.19,-153.8 541.19,-153.8 538.19,-149.8 346.81,-149.8 346.81,-113.8 565.19,-113.8 565.19,-149.8"/>
<text text-anchor="middle" x="456" y="-127.6" font-family="Times,serif" font-size="14.00">ReplenishmentOrderHistoryModule</text>
</g>
<!-- ReplenishmentOrderHistoryComponent&#45;&gt;ReplenishmentOrderHistoryModule -->
<g id="edge1" class="edge">
<title>ReplenishmentOrderHistoryComponent&#45;&gt;ReplenishmentOrderHistoryModule</title>
<path fill="none" stroke="black" d="M144,-84.91C144,-104.14 144,-131.8 144,-131.8 144,-131.8 336.88,-131.8 336.88,-131.8"/>
<polygon fill="black" stroke="black" points="336.88,-135.3 346.88,-131.8 336.88,-128.3 336.88,-135.3"/>
</g>
<!-- ReplenishmentOrderHistoryComponent  -->
<g id="node7" class="node">
<title>ReplenishmentOrderHistoryComponent </title>
<polygon fill="#fb8072" stroke="black" points="577.97,-214.8 334.03,-214.8 334.03,-178.8 577.97,-178.8 577.97,-214.8"/>
<text text-anchor="middle" x="456" y="-192.6" font-family="Times,serif" font-size="14.00">ReplenishmentOrderHistoryComponent </text>
</g>
<!-- ReplenishmentOrderHistoryModule&#45;&gt;ReplenishmentOrderHistoryComponent  -->
<g id="edge6" class="edge">
<title>ReplenishmentOrderHistoryModule&#45;&gt;ReplenishmentOrderHistoryComponent </title>
<path fill="none" stroke="black" stroke-dasharray="5,2" d="M456,-149.91C456,-149.91 456,-168.79 456,-168.79"/>
<polygon fill="black" stroke="black" points="452.5,-168.79 456,-178.79 459.5,-168.79 452.5,-168.79"/>
</g>
<!-- FeaturesConfigModule -->
<g id="node3" class="node">
<title>FeaturesConfigModule</title>
<polygon fill="#8dd3c7" stroke="black" points="794.87,-84.8 791.87,-88.8 770.87,-88.8 767.87,-84.8 649.13,-84.8 649.13,-48.8 794.87,-48.8 794.87,-84.8"/>
<text text-anchor="middle" x="722" y="-62.6" font-family="Times,serif" font-size="14.00">FeaturesConfigModule</text>
</g>
<!-- FeaturesConfigModule&#45;&gt;ReplenishmentOrderHistoryModule -->
<g id="edge2" class="edge">
<title>FeaturesConfigModule&#45;&gt;ReplenishmentOrderHistoryModule</title>
<path fill="none" stroke="black" d="M722,-84.91C722,-104.14 722,-131.8 722,-131.8 722,-131.8 575.34,-131.8 575.34,-131.8"/>
<polygon fill="black" stroke="black" points="575.34,-128.3 565.34,-131.8 575.34,-135.3 575.34,-128.3"/>
</g>
<!-- I18nModule -->
<g id="node4" class="node">
<title>I18nModule</title>
<polygon fill="#8dd3c7" stroke="black" points="630.71,-84.8 627.71,-88.8 606.71,-88.8 603.71,-84.8 545.29,-84.8 545.29,-48.8 630.71,-48.8 630.71,-84.8"/>
<text text-anchor="middle" x="588" y="-62.6" font-family="Times,serif" font-size="14.00">I18nModule</text>
</g>
<!-- I18nModule&#45;&gt;ReplenishmentOrderHistoryModule -->
<g id="edge3" class="edge">
<title>I18nModule&#45;&gt;ReplenishmentOrderHistoryModule</title>
<path fill="none" stroke="black" d="M555.24,-84.91C555.24,-84.91 555.24,-103.79 555.24,-103.79"/>
<polygon fill="black" stroke="black" points="551.74,-103.79 555.24,-113.79 558.74,-103.79 551.74,-103.79"/>
</g>
<!-- ListNavigationModule -->
<g id="node5" class="node">
<title>ListNavigationModule</title>
<polygon fill="#8dd3c7" stroke="black" points="527.54,-84.8 524.54,-88.8 503.54,-88.8 500.54,-84.8 384.46,-84.8 384.46,-48.8 527.54,-48.8 527.54,-84.8"/>
<text text-anchor="middle" x="456" y="-62.6" font-family="Times,serif" font-size="14.00">ListNavigationModule</text>
</g>
<!-- ListNavigationModule&#45;&gt;ReplenishmentOrderHistoryModule -->
<g id="edge4" class="edge">
<title>ListNavigationModule&#45;&gt;ReplenishmentOrderHistoryModule</title>
<path fill="none" stroke="black" d="M456,-84.91C456,-84.91 456,-103.79 456,-103.79"/>
<polygon fill="black" stroke="black" points="452.5,-103.79 456,-113.79 459.5,-103.79 452.5,-103.79"/>
</g>
<!-- UrlModule -->
<g id="node6" class="node">
<title>UrlModule</title>
<polygon fill="#8dd3c7" stroke="black" points="366.21,-84.8 363.21,-88.8 342.21,-88.8 339.21,-84.8 287.79,-84.8 287.79,-48.8 366.21,-48.8 366.21,-84.8"/>
<text text-anchor="middle" x="327" y="-62.6" font-family="Times,serif" font-size="14.00">UrlModule</text>
</g>
<!-- UrlModule&#45;&gt;ReplenishmentOrderHistoryModule -->
<g id="edge5" class="edge">
<title>UrlModule&#45;&gt;ReplenishmentOrderHistoryModule</title>
<path fill="none" stroke="black" d="M356.51,-84.91C356.51,-84.91 356.51,-103.79 356.51,-103.79"/>
<polygon fill="black" stroke="black" points="353.01,-103.79 356.51,-113.79 360.01,-103.79 353.01,-103.79"/>
</g>
</g>
</svg>
