<?xml version="1.0" encoding="UTF-8" standalone="no"?>
<!DOCTYPE svg PUBLIC "-//W3C//DTD SVG 1.1//EN"
 "http://www.w3.org/Graphics/SVG/1.1/DTD/svg11.dtd">
<!-- Generated by graphviz version 5.0.0 (20220707.1540)
 -->
<!-- Title: dependencies Pages: 1 -->
<svg width="827pt" height="247pt"
 viewBox="0.00 0.00 827.00 246.80" xmlns="http://www.w3.org/2000/svg" xmlns:xlink="http://www.w3.org/1999/xlink">
<g id="graph0" class="graph" transform="scale(1 1) rotate(0) translate(4 242.8)">
<title>dependencies</title>
<polygon fill="white" stroke="transparent" points="-4,4 -4,-242.8 823,-242.8 823,4 -4,4"/>
<text text-anchor="middle" x="409.5" y="-8.2" font-family="sans-serif" font-size="14.00">dependencies</text>
<g id="clust1" class="cluster">
<title>cluster_ReplenishmentOrderHistoryModule</title>
<polygon fill="none" stroke="black" stroke-dasharray="1,5" points="8,-32.8 8,-230.8 811,-230.8 811,-32.8 8,-32.8"/>
</g>
<g id="clust2" class="cluster">
<title>cluster_ReplenishmentOrderHistoryModule_declarations</title>
<polygon fill="none" stroke="black" points="547,-40.8 547,-92.8 803,-92.8 803,-40.8 547,-40.8"/>
</g>
<g id="clust4" class="cluster">
<title>cluster_ReplenishmentOrderHistoryModule_imports</title>
<polygon fill="none" stroke="black" points="16,-40.8 16,-92.8 539,-92.8 539,-40.8 16,-40.8"/>
</g>
<g id="clust5" class="cluster">
<title>cluster_ReplenishmentOrderHistoryModule_exports</title>
<polygon fill="none" stroke="black" points="194,-170.8 194,-222.8 454,-222.8 454,-170.8 194,-170.8"/>
</g>
<!-- ReplenishmentOrderHistoryComponent -->
<g id="node1" class="node">
<title>ReplenishmentOrderHistoryComponent</title>
<polygon fill="#ffffb3" stroke="black" points="794.97,-84.8 555.03,-84.8 555.03,-48.8 794.97,-48.8 794.97,-84.8"/>
<text text-anchor="middle" x="675" y="-62.6" font-family="Times,serif" font-size="14.00">ReplenishmentOrderHistoryComponent</text>
</g>
<!-- ReplenishmentOrderHistoryModule -->
<g id="node2" class="node">
<title>ReplenishmentOrderHistoryModule</title>
<polygon fill="#8dd3c7" stroke="black" points="433.19,-149.8 430.19,-153.8 409.19,-153.8 406.19,-149.8 214.81,-149.8 214.81,-113.8 433.19,-113.8 433.19,-149.8"/>
<text text-anchor="middle" x="324" y="-127.6" font-family="Times,serif" font-size="14.00">ReplenishmentOrderHistoryModule</text>
</g>
<!-- ReplenishmentOrderHistoryComponent&#45;&gt;ReplenishmentOrderHistoryModule -->
<g id="edge1" class="edge">
<title>ReplenishmentOrderHistoryComponent&#45;&gt;ReplenishmentOrderHistoryModule</title>
<path fill="none" stroke="black" d="M675,-84.91C675,-104.14 675,-131.8 675,-131.8 675,-131.8 443.13,-131.8 443.13,-131.8"/>
<polygon fill="black" stroke="black" points="443.13,-128.3 433.13,-131.8 443.13,-135.3 443.13,-128.3"/>
</g>
<!-- ReplenishmentOrderHistoryComponent  -->
<g id="node7" class="node">
<title>ReplenishmentOrderHistoryComponent </title>
<polygon fill="#fb8072" stroke="black" points="445.97,-214.8 202.03,-214.8 202.03,-178.8 445.97,-178.8 445.97,-214.8"/>
<text text-anchor="middle" x="324" y="-192.6" font-family="Times,serif" font-size="14.00">ReplenishmentOrderHistoryComponent </text>
</g>
<!-- ReplenishmentOrderHistoryModule&#45;&gt;ReplenishmentOrderHistoryComponent  -->
<g id="edge6" class="edge">
<title>ReplenishmentOrderHistoryModule&#45;&gt;ReplenishmentOrderHistoryComponent </title>
<path fill="none" stroke="black" stroke-dasharray="5,2" d="M324,-149.91C324,-149.91 324,-168.79 324,-168.79"/>
<polygon fill="black" stroke="black" points="320.5,-168.79 324,-178.79 327.5,-168.79 320.5,-168.79"/>
</g>
<!-- FeaturesConfigModule -->
<g id="node3" class="node">
<title>FeaturesConfigModule</title>
<polygon fill="#8dd3c7" stroke="black" points="530.87,-84.8 527.87,-88.8 506.87,-88.8 503.87,-84.8 385.13,-84.8 385.13,-48.8 530.87,-48.8 530.87,-84.8"/>
<text text-anchor="middle" x="458" y="-62.6" font-family="Times,serif" font-size="14.00">FeaturesConfigModule</text>
</g>
<!-- FeaturesConfigModule&#45;&gt;ReplenishmentOrderHistoryModule -->
<g id="edge2" class="edge">
<title>FeaturesConfigModule&#45;&gt;ReplenishmentOrderHistoryModule</title>
<path fill="none" stroke="black" d="M409.08,-84.91C409.08,-84.91 409.08,-103.79 409.08,-103.79"/>
<polygon fill="black" stroke="black" points="405.58,-103.79 409.08,-113.79 412.58,-103.79 405.58,-103.79"/>
</g>
<!-- I18nModule -->
<g id="node4" class="node">
<title>I18nModule</title>
<polygon fill="#8dd3c7" stroke="black" points="366.71,-84.8 363.71,-88.8 342.71,-88.8 339.71,-84.8 281.29,-84.8 281.29,-48.8 366.71,-48.8 366.71,-84.8"/>
<text text-anchor="middle" x="324" y="-62.6" font-family="Times,serif" font-size="14.00">I18nModule</text>
</g>
<!-- I18nModule&#45;&gt;ReplenishmentOrderHistoryModule -->
<g id="edge3" class="edge">
<title>I18nModule&#45;&gt;ReplenishmentOrderHistoryModule</title>
<path fill="none" stroke="black" d="M324,-84.91C324,-84.91 324,-103.79 324,-103.79"/>
<polygon fill="black" stroke="black" points="320.5,-103.79 324,-113.79 327.5,-103.79 320.5,-103.79"/>
</g>
<!-- ListNavigationModule -->
<g id="node5" class="node">
<title>ListNavigationModule</title>
<polygon fill="#8dd3c7" stroke="black" points="263.54,-84.8 260.54,-88.8 239.54,-88.8 236.54,-84.8 120.46,-84.8 120.46,-48.8 263.54,-48.8 263.54,-84.8"/>
<text text-anchor="middle" x="192" y="-62.6" font-family="Times,serif" font-size="14.00">ListNavigationModule</text>
</g>
<!-- ListNavigationModule&#45;&gt;ReplenishmentOrderHistoryModule -->
<g id="edge4" class="edge">
<title>ListNavigationModule&#45;&gt;ReplenishmentOrderHistoryModule</title>
<path fill="none" stroke="black" d="M239.34,-84.91C239.34,-84.91 239.34,-103.79 239.34,-103.79"/>
<polygon fill="black" stroke="black" points="235.84,-103.79 239.34,-113.79 242.84,-103.79 235.84,-103.79"/>
</g>
<!-- UrlModule -->
<g id="node6" class="node">
<title>UrlModule</title>
<polygon fill="#8dd3c7" stroke="black" points="102.21,-84.8 99.21,-88.8 78.21,-88.8 75.21,-84.8 23.79,-84.8 23.79,-48.8 102.21,-48.8 102.21,-84.8"/>
<text text-anchor="middle" x="63" y="-62.6" font-family="Times,serif" font-size="14.00">UrlModule</text>
</g>
<!-- UrlModule&#45;&gt;ReplenishmentOrderHistoryModule -->
<g id="edge5" class="edge">
<title>UrlModule&#45;&gt;ReplenishmentOrderHistoryModule</title>
<path fill="none" stroke="black" d="M63,-84.91C63,-104.14 63,-131.8 63,-131.8 63,-131.8 204.82,-131.8 204.82,-131.8"/>
<polygon fill="black" stroke="black" points="204.82,-135.3 214.82,-131.8 204.82,-128.3 204.82,-135.3"/>
</g>
</g>
</svg>
