<?xml version="1.0" encoding="UTF-8" standalone="no"?>
<!DOCTYPE svg PUBLIC "-//W3C//DTD SVG 1.1//EN"
 "http://www.w3.org/Graphics/SVG/1.1/DTD/svg11.dtd">
<!-- Generated by graphviz version 5.0.0 (20220707.1540)
 -->
<!-- Title: dependencies Pages: 1 -->
<svg width="1773pt" height="247pt"
 viewBox="0.00 0.00 1773.00 246.80" xmlns="http://www.w3.org/2000/svg" xmlns:xlink="http://www.w3.org/1999/xlink">
<g id="graph0" class="graph" transform="scale(1 1) rotate(0) translate(4 242.8)">
<title>dependencies</title>
<polygon fill="white" stroke="transparent" points="-4,4 -4,-242.8 1769,-242.8 1769,4 -4,4"/>
<text text-anchor="middle" x="882.5" y="-8.2" font-family="sans-serif" font-size="14.00">dependencies</text>
<g id="clust1" class="cluster">
<title>cluster_SavedCartDetailsModule</title>
<polygon fill="none" stroke="black" stroke-dasharray="1,5" points="8,-32.8 8,-230.8 1757,-230.8 1757,-32.8 8,-32.8"/>
</g>
<g id="clust6" class="cluster">
<title>cluster_SavedCartDetailsModule_imports</title>
<polygon fill="none" stroke="black" points="738,-40.8 738,-92.8 1749,-92.8 1749,-40.8 738,-40.8"/>
</g>
<g id="clust2" class="cluster">
<title>cluster_SavedCartDetailsModule_declarations</title>
<polygon fill="none" stroke="black" points="16,-40.8 16,-92.8 730,-92.8 730,-40.8 16,-40.8"/>
</g>
<g id="clust7" class="cluster">
<title>cluster_SavedCartDetailsModule_exports</title>
<polygon fill="none" stroke="black" points="696,-170.8 696,-222.8 1420,-222.8 1420,-170.8 696,-170.8"/>
</g>
<!-- SavedCartDetailsActionComponent -->
<g id="node1" class="node">
<title>SavedCartDetailsActionComponent</title>
<polygon fill="#ffffb3" stroke="black" points="721.91,-84.8 504.09,-84.8 504.09,-48.8 721.91,-48.8 721.91,-84.8"/>
<text text-anchor="middle" x="613" y="-62.6" font-family="Times,serif" font-size="14.00">SavedCartDetailsActionComponent</text>
</g>
<!-- SavedCartDetailsModule -->
<g id="node4" class="node">
<title>SavedCartDetailsModule</title>
<polygon fill="#8dd3c7" stroke="black" points="1145.53,-149.8 1142.53,-153.8 1121.53,-153.8 1118.53,-149.8 988.47,-149.8 988.47,-113.8 1145.53,-113.8 1145.53,-149.8"/>
<text text-anchor="middle" x="1067" y="-127.6" font-family="Times,serif" font-size="14.00">SavedCartDetailsModule</text>
</g>
<!-- SavedCartDetailsActionComponent&#45;&gt;SavedCartDetailsModule -->
<g id="edge1" class="edge">
<title>SavedCartDetailsActionComponent&#45;&gt;SavedCartDetailsModule</title>
<path fill="none" stroke="black" d="M712.85,-85.02C712.85,-103.63 712.85,-129.8 712.85,-129.8 712.85,-129.8 978.4,-129.8 978.4,-129.8"/>
<polygon fill="black" stroke="black" points="978.4,-133.3 988.4,-129.8 978.4,-126.3 978.4,-133.3"/>
</g>
<!-- SavedCartDetailsItemsComponent -->
<g id="node2" class="node">
<title>SavedCartDetailsItemsComponent</title>
<polygon fill="#ffffb3" stroke="black" points="486.41,-84.8 275.59,-84.8 275.59,-48.8 486.41,-48.8 486.41,-84.8"/>
<text text-anchor="middle" x="381" y="-62.6" font-family="Times,serif" font-size="14.00">SavedCartDetailsItemsComponent</text>
</g>
<!-- SavedCartDetailsItemsComponent&#45;&gt;SavedCartDetailsModule -->
<g id="edge2" class="edge">
<title>SavedCartDetailsItemsComponent&#45;&gt;SavedCartDetailsModule</title>
<path fill="none" stroke="black" d="M381,-85.02C381,-105.17 381,-134.8 381,-134.8 381,-134.8 978.31,-134.8 978.31,-134.8"/>
<polygon fill="black" stroke="black" points="978.31,-138.3 988.31,-134.8 978.31,-131.3 978.31,-138.3"/>
</g>
<!-- SavedCartDetailsOverviewComponent -->
<g id="node3" class="node">
<title>SavedCartDetailsOverviewComponent</title>
<polygon fill="#ffffb3" stroke="black" points="258,-84.8 24,-84.8 24,-48.8 258,-48.8 258,-84.8"/>
<text text-anchor="middle" x="141" y="-62.6" font-family="Times,serif" font-size="14.00">SavedCartDetailsOverviewComponent</text>
</g>
<!-- SavedCartDetailsOverviewComponent&#45;&gt;SavedCartDetailsModule -->
<g id="edge3" class="edge">
<title>SavedCartDetailsOverviewComponent&#45;&gt;SavedCartDetailsModule</title>
<path fill="none" stroke="black" d="M141,-84.84C141,-106.46 141,-139.8 141,-139.8 141,-139.8 978.45,-139.8 978.45,-139.8"/>
<polygon fill="black" stroke="black" points="978.45,-143.3 988.45,-139.8 978.45,-136.3 978.45,-143.3"/>
</g>
<!-- SavedCartDetailsActionComponent  -->
<g id="node14" class="node">
<title>SavedCartDetailsActionComponent </title>
<polygon fill="#fb8072" stroke="black" points="1412.41,-214.8 1191.59,-214.8 1191.59,-178.8 1412.41,-178.8 1412.41,-214.8"/>
<text text-anchor="middle" x="1302" y="-192.6" font-family="Times,serif" font-size="14.00">SavedCartDetailsActionComponent </text>
</g>
<!-- SavedCartDetailsModule&#45;&gt;SavedCartDetailsActionComponent  -->
<g id="edge13" class="edge">
<title>SavedCartDetailsModule&#45;&gt;SavedCartDetailsActionComponent </title>
<path fill="none" stroke="black" stroke-dasharray="5,2" d="M1145.72,-144.8C1182.84,-144.8 1219.1,-144.8 1219.1,-144.8 1219.1,-144.8 1219.1,-168.61 1219.1,-168.61"/>
<polygon fill="black" stroke="black" points="1215.6,-168.61 1219.1,-178.61 1222.6,-168.61 1215.6,-168.61"/>
</g>
<!-- SavedCartDetailsItemsComponent  -->
<g id="node15" class="node">
<title>SavedCartDetailsItemsComponent </title>
<polygon fill="#fb8072" stroke="black" points="1173.91,-214.8 960.09,-214.8 960.09,-178.8 1173.91,-178.8 1173.91,-214.8"/>
<text text-anchor="middle" x="1067" y="-192.6" font-family="Times,serif" font-size="14.00">SavedCartDetailsItemsComponent </text>
</g>
<!-- SavedCartDetailsModule&#45;&gt;SavedCartDetailsItemsComponent  -->
<g id="edge14" class="edge">
<title>SavedCartDetailsModule&#45;&gt;SavedCartDetailsItemsComponent </title>
<path fill="none" stroke="black" stroke-dasharray="5,2" d="M1067,-149.91C1067,-149.91 1067,-168.79 1067,-168.79"/>
<polygon fill="black" stroke="black" points="1063.5,-168.79 1067,-178.79 1070.5,-168.79 1063.5,-168.79"/>
</g>
<!-- SavedCartDetailsOverviewComponent  -->
<g id="node16" class="node">
<title>SavedCartDetailsOverviewComponent </title>
<polygon fill="#fb8072" stroke="black" points="942,-214.8 704,-214.8 704,-178.8 942,-178.8 942,-214.8"/>
<text text-anchor="middle" x="823" y="-192.6" font-family="Times,serif" font-size="14.00">SavedCartDetailsOverviewComponent </text>
</g>
<!-- SavedCartDetailsModule&#45;&gt;SavedCartDetailsOverviewComponent  -->
<g id="edge15" class="edge">
<title>SavedCartDetailsModule&#45;&gt;SavedCartDetailsOverviewComponent </title>
<path fill="none" stroke="black" stroke-dasharray="5,2" d="M988.34,-144.8C935.55,-144.8 875.63,-144.8 875.63,-144.8 875.63,-144.8 875.63,-168.61 875.63,-168.61"/>
<polygon fill="black" stroke="black" points="872.13,-168.61 875.63,-178.61 879.13,-168.61 872.13,-168.61"/>
</g>
<!-- AddToCartModule -->
<g id="node5" class="node">
<title>AddToCartModule</title>
<polygon fill="#8dd3c7" stroke="black" points="1740.82,-84.8 1737.82,-88.8 1716.82,-88.8 1713.82,-84.8 1617.18,-84.8 1617.18,-48.8 1740.82,-48.8 1740.82,-84.8"/>
<text text-anchor="middle" x="1679" y="-62.6" font-family="Times,serif" font-size="14.00">AddToCartModule</text>
</g>
<!-- AddToCartModule&#45;&gt;SavedCartDetailsModule -->
<g id="edge4" class="edge">
<title>AddToCartModule&#45;&gt;SavedCartDetailsModule</title>
<path fill="none" stroke="black" d="M1679,-84.84C1679,-106.46 1679,-139.8 1679,-139.8 1679,-139.8 1155.76,-139.8 1155.76,-139.8"/>
<polygon fill="black" stroke="black" points="1155.76,-136.3 1145.76,-139.8 1155.76,-143.3 1155.76,-136.3"/>
</g>
<!-- CardModule -->
<g id="node6" class="node">
<title>CardModule</title>
<polygon fill="#8dd3c7" stroke="black" points="1599.27,-84.8 1596.27,-88.8 1575.27,-88.8 1572.27,-84.8 1512.73,-84.8 1512.73,-48.8 1599.27,-48.8 1599.27,-84.8"/>
<text text-anchor="middle" x="1556" y="-62.6" font-family="Times,serif" font-size="14.00">CardModule</text>
</g>
<!-- CardModule&#45;&gt;SavedCartDetailsModule -->
<g id="edge5" class="edge">
<title>CardModule&#45;&gt;SavedCartDetailsModule</title>
<path fill="none" stroke="black" d="M1556,-85.02C1556,-105.17 1556,-134.8 1556,-134.8 1556,-134.8 1155.57,-134.8 1155.57,-134.8"/>
<polygon fill="black" stroke="black" points="1155.57,-131.3 1145.57,-134.8 1155.57,-138.3 1155.57,-131.3"/>
</g>
<!-- ConfigModule -->
<g id="node7" class="node">
<title>ConfigModule</title>
<polygon fill="#8dd3c7" stroke="black" points="1494.44,-84.8 1491.44,-88.8 1470.44,-88.8 1467.44,-84.8 1395.56,-84.8 1395.56,-48.8 1494.44,-48.8 1494.44,-84.8"/>
<text text-anchor="middle" x="1445" y="-62.6" font-family="Times,serif" font-size="14.00">ConfigModule</text>
</g>
<!-- ConfigModule&#45;&gt;SavedCartDetailsModule -->
<g id="edge6" class="edge">
<title>ConfigModule&#45;&gt;SavedCartDetailsModule</title>
<path fill="none" stroke="black" d="M1404.12,-85.02C1404.12,-103.63 1404.12,-129.8 1404.12,-129.8 1404.12,-129.8 1155.61,-129.8 1155.61,-129.8"/>
<polygon fill="black" stroke="black" points="1155.61,-126.3 1145.61,-129.8 1155.61,-133.3 1155.61,-126.3"/>
</g>
<!-- I18nModule -->
<g id="node8" class="node">
<title>I18nModule</title>
<polygon fill="#8dd3c7" stroke="black" points="1377.71,-84.8 1374.71,-88.8 1353.71,-88.8 1350.71,-84.8 1292.29,-84.8 1292.29,-48.8 1377.71,-48.8 1377.71,-84.8"/>
<text text-anchor="middle" x="1335" y="-62.6" font-family="Times,serif" font-size="14.00">I18nModule</text>
</g>
<!-- I18nModule&#45;&gt;SavedCartDetailsModule -->
<g id="edge7" class="edge">
<title>I18nModule&#45;&gt;SavedCartDetailsModule</title>
<path fill="none" stroke="black" d="M1335,-84.83C1335,-101.86 1335,-124.8 1335,-124.8 1335,-124.8 1155.6,-124.8 1155.6,-124.8"/>
<polygon fill="black" stroke="black" points="1155.6,-121.3 1145.6,-124.8 1155.6,-128.3 1155.6,-121.3"/>
</g>
<!-- IconModule -->
<g id="node9" class="node">
<title>IconModule</title>
<polygon fill="#8dd3c7" stroke="black" points="1274.43,-84.8 1271.43,-88.8 1250.43,-88.8 1247.43,-84.8 1189.57,-84.8 1189.57,-48.8 1274.43,-48.8 1274.43,-84.8"/>
<text text-anchor="middle" x="1232" y="-62.6" font-family="Times,serif" font-size="14.00">IconModule</text>
</g>
<!-- IconModule&#45;&gt;SavedCartDetailsModule -->
<g id="edge8" class="edge">
<title>IconModule&#45;&gt;SavedCartDetailsModule</title>
<path fill="none" stroke="black" d="M1246.66,-85.04C1246.66,-100.37 1246.66,-119.8 1246.66,-119.8 1246.66,-119.8 1155.54,-119.8 1155.54,-119.8"/>
<polygon fill="black" stroke="black" points="1155.54,-116.3 1145.54,-119.8 1155.54,-123.3 1155.54,-116.3"/>
</g>
<!-- MediaModule -->
<g id="node10" class="node">
<title>MediaModule</title>
<polygon fill="#8dd3c7" stroke="black" points="1171.82,-84.8 1168.82,-88.8 1147.82,-88.8 1144.82,-84.8 1076.18,-84.8 1076.18,-48.8 1171.82,-48.8 1171.82,-84.8"/>
<text text-anchor="middle" x="1124" y="-62.6" font-family="Times,serif" font-size="14.00">MediaModule</text>
</g>
<!-- MediaModule&#45;&gt;SavedCartDetailsModule -->
<g id="edge9" class="edge">
<title>MediaModule&#45;&gt;SavedCartDetailsModule</title>
<path fill="none" stroke="black" d="M1111.05,-84.91C1111.05,-84.91 1111.05,-103.79 1111.05,-103.79"/>
<polygon fill="black" stroke="black" points="1107.55,-103.79 1111.05,-113.79 1114.55,-103.79 1107.55,-103.79"/>
</g>
<!-- OutletModule -->
<g id="node11" class="node">
<title>OutletModule</title>
<polygon fill="#8dd3c7" stroke="black" points="1058.05,-84.8 1055.05,-88.8 1034.05,-88.8 1031.05,-84.8 963.95,-84.8 963.95,-48.8 1058.05,-48.8 1058.05,-84.8"/>
<text text-anchor="middle" x="1011" y="-62.6" font-family="Times,serif" font-size="14.00">OutletModule</text>
</g>
<!-- OutletModule&#45;&gt;SavedCartDetailsModule -->
<g id="edge10" class="edge">
<title>OutletModule&#45;&gt;SavedCartDetailsModule</title>
<path fill="none" stroke="black" d="M1023.26,-84.91C1023.26,-84.91 1023.26,-103.79 1023.26,-103.79"/>
<polygon fill="black" stroke="black" points="1019.76,-103.79 1023.26,-113.79 1026.76,-103.79 1019.76,-103.79"/>
</g>
<!-- SpinnerModule -->
<g id="node12" class="node">
<title>SpinnerModule</title>
<polygon fill="#8dd3c7" stroke="black" points="945.6,-84.8 942.6,-88.8 921.6,-88.8 918.6,-84.8 842.4,-84.8 842.4,-48.8 945.6,-48.8 945.6,-84.8"/>
<text text-anchor="middle" x="894" y="-62.6" font-family="Times,serif" font-size="14.00">SpinnerModule</text>
</g>
<!-- SpinnerModule&#45;&gt;SavedCartDetailsModule -->
<g id="edge11" class="edge">
<title>SpinnerModule&#45;&gt;SavedCartDetailsModule</title>
<path fill="none" stroke="black" d="M908.82,-85.04C908.82,-100.37 908.82,-119.8 908.82,-119.8 908.82,-119.8 978.37,-119.8 978.37,-119.8"/>
<polygon fill="black" stroke="black" points="978.37,-123.3 988.37,-119.8 978.37,-116.3 978.37,-123.3"/>
</g>
<!-- UrlModule -->
<g id="node13" class="node">
<title>UrlModule</title>
<polygon fill="#8dd3c7" stroke="black" points="824.21,-84.8 821.21,-88.8 800.21,-88.8 797.21,-84.8 745.79,-84.8 745.79,-48.8 824.21,-48.8 824.21,-84.8"/>
<text text-anchor="middle" x="785" y="-62.6" font-family="Times,serif" font-size="14.00">UrlModule</text>
</g>
<!-- UrlModule&#45;&gt;SavedCartDetailsModule -->
<g id="edge12" class="edge">
<title>UrlModule&#45;&gt;SavedCartDetailsModule</title>
<path fill="none" stroke="black" d="M785,-84.83C785,-101.86 785,-124.8 785,-124.8 785,-124.8 978.45,-124.8 978.45,-124.8"/>
<polygon fill="black" stroke="black" points="978.45,-128.3 988.45,-124.8 978.45,-121.3 978.45,-128.3"/>
</g>
</g>
</svg>
