<?xml version="1.0" encoding="UTF-8" standalone="no"?>
<!DOCTYPE svg PUBLIC "-//W3C//DTD SVG 1.1//EN"
 "http://www.w3.org/Graphics/SVG/1.1/DTD/svg11.dtd">
<!-- Generated by graphviz version 5.0.0 (20220707.1540)
 -->
<!-- Title: dependencies Pages: 1 -->
<svg width="1773pt" height="247pt"
 viewBox="0.00 0.00 1773.00 246.80" xmlns="http://www.w3.org/2000/svg" xmlns:xlink="http://www.w3.org/1999/xlink">
<g id="graph0" class="graph" transform="scale(1 1) rotate(0) translate(4 242.8)">
<title>dependencies</title>
<polygon fill="white" stroke="transparent" points="-4,4 -4,-242.8 1769,-242.8 1769,4 -4,4"/>
<text text-anchor="middle" x="882.5" y="-8.2" font-family="sans-serif" font-size="14.00">dependencies</text>
<g id="clust1" class="cluster">
<title>cluster_SavedCartDetailsModule</title>
<polygon fill="none" stroke="black" stroke-dasharray="1,5" points="8,-32.8 8,-230.8 1757,-230.8 1757,-32.8 8,-32.8"/>
</g>
<g id="clust2" class="cluster">
<title>cluster_SavedCartDetailsModule_declarations</title>
<polygon fill="none" stroke="black" points="1035,-40.8 1035,-92.8 1749,-92.8 1749,-40.8 1035,-40.8"/>
</g>
<g id="clust6" class="cluster">
<title>cluster_SavedCartDetailsModule_imports</title>
<polygon fill="none" stroke="black" points="16,-40.8 16,-92.8 1027,-92.8 1027,-40.8 16,-40.8"/>
</g>
<g id="clust7" class="cluster">
<title>cluster_SavedCartDetailsModule_exports</title>
<polygon fill="none" stroke="black" points="297,-170.8 297,-222.8 1021,-222.8 1021,-170.8 297,-170.8"/>
</g>
<!-- SavedCartDetailsActionComponent -->
<g id="node1" class="node">
<title>SavedCartDetailsActionComponent</title>
<polygon fill="#ffffb3" stroke="black" points="1740.91,-84.8 1523.09,-84.8 1523.09,-48.8 1740.91,-48.8 1740.91,-84.8"/>
<text text-anchor="middle" x="1632" y="-62.6" font-family="Times,serif" font-size="14.00">SavedCartDetailsActionComponent</text>
</g>
<!-- SavedCartDetailsModule -->
<g id="node4" class="node">
<title>SavedCartDetailsModule</title>
<polygon fill="#8dd3c7" stroke="black" points="746.53,-149.8 743.53,-153.8 722.53,-153.8 719.53,-149.8 589.47,-149.8 589.47,-113.8 746.53,-113.8 746.53,-149.8"/>
<text text-anchor="middle" x="668" y="-127.6" font-family="Times,serif" font-size="14.00">SavedCartDetailsModule</text>
</g>
<!-- SavedCartDetailsActionComponent&#45;&gt;SavedCartDetailsModule -->
<g id="edge1" class="edge">
<title>SavedCartDetailsActionComponent&#45;&gt;SavedCartDetailsModule</title>
<path fill="none" stroke="black" d="M1632,-84.84C1632,-106.46 1632,-139.8 1632,-139.8 1632,-139.8 756.89,-139.8 756.89,-139.8"/>
<polygon fill="black" stroke="black" points="756.89,-136.3 746.89,-139.8 756.89,-143.3 756.89,-136.3"/>
</g>
<!-- SavedCartDetailsItemsComponent -->
<g id="node2" class="node">
<title>SavedCartDetailsItemsComponent</title>
<polygon fill="#ffffb3" stroke="black" points="1505.41,-84.8 1294.59,-84.8 1294.59,-48.8 1505.41,-48.8 1505.41,-84.8"/>
<text text-anchor="middle" x="1400" y="-62.6" font-family="Times,serif" font-size="14.00">SavedCartDetailsItemsComponent</text>
</g>
<!-- SavedCartDetailsItemsComponent&#45;&gt;SavedCartDetailsModule -->
<g id="edge2" class="edge">
<title>SavedCartDetailsItemsComponent&#45;&gt;SavedCartDetailsModule</title>
<path fill="none" stroke="black" d="M1400,-85.02C1400,-105.17 1400,-134.8 1400,-134.8 1400,-134.8 756.68,-134.8 756.68,-134.8"/>
<polygon fill="black" stroke="black" points="756.68,-131.3 746.68,-134.8 756.68,-138.3 756.68,-131.3"/>
</g>
<!-- SavedCartDetailsOverviewComponent -->
<g id="node3" class="node">
<title>SavedCartDetailsOverviewComponent</title>
<polygon fill="#ffffb3" stroke="black" points="1277,-84.8 1043,-84.8 1043,-48.8 1277,-48.8 1277,-84.8"/>
<text text-anchor="middle" x="1160" y="-62.6" font-family="Times,serif" font-size="14.00">SavedCartDetailsOverviewComponent</text>
</g>
<!-- SavedCartDetailsOverviewComponent&#45;&gt;SavedCartDetailsModule -->
<g id="edge3" class="edge">
<title>SavedCartDetailsOverviewComponent&#45;&gt;SavedCartDetailsModule</title>
<path fill="none" stroke="black" d="M1160,-85.02C1160,-103.63 1160,-129.8 1160,-129.8 1160,-129.8 756.78,-129.8 756.78,-129.8"/>
<polygon fill="black" stroke="black" points="756.78,-126.3 746.78,-129.8 756.78,-133.3 756.78,-126.3"/>
</g>
<!-- SavedCartDetailsActionComponent  -->
<g id="node14" class="node">
<title>SavedCartDetailsActionComponent </title>
<polygon fill="#fb8072" stroke="black" points="1013.41,-214.8 792.59,-214.8 792.59,-178.8 1013.41,-178.8 1013.41,-214.8"/>
<text text-anchor="middle" x="903" y="-192.6" font-family="Times,serif" font-size="14.00">SavedCartDetailsActionComponent </text>
</g>
<!-- SavedCartDetailsModule&#45;&gt;SavedCartDetailsActionComponent  -->
<g id="edge13" class="edge">
<title>SavedCartDetailsModule&#45;&gt;SavedCartDetailsActionComponent </title>
<path fill="none" stroke="black" stroke-dasharray="5,2" d="M746.65,-144.8C784.1,-144.8 820.83,-144.8 820.83,-144.8 820.83,-144.8 820.83,-168.61 820.83,-168.61"/>
<polygon fill="black" stroke="black" points="817.33,-168.61 820.83,-178.61 824.33,-168.61 817.33,-168.61"/>
</g>
<!-- SavedCartDetailsItemsComponent  -->
<g id="node15" class="node">
<title>SavedCartDetailsItemsComponent </title>
<polygon fill="#fb8072" stroke="black" points="774.91,-214.8 561.09,-214.8 561.09,-178.8 774.91,-178.8 774.91,-214.8"/>
<text text-anchor="middle" x="668" y="-192.6" font-family="Times,serif" font-size="14.00">SavedCartDetailsItemsComponent </text>
</g>
<!-- SavedCartDetailsModule&#45;&gt;SavedCartDetailsItemsComponent  -->
<g id="edge14" class="edge">
<title>SavedCartDetailsModule&#45;&gt;SavedCartDetailsItemsComponent </title>
<path fill="none" stroke="black" stroke-dasharray="5,2" d="M668,-149.91C668,-149.91 668,-168.79 668,-168.79"/>
<polygon fill="black" stroke="black" points="664.5,-168.79 668,-178.79 671.5,-168.79 664.5,-168.79"/>
</g>
<!-- SavedCartDetailsOverviewComponent  -->
<g id="node16" class="node">
<title>SavedCartDetailsOverviewComponent </title>
<polygon fill="#fb8072" stroke="black" points="543,-214.8 305,-214.8 305,-178.8 543,-178.8 543,-214.8"/>
<text text-anchor="middle" x="424" y="-192.6" font-family="Times,serif" font-size="14.00">SavedCartDetailsOverviewComponent </text>
</g>
<!-- SavedCartDetailsModule&#45;&gt;SavedCartDetailsOverviewComponent  -->
<g id="edge15" class="edge">
<title>SavedCartDetailsModule&#45;&gt;SavedCartDetailsOverviewComponent </title>
<path fill="none" stroke="black" stroke-dasharray="5,2" d="M589.08,-144.8C547.65,-144.8 505.39,-144.8 505.39,-144.8 505.39,-144.8 505.39,-168.61 505.39,-168.61"/>
<polygon fill="black" stroke="black" points="501.89,-168.61 505.39,-178.61 508.89,-168.61 501.89,-168.61"/>
</g>
<!-- AddToCartModule -->
<g id="node5" class="node">
<title>AddToCartModule</title>
<polygon fill="#8dd3c7" stroke="black" points="1018.82,-84.8 1015.82,-88.8 994.82,-88.8 991.82,-84.8 895.18,-84.8 895.18,-48.8 1018.82,-48.8 1018.82,-84.8"/>
<text text-anchor="middle" x="957" y="-62.6" font-family="Times,serif" font-size="14.00">AddToCartModule</text>
</g>
<!-- AddToCartModule&#45;&gt;SavedCartDetailsModule -->
<g id="edge4" class="edge">
<title>AddToCartModule&#45;&gt;SavedCartDetailsModule</title>
<path fill="none" stroke="black" d="M954.4,-84.83C954.4,-101.86 954.4,-124.8 954.4,-124.8 954.4,-124.8 756.64,-124.8 756.64,-124.8"/>
<polygon fill="black" stroke="black" points="756.64,-121.3 746.64,-124.8 756.64,-128.3 756.64,-121.3"/>
</g>
<!-- CardModule -->
<g id="node6" class="node">
<title>CardModule</title>
<polygon fill="#8dd3c7" stroke="black" points="877.27,-84.8 874.27,-88.8 853.27,-88.8 850.27,-84.8 790.73,-84.8 790.73,-48.8 877.27,-48.8 877.27,-84.8"/>
<text text-anchor="middle" x="834" y="-62.6" font-family="Times,serif" font-size="14.00">CardModule</text>
</g>
<!-- CardModule&#45;&gt;SavedCartDetailsModule -->
<g id="edge5" class="edge">
<title>CardModule&#45;&gt;SavedCartDetailsModule</title>
<path fill="none" stroke="black" d="M849.1,-85.04C849.1,-100.37 849.1,-119.8 849.1,-119.8 849.1,-119.8 756.64,-119.8 756.64,-119.8"/>
<polygon fill="black" stroke="black" points="756.64,-116.3 746.64,-119.8 756.64,-123.3 756.64,-116.3"/>
</g>
<!-- ConfigModule -->
<g id="node7" class="node">
<title>ConfigModule</title>
<polygon fill="#8dd3c7" stroke="black" points="772.44,-84.8 769.44,-88.8 748.44,-88.8 745.44,-84.8 673.56,-84.8 673.56,-48.8 772.44,-48.8 772.44,-84.8"/>
<text text-anchor="middle" x="723" y="-62.6" font-family="Times,serif" font-size="14.00">ConfigModule</text>
</g>
<!-- ConfigModule&#45;&gt;SavedCartDetailsModule -->
<g id="edge6" class="edge">
<title>ConfigModule&#45;&gt;SavedCartDetailsModule</title>
<path fill="none" stroke="black" d="M710.27,-84.91C710.27,-84.91 710.27,-103.79 710.27,-103.79"/>
<polygon fill="black" stroke="black" points="706.77,-103.79 710.27,-113.79 713.77,-103.79 706.77,-103.79"/>
</g>
<!-- I18nModule -->
<g id="node8" class="node">
<title>I18nModule</title>
<polygon fill="#8dd3c7" stroke="black" points="655.71,-84.8 652.71,-88.8 631.71,-88.8 628.71,-84.8 570.29,-84.8 570.29,-48.8 655.71,-48.8 655.71,-84.8"/>
<text text-anchor="middle" x="613" y="-62.6" font-family="Times,serif" font-size="14.00">I18nModule</text>
</g>
<!-- I18nModule&#45;&gt;SavedCartDetailsModule -->
<g id="edge7" class="edge">
<title>I18nModule&#45;&gt;SavedCartDetailsModule</title>
<path fill="none" stroke="black" d="M622.42,-84.91C622.42,-84.91 622.42,-103.79 622.42,-103.79"/>
<polygon fill="black" stroke="black" points="618.92,-103.79 622.42,-113.79 625.92,-103.79 618.92,-103.79"/>
</g>
<!-- IconModule -->
<g id="node9" class="node">
<title>IconModule</title>
<polygon fill="#8dd3c7" stroke="black" points="552.43,-84.8 549.43,-88.8 528.43,-88.8 525.43,-84.8 467.57,-84.8 467.57,-48.8 552.43,-48.8 552.43,-84.8"/>
<text text-anchor="middle" x="510" y="-62.6" font-family="Times,serif" font-size="14.00">IconModule</text>
</g>
<!-- IconModule&#45;&gt;SavedCartDetailsModule -->
<g id="edge8" class="edge">
<title>IconModule&#45;&gt;SavedCartDetailsModule</title>
<path fill="none" stroke="black" d="M547.61,-85.04C547.61,-100.37 547.61,-119.8 547.61,-119.8 547.61,-119.8 579.38,-119.8 579.38,-119.8"/>
<polygon fill="black" stroke="black" points="579.38,-123.3 589.38,-119.8 579.38,-116.3 579.38,-123.3"/>
</g>
<!-- MediaModule -->
<g id="node10" class="node">
<title>MediaModule</title>
<polygon fill="#8dd3c7" stroke="black" points="449.82,-84.8 446.82,-88.8 425.82,-88.8 422.82,-84.8 354.18,-84.8 354.18,-48.8 449.82,-48.8 449.82,-84.8"/>
<text text-anchor="middle" x="402" y="-62.6" font-family="Times,serif" font-size="14.00">MediaModule</text>
</g>
<!-- MediaModule&#45;&gt;SavedCartDetailsModule -->
<g id="edge9" class="edge">
<title>MediaModule&#45;&gt;SavedCartDetailsModule</title>
<path fill="none" stroke="black" d="M402,-84.83C402,-101.86 402,-124.8 402,-124.8 402,-124.8 579.27,-124.8 579.27,-124.8"/>
<polygon fill="black" stroke="black" points="579.27,-128.3 589.27,-124.8 579.27,-121.3 579.27,-128.3"/>
</g>
<!-- OutletModule -->
<g id="node11" class="node">
<title>OutletModule</title>
<polygon fill="#8dd3c7" stroke="black" points="336.05,-84.8 333.05,-88.8 312.05,-88.8 309.05,-84.8 241.95,-84.8 241.95,-48.8 336.05,-48.8 336.05,-84.8"/>
<text text-anchor="middle" x="289" y="-62.6" font-family="Times,serif" font-size="14.00">OutletModule</text>
</g>
<!-- OutletModule&#45;&gt;SavedCartDetailsModule -->
<g id="edge10" class="edge">
<title>OutletModule&#45;&gt;SavedCartDetailsModule</title>
<path fill="none" stroke="black" d="M320.64,-85.02C320.64,-103.63 320.64,-129.8 320.64,-129.8 320.64,-129.8 579.18,-129.8 579.18,-129.8"/>
<polygon fill="black" stroke="black" points="579.18,-133.3 589.18,-129.8 579.18,-126.3 579.18,-133.3"/>
</g>
<!-- SpinnerModule -->
<g id="node12" class="node">
<title>SpinnerModule</title>
<polygon fill="#8dd3c7" stroke="black" points="223.6,-84.8 220.6,-88.8 199.6,-88.8 196.6,-84.8 120.4,-84.8 120.4,-48.8 223.6,-48.8 223.6,-84.8"/>
<text text-anchor="middle" x="172" y="-62.6" font-family="Times,serif" font-size="14.00">SpinnerModule</text>
</g>
<!-- SpinnerModule&#45;&gt;SavedCartDetailsModule -->
<g id="edge11" class="edge">
<title>SpinnerModule&#45;&gt;SavedCartDetailsModule</title>
<path fill="none" stroke="black" d="M172,-85.02C172,-105.17 172,-134.8 172,-134.8 172,-134.8 579.41,-134.8 579.41,-134.8"/>
<polygon fill="black" stroke="black" points="579.41,-138.3 589.41,-134.8 579.41,-131.3 579.41,-138.3"/>
</g>
<!-- UrlModule -->
<g id="node13" class="node">
<title>UrlModule</title>
<polygon fill="#8dd3c7" stroke="black" points="102.21,-84.8 99.21,-88.8 78.21,-88.8 75.21,-84.8 23.79,-84.8 23.79,-48.8 102.21,-48.8 102.21,-84.8"/>
<text text-anchor="middle" x="63" y="-62.6" font-family="Times,serif" font-size="14.00">UrlModule</text>
</g>
<!-- UrlModule&#45;&gt;SavedCartDetailsModule -->
<g id="edge12" class="edge">
<title>UrlModule&#45;&gt;SavedCartDetailsModule</title>
<path fill="none" stroke="black" d="M63,-84.84C63,-106.46 63,-139.8 63,-139.8 63,-139.8 579.22,-139.8 579.22,-139.8"/>
<polygon fill="black" stroke="black" points="579.22,-143.3 589.22,-139.8 579.22,-136.3 579.22,-143.3"/>
</g>
</g>
</svg>
