<?xml version="1.0" encoding="UTF-8" standalone="no"?>
<!DOCTYPE svg PUBLIC "-//W3C//DTD SVG 1.1//EN"
 "http://www.w3.org/Graphics/SVG/1.1/DTD/svg11.dtd">
<!-- Generated by graphviz version 5.0.0 (20220707.1540)
 -->
<!-- Title: dependencies Pages: 1 -->
<svg width="1597pt" height="247pt"
 viewBox="0.00 0.00 1597.00 246.80" xmlns="http://www.w3.org/2000/svg" xmlns:xlink="http://www.w3.org/1999/xlink">
<g id="graph0" class="graph" transform="scale(1 1) rotate(0) translate(4 242.8)">
<title>dependencies</title>
<polygon fill="white" stroke="transparent" points="-4,4 -4,-242.8 1593,-242.8 1593,4 -4,4"/>
<text text-anchor="middle" x="794.5" y="-8.2" font-family="sans-serif" font-size="14.00">dependencies</text>
<g id="clust1" class="cluster">
<title>cluster_MyCouponsModule</title>
<polygon fill="none" stroke="black" stroke-dasharray="1,5" points="8,-32.8 8,-230.8 1581,-230.8 1581,-32.8 8,-32.8"/>
</g>
<g id="clust2" class="cluster">
<title>cluster_MyCouponsModule_declarations</title>
<polygon fill="none" stroke="black" points="877,-40.8 877,-92.8 1573,-92.8 1573,-40.8 877,-40.8"/>
</g>
<g id="clust8" class="cluster">
<title>cluster_MyCouponsModule_exports</title>
<polygon fill="none" stroke="black" points="541,-170.8 541,-222.8 893,-222.8 893,-170.8 541,-170.8"/>
</g>
<g id="clust7" class="cluster">
<title>cluster_MyCouponsModule_imports</title>
<polygon fill="none" stroke="black" points="16,-40.8 16,-92.8 869,-92.8 869,-40.8 16,-40.8"/>
</g>
<!-- CouponCardComponent -->
<g id="node1" class="node">
<title>CouponCardComponent</title>
<polygon fill="#ffffb3" stroke="black" points="1565.38,-84.8 1412.62,-84.8 1412.62,-48.8 1565.38,-48.8 1565.38,-84.8"/>
<text text-anchor="middle" x="1489" y="-62.6" font-family="Times,serif" font-size="14.00">CouponCardComponent</text>
</g>
<!-- MyCouponsModule -->
<g id="node5" class="node">
<title>MyCouponsModule</title>
<polygon fill="#8dd3c7" stroke="black" points="778.29,-149.8 775.29,-153.8 754.29,-153.8 751.29,-149.8 649.71,-149.8 649.71,-113.8 778.29,-113.8 778.29,-149.8"/>
<text text-anchor="middle" x="714" y="-127.6" font-family="Times,serif" font-size="14.00">MyCouponsModule</text>
</g>
<!-- CouponCardComponent&#45;&gt;MyCouponsModule -->
<g id="edge1" class="edge">
<title>CouponCardComponent&#45;&gt;MyCouponsModule</title>
<path fill="none" stroke="black" d="M1489,-84.81C1489,-107.29 1489,-142.8 1489,-142.8 1489,-142.8 788.41,-142.8 788.41,-142.8"/>
<polygon fill="black" stroke="black" points="788.41,-139.3 778.41,-142.8 788.41,-146.3 788.41,-139.3"/>
</g>
<!-- CouponClaimComponent -->
<g id="node2" class="node">
<title>CouponClaimComponent</title>
<polygon fill="#ffffb3" stroke="black" points="1394.89,-84.8 1235.11,-84.8 1235.11,-48.8 1394.89,-48.8 1394.89,-84.8"/>
<text text-anchor="middle" x="1315" y="-62.6" font-family="Times,serif" font-size="14.00">CouponClaimComponent</text>
</g>
<!-- CouponClaimComponent&#45;&gt;MyCouponsModule -->
<g id="edge2" class="edge">
<title>CouponClaimComponent&#45;&gt;MyCouponsModule</title>
<path fill="none" stroke="black" d="M1315,-84.93C1315,-105.37 1315,-135.8 1315,-135.8 1315,-135.8 788.32,-135.8 788.32,-135.8"/>
<polygon fill="black" stroke="black" points="788.32,-132.3 778.32,-135.8 788.32,-139.3 788.32,-132.3"/>
</g>
<!-- CouponDialogComponent -->
<g id="node3" class="node">
<title>CouponDialogComponent</title>
<polygon fill="#ffffb3" stroke="black" points="1216.77,-84.8 1053.23,-84.8 1053.23,-48.8 1216.77,-48.8 1216.77,-84.8"/>
<text text-anchor="middle" x="1135" y="-62.6" font-family="Times,serif" font-size="14.00">CouponDialogComponent</text>
</g>
<!-- CouponDialogComponent&#45;&gt;MyCouponsModule -->
<g id="edge3" class="edge">
<title>CouponDialogComponent&#45;&gt;MyCouponsModule</title>
<path fill="none" stroke="black" d="M1135,-85.07C1135,-103.36 1135,-128.8 1135,-128.8 1135,-128.8 788.4,-128.8 788.4,-128.8"/>
<polygon fill="black" stroke="black" points="788.4,-125.3 778.4,-128.8 788.4,-132.3 788.4,-125.3"/>
</g>
<!-- MyCouponsComponent -->
<g id="node4" class="node">
<title>MyCouponsComponent</title>
<polygon fill="#ffffb3" stroke="black" points="1035.07,-84.8 884.93,-84.8 884.93,-48.8 1035.07,-48.8 1035.07,-84.8"/>
<text text-anchor="middle" x="960" y="-62.6" font-family="Times,serif" font-size="14.00">MyCouponsComponent</text>
</g>
<!-- MyCouponsComponent&#45;&gt;MyCouponsModule -->
<g id="edge4" class="edge">
<title>MyCouponsComponent&#45;&gt;MyCouponsModule</title>
<path fill="none" stroke="black" d="M960,-84.81C960,-100.85 960,-121.8 960,-121.8 960,-121.8 788.31,-121.8 788.31,-121.8"/>
<polygon fill="black" stroke="black" points="788.31,-118.3 778.31,-121.8 788.31,-125.3 788.31,-118.3"/>
</g>
<!-- CouponClaimComponent  -->
<g id="node13" class="node">
<title>CouponClaimComponent </title>
<polygon fill="#fb8072" stroke="black" points="884.89,-214.8 721.11,-214.8 721.11,-178.8 884.89,-178.8 884.89,-214.8"/>
<text text-anchor="middle" x="803" y="-192.6" font-family="Times,serif" font-size="14.00">CouponClaimComponent </text>
</g>
<!-- MyCouponsModule&#45;&gt;CouponClaimComponent  -->
<g id="edge12" class="edge">
<title>MyCouponsModule&#45;&gt;CouponClaimComponent </title>
<path fill="none" stroke="black" stroke-dasharray="5,2" d="M749.85,-149.91C749.85,-149.91 749.85,-168.79 749.85,-168.79"/>
<polygon fill="black" stroke="black" points="746.35,-168.79 749.85,-178.79 753.35,-168.79 746.35,-168.79"/>
</g>
<!-- MyCouponsComponent  -->
<g id="node14" class="node">
<title>MyCouponsComponent </title>
<polygon fill="#fb8072" stroke="black" points="703.07,-214.8 548.93,-214.8 548.93,-178.8 703.07,-178.8 703.07,-214.8"/>
<text text-anchor="middle" x="626" y="-192.6" font-family="Times,serif" font-size="14.00">MyCouponsComponent </text>
</g>
<!-- MyCouponsModule&#45;&gt;MyCouponsComponent  -->
<g id="edge13" class="edge">
<title>MyCouponsModule&#45;&gt;MyCouponsComponent </title>
<path fill="none" stroke="black" stroke-dasharray="5,2" d="M676.32,-149.91C676.32,-149.91 676.32,-168.79 676.32,-168.79"/>
<polygon fill="black" stroke="black" points="672.82,-168.79 676.32,-178.79 679.82,-168.79 672.82,-168.79"/>
</g>
<!-- CardModule -->
<g id="node6" class="node">
<title>CardModule</title>
<polygon fill="#8dd3c7" stroke="black" points="861.27,-84.8 858.27,-88.8 837.27,-88.8 834.27,-84.8 774.73,-84.8 774.73,-48.8 861.27,-48.8 861.27,-84.8"/>
<text text-anchor="middle" x="818" y="-62.6" font-family="Times,serif" font-size="14.00">CardModule</text>
</g>
<!-- CardModule&#45;&gt;MyCouponsModule -->
<g id="edge5" class="edge">
<title>CardModule&#45;&gt;MyCouponsModule</title>
<path fill="none" stroke="black" d="M774.26,-66.8C769.09,-66.8 765.61,-66.8 765.61,-66.8 765.61,-66.8 765.61,-103.69 765.61,-103.69"/>
<polygon fill="black" stroke="black" points="762.11,-103.69 765.61,-113.69 769.11,-103.69 762.11,-103.69"/>
</g>
<!-- I18nModule -->
<g id="node7" class="node">
<title>I18nModule</title>
<polygon fill="#8dd3c7" stroke="black" points="756.71,-84.8 753.71,-88.8 732.71,-88.8 729.71,-84.8 671.29,-84.8 671.29,-48.8 756.71,-48.8 756.71,-84.8"/>
<text text-anchor="middle" x="714" y="-62.6" font-family="Times,serif" font-size="14.00">I18nModule</text>
</g>
<!-- I18nModule&#45;&gt;MyCouponsModule -->
<g id="edge6" class="edge">
<title>I18nModule&#45;&gt;MyCouponsModule</title>
<path fill="none" stroke="black" d="M714,-84.91C714,-84.91 714,-103.79 714,-103.79"/>
<polygon fill="black" stroke="black" points="710.5,-103.79 714,-113.79 717.5,-103.79 710.5,-103.79"/>
</g>
<!-- IconModule -->
<g id="node8" class="node">
<title>IconModule</title>
<polygon fill="#8dd3c7" stroke="black" points="653.43,-84.8 650.43,-88.8 629.43,-88.8 626.43,-84.8 568.57,-84.8 568.57,-48.8 653.43,-48.8 653.43,-84.8"/>
<text text-anchor="middle" x="611" y="-62.6" font-family="Times,serif" font-size="14.00">IconModule</text>
</g>
<!-- IconModule&#45;&gt;MyCouponsModule -->
<g id="edge7" class="edge">
<title>IconModule&#45;&gt;MyCouponsModule</title>
<path fill="none" stroke="black" d="M653.37,-66.8C658.68,-66.8 662.3,-66.8 662.3,-66.8 662.3,-66.8 662.3,-103.69 662.3,-103.69"/>
<polygon fill="black" stroke="black" points="658.8,-103.69 662.3,-113.69 665.8,-103.69 658.8,-103.69"/>
</g>
<!-- KeyboardFocusModule -->
<g id="node9" class="node">
<title>KeyboardFocusModule</title>
<polygon fill="#8dd3c7" stroke="black" points="551.2,-84.8 548.2,-88.8 527.2,-88.8 524.2,-84.8 402.8,-84.8 402.8,-48.8 551.2,-48.8 551.2,-84.8"/>
<text text-anchor="middle" x="477" y="-62.6" font-family="Times,serif" font-size="14.00">KeyboardFocusModule</text>
</g>
<!-- KeyboardFocusModule&#45;&gt;MyCouponsModule -->
<g id="edge8" class="edge">
<title>KeyboardFocusModule&#45;&gt;MyCouponsModule</title>
<path fill="none" stroke="black" d="M475.93,-84.81C475.93,-100.85 475.93,-121.8 475.93,-121.8 475.93,-121.8 639.58,-121.8 639.58,-121.8"/>
<polygon fill="black" stroke="black" points="639.58,-125.3 649.58,-121.8 639.58,-118.3 639.58,-125.3"/>
</g>
<!-- ListNavigationModule -->
<g id="node10" class="node">
<title>ListNavigationModule</title>
<polygon fill="#8dd3c7" stroke="black" points="384.54,-84.8 381.54,-88.8 360.54,-88.8 357.54,-84.8 241.46,-84.8 241.46,-48.8 384.54,-48.8 384.54,-84.8"/>
<text text-anchor="middle" x="313" y="-62.6" font-family="Times,serif" font-size="14.00">ListNavigationModule</text>
</g>
<!-- ListNavigationModule&#45;&gt;MyCouponsModule -->
<g id="edge9" class="edge">
<title>ListNavigationModule&#45;&gt;MyCouponsModule</title>
<path fill="none" stroke="black" d="M313,-85.07C313,-103.36 313,-128.8 313,-128.8 313,-128.8 639.57,-128.8 639.57,-128.8"/>
<polygon fill="black" stroke="black" points="639.57,-132.3 649.57,-128.8 639.57,-125.3 639.57,-132.3"/>
</g>
<!-- SpinnerModule -->
<g id="node11" class="node">
<title>SpinnerModule</title>
<polygon fill="#8dd3c7" stroke="black" points="223.6,-84.8 220.6,-88.8 199.6,-88.8 196.6,-84.8 120.4,-84.8 120.4,-48.8 223.6,-48.8 223.6,-84.8"/>
<text text-anchor="middle" x="172" y="-62.6" font-family="Times,serif" font-size="14.00">SpinnerModule</text>
</g>
<!-- SpinnerModule&#45;&gt;MyCouponsModule -->
<g id="edge10" class="edge">
<title>SpinnerModule&#45;&gt;MyCouponsModule</title>
<path fill="none" stroke="black" d="M172,-84.93C172,-105.37 172,-135.8 172,-135.8 172,-135.8 639.7,-135.8 639.7,-135.8"/>
<polygon fill="black" stroke="black" points="639.7,-139.3 649.7,-135.8 639.7,-132.3 639.7,-139.3"/>
</g>
<!-- UrlModule -->
<g id="node12" class="node">
<title>UrlModule</title>
<polygon fill="#8dd3c7" stroke="black" points="102.21,-84.8 99.21,-88.8 78.21,-88.8 75.21,-84.8 23.79,-84.8 23.79,-48.8 102.21,-48.8 102.21,-84.8"/>
<text text-anchor="middle" x="63" y="-62.6" font-family="Times,serif" font-size="14.00">UrlModule</text>
</g>
<!-- UrlModule&#45;&gt;MyCouponsModule -->
<g id="edge11" class="edge">
<title>UrlModule&#45;&gt;MyCouponsModule</title>
<path fill="none" stroke="black" d="M63,-84.81C63,-107.29 63,-142.8 63,-142.8 63,-142.8 639.5,-142.8 639.5,-142.8"/>
<polygon fill="black" stroke="black" points="639.5,-146.3 649.5,-142.8 639.5,-139.3 639.5,-146.3"/>
</g>
</g>
</svg>
