<?xml version="1.0" encoding="UTF-8" standalone="no"?>
<!DOCTYPE svg PUBLIC "-//W3C//DTD SVG 1.1//EN"
 "http://www.w3.org/Graphics/SVG/1.1/DTD/svg11.dtd">
<!-- Generated by graphviz version 5.0.0 (20220707.1540)
 -->
<!-- Title: dependencies Pages: 1 -->
<svg width="728pt" height="247pt"
 viewBox="0.00 0.00 728.00 246.80" xmlns="http://www.w3.org/2000/svg" xmlns:xlink="http://www.w3.org/1999/xlink">
<g id="graph0" class="graph" transform="scale(1 1) rotate(0) translate(4 242.8)">
<title>dependencies</title>
<polygon fill="white" stroke="transparent" points="-4,4 -4,-242.8 724,-242.8 724,4 -4,4"/>
<text text-anchor="middle" x="360" y="-8.2" font-family="sans-serif" font-size="14.00">dependencies</text>
<g id="clust1" class="cluster">
<title>cluster_PasswordVisibilityToggleModule</title>
<polygon fill="none" stroke="black" stroke-dasharray="1,5" points="8,-32.8 8,-230.8 712,-230.8 712,-32.8 8,-32.8"/>
</g>
<g id="clust5" class="cluster">
<title>cluster_PasswordVisibilityToggleModule_imports</title>
<polygon fill="none" stroke="black" points="500,-40.8 500,-92.8 704,-92.8 704,-40.8 500,-40.8"/>
</g>
<g id="clust2" class="cluster">
<title>cluster_PasswordVisibilityToggleModule_declarations</title>
<polygon fill="none" stroke="black" points="16,-40.8 16,-92.8 492,-92.8 492,-40.8 16,-40.8"/>
</g>
<g id="clust6" class="cluster">
<title>cluster_PasswordVisibilityToggleModule_exports</title>
<polygon fill="none" stroke="black" points="119,-170.8 119,-222.8 602,-222.8 602,-170.8 119,-170.8"/>
</g>
<!-- PasswordVisibilityToggleComponent -->
<g id="node1" class="node">
<title>PasswordVisibilityToggleComponent</title>
<polygon fill="#ffffb3" stroke="black" points="483.55,-84.8 256.45,-84.8 256.45,-48.8 483.55,-48.8 483.55,-84.8"/>
<text text-anchor="middle" x="370" y="-62.6" font-family="Times,serif" font-size="14.00">PasswordVisibilityToggleComponent</text>
</g>
<!-- PasswordVisibilityToggleModule -->
<g id="node3" class="node">
<title>PasswordVisibilityToggleModule</title>
<polygon fill="#8dd3c7" stroke="black" points="526.77,-149.8 523.77,-153.8 502.77,-153.8 499.77,-149.8 321.23,-149.8 321.23,-113.8 526.77,-113.8 526.77,-149.8"/>
<text text-anchor="middle" x="424" y="-127.6" font-family="Times,serif" font-size="14.00">PasswordVisibilityToggleModule</text>
</g>
<!-- PasswordVisibilityToggleComponent&#45;&gt;PasswordVisibilityToggleModule -->
<g id="edge1" class="edge">
<title>PasswordVisibilityToggleComponent&#45;&gt;PasswordVisibilityToggleModule</title>
<path fill="none" stroke="black" d="M402.44,-84.91C402.44,-84.91 402.44,-103.79 402.44,-103.79"/>
<polygon fill="black" stroke="black" points="398.94,-103.79 402.44,-113.79 405.94,-103.79 398.94,-103.79"/>
</g>
<!-- PasswordVisibilityToggleDirective -->
<g id="node2" class="node">
<title>PasswordVisibilityToggleDirective</title>
<polygon fill="#ffffb3" stroke="black" points="238.3,-84.8 23.7,-84.8 23.7,-48.8 238.3,-48.8 238.3,-84.8"/>
<text text-anchor="middle" x="131" y="-62.6" font-family="Times,serif" font-size="14.00">PasswordVisibilityToggleDirective</text>
</g>
<!-- PasswordVisibilityToggleDirective&#45;&gt;PasswordVisibilityToggleModule -->
<g id="edge2" class="edge">
<title>PasswordVisibilityToggleDirective&#45;&gt;PasswordVisibilityToggleModule</title>
<path fill="none" stroke="black" d="M182.62,-84.91C182.62,-104.14 182.62,-131.8 182.62,-131.8 182.62,-131.8 310.94,-131.8 310.94,-131.8"/>
<polygon fill="black" stroke="black" points="310.94,-135.3 320.94,-131.8 310.94,-128.3 310.94,-135.3"/>
</g>
<!-- PasswordVisibilityToggleComponent  -->
<g id="node6" class="node">
<title>PasswordVisibilityToggleComponent </title>
<polygon fill="#fb8072" stroke="black" points="593.55,-214.8 362.45,-214.8 362.45,-178.8 593.55,-178.8 593.55,-214.8"/>
<text text-anchor="middle" x="478" y="-192.6" font-family="Times,serif" font-size="14.00">PasswordVisibilityToggleComponent </text>
</g>
<!-- PasswordVisibilityToggleModule&#45;&gt;PasswordVisibilityToggleComponent  -->
<g id="edge5" class="edge">
<title>PasswordVisibilityToggleModule&#45;&gt;PasswordVisibilityToggleComponent </title>
<path fill="none" stroke="black" stroke-dasharray="5,2" d="M444.68,-149.91C444.68,-149.91 444.68,-168.79 444.68,-168.79"/>
<polygon fill="black" stroke="black" points="441.18,-168.79 444.68,-178.79 448.18,-168.79 441.18,-168.79"/>
</g>
<!-- PasswordVisibilityToggleDirective  -->
<g id="node7" class="node">
<title>PasswordVisibilityToggleDirective </title>
<polygon fill="#fb8072" stroke="black" points="344.8,-214.8 127.2,-214.8 127.2,-178.8 344.8,-178.8 344.8,-214.8"/>
<text text-anchor="middle" x="236" y="-192.6" font-family="Times,serif" font-size="14.00">PasswordVisibilityToggleDirective </text>
</g>
<!-- PasswordVisibilityToggleModule&#45;&gt;PasswordVisibilityToggleDirective  -->
<g id="edge6" class="edge">
<title>PasswordVisibilityToggleModule&#45;&gt;PasswordVisibilityToggleDirective </title>
<path fill="none" stroke="black" stroke-dasharray="5,2" d="M333.01,-149.91C333.01,-149.91 333.01,-168.79 333.01,-168.79"/>
<polygon fill="black" stroke="black" points="329.51,-168.79 333.01,-178.79 336.51,-168.79 329.51,-168.79"/>
</g>
<!-- I18nModule -->
<g id="node4" class="node">
<title>I18nModule</title>
<polygon fill="#8dd3c7" stroke="black" points="695.71,-84.8 692.71,-88.8 671.71,-88.8 668.71,-84.8 610.29,-84.8 610.29,-48.8 695.71,-48.8 695.71,-84.8"/>
<text text-anchor="middle" x="653" y="-62.6" font-family="Times,serif" font-size="14.00">I18nModule</text>
</g>
<!-- I18nModule&#45;&gt;PasswordVisibilityToggleModule -->
<g id="edge3" class="edge">
<title>I18nModule&#45;&gt;PasswordVisibilityToggleModule</title>
<path fill="none" stroke="black" d="M653,-84.91C653,-104.14 653,-131.8 653,-131.8 653,-131.8 536.78,-131.8 536.78,-131.8"/>
<polygon fill="black" stroke="black" points="536.78,-128.3 526.78,-131.8 536.78,-135.3 536.78,-128.3"/>
</g>
<!-- IconModule -->
<g id="node5" class="node">
<title>IconModule</title>
<polygon fill="#8dd3c7" stroke="black" points="592.43,-84.8 589.43,-88.8 568.43,-88.8 565.43,-84.8 507.57,-84.8 507.57,-48.8 592.43,-48.8 592.43,-84.8"/>
<text text-anchor="middle" x="550" y="-62.6" font-family="Times,serif" font-size="14.00">IconModule</text>
</g>
<!-- IconModule&#45;&gt;PasswordVisibilityToggleModule -->
<g id="edge4" class="edge">
<title>IconModule&#45;&gt;PasswordVisibilityToggleModule</title>
<path fill="none" stroke="black" d="M517.34,-84.91C517.34,-84.91 517.34,-103.79 517.34,-103.79"/>
<polygon fill="black" stroke="black" points="513.84,-103.79 517.34,-113.79 520.84,-103.79 513.84,-103.79"/>
</g>
</g>
</svg>
