<?xml version="1.0" encoding="UTF-8" standalone="no"?>
<!DOCTYPE svg PUBLIC "-//W3C//DTD SVG 1.1//EN"
 "http://www.w3.org/Graphics/SVG/1.1/DTD/svg11.dtd">
<!-- Generated by graphviz version 5.0.0 (20220707.1540)
 -->
<!-- Title: dependencies Pages: 1 -->
<svg width="2116pt" height="358pt"
 viewBox="0.00 0.00 2116.00 358.39" xmlns="http://www.w3.org/2000/svg" xmlns:xlink="http://www.w3.org/1999/xlink">
<g id="graph0" class="graph" transform="scale(1 1) rotate(0) translate(4 354.39)">
<title>dependencies</title>
<polygon fill="white" stroke="transparent" points="-4,4 -4,-354.39 2112,-354.39 2112,4 -4,4"/>
<text text-anchor="middle" x="1054" y="-8.2" font-family="sans-serif" font-size="14.00">dependencies</text>
<g id="clust1" class="cluster">
<title>cluster_CostCenterFormModule</title>
<polygon fill="none" stroke="black" stroke-dasharray="1,5" points="8,-32.8 8,-342.39 2100,-342.39 2100,-32.8 8,-32.8"/>
</g>
<g id="clust3" class="cluster">
<title>cluster_CostCenterFormModule_CostCenterFormComponent_providers</title>
<polygon fill="none" stroke="black" points="950,-40.8 950,-204.39 2092,-204.39 2092,-40.8 950,-40.8"/>
</g>
<g id="clust5" class="cluster">
<title>cluster_CostCenterFormModule_exports</title>
<polygon fill="none" stroke="black" points="374,-282.39 374,-334.39 568,-334.39 568,-282.39 374,-282.39"/>
</g>
<g id="clust7" class="cluster">
<title>cluster_CostCenterFormModule_providers</title>
<polygon fill="none" stroke="black" points="612,-152.39 612,-204.39 942,-204.39 942,-152.39 612,-152.39"/>
</g>
<g id="clust4" class="cluster">
<title>cluster_CostCenterFormModule_imports</title>
<polygon fill="none" stroke="black" points="16,-152.39 16,-204.39 604,-204.39 604,-152.39 16,-152.39"/>
</g>
<!-- CostCenterFormComponent -->
<g id="node1" class="node">
<title>CostCenterFormComponent</title>
<polygon fill="#ffffb3" stroke="black" points="1343.16,-196.39 1168.84,-196.39 1168.84,-160.39 1343.16,-160.39 1343.16,-196.39"/>
<text text-anchor="middle" x="1256" y="-174.19" font-family="Times,serif" font-size="14.00">CostCenterFormComponent</text>
</g>
<!-- CostCenterFormModule -->
<g id="node2" class="node">
<title>CostCenterFormModule</title>
<polygon fill="#8dd3c7" stroke="black" points="547.38,-261.39 544.38,-265.39 523.38,-265.39 520.38,-261.39 394.62,-261.39 394.62,-225.39 547.38,-225.39 547.38,-261.39"/>
<text text-anchor="middle" x="471" y="-239.19" font-family="Times,serif" font-size="14.00">CostCenterFormModule</text>
</g>
<!-- CostCenterFormComponent&#45;&gt;CostCenterFormModule -->
<g id="edge1" class="edge">
<title>CostCenterFormComponent&#45;&gt;CostCenterFormModule</title>
<path fill="none" stroke="black" d="M1256,-196.68C1256,-218.6 1256,-252.39 1256,-252.39 1256,-252.39 557.7,-252.39 557.7,-252.39"/>
<polygon fill="black" stroke="black" points="557.7,-248.89 547.7,-252.39 557.7,-255.89 557.7,-248.89"/>
</g>
<!-- CostCenterFormComponent  -->
<g id="node10" class="node">
<title>CostCenterFormComponent </title>
<polygon fill="#fb8072" stroke="black" points="560.16,-326.39 381.84,-326.39 381.84,-290.39 560.16,-290.39 560.16,-326.39"/>
<text text-anchor="middle" x="471" y="-304.19" font-family="Times,serif" font-size="14.00">CostCenterFormComponent </text>
</g>
<!-- CostCenterFormModule&#45;&gt;CostCenterFormComponent  -->
<g id="edge9" class="edge">
<title>CostCenterFormModule&#45;&gt;CostCenterFormComponent </title>
<path fill="none" stroke="black" stroke-dasharray="5,2" d="M471,-261.5C471,-261.5 471,-280.38 471,-280.38"/>
<polygon fill="black" stroke="black" points="467.5,-280.38 471,-290.38 474.5,-280.38 467.5,-280.38"/>
</g>
<!-- {
 &#160;&#160;&#160;provide: ItemService, useExisting: CostCenterItemService,
} -->
<g id="node3" class="node">
<title>{
 &#160;&#160;&#160;provide: ItemService, useExisting: CostCenterItemService,
}</title>
<ellipse fill="#fdb462" stroke="black" cx="1828" cy="-90.1" rx="255.93" ry="41.09"/>
<text text-anchor="middle" x="1828" y="-102.7" font-family="Times,serif" font-size="14.00">{</text>
<text text-anchor="middle" x="1828" y="-85.9" font-family="Times,serif" font-size="14.00"> &#160;&#160;&#160;provide: ItemService, useExisting: CostCenterItemService,</text>
<text text-anchor="middle" x="1828" y="-69.1" font-family="Times,serif" font-size="14.00">}</text>
</g>
<!-- {
 &#160;&#160;&#160;provide: ItemService, useExisting: CostCenterItemService,
}&#45;&gt;CostCenterFormComponent -->
<g id="edge2" class="edge">
<title>{
 &#160;&#160;&#160;provide: ItemService, useExisting: CostCenterItemService,
}&#45;&gt;CostCenterFormComponent</title>
<path fill="none" stroke="black" d="M1828,-131.4C1828,-154.38 1828,-178.39 1828,-178.39 1828,-178.39 1353.19,-178.39 1353.19,-178.39"/>
<polygon fill="black" stroke="black" points="1353.19,-174.89 1343.19,-178.39 1353.19,-181.89 1353.19,-174.89"/>
</g>
<!-- {
 &#160;&#160;&#160;provide: CurrentItemService, useExisting: CurrentCostCenterService,
} -->
<g id="node4" class="node">
<title>{
 &#160;&#160;&#160;provide: CurrentItemService, useExisting: CurrentCostCenterService,
}</title>
<ellipse fill="#fdb462" stroke="black" cx="1256" cy="-90.1" rx="298.11" ry="41.09"/>
<text text-anchor="middle" x="1256" y="-102.7" font-family="Times,serif" font-size="14.00">{</text>
<text text-anchor="middle" x="1256" y="-85.9" font-family="Times,serif" font-size="14.00"> &#160;&#160;&#160;provide: CurrentItemService, useExisting: CurrentCostCenterService,</text>
<text text-anchor="middle" x="1256" y="-69.1" font-family="Times,serif" font-size="14.00">}</text>
</g>
<!-- {
 &#160;&#160;&#160;provide: CurrentItemService, useExisting: CurrentCostCenterService,
}&#45;&gt;CostCenterFormComponent -->
<g id="edge3" class="edge">
<title>{
 &#160;&#160;&#160;provide: CurrentItemService, useExisting: CurrentCostCenterService,
}&#45;&gt;CostCenterFormComponent</title>
<path fill="none" stroke="black" d="M1256,-131.4C1256,-131.4 1256,-150.06 1256,-150.06"/>
<polygon fill="black" stroke="black" points="1252.5,-150.06 1256,-160.06 1259.5,-150.06 1252.5,-150.06"/>
</g>
<!-- FormErrorsModule -->
<g id="node5" class="node">
<title>FormErrorsModule</title>
<polygon fill="#8dd3c7" stroke="black" points="596.38,-196.39 593.38,-200.39 572.38,-200.39 569.38,-196.39 471.62,-196.39 471.62,-160.39 596.38,-160.39 596.38,-196.39"/>
<text text-anchor="middle" x="534" y="-174.19" font-family="Times,serif" font-size="14.00">FormErrorsModule</text>
</g>
<!-- FormErrorsModule&#45;&gt;CostCenterFormModule -->
<g id="edge4" class="edge">
<title>FormErrorsModule&#45;&gt;CostCenterFormModule</title>
<path fill="none" stroke="black" d="M509.5,-196.5C509.5,-196.5 509.5,-215.38 509.5,-215.38"/>
<polygon fill="black" stroke="black" points="506,-215.38 509.5,-225.38 513,-215.38 506,-215.38"/>
</g>
<!-- FormModule -->
<g id="node6" class="node">
<title>FormModule</title>
<polygon fill="#8dd3c7" stroke="black" points="453.89,-196.39 450.89,-200.39 429.89,-200.39 426.89,-196.39 364.11,-196.39 364.11,-160.39 453.89,-160.39 453.89,-196.39"/>
<text text-anchor="middle" x="409" y="-174.19" font-family="Times,serif" font-size="14.00">FormModule</text>
</g>
<!-- FormModule&#45;&gt;CostCenterFormModule -->
<g id="edge5" class="edge">
<title>FormModule&#45;&gt;CostCenterFormModule</title>
<path fill="none" stroke="black" d="M424.25,-196.5C424.25,-196.5 424.25,-215.38 424.25,-215.38"/>
<polygon fill="black" stroke="black" points="420.75,-215.38 424.25,-225.38 427.75,-215.38 420.75,-215.38"/>
</g>
<!-- I18nModule -->
<g id="node7" class="node">
<title>I18nModule</title>
<polygon fill="#8dd3c7" stroke="black" points="345.71,-196.39 342.71,-200.39 321.71,-200.39 318.71,-196.39 260.29,-196.39 260.29,-160.39 345.71,-160.39 345.71,-196.39"/>
<text text-anchor="middle" x="303" y="-174.19" font-family="Times,serif" font-size="14.00">I18nModule</text>
</g>
<!-- I18nModule&#45;&gt;CostCenterFormModule -->
<g id="edge6" class="edge">
<title>I18nModule&#45;&gt;CostCenterFormModule</title>
<path fill="none" stroke="black" d="M303,-196.42C303,-212.79 303,-234.39 303,-234.39 303,-234.39 384.37,-234.39 384.37,-234.39"/>
<polygon fill="black" stroke="black" points="384.37,-237.89 394.37,-234.39 384.37,-230.89 384.37,-237.89"/>
</g>
<!-- ItemActiveModule -->
<g id="node8" class="node">
<title>ItemActiveModule</title>
<polygon fill="#8dd3c7" stroke="black" points="242.03,-196.39 239.03,-200.39 218.03,-200.39 215.03,-196.39 119.97,-196.39 119.97,-160.39 242.03,-160.39 242.03,-196.39"/>
<text text-anchor="middle" x="181" y="-174.19" font-family="Times,serif" font-size="14.00">ItemActiveModule</text>
</g>
<!-- ItemActiveModule&#45;&gt;CostCenterFormModule -->
<g id="edge7" class="edge">
<title>ItemActiveModule&#45;&gt;CostCenterFormModule</title>
<path fill="none" stroke="black" d="M181,-196.5C181,-215.73 181,-243.39 181,-243.39 181,-243.39 384.43,-243.39 384.43,-243.39"/>
<polygon fill="black" stroke="black" points="384.43,-246.89 394.43,-243.39 384.43,-239.89 384.43,-246.89"/>
</g>
<!-- UrlModule -->
<g id="node9" class="node">
<title>UrlModule</title>
<polygon fill="#8dd3c7" stroke="black" points="102.21,-196.39 99.21,-200.39 78.21,-200.39 75.21,-196.39 23.79,-196.39 23.79,-160.39 102.21,-160.39 102.21,-196.39"/>
<text text-anchor="middle" x="63" y="-174.19" font-family="Times,serif" font-size="14.00">UrlModule</text>
</g>
<!-- UrlModule&#45;&gt;CostCenterFormModule -->
<g id="edge8" class="edge">
<title>UrlModule&#45;&gt;CostCenterFormModule</title>
<path fill="none" stroke="black" d="M63,-196.68C63,-218.6 63,-252.39 63,-252.39 63,-252.39 384.26,-252.39 384.26,-252.39"/>
<polygon fill="black" stroke="black" points="384.26,-255.89 394.26,-252.39 384.26,-248.89 384.26,-255.89"/>
</g>
<!-- CurrencyService -->
<g id="node11" class="node">
<title>CurrencyService</title>
<ellipse fill="#fdb462" stroke="black" cx="858" cy="-178.39" rx="75.85" ry="18"/>
<text text-anchor="middle" x="858" y="-174.19" font-family="Times,serif" font-size="14.00">CurrencyService</text>
</g>
<!-- CurrencyService&#45;&gt;CostCenterFormModule -->
<g id="edge10" class="edge">
<title>CurrencyService&#45;&gt;CostCenterFormModule</title>
<path fill="none" stroke="black" d="M858,-196.5C858,-215.73 858,-243.39 858,-243.39 858,-243.39 557.46,-243.39 557.46,-243.39"/>
<polygon fill="black" stroke="black" points="557.46,-239.89 547.46,-243.39 557.46,-246.89 557.46,-239.89"/>
</g>
<!-- OrgUnitService -->
<g id="node12" class="node">
<title>OrgUnitService</title>
<ellipse fill="#fdb462" stroke="black" cx="692" cy="-178.39" rx="72.36" ry="18"/>
<text text-anchor="middle" x="692" y="-174.19" font-family="Times,serif" font-size="14.00">OrgUnitService</text>
</g>
<!-- OrgUnitService&#45;&gt;CostCenterFormModule -->
<g id="edge11" class="edge">
<title>OrgUnitService&#45;&gt;CostCenterFormModule</title>
<path fill="none" stroke="black" d="M692,-196.42C692,-212.79 692,-234.39 692,-234.39 692,-234.39 557.67,-234.39 557.67,-234.39"/>
<polygon fill="black" stroke="black" points="557.67,-230.89 547.67,-234.39 557.67,-237.89 557.67,-230.89"/>
</g>
</g>
</svg>
