<?xml version="1.0" encoding="UTF-8" standalone="no"?>
<!DOCTYPE svg PUBLIC "-//W3C//DTD SVG 1.1//EN"
 "http://www.w3.org/Graphics/SVG/1.1/DTD/svg11.dtd">
<!-- Generated by graphviz version 5.0.0 (20220707.1540)
 -->
<!-- Title: dependencies Pages: 1 -->
<svg width="330pt" height="247pt"
 viewBox="0.00 0.00 330.00 246.80" xmlns="http://www.w3.org/2000/svg" xmlns:xlink="http://www.w3.org/1999/xlink">
<g id="graph0" class="graph" transform="scale(1 1) rotate(0) translate(4 242.8)">
<title>dependencies</title>
<polygon fill="white" stroke="transparent" points="-4,4 -4,-242.8 326,-242.8 326,4 -4,4"/>
<text text-anchor="middle" x="161" y="-8.2" font-family="sans-serif" font-size="14.00">dependencies</text>
<g id="clust1" class="cluster">
<title>cluster_PageTitleModule</title>
<polygon fill="none" stroke="black" stroke-dasharray="1,5" points="8,-32.8 8,-230.8 314,-230.8 314,-32.8 8,-32.8"/>
</g>
<g id="clust4" class="cluster">
<title>cluster_PageTitleModule_imports</title>
<polygon fill="none" stroke="black" points="174,-40.8 174,-92.8 306,-92.8 306,-40.8 174,-40.8"/>
</g>
<g id="clust2" class="cluster">
<title>cluster_PageTitleModule_declarations</title>
<polygon fill="none" stroke="black" points="16,-40.8 16,-92.8 166,-92.8 166,-40.8 16,-40.8"/>
</g>
<g id="clust5" class="cluster">
<title>cluster_PageTitleModule_exports</title>
<polygon fill="none" stroke="black" points="84,-170.8 84,-222.8 238,-222.8 238,-170.8 84,-170.8"/>
</g>
<!-- PageTitleComponent -->
<g id="node1" class="node">
<title>PageTitleComponent</title>
<polygon fill="#ffffb3" stroke="black" points="158.48,-84.8 23.52,-84.8 23.52,-48.8 158.48,-48.8 158.48,-84.8"/>
<text text-anchor="middle" x="91" y="-62.6" font-family="Times,serif" font-size="14.00">PageTitleComponent</text>
</g>
<!-- PageTitleModule -->
<g id="node2" class="node">
<title>PageTitleModule</title>
<polygon fill="#8dd3c7" stroke="black" points="217.7,-149.8 214.7,-153.8 193.7,-153.8 190.7,-149.8 104.3,-149.8 104.3,-113.8 217.7,-113.8 217.7,-149.8"/>
<text text-anchor="middle" x="161" y="-127.6" font-family="Times,serif" font-size="14.00">PageTitleModule</text>
</g>
<!-- PageTitleComponent&#45;&gt;PageTitleModule -->
<g id="edge1" class="edge">
<title>PageTitleComponent&#45;&gt;PageTitleModule</title>
<path fill="none" stroke="black" d="M131.44,-84.91C131.44,-84.91 131.44,-103.79 131.44,-103.79"/>
<polygon fill="black" stroke="black" points="127.94,-103.79 131.44,-113.79 134.94,-103.79 127.94,-103.79"/>
</g>
<!-- PageTitleComponent  -->
<g id="node4" class="node">
<title>PageTitleComponent </title>
<polygon fill="#fb8072" stroke="black" points="230.48,-214.8 91.52,-214.8 91.52,-178.8 230.48,-178.8 230.48,-214.8"/>
<text text-anchor="middle" x="161" y="-192.6" font-family="Times,serif" font-size="14.00">PageTitleComponent </text>
</g>
<!-- PageTitleModule&#45;&gt;PageTitleComponent  -->
<g id="edge3" class="edge">
<title>PageTitleModule&#45;&gt;PageTitleComponent </title>
<path fill="none" stroke="black" stroke-dasharray="5,2" d="M161,-149.91C161,-149.91 161,-168.79 161,-168.79"/>
<polygon fill="black" stroke="black" points="157.5,-168.79 161,-178.79 164.5,-168.79 157.5,-168.79"/>
</g>
<!-- PageMetaModule -->
<g id="node3" class="node">
<title>PageMetaModule</title>
<polygon fill="#8dd3c7" stroke="black" points="297.53,-84.8 294.53,-88.8 273.53,-88.8 270.53,-84.8 182.47,-84.8 182.47,-48.8 297.53,-48.8 297.53,-84.8"/>
<text text-anchor="middle" x="240" y="-62.6" font-family="Times,serif" font-size="14.00">PageMetaModule</text>
</g>
<!-- PageMetaModule&#45;&gt;PageTitleModule -->
<g id="edge2" class="edge">
<title>PageMetaModule&#45;&gt;PageTitleModule</title>
<path fill="none" stroke="black" d="M199.92,-84.91C199.92,-84.91 199.92,-103.79 199.92,-103.79"/>
<polygon fill="black" stroke="black" points="196.42,-103.79 199.92,-113.79 203.42,-103.79 196.42,-103.79"/>
</g>
</g>
</svg>
