<?xml version="1.0" encoding="UTF-8" standalone="no"?>
<!DOCTYPE svg PUBLIC "-//W3C//DTD SVG 1.1//EN"
 "http://www.w3.org/Graphics/SVG/1.1/DTD/svg11.dtd">
<!-- Generated by graphviz version 5.0.0 (20220707.1540)
 -->
<!-- Title: dependencies Pages: 1 -->
<svg width="228pt" height="174pt"
 viewBox="0.00 0.00 228.00 173.80" xmlns="http://www.w3.org/2000/svg" xmlns:xlink="http://www.w3.org/1999/xlink">
<g id="graph0" class="graph" transform="scale(1 1) rotate(0) translate(4 169.8)">
<title>dependencies</title>
<polygon fill="white" stroke="transparent" points="-4,4 -4,-169.8 224,-169.8 224,4 -4,4"/>
<text text-anchor="middle" x="110" y="-8.2" font-family="sans-serif" font-size="14.00">dependencies</text>
<g id="clust1" class="cluster">
<title>cluster_CheckoutB2BRootModule</title>
<polygon fill="none" stroke="black" stroke-dasharray="1,5" points="8,-32.8 8,-157.8 212,-157.8 212,-32.8 8,-32.8"/>
</g>
<g id="clust3" class="cluster">
<title>cluster_CheckoutB2BRootModule_imports</title>
<polygon fill="none" stroke="black" points="16,-40.8 16,-92.8 204,-92.8 204,-40.8 16,-40.8"/>
</g>
<!-- CheckoutB2BEventModule -->
<g id="node1" class="node">
<title>CheckoutB2BEventModule</title>
<polygon fill="#8dd3c7" stroke="black" points="195.54,-84.8 192.54,-88.8 171.54,-88.8 168.54,-84.8 24.46,-84.8 24.46,-48.8 195.54,-48.8 195.54,-84.8"/>
<text text-anchor="middle" x="110" y="-62.6" font-family="Times,serif" font-size="14.00">CheckoutB2BEventModule</text>
</g>
<!-- CheckoutB2BRootModule -->
<g id="node2" class="node">
<title>CheckoutB2BRootModule</title>
<polygon fill="#8dd3c7" stroke="black" points="193.11,-149.8 190.11,-153.8 169.11,-153.8 166.11,-149.8 26.89,-149.8 26.89,-113.8 193.11,-113.8 193.11,-149.8"/>
<text text-anchor="middle" x="110" y="-127.6" font-family="Times,serif" font-size="14.00">CheckoutB2BRootModule</text>
</g>
<!-- CheckoutB2BEventModule&#45;&gt;CheckoutB2BRootModule -->
<g id="edge1" class="edge">
<title>CheckoutB2BEventModule&#45;&gt;CheckoutB2BRootModule</title>
<path fill="none" stroke="black" d="M110,-84.91C110,-84.91 110,-103.79 110,-103.79"/>
<polygon fill="black" stroke="black" points="106.5,-103.79 110,-113.79 113.5,-103.79 106.5,-103.79"/>
</g>
</g>
</svg>
