<?xml version="1.0" encoding="UTF-8" standalone="no"?>
<!DOCTYPE svg PUBLIC "-//W3C//DTD SVG 1.1//EN"
 "http://www.w3.org/Graphics/SVG/1.1/DTD/svg11.dtd">
<!-- Generated by graphviz version 5.0.0 (20220707.1540)
 -->
<!-- Title: dependencies Pages: 1 -->
<svg width="973pt" height="174pt"
 viewBox="0.00 0.00 973.00 173.80" xmlns="http://www.w3.org/2000/svg" xmlns:xlink="http://www.w3.org/1999/xlink">
<g id="graph0" class="graph" transform="scale(1 1) rotate(0) translate(4 169.8)">
<title>dependencies</title>
<polygon fill="white" stroke="transparent" points="-4,4 -4,-169.8 969,-169.8 969,4 -4,4"/>
<text text-anchor="middle" x="482.5" y="-8.2" font-family="sans-serif" font-size="14.00">dependencies</text>
<g id="clust1" class="cluster">
<title>cluster_ProductVariantsComponentsModule</title>
<polygon fill="none" stroke="black" stroke-dasharray="1,5" points="8,-32.8 8,-157.8 957,-157.8 957,-32.8 8,-32.8"/>
</g>
<g id="clust3" class="cluster">
<title>cluster_ProductVariantsComponentsModule_imports</title>
<polygon fill="none" stroke="black" points="16,-40.8 16,-92.8 949,-92.8 949,-40.8 16,-40.8"/>
</g>
<!-- ProductVariantColorSelectorModule -->
<g id="node1" class="node">
<title>ProductVariantColorSelectorModule</title>
<polygon fill="#8dd3c7" stroke="black" points="941.34,-84.8 938.34,-88.8 917.34,-88.8 914.34,-84.8 718.66,-84.8 718.66,-48.8 941.34,-48.8 941.34,-84.8"/>
<text text-anchor="middle" x="830" y="-62.6" font-family="Times,serif" font-size="14.00">ProductVariantColorSelectorModule</text>
</g>
<!-- ProductVariantsComponentsModule -->
<g id="node5" class="node">
<title>ProductVariantsComponentsModule</title>
<polygon fill="#8dd3c7" stroke="black" points="585.81,-149.8 582.81,-153.8 561.81,-153.8 558.81,-149.8 364.19,-149.8 364.19,-113.8 585.81,-113.8 585.81,-149.8"/>
<text text-anchor="middle" x="475" y="-127.6" font-family="Times,serif" font-size="14.00">ProductVariantsComponentsModule</text>
</g>
<!-- ProductVariantColorSelectorModule&#45;&gt;ProductVariantsComponentsModule -->
<g id="edge1" class="edge">
<title>ProductVariantColorSelectorModule&#45;&gt;ProductVariantsComponentsModule</title>
<path fill="none" stroke="black" d="M830,-84.91C830,-104.14 830,-131.8 830,-131.8 830,-131.8 595.86,-131.8 595.86,-131.8"/>
<polygon fill="black" stroke="black" points="595.86,-128.3 585.86,-131.8 595.86,-135.3 595.86,-128.3"/>
</g>
<!-- ProductVariantSizeSelectorModule -->
<g id="node2" class="node">
<title>ProductVariantSizeSelectorModule</title>
<polygon fill="#8dd3c7" stroke="black" points="700.56,-84.8 697.56,-88.8 676.56,-88.8 673.56,-84.8 485.44,-84.8 485.44,-48.8 700.56,-48.8 700.56,-84.8"/>
<text text-anchor="middle" x="593" y="-62.6" font-family="Times,serif" font-size="14.00">ProductVariantSizeSelectorModule</text>
</g>
<!-- ProductVariantSizeSelectorModule&#45;&gt;ProductVariantsComponentsModule -->
<g id="edge2" class="edge">
<title>ProductVariantSizeSelectorModule&#45;&gt;ProductVariantsComponentsModule</title>
<path fill="none" stroke="black" d="M535.56,-84.91C535.56,-84.91 535.56,-103.79 535.56,-103.79"/>
<polygon fill="black" stroke="black" points="532.06,-103.79 535.56,-113.79 539.06,-103.79 532.06,-103.79"/>
</g>
<!-- ProductVariantStyleSelectorModule -->
<g id="node3" class="node">
<title>ProductVariantStyleSelectorModule</title>
<polygon fill="#8dd3c7" stroke="black" points="467.73,-84.8 464.73,-88.8 443.73,-88.8 440.73,-84.8 248.27,-84.8 248.27,-48.8 467.73,-48.8 467.73,-84.8"/>
<text text-anchor="middle" x="358" y="-62.6" font-family="Times,serif" font-size="14.00">ProductVariantStyleSelectorModule</text>
</g>
<!-- ProductVariantStyleSelectorModule&#45;&gt;ProductVariantsComponentsModule -->
<g id="edge3" class="edge">
<title>ProductVariantStyleSelectorModule&#45;&gt;ProductVariantsComponentsModule</title>
<path fill="none" stroke="black" d="M416.11,-84.91C416.11,-84.91 416.11,-103.79 416.11,-103.79"/>
<polygon fill="black" stroke="black" points="412.61,-103.79 416.11,-113.79 419.61,-103.79 412.61,-103.79"/>
</g>
<!-- ProductVariantsContainerModule -->
<g id="node4" class="node">
<title>ProductVariantsContainerModule</title>
<polygon fill="#8dd3c7" stroke="black" points="229.74,-84.8 226.74,-88.8 205.74,-88.8 202.74,-84.8 24.26,-84.8 24.26,-48.8 229.74,-48.8 229.74,-84.8"/>
<text text-anchor="middle" x="127" y="-62.6" font-family="Times,serif" font-size="14.00">ProductVariantsContainerModule</text>
</g>
<!-- ProductVariantsContainerModule&#45;&gt;ProductVariantsComponentsModule -->
<g id="edge4" class="edge">
<title>ProductVariantsContainerModule&#45;&gt;ProductVariantsComponentsModule</title>
<path fill="none" stroke="black" d="M127,-84.91C127,-104.14 127,-131.8 127,-131.8 127,-131.8 353.93,-131.8 353.93,-131.8"/>
<polygon fill="black" stroke="black" points="353.93,-135.3 363.93,-131.8 353.93,-128.3 353.93,-135.3"/>
</g>
</g>
</svg>
