<?xml version="1.0" encoding="UTF-8" standalone="no"?>
<!DOCTYPE svg PUBLIC "-//W3C//DTD SVG 1.1//EN"
 "http://www.w3.org/Graphics/SVG/1.1/DTD/svg11.dtd">
<!-- Generated by graphviz version 5.0.0 (20220707.1540)
 -->
<!-- Title: dependencies Pages: 1 -->
<svg width="838pt" height="247pt"
 viewBox="0.00 0.00 838.00 246.80" xmlns="http://www.w3.org/2000/svg" xmlns:xlink="http://www.w3.org/1999/xlink">
<g id="graph0" class="graph" transform="scale(1 1) rotate(0) translate(4 242.8)">
<title>dependencies</title>
<polygon fill="white" stroke="transparent" points="-4,4 -4,-242.8 834,-242.8 834,4 -4,4"/>
<text text-anchor="middle" x="415" y="-8.2" font-family="sans-serif" font-size="14.00">dependencies</text>
<g id="clust1" class="cluster">
<title>cluster_CancelOrderModule</title>
<polygon fill="none" stroke="black" stroke-dasharray="1,5" points="8,-32.8 8,-230.8 822,-230.8 822,-32.8 8,-32.8"/>
</g>
<g id="clust4" class="cluster">
<title>cluster_CancelOrderModule_imports</title>
<polygon fill="none" stroke="black" points="192,-40.8 192,-92.8 814,-92.8 814,-40.8 192,-40.8"/>
</g>
<g id="clust5" class="cluster">
<title>cluster_CancelOrderModule_exports</title>
<polygon fill="none" stroke="black" points="280,-170.8 280,-222.8 452,-222.8 452,-170.8 280,-170.8"/>
</g>
<g id="clust2" class="cluster">
<title>cluster_CancelOrderModule_declarations</title>
<polygon fill="none" stroke="black" points="16,-40.8 16,-92.8 184,-92.8 184,-40.8 16,-40.8"/>
</g>
<!-- CancelOrderComponent -->
<g id="node1" class="node">
<title>CancelOrderComponent</title>
<polygon fill="#ffffb3" stroke="black" points="176.35,-84.8 23.65,-84.8 23.65,-48.8 176.35,-48.8 176.35,-84.8"/>
<text text-anchor="middle" x="100" y="-62.6" font-family="Times,serif" font-size="14.00">CancelOrderComponent</text>
</g>
<!-- CancelOrderModule -->
<g id="node2" class="node">
<title>CancelOrderModule</title>
<polygon fill="#8dd3c7" stroke="black" points="431.57,-149.8 428.57,-153.8 407.57,-153.8 404.57,-149.8 300.43,-149.8 300.43,-113.8 431.57,-113.8 431.57,-149.8"/>
<text text-anchor="middle" x="366" y="-127.6" font-family="Times,serif" font-size="14.00">CancelOrderModule</text>
</g>
<!-- CancelOrderComponent&#45;&gt;CancelOrderModule -->
<g id="edge1" class="edge">
<title>CancelOrderComponent&#45;&gt;CancelOrderModule</title>
<path fill="none" stroke="black" d="M100,-85.08C100,-106.12 100,-137.8 100,-137.8 100,-137.8 290.25,-137.8 290.25,-137.8"/>
<polygon fill="black" stroke="black" points="290.25,-141.3 300.25,-137.8 290.25,-134.3 290.25,-141.3"/>
</g>
<!-- CancelOrderComponent  -->
<g id="node7" class="node">
<title>CancelOrderComponent </title>
<polygon fill="#fb8072" stroke="black" points="444.35,-214.8 287.65,-214.8 287.65,-178.8 444.35,-178.8 444.35,-214.8"/>
<text text-anchor="middle" x="366" y="-192.6" font-family="Times,serif" font-size="14.00">CancelOrderComponent </text>
</g>
<!-- CancelOrderModule&#45;&gt;CancelOrderComponent  -->
<g id="edge6" class="edge">
<title>CancelOrderModule&#45;&gt;CancelOrderComponent </title>
<path fill="none" stroke="black" stroke-dasharray="5,2" d="M366,-149.91C366,-149.91 366,-168.79 366,-168.79"/>
<polygon fill="black" stroke="black" points="362.5,-168.79 366,-178.79 369.5,-168.79 362.5,-168.79"/>
</g>
<!-- AmendOrderActionsModule -->
<g id="node3" class="node">
<title>AmendOrderActionsModule</title>
<polygon fill="#8dd3c7" stroke="black" points="806.47,-84.8 803.47,-88.8 782.47,-88.8 779.47,-84.8 629.53,-84.8 629.53,-48.8 806.47,-48.8 806.47,-84.8"/>
<text text-anchor="middle" x="718" y="-62.6" font-family="Times,serif" font-size="14.00">AmendOrderActionsModule</text>
</g>
<!-- AmendOrderActionsModule&#45;&gt;CancelOrderModule -->
<g id="edge2" class="edge">
<title>AmendOrderActionsModule&#45;&gt;CancelOrderModule</title>
<path fill="none" stroke="black" d="M718,-85.08C718,-106.12 718,-137.8 718,-137.8 718,-137.8 441.8,-137.8 441.8,-137.8"/>
<polygon fill="black" stroke="black" points="441.8,-134.3 431.8,-137.8 441.8,-141.3 441.8,-134.3"/>
</g>
<!-- AmendOrderItemsModule -->
<g id="node4" class="node">
<title>AmendOrderItemsModule</title>
<polygon fill="#8dd3c7" stroke="black" points="611.02,-84.8 608.02,-88.8 587.02,-88.8 584.02,-84.8 446.98,-84.8 446.98,-48.8 611.02,-48.8 611.02,-84.8"/>
<text text-anchor="middle" x="529" y="-62.6" font-family="Times,serif" font-size="14.00">AmendOrderItemsModule</text>
</g>
<!-- AmendOrderItemsModule&#45;&gt;CancelOrderModule -->
<g id="edge3" class="edge">
<title>AmendOrderItemsModule&#45;&gt;CancelOrderModule</title>
<path fill="none" stroke="black" d="M529,-84.82C529,-102.17 529,-125.8 529,-125.8 529,-125.8 441.83,-125.8 441.83,-125.8"/>
<polygon fill="black" stroke="black" points="441.83,-122.3 431.83,-125.8 441.83,-129.3 441.83,-122.3"/>
</g>
<!-- FormErrorsModule -->
<g id="node5" class="node">
<title>FormErrorsModule</title>
<polygon fill="#8dd3c7" stroke="black" points="428.38,-84.8 425.38,-88.8 404.38,-88.8 401.38,-84.8 303.62,-84.8 303.62,-48.8 428.38,-48.8 428.38,-84.8"/>
<text text-anchor="middle" x="366" y="-62.6" font-family="Times,serif" font-size="14.00">FormErrorsModule</text>
</g>
<!-- FormErrorsModule&#45;&gt;CancelOrderModule -->
<g id="edge4" class="edge">
<title>FormErrorsModule&#45;&gt;CancelOrderModule</title>
<path fill="none" stroke="black" d="M366,-84.91C366,-84.91 366,-103.79 366,-103.79"/>
<polygon fill="black" stroke="black" points="362.5,-103.79 366,-113.79 369.5,-103.79 362.5,-103.79"/>
</g>
<!-- I18nModule -->
<g id="node6" class="node">
<title>I18nModule</title>
<polygon fill="#8dd3c7" stroke="black" points="285.71,-84.8 282.71,-88.8 261.71,-88.8 258.71,-84.8 200.29,-84.8 200.29,-48.8 285.71,-48.8 285.71,-84.8"/>
<text text-anchor="middle" x="243" y="-62.6" font-family="Times,serif" font-size="14.00">I18nModule</text>
</g>
<!-- I18nModule&#45;&gt;CancelOrderModule -->
<g id="edge5" class="edge">
<title>I18nModule&#45;&gt;CancelOrderModule</title>
<path fill="none" stroke="black" d="M243,-84.82C243,-102.17 243,-125.8 243,-125.8 243,-125.8 290.18,-125.8 290.18,-125.8"/>
<polygon fill="black" stroke="black" points="290.18,-129.3 300.18,-125.8 290.18,-122.3 290.18,-129.3"/>
</g>
</g>
</svg>
