<?xml version="1.0" encoding="UTF-8" standalone="no"?>
<!DOCTYPE svg PUBLIC "-//W3C//DTD SVG 1.1//EN"
 "http://www.w3.org/Graphics/SVG/1.1/DTD/svg11.dtd">
<!-- Generated by graphviz version 5.0.0 (20220707.1540)
 -->
<!-- Title: dependencies Pages: 1 -->
<svg width="440pt" height="247pt"
 viewBox="0.00 0.00 440.00 246.80" xmlns="http://www.w3.org/2000/svg" xmlns:xlink="http://www.w3.org/1999/xlink">
<g id="graph0" class="graph" transform="scale(1 1) rotate(0) translate(4 242.8)">
<title>dependencies</title>
<polygon fill="white" stroke="transparent" points="-4,4 -4,-242.8 436,-242.8 436,4 -4,4"/>
<text text-anchor="middle" x="216" y="-8.2" font-family="sans-serif" font-size="14.00">dependencies</text>
<g id="clust1" class="cluster">
<title>cluster_OrderOverviewModule</title>
<polygon fill="none" stroke="black" stroke-dasharray="1,5" points="8,-32.8 8,-230.8 424,-230.8 424,-32.8 8,-32.8"/>
</g>
<g id="clust4" class="cluster">
<title>cluster_OrderOverviewModule_imports</title>
<polygon fill="none" stroke="black" points="210,-40.8 210,-92.8 416,-92.8 416,-40.8 210,-40.8"/>
</g>
<g id="clust5" class="cluster">
<title>cluster_OrderOverviewModule_exports</title>
<polygon fill="none" stroke="black" points="167,-170.8 167,-222.8 355,-222.8 355,-170.8 167,-170.8"/>
</g>
<g id="clust2" class="cluster">
<title>cluster_OrderOverviewModule_declarations</title>
<polygon fill="none" stroke="black" points="16,-40.8 16,-92.8 202,-92.8 202,-40.8 16,-40.8"/>
</g>
<!-- OrderOverviewComponent -->
<g id="node1" class="node">
<title>OrderOverviewComponent</title>
<polygon fill="#ffffb3" stroke="black" points="193.68,-84.8 24.32,-84.8 24.32,-48.8 193.68,-48.8 193.68,-84.8"/>
<text text-anchor="middle" x="109" y="-62.6" font-family="Times,serif" font-size="14.00">OrderOverviewComponent</text>
</g>
<!-- OrderOverviewModule -->
<g id="node2" class="node">
<title>OrderOverviewModule</title>
<polygon fill="#8dd3c7" stroke="black" points="334.9,-149.8 331.9,-153.8 310.9,-153.8 307.9,-149.8 187.1,-149.8 187.1,-113.8 334.9,-113.8 334.9,-149.8"/>
<text text-anchor="middle" x="261" y="-127.6" font-family="Times,serif" font-size="14.00">OrderOverviewModule</text>
</g>
<!-- OrderOverviewComponent&#45;&gt;OrderOverviewModule -->
<g id="edge1" class="edge">
<title>OrderOverviewComponent&#45;&gt;OrderOverviewModule</title>
<path fill="none" stroke="black" d="M180.98,-84.91C180.98,-104.14 180.98,-131.8 180.98,-131.8 180.98,-131.8 181.61,-131.8 181.61,-131.8"/>
<polygon fill="black" stroke="black" points="177.26,-135.3 187.26,-131.8 177.26,-128.3 177.26,-135.3"/>
</g>
<!-- OrderOverviewComponent  -->
<g id="node5" class="node">
<title>OrderOverviewComponent </title>
<polygon fill="#fb8072" stroke="black" points="347.18,-214.8 174.82,-214.8 174.82,-178.8 347.18,-178.8 347.18,-214.8"/>
<text text-anchor="middle" x="261" y="-192.6" font-family="Times,serif" font-size="14.00">OrderOverviewComponent </text>
</g>
<!-- OrderOverviewModule&#45;&gt;OrderOverviewComponent  -->
<g id="edge4" class="edge">
<title>OrderOverviewModule&#45;&gt;OrderOverviewComponent </title>
<path fill="none" stroke="black" stroke-dasharray="5,2" d="M261,-149.91C261,-149.91 261,-168.79 261,-168.79"/>
<polygon fill="black" stroke="black" points="257.5,-168.79 261,-178.79 264.5,-168.79 257.5,-168.79"/>
</g>
<!-- CardModule -->
<g id="node3" class="node">
<title>CardModule</title>
<polygon fill="#8dd3c7" stroke="black" points="408.27,-84.8 405.27,-88.8 384.27,-88.8 381.27,-84.8 321.73,-84.8 321.73,-48.8 408.27,-48.8 408.27,-84.8"/>
<text text-anchor="middle" x="365" y="-62.6" font-family="Times,serif" font-size="14.00">CardModule</text>
</g>
<!-- CardModule&#45;&gt;OrderOverviewModule -->
<g id="edge2" class="edge">
<title>CardModule&#45;&gt;OrderOverviewModule</title>
<path fill="none" stroke="black" d="M328.16,-84.91C328.16,-84.91 328.16,-103.79 328.16,-103.79"/>
<polygon fill="black" stroke="black" points="324.66,-103.79 328.16,-113.79 331.66,-103.79 324.66,-103.79"/>
</g>
<!-- I18nModule -->
<g id="node4" class="node">
<title>I18nModule</title>
<polygon fill="#8dd3c7" stroke="black" points="303.71,-84.8 300.71,-88.8 279.71,-88.8 276.71,-84.8 218.29,-84.8 218.29,-48.8 303.71,-48.8 303.71,-84.8"/>
<text text-anchor="middle" x="261" y="-62.6" font-family="Times,serif" font-size="14.00">I18nModule</text>
</g>
<!-- I18nModule&#45;&gt;OrderOverviewModule -->
<g id="edge3" class="edge">
<title>I18nModule&#45;&gt;OrderOverviewModule</title>
<path fill="none" stroke="black" d="M261,-84.91C261,-84.91 261,-103.79 261,-103.79"/>
<polygon fill="black" stroke="black" points="257.5,-103.79 261,-113.79 264.5,-103.79 257.5,-103.79"/>
</g>
</g>
</svg>
