<?xml version="1.0" encoding="UTF-8" standalone="no"?>
<!DOCTYPE svg PUBLIC "-//W3C//DTD SVG 1.1//EN"
 "http://www.w3.org/Graphics/SVG/1.1/DTD/svg11.dtd">
<!-- Generated by graphviz version 5.0.0 (20220707.1540)
 -->
<!-- Title: dependencies Pages: 1 -->
<svg width="440pt" height="247pt"
 viewBox="0.00 0.00 440.00 246.80" xmlns="http://www.w3.org/2000/svg" xmlns:xlink="http://www.w3.org/1999/xlink">
<g id="graph0" class="graph" transform="scale(1 1) rotate(0) translate(4 242.8)">
<title>dependencies</title>
<polygon fill="white" stroke="transparent" points="-4,4 -4,-242.8 436,-242.8 436,4 -4,4"/>
<text text-anchor="middle" x="216" y="-8.2" font-family="sans-serif" font-size="14.00">dependencies</text>
<g id="clust1" class="cluster">
<title>cluster_OrderOverviewModule</title>
<polygon fill="none" stroke="black" stroke-dasharray="1,5" points="8,-32.8 8,-230.8 424,-230.8 424,-32.8 8,-32.8"/>
</g>
<g id="clust2" class="cluster">
<title>cluster_OrderOverviewModule_declarations</title>
<polygon fill="none" stroke="black" points="230,-40.8 230,-92.8 416,-92.8 416,-40.8 230,-40.8"/>
</g>
<g id="clust5" class="cluster">
<title>cluster_OrderOverviewModule_exports</title>
<polygon fill="none" stroke="black" points="77,-170.8 77,-222.8 265,-222.8 265,-170.8 77,-170.8"/>
</g>
<g id="clust4" class="cluster">
<title>cluster_OrderOverviewModule_imports</title>
<polygon fill="none" stroke="black" points="16,-40.8 16,-92.8 222,-92.8 222,-40.8 16,-40.8"/>
</g>
<!-- OrderOverviewComponent -->
<g id="node1" class="node">
<title>OrderOverviewComponent</title>
<polygon fill="#ffffb3" stroke="black" points="407.68,-84.8 238.32,-84.8 238.32,-48.8 407.68,-48.8 407.68,-84.8"/>
<text text-anchor="middle" x="323" y="-62.6" font-family="Times,serif" font-size="14.00">OrderOverviewComponent</text>
</g>
<!-- OrderOverviewModule -->
<g id="node2" class="node">
<title>OrderOverviewModule</title>
<polygon fill="#8dd3c7" stroke="black" points="244.9,-149.8 241.9,-153.8 220.9,-153.8 217.9,-149.8 97.1,-149.8 97.1,-113.8 244.9,-113.8 244.9,-149.8"/>
<text text-anchor="middle" x="171" y="-127.6" font-family="Times,serif" font-size="14.00">OrderOverviewModule</text>
</g>
<!-- OrderOverviewComponent&#45;&gt;OrderOverviewModule -->
<g id="edge1" class="edge">
<title>OrderOverviewComponent&#45;&gt;OrderOverviewModule</title>
<path fill="none" stroke="black" d="M251.02,-84.91C251.02,-104.14 251.02,-131.8 251.02,-131.8 251.02,-131.8 250.39,-131.8 250.39,-131.8"/>
<polygon fill="black" stroke="black" points="254.74,-128.3 244.74,-131.8 254.74,-135.3 254.74,-128.3"/>
</g>
<!-- OrderOverviewComponent  -->
<g id="node5" class="node">
<title>OrderOverviewComponent </title>
<polygon fill="#fb8072" stroke="black" points="257.18,-214.8 84.82,-214.8 84.82,-178.8 257.18,-178.8 257.18,-214.8"/>
<text text-anchor="middle" x="171" y="-192.6" font-family="Times,serif" font-size="14.00">OrderOverviewComponent </text>
</g>
<!-- OrderOverviewModule&#45;&gt;OrderOverviewComponent  -->
<g id="edge4" class="edge">
<title>OrderOverviewModule&#45;&gt;OrderOverviewComponent </title>
<path fill="none" stroke="black" stroke-dasharray="5,2" d="M171,-149.91C171,-149.91 171,-168.79 171,-168.79"/>
<polygon fill="black" stroke="black" points="167.5,-168.79 171,-178.79 174.5,-168.79 167.5,-168.79"/>
</g>
<!-- CardModule -->
<g id="node3" class="node">
<title>CardModule</title>
<polygon fill="#8dd3c7" stroke="black" points="214.27,-84.8 211.27,-88.8 190.27,-88.8 187.27,-84.8 127.73,-84.8 127.73,-48.8 214.27,-48.8 214.27,-84.8"/>
<text text-anchor="middle" x="171" y="-62.6" font-family="Times,serif" font-size="14.00">CardModule</text>
</g>
<!-- CardModule&#45;&gt;OrderOverviewModule -->
<g id="edge2" class="edge">
<title>CardModule&#45;&gt;OrderOverviewModule</title>
<path fill="none" stroke="black" d="M171,-84.91C171,-84.91 171,-103.79 171,-103.79"/>
<polygon fill="black" stroke="black" points="167.5,-103.79 171,-113.79 174.5,-103.79 167.5,-103.79"/>
</g>
<!-- I18nModule -->
<g id="node4" class="node">
<title>I18nModule</title>
<polygon fill="#8dd3c7" stroke="black" points="109.71,-84.8 106.71,-88.8 85.71,-88.8 82.71,-84.8 24.29,-84.8 24.29,-48.8 109.71,-48.8 109.71,-84.8"/>
<text text-anchor="middle" x="67" y="-62.6" font-family="Times,serif" font-size="14.00">I18nModule</text>
</g>
<!-- I18nModule&#45;&gt;OrderOverviewModule -->
<g id="edge3" class="edge">
<title>I18nModule&#45;&gt;OrderOverviewModule</title>
<path fill="none" stroke="black" d="M103.45,-84.91C103.45,-84.91 103.45,-103.79 103.45,-103.79"/>
<polygon fill="black" stroke="black" points="99.95,-103.79 103.45,-113.79 106.95,-103.79 99.95,-103.79"/>
</g>
</g>
</svg>
