<?xml version="1.0" encoding="UTF-8" standalone="no"?>
<!DOCTYPE svg PUBLIC "-//W3C//DTD SVG 1.1//EN"
 "http://www.w3.org/Graphics/SVG/1.1/DTD/svg11.dtd">
<!-- Generated by graphviz version 5.0.0 (20220707.1540)
 -->
<!-- Title: dependencies Pages: 1 -->
<svg width="1720pt" height="174pt"
 viewBox="0.00 0.00 1720.00 173.80" xmlns="http://www.w3.org/2000/svg" xmlns:xlink="http://www.w3.org/1999/xlink">
<g id="graph0" class="graph" transform="scale(1 1) rotate(0) translate(4 169.8)">
<title>dependencies</title>
<polygon fill="white" stroke="transparent" points="-4,4 -4,-169.8 1716,-169.8 1716,4 -4,4"/>
<text text-anchor="middle" x="856" y="-8.2" font-family="sans-serif" font-size="14.00">dependencies</text>
<g id="clust1" class="cluster">
<title>cluster_OrderCoreModule</title>
<polygon fill="none" stroke="black" stroke-dasharray="1,5" points="8,-32.8 8,-157.8 1704,-157.8 1704,-32.8 8,-32.8"/>
</g>
<g id="clust3" class="cluster">
<title>cluster_OrderCoreModule_imports</title>
<polygon fill="none" stroke="black" points="1558,-40.8 1558,-92.8 1696,-92.8 1696,-40.8 1558,-40.8"/>
</g>
<g id="clust6" class="cluster">
<title>cluster_OrderCoreModule_providers</title>
<polygon fill="none" stroke="black" points="16,-40.8 16,-92.8 1550,-92.8 1550,-40.8 16,-40.8"/>
</g>
<!-- OrderStoreModule -->
<g id="node1" class="node">
<title>OrderStoreModule</title>
<polygon fill="#8dd3c7" stroke="black" points="1687.75,-84.8 1684.75,-88.8 1663.75,-88.8 1660.75,-84.8 1566.25,-84.8 1566.25,-48.8 1687.75,-48.8 1687.75,-84.8"/>
<text text-anchor="middle" x="1627" y="-62.6" font-family="Times,serif" font-size="14.00">OrderStoreModule</text>
</g>
<!-- OrderCoreModule -->
<g id="node2" class="node">
<title>OrderCoreModule</title>
<polygon fill="#8dd3c7" stroke="black" points="1082.91,-149.8 1079.91,-153.8 1058.91,-153.8 1055.91,-149.8 963.09,-149.8 963.09,-113.8 1082.91,-113.8 1082.91,-149.8"/>
<text text-anchor="middle" x="1023" y="-127.6" font-family="Times,serif" font-size="14.00">OrderCoreModule</text>
</g>
<!-- OrderStoreModule&#45;&gt;OrderCoreModule -->
<g id="edge1" class="edge">
<title>OrderStoreModule&#45;&gt;OrderCoreModule</title>
<path fill="none" stroke="black" d="M1627,-85.09C1627,-107.01 1627,-140.8 1627,-140.8 1627,-140.8 1092.84,-140.8 1092.84,-140.8"/>
<polygon fill="black" stroke="black" points="1092.84,-137.3 1082.84,-140.8 1092.84,-144.3 1092.84,-137.3"/>
</g>
<!-- AsmBindCartService -->
<g id="node3" class="node">
<title>AsmBindCartService</title>
<ellipse fill="#fdb462" stroke="black" cx="1448" cy="-66.8" rx="93.79" ry="18"/>
<text text-anchor="middle" x="1448" y="-62.6" font-family="Times,serif" font-size="14.00">AsmBindCartService</text>
</g>
<!-- AsmBindCartService&#45;&gt;OrderCoreModule -->
<g id="edge2" class="edge">
<title>AsmBindCartService&#45;&gt;OrderCoreModule</title>
<path fill="none" stroke="black" d="M1448,-84.91C1448,-104.14 1448,-131.8 1448,-131.8 1448,-131.8 1092.99,-131.8 1092.99,-131.8"/>
<polygon fill="black" stroke="black" points="1092.99,-128.3 1082.99,-131.8 1092.99,-135.3 1092.99,-128.3"/>
</g>
<!-- AsmCustomerListService -->
<g id="node4" class="node">
<title>AsmCustomerListService</title>
<ellipse fill="#fdb462" stroke="black" cx="1226" cy="-66.8" rx="110.63" ry="18"/>
<text text-anchor="middle" x="1226" y="-62.6" font-family="Times,serif" font-size="14.00">AsmCustomerListService</text>
</g>
<!-- AsmCustomerListService&#45;&gt;OrderCoreModule -->
<g id="edge3" class="edge">
<title>AsmCustomerListService&#45;&gt;OrderCoreModule</title>
<path fill="none" stroke="black" d="M1226,-84.83C1226,-101.2 1226,-122.8 1226,-122.8 1226,-122.8 1092.81,-122.8 1092.81,-122.8"/>
<polygon fill="black" stroke="black" points="1092.81,-119.3 1082.81,-122.8 1092.81,-126.3 1092.81,-119.3"/>
</g>
<!-- OrderConnector -->
<g id="node5" class="node">
<title>OrderConnector</title>
<ellipse fill="#fdb462" stroke="black" cx="1023" cy="-66.8" rx="73.57" ry="18"/>
<text text-anchor="middle" x="1023" y="-62.6" font-family="Times,serif" font-size="14.00">OrderConnector</text>
</g>
<!-- OrderConnector&#45;&gt;OrderCoreModule -->
<g id="edge4" class="edge">
<title>OrderConnector&#45;&gt;OrderCoreModule</title>
<path fill="none" stroke="black" d="M1023,-84.91C1023,-84.91 1023,-103.79 1023,-103.79"/>
<polygon fill="black" stroke="black" points="1019.5,-103.79 1023,-113.79 1026.5,-103.79 1019.5,-103.79"/>
</g>
<!-- OrderHistoryConnector -->
<g id="node6" class="node">
<title>OrderHistoryConnector</title>
<ellipse fill="#fdb462" stroke="black" cx="828" cy="-66.8" rx="102.51" ry="18"/>
<text text-anchor="middle" x="828" y="-62.6" font-family="Times,serif" font-size="14.00">OrderHistoryConnector</text>
</g>
<!-- OrderHistoryConnector&#45;&gt;OrderCoreModule -->
<g id="edge5" class="edge">
<title>OrderHistoryConnector&#45;&gt;OrderCoreModule</title>
<path fill="none" stroke="black" d="M828,-84.83C828,-101.2 828,-122.8 828,-122.8 828,-122.8 953.17,-122.8 953.17,-122.8"/>
<polygon fill="black" stroke="black" points="953.17,-126.3 963.17,-122.8 953.17,-119.3 953.17,-126.3"/>
</g>
<!-- ReplenishmentOrderHistoryConnector -->
<g id="node7" class="node">
<title>ReplenishmentOrderHistoryConnector</title>
<ellipse fill="#fdb462" stroke="black" cx="547" cy="-66.8" rx="160.87" ry="18"/>
<text text-anchor="middle" x="547" y="-62.6" font-family="Times,serif" font-size="14.00">ReplenishmentOrderHistoryConnector</text>
</g>
<!-- ReplenishmentOrderHistoryConnector&#45;&gt;OrderCoreModule -->
<g id="edge6" class="edge">
<title>ReplenishmentOrderHistoryConnector&#45;&gt;OrderCoreModule</title>
<path fill="none" stroke="black" d="M547,-84.91C547,-104.14 547,-131.8 547,-131.8 547,-131.8 953.2,-131.8 953.2,-131.8"/>
<polygon fill="black" stroke="black" points="953.2,-135.3 963.2,-131.8 953.2,-128.3 953.2,-135.3"/>
</g>
<!-- ScheduledReplenishmentOrderConnector -->
<g id="node8" class="node">
<title>ScheduledReplenishmentOrderConnector</title>
<ellipse fill="#fdb462" stroke="black" cx="196" cy="-66.8" rx="171.88" ry="18"/>
<text text-anchor="middle" x="196" y="-62.6" font-family="Times,serif" font-size="14.00">ScheduledReplenishmentOrderConnector</text>
</g>
<!-- ScheduledReplenishmentOrderConnector&#45;&gt;OrderCoreModule -->
<g id="edge7" class="edge">
<title>ScheduledReplenishmentOrderConnector&#45;&gt;OrderCoreModule</title>
<path fill="none" stroke="black" d="M196,-85.09C196,-107.01 196,-140.8 196,-140.8 196,-140.8 953.19,-140.8 953.19,-140.8"/>
<polygon fill="black" stroke="black" points="953.19,-144.3 963.19,-140.8 953.19,-137.3 953.19,-144.3"/>
</g>
</g>
</svg>
