<?xml version="1.0" encoding="UTF-8" standalone="no"?>
<!DOCTYPE svg PUBLIC "-//W3C//DTD SVG 1.1//EN"
 "http://www.w3.org/Graphics/SVG/1.1/DTD/svg11.dtd">
<!-- Generated by graphviz version 5.0.0 (20220707.1540)
 -->
<!-- Title: dependencies Pages: 1 -->
<svg width="1720pt" height="174pt"
 viewBox="0.00 0.00 1720.00 173.80" xmlns="http://www.w3.org/2000/svg" xmlns:xlink="http://www.w3.org/1999/xlink">
<g id="graph0" class="graph" transform="scale(1 1) rotate(0) translate(4 169.8)">
<title>dependencies</title>
<polygon fill="white" stroke="transparent" points="-4,4 -4,-169.8 1716,-169.8 1716,4 -4,4"/>
<text text-anchor="middle" x="856" y="-8.2" font-family="sans-serif" font-size="14.00">dependencies</text>
<g id="clust1" class="cluster">
<title>cluster_OrderCoreModule</title>
<polygon fill="none" stroke="black" stroke-dasharray="1,5" points="8,-32.8 8,-157.8 1704,-157.8 1704,-32.8 8,-32.8"/>
</g>
<g id="clust6" class="cluster">
<title>cluster_OrderCoreModule_providers</title>
<polygon fill="none" stroke="black" points="162,-40.8 162,-92.8 1696,-92.8 1696,-40.8 162,-40.8"/>
</g>
<g id="clust3" class="cluster">
<title>cluster_OrderCoreModule_imports</title>
<polygon fill="none" stroke="black" points="16,-40.8 16,-92.8 154,-92.8 154,-40.8 16,-40.8"/>
</g>
<!-- OrderStoreModule -->
<g id="node1" class="node">
<title>OrderStoreModule</title>
<polygon fill="#8dd3c7" stroke="black" points="145.75,-84.8 142.75,-88.8 121.75,-88.8 118.75,-84.8 24.25,-84.8 24.25,-48.8 145.75,-48.8 145.75,-84.8"/>
<text text-anchor="middle" x="85" y="-62.6" font-family="Times,serif" font-size="14.00">OrderStoreModule</text>
</g>
<!-- OrderCoreModule -->
<g id="node2" class="node">
<title>OrderCoreModule</title>
<polygon fill="#8dd3c7" stroke="black" points="1033.91,-149.8 1030.91,-153.8 1009.91,-153.8 1006.91,-149.8 914.09,-149.8 914.09,-113.8 1033.91,-113.8 1033.91,-149.8"/>
<text text-anchor="middle" x="974" y="-127.6" font-family="Times,serif" font-size="14.00">OrderCoreModule</text>
</g>
<!-- OrderStoreModule&#45;&gt;OrderCoreModule -->
<g id="edge1" class="edge">
<title>OrderStoreModule&#45;&gt;OrderCoreModule</title>
<path fill="none" stroke="black" d="M85,-85.09C85,-107.01 85,-140.8 85,-140.8 85,-140.8 904.29,-140.8 904.29,-140.8"/>
<polygon fill="black" stroke="black" points="904.29,-144.3 914.29,-140.8 904.29,-137.3 904.29,-144.3"/>
</g>
<!-- AsmBindCartService -->
<g id="node3" class="node">
<title>AsmBindCartService</title>
<ellipse fill="#fdb462" stroke="black" cx="1594" cy="-66.8" rx="93.79" ry="18"/>
<text text-anchor="middle" x="1594" y="-62.6" font-family="Times,serif" font-size="14.00">AsmBindCartService</text>
</g>
<!-- AsmBindCartService&#45;&gt;OrderCoreModule -->
<g id="edge2" class="edge">
<title>AsmBindCartService&#45;&gt;OrderCoreModule</title>
<path fill="none" stroke="black" d="M1594,-85.09C1594,-107.01 1594,-140.8 1594,-140.8 1594,-140.8 1043.73,-140.8 1043.73,-140.8"/>
<polygon fill="black" stroke="black" points="1043.73,-137.3 1033.73,-140.8 1043.73,-144.3 1043.73,-137.3"/>
</g>
<!-- AsmCustomerListService -->
<g id="node4" class="node">
<title>AsmCustomerListService</title>
<ellipse fill="#fdb462" stroke="black" cx="1372" cy="-66.8" rx="110.63" ry="18"/>
<text text-anchor="middle" x="1372" y="-62.6" font-family="Times,serif" font-size="14.00">AsmCustomerListService</text>
</g>
<!-- AsmCustomerListService&#45;&gt;OrderCoreModule -->
<g id="edge3" class="edge">
<title>AsmCustomerListService&#45;&gt;OrderCoreModule</title>
<path fill="none" stroke="black" d="M1372,-84.91C1372,-104.14 1372,-131.8 1372,-131.8 1372,-131.8 1044.02,-131.8 1044.02,-131.8"/>
<polygon fill="black" stroke="black" points="1044.02,-128.3 1034.02,-131.8 1044.02,-135.3 1044.02,-128.3"/>
</g>
<!-- OrderConnector -->
<g id="node5" class="node">
<title>OrderConnector</title>
<ellipse fill="#fdb462" stroke="black" cx="1169" cy="-66.8" rx="73.57" ry="18"/>
<text text-anchor="middle" x="1169" y="-62.6" font-family="Times,serif" font-size="14.00">OrderConnector</text>
</g>
<!-- OrderConnector&#45;&gt;OrderCoreModule -->
<g id="edge4" class="edge">
<title>OrderConnector&#45;&gt;OrderCoreModule</title>
<path fill="none" stroke="black" d="M1169,-84.83C1169,-101.2 1169,-122.8 1169,-122.8 1169,-122.8 1043.83,-122.8 1043.83,-122.8"/>
<polygon fill="black" stroke="black" points="1043.83,-119.3 1033.83,-122.8 1043.83,-126.3 1043.83,-119.3"/>
</g>
<!-- OrderHistoryConnector -->
<g id="node6" class="node">
<title>OrderHistoryConnector</title>
<ellipse fill="#fdb462" stroke="black" cx="974" cy="-66.8" rx="102.51" ry="18"/>
<text text-anchor="middle" x="974" y="-62.6" font-family="Times,serif" font-size="14.00">OrderHistoryConnector</text>
</g>
<!-- OrderHistoryConnector&#45;&gt;OrderCoreModule -->
<g id="edge5" class="edge">
<title>OrderHistoryConnector&#45;&gt;OrderCoreModule</title>
<path fill="none" stroke="black" d="M974,-84.91C974,-84.91 974,-103.79 974,-103.79"/>
<polygon fill="black" stroke="black" points="970.5,-103.79 974,-113.79 977.5,-103.79 970.5,-103.79"/>
</g>
<!-- ReplenishmentOrderHistoryConnector -->
<g id="node7" class="node">
<title>ReplenishmentOrderHistoryConnector</title>
<ellipse fill="#fdb462" stroke="black" cx="693" cy="-66.8" rx="160.87" ry="18"/>
<text text-anchor="middle" x="693" y="-62.6" font-family="Times,serif" font-size="14.00">ReplenishmentOrderHistoryConnector</text>
</g>
<!-- ReplenishmentOrderHistoryConnector&#45;&gt;OrderCoreModule -->
<g id="edge6" class="edge">
<title>ReplenishmentOrderHistoryConnector&#45;&gt;OrderCoreModule</title>
<path fill="none" stroke="black" d="M693,-84.83C693,-101.2 693,-122.8 693,-122.8 693,-122.8 904.06,-122.8 904.06,-122.8"/>
<polygon fill="black" stroke="black" points="904.06,-126.3 914.06,-122.8 904.06,-119.3 904.06,-126.3"/>
</g>
<!-- ScheduledReplenishmentOrderConnector -->
<g id="node8" class="node">
<title>ScheduledReplenishmentOrderConnector</title>
<ellipse fill="#fdb462" stroke="black" cx="342" cy="-66.8" rx="171.88" ry="18"/>
<text text-anchor="middle" x="342" y="-62.6" font-family="Times,serif" font-size="14.00">ScheduledReplenishmentOrderConnector</text>
</g>
<!-- ScheduledReplenishmentOrderConnector&#45;&gt;OrderCoreModule -->
<g id="edge7" class="edge">
<title>ScheduledReplenishmentOrderConnector&#45;&gt;OrderCoreModule</title>
<path fill="none" stroke="black" d="M342,-84.91C342,-104.14 342,-131.8 342,-131.8 342,-131.8 904.26,-131.8 904.26,-131.8"/>
<polygon fill="black" stroke="black" points="904.26,-135.3 914.26,-131.8 904.26,-128.3 904.26,-135.3"/>
</g>
</g>
</svg>
