<?xml version="1.0" encoding="UTF-8" standalone="no"?>
<!DOCTYPE svg PUBLIC "-//W3C//DTD SVG 1.1//EN"
 "http://www.w3.org/Graphics/SVG/1.1/DTD/svg11.dtd">
<!-- Generated by graphviz version 5.0.0 (20220707.1540)
 -->
<!-- Title: dependencies Pages: 1 -->
<svg width="488pt" height="247pt"
 viewBox="0.00 0.00 488.00 246.80" xmlns="http://www.w3.org/2000/svg" xmlns:xlink="http://www.w3.org/1999/xlink">
<g id="graph0" class="graph" transform="scale(1 1) rotate(0) translate(4 242.8)">
<title>dependencies</title>
<polygon fill="white" stroke="transparent" points="-4,4 -4,-242.8 484,-242.8 484,4 -4,4"/>
<text text-anchor="middle" x="240" y="-8.2" font-family="sans-serif" font-size="14.00">dependencies</text>
<g id="clust1" class="cluster">
<title>cluster_ProductVariantStyleIconsModule</title>
<polygon fill="none" stroke="black" stroke-dasharray="1,5" points="8,-32.8 8,-230.8 472,-230.8 472,-32.8 8,-32.8"/>
</g>
<g id="clust4" class="cluster">
<title>cluster_ProductVariantStyleIconsModule_imports</title>
<polygon fill="none" stroke="black" points="266,-40.8 266,-92.8 464,-92.8 464,-40.8 266,-40.8"/>
</g>
<g id="clust5" class="cluster">
<title>cluster_ProductVariantStyleIconsModule_exports</title>
<polygon fill="none" stroke="black" points="190,-170.8 190,-222.8 436,-222.8 436,-170.8 190,-170.8"/>
</g>
<g id="clust2" class="cluster">
<title>cluster_ProductVariantStyleIconsModule_declarations</title>
<polygon fill="none" stroke="black" points="16,-40.8 16,-92.8 258,-92.8 258,-40.8 16,-40.8"/>
</g>
<!-- ProductVariantStyleIconsComponent -->
<g id="node1" class="node">
<title>ProductVariantStyleIconsComponent</title>
<polygon fill="#ffffb3" stroke="black" points="249.97,-84.8 24.03,-84.8 24.03,-48.8 249.97,-48.8 249.97,-84.8"/>
<text text-anchor="middle" x="137" y="-62.6" font-family="Times,serif" font-size="14.00">ProductVariantStyleIconsComponent</text>
</g>
<!-- ProductVariantStyleIconsModule -->
<g id="node2" class="node">
<title>ProductVariantStyleIconsModule</title>
<polygon fill="#8dd3c7" stroke="black" points="415.19,-149.8 412.19,-153.8 391.19,-153.8 388.19,-149.8 210.81,-149.8 210.81,-113.8 415.19,-113.8 415.19,-149.8"/>
<text text-anchor="middle" x="313" y="-127.6" font-family="Times,serif" font-size="14.00">ProductVariantStyleIconsModule</text>
</g>
<!-- ProductVariantStyleIconsComponent&#45;&gt;ProductVariantStyleIconsModule -->
<g id="edge1" class="edge">
<title>ProductVariantStyleIconsComponent&#45;&gt;ProductVariantStyleIconsModule</title>
<path fill="none" stroke="black" d="M230.44,-84.91C230.44,-84.91 230.44,-103.79 230.44,-103.79"/>
<polygon fill="black" stroke="black" points="226.94,-103.79 230.44,-113.79 233.94,-103.79 226.94,-103.79"/>
</g>
<!-- ProductVariantStyleIconsComponent  -->
<g id="node5" class="node">
<title>ProductVariantStyleIconsComponent </title>
<polygon fill="#fb8072" stroke="black" points="427.97,-214.8 198.03,-214.8 198.03,-178.8 427.97,-178.8 427.97,-214.8"/>
<text text-anchor="middle" x="313" y="-192.6" font-family="Times,serif" font-size="14.00">ProductVariantStyleIconsComponent </text>
</g>
<!-- ProductVariantStyleIconsModule&#45;&gt;ProductVariantStyleIconsComponent  -->
<g id="edge4" class="edge">
<title>ProductVariantStyleIconsModule&#45;&gt;ProductVariantStyleIconsComponent </title>
<path fill="none" stroke="black" stroke-dasharray="5,2" d="M313,-149.91C313,-149.91 313,-168.79 313,-168.79"/>
<polygon fill="black" stroke="black" points="309.5,-168.79 313,-178.79 316.5,-168.79 309.5,-168.79"/>
</g>
<!-- I18nModule -->
<g id="node3" class="node">
<title>I18nModule</title>
<polygon fill="#8dd3c7" stroke="black" points="455.71,-84.8 452.71,-88.8 431.71,-88.8 428.71,-84.8 370.29,-84.8 370.29,-48.8 455.71,-48.8 455.71,-84.8"/>
<text text-anchor="middle" x="413" y="-62.6" font-family="Times,serif" font-size="14.00">I18nModule</text>
</g>
<!-- I18nModule&#45;&gt;ProductVariantStyleIconsModule -->
<g id="edge2" class="edge">
<title>I18nModule&#45;&gt;ProductVariantStyleIconsModule</title>
<path fill="none" stroke="black" d="M392.74,-84.91C392.74,-84.91 392.74,-103.79 392.74,-103.79"/>
<polygon fill="black" stroke="black" points="389.24,-103.79 392.74,-113.79 396.24,-103.79 389.24,-103.79"/>
</g>
<!-- UrlModule -->
<g id="node4" class="node">
<title>UrlModule</title>
<polygon fill="#8dd3c7" stroke="black" points="352.21,-84.8 349.21,-88.8 328.21,-88.8 325.21,-84.8 273.79,-84.8 273.79,-48.8 352.21,-48.8 352.21,-84.8"/>
<text text-anchor="middle" x="313" y="-62.6" font-family="Times,serif" font-size="14.00">UrlModule</text>
</g>
<!-- UrlModule&#45;&gt;ProductVariantStyleIconsModule -->
<g id="edge3" class="edge">
<title>UrlModule&#45;&gt;ProductVariantStyleIconsModule</title>
<path fill="none" stroke="black" d="M313,-84.91C313,-84.91 313,-103.79 313,-103.79"/>
<polygon fill="black" stroke="black" points="309.5,-103.79 313,-113.79 316.5,-103.79 309.5,-103.79"/>
</g>
</g>
</svg>
