<?xml version="1.0" encoding="UTF-8" standalone="no"?>
<!DOCTYPE svg PUBLIC "-//W3C//DTD SVG 1.1//EN"
 "http://www.w3.org/Graphics/SVG/1.1/DTD/svg11.dtd">
<!-- Generated by graphviz version 5.0.0 (20220707.1540)
 -->
<!-- Title: dependencies Pages: 1 -->
<svg width="742pt" height="247pt"
 viewBox="0.00 0.00 742.00 246.80" xmlns="http://www.w3.org/2000/svg" xmlns:xlink="http://www.w3.org/1999/xlink">
<g id="graph0" class="graph" transform="scale(1 1) rotate(0) translate(4 242.8)">
<title>dependencies</title>
<polygon fill="white" stroke="transparent" points="-4,4 -4,-242.8 738,-242.8 738,4 -4,4"/>
<text text-anchor="middle" x="367" y="-8.2" font-family="sans-serif" font-size="14.00">dependencies</text>
<g id="clust1" class="cluster">
<title>cluster_CheckoutScheduledReplenishmentPlaceOrderModule</title>
<polygon fill="none" stroke="black" stroke-dasharray="1,5" points="8,-32.8 8,-230.8 726,-230.8 726,-32.8 8,-32.8"/>
</g>
<g id="clust4" class="cluster">
<title>cluster_CheckoutScheduledReplenishmentPlaceOrderModule_imports</title>
<polygon fill="none" stroke="black" points="380,-40.8 380,-92.8 718,-92.8 718,-40.8 380,-40.8"/>
</g>
<g id="clust5" class="cluster">
<title>cluster_CheckoutScheduledReplenishmentPlaceOrderModule_exports</title>
<polygon fill="none" stroke="black" points="297,-170.8 297,-222.8 657,-222.8 657,-170.8 297,-170.8"/>
</g>
<g id="clust2" class="cluster">
<title>cluster_CheckoutScheduledReplenishmentPlaceOrderModule_declarations</title>
<polygon fill="none" stroke="black" points="16,-40.8 16,-92.8 372,-92.8 372,-40.8 16,-40.8"/>
</g>
<!-- CheckoutScheduledReplenishmentPlaceOrderComponent -->
<g id="node1" class="node">
<title>CheckoutScheduledReplenishmentPlaceOrderComponent</title>
<polygon fill="#ffffb3" stroke="black" points="364.26,-84.8 23.74,-84.8 23.74,-48.8 364.26,-48.8 364.26,-84.8"/>
<text text-anchor="middle" x="194" y="-62.6" font-family="Times,serif" font-size="14.00">CheckoutScheduledReplenishmentPlaceOrderComponent</text>
</g>
<!-- CheckoutScheduledReplenishmentPlaceOrderModule -->
<g id="node2" class="node">
<title>CheckoutScheduledReplenishmentPlaceOrderModule</title>
<polygon fill="#8dd3c7" stroke="black" points="636.48,-149.8 633.48,-153.8 612.48,-153.8 609.48,-149.8 317.52,-149.8 317.52,-113.8 636.48,-113.8 636.48,-149.8"/>
<text text-anchor="middle" x="477" y="-127.6" font-family="Times,serif" font-size="14.00">CheckoutScheduledReplenishmentPlaceOrderModule</text>
</g>
<!-- CheckoutScheduledReplenishmentPlaceOrderComponent&#45;&gt;CheckoutScheduledReplenishmentPlaceOrderModule -->
<g id="edge1" class="edge">
<title>CheckoutScheduledReplenishmentPlaceOrderComponent&#45;&gt;CheckoutScheduledReplenishmentPlaceOrderModule</title>
<path fill="none" stroke="black" d="M340.94,-84.91C340.94,-84.91 340.94,-103.79 340.94,-103.79"/>
<polygon fill="black" stroke="black" points="337.44,-103.79 340.94,-113.79 344.44,-103.79 337.44,-103.79"/>
</g>
<!-- CheckoutScheduledReplenishmentPlaceOrderComponent  -->
<g id="node6" class="node">
<title>CheckoutScheduledReplenishmentPlaceOrderComponent </title>
<polygon fill="#fb8072" stroke="black" points="648.76,-214.8 305.24,-214.8 305.24,-178.8 648.76,-178.8 648.76,-214.8"/>
<text text-anchor="middle" x="477" y="-192.6" font-family="Times,serif" font-size="14.00">CheckoutScheduledReplenishmentPlaceOrderComponent </text>
</g>
<!-- CheckoutScheduledReplenishmentPlaceOrderModule&#45;&gt;CheckoutScheduledReplenishmentPlaceOrderComponent  -->
<g id="edge5" class="edge">
<title>CheckoutScheduledReplenishmentPlaceOrderModule&#45;&gt;CheckoutScheduledReplenishmentPlaceOrderComponent </title>
<path fill="none" stroke="black" stroke-dasharray="5,2" d="M477,-149.91C477,-149.91 477,-168.79 477,-168.79"/>
<polygon fill="black" stroke="black" points="473.5,-168.79 477,-178.79 480.5,-168.79 473.5,-168.79"/>
</g>
<!-- AtMessageModule -->
<g id="node3" class="node">
<title>AtMessageModule</title>
<polygon fill="#8dd3c7" stroke="black" points="710.04,-84.8 707.04,-88.8 686.04,-88.8 683.04,-84.8 587.96,-84.8 587.96,-48.8 710.04,-48.8 710.04,-84.8"/>
<text text-anchor="middle" x="649" y="-62.6" font-family="Times,serif" font-size="14.00">AtMessageModule</text>
</g>
<!-- AtMessageModule&#45;&gt;CheckoutScheduledReplenishmentPlaceOrderModule -->
<g id="edge2" class="edge">
<title>AtMessageModule&#45;&gt;CheckoutScheduledReplenishmentPlaceOrderModule</title>
<path fill="none" stroke="black" d="M611.98,-84.91C611.98,-84.91 611.98,-103.79 611.98,-103.79"/>
<polygon fill="black" stroke="black" points="608.48,-103.79 611.98,-113.79 615.48,-103.79 608.48,-103.79"/>
</g>
<!-- I18nModule -->
<g id="node4" class="node">
<title>I18nModule</title>
<polygon fill="#8dd3c7" stroke="black" points="569.71,-84.8 566.71,-88.8 545.71,-88.8 542.71,-84.8 484.29,-84.8 484.29,-48.8 569.71,-48.8 569.71,-84.8"/>
<text text-anchor="middle" x="527" y="-62.6" font-family="Times,serif" font-size="14.00">I18nModule</text>
</g>
<!-- I18nModule&#45;&gt;CheckoutScheduledReplenishmentPlaceOrderModule -->
<g id="edge3" class="edge">
<title>I18nModule&#45;&gt;CheckoutScheduledReplenishmentPlaceOrderModule</title>
<path fill="none" stroke="black" d="M527,-84.91C527,-84.91 527,-103.79 527,-103.79"/>
<polygon fill="black" stroke="black" points="523.5,-103.79 527,-113.79 530.5,-103.79 523.5,-103.79"/>
</g>
<!-- UrlModule -->
<g id="node5" class="node">
<title>UrlModule</title>
<polygon fill="#8dd3c7" stroke="black" points="466.21,-84.8 463.21,-88.8 442.21,-88.8 439.21,-84.8 387.79,-84.8 387.79,-48.8 466.21,-48.8 466.21,-84.8"/>
<text text-anchor="middle" x="427" y="-62.6" font-family="Times,serif" font-size="14.00">UrlModule</text>
</g>
<!-- UrlModule&#45;&gt;CheckoutScheduledReplenishmentPlaceOrderModule -->
<g id="edge4" class="edge">
<title>UrlModule&#45;&gt;CheckoutScheduledReplenishmentPlaceOrderModule</title>
<path fill="none" stroke="black" d="M427,-84.91C427,-84.91 427,-103.79 427,-103.79"/>
<polygon fill="black" stroke="black" points="423.5,-103.79 427,-113.79 430.5,-103.79 423.5,-103.79"/>
</g>
</g>
</svg>
