<?xml version="1.0" encoding="UTF-8" standalone="no"?>
<!DOCTYPE svg PUBLIC "-//W3C//DTD SVG 1.1//EN"
 "http://www.w3.org/Graphics/SVG/1.1/DTD/svg11.dtd">
<!-- Generated by graphviz version 5.0.0 (20220707.1540)
 -->
<!-- Title: dependencies Pages: 1 -->
<svg width="742pt" height="247pt"
 viewBox="0.00 0.00 742.00 246.80" xmlns="http://www.w3.org/2000/svg" xmlns:xlink="http://www.w3.org/1999/xlink">
<g id="graph0" class="graph" transform="scale(1 1) rotate(0) translate(4 242.8)">
<title>dependencies</title>
<polygon fill="white" stroke="transparent" points="-4,4 -4,-242.8 738,-242.8 738,4 -4,4"/>
<text text-anchor="middle" x="367" y="-8.2" font-family="sans-serif" font-size="14.00">dependencies</text>
<g id="clust1" class="cluster">
<title>cluster_CheckoutScheduledReplenishmentPlaceOrderModule</title>
<polygon fill="none" stroke="black" stroke-dasharray="1,5" points="8,-32.8 8,-230.8 726,-230.8 726,-32.8 8,-32.8"/>
</g>
<g id="clust5" class="cluster">
<title>cluster_CheckoutScheduledReplenishmentPlaceOrderModule_exports</title>
<polygon fill="none" stroke="black" points="60,-170.8 60,-222.8 420,-222.8 420,-170.8 60,-170.8"/>
</g>
<g id="clust2" class="cluster">
<title>cluster_CheckoutScheduledReplenishmentPlaceOrderModule_declarations</title>
<polygon fill="none" stroke="black" points="362,-40.8 362,-92.8 718,-92.8 718,-40.8 362,-40.8"/>
</g>
<g id="clust4" class="cluster">
<title>cluster_CheckoutScheduledReplenishmentPlaceOrderModule_imports</title>
<polygon fill="none" stroke="black" points="16,-40.8 16,-92.8 354,-92.8 354,-40.8 16,-40.8"/>
</g>
<!-- CheckoutScheduledReplenishmentPlaceOrderComponent -->
<g id="node1" class="node">
<title>CheckoutScheduledReplenishmentPlaceOrderComponent</title>
<polygon fill="#ffffb3" stroke="black" points="710.26,-84.8 369.74,-84.8 369.74,-48.8 710.26,-48.8 710.26,-84.8"/>
<text text-anchor="middle" x="540" y="-62.6" font-family="Times,serif" font-size="14.00">CheckoutScheduledReplenishmentPlaceOrderComponent</text>
</g>
<!-- CheckoutScheduledReplenishmentPlaceOrderModule -->
<g id="node2" class="node">
<title>CheckoutScheduledReplenishmentPlaceOrderModule</title>
<polygon fill="#8dd3c7" stroke="black" points="399.48,-149.8 396.48,-153.8 375.48,-153.8 372.48,-149.8 80.52,-149.8 80.52,-113.8 399.48,-113.8 399.48,-149.8"/>
<text text-anchor="middle" x="240" y="-127.6" font-family="Times,serif" font-size="14.00">CheckoutScheduledReplenishmentPlaceOrderModule</text>
</g>
<!-- CheckoutScheduledReplenishmentPlaceOrderComponent&#45;&gt;CheckoutScheduledReplenishmentPlaceOrderModule -->
<g id="edge1" class="edge">
<title>CheckoutScheduledReplenishmentPlaceOrderComponent&#45;&gt;CheckoutScheduledReplenishmentPlaceOrderModule</title>
<path fill="none" stroke="black" d="M384.56,-84.91C384.56,-84.91 384.56,-103.79 384.56,-103.79"/>
<polygon fill="black" stroke="black" points="381.06,-103.79 384.56,-113.79 388.06,-103.79 381.06,-103.79"/>
</g>
<!-- CheckoutScheduledReplenishmentPlaceOrderComponent  -->
<g id="node6" class="node">
<title>CheckoutScheduledReplenishmentPlaceOrderComponent </title>
<polygon fill="#fb8072" stroke="black" points="411.76,-214.8 68.24,-214.8 68.24,-178.8 411.76,-178.8 411.76,-214.8"/>
<text text-anchor="middle" x="240" y="-192.6" font-family="Times,serif" font-size="14.00">CheckoutScheduledReplenishmentPlaceOrderComponent </text>
</g>
<!-- CheckoutScheduledReplenishmentPlaceOrderModule&#45;&gt;CheckoutScheduledReplenishmentPlaceOrderComponent  -->
<g id="edge5" class="edge">
<title>CheckoutScheduledReplenishmentPlaceOrderModule&#45;&gt;CheckoutScheduledReplenishmentPlaceOrderComponent </title>
<path fill="none" stroke="black" stroke-dasharray="5,2" d="M240,-149.91C240,-149.91 240,-168.79 240,-168.79"/>
<polygon fill="black" stroke="black" points="236.5,-168.79 240,-178.79 243.5,-168.79 236.5,-168.79"/>
</g>
<!-- AtMessageModule -->
<g id="node3" class="node">
<title>AtMessageModule</title>
<polygon fill="#8dd3c7" stroke="black" points="346.04,-84.8 343.04,-88.8 322.04,-88.8 319.04,-84.8 223.96,-84.8 223.96,-48.8 346.04,-48.8 346.04,-84.8"/>
<text text-anchor="middle" x="285" y="-62.6" font-family="Times,serif" font-size="14.00">AtMessageModule</text>
</g>
<!-- AtMessageModule&#45;&gt;CheckoutScheduledReplenishmentPlaceOrderModule -->
<g id="edge2" class="edge">
<title>AtMessageModule&#45;&gt;CheckoutScheduledReplenishmentPlaceOrderModule</title>
<path fill="none" stroke="black" d="M285,-84.91C285,-84.91 285,-103.79 285,-103.79"/>
<polygon fill="black" stroke="black" points="281.5,-103.79 285,-113.79 288.5,-103.79 281.5,-103.79"/>
</g>
<!-- I18nModule -->
<g id="node4" class="node">
<title>I18nModule</title>
<polygon fill="#8dd3c7" stroke="black" points="205.71,-84.8 202.71,-88.8 181.71,-88.8 178.71,-84.8 120.29,-84.8 120.29,-48.8 205.71,-48.8 205.71,-84.8"/>
<text text-anchor="middle" x="163" y="-62.6" font-family="Times,serif" font-size="14.00">I18nModule</text>
</g>
<!-- I18nModule&#45;&gt;CheckoutScheduledReplenishmentPlaceOrderModule -->
<g id="edge3" class="edge">
<title>I18nModule&#45;&gt;CheckoutScheduledReplenishmentPlaceOrderModule</title>
<path fill="none" stroke="black" d="M163,-84.91C163,-84.91 163,-103.79 163,-103.79"/>
<polygon fill="black" stroke="black" points="159.5,-103.79 163,-113.79 166.5,-103.79 159.5,-103.79"/>
</g>
<!-- UrlModule -->
<g id="node5" class="node">
<title>UrlModule</title>
<polygon fill="#8dd3c7" stroke="black" points="102.21,-84.8 99.21,-88.8 78.21,-88.8 75.21,-84.8 23.79,-84.8 23.79,-48.8 102.21,-48.8 102.21,-84.8"/>
<text text-anchor="middle" x="63" y="-62.6" font-family="Times,serif" font-size="14.00">UrlModule</text>
</g>
<!-- UrlModule&#45;&gt;CheckoutScheduledReplenishmentPlaceOrderModule -->
<g id="edge4" class="edge">
<title>UrlModule&#45;&gt;CheckoutScheduledReplenishmentPlaceOrderModule</title>
<path fill="none" stroke="black" d="M91.43,-84.91C91.43,-84.91 91.43,-103.79 91.43,-103.79"/>
<polygon fill="black" stroke="black" points="87.93,-103.79 91.43,-113.79 94.93,-103.79 87.93,-103.79"/>
</g>
</g>
</svg>
