<?xml version="1.0" encoding="UTF-8" standalone="no"?>
<!DOCTYPE svg PUBLIC "-//W3C//DTD SVG 1.1//EN"
 "http://www.w3.org/Graphics/SVG/1.1/DTD/svg11.dtd">
<!-- Generated by graphviz version 5.0.0 (20220707.1540)
 -->
<!-- Title: dependencies Pages: 1 -->
<svg width="403pt" height="174pt"
 viewBox="0.00 0.00 403.00 173.80" xmlns="http://www.w3.org/2000/svg" xmlns:xlink="http://www.w3.org/1999/xlink">
<g id="graph0" class="graph" transform="scale(1 1) rotate(0) translate(4 169.8)">
<title>dependencies</title>
<polygon fill="white" stroke="transparent" points="-4,4 -4,-169.8 399,-169.8 399,4 -4,4"/>
<text text-anchor="middle" x="197.5" y="-8.2" font-family="sans-serif" font-size="14.00">dependencies</text>
<g id="clust1" class="cluster">
<title>cluster_QuickOrderComponentsModule</title>
<polygon fill="none" stroke="black" stroke-dasharray="1,5" points="8,-32.8 8,-157.8 387,-157.8 387,-32.8 8,-32.8"/>
</g>
<g id="clust3" class="cluster">
<title>cluster_QuickOrderComponentsModule_imports</title>
<polygon fill="none" stroke="black" points="16,-40.8 16,-92.8 379,-92.8 379,-40.8 16,-40.8"/>
</g>
<!-- CartQuickOrderFormModule -->
<g id="node1" class="node">
<title>CartQuickOrderFormModule</title>
<polygon fill="#8dd3c7" stroke="black" points="371.36,-84.8 368.36,-88.8 347.36,-88.8 344.36,-84.8 190.64,-84.8 190.64,-48.8 371.36,-48.8 371.36,-84.8"/>
<text text-anchor="middle" x="281" y="-62.6" font-family="Times,serif" font-size="14.00">CartQuickOrderFormModule</text>
</g>
<!-- QuickOrderComponentsModule -->
<g id="node3" class="node">
<title>QuickOrderComponentsModule</title>
<polygon fill="#8dd3c7" stroke="black" points="295.69,-149.8 292.69,-153.8 271.69,-153.8 268.69,-149.8 98.31,-149.8 98.31,-113.8 295.69,-113.8 295.69,-149.8"/>
<text text-anchor="middle" x="197" y="-127.6" font-family="Times,serif" font-size="14.00">QuickOrderComponentsModule</text>
</g>
<!-- CartQuickOrderFormModule&#45;&gt;QuickOrderComponentsModule -->
<g id="edge1" class="edge">
<title>CartQuickOrderFormModule&#45;&gt;QuickOrderComponentsModule</title>
<path fill="none" stroke="black" d="M243.08,-84.91C243.08,-84.91 243.08,-103.79 243.08,-103.79"/>
<polygon fill="black" stroke="black" points="239.58,-103.79 243.08,-113.79 246.58,-103.79 239.58,-103.79"/>
</g>
<!-- QuickOrderListModule -->
<g id="node2" class="node">
<title>QuickOrderListModule</title>
<polygon fill="#8dd3c7" stroke="black" points="172.19,-84.8 169.19,-88.8 148.19,-88.8 145.19,-84.8 23.81,-84.8 23.81,-48.8 172.19,-48.8 172.19,-84.8"/>
<text text-anchor="middle" x="98" y="-62.6" font-family="Times,serif" font-size="14.00">QuickOrderListModule</text>
</g>
<!-- QuickOrderListModule&#45;&gt;QuickOrderComponentsModule -->
<g id="edge2" class="edge">
<title>QuickOrderListModule&#45;&gt;QuickOrderComponentsModule</title>
<path fill="none" stroke="black" d="M135.25,-84.91C135.25,-84.91 135.25,-103.79 135.25,-103.79"/>
<polygon fill="black" stroke="black" points="131.75,-103.79 135.25,-113.79 138.75,-103.79 131.75,-103.79"/>
</g>
</g>
</svg>
