<?xml version="1.0" encoding="UTF-8" standalone="no"?>
<!DOCTYPE svg PUBLIC "-//W3C//DTD SVG 1.1//EN"
 "http://www.w3.org/Graphics/SVG/1.1/DTD/svg11.dtd">
<!-- Generated by graphviz version 5.0.0 (20220707.1540)
 -->
<!-- Title: dependencies Pages: 1 -->
<svg width="1190pt" height="285pt"
 viewBox="0.00 0.00 1190.00 285.39" xmlns="http://www.w3.org/2000/svg" xmlns:xlink="http://www.w3.org/1999/xlink">
<g id="graph0" class="graph" transform="scale(1 1) rotate(0) translate(4 281.39)">
<title>dependencies</title>
<polygon fill="white" stroke="transparent" points="-4,4 -4,-281.39 1186,-281.39 1186,4 -4,4"/>
<text text-anchor="middle" x="591" y="-8.2" font-family="sans-serif" font-size="14.00">dependencies</text>
<g id="clust1" class="cluster">
<title>cluster_UserUserGroupsModule</title>
<polygon fill="none" stroke="black" stroke-dasharray="1,5" points="8,-32.8 8,-269.39 1174,-269.39 1174,-32.8 8,-32.8"/>
</g>
<g id="clust5" class="cluster">
<title>cluster_UserUserGroupsModule_imports</title>
<polygon fill="none" stroke="black" points="844,-152.39 844,-204.39 1166,-204.39 1166,-152.39 844,-152.39"/>
</g>
<g id="clust4" class="cluster">
<title>cluster_UserUserGroupsModule_UserUserGroupListComponent_providers</title>
<polygon fill="none" stroke="black" points="284,-40.8 284,-204.39 836,-204.39 836,-40.8 284,-40.8"/>
</g>
<g id="clust2" class="cluster">
<title>cluster_UserUserGroupsModule_declarations</title>
<polygon fill="none" stroke="black" points="16,-152.39 16,-204.39 276,-204.39 276,-152.39 16,-152.39"/>
</g>
<!-- UserAssignedUserGroupListComponent -->
<g id="node1" class="node">
<title>UserAssignedUserGroupListComponent</title>
<polygon fill="#ffffb3" stroke="black" points="267.86,-196.39 24.14,-196.39 24.14,-160.39 267.86,-160.39 267.86,-196.39"/>
<text text-anchor="middle" x="146" y="-174.19" font-family="Times,serif" font-size="14.00">UserAssignedUserGroupListComponent</text>
</g>
<!-- UserUserGroupsModule -->
<g id="node3" class="node">
<title>UserUserGroupsModule</title>
<polygon fill="#8dd3c7" stroke="black" points="980.64,-261.39 977.64,-265.39 956.64,-265.39 953.64,-261.39 827.36,-261.39 827.36,-225.39 980.64,-225.39 980.64,-261.39"/>
<text text-anchor="middle" x="904" y="-239.19" font-family="Times,serif" font-size="14.00">UserUserGroupsModule</text>
</g>
<!-- UserAssignedUserGroupListComponent&#45;&gt;UserUserGroupsModule -->
<g id="edge1" class="edge">
<title>UserAssignedUserGroupListComponent&#45;&gt;UserUserGroupsModule</title>
<path fill="none" stroke="black" d="M146,-196.5C146,-215.73 146,-243.39 146,-243.39 146,-243.39 817.15,-243.39 817.15,-243.39"/>
<polygon fill="black" stroke="black" points="817.15,-246.89 827.15,-243.39 817.15,-239.89 817.15,-246.89"/>
</g>
<!-- UserUserGroupListComponent -->
<g id="node2" class="node">
<title>UserUserGroupListComponent</title>
<polygon fill="#ffffb3" stroke="black" points="741.75,-196.39 550.25,-196.39 550.25,-160.39 741.75,-160.39 741.75,-196.39"/>
<text text-anchor="middle" x="646" y="-174.19" font-family="Times,serif" font-size="14.00">UserUserGroupListComponent</text>
</g>
<!-- UserUserGroupListComponent&#45;&gt;UserUserGroupsModule -->
<g id="edge2" class="edge">
<title>UserUserGroupListComponent&#45;&gt;UserUserGroupsModule</title>
<path fill="none" stroke="black" d="M741.78,-178.39C790.85,-178.39 840.41,-178.39 840.41,-178.39 840.41,-178.39 840.41,-215.28 840.41,-215.28"/>
<polygon fill="black" stroke="black" points="836.91,-215.28 840.41,-225.28 843.91,-215.28 836.91,-215.28"/>
</g>
<!-- {
 &#160;&#160;&#160;provide: ListService, useExisting: UserUserGroupListService,
} -->
<g id="node4" class="node">
<title>{
 &#160;&#160;&#160;provide: ListService, useExisting: UserUserGroupListService,
}</title>
<ellipse fill="#fdb462" stroke="black" cx="560" cy="-90.1" rx="268.24" ry="41.09"/>
<text text-anchor="middle" x="560" y="-102.7" font-family="Times,serif" font-size="14.00">{</text>
<text text-anchor="middle" x="560" y="-85.9" font-family="Times,serif" font-size="14.00"> &#160;&#160;&#160;provide: ListService, useExisting: UserUserGroupListService,</text>
<text text-anchor="middle" x="560" y="-69.1" font-family="Times,serif" font-size="14.00">}</text>
</g>
<!-- {
 &#160;&#160;&#160;provide: ListService, useExisting: UserUserGroupListService,
}&#45;&gt;UserUserGroupListComponent -->
<g id="edge3" class="edge">
<title>{
 &#160;&#160;&#160;provide: ListService, useExisting: UserUserGroupListService,
}&#45;&gt;UserUserGroupListComponent</title>
<path fill="none" stroke="black" d="M646,-129.34C646,-129.34 646,-150.01 646,-150.01"/>
<polygon fill="black" stroke="black" points="642.5,-150.01 646,-160.01 649.5,-150.01 642.5,-150.01"/>
</g>
<!-- I18nModule -->
<g id="node5" class="node">
<title>I18nModule</title>
<polygon fill="#8dd3c7" stroke="black" points="1157.71,-196.39 1154.71,-200.39 1133.71,-200.39 1130.71,-196.39 1072.29,-196.39 1072.29,-160.39 1157.71,-160.39 1157.71,-196.39"/>
<text text-anchor="middle" x="1115" y="-174.19" font-family="Times,serif" font-size="14.00">I18nModule</text>
</g>
<!-- I18nModule&#45;&gt;UserUserGroupsModule -->
<g id="edge4" class="edge">
<title>I18nModule&#45;&gt;UserUserGroupsModule</title>
<path fill="none" stroke="black" d="M1115,-196.5C1115,-215.73 1115,-243.39 1115,-243.39 1115,-243.39 990.77,-243.39 990.77,-243.39"/>
<polygon fill="black" stroke="black" points="990.77,-239.89 980.77,-243.39 990.77,-246.89 990.77,-239.89"/>
</g>
<!-- ListModule -->
<g id="node6" class="node">
<title>ListModule</title>
<polygon fill="#8dd3c7" stroke="black" points="1054.83,-196.39 1051.83,-200.39 1030.83,-200.39 1027.83,-196.39 973.17,-196.39 973.17,-160.39 1054.83,-160.39 1054.83,-196.39"/>
<text text-anchor="middle" x="1014" y="-174.19" font-family="Times,serif" font-size="14.00">ListModule</text>
</g>
<!-- ListModule&#45;&gt;UserUserGroupsModule -->
<g id="edge5" class="edge">
<title>ListModule&#45;&gt;UserUserGroupsModule</title>
<path fill="none" stroke="black" d="M977.08,-196.5C977.08,-196.5 977.08,-215.38 977.08,-215.38"/>
<polygon fill="black" stroke="black" points="973.58,-215.38 977.08,-225.38 980.58,-215.38 973.58,-215.38"/>
</g>
<!-- SubListModule -->
<g id="node7" class="node">
<title>SubListModule</title>
<polygon fill="#8dd3c7" stroke="black" points="955.62,-196.39 952.62,-200.39 931.62,-200.39 928.62,-196.39 852.38,-196.39 852.38,-160.39 955.62,-160.39 955.62,-196.39"/>
<text text-anchor="middle" x="904" y="-174.19" font-family="Times,serif" font-size="14.00">SubListModule</text>
</g>
<!-- SubListModule&#45;&gt;UserUserGroupsModule -->
<g id="edge6" class="edge">
<title>SubListModule&#45;&gt;UserUserGroupsModule</title>
<path fill="none" stroke="black" d="M904,-196.5C904,-196.5 904,-215.38 904,-215.38"/>
<polygon fill="black" stroke="black" points="900.5,-215.38 904,-225.38 907.5,-215.38 900.5,-215.38"/>
</g>
</g>
</svg>
