<?xml version="1.0" encoding="UTF-8" standalone="no"?>
<!DOCTYPE svg PUBLIC "-//W3C//DTD SVG 1.1//EN"
 "http://www.w3.org/Graphics/SVG/1.1/DTD/svg11.dtd">
<!-- Generated by graphviz version 5.0.0 (20220707.1540)
 -->
<!-- Title: dependencies Pages: 1 -->
<svg width="1270pt" height="174pt"
 viewBox="0.00 0.00 1270.00 173.80" xmlns="http://www.w3.org/2000/svg" xmlns:xlink="http://www.w3.org/1999/xlink">
<g id="graph0" class="graph" transform="scale(1 1) rotate(0) translate(4 169.8)">
<title>dependencies</title>
<polygon fill="white" stroke="transparent" points="-4,4 -4,-169.8 1266,-169.8 1266,4 -4,4"/>
<text text-anchor="middle" x="631" y="-8.2" font-family="sans-serif" font-size="14.00">dependencies</text>
<g id="clust1" class="cluster">
<title>cluster_RulebasedConfiguratorRootModule</title>
<polygon fill="none" stroke="black" stroke-dasharray="1,5" points="8,-32.8 8,-157.8 1254,-157.8 1254,-32.8 8,-32.8"/>
</g>
<g id="clust3" class="cluster">
<title>cluster_RulebasedConfiguratorRootModule_imports</title>
<polygon fill="none" stroke="black" points="16,-40.8 16,-92.8 1246,-92.8 1246,-40.8 16,-40.8"/>
</g>
<!-- CommonConfiguratorModule -->
<g id="node1" class="node">
<title>CommonConfiguratorModule</title>
<polygon fill="#8dd3c7" stroke="black" points="1237.99,-84.8 1234.99,-88.8 1213.99,-88.8 1210.99,-84.8 1054.01,-84.8 1054.01,-48.8 1237.99,-48.8 1237.99,-84.8"/>
<text text-anchor="middle" x="1146" y="-62.6" font-family="Times,serif" font-size="14.00">CommonConfiguratorModule</text>
</g>
<!-- RulebasedConfiguratorRootModule -->
<g id="node6" class="node">
<title>RulebasedConfiguratorRootModule</title>
<polygon fill="#8dd3c7" stroke="black" points="749.91,-149.8 746.91,-153.8 725.91,-153.8 722.91,-149.8 532.09,-149.8 532.09,-113.8 749.91,-113.8 749.91,-149.8"/>
<text text-anchor="middle" x="641" y="-127.6" font-family="Times,serif" font-size="14.00">RulebasedConfiguratorRootModule</text>
</g>
<!-- CommonConfiguratorModule&#45;&gt;RulebasedConfiguratorRootModule -->
<g id="edge1" class="edge">
<title>CommonConfiguratorModule&#45;&gt;RulebasedConfiguratorRootModule</title>
<path fill="none" stroke="black" d="M1146,-85.08C1146,-106.12 1146,-137.8 1146,-137.8 1146,-137.8 759.96,-137.8 759.96,-137.8"/>
<polygon fill="black" stroke="black" points="759.96,-134.3 749.96,-137.8 759.96,-141.3 759.96,-134.3"/>
</g>
<!-- RulebasedConfiguratorRootFeatureModule -->
<g id="node2" class="node">
<title>RulebasedConfiguratorRootFeatureModule</title>
<polygon fill="#8dd3c7" stroke="black" points="1035.89,-84.8 1032.89,-88.8 1011.89,-88.8 1008.89,-84.8 776.11,-84.8 776.11,-48.8 1035.89,-48.8 1035.89,-84.8"/>
<text text-anchor="middle" x="906" y="-62.6" font-family="Times,serif" font-size="14.00">RulebasedConfiguratorRootFeatureModule</text>
</g>
<!-- RulebasedConfiguratorRootFeatureModule&#45;&gt;RulebasedConfiguratorRootModule -->
<g id="edge2" class="edge">
<title>RulebasedConfiguratorRootFeatureModule&#45;&gt;RulebasedConfiguratorRootModule</title>
<path fill="none" stroke="black" d="M906,-84.82C906,-102.17 906,-125.8 906,-125.8 906,-125.8 759.93,-125.8 759.93,-125.8"/>
<polygon fill="black" stroke="black" points="759.93,-122.3 749.93,-125.8 759.93,-129.3 759.93,-122.3"/>
</g>
<!-- RulebasedConfiguratorRoutingModule -->
<g id="node3" class="node">
<title>RulebasedConfiguratorRoutingModule</title>
<polygon fill="#8dd3c7" stroke="black" points="758.8,-84.8 755.8,-88.8 734.8,-88.8 731.8,-84.8 523.2,-84.8 523.2,-48.8 758.8,-48.8 758.8,-84.8"/>
<text text-anchor="middle" x="641" y="-62.6" font-family="Times,serif" font-size="14.00">RulebasedConfiguratorRoutingModule</text>
</g>
<!-- RulebasedConfiguratorRoutingModule&#45;&gt;RulebasedConfiguratorRootModule -->
<g id="edge3" class="edge">
<title>RulebasedConfiguratorRoutingModule&#45;&gt;RulebasedConfiguratorRootModule</title>
<path fill="none" stroke="black" d="M641,-84.91C641,-84.91 641,-103.79 641,-103.79"/>
<polygon fill="black" stroke="black" points="637.5,-103.79 641,-113.79 644.5,-103.79 637.5,-103.79"/>
</g>
<!-- VariantConfiguratorInteractiveModule -->
<g id="node4" class="node">
<title>VariantConfiguratorInteractiveModule</title>
<polygon fill="#8dd3c7" stroke="black" points="504.7,-84.8 501.7,-88.8 480.7,-88.8 477.7,-84.8 271.3,-84.8 271.3,-48.8 504.7,-48.8 504.7,-84.8"/>
<text text-anchor="middle" x="388" y="-62.6" font-family="Times,serif" font-size="14.00">VariantConfiguratorInteractiveModule</text>
</g>
<!-- VariantConfiguratorInteractiveModule&#45;&gt;RulebasedConfiguratorRootModule -->
<g id="edge4" class="edge">
<title>VariantConfiguratorInteractiveModule&#45;&gt;RulebasedConfiguratorRootModule</title>
<path fill="none" stroke="black" d="M388,-84.82C388,-102.17 388,-125.8 388,-125.8 388,-125.8 522.24,-125.8 522.24,-125.8"/>
<polygon fill="black" stroke="black" points="522.24,-129.3 532.24,-125.8 522.24,-122.3 522.24,-129.3"/>
</g>
<!-- VariantConfiguratorOverviewModule -->
<g id="node5" class="node">
<title>VariantConfiguratorOverviewModule</title>
<polygon fill="#8dd3c7" stroke="black" points="253.55,-84.8 250.55,-88.8 229.55,-88.8 226.55,-84.8 24.45,-84.8 24.45,-48.8 253.55,-48.8 253.55,-84.8"/>
<text text-anchor="middle" x="139" y="-62.6" font-family="Times,serif" font-size="14.00">VariantConfiguratorOverviewModule</text>
</g>
<!-- VariantConfiguratorOverviewModule&#45;&gt;RulebasedConfiguratorRootModule -->
<g id="edge5" class="edge">
<title>VariantConfiguratorOverviewModule&#45;&gt;RulebasedConfiguratorRootModule</title>
<path fill="none" stroke="black" d="M139,-85.08C139,-106.12 139,-137.8 139,-137.8 139,-137.8 522.07,-137.8 522.07,-137.8"/>
<polygon fill="black" stroke="black" points="522.07,-141.3 532.07,-137.8 522.07,-134.3 522.07,-141.3"/>
</g>
</g>
</svg>
