<?xml version="1.0" encoding="UTF-8" standalone="no"?>
<!DOCTYPE svg PUBLIC "-//W3C//DTD SVG 1.1//EN"
 "http://www.w3.org/Graphics/SVG/1.1/DTD/svg11.dtd">
<!-- Generated by graphviz version 5.0.0 (20220707.1540)
 -->
<!-- Title: dependencies Pages: 1 -->
<svg width="410pt" height="174pt"
 viewBox="0.00 0.00 410.00 173.80" xmlns="http://www.w3.org/2000/svg" xmlns:xlink="http://www.w3.org/1999/xlink">
<g id="graph0" class="graph" transform="scale(1 1) rotate(0) translate(4 169.8)">
<title>dependencies</title>
<polygon fill="white" stroke="transparent" points="-4,4 -4,-169.8 406,-169.8 406,4 -4,4"/>
<text text-anchor="middle" x="201" y="-8.2" font-family="sans-serif" font-size="14.00">dependencies</text>
<g id="clust1" class="cluster">
<title>cluster_OrderReturnModule</title>
<polygon fill="none" stroke="black" stroke-dasharray="1,5" points="8,-32.8 8,-157.8 394,-157.8 394,-32.8 8,-32.8"/>
</g>
<g id="clust3" class="cluster">
<title>cluster_OrderReturnModule_imports</title>
<polygon fill="none" stroke="black" points="16,-40.8 16,-92.8 386,-92.8 386,-40.8 16,-40.8"/>
</g>
<!-- ReturnOrderConfirmationModule -->
<g id="node1" class="node">
<title>ReturnOrderConfirmationModule</title>
<polygon fill="#8dd3c7" stroke="black" points="377.74,-84.8 374.74,-88.8 353.74,-88.8 350.74,-84.8 172.26,-84.8 172.26,-48.8 377.74,-48.8 377.74,-84.8"/>
<text text-anchor="middle" x="275" y="-62.6" font-family="Times,serif" font-size="14.00">ReturnOrderConfirmationModule</text>
</g>
<!-- OrderReturnModule -->
<g id="node3" class="node">
<title>OrderReturnModule</title>
<polygon fill="#8dd3c7" stroke="black" points="247.3,-149.8 244.3,-153.8 223.3,-153.8 220.3,-149.8 116.7,-149.8 116.7,-113.8 247.3,-113.8 247.3,-149.8"/>
<text text-anchor="middle" x="182" y="-127.6" font-family="Times,serif" font-size="14.00">OrderReturnModule</text>
</g>
<!-- ReturnOrderConfirmationModule&#45;&gt;OrderReturnModule -->
<g id="edge1" class="edge">
<title>ReturnOrderConfirmationModule&#45;&gt;OrderReturnModule</title>
<path fill="none" stroke="black" d="M209.64,-84.91C209.64,-84.91 209.64,-103.79 209.64,-103.79"/>
<polygon fill="black" stroke="black" points="206.14,-103.79 209.64,-113.79 213.14,-103.79 206.14,-103.79"/>
</g>
<!-- ReturnOrderModule -->
<g id="node2" class="node">
<title>ReturnOrderModule</title>
<polygon fill="#8dd3c7" stroke="black" points="154.3,-84.8 151.3,-88.8 130.3,-88.8 127.3,-84.8 23.7,-84.8 23.7,-48.8 154.3,-48.8 154.3,-84.8"/>
<text text-anchor="middle" x="89" y="-62.6" font-family="Times,serif" font-size="14.00">ReturnOrderModule</text>
</g>
<!-- ReturnOrderModule&#45;&gt;OrderReturnModule -->
<g id="edge2" class="edge">
<title>ReturnOrderModule&#45;&gt;OrderReturnModule</title>
<path fill="none" stroke="black" d="M135.5,-84.91C135.5,-84.91 135.5,-103.79 135.5,-103.79"/>
<polygon fill="black" stroke="black" points="132,-103.79 135.5,-113.79 139,-103.79 132,-103.79"/>
</g>
</g>
</svg>
