<?xml version="1.0" encoding="UTF-8" standalone="no"?>
<!DOCTYPE svg PUBLIC "-//W3C//DTD SVG 1.1//EN"
 "http://www.w3.org/Graphics/SVG/1.1/DTD/svg11.dtd">
<!-- Generated by graphviz version 5.0.0 (20220707.1540)
 -->
<!-- Title: dependencies Pages: 1 -->
<svg width="1109pt" height="247pt"
 viewBox="0.00 0.00 1109.00 246.80" xmlns="http://www.w3.org/2000/svg" xmlns:xlink="http://www.w3.org/1999/xlink">
<g id="graph0" class="graph" transform="scale(1 1) rotate(0) translate(4 242.8)">
<title>dependencies</title>
<polygon fill="white" stroke="transparent" points="-4,4 -4,-242.8 1105,-242.8 1105,4 -4,4"/>
<text text-anchor="middle" x="550.5" y="-8.2" font-family="sans-serif" font-size="14.00">dependencies</text>
<g id="clust1" class="cluster">
<title>cluster_MyInterestsModule</title>
<polygon fill="none" stroke="black" stroke-dasharray="1,5" points="8,-32.8 8,-230.8 1093,-230.8 1093,-32.8 8,-32.8"/>
</g>
<g id="clust2" class="cluster">
<title>cluster_MyInterestsModule_declarations</title>
<polygon fill="none" stroke="black" points="921,-40.8 921,-92.8 1085,-92.8 1085,-40.8 921,-40.8"/>
</g>
<g id="clust5" class="cluster">
<title>cluster_MyInterestsModule_exports</title>
<polygon fill="none" stroke="black" points="474,-170.8 474,-222.8 642,-222.8 642,-170.8 474,-170.8"/>
</g>
<g id="clust4" class="cluster">
<title>cluster_MyInterestsModule_imports</title>
<polygon fill="none" stroke="black" points="16,-40.8 16,-92.8 913,-92.8 913,-40.8 16,-40.8"/>
</g>
<!-- MyInterestsComponent -->
<g id="node1" class="node">
<title>MyInterestsComponent</title>
<polygon fill="#ffffb3" stroke="black" points="1077.21,-84.8 928.79,-84.8 928.79,-48.8 1077.21,-48.8 1077.21,-84.8"/>
<text text-anchor="middle" x="1003" y="-62.6" font-family="Times,serif" font-size="14.00">MyInterestsComponent</text>
</g>
<!-- MyInterestsModule -->
<g id="node2" class="node">
<title>MyInterestsModule</title>
<polygon fill="#8dd3c7" stroke="black" points="621.43,-149.8 618.43,-153.8 597.43,-153.8 594.43,-149.8 494.57,-149.8 494.57,-113.8 621.43,-113.8 621.43,-149.8"/>
<text text-anchor="middle" x="558" y="-127.6" font-family="Times,serif" font-size="14.00">MyInterestsModule</text>
</g>
<!-- MyInterestsComponent&#45;&gt;MyInterestsModule -->
<g id="edge1" class="edge">
<title>MyInterestsComponent&#45;&gt;MyInterestsModule</title>
<path fill="none" stroke="black" d="M1003,-85.09C1003,-107.01 1003,-140.8 1003,-140.8 1003,-140.8 631.29,-140.8 631.29,-140.8"/>
<polygon fill="black" stroke="black" points="631.29,-137.3 621.29,-140.8 631.29,-144.3 631.29,-137.3"/>
</g>
<!-- MyInterestsComponent  -->
<g id="node10" class="node">
<title>MyInterestsComponent </title>
<polygon fill="#fb8072" stroke="black" points="633.71,-214.8 482.29,-214.8 482.29,-178.8 633.71,-178.8 633.71,-214.8"/>
<text text-anchor="middle" x="558" y="-192.6" font-family="Times,serif" font-size="14.00">MyInterestsComponent </text>
</g>
<!-- MyInterestsModule&#45;&gt;MyInterestsComponent  -->
<g id="edge10" class="edge">
<title>MyInterestsModule&#45;&gt;MyInterestsComponent </title>
<path fill="none" stroke="black" stroke-dasharray="5,2" d="M558,-149.91C558,-149.91 558,-168.79 558,-168.79"/>
<polygon fill="black" stroke="black" points="554.5,-168.79 558,-178.79 561.5,-168.79 554.5,-168.79"/>
</g>
<!-- AtMessageModule -->
<g id="node3" class="node">
<title>AtMessageModule</title>
<polygon fill="#8dd3c7" stroke="black" points="905.04,-84.8 902.04,-88.8 881.04,-88.8 878.04,-84.8 782.96,-84.8 782.96,-48.8 905.04,-48.8 905.04,-84.8"/>
<text text-anchor="middle" x="844" y="-62.6" font-family="Times,serif" font-size="14.00">AtMessageModule</text>
</g>
<!-- AtMessageModule&#45;&gt;MyInterestsModule -->
<g id="edge2" class="edge">
<title>AtMessageModule&#45;&gt;MyInterestsModule</title>
<path fill="none" stroke="black" d="M844,-84.91C844,-104.14 844,-131.8 844,-131.8 844,-131.8 631.47,-131.8 631.47,-131.8"/>
<polygon fill="black" stroke="black" points="631.47,-128.3 621.47,-131.8 631.47,-135.3 631.47,-128.3"/>
</g>
<!-- FeaturesConfigModule -->
<g id="node4" class="node">
<title>FeaturesConfigModule</title>
<polygon fill="#8dd3c7" stroke="black" points="764.87,-84.8 761.87,-88.8 740.87,-88.8 737.87,-84.8 619.13,-84.8 619.13,-48.8 764.87,-48.8 764.87,-84.8"/>
<text text-anchor="middle" x="692" y="-62.6" font-family="Times,serif" font-size="14.00">FeaturesConfigModule</text>
</g>
<!-- FeaturesConfigModule&#45;&gt;MyInterestsModule -->
<g id="edge3" class="edge">
<title>FeaturesConfigModule&#45;&gt;MyInterestsModule</title>
<path fill="none" stroke="black" d="M627.53,-84.83C627.53,-101.2 627.53,-122.8 627.53,-122.8 627.53,-122.8 626.94,-122.8 626.94,-122.8"/>
<polygon fill="black" stroke="black" points="631.61,-119.3 621.61,-122.8 631.61,-126.3 631.61,-119.3"/>
</g>
<!-- I18nModule -->
<g id="node5" class="node">
<title>I18nModule</title>
<polygon fill="#8dd3c7" stroke="black" points="600.71,-84.8 597.71,-88.8 576.71,-88.8 573.71,-84.8 515.29,-84.8 515.29,-48.8 600.71,-48.8 600.71,-84.8"/>
<text text-anchor="middle" x="558" y="-62.6" font-family="Times,serif" font-size="14.00">I18nModule</text>
</g>
<!-- I18nModule&#45;&gt;MyInterestsModule -->
<g id="edge4" class="edge">
<title>I18nModule&#45;&gt;MyInterestsModule</title>
<path fill="none" stroke="black" d="M543.8,-84.91C543.8,-84.91 543.8,-103.79 543.8,-103.79"/>
<polygon fill="black" stroke="black" points="540.3,-103.79 543.8,-113.79 547.3,-103.79 540.3,-103.79"/>
</g>
<!-- I18nModule&#45;&gt;MyInterestsModule -->
<g id="edge5" class="edge">
<title>I18nModule&#45;&gt;MyInterestsModule</title>
<path fill="none" stroke="black" d="M572.2,-84.91C572.2,-84.91 572.2,-103.79 572.2,-103.79"/>
<polygon fill="black" stroke="black" points="568.7,-103.79 572.2,-113.79 575.7,-103.79 568.7,-103.79"/>
</g>
<!-- ListNavigationModule -->
<g id="node6" class="node">
<title>ListNavigationModule</title>
<polygon fill="#8dd3c7" stroke="black" points="497.54,-84.8 494.54,-88.8 473.54,-88.8 470.54,-84.8 354.46,-84.8 354.46,-48.8 497.54,-48.8 497.54,-84.8"/>
<text text-anchor="middle" x="426" y="-62.6" font-family="Times,serif" font-size="14.00">ListNavigationModule</text>
</g>
<!-- ListNavigationModule&#45;&gt;MyInterestsModule -->
<g id="edge6" class="edge">
<title>ListNavigationModule&#45;&gt;MyInterestsModule</title>
<path fill="none" stroke="black" d="M488.47,-84.81C488.47,-107.29 488.47,-142.8 488.47,-142.8 488.47,-142.8 489.06,-142.8 489.06,-142.8"/>
<polygon fill="black" stroke="black" points="484.39,-146.3 494.39,-142.8 484.39,-139.3 484.39,-146.3"/>
</g>
<!-- MediaModule -->
<g id="node7" class="node">
<title>MediaModule</title>
<polygon fill="#8dd3c7" stroke="black" points="336.82,-84.8 333.82,-88.8 312.82,-88.8 309.82,-84.8 241.18,-84.8 241.18,-48.8 336.82,-48.8 336.82,-84.8"/>
<text text-anchor="middle" x="289" y="-62.6" font-family="Times,serif" font-size="14.00">MediaModule</text>
</g>
<!-- MediaModule&#45;&gt;MyInterestsModule -->
<g id="edge7" class="edge">
<title>MediaModule&#45;&gt;MyInterestsModule</title>
<path fill="none" stroke="black" d="M289,-84.81C289,-100.85 289,-121.8 289,-121.8 289,-121.8 484.59,-121.8 484.59,-121.8"/>
<polygon fill="black" stroke="black" points="484.59,-125.3 494.59,-121.8 484.59,-118.3 484.59,-125.3"/>
</g>
<!-- SpinnerModule -->
<g id="node8" class="node">
<title>SpinnerModule</title>
<polygon fill="#8dd3c7" stroke="black" points="223.6,-84.8 220.6,-88.8 199.6,-88.8 196.6,-84.8 120.4,-84.8 120.4,-48.8 223.6,-48.8 223.6,-84.8"/>
<text text-anchor="middle" x="172" y="-62.6" font-family="Times,serif" font-size="14.00">SpinnerModule</text>
</g>
<!-- SpinnerModule&#45;&gt;MyInterestsModule -->
<g id="edge8" class="edge">
<title>SpinnerModule&#45;&gt;MyInterestsModule</title>
<path fill="none" stroke="black" d="M172,-85.07C172,-103.36 172,-128.8 172,-128.8 172,-128.8 484.69,-128.8 484.69,-128.8"/>
<polygon fill="black" stroke="black" points="484.69,-132.3 494.69,-128.8 484.69,-125.3 484.69,-132.3"/>
</g>
<!-- UrlModule -->
<g id="node9" class="node">
<title>UrlModule</title>
<polygon fill="#8dd3c7" stroke="black" points="102.21,-84.8 99.21,-88.8 78.21,-88.8 75.21,-84.8 23.79,-84.8 23.79,-48.8 102.21,-48.8 102.21,-84.8"/>
<text text-anchor="middle" x="63" y="-62.6" font-family="Times,serif" font-size="14.00">UrlModule</text>
</g>
<!-- UrlModule&#45;&gt;MyInterestsModule -->
<g id="edge9" class="edge">
<title>UrlModule&#45;&gt;MyInterestsModule</title>
<path fill="none" stroke="black" d="M63,-84.93C63,-105.37 63,-135.8 63,-135.8 63,-135.8 484.55,-135.8 484.55,-135.8"/>
<polygon fill="black" stroke="black" points="484.55,-139.3 494.55,-135.8 484.55,-132.3 484.55,-139.3"/>
</g>
</g>
</svg>
