<?xml version="1.0" encoding="UTF-8" standalone="no"?>
<!DOCTYPE svg PUBLIC "-//W3C//DTD SVG 1.1//EN"
 "http://www.w3.org/Graphics/SVG/1.1/DTD/svg11.dtd">
<!-- Generated by graphviz version 5.0.0 (20220707.1540)
 -->
<!-- Title: dependencies Pages: 1 -->
<svg width="480pt" height="174pt"
 viewBox="0.00 0.00 480.00 173.80" xmlns="http://www.w3.org/2000/svg" xmlns:xlink="http://www.w3.org/1999/xlink">
<g id="graph0" class="graph" transform="scale(1 1) rotate(0) translate(4 169.8)">
<title>dependencies</title>
<polygon fill="white" stroke="transparent" points="-4,4 -4,-169.8 476,-169.8 476,4 -4,4"/>
<text text-anchor="middle" x="236" y="-8.2" font-family="sans-serif" font-size="14.00">dependencies</text>
<g id="clust1" class="cluster">
<title>cluster_CheckoutCostCenterModule</title>
<polygon fill="none" stroke="black" stroke-dasharray="1,5" points="8,-32.8 8,-157.8 464,-157.8 464,-32.8 8,-32.8"/>
</g>
<g id="clust2" class="cluster">
<title>cluster_CheckoutCostCenterModule_declarations</title>
<polygon fill="none" stroke="black" points="242,-40.8 242,-92.8 456,-92.8 456,-40.8 242,-40.8"/>
</g>
<g id="clust4" class="cluster">
<title>cluster_CheckoutCostCenterModule_imports</title>
<polygon fill="none" stroke="black" points="16,-40.8 16,-92.8 234,-92.8 234,-40.8 16,-40.8"/>
</g>
<!-- CheckoutCostCenterComponent -->
<g id="node1" class="node">
<title>CheckoutCostCenterComponent</title>
<polygon fill="#ffffb3" stroke="black" points="447.98,-84.8 250.02,-84.8 250.02,-48.8 447.98,-48.8 447.98,-84.8"/>
<text text-anchor="middle" x="349" y="-62.6" font-family="Times,serif" font-size="14.00">CheckoutCostCenterComponent</text>
</g>
<!-- CheckoutCostCenterModule -->
<g id="node2" class="node">
<title>CheckoutCostCenterModule</title>
<polygon fill="#8dd3c7" stroke="black" points="265.2,-149.8 262.2,-153.8 241.2,-153.8 238.2,-149.8 88.8,-149.8 88.8,-113.8 265.2,-113.8 265.2,-149.8"/>
<text text-anchor="middle" x="177" y="-127.6" font-family="Times,serif" font-size="14.00">CheckoutCostCenterModule</text>
</g>
<!-- CheckoutCostCenterComponent&#45;&gt;CheckoutCostCenterModule -->
<g id="edge1" class="edge">
<title>CheckoutCostCenterComponent&#45;&gt;CheckoutCostCenterModule</title>
<path fill="none" stroke="black" d="M257.56,-84.91C257.56,-84.91 257.56,-103.79 257.56,-103.79"/>
<polygon fill="black" stroke="black" points="254.06,-103.79 257.56,-113.79 261.06,-103.79 254.06,-103.79"/>
</g>
<!-- ConfigModule -->
<g id="node3" class="node">
<title>ConfigModule</title>
<polygon fill="#8dd3c7" stroke="black" points="226.44,-84.8 223.44,-88.8 202.44,-88.8 199.44,-84.8 127.56,-84.8 127.56,-48.8 226.44,-48.8 226.44,-84.8"/>
<text text-anchor="middle" x="177" y="-62.6" font-family="Times,serif" font-size="14.00">ConfigModule</text>
</g>
<!-- ConfigModule&#45;&gt;CheckoutCostCenterModule -->
<g id="edge2" class="edge">
<title>ConfigModule&#45;&gt;CheckoutCostCenterModule</title>
<path fill="none" stroke="black" d="M177,-84.91C177,-84.91 177,-103.79 177,-103.79"/>
<polygon fill="black" stroke="black" points="173.5,-103.79 177,-113.79 180.5,-103.79 173.5,-103.79"/>
</g>
<!-- I18nModule -->
<g id="node4" class="node">
<title>I18nModule</title>
<polygon fill="#8dd3c7" stroke="black" points="109.71,-84.8 106.71,-88.8 85.71,-88.8 82.71,-84.8 24.29,-84.8 24.29,-48.8 109.71,-48.8 109.71,-84.8"/>
<text text-anchor="middle" x="67" y="-62.6" font-family="Times,serif" font-size="14.00">I18nModule</text>
</g>
<!-- I18nModule&#45;&gt;CheckoutCostCenterModule -->
<g id="edge3" class="edge">
<title>I18nModule&#45;&gt;CheckoutCostCenterModule</title>
<path fill="none" stroke="black" d="M99.25,-84.91C99.25,-84.91 99.25,-103.79 99.25,-103.79"/>
<polygon fill="black" stroke="black" points="95.75,-103.79 99.25,-113.79 102.75,-103.79 95.75,-103.79"/>
</g>
</g>
</svg>
