<?xml version="1.0" encoding="UTF-8" standalone="no"?>
<!DOCTYPE svg PUBLIC "-//W3C//DTD SVG 1.1//EN"
 "http://www.w3.org/Graphics/SVG/1.1/DTD/svg11.dtd">
<!-- Generated by graphviz version 5.0.0 (20220707.1540)
 -->
<!-- Title: dependencies Pages: 1 -->
<svg width="880pt" height="247pt"
 viewBox="0.00 0.00 880.00 246.80" xmlns="http://www.w3.org/2000/svg" xmlns:xlink="http://www.w3.org/1999/xlink">
<g id="graph0" class="graph" transform="scale(1 1) rotate(0) translate(4 242.8)">
<title>dependencies</title>
<polygon fill="white" stroke="transparent" points="-4,4 -4,-242.8 876,-242.8 876,4 -4,4"/>
<text text-anchor="middle" x="436" y="-8.2" font-family="sans-serif" font-size="14.00">dependencies</text>
<g id="clust1" class="cluster">
<title>cluster_AccountSummaryDocumentFilterModule</title>
<polygon fill="none" stroke="black" stroke-dasharray="1,5" points="8,-32.8 8,-230.8 864,-230.8 864,-32.8 8,-32.8"/>
</g>
<g id="clust4" class="cluster">
<title>cluster_AccountSummaryDocumentFilterModule_imports</title>
<polygon fill="none" stroke="black" points="312,-40.8 312,-92.8 856,-92.8 856,-40.8 312,-40.8"/>
</g>
<g id="clust2" class="cluster">
<title>cluster_AccountSummaryDocumentFilterModule_declarations</title>
<polygon fill="none" stroke="black" points="16,-40.8 16,-92.8 304,-92.8 304,-40.8 16,-40.8"/>
</g>
<g id="clust5" class="cluster">
<title>cluster_AccountSummaryDocumentFilterModule_exports</title>
<polygon fill="none" stroke="black" points="377,-170.8 377,-222.8 669,-222.8 669,-170.8 377,-170.8"/>
</g>
<!-- AccountSummaryDocumentFilterComponent -->
<g id="node1" class="node">
<title>AccountSummaryDocumentFilterComponent</title>
<polygon fill="#ffffb3" stroke="black" points="295.85,-84.8 24.15,-84.8 24.15,-48.8 295.85,-48.8 295.85,-84.8"/>
<text text-anchor="middle" x="160" y="-62.6" font-family="Times,serif" font-size="14.00">AccountSummaryDocumentFilterComponent</text>
</g>
<!-- AccountSummaryDocumentFilterModule -->
<g id="node2" class="node">
<title>AccountSummaryDocumentFilterModule</title>
<polygon fill="#8dd3c7" stroke="black" points="648.07,-149.8 645.07,-153.8 624.07,-153.8 621.07,-149.8 397.93,-149.8 397.93,-113.8 648.07,-113.8 648.07,-149.8"/>
<text text-anchor="middle" x="523" y="-127.6" font-family="Times,serif" font-size="14.00">AccountSummaryDocumentFilterModule</text>
</g>
<!-- AccountSummaryDocumentFilterComponent&#45;&gt;AccountSummaryDocumentFilterModule -->
<g id="edge1" class="edge">
<title>AccountSummaryDocumentFilterComponent&#45;&gt;AccountSummaryDocumentFilterModule</title>
<path fill="none" stroke="black" d="M160,-84.91C160,-104.14 160,-131.8 160,-131.8 160,-131.8 387.82,-131.8 387.82,-131.8"/>
<polygon fill="black" stroke="black" points="387.82,-135.3 397.82,-131.8 387.82,-128.3 387.82,-135.3"/>
</g>
<!-- AccountSummaryDocumentFilterComponent  -->
<g id="node7" class="node">
<title>AccountSummaryDocumentFilterComponent </title>
<polygon fill="#fb8072" stroke="black" points="660.85,-214.8 385.15,-214.8 385.15,-178.8 660.85,-178.8 660.85,-214.8"/>
<text text-anchor="middle" x="523" y="-192.6" font-family="Times,serif" font-size="14.00">AccountSummaryDocumentFilterComponent </text>
</g>
<!-- AccountSummaryDocumentFilterModule&#45;&gt;AccountSummaryDocumentFilterComponent  -->
<g id="edge6" class="edge">
<title>AccountSummaryDocumentFilterModule&#45;&gt;AccountSummaryDocumentFilterComponent </title>
<path fill="none" stroke="black" stroke-dasharray="5,2" d="M523,-149.91C523,-149.91 523,-168.79 523,-168.79"/>
<polygon fill="black" stroke="black" points="519.5,-168.79 523,-178.79 526.5,-168.79 519.5,-168.79"/>
</g>
<!-- DatePickerModule -->
<g id="node3" class="node">
<title>DatePickerModule</title>
<polygon fill="#8dd3c7" stroke="black" points="847.75,-84.8 844.75,-88.8 823.75,-88.8 820.75,-84.8 726.25,-84.8 726.25,-48.8 847.75,-48.8 847.75,-84.8"/>
<text text-anchor="middle" x="787" y="-62.6" font-family="Times,serif" font-size="14.00">DatePickerModule</text>
</g>
<!-- DatePickerModule&#45;&gt;AccountSummaryDocumentFilterModule -->
<g id="edge2" class="edge">
<title>DatePickerModule&#45;&gt;AccountSummaryDocumentFilterModule</title>
<path fill="none" stroke="black" d="M787,-84.91C787,-104.14 787,-131.8 787,-131.8 787,-131.8 658.04,-131.8 658.04,-131.8"/>
<polygon fill="black" stroke="black" points="658.04,-128.3 648.04,-131.8 658.04,-135.3 658.04,-128.3"/>
</g>
<!-- FormErrorsModule -->
<g id="node4" class="node">
<title>FormErrorsModule</title>
<polygon fill="#8dd3c7" stroke="black" points="708.38,-84.8 705.38,-88.8 684.38,-88.8 681.38,-84.8 583.62,-84.8 583.62,-48.8 708.38,-48.8 708.38,-84.8"/>
<text text-anchor="middle" x="646" y="-62.6" font-family="Times,serif" font-size="14.00">FormErrorsModule</text>
</g>
<!-- FormErrorsModule&#45;&gt;AccountSummaryDocumentFilterModule -->
<g id="edge3" class="edge">
<title>FormErrorsModule&#45;&gt;AccountSummaryDocumentFilterModule</title>
<path fill="none" stroke="black" d="M615.8,-84.91C615.8,-84.91 615.8,-103.79 615.8,-103.79"/>
<polygon fill="black" stroke="black" points="612.3,-103.79 615.8,-113.79 619.3,-103.79 612.3,-103.79"/>
</g>
<!-- I18nModule -->
<g id="node5" class="node">
<title>I18nModule</title>
<polygon fill="#8dd3c7" stroke="black" points="565.71,-84.8 562.71,-88.8 541.71,-88.8 538.71,-84.8 480.29,-84.8 480.29,-48.8 565.71,-48.8 565.71,-84.8"/>
<text text-anchor="middle" x="523" y="-62.6" font-family="Times,serif" font-size="14.00">I18nModule</text>
</g>
<!-- I18nModule&#45;&gt;AccountSummaryDocumentFilterModule -->
<g id="edge4" class="edge">
<title>I18nModule&#45;&gt;AccountSummaryDocumentFilterModule</title>
<path fill="none" stroke="black" d="M523,-84.91C523,-84.91 523,-103.79 523,-103.79"/>
<polygon fill="black" stroke="black" points="519.5,-103.79 523,-113.79 526.5,-103.79 519.5,-103.79"/>
</g>
<!-- NgSelectA11yModule -->
<g id="node6" class="node">
<title>NgSelectA11yModule</title>
<polygon fill="#8dd3c7" stroke="black" points="461.98,-84.8 458.98,-88.8 437.98,-88.8 434.98,-84.8 320.02,-84.8 320.02,-48.8 461.98,-48.8 461.98,-84.8"/>
<text text-anchor="middle" x="391" y="-62.6" font-family="Times,serif" font-size="14.00">NgSelectA11yModule</text>
</g>
<!-- NgSelectA11yModule&#45;&gt;AccountSummaryDocumentFilterModule -->
<g id="edge5" class="edge">
<title>NgSelectA11yModule&#45;&gt;AccountSummaryDocumentFilterModule</title>
<path fill="none" stroke="black" d="M429.98,-84.91C429.98,-84.91 429.98,-103.79 429.98,-103.79"/>
<polygon fill="black" stroke="black" points="426.48,-103.79 429.98,-113.79 433.48,-103.79 426.48,-103.79"/>
</g>
</g>
</svg>
