<?xml version="1.0" encoding="UTF-8" standalone="no"?>
<!DOCTYPE svg PUBLIC "-//W3C//DTD SVG 1.1//EN"
 "http://www.w3.org/Graphics/SVG/1.1/DTD/svg11.dtd">
<!-- Generated by graphviz version 5.0.0 (20220707.1540)
 -->
<!-- Title: dependencies Pages: 1 -->
<svg width="1917pt" height="174pt"
 viewBox="0.00 0.00 1917.00 173.80" xmlns="http://www.w3.org/2000/svg" xmlns:xlink="http://www.w3.org/1999/xlink">
<g id="graph0" class="graph" transform="scale(1 1) rotate(0) translate(4 169.8)">
<title>dependencies</title>
<polygon fill="white" stroke="transparent" points="-4,4 -4,-169.8 1913,-169.8 1913,4 -4,4"/>
<text text-anchor="middle" x="954.5" y="-8.2" font-family="sans-serif" font-size="14.00">dependencies</text>
<g id="clust1" class="cluster">
<title>cluster_CartBaseCoreModule</title>
<polygon fill="none" stroke="black" stroke-dasharray="1,5" points="8,-32.8 8,-157.8 1901,-157.8 1901,-32.8 8,-32.8"/>
</g>
<g id="clust3" class="cluster">
<title>cluster_CartBaseCoreModule_imports</title>
<polygon fill="none" stroke="black" points="1273,-40.8 1273,-92.8 1893,-92.8 1893,-40.8 1273,-40.8"/>
</g>
<g id="clust6" class="cluster">
<title>cluster_CartBaseCoreModule_providers</title>
<polygon fill="none" stroke="black" points="16,-40.8 16,-92.8 1265,-92.8 1265,-40.8 16,-40.8"/>
</g>
<!-- CartEventModule -->
<g id="node1" class="node">
<title>CartEventModule</title>
<polygon fill="#8dd3c7" stroke="black" points="1885.31,-84.8 1882.31,-88.8 1861.31,-88.8 1858.31,-84.8 1768.69,-84.8 1768.69,-48.8 1885.31,-48.8 1885.31,-84.8"/>
<text text-anchor="middle" x="1827" y="-62.6" font-family="Times,serif" font-size="14.00">CartEventModule</text>
</g>
<!-- CartBaseCoreModule -->
<g id="node5" class="node">
<title>CartBaseCoreModule</title>
<polygon fill="#8dd3c7" stroke="black" points="1121.08,-149.8 1118.08,-153.8 1097.08,-153.8 1094.08,-149.8 982.92,-149.8 982.92,-113.8 1121.08,-113.8 1121.08,-149.8"/>
<text text-anchor="middle" x="1052" y="-127.6" font-family="Times,serif" font-size="14.00">CartBaseCoreModule</text>
</g>
<!-- CartEventModule&#45;&gt;CartBaseCoreModule -->
<g id="edge1" class="edge">
<title>CartEventModule&#45;&gt;CartBaseCoreModule</title>
<path fill="none" stroke="black" d="M1827,-84.81C1827,-107.29 1827,-142.8 1827,-142.8 1827,-142.8 1131.12,-142.8 1131.12,-142.8"/>
<polygon fill="black" stroke="black" points="1131.12,-139.3 1121.12,-142.8 1131.12,-146.3 1131.12,-139.3"/>
</g>
<!-- CartPageEventModule -->
<g id="node2" class="node">
<title>CartPageEventModule</title>
<polygon fill="#8dd3c7" stroke="black" points="1750.53,-84.8 1747.53,-88.8 1726.53,-88.8 1723.53,-84.8 1607.47,-84.8 1607.47,-48.8 1750.53,-48.8 1750.53,-84.8"/>
<text text-anchor="middle" x="1679" y="-62.6" font-family="Times,serif" font-size="14.00">CartPageEventModule</text>
</g>
<!-- CartPageEventModule&#45;&gt;CartBaseCoreModule -->
<g id="edge2" class="edge">
<title>CartPageEventModule&#45;&gt;CartBaseCoreModule</title>
<path fill="none" stroke="black" d="M1679,-84.93C1679,-105.37 1679,-135.8 1679,-135.8 1679,-135.8 1131.19,-135.8 1131.19,-135.8"/>
<polygon fill="black" stroke="black" points="1131.19,-132.3 1121.19,-135.8 1131.19,-139.3 1131.19,-132.3"/>
</g>
<!-- CartPersistenceModule -->
<g id="node3" class="node">
<title>CartPersistenceModule</title>
<polygon fill="#8dd3c7" stroke="black" points="1589.14,-84.8 1586.14,-88.8 1565.14,-88.8 1562.14,-84.8 1442.86,-84.8 1442.86,-48.8 1589.14,-48.8 1589.14,-84.8"/>
<text text-anchor="middle" x="1516" y="-62.6" font-family="Times,serif" font-size="14.00">CartPersistenceModule</text>
</g>
<!-- CartPersistenceModule&#45;&gt;CartBaseCoreModule -->
<g id="edge3" class="edge">
<title>CartPersistenceModule&#45;&gt;CartBaseCoreModule</title>
<path fill="none" stroke="black" d="M1516,-85.07C1516,-103.36 1516,-128.8 1516,-128.8 1516,-128.8 1131.21,-128.8 1131.21,-128.8"/>
<polygon fill="black" stroke="black" points="1131.21,-125.3 1121.21,-128.8 1131.21,-132.3 1131.21,-125.3"/>
</g>
<!-- MultiCartStoreModule -->
<g id="node4" class="node">
<title>MultiCartStoreModule</title>
<polygon fill="#8dd3c7" stroke="black" points="1425.32,-84.8 1422.32,-88.8 1401.32,-88.8 1398.32,-84.8 1280.68,-84.8 1280.68,-48.8 1425.32,-48.8 1425.32,-84.8"/>
<text text-anchor="middle" x="1353" y="-62.6" font-family="Times,serif" font-size="14.00">MultiCartStoreModule</text>
</g>
<!-- MultiCartStoreModule&#45;&gt;CartBaseCoreModule -->
<g id="edge4" class="edge">
<title>MultiCartStoreModule&#45;&gt;CartBaseCoreModule</title>
<path fill="none" stroke="black" d="M1353,-84.81C1353,-100.85 1353,-121.8 1353,-121.8 1353,-121.8 1131.06,-121.8 1131.06,-121.8"/>
<polygon fill="black" stroke="black" points="1131.06,-118.3 1121.06,-121.8 1131.06,-125.3 1131.06,-118.3"/>
</g>
<!-- AsmBindCartService -->
<g id="node6" class="node">
<title>AsmBindCartService</title>
<ellipse fill="#fdb462" stroke="black" cx="1163" cy="-66.8" rx="93.79" ry="18"/>
<text text-anchor="middle" x="1163" y="-62.6" font-family="Times,serif" font-size="14.00">AsmBindCartService</text>
</g>
<!-- AsmBindCartService&#45;&gt;CartBaseCoreModule -->
<g id="edge5" class="edge">
<title>AsmBindCartService&#45;&gt;CartBaseCoreModule</title>
<path fill="none" stroke="black" d="M1095.2,-79.33C1095.2,-79.33 1095.2,-103.65 1095.2,-103.65"/>
<polygon fill="black" stroke="black" points="1091.7,-103.65 1095.2,-113.65 1098.7,-103.65 1091.7,-103.65"/>
</g>
<!-- AsmCustomerListService -->
<g id="node7" class="node">
<title>AsmCustomerListService</title>
<ellipse fill="#fdb462" stroke="black" cx="941" cy="-66.8" rx="110.63" ry="18"/>
<text text-anchor="middle" x="941" y="-62.6" font-family="Times,serif" font-size="14.00">AsmCustomerListService</text>
</g>
<!-- AsmCustomerListService&#45;&gt;CartBaseCoreModule -->
<g id="edge6" class="edge">
<title>AsmCustomerListService&#45;&gt;CartBaseCoreModule</title>
<path fill="none" stroke="black" d="M1017.39,-79.95C1017.39,-79.95 1017.39,-103.49 1017.39,-103.49"/>
<polygon fill="black" stroke="black" points="1013.89,-103.49 1017.39,-113.49 1020.89,-103.49 1013.89,-103.49"/>
</g>
<!-- CartConnector -->
<g id="node8" class="node">
<title>CartConnector</title>
<ellipse fill="#fdb462" stroke="black" cx="744" cy="-66.8" rx="67.78" ry="18"/>
<text text-anchor="middle" x="744" y="-62.6" font-family="Times,serif" font-size="14.00">CartConnector</text>
</g>
<!-- CartConnector&#45;&gt;CartBaseCoreModule -->
<g id="edge7" class="edge">
<title>CartConnector&#45;&gt;CartBaseCoreModule</title>
<path fill="none" stroke="black" d="M744,-84.81C744,-100.85 744,-121.8 744,-121.8 744,-121.8 972.88,-121.8 972.88,-121.8"/>
<polygon fill="black" stroke="black" points="972.88,-125.3 982.88,-121.8 972.88,-118.3 972.88,-125.3"/>
</g>
<!-- CartEntryConnector -->
<g id="node9" class="node">
<title>CartEntryConnector</title>
<ellipse fill="#fdb462" stroke="black" cx="569" cy="-66.8" rx="89.19" ry="18"/>
<text text-anchor="middle" x="569" y="-62.6" font-family="Times,serif" font-size="14.00">CartEntryConnector</text>
</g>
<!-- CartEntryConnector&#45;&gt;CartBaseCoreModule -->
<g id="edge8" class="edge">
<title>CartEntryConnector&#45;&gt;CartBaseCoreModule</title>
<path fill="none" stroke="black" d="M569,-85.07C569,-103.36 569,-128.8 569,-128.8 569,-128.8 972.8,-128.8 972.8,-128.8"/>
<polygon fill="black" stroke="black" points="972.8,-132.3 982.8,-128.8 972.8,-125.3 972.8,-132.3"/>
</g>
<!-- CartValidationConnector -->
<g id="node10" class="node">
<title>CartValidationConnector</title>
<ellipse fill="#fdb462" stroke="black" cx="353" cy="-66.8" rx="108.81" ry="18"/>
<text text-anchor="middle" x="353" y="-62.6" font-family="Times,serif" font-size="14.00">CartValidationConnector</text>
</g>
<!-- CartValidationConnector&#45;&gt;CartBaseCoreModule -->
<g id="edge9" class="edge">
<title>CartValidationConnector&#45;&gt;CartBaseCoreModule</title>
<path fill="none" stroke="black" d="M353,-84.93C353,-105.37 353,-135.8 353,-135.8 353,-135.8 972.74,-135.8 972.74,-135.8"/>
<polygon fill="black" stroke="black" points="972.74,-139.3 982.74,-135.8 972.74,-132.3 972.74,-139.3"/>
</g>
<!-- CartVoucherConnector -->
<g id="node11" class="node">
<title>CartVoucherConnector</title>
<ellipse fill="#fdb462" stroke="black" cx="125" cy="-66.8" rx="101.27" ry="18"/>
<text text-anchor="middle" x="125" y="-62.6" font-family="Times,serif" font-size="14.00">CartVoucherConnector</text>
</g>
<!-- CartVoucherConnector&#45;&gt;CartBaseCoreModule -->
<g id="edge10" class="edge">
<title>CartVoucherConnector&#45;&gt;CartBaseCoreModule</title>
<path fill="none" stroke="black" d="M125,-84.81C125,-107.29 125,-142.8 125,-142.8 125,-142.8 972.7,-142.8 972.7,-142.8"/>
<polygon fill="black" stroke="black" points="972.7,-146.3 982.7,-142.8 972.7,-139.3 972.7,-146.3"/>
</g>
</g>
</svg>
