<?xml version="1.0" encoding="UTF-8" standalone="no"?>
<!DOCTYPE svg PUBLIC "-//W3C//DTD SVG 1.1//EN"
 "http://www.w3.org/Graphics/SVG/1.1/DTD/svg11.dtd">
<!-- Generated by graphviz version 5.0.0 (20220707.1540)
 -->
<!-- Title: dependencies Pages: 1 -->
<svg width="494pt" height="174pt"
 viewBox="0.00 0.00 494.00 173.80" xmlns="http://www.w3.org/2000/svg" xmlns:xlink="http://www.w3.org/1999/xlink">
<g id="graph0" class="graph" transform="scale(1 1) rotate(0) translate(4 169.8)">
<title>dependencies</title>
<polygon fill="white" stroke="transparent" points="-4,4 -4,-169.8 490,-169.8 490,4 -4,4"/>
<text text-anchor="middle" x="243" y="-8.2" font-family="sans-serif" font-size="14.00">dependencies</text>
<g id="clust1" class="cluster">
<title>cluster_UserModule</title>
<polygon fill="none" stroke="black" stroke-dasharray="1,5" points="8,-32.8 8,-157.8 478,-157.8 478,-32.8 8,-32.8"/>
</g>
<g id="clust6" class="cluster">
<title>cluster_UserModule_providers</title>
<polygon fill="none" stroke="black" points="292,-40.8 292,-92.8 470,-92.8 470,-40.8 292,-40.8"/>
</g>
<g id="clust3" class="cluster">
<title>cluster_UserModule_imports</title>
<polygon fill="none" stroke="black" points="16,-40.8 16,-92.8 284,-92.8 284,-40.8 16,-40.8"/>
</g>
<!-- UserEventModule -->
<g id="node1" class="node">
<title>UserEventModule</title>
<polygon fill="#8dd3c7" stroke="black" points="276.14,-84.8 273.14,-88.8 252.14,-88.8 249.14,-84.8 157.86,-84.8 157.86,-48.8 276.14,-48.8 276.14,-84.8"/>
<text text-anchor="middle" x="217" y="-62.6" font-family="Times,serif" font-size="14.00">UserEventModule</text>
</g>
<!-- UserModule -->
<g id="node3" class="node">
<title>UserModule</title>
<polygon fill="#8dd3c7" stroke="black" points="259.99,-149.8 256.99,-153.8 235.99,-153.8 232.99,-149.8 174.01,-149.8 174.01,-113.8 259.99,-113.8 259.99,-149.8"/>
<text text-anchor="middle" x="217" y="-127.6" font-family="Times,serif" font-size="14.00">UserModule</text>
</g>
<!-- UserEventModule&#45;&gt;UserModule -->
<g id="edge1" class="edge">
<title>UserEventModule&#45;&gt;UserModule</title>
<path fill="none" stroke="black" d="M217,-84.91C217,-84.91 217,-103.79 217,-103.79"/>
<polygon fill="black" stroke="black" points="213.5,-103.79 217,-113.79 220.5,-103.79 213.5,-103.79"/>
</g>
<!-- UserStoreModule -->
<g id="node2" class="node">
<title>UserStoreModule</title>
<polygon fill="#8dd3c7" stroke="black" points="139.54,-84.8 136.54,-88.8 115.54,-88.8 112.54,-84.8 24.46,-84.8 24.46,-48.8 139.54,-48.8 139.54,-84.8"/>
<text text-anchor="middle" x="82" y="-62.6" font-family="Times,serif" font-size="14.00">UserStoreModule</text>
</g>
<!-- UserStoreModule&#45;&gt;UserModule -->
<g id="edge2" class="edge">
<title>UserStoreModule&#45;&gt;UserModule</title>
<path fill="none" stroke="black" d="M82,-84.91C82,-104.14 82,-131.8 82,-131.8 82,-131.8 163.91,-131.8 163.91,-131.8"/>
<polygon fill="black" stroke="black" points="163.91,-135.3 173.91,-131.8 163.91,-128.3 163.91,-135.3"/>
</g>
<!-- UserEventBuilder -->
<g id="node4" class="node">
<title>UserEventBuilder</title>
<ellipse fill="#fdb462" stroke="black" cx="381" cy="-66.8" rx="80.52" ry="18"/>
<text text-anchor="middle" x="381" y="-62.6" font-family="Times,serif" font-size="14.00">UserEventBuilder</text>
</g>
<!-- UserEventBuilder&#45;&gt;UserModule -->
<g id="edge3" class="edge">
<title>UserEventBuilder&#45;&gt;UserModule</title>
<path fill="none" stroke="black" d="M381,-84.91C381,-104.14 381,-131.8 381,-131.8 381,-131.8 270.09,-131.8 270.09,-131.8"/>
<polygon fill="black" stroke="black" points="270.09,-128.3 260.09,-131.8 270.09,-135.3 270.09,-128.3"/>
</g>
</g>
</svg>
