<?xml version="1.0" encoding="UTF-8" standalone="no"?>
<!DOCTYPE svg PUBLIC "-//W3C//DTD SVG 1.1//EN"
 "http://www.w3.org/Graphics/SVG/1.1/DTD/svg11.dtd">
<!-- Generated by graphviz version 5.0.0 (20220707.1540)
 -->
<!-- Title: dependencies Pages: 1 -->
<svg width="424pt" height="174pt"
 viewBox="0.00 0.00 424.00 173.80" xmlns="http://www.w3.org/2000/svg" xmlns:xlink="http://www.w3.org/1999/xlink">
<g id="graph0" class="graph" transform="scale(1 1) rotate(0) translate(4 169.8)">
<title>dependencies</title>
<polygon fill="white" stroke="transparent" points="-4,4 -4,-169.8 420,-169.8 420,4 -4,4"/>
<text text-anchor="middle" x="208" y="-8.2" font-family="sans-serif" font-size="14.00">dependencies</text>
<g id="clust1" class="cluster">
<title>cluster_CpqConfiguratorInteractiveModule</title>
<polygon fill="none" stroke="black" stroke-dasharray="1,5" points="8,-32.8 8,-157.8 408,-157.8 408,-32.8 8,-32.8"/>
</g>
<g id="clust3" class="cluster">
<title>cluster_CpqConfiguratorInteractiveModule_imports</title>
<polygon fill="none" stroke="black" points="16,-40.8 16,-92.8 400,-92.8 400,-40.8 16,-40.8"/>
</g>
<!-- CpqConfiguratorLayoutModule -->
<g id="node1" class="node">
<title>CpqConfiguratorLayoutModule</title>
<polygon fill="#8dd3c7" stroke="black" points="392.36,-84.8 389.36,-88.8 368.36,-88.8 365.36,-84.8 197.64,-84.8 197.64,-48.8 392.36,-48.8 392.36,-84.8"/>
<text text-anchor="middle" x="295" y="-62.6" font-family="Times,serif" font-size="14.00">CpqConfiguratorLayoutModule</text>
</g>
<!-- CpqConfiguratorInteractiveModule -->
<g id="node3" class="node">
<title>CpqConfiguratorInteractiveModule</title>
<polygon fill="#8dd3c7" stroke="black" points="315.56,-149.8 312.56,-153.8 291.56,-153.8 288.56,-149.8 100.44,-149.8 100.44,-113.8 315.56,-113.8 315.56,-149.8"/>
<text text-anchor="middle" x="208" y="-127.6" font-family="Times,serif" font-size="14.00">CpqConfiguratorInteractiveModule</text>
</g>
<!-- CpqConfiguratorLayoutModule&#45;&gt;CpqConfiguratorInteractiveModule -->
<g id="edge1" class="edge">
<title>CpqConfiguratorLayoutModule&#45;&gt;CpqConfiguratorInteractiveModule</title>
<path fill="none" stroke="black" d="M256.55,-84.91C256.55,-84.91 256.55,-103.79 256.55,-103.79"/>
<polygon fill="black" stroke="black" points="253.05,-103.79 256.55,-113.79 260.05,-103.79 253.05,-103.79"/>
</g>
<!-- HamburgerMenuModule -->
<g id="node2" class="node">
<title>HamburgerMenuModule</title>
<polygon fill="#8dd3c7" stroke="black" points="179.97,-84.8 176.97,-88.8 155.97,-88.8 152.97,-84.8 24.03,-84.8 24.03,-48.8 179.97,-48.8 179.97,-84.8"/>
<text text-anchor="middle" x="102" y="-62.6" font-family="Times,serif" font-size="14.00">HamburgerMenuModule</text>
</g>
<!-- HamburgerMenuModule&#45;&gt;CpqConfiguratorInteractiveModule -->
<g id="edge2" class="edge">
<title>HamburgerMenuModule&#45;&gt;CpqConfiguratorInteractiveModule</title>
<path fill="none" stroke="black" d="M140.23,-84.91C140.23,-84.91 140.23,-103.79 140.23,-103.79"/>
<polygon fill="black" stroke="black" points="136.73,-103.79 140.23,-113.79 143.73,-103.79 136.73,-103.79"/>
</g>
</g>
</svg>
