<?xml version="1.0" encoding="UTF-8" standalone="no"?>
<!DOCTYPE svg PUBLIC "-//W3C//DTD SVG 1.1//EN"
 "http://www.w3.org/Graphics/SVG/1.1/DTD/svg11.dtd">
<!-- Generated by graphviz version 5.0.0 (20220707.1540)
 -->
<!-- Title: dependencies Pages: 1 -->
<svg width="775pt" height="247pt"
 viewBox="0.00 0.00 775.00 246.80" xmlns="http://www.w3.org/2000/svg" xmlns:xlink="http://www.w3.org/1999/xlink">
<g id="graph0" class="graph" transform="scale(1 1) rotate(0) translate(4 242.8)">
<title>dependencies</title>
<polygon fill="white" stroke="transparent" points="-4,4 -4,-242.8 771,-242.8 771,4 -4,4"/>
<text text-anchor="middle" x="383.5" y="-8.2" font-family="sans-serif" font-size="14.00">dependencies</text>
<g id="clust1" class="cluster">
<title>cluster_CheckoutDeliveryAddressModule</title>
<polygon fill="none" stroke="black" stroke-dasharray="1,5" points="8,-32.8 8,-230.8 759,-230.8 759,-32.8 8,-32.8"/>
</g>
<g id="clust4" class="cluster">
<title>cluster_CheckoutDeliveryAddressModule_imports</title>
<polygon fill="none" stroke="black" points="270,-40.8 270,-92.8 751,-92.8 751,-40.8 270,-40.8"/>
</g>
<g id="clust5" class="cluster">
<title>cluster_CheckoutDeliveryAddressModule_exports</title>
<polygon fill="none" stroke="black" points="317,-170.8 317,-222.8 567,-222.8 567,-170.8 317,-170.8"/>
</g>
<g id="clust2" class="cluster">
<title>cluster_CheckoutDeliveryAddressModule_declarations</title>
<polygon fill="none" stroke="black" points="16,-40.8 16,-92.8 262,-92.8 262,-40.8 16,-40.8"/>
</g>
<!-- CheckoutDeliveryAddressComponent -->
<g id="node1" class="node">
<title>CheckoutDeliveryAddressComponent</title>
<polygon fill="#ffffb3" stroke="black" points="253.85,-84.8 24.15,-84.8 24.15,-48.8 253.85,-48.8 253.85,-84.8"/>
<text text-anchor="middle" x="139" y="-62.6" font-family="Times,serif" font-size="14.00">CheckoutDeliveryAddressComponent</text>
</g>
<!-- CheckoutDeliveryAddressModule -->
<g id="node2" class="node">
<title>CheckoutDeliveryAddressModule</title>
<polygon fill="#8dd3c7" stroke="black" points="546.07,-149.8 543.07,-153.8 522.07,-153.8 519.07,-149.8 337.93,-149.8 337.93,-113.8 546.07,-113.8 546.07,-149.8"/>
<text text-anchor="middle" x="442" y="-127.6" font-family="Times,serif" font-size="14.00">CheckoutDeliveryAddressModule</text>
</g>
<!-- CheckoutDeliveryAddressComponent&#45;&gt;CheckoutDeliveryAddressModule -->
<g id="edge1" class="edge">
<title>CheckoutDeliveryAddressComponent&#45;&gt;CheckoutDeliveryAddressModule</title>
<path fill="none" stroke="black" d="M139,-84.91C139,-104.14 139,-131.8 139,-131.8 139,-131.8 327.72,-131.8 327.72,-131.8"/>
<polygon fill="black" stroke="black" points="327.72,-135.3 337.72,-131.8 327.72,-128.3 327.72,-135.3"/>
</g>
<!-- CheckoutDeliveryAddressComponent  -->
<g id="node7" class="node">
<title>CheckoutDeliveryAddressComponent </title>
<polygon fill="#fb8072" stroke="black" points="558.85,-214.8 325.15,-214.8 325.15,-178.8 558.85,-178.8 558.85,-214.8"/>
<text text-anchor="middle" x="442" y="-192.6" font-family="Times,serif" font-size="14.00">CheckoutDeliveryAddressComponent </text>
</g>
<!-- CheckoutDeliveryAddressModule&#45;&gt;CheckoutDeliveryAddressComponent  -->
<g id="edge6" class="edge">
<title>CheckoutDeliveryAddressModule&#45;&gt;CheckoutDeliveryAddressComponent </title>
<path fill="none" stroke="black" stroke-dasharray="5,2" d="M442,-149.91C442,-149.91 442,-168.79 442,-168.79"/>
<polygon fill="black" stroke="black" points="438.5,-168.79 442,-178.79 445.5,-168.79 438.5,-168.79"/>
</g>
<!-- AddressFormModule -->
<g id="node3" class="node">
<title>AddressFormModule</title>
<polygon fill="#8dd3c7" stroke="black" points="742.77,-84.8 739.77,-88.8 718.77,-88.8 715.77,-84.8 607.23,-84.8 607.23,-48.8 742.77,-48.8 742.77,-84.8"/>
<text text-anchor="middle" x="675" y="-62.6" font-family="Times,serif" font-size="14.00">AddressFormModule</text>
</g>
<!-- AddressFormModule&#45;&gt;CheckoutDeliveryAddressModule -->
<g id="edge2" class="edge">
<title>AddressFormModule&#45;&gt;CheckoutDeliveryAddressModule</title>
<path fill="none" stroke="black" d="M675,-84.91C675,-104.14 675,-131.8 675,-131.8 675,-131.8 556.23,-131.8 556.23,-131.8"/>
<polygon fill="black" stroke="black" points="556.23,-128.3 546.23,-131.8 556.23,-135.3 556.23,-128.3"/>
</g>
<!-- CardModule -->
<g id="node4" class="node">
<title>CardModule</title>
<polygon fill="#8dd3c7" stroke="black" points="589.27,-84.8 586.27,-88.8 565.27,-88.8 562.27,-84.8 502.73,-84.8 502.73,-48.8 589.27,-48.8 589.27,-84.8"/>
<text text-anchor="middle" x="546" y="-62.6" font-family="Times,serif" font-size="14.00">CardModule</text>
</g>
<!-- CardModule&#45;&gt;CheckoutDeliveryAddressModule -->
<g id="edge3" class="edge">
<title>CardModule&#45;&gt;CheckoutDeliveryAddressModule</title>
<path fill="none" stroke="black" d="M524.33,-84.91C524.33,-84.91 524.33,-103.79 524.33,-103.79"/>
<polygon fill="black" stroke="black" points="520.83,-103.79 524.33,-113.79 527.83,-103.79 520.83,-103.79"/>
</g>
<!-- I18nModule -->
<g id="node5" class="node">
<title>I18nModule</title>
<polygon fill="#8dd3c7" stroke="black" points="484.71,-84.8 481.71,-88.8 460.71,-88.8 457.71,-84.8 399.29,-84.8 399.29,-48.8 484.71,-48.8 484.71,-84.8"/>
<text text-anchor="middle" x="442" y="-62.6" font-family="Times,serif" font-size="14.00">I18nModule</text>
</g>
<!-- I18nModule&#45;&gt;CheckoutDeliveryAddressModule -->
<g id="edge4" class="edge">
<title>I18nModule&#45;&gt;CheckoutDeliveryAddressModule</title>
<path fill="none" stroke="black" d="M442,-84.91C442,-84.91 442,-103.79 442,-103.79"/>
<polygon fill="black" stroke="black" points="438.5,-103.79 442,-113.79 445.5,-103.79 438.5,-103.79"/>
</g>
<!-- SpinnerModule -->
<g id="node6" class="node">
<title>SpinnerModule</title>
<polygon fill="#8dd3c7" stroke="black" points="381.6,-84.8 378.6,-88.8 357.6,-88.8 354.6,-84.8 278.4,-84.8 278.4,-48.8 381.6,-48.8 381.6,-84.8"/>
<text text-anchor="middle" x="330" y="-62.6" font-family="Times,serif" font-size="14.00">SpinnerModule</text>
</g>
<!-- SpinnerModule&#45;&gt;CheckoutDeliveryAddressModule -->
<g id="edge5" class="edge">
<title>SpinnerModule&#45;&gt;CheckoutDeliveryAddressModule</title>
<path fill="none" stroke="black" d="M359.76,-84.91C359.76,-84.91 359.76,-103.79 359.76,-103.79"/>
<polygon fill="black" stroke="black" points="356.26,-103.79 359.76,-113.79 363.26,-103.79 356.26,-103.79"/>
</g>
</g>
</svg>
