<?xml version="1.0" encoding="UTF-8" standalone="no"?>
<!DOCTYPE svg PUBLIC "-//W3C//DTD SVG 1.1//EN"
 "http://www.w3.org/Graphics/SVG/1.1/DTD/svg11.dtd">
<!-- Generated by graphviz version 5.0.0 (20220707.1540)
 -->
<!-- Title: dependencies Pages: 1 -->
<svg width="436pt" height="247pt"
 viewBox="0.00 0.00 436.00 246.80" xmlns="http://www.w3.org/2000/svg" xmlns:xlink="http://www.w3.org/1999/xlink">
<g id="graph0" class="graph" transform="scale(1 1) rotate(0) translate(4 242.8)">
<title>dependencies</title>
<polygon fill="white" stroke="transparent" points="-4,4 -4,-242.8 432,-242.8 432,4 -4,4"/>
<text text-anchor="middle" x="214" y="-8.2" font-family="sans-serif" font-size="14.00">dependencies</text>
<g id="clust1" class="cluster">
<title>cluster_GlobalMessageComponentModule</title>
<polygon fill="none" stroke="black" stroke-dasharray="1,5" points="8,-32.8 8,-230.8 420,-230.8 420,-32.8 8,-32.8"/>
</g>
<g id="clust4" class="cluster">
<title>cluster_GlobalMessageComponentModule_imports</title>
<polygon fill="none" stroke="black" points="208,-40.8 208,-92.8 412,-92.8 412,-40.8 208,-40.8"/>
</g>
<g id="clust5" class="cluster">
<title>cluster_GlobalMessageComponentModule_exports</title>
<polygon fill="none" stroke="black" points="164,-170.8 164,-222.8 352,-222.8 352,-170.8 164,-170.8"/>
</g>
<g id="clust2" class="cluster">
<title>cluster_GlobalMessageComponentModule_declarations</title>
<polygon fill="none" stroke="black" points="16,-40.8 16,-92.8 200,-92.8 200,-40.8 16,-40.8"/>
</g>
<!-- GlobalMessageComponent -->
<g id="node1" class="node">
<title>GlobalMessageComponent</title>
<polygon fill="#ffffb3" stroke="black" points="192.42,-84.8 23.58,-84.8 23.58,-48.8 192.42,-48.8 192.42,-84.8"/>
<text text-anchor="middle" x="108" y="-62.6" font-family="Times,serif" font-size="14.00">GlobalMessageComponent</text>
</g>
<!-- GlobalMessageComponentModule -->
<g id="node2" class="node">
<title>GlobalMessageComponentModule</title>
<polygon fill="#8dd3c7" stroke="black" points="363.97,-149.8 360.97,-153.8 339.97,-153.8 336.97,-149.8 152.03,-149.8 152.03,-113.8 363.97,-113.8 363.97,-149.8"/>
<text text-anchor="middle" x="258" y="-127.6" font-family="Times,serif" font-size="14.00">GlobalMessageComponentModule</text>
</g>
<!-- GlobalMessageComponent&#45;&gt;GlobalMessageComponentModule -->
<g id="edge1" class="edge">
<title>GlobalMessageComponent&#45;&gt;GlobalMessageComponentModule</title>
<path fill="none" stroke="black" d="M172.11,-84.91C172.11,-84.91 172.11,-103.79 172.11,-103.79"/>
<polygon fill="black" stroke="black" points="168.61,-103.79 172.11,-113.79 175.61,-103.79 168.61,-103.79"/>
</g>
<!-- GlobalMessageComponent  -->
<g id="node5" class="node">
<title>GlobalMessageComponent </title>
<polygon fill="#fb8072" stroke="black" points="343.92,-214.8 172.08,-214.8 172.08,-178.8 343.92,-178.8 343.92,-214.8"/>
<text text-anchor="middle" x="258" y="-192.6" font-family="Times,serif" font-size="14.00">GlobalMessageComponent </text>
</g>
<!-- GlobalMessageComponentModule&#45;&gt;GlobalMessageComponent  -->
<g id="edge4" class="edge">
<title>GlobalMessageComponentModule&#45;&gt;GlobalMessageComponent </title>
<path fill="none" stroke="black" stroke-dasharray="5,2" d="M258,-149.91C258,-149.91 258,-168.79 258,-168.79"/>
<polygon fill="black" stroke="black" points="254.5,-168.79 258,-178.79 261.5,-168.79 254.5,-168.79"/>
</g>
<!-- I18nModule -->
<g id="node3" class="node">
<title>I18nModule</title>
<polygon fill="#8dd3c7" stroke="black" points="403.71,-84.8 400.71,-88.8 379.71,-88.8 376.71,-84.8 318.29,-84.8 318.29,-48.8 403.71,-48.8 403.71,-84.8"/>
<text text-anchor="middle" x="361" y="-62.6" font-family="Times,serif" font-size="14.00">I18nModule</text>
</g>
<!-- I18nModule&#45;&gt;GlobalMessageComponentModule -->
<g id="edge2" class="edge">
<title>I18nModule&#45;&gt;GlobalMessageComponentModule</title>
<path fill="none" stroke="black" d="M341.19,-84.91C341.19,-84.91 341.19,-103.79 341.19,-103.79"/>
<polygon fill="black" stroke="black" points="337.69,-103.79 341.19,-113.79 344.69,-103.79 337.69,-103.79"/>
</g>
<!-- IconModule -->
<g id="node4" class="node">
<title>IconModule</title>
<polygon fill="#8dd3c7" stroke="black" points="300.43,-84.8 297.43,-88.8 276.43,-88.8 273.43,-84.8 215.57,-84.8 215.57,-48.8 300.43,-48.8 300.43,-84.8"/>
<text text-anchor="middle" x="258" y="-62.6" font-family="Times,serif" font-size="14.00">IconModule</text>
</g>
<!-- IconModule&#45;&gt;GlobalMessageComponentModule -->
<g id="edge3" class="edge">
<title>IconModule&#45;&gt;GlobalMessageComponentModule</title>
<path fill="none" stroke="black" d="M258,-84.91C258,-84.91 258,-103.79 258,-103.79"/>
<polygon fill="black" stroke="black" points="254.5,-103.79 258,-113.79 261.5,-103.79 254.5,-103.79"/>
</g>
</g>
</svg>
