<?xml version="1.0" encoding="UTF-8" standalone="no"?>
<!DOCTYPE svg PUBLIC "-//W3C//DTD SVG 1.1//EN"
 "http://www.w3.org/Graphics/SVG/1.1/DTD/svg11.dtd">
<!-- Generated by graphviz version 5.0.0 (20220707.1540)
 -->
<!-- Title: dependencies Pages: 1 -->
<svg width="940pt" height="247pt"
 viewBox="0.00 0.00 940.00 246.80" xmlns="http://www.w3.org/2000/svg" xmlns:xlink="http://www.w3.org/1999/xlink">
<g id="graph0" class="graph" transform="scale(1 1) rotate(0) translate(4 242.8)">
<title>dependencies</title>
<polygon fill="white" stroke="transparent" points="-4,4 -4,-242.8 936,-242.8 936,4 -4,4"/>
<text text-anchor="middle" x="466" y="-8.2" font-family="sans-serif" font-size="14.00">dependencies</text>
<g id="clust1" class="cluster">
<title>cluster_CheckoutReviewSubmitModule</title>
<polygon fill="none" stroke="black" stroke-dasharray="1,5" points="8,-32.8 8,-230.8 924,-230.8 924,-32.8 8,-32.8"/>
</g>
<g id="clust2" class="cluster">
<title>cluster_CheckoutReviewSubmitModule_declarations</title>
<polygon fill="none" stroke="black" points="682,-40.8 682,-92.8 916,-92.8 916,-40.8 682,-40.8"/>
</g>
<g id="clust5" class="cluster">
<title>cluster_CheckoutReviewSubmitModule_exports</title>
<polygon fill="none" stroke="black" points="297,-170.8 297,-222.8 535,-222.8 535,-170.8 297,-170.8"/>
</g>
<g id="clust4" class="cluster">
<title>cluster_CheckoutReviewSubmitModule_imports</title>
<polygon fill="none" stroke="black" points="16,-40.8 16,-92.8 674,-92.8 674,-40.8 16,-40.8"/>
</g>
<!-- CheckoutReviewSubmitComponent -->
<g id="node1" class="node">
<title>CheckoutReviewSubmitComponent</title>
<polygon fill="#ffffb3" stroke="black" points="908.21,-84.8 689.79,-84.8 689.79,-48.8 908.21,-48.8 908.21,-84.8"/>
<text text-anchor="middle" x="799" y="-62.6" font-family="Times,serif" font-size="14.00">CheckoutReviewSubmitComponent</text>
</g>
<!-- CheckoutReviewSubmitModule -->
<g id="node2" class="node">
<title>CheckoutReviewSubmitModule</title>
<polygon fill="#8dd3c7" stroke="black" points="514.43,-149.8 511.43,-153.8 490.43,-153.8 487.43,-149.8 317.57,-149.8 317.57,-113.8 514.43,-113.8 514.43,-149.8"/>
<text text-anchor="middle" x="416" y="-127.6" font-family="Times,serif" font-size="14.00">CheckoutReviewSubmitModule</text>
</g>
<!-- CheckoutReviewSubmitComponent&#45;&gt;CheckoutReviewSubmitModule -->
<g id="edge1" class="edge">
<title>CheckoutReviewSubmitComponent&#45;&gt;CheckoutReviewSubmitModule</title>
<path fill="none" stroke="black" d="M799,-85.08C799,-106.12 799,-137.8 799,-137.8 799,-137.8 524.63,-137.8 524.63,-137.8"/>
<polygon fill="black" stroke="black" points="524.63,-134.3 514.63,-137.8 524.63,-141.3 524.63,-134.3"/>
</g>
<!-- CheckoutReviewSubmitComponent  -->
<g id="node9" class="node">
<title>CheckoutReviewSubmitComponent </title>
<polygon fill="#fb8072" stroke="black" points="526.71,-214.8 305.29,-214.8 305.29,-178.8 526.71,-178.8 526.71,-214.8"/>
<text text-anchor="middle" x="416" y="-192.6" font-family="Times,serif" font-size="14.00">CheckoutReviewSubmitComponent </text>
</g>
<!-- CheckoutReviewSubmitModule&#45;&gt;CheckoutReviewSubmitComponent  -->
<g id="edge8" class="edge">
<title>CheckoutReviewSubmitModule&#45;&gt;CheckoutReviewSubmitComponent </title>
<path fill="none" stroke="black" stroke-dasharray="5,2" d="M416,-149.91C416,-149.91 416,-168.79 416,-168.79"/>
<polygon fill="black" stroke="black" points="412.5,-168.79 416,-178.79 419.5,-168.79 412.5,-168.79"/>
</g>
<!-- CardModule -->
<g id="node3" class="node">
<title>CardModule</title>
<polygon fill="#8dd3c7" stroke="black" points="666.27,-84.8 663.27,-88.8 642.27,-88.8 639.27,-84.8 579.73,-84.8 579.73,-48.8 666.27,-48.8 666.27,-84.8"/>
<text text-anchor="middle" x="623" y="-62.6" font-family="Times,serif" font-size="14.00">CardModule</text>
</g>
<!-- CardModule&#45;&gt;CheckoutReviewSubmitModule -->
<g id="edge2" class="edge">
<title>CardModule&#45;&gt;CheckoutReviewSubmitModule</title>
<path fill="none" stroke="black" d="M623,-84.82C623,-102.17 623,-125.8 623,-125.8 623,-125.8 524.35,-125.8 524.35,-125.8"/>
<polygon fill="black" stroke="black" points="524.35,-122.3 514.35,-125.8 524.35,-129.3 524.35,-122.3"/>
</g>
<!-- I18nModule -->
<g id="node4" class="node">
<title>I18nModule</title>
<polygon fill="#8dd3c7" stroke="black" points="561.71,-84.8 558.71,-88.8 537.71,-88.8 534.71,-84.8 476.29,-84.8 476.29,-48.8 561.71,-48.8 561.71,-84.8"/>
<text text-anchor="middle" x="519" y="-62.6" font-family="Times,serif" font-size="14.00">I18nModule</text>
</g>
<!-- I18nModule&#45;&gt;CheckoutReviewSubmitModule -->
<g id="edge3" class="edge">
<title>I18nModule&#45;&gt;CheckoutReviewSubmitModule</title>
<path fill="none" stroke="black" d="M495.3,-84.91C495.3,-84.91 495.3,-103.79 495.3,-103.79"/>
<polygon fill="black" stroke="black" points="491.8,-103.79 495.3,-113.79 498.8,-103.79 491.8,-103.79"/>
</g>
<!-- IconModule -->
<g id="node5" class="node">
<title>IconModule</title>
<polygon fill="#8dd3c7" stroke="black" points="458.43,-84.8 455.43,-88.8 434.43,-88.8 431.43,-84.8 373.57,-84.8 373.57,-48.8 458.43,-48.8 458.43,-84.8"/>
<text text-anchor="middle" x="416" y="-62.6" font-family="Times,serif" font-size="14.00">IconModule</text>
</g>
<!-- IconModule&#45;&gt;CheckoutReviewSubmitModule -->
<g id="edge4" class="edge">
<title>IconModule&#45;&gt;CheckoutReviewSubmitModule</title>
<path fill="none" stroke="black" d="M416,-84.91C416,-84.91 416,-103.79 416,-103.79"/>
<polygon fill="black" stroke="black" points="412.5,-103.79 416,-113.79 419.5,-103.79 412.5,-103.79"/>
</g>
<!-- OutletModule -->
<g id="node6" class="node">
<title>OutletModule</title>
<polygon fill="#8dd3c7" stroke="black" points="356.05,-84.8 353.05,-88.8 332.05,-88.8 329.05,-84.8 261.95,-84.8 261.95,-48.8 356.05,-48.8 356.05,-84.8"/>
<text text-anchor="middle" x="309" y="-62.6" font-family="Times,serif" font-size="14.00">OutletModule</text>
</g>
<!-- OutletModule&#45;&gt;CheckoutReviewSubmitModule -->
<g id="edge5" class="edge">
<title>OutletModule&#45;&gt;CheckoutReviewSubmitModule</title>
<path fill="none" stroke="black" d="M337.03,-84.91C337.03,-84.91 337.03,-103.79 337.03,-103.79"/>
<polygon fill="black" stroke="black" points="333.53,-103.79 337.03,-113.79 340.53,-103.79 333.53,-103.79"/>
</g>
<!-- PromotionsModule -->
<g id="node7" class="node">
<title>PromotionsModule</title>
<polygon fill="#8dd3c7" stroke="black" points="244.12,-84.8 241.12,-88.8 220.12,-88.8 217.12,-84.8 119.88,-84.8 119.88,-48.8 244.12,-48.8 244.12,-84.8"/>
<text text-anchor="middle" x="182" y="-62.6" font-family="Times,serif" font-size="14.00">PromotionsModule</text>
</g>
<!-- PromotionsModule&#45;&gt;CheckoutReviewSubmitModule -->
<g id="edge6" class="edge">
<title>PromotionsModule&#45;&gt;CheckoutReviewSubmitModule</title>
<path fill="none" stroke="black" d="M182,-84.82C182,-102.17 182,-125.8 182,-125.8 182,-125.8 307.78,-125.8 307.78,-125.8"/>
<polygon fill="black" stroke="black" points="307.78,-129.3 317.78,-125.8 307.78,-122.3 307.78,-129.3"/>
</g>
<!-- UrlModule -->
<g id="node8" class="node">
<title>UrlModule</title>
<polygon fill="#8dd3c7" stroke="black" points="102.21,-84.8 99.21,-88.8 78.21,-88.8 75.21,-84.8 23.79,-84.8 23.79,-48.8 102.21,-48.8 102.21,-84.8"/>
<text text-anchor="middle" x="63" y="-62.6" font-family="Times,serif" font-size="14.00">UrlModule</text>
</g>
<!-- UrlModule&#45;&gt;CheckoutReviewSubmitModule -->
<g id="edge7" class="edge">
<title>UrlModule&#45;&gt;CheckoutReviewSubmitModule</title>
<path fill="none" stroke="black" d="M63,-85.08C63,-106.12 63,-137.8 63,-137.8 63,-137.8 307.67,-137.8 307.67,-137.8"/>
<polygon fill="black" stroke="black" points="307.67,-141.3 317.67,-137.8 307.67,-134.3 307.67,-141.3"/>
</g>
</g>
</svg>
