<?xml version="1.0" encoding="UTF-8" standalone="no"?>
<!DOCTYPE svg PUBLIC "-//W3C//DTD SVG 1.1//EN"
 "http://www.w3.org/Graphics/SVG/1.1/DTD/svg11.dtd">
<!-- Generated by graphviz version 5.0.0 (20220707.1540)
 -->
<!-- Title: dependencies Pages: 1 -->
<svg width="388pt" height="174pt"
 viewBox="0.00 0.00 388.00 173.80" xmlns="http://www.w3.org/2000/svg" xmlns:xlink="http://www.w3.org/1999/xlink">
<g id="graph0" class="graph" transform="scale(1 1) rotate(0) translate(4 169.8)">
<title>dependencies</title>
<polygon fill="white" stroke="transparent" points="-4,4 -4,-169.8 384,-169.8 384,4 -4,4"/>
<text text-anchor="middle" x="190" y="-8.2" font-family="sans-serif" font-size="14.00">dependencies</text>
<g id="clust1" class="cluster">
<title>cluster_CDCUserProfileModule</title>
<polygon fill="none" stroke="black" stroke-dasharray="1,5" points="8,-32.8 8,-157.8 372,-157.8 372,-32.8 8,-32.8"/>
</g>
<g id="clust3" class="cluster">
<title>cluster_CDCUserProfileModule_imports</title>
<polygon fill="none" stroke="black" points="16,-40.8 16,-92.8 364,-92.8 364,-40.8 16,-40.8"/>
</g>
<!-- CDCForgotPasswordModule -->
<g id="node1" class="node">
<title>CDCForgotPasswordModule</title>
<polygon fill="#8dd3c7" stroke="black" points="355.85,-84.8 352.85,-88.8 331.85,-88.8 328.85,-84.8 176.15,-84.8 176.15,-48.8 355.85,-48.8 355.85,-84.8"/>
<text text-anchor="middle" x="266" y="-62.6" font-family="Times,serif" font-size="14.00">CDCForgotPasswordModule</text>
</g>
<!-- CDCUserProfileModule -->
<g id="node3" class="node">
<title>CDCUserProfileModule</title>
<polygon fill="#8dd3c7" stroke="black" points="255.38,-149.8 252.38,-153.8 231.38,-153.8 228.38,-149.8 102.62,-149.8 102.62,-113.8 255.38,-113.8 255.38,-149.8"/>
<text text-anchor="middle" x="179" y="-127.6" font-family="Times,serif" font-size="14.00">CDCUserProfileModule</text>
</g>
<!-- CDCForgotPasswordModule&#45;&gt;CDCUserProfileModule -->
<g id="edge1" class="edge">
<title>CDCForgotPasswordModule&#45;&gt;CDCUserProfileModule</title>
<path fill="none" stroke="black" d="M215.88,-84.91C215.88,-84.91 215.88,-103.79 215.88,-103.79"/>
<polygon fill="black" stroke="black" points="212.38,-103.79 215.88,-113.79 219.38,-103.79 212.38,-103.79"/>
</g>
<!-- CDCRegisterModule -->
<g id="node2" class="node">
<title>CDCRegisterModule</title>
<polygon fill="#8dd3c7" stroke="black" points="158.49,-84.8 155.49,-88.8 134.49,-88.8 131.49,-84.8 23.51,-84.8 23.51,-48.8 158.49,-48.8 158.49,-84.8"/>
<text text-anchor="middle" x="91" y="-62.6" font-family="Times,serif" font-size="14.00">CDCRegisterModule</text>
</g>
<!-- CDCRegisterModule&#45;&gt;CDCUserProfileModule -->
<g id="edge2" class="edge">
<title>CDCRegisterModule&#45;&gt;CDCUserProfileModule</title>
<path fill="none" stroke="black" d="M130.53,-84.91C130.53,-84.91 130.53,-103.79 130.53,-103.79"/>
<polygon fill="black" stroke="black" points="127.03,-103.79 130.53,-113.79 134.03,-103.79 127.03,-103.79"/>
</g>
</g>
</svg>
