<?xml version="1.0" encoding="UTF-8" standalone="no"?>
<!DOCTYPE svg PUBLIC "-//W3C//DTD SVG 1.1//EN"
 "http://www.w3.org/Graphics/SVG/1.1/DTD/svg11.dtd">
<!-- Generated by graphviz version 5.0.0 (20220707.1540)
 -->
<!-- Title: dependencies Pages: 1 -->
<svg width="494pt" height="174pt"
 viewBox="0.00 0.00 494.00 173.80" xmlns="http://www.w3.org/2000/svg" xmlns:xlink="http://www.w3.org/1999/xlink">
<g id="graph0" class="graph" transform="scale(1 1) rotate(0) translate(4 169.8)">
<title>dependencies</title>
<polygon fill="white" stroke="transparent" points="-4,4 -4,-169.8 490,-169.8 490,4 -4,4"/>
<text text-anchor="middle" x="243" y="-8.2" font-family="sans-serif" font-size="14.00">dependencies</text>
<g id="clust1" class="cluster">
<title>cluster_AccountSummaryHeaderModule</title>
<polygon fill="none" stroke="black" stroke-dasharray="1,5" points="8,-32.8 8,-157.8 478,-157.8 478,-32.8 8,-32.8"/>
</g>
<g id="clust2" class="cluster">
<title>cluster_AccountSummaryHeaderModule_declarations</title>
<polygon fill="none" stroke="black" points="230,-40.8 230,-92.8 470,-92.8 470,-40.8 230,-40.8"/>
</g>
<g id="clust4" class="cluster">
<title>cluster_AccountSummaryHeaderModule_imports</title>
<polygon fill="none" stroke="black" points="16,-40.8 16,-92.8 222,-92.8 222,-40.8 16,-40.8"/>
</g>
<!-- AccountSummaryHeaderComponent -->
<g id="node1" class="node">
<title>AccountSummaryHeaderComponent</title>
<polygon fill="#ffffb3" stroke="black" points="461.61,-84.8 238.39,-84.8 238.39,-48.8 461.61,-48.8 461.61,-84.8"/>
<text text-anchor="middle" x="350" y="-62.6" font-family="Times,serif" font-size="14.00">AccountSummaryHeaderComponent</text>
</g>
<!-- AccountSummaryHeaderModule -->
<g id="node2" class="node">
<title>AccountSummaryHeaderModule</title>
<polygon fill="#8dd3c7" stroke="black" points="271.84,-149.8 268.84,-153.8 247.84,-153.8 244.84,-149.8 70.16,-149.8 70.16,-113.8 271.84,-113.8 271.84,-149.8"/>
<text text-anchor="middle" x="171" y="-127.6" font-family="Times,serif" font-size="14.00">AccountSummaryHeaderModule</text>
</g>
<!-- AccountSummaryHeaderComponent&#45;&gt;AccountSummaryHeaderModule -->
<g id="edge1" class="edge">
<title>AccountSummaryHeaderComponent&#45;&gt;AccountSummaryHeaderModule</title>
<path fill="none" stroke="black" d="M255.06,-84.91C255.06,-84.91 255.06,-103.79 255.06,-103.79"/>
<polygon fill="black" stroke="black" points="251.56,-103.79 255.06,-113.79 258.56,-103.79 251.56,-103.79"/>
</g>
<!-- CardModule -->
<g id="node3" class="node">
<title>CardModule</title>
<polygon fill="#8dd3c7" stroke="black" points="214.27,-84.8 211.27,-88.8 190.27,-88.8 187.27,-84.8 127.73,-84.8 127.73,-48.8 214.27,-48.8 214.27,-84.8"/>
<text text-anchor="middle" x="171" y="-62.6" font-family="Times,serif" font-size="14.00">CardModule</text>
</g>
<!-- CardModule&#45;&gt;AccountSummaryHeaderModule -->
<g id="edge2" class="edge">
<title>CardModule&#45;&gt;AccountSummaryHeaderModule</title>
<path fill="none" stroke="black" d="M171,-84.91C171,-84.91 171,-103.79 171,-103.79"/>
<polygon fill="black" stroke="black" points="167.5,-103.79 171,-113.79 174.5,-103.79 167.5,-103.79"/>
</g>
<!-- I18nModule -->
<g id="node4" class="node">
<title>I18nModule</title>
<polygon fill="#8dd3c7" stroke="black" points="109.71,-84.8 106.71,-88.8 85.71,-88.8 82.71,-84.8 24.29,-84.8 24.29,-48.8 109.71,-48.8 109.71,-84.8"/>
<text text-anchor="middle" x="67" y="-62.6" font-family="Times,serif" font-size="14.00">I18nModule</text>
</g>
<!-- I18nModule&#45;&gt;AccountSummaryHeaderModule -->
<g id="edge3" class="edge">
<title>I18nModule&#45;&gt;AccountSummaryHeaderModule</title>
<path fill="none" stroke="black" d="M89.84,-84.91C89.84,-84.91 89.84,-103.79 89.84,-103.79"/>
<polygon fill="black" stroke="black" points="86.34,-103.79 89.84,-113.79 93.34,-103.79 86.34,-103.79"/>
</g>
</g>
</svg>
