<?xml version="1.0" encoding="UTF-8" standalone="no"?>
<!DOCTYPE svg PUBLIC "-//W3C//DTD SVG 1.1//EN"
 "http://www.w3.org/Graphics/SVG/1.1/DTD/svg11.dtd">
<!-- Generated by graphviz version 5.0.0 (20220707.1540)
 -->
<!-- Title: dependencies Pages: 1 -->
<svg width="494pt" height="174pt"
 viewBox="0.00 0.00 494.00 173.80" xmlns="http://www.w3.org/2000/svg" xmlns:xlink="http://www.w3.org/1999/xlink">
<g id="graph0" class="graph" transform="scale(1 1) rotate(0) translate(4 169.8)">
<title>dependencies</title>
<polygon fill="white" stroke="transparent" points="-4,4 -4,-169.8 490,-169.8 490,4 -4,4"/>
<text text-anchor="middle" x="243" y="-8.2" font-family="sans-serif" font-size="14.00">dependencies</text>
<g id="clust1" class="cluster">
<title>cluster_AccountSummaryHeaderModule</title>
<polygon fill="none" stroke="black" stroke-dasharray="1,5" points="8,-32.8 8,-157.8 478,-157.8 478,-32.8 8,-32.8"/>
</g>
<g id="clust4" class="cluster">
<title>cluster_AccountSummaryHeaderModule_imports</title>
<polygon fill="none" stroke="black" points="264,-40.8 264,-92.8 470,-92.8 470,-40.8 264,-40.8"/>
</g>
<g id="clust2" class="cluster">
<title>cluster_AccountSummaryHeaderModule_declarations</title>
<polygon fill="none" stroke="black" points="16,-40.8 16,-92.8 256,-92.8 256,-40.8 16,-40.8"/>
</g>
<!-- AccountSummaryHeaderComponent -->
<g id="node1" class="node">
<title>AccountSummaryHeaderComponent</title>
<polygon fill="#ffffb3" stroke="black" points="247.61,-84.8 24.39,-84.8 24.39,-48.8 247.61,-48.8 247.61,-84.8"/>
<text text-anchor="middle" x="136" y="-62.6" font-family="Times,serif" font-size="14.00">AccountSummaryHeaderComponent</text>
</g>
<!-- AccountSummaryHeaderModule -->
<g id="node2" class="node">
<title>AccountSummaryHeaderModule</title>
<polygon fill="#8dd3c7" stroke="black" points="415.84,-149.8 412.84,-153.8 391.84,-153.8 388.84,-149.8 214.16,-149.8 214.16,-113.8 415.84,-113.8 415.84,-149.8"/>
<text text-anchor="middle" x="315" y="-127.6" font-family="Times,serif" font-size="14.00">AccountSummaryHeaderModule</text>
</g>
<!-- AccountSummaryHeaderComponent&#45;&gt;AccountSummaryHeaderModule -->
<g id="edge1" class="edge">
<title>AccountSummaryHeaderComponent&#45;&gt;AccountSummaryHeaderModule</title>
<path fill="none" stroke="black" d="M230.94,-84.91C230.94,-84.91 230.94,-103.79 230.94,-103.79"/>
<polygon fill="black" stroke="black" points="227.44,-103.79 230.94,-113.79 234.44,-103.79 227.44,-103.79"/>
</g>
<!-- CardModule -->
<g id="node3" class="node">
<title>CardModule</title>
<polygon fill="#8dd3c7" stroke="black" points="462.27,-84.8 459.27,-88.8 438.27,-88.8 435.27,-84.8 375.73,-84.8 375.73,-48.8 462.27,-48.8 462.27,-84.8"/>
<text text-anchor="middle" x="419" y="-62.6" font-family="Times,serif" font-size="14.00">CardModule</text>
</g>
<!-- CardModule&#45;&gt;AccountSummaryHeaderModule -->
<g id="edge2" class="edge">
<title>CardModule&#45;&gt;AccountSummaryHeaderModule</title>
<path fill="none" stroke="black" d="M395.77,-84.91C395.77,-84.91 395.77,-103.79 395.77,-103.79"/>
<polygon fill="black" stroke="black" points="392.27,-103.79 395.77,-113.79 399.27,-103.79 392.27,-103.79"/>
</g>
<!-- I18nModule -->
<g id="node4" class="node">
<title>I18nModule</title>
<polygon fill="#8dd3c7" stroke="black" points="357.71,-84.8 354.71,-88.8 333.71,-88.8 330.71,-84.8 272.29,-84.8 272.29,-48.8 357.71,-48.8 357.71,-84.8"/>
<text text-anchor="middle" x="315" y="-62.6" font-family="Times,serif" font-size="14.00">I18nModule</text>
</g>
<!-- I18nModule&#45;&gt;AccountSummaryHeaderModule -->
<g id="edge3" class="edge">
<title>I18nModule&#45;&gt;AccountSummaryHeaderModule</title>
<path fill="none" stroke="black" d="M315,-84.91C315,-84.91 315,-103.79 315,-103.79"/>
<polygon fill="black" stroke="black" points="311.5,-103.79 315,-113.79 318.5,-103.79 311.5,-103.79"/>
</g>
</g>
</svg>
