<?xml version="1.0" encoding="UTF-8" standalone="no"?>
<!DOCTYPE svg PUBLIC "-//W3C//DTD SVG 1.1//EN"
 "http://www.w3.org/Graphics/SVG/1.1/DTD/svg11.dtd">
<!-- Generated by graphviz version 5.0.0 (20220707.1540)
 -->
<!-- Title: dependencies Pages: 1 -->
<svg width="386pt" height="174pt"
 viewBox="0.00 0.00 386.00 173.80" xmlns="http://www.w3.org/2000/svg" xmlns:xlink="http://www.w3.org/1999/xlink">
<g id="graph0" class="graph" transform="scale(1 1) rotate(0) translate(4 169.8)">
<title>dependencies</title>
<polygon fill="white" stroke="transparent" points="-4,4 -4,-169.8 382,-169.8 382,4 -4,4"/>
<text text-anchor="middle" x="189" y="-8.2" font-family="sans-serif" font-size="14.00">dependencies</text>
<g id="clust1" class="cluster">
<title>cluster_MessageModule</title>
<polygon fill="none" stroke="black" stroke-dasharray="1,5" points="8,-32.8 8,-157.8 370,-157.8 370,-32.8 8,-32.8"/>
</g>
<g id="clust4" class="cluster">
<title>cluster_MessageModule_imports</title>
<polygon fill="none" stroke="black" points="170,-40.8 170,-92.8 362,-92.8 362,-40.8 170,-40.8"/>
</g>
<g id="clust2" class="cluster">
<title>cluster_MessageModule_declarations</title>
<polygon fill="none" stroke="black" points="16,-40.8 16,-92.8 162,-92.8 162,-40.8 16,-40.8"/>
</g>
<!-- MessageComponent -->
<g id="node1" class="node">
<title>MessageComponent</title>
<polygon fill="#ffffb3" stroke="black" points="154.32,-84.8 23.68,-84.8 23.68,-48.8 154.32,-48.8 154.32,-84.8"/>
<text text-anchor="middle" x="89" y="-62.6" font-family="Times,serif" font-size="14.00">MessageComponent</text>
</g>
<!-- MessageModule -->
<g id="node2" class="node">
<title>MessageModule</title>
<polygon fill="#8dd3c7" stroke="black" points="231.04,-149.8 228.04,-153.8 207.04,-153.8 204.04,-149.8 122.96,-149.8 122.96,-113.8 231.04,-113.8 231.04,-149.8"/>
<text text-anchor="middle" x="177" y="-127.6" font-family="Times,serif" font-size="14.00">MessageModule</text>
</g>
<!-- MessageComponent&#45;&gt;MessageModule -->
<g id="edge1" class="edge">
<title>MessageComponent&#45;&gt;MessageModule</title>
<path fill="none" stroke="black" d="M138.44,-84.91C138.44,-84.91 138.44,-103.79 138.44,-103.79"/>
<polygon fill="black" stroke="black" points="134.94,-103.79 138.44,-113.79 141.94,-103.79 134.94,-103.79"/>
</g>
<!-- NotificationMessageModule -->
<g id="node3" class="node">
<title>NotificationMessageModule</title>
<polygon fill="#8dd3c7" stroke="black" points="354.19,-84.8 351.19,-88.8 330.19,-88.8 327.19,-84.8 177.81,-84.8 177.81,-48.8 354.19,-48.8 354.19,-84.8"/>
<text text-anchor="middle" x="266" y="-62.6" font-family="Times,serif" font-size="14.00">NotificationMessageModule</text>
</g>
<!-- NotificationMessageModule&#45;&gt;MessageModule -->
<g id="edge2" class="edge">
<title>NotificationMessageModule&#45;&gt;MessageModule</title>
<path fill="none" stroke="black" d="M204.59,-84.91C204.59,-84.91 204.59,-103.79 204.59,-103.79"/>
<polygon fill="black" stroke="black" points="201.09,-103.79 204.59,-113.79 208.09,-103.79 201.09,-103.79"/>
</g>
</g>
</svg>
