<?xml version="1.0" encoding="UTF-8" standalone="no"?>
<!DOCTYPE svg PUBLIC "-//W3C//DTD SVG 1.1//EN"
 "http://www.w3.org/Graphics/SVG/1.1/DTD/svg11.dtd">
<!-- Generated by graphviz version 5.0.0 (20220707.1540)
 -->
<!-- Title: dependencies Pages: 1 -->
<svg width="386pt" height="174pt"
 viewBox="0.00 0.00 386.00 173.80" xmlns="http://www.w3.org/2000/svg" xmlns:xlink="http://www.w3.org/1999/xlink">
<g id="graph0" class="graph" transform="scale(1 1) rotate(0) translate(4 169.8)">
<title>dependencies</title>
<polygon fill="white" stroke="transparent" points="-4,4 -4,-169.8 382,-169.8 382,4 -4,4"/>
<text text-anchor="middle" x="189" y="-8.2" font-family="sans-serif" font-size="14.00">dependencies</text>
<g id="clust1" class="cluster">
<title>cluster_MessageModule</title>
<polygon fill="none" stroke="black" stroke-dasharray="1,5" points="8,-32.8 8,-157.8 370,-157.8 370,-32.8 8,-32.8"/>
</g>
<g id="clust2" class="cluster">
<title>cluster_MessageModule_declarations</title>
<polygon fill="none" stroke="black" points="216,-40.8 216,-92.8 362,-92.8 362,-40.8 216,-40.8"/>
</g>
<g id="clust4" class="cluster">
<title>cluster_MessageModule_imports</title>
<polygon fill="none" stroke="black" points="16,-40.8 16,-92.8 208,-92.8 208,-40.8 16,-40.8"/>
</g>
<!-- MessageComponent -->
<g id="node1" class="node">
<title>MessageComponent</title>
<polygon fill="#ffffb3" stroke="black" points="354.32,-84.8 223.68,-84.8 223.68,-48.8 354.32,-48.8 354.32,-84.8"/>
<text text-anchor="middle" x="289" y="-62.6" font-family="Times,serif" font-size="14.00">MessageComponent</text>
</g>
<!-- MessageModule -->
<g id="node2" class="node">
<title>MessageModule</title>
<polygon fill="#8dd3c7" stroke="black" points="254.04,-149.8 251.04,-153.8 230.04,-153.8 227.04,-149.8 145.96,-149.8 145.96,-113.8 254.04,-113.8 254.04,-149.8"/>
<text text-anchor="middle" x="200" y="-127.6" font-family="Times,serif" font-size="14.00">MessageModule</text>
</g>
<!-- MessageComponent&#45;&gt;MessageModule -->
<g id="edge1" class="edge">
<title>MessageComponent&#45;&gt;MessageModule</title>
<path fill="none" stroke="black" d="M239.06,-84.91C239.06,-84.91 239.06,-103.79 239.06,-103.79"/>
<polygon fill="black" stroke="black" points="235.56,-103.79 239.06,-113.79 242.56,-103.79 235.56,-103.79"/>
</g>
<!-- NotificationMessageModule -->
<g id="node3" class="node">
<title>NotificationMessageModule</title>
<polygon fill="#8dd3c7" stroke="black" points="200.19,-84.8 197.19,-88.8 176.19,-88.8 173.19,-84.8 23.81,-84.8 23.81,-48.8 200.19,-48.8 200.19,-84.8"/>
<text text-anchor="middle" x="112" y="-62.6" font-family="Times,serif" font-size="14.00">NotificationMessageModule</text>
</g>
<!-- NotificationMessageModule&#45;&gt;MessageModule -->
<g id="edge2" class="edge">
<title>NotificationMessageModule&#45;&gt;MessageModule</title>
<path fill="none" stroke="black" d="M172.91,-84.91C172.91,-84.91 172.91,-103.79 172.91,-103.79"/>
<polygon fill="black" stroke="black" points="169.41,-103.79 172.91,-113.79 176.41,-103.79 169.41,-103.79"/>
</g>
</g>
</svg>
