<?xml version="1.0" encoding="UTF-8" standalone="no"?>
<!DOCTYPE svg PUBLIC "-//W3C//DTD SVG 1.1//EN"
 "http://www.w3.org/Graphics/SVG/1.1/DTD/svg11.dtd">
<!-- Generated by graphviz version 5.0.0 (20220707.1540)
 -->
<!-- Title: dependencies Pages: 1 -->
<svg width="730pt" height="247pt"
 viewBox="0.00 0.00 730.00 246.80" xmlns="http://www.w3.org/2000/svg" xmlns:xlink="http://www.w3.org/1999/xlink">
<g id="graph0" class="graph" transform="scale(1 1) rotate(0) translate(4 242.8)">
<title>dependencies</title>
<polygon fill="white" stroke="transparent" points="-4,4 -4,-242.8 726,-242.8 726,4 -4,4"/>
<text text-anchor="middle" x="361" y="-8.2" font-family="sans-serif" font-size="14.00">dependencies</text>
<g id="clust1" class="cluster">
<title>cluster_ClearCartDialogModule</title>
<polygon fill="none" stroke="black" stroke-dasharray="1,5" points="8,-32.8 8,-230.8 714,-230.8 714,-32.8 8,-32.8"/>
</g>
<g id="clust5" class="cluster">
<title>cluster_ClearCartDialogModule_exports</title>
<polygon fill="none" stroke="black" points="257,-170.8 257,-222.8 451,-222.8 451,-170.8 257,-170.8"/>
</g>
<g id="clust2" class="cluster">
<title>cluster_ClearCartDialogModule_declarations</title>
<polygon fill="none" stroke="black" points="516,-40.8 516,-92.8 706,-92.8 706,-40.8 516,-40.8"/>
</g>
<g id="clust4" class="cluster">
<title>cluster_ClearCartDialogModule_imports</title>
<polygon fill="none" stroke="black" points="16,-40.8 16,-92.8 508,-92.8 508,-40.8 16,-40.8"/>
</g>
<!-- ClearCartDialogComponent -->
<g id="node1" class="node">
<title>ClearCartDialogComponent</title>
<polygon fill="#ffffb3" stroke="black" points="697.86,-84.8 524.14,-84.8 524.14,-48.8 697.86,-48.8 697.86,-84.8"/>
<text text-anchor="middle" x="611" y="-62.6" font-family="Times,serif" font-size="14.00">ClearCartDialogComponent</text>
</g>
<!-- ClearCartDialogModule -->
<g id="node2" class="node">
<title>ClearCartDialogModule</title>
<polygon fill="#8dd3c7" stroke="black" points="430.08,-149.8 427.08,-153.8 406.08,-153.8 403.08,-149.8 277.92,-149.8 277.92,-113.8 430.08,-113.8 430.08,-149.8"/>
<text text-anchor="middle" x="354" y="-127.6" font-family="Times,serif" font-size="14.00">ClearCartDialogModule</text>
</g>
<!-- ClearCartDialogComponent&#45;&gt;ClearCartDialogModule -->
<g id="edge1" class="edge">
<title>ClearCartDialogComponent&#45;&gt;ClearCartDialogModule</title>
<path fill="none" stroke="black" d="M611,-84.91C611,-104.14 611,-131.8 611,-131.8 611,-131.8 440.07,-131.8 440.07,-131.8"/>
<polygon fill="black" stroke="black" points="440.07,-128.3 430.07,-131.8 440.07,-135.3 440.07,-128.3"/>
</g>
<!-- ClearCartDialogComponent  -->
<g id="node7" class="node">
<title>ClearCartDialogComponent </title>
<polygon fill="#fb8072" stroke="black" points="442.86,-214.8 265.14,-214.8 265.14,-178.8 442.86,-178.8 442.86,-214.8"/>
<text text-anchor="middle" x="354" y="-192.6" font-family="Times,serif" font-size="14.00">ClearCartDialogComponent </text>
</g>
<!-- ClearCartDialogModule&#45;&gt;ClearCartDialogComponent  -->
<g id="edge6" class="edge">
<title>ClearCartDialogModule&#45;&gt;ClearCartDialogComponent </title>
<path fill="none" stroke="black" stroke-dasharray="5,2" d="M354,-149.91C354,-149.91 354,-168.79 354,-168.79"/>
<polygon fill="black" stroke="black" points="350.5,-168.79 354,-178.79 357.5,-168.79 350.5,-168.79"/>
</g>
<!-- I18nModule -->
<g id="node3" class="node">
<title>I18nModule</title>
<polygon fill="#8dd3c7" stroke="black" points="499.71,-84.8 496.71,-88.8 475.71,-88.8 472.71,-84.8 414.29,-84.8 414.29,-48.8 499.71,-48.8 499.71,-84.8"/>
<text text-anchor="middle" x="457" y="-62.6" font-family="Times,serif" font-size="14.00">I18nModule</text>
</g>
<!-- I18nModule&#45;&gt;ClearCartDialogModule -->
<g id="edge2" class="edge">
<title>I18nModule&#45;&gt;ClearCartDialogModule</title>
<path fill="none" stroke="black" d="M422.22,-84.91C422.22,-84.91 422.22,-103.79 422.22,-103.79"/>
<polygon fill="black" stroke="black" points="418.72,-103.79 422.22,-113.79 425.72,-103.79 418.72,-103.79"/>
</g>
<!-- IconModule -->
<g id="node4" class="node">
<title>IconModule</title>
<polygon fill="#8dd3c7" stroke="black" points="396.43,-84.8 393.43,-88.8 372.43,-88.8 369.43,-84.8 311.57,-84.8 311.57,-48.8 396.43,-48.8 396.43,-84.8"/>
<text text-anchor="middle" x="354" y="-62.6" font-family="Times,serif" font-size="14.00">IconModule</text>
</g>
<!-- IconModule&#45;&gt;ClearCartDialogModule -->
<g id="edge3" class="edge">
<title>IconModule&#45;&gt;ClearCartDialogModule</title>
<path fill="none" stroke="black" d="M354,-84.91C354,-84.91 354,-103.79 354,-103.79"/>
<polygon fill="black" stroke="black" points="350.5,-103.79 354,-113.79 357.5,-103.79 350.5,-103.79"/>
</g>
<!-- KeyboardFocusModule -->
<g id="node5" class="node">
<title>KeyboardFocusModule</title>
<polygon fill="#8dd3c7" stroke="black" points="294.2,-84.8 291.2,-88.8 270.2,-88.8 267.2,-84.8 145.8,-84.8 145.8,-48.8 294.2,-48.8 294.2,-84.8"/>
<text text-anchor="middle" x="220" y="-62.6" font-family="Times,serif" font-size="14.00">KeyboardFocusModule</text>
</g>
<!-- KeyboardFocusModule&#45;&gt;ClearCartDialogModule -->
<g id="edge4" class="edge">
<title>KeyboardFocusModule&#45;&gt;ClearCartDialogModule</title>
<path fill="none" stroke="black" d="M286.03,-84.91C286.03,-84.91 286.03,-103.79 286.03,-103.79"/>
<polygon fill="black" stroke="black" points="282.53,-103.79 286.03,-113.79 289.53,-103.79 282.53,-103.79"/>
</g>
<!-- SpinnerModule -->
<g id="node6" class="node">
<title>SpinnerModule</title>
<polygon fill="#8dd3c7" stroke="black" points="127.6,-84.8 124.6,-88.8 103.6,-88.8 100.6,-84.8 24.4,-84.8 24.4,-48.8 127.6,-48.8 127.6,-84.8"/>
<text text-anchor="middle" x="76" y="-62.6" font-family="Times,serif" font-size="14.00">SpinnerModule</text>
</g>
<!-- SpinnerModule&#45;&gt;ClearCartDialogModule -->
<g id="edge5" class="edge">
<title>SpinnerModule&#45;&gt;ClearCartDialogModule</title>
<path fill="none" stroke="black" d="M76,-84.91C76,-104.14 76,-131.8 76,-131.8 76,-131.8 267.67,-131.8 267.67,-131.8"/>
<polygon fill="black" stroke="black" points="267.67,-135.3 277.67,-131.8 267.67,-128.3 267.67,-135.3"/>
</g>
</g>
</svg>
