<?xml version="1.0" encoding="UTF-8" standalone="no"?>
<!DOCTYPE svg PUBLIC "-//W3C//DTD SVG 1.1//EN"
 "http://www.w3.org/Graphics/SVG/1.1/DTD/svg11.dtd">
<!-- Generated by graphviz version 5.0.0 (20220707.1540)
 -->
<!-- Title: dependencies Pages: 1 -->
<svg width="730pt" height="247pt"
 viewBox="0.00 0.00 730.00 246.80" xmlns="http://www.w3.org/2000/svg" xmlns:xlink="http://www.w3.org/1999/xlink">
<g id="graph0" class="graph" transform="scale(1 1) rotate(0) translate(4 242.8)">
<title>dependencies</title>
<polygon fill="white" stroke="transparent" points="-4,4 -4,-242.8 726,-242.8 726,4 -4,4"/>
<text text-anchor="middle" x="361" y="-8.2" font-family="sans-serif" font-size="14.00">dependencies</text>
<g id="clust1" class="cluster">
<title>cluster_ClearCartDialogModule</title>
<polygon fill="none" stroke="black" stroke-dasharray="1,5" points="8,-32.8 8,-230.8 714,-230.8 714,-32.8 8,-32.8"/>
</g>
<g id="clust4" class="cluster">
<title>cluster_ClearCartDialogModule_imports</title>
<polygon fill="none" stroke="black" points="214,-40.8 214,-92.8 706,-92.8 706,-40.8 214,-40.8"/>
</g>
<g id="clust5" class="cluster">
<title>cluster_ClearCartDialogModule_exports</title>
<polygon fill="none" stroke="black" points="321,-170.8 321,-222.8 515,-222.8 515,-170.8 321,-170.8"/>
</g>
<g id="clust2" class="cluster">
<title>cluster_ClearCartDialogModule_declarations</title>
<polygon fill="none" stroke="black" points="16,-40.8 16,-92.8 206,-92.8 206,-40.8 16,-40.8"/>
</g>
<!-- ClearCartDialogComponent -->
<g id="node1" class="node">
<title>ClearCartDialogComponent</title>
<polygon fill="#ffffb3" stroke="black" points="197.86,-84.8 24.14,-84.8 24.14,-48.8 197.86,-48.8 197.86,-84.8"/>
<text text-anchor="middle" x="111" y="-62.6" font-family="Times,serif" font-size="14.00">ClearCartDialogComponent</text>
</g>
<!-- ClearCartDialogModule -->
<g id="node2" class="node">
<title>ClearCartDialogModule</title>
<polygon fill="#8dd3c7" stroke="black" points="494.08,-149.8 491.08,-153.8 470.08,-153.8 467.08,-149.8 341.92,-149.8 341.92,-113.8 494.08,-113.8 494.08,-149.8"/>
<text text-anchor="middle" x="418" y="-127.6" font-family="Times,serif" font-size="14.00">ClearCartDialogModule</text>
</g>
<!-- ClearCartDialogComponent&#45;&gt;ClearCartDialogModule -->
<g id="edge1" class="edge">
<title>ClearCartDialogComponent&#45;&gt;ClearCartDialogModule</title>
<path fill="none" stroke="black" d="M111,-85.08C111,-106.12 111,-137.8 111,-137.8 111,-137.8 331.72,-137.8 331.72,-137.8"/>
<polygon fill="black" stroke="black" points="331.72,-141.3 341.72,-137.8 331.72,-134.3 331.72,-141.3"/>
</g>
<!-- ClearCartDialogComponent  -->
<g id="node7" class="node">
<title>ClearCartDialogComponent </title>
<polygon fill="#fb8072" stroke="black" points="506.86,-214.8 329.14,-214.8 329.14,-178.8 506.86,-178.8 506.86,-214.8"/>
<text text-anchor="middle" x="418" y="-192.6" font-family="Times,serif" font-size="14.00">ClearCartDialogComponent </text>
</g>
<!-- ClearCartDialogModule&#45;&gt;ClearCartDialogComponent  -->
<g id="edge6" class="edge">
<title>ClearCartDialogModule&#45;&gt;ClearCartDialogComponent </title>
<path fill="none" stroke="black" stroke-dasharray="5,2" d="M418,-149.91C418,-149.91 418,-168.79 418,-168.79"/>
<polygon fill="black" stroke="black" points="414.5,-168.79 418,-178.79 421.5,-168.79 414.5,-168.79"/>
</g>
<!-- I18nModule -->
<g id="node3" class="node">
<title>I18nModule</title>
<polygon fill="#8dd3c7" stroke="black" points="697.71,-84.8 694.71,-88.8 673.71,-88.8 670.71,-84.8 612.29,-84.8 612.29,-48.8 697.71,-48.8 697.71,-84.8"/>
<text text-anchor="middle" x="655" y="-62.6" font-family="Times,serif" font-size="14.00">I18nModule</text>
</g>
<!-- I18nModule&#45;&gt;ClearCartDialogModule -->
<g id="edge2" class="edge">
<title>I18nModule&#45;&gt;ClearCartDialogModule</title>
<path fill="none" stroke="black" d="M655,-85.08C655,-106.12 655,-137.8 655,-137.8 655,-137.8 504.29,-137.8 504.29,-137.8"/>
<polygon fill="black" stroke="black" points="504.29,-134.3 494.29,-137.8 504.29,-141.3 504.29,-134.3"/>
</g>
<!-- IconModule -->
<g id="node4" class="node">
<title>IconModule</title>
<polygon fill="#8dd3c7" stroke="black" points="594.43,-84.8 591.43,-88.8 570.43,-88.8 567.43,-84.8 509.57,-84.8 509.57,-48.8 594.43,-48.8 594.43,-84.8"/>
<text text-anchor="middle" x="552" y="-62.6" font-family="Times,serif" font-size="14.00">IconModule</text>
</g>
<!-- IconModule&#45;&gt;ClearCartDialogModule -->
<g id="edge3" class="edge">
<title>IconModule&#45;&gt;ClearCartDialogModule</title>
<path fill="none" stroke="black" d="M552,-84.82C552,-102.17 552,-125.8 552,-125.8 552,-125.8 504.39,-125.8 504.39,-125.8"/>
<polygon fill="black" stroke="black" points="504.39,-122.3 494.39,-125.8 504.39,-129.3 504.39,-122.3"/>
</g>
<!-- KeyboardFocusModule -->
<g id="node5" class="node">
<title>KeyboardFocusModule</title>
<polygon fill="#8dd3c7" stroke="black" points="492.2,-84.8 489.2,-88.8 468.2,-88.8 465.2,-84.8 343.8,-84.8 343.8,-48.8 492.2,-48.8 492.2,-84.8"/>
<text text-anchor="middle" x="418" y="-62.6" font-family="Times,serif" font-size="14.00">KeyboardFocusModule</text>
</g>
<!-- KeyboardFocusModule&#45;&gt;ClearCartDialogModule -->
<g id="edge4" class="edge">
<title>KeyboardFocusModule&#45;&gt;ClearCartDialogModule</title>
<path fill="none" stroke="black" d="M418,-84.91C418,-84.91 418,-103.79 418,-103.79"/>
<polygon fill="black" stroke="black" points="414.5,-103.79 418,-113.79 421.5,-103.79 414.5,-103.79"/>
</g>
<!-- SpinnerModule -->
<g id="node6" class="node">
<title>SpinnerModule</title>
<polygon fill="#8dd3c7" stroke="black" points="325.6,-84.8 322.6,-88.8 301.6,-88.8 298.6,-84.8 222.4,-84.8 222.4,-48.8 325.6,-48.8 325.6,-84.8"/>
<text text-anchor="middle" x="274" y="-62.6" font-family="Times,serif" font-size="14.00">SpinnerModule</text>
</g>
<!-- SpinnerModule&#45;&gt;ClearCartDialogModule -->
<g id="edge5" class="edge">
<title>SpinnerModule&#45;&gt;ClearCartDialogModule</title>
<path fill="none" stroke="black" d="M274,-84.82C274,-102.17 274,-125.8 274,-125.8 274,-125.8 331.78,-125.8 331.78,-125.8"/>
<polygon fill="black" stroke="black" points="331.78,-129.3 341.78,-125.8 331.78,-122.3 331.78,-129.3"/>
</g>
</g>
</svg>
