<?xml version="1.0" encoding="UTF-8" standalone="no"?>
<!DOCTYPE svg PUBLIC "-//W3C//DTD SVG 1.1//EN"
 "http://www.w3.org/Graphics/SVG/1.1/DTD/svg11.dtd">
<!-- Generated by graphviz version 5.0.0 (20220707.1540)
 -->
<!-- Title: dependencies Pages: 1 -->
<svg width="818pt" height="174pt"
 viewBox="0.00 0.00 818.00 173.80" xmlns="http://www.w3.org/2000/svg" xmlns:xlink="http://www.w3.org/1999/xlink">
<g id="graph0" class="graph" transform="scale(1 1) rotate(0) translate(4 169.8)">
<title>dependencies</title>
<polygon fill="white" stroke="transparent" points="-4,4 -4,-169.8 814,-169.8 814,4 -4,4"/>
<text text-anchor="middle" x="405" y="-8.2" font-family="sans-serif" font-size="14.00">dependencies</text>
<g id="clust1" class="cluster">
<title>cluster_ResetPasswordModule</title>
<polygon fill="none" stroke="black" stroke-dasharray="1,5" points="8,-32.8 8,-157.8 802,-157.8 802,-32.8 8,-32.8"/>
</g>
<g id="clust2" class="cluster">
<title>cluster_ResetPasswordModule_declarations</title>
<polygon fill="none" stroke="black" points="612,-40.8 612,-92.8 794,-92.8 794,-40.8 612,-40.8"/>
</g>
<g id="clust4" class="cluster">
<title>cluster_ResetPasswordModule_imports</title>
<polygon fill="none" stroke="black" points="16,-40.8 16,-92.8 604,-92.8 604,-40.8 16,-40.8"/>
</g>
<!-- ResetPasswordComponent -->
<g id="node1" class="node">
<title>ResetPasswordComponent</title>
<polygon fill="#ffffb3" stroke="black" points="786.1,-84.8 619.9,-84.8 619.9,-48.8 786.1,-48.8 786.1,-84.8"/>
<text text-anchor="middle" x="703" y="-62.6" font-family="Times,serif" font-size="14.00">ResetPasswordComponent</text>
</g>
<!-- ResetPasswordModule -->
<g id="node2" class="node">
<title>ResetPasswordModule</title>
<polygon fill="#8dd3c7" stroke="black" points="483.32,-149.8 480.32,-153.8 459.32,-153.8 456.32,-149.8 338.68,-149.8 338.68,-113.8 483.32,-113.8 483.32,-149.8"/>
<text text-anchor="middle" x="411" y="-127.6" font-family="Times,serif" font-size="14.00">ResetPasswordModule</text>
</g>
<!-- ResetPasswordComponent&#45;&gt;ResetPasswordModule -->
<g id="edge1" class="edge">
<title>ResetPasswordComponent&#45;&gt;ResetPasswordModule</title>
<path fill="none" stroke="black" d="M703,-84.91C703,-104.14 703,-131.8 703,-131.8 703,-131.8 493.18,-131.8 493.18,-131.8"/>
<polygon fill="black" stroke="black" points="493.18,-128.3 483.18,-131.8 493.18,-135.3 493.18,-128.3"/>
</g>
<!-- FormErrorsModule -->
<g id="node3" class="node">
<title>FormErrorsModule</title>
<polygon fill="#8dd3c7" stroke="black" points="596.38,-84.8 593.38,-88.8 572.38,-88.8 569.38,-84.8 471.62,-84.8 471.62,-48.8 596.38,-48.8 596.38,-84.8"/>
<text text-anchor="middle" x="534" y="-62.6" font-family="Times,serif" font-size="14.00">FormErrorsModule</text>
</g>
<!-- FormErrorsModule&#45;&gt;ResetPasswordModule -->
<g id="edge2" class="edge">
<title>FormErrorsModule&#45;&gt;ResetPasswordModule</title>
<path fill="none" stroke="black" d="M477.36,-84.91C477.36,-84.91 477.36,-103.79 477.36,-103.79"/>
<polygon fill="black" stroke="black" points="473.86,-103.79 477.36,-113.79 480.86,-103.79 473.86,-103.79"/>
</g>
<!-- I18nModule -->
<g id="node4" class="node">
<title>I18nModule</title>
<polygon fill="#8dd3c7" stroke="black" points="453.71,-84.8 450.71,-88.8 429.71,-88.8 426.71,-84.8 368.29,-84.8 368.29,-48.8 453.71,-48.8 453.71,-84.8"/>
<text text-anchor="middle" x="411" y="-62.6" font-family="Times,serif" font-size="14.00">I18nModule</text>
</g>
<!-- I18nModule&#45;&gt;ResetPasswordModule -->
<g id="edge3" class="edge">
<title>I18nModule&#45;&gt;ResetPasswordModule</title>
<path fill="none" stroke="black" d="M411,-84.91C411,-84.91 411,-103.79 411,-103.79"/>
<polygon fill="black" stroke="black" points="407.5,-103.79 411,-113.79 414.5,-103.79 407.5,-103.79"/>
</g>
<!-- PasswordVisibilityToggleModule -->
<g id="node5" class="node">
<title>PasswordVisibilityToggleModule</title>
<polygon fill="#8dd3c7" stroke="black" points="350.77,-84.8 347.77,-88.8 326.77,-88.8 323.77,-84.8 145.23,-84.8 145.23,-48.8 350.77,-48.8 350.77,-84.8"/>
<text text-anchor="middle" x="248" y="-62.6" font-family="Times,serif" font-size="14.00">PasswordVisibilityToggleModule</text>
</g>
<!-- PasswordVisibilityToggleModule&#45;&gt;ResetPasswordModule -->
<g id="edge4" class="edge">
<title>PasswordVisibilityToggleModule&#45;&gt;ResetPasswordModule</title>
<path fill="none" stroke="black" d="M344.86,-84.91C344.86,-84.91 344.86,-103.79 344.86,-103.79"/>
<polygon fill="black" stroke="black" points="341.36,-103.79 344.86,-113.79 348.36,-103.79 341.36,-103.79"/>
</g>
<!-- SpinnerModule -->
<g id="node6" class="node">
<title>SpinnerModule</title>
<polygon fill="#8dd3c7" stroke="black" points="127.6,-84.8 124.6,-88.8 103.6,-88.8 100.6,-84.8 24.4,-84.8 24.4,-48.8 127.6,-48.8 127.6,-84.8"/>
<text text-anchor="middle" x="76" y="-62.6" font-family="Times,serif" font-size="14.00">SpinnerModule</text>
</g>
<!-- SpinnerModule&#45;&gt;ResetPasswordModule -->
<g id="edge5" class="edge">
<title>SpinnerModule&#45;&gt;ResetPasswordModule</title>
<path fill="none" stroke="black" d="M76,-84.91C76,-104.14 76,-131.8 76,-131.8 76,-131.8 328.72,-131.8 328.72,-131.8"/>
<polygon fill="black" stroke="black" points="328.72,-135.3 338.72,-131.8 328.72,-128.3 328.72,-135.3"/>
</g>
</g>
</svg>
