<?xml version="1.0" encoding="UTF-8" standalone="no"?>
<!DOCTYPE svg PUBLIC "-//W3C//DTD SVG 1.1//EN"
 "http://www.w3.org/Graphics/SVG/1.1/DTD/svg11.dtd">
<!-- Generated by graphviz version 5.0.0 (20220707.1540)
 -->
<!-- Title: dependencies Pages: 1 -->
<svg width="840pt" height="285pt"
 viewBox="0.00 0.00 840.00 285.39" xmlns="http://www.w3.org/2000/svg" xmlns:xlink="http://www.w3.org/1999/xlink">
<g id="graph0" class="graph" transform="scale(1 1) rotate(0) translate(4 281.39)">
<title>dependencies</title>
<polygon fill="white" stroke="transparent" points="-4,4 -4,-281.39 836,-281.39 836,4 -4,4"/>
<text text-anchor="middle" x="416" y="-8.2" font-family="sans-serif" font-size="14.00">dependencies</text>
<g id="clust1" class="cluster">
<title>cluster_UserPermissionListModule</title>
<polygon fill="none" stroke="black" stroke-dasharray="1,5" points="8,-32.8 8,-269.39 824,-269.39 824,-32.8 8,-32.8"/>
</g>
<g id="clust5" class="cluster">
<title>cluster_UserPermissionListModule_imports</title>
<polygon fill="none" stroke="black" points="494,-152.39 494,-204.39 816,-204.39 816,-152.39 494,-152.39"/>
</g>
<g id="clust2" class="cluster">
<title>cluster_UserPermissionListModule_declarations</title>
<polygon fill="none" stroke="black" points="16,-152.39 16,-204.39 486,-204.39 486,-152.39 16,-152.39"/>
</g>
<g id="clust4" class="cluster">
<title>cluster_UserPermissionListModule_UserPermissionListComponent_providers</title>
<polygon fill="none" stroke="black" points="16,-40.8 16,-139.39 568,-139.39 568,-40.8 16,-40.8"/>
</g>
<!-- UserAssignedPermissionListComponent -->
<g id="node1" class="node">
<title>UserAssignedPermissionListComponent</title>
<polygon fill="#ffffb3" stroke="black" points="477.88,-196.39 234.12,-196.39 234.12,-160.39 477.88,-160.39 477.88,-196.39"/>
<text text-anchor="middle" x="356" y="-174.19" font-family="Times,serif" font-size="14.00">UserAssignedPermissionListComponent</text>
</g>
<!-- UserPermissionListModule -->
<g id="node3" class="node">
<title>UserPermissionListModule</title>
<polygon fill="#8dd3c7" stroke="black" points="638.99,-261.39 635.99,-265.39 614.99,-265.39 611.99,-261.39 469.01,-261.39 469.01,-225.39 638.99,-225.39 638.99,-261.39"/>
<text text-anchor="middle" x="554" y="-239.19" font-family="Times,serif" font-size="14.00">UserPermissionListModule</text>
</g>
<!-- UserAssignedPermissionListComponent&#45;&gt;UserPermissionListModule -->
<g id="edge1" class="edge">
<title>UserAssignedPermissionListComponent&#45;&gt;UserPermissionListModule</title>
<path fill="none" stroke="black" d="M473.47,-196.5C473.47,-196.5 473.47,-215.38 473.47,-215.38"/>
<polygon fill="black" stroke="black" points="469.97,-215.38 473.47,-225.38 476.97,-215.38 469.97,-215.38"/>
</g>
<!-- UserPermissionListComponent -->
<g id="node2" class="node">
<title>UserPermissionListComponent</title>
<polygon fill="#ffffb3" stroke="black" points="215.77,-196.39 24.23,-196.39 24.23,-160.39 215.77,-160.39 215.77,-196.39"/>
<text text-anchor="middle" x="120" y="-174.19" font-family="Times,serif" font-size="14.00">UserPermissionListComponent</text>
</g>
<!-- UserPermissionListComponent&#45;&gt;UserPermissionListModule -->
<g id="edge2" class="edge">
<title>UserPermissionListComponent&#45;&gt;UserPermissionListModule</title>
<path fill="none" stroke="black" d="M120,-196.5C120,-215.73 120,-243.39 120,-243.39 120,-243.39 458.77,-243.39 458.77,-243.39"/>
<polygon fill="black" stroke="black" points="458.77,-246.89 468.77,-243.39 458.77,-239.89 458.77,-246.89"/>
</g>
<!-- {
 &#160;&#160;&#160;provide: ListService, useExisting: UserPermissionListService,
} -->
<g id="node4" class="node">
<title>{
 &#160;&#160;&#160;provide: ListService, useExisting: UserPermissionListService,
}</title>
<ellipse fill="#fdb462" stroke="black" cx="292" cy="-90.1" rx="268.27" ry="41.09"/>
<text text-anchor="middle" x="292" y="-102.7" font-family="Times,serif" font-size="14.00">{</text>
<text text-anchor="middle" x="292" y="-85.9" font-family="Times,serif" font-size="14.00"> &#160;&#160;&#160;provide: ListService, useExisting: UserPermissionListService,</text>
<text text-anchor="middle" x="292" y="-69.1" font-family="Times,serif" font-size="14.00">}</text>
</g>
<!-- {
 &#160;&#160;&#160;provide: ListService, useExisting: UserPermissionListService,
}&#45;&gt;UserPermissionListComponent -->
<g id="edge3" class="edge">
<title>{
 &#160;&#160;&#160;provide: ListService, useExisting: UserPermissionListService,
}&#45;&gt;UserPermissionListComponent</title>
<path fill="none" stroke="black" d="M120,-121.97C120,-121.97 120,-150.18 120,-150.18"/>
<polygon fill="black" stroke="black" points="116.5,-150.18 120,-160.18 123.5,-150.18 116.5,-150.18"/>
</g>
<!-- I18nModule -->
<g id="node5" class="node">
<title>I18nModule</title>
<polygon fill="#8dd3c7" stroke="black" points="807.71,-196.39 804.71,-200.39 783.71,-200.39 780.71,-196.39 722.29,-196.39 722.29,-160.39 807.71,-160.39 807.71,-196.39"/>
<text text-anchor="middle" x="765" y="-174.19" font-family="Times,serif" font-size="14.00">I18nModule</text>
</g>
<!-- I18nModule&#45;&gt;UserPermissionListModule -->
<g id="edge4" class="edge">
<title>I18nModule&#45;&gt;UserPermissionListModule</title>
<path fill="none" stroke="black" d="M765,-196.5C765,-215.73 765,-243.39 765,-243.39 765,-243.39 649.21,-243.39 649.21,-243.39"/>
<polygon fill="black" stroke="black" points="649.21,-239.89 639.21,-243.39 649.21,-246.89 649.21,-239.89"/>
</g>
<!-- ListModule -->
<g id="node6" class="node">
<title>ListModule</title>
<polygon fill="#8dd3c7" stroke="black" points="704.83,-196.39 701.83,-200.39 680.83,-200.39 677.83,-196.39 623.17,-196.39 623.17,-160.39 704.83,-160.39 704.83,-196.39"/>
<text text-anchor="middle" x="664" y="-174.19" font-family="Times,serif" font-size="14.00">ListModule</text>
</g>
<!-- ListModule&#45;&gt;UserPermissionListModule -->
<g id="edge5" class="edge">
<title>ListModule&#45;&gt;UserPermissionListModule</title>
<path fill="none" stroke="black" d="M631.17,-196.5C631.17,-196.5 631.17,-215.38 631.17,-215.38"/>
<polygon fill="black" stroke="black" points="627.67,-215.38 631.17,-225.38 634.67,-215.38 627.67,-215.38"/>
</g>
<!-- SubListModule -->
<g id="node7" class="node">
<title>SubListModule</title>
<polygon fill="#8dd3c7" stroke="black" points="605.62,-196.39 602.62,-200.39 581.62,-200.39 578.62,-196.39 502.38,-196.39 502.38,-160.39 605.62,-160.39 605.62,-196.39"/>
<text text-anchor="middle" x="554" y="-174.19" font-family="Times,serif" font-size="14.00">SubListModule</text>
</g>
<!-- SubListModule&#45;&gt;UserPermissionListModule -->
<g id="edge6" class="edge">
<title>SubListModule&#45;&gt;UserPermissionListModule</title>
<path fill="none" stroke="black" d="M554,-196.5C554,-196.5 554,-215.38 554,-215.38"/>
<polygon fill="black" stroke="black" points="550.5,-215.38 554,-225.38 557.5,-215.38 550.5,-215.38"/>
</g>
</g>
</svg>
