<?xml version="1.0" encoding="UTF-8" standalone="no"?>
<!DOCTYPE svg PUBLIC "-//W3C//DTD SVG 1.1//EN"
 "http://www.w3.org/Graphics/SVG/1.1/DTD/svg11.dtd">
<!-- Generated by graphviz version 5.0.0 (20220707.1540)
 -->
<!-- Title: dependencies Pages: 1 -->
<svg width="1028pt" height="174pt"
 viewBox="0.00 0.00 1028.00 173.80" xmlns="http://www.w3.org/2000/svg" xmlns:xlink="http://www.w3.org/1999/xlink">
<g id="graph0" class="graph" transform="scale(1 1) rotate(0) translate(4 169.8)">
<title>dependencies</title>
<polygon fill="white" stroke="transparent" points="-4,4 -4,-169.8 1024,-169.8 1024,4 -4,4"/>
<text text-anchor="middle" x="510" y="-8.2" font-family="sans-serif" font-size="14.00">dependencies</text>
<g id="clust1" class="cluster">
<title>cluster_CloseAccountModule</title>
<polygon fill="none" stroke="black" stroke-dasharray="1,5" points="8,-32.8 8,-157.8 1012,-157.8 1012,-32.8 8,-32.8"/>
</g>
<g id="clust2" class="cluster">
<title>cluster_CloseAccountModule_declarations</title>
<polygon fill="none" stroke="black" points="612,-40.8 612,-92.8 1004,-92.8 1004,-40.8 612,-40.8"/>
</g>
<g id="clust5" class="cluster">
<title>cluster_CloseAccountModule_imports</title>
<polygon fill="none" stroke="black" points="16,-40.8 16,-92.8 604,-92.8 604,-40.8 16,-40.8"/>
</g>
<!-- CloseAccountComponent -->
<g id="node1" class="node">
<title>CloseAccountComponent</title>
<polygon fill="#ffffb3" stroke="black" points="996.15,-84.8 835.85,-84.8 835.85,-48.8 996.15,-48.8 996.15,-84.8"/>
<text text-anchor="middle" x="916" y="-62.6" font-family="Times,serif" font-size="14.00">CloseAccountComponent</text>
</g>
<!-- CloseAccountModule -->
<g id="node3" class="node">
<title>CloseAccountModule</title>
<polygon fill="#8dd3c7" stroke="black" points="519.37,-149.8 516.37,-153.8 495.37,-153.8 492.37,-149.8 380.63,-149.8 380.63,-113.8 519.37,-113.8 519.37,-149.8"/>
<text text-anchor="middle" x="450" y="-127.6" font-family="Times,serif" font-size="14.00">CloseAccountModule</text>
</g>
<!-- CloseAccountComponent&#45;&gt;CloseAccountModule -->
<g id="edge1" class="edge">
<title>CloseAccountComponent&#45;&gt;CloseAccountModule</title>
<path fill="none" stroke="black" d="M916,-85.08C916,-106.12 916,-137.8 916,-137.8 916,-137.8 529.51,-137.8 529.51,-137.8"/>
<polygon fill="black" stroke="black" points="529.51,-134.3 519.51,-137.8 529.51,-141.3 529.51,-134.3"/>
</g>
<!-- CloseAccountModalComponent -->
<g id="node2" class="node">
<title>CloseAccountModalComponent</title>
<polygon fill="#ffffb3" stroke="black" points="817.7,-84.8 620.3,-84.8 620.3,-48.8 817.7,-48.8 817.7,-84.8"/>
<text text-anchor="middle" x="719" y="-62.6" font-family="Times,serif" font-size="14.00">CloseAccountModalComponent</text>
</g>
<!-- CloseAccountModalComponent&#45;&gt;CloseAccountModule -->
<g id="edge2" class="edge">
<title>CloseAccountModalComponent&#45;&gt;CloseAccountModule</title>
<path fill="none" stroke="black" d="M719,-84.82C719,-102.17 719,-125.8 719,-125.8 719,-125.8 529.62,-125.8 529.62,-125.8"/>
<polygon fill="black" stroke="black" points="529.62,-122.3 519.62,-125.8 529.62,-129.3 529.62,-122.3"/>
</g>
<!-- I18nModule -->
<g id="node4" class="node">
<title>I18nModule</title>
<polygon fill="#8dd3c7" stroke="black" points="595.71,-84.8 592.71,-88.8 571.71,-88.8 568.71,-84.8 510.29,-84.8 510.29,-48.8 595.71,-48.8 595.71,-84.8"/>
<text text-anchor="middle" x="553" y="-62.6" font-family="Times,serif" font-size="14.00">I18nModule</text>
</g>
<!-- I18nModule&#45;&gt;CloseAccountModule -->
<g id="edge3" class="edge">
<title>I18nModule&#45;&gt;CloseAccountModule</title>
<path fill="none" stroke="black" d="M514.91,-84.91C514.91,-84.91 514.91,-103.79 514.91,-103.79"/>
<polygon fill="black" stroke="black" points="511.41,-103.79 514.91,-113.79 518.41,-103.79 511.41,-103.79"/>
</g>
<!-- IconModule -->
<g id="node5" class="node">
<title>IconModule</title>
<polygon fill="#8dd3c7" stroke="black" points="492.43,-84.8 489.43,-88.8 468.43,-88.8 465.43,-84.8 407.57,-84.8 407.57,-48.8 492.43,-48.8 492.43,-84.8"/>
<text text-anchor="middle" x="450" y="-62.6" font-family="Times,serif" font-size="14.00">IconModule</text>
</g>
<!-- IconModule&#45;&gt;CloseAccountModule -->
<g id="edge4" class="edge">
<title>IconModule&#45;&gt;CloseAccountModule</title>
<path fill="none" stroke="black" d="M450,-84.91C450,-84.91 450,-103.79 450,-103.79"/>
<polygon fill="black" stroke="black" points="446.5,-103.79 450,-113.79 453.5,-103.79 446.5,-103.79"/>
</g>
<!-- KeyboardFocusModule -->
<g id="node6" class="node">
<title>KeyboardFocusModule</title>
<polygon fill="#8dd3c7" stroke="black" points="390.2,-84.8 387.2,-88.8 366.2,-88.8 363.2,-84.8 241.8,-84.8 241.8,-48.8 390.2,-48.8 390.2,-84.8"/>
<text text-anchor="middle" x="316" y="-62.6" font-family="Times,serif" font-size="14.00">KeyboardFocusModule</text>
</g>
<!-- KeyboardFocusModule&#45;&gt;CloseAccountModule -->
<g id="edge5" class="edge">
<title>KeyboardFocusModule&#45;&gt;CloseAccountModule</title>
<path fill="none" stroke="black" d="M385.33,-84.91C385.33,-84.91 385.33,-103.79 385.33,-103.79"/>
<polygon fill="black" stroke="black" points="381.83,-103.79 385.33,-113.79 388.83,-103.79 381.83,-103.79"/>
</g>
<!-- SpinnerModule -->
<g id="node7" class="node">
<title>SpinnerModule</title>
<polygon fill="#8dd3c7" stroke="black" points="223.6,-84.8 220.6,-88.8 199.6,-88.8 196.6,-84.8 120.4,-84.8 120.4,-48.8 223.6,-48.8 223.6,-84.8"/>
<text text-anchor="middle" x="172" y="-62.6" font-family="Times,serif" font-size="14.00">SpinnerModule</text>
</g>
<!-- SpinnerModule&#45;&gt;CloseAccountModule -->
<g id="edge6" class="edge">
<title>SpinnerModule&#45;&gt;CloseAccountModule</title>
<path fill="none" stroke="black" d="M172,-84.82C172,-102.17 172,-125.8 172,-125.8 172,-125.8 370.57,-125.8 370.57,-125.8"/>
<polygon fill="black" stroke="black" points="370.57,-129.3 380.57,-125.8 370.57,-122.3 370.57,-129.3"/>
</g>
<!-- UrlModule -->
<g id="node8" class="node">
<title>UrlModule</title>
<polygon fill="#8dd3c7" stroke="black" points="102.21,-84.8 99.21,-88.8 78.21,-88.8 75.21,-84.8 23.79,-84.8 23.79,-48.8 102.21,-48.8 102.21,-84.8"/>
<text text-anchor="middle" x="63" y="-62.6" font-family="Times,serif" font-size="14.00">UrlModule</text>
</g>
<!-- UrlModule&#45;&gt;CloseAccountModule -->
<g id="edge7" class="edge">
<title>UrlModule&#45;&gt;CloseAccountModule</title>
<path fill="none" stroke="black" d="M63,-85.08C63,-106.12 63,-137.8 63,-137.8 63,-137.8 370.37,-137.8 370.37,-137.8"/>
<polygon fill="black" stroke="black" points="370.37,-141.3 380.37,-137.8 370.37,-134.3 370.37,-141.3"/>
</g>
</g>
</svg>
