<?xml version="1.0" encoding="UTF-8" standalone="no"?>
<!DOCTYPE svg PUBLIC "-//W3C//DTD SVG 1.1//EN"
 "http://www.w3.org/Graphics/SVG/1.1/DTD/svg11.dtd">
<!-- Generated by graphviz version 5.0.0 (20220707.1540)
 -->
<!-- Title: dependencies Pages: 1 -->
<svg width="1028pt" height="174pt"
 viewBox="0.00 0.00 1028.00 173.80" xmlns="http://www.w3.org/2000/svg" xmlns:xlink="http://www.w3.org/1999/xlink">
<g id="graph0" class="graph" transform="scale(1 1) rotate(0) translate(4 169.8)">
<title>dependencies</title>
<polygon fill="white" stroke="transparent" points="-4,4 -4,-169.8 1024,-169.8 1024,4 -4,4"/>
<text text-anchor="middle" x="510" y="-8.2" font-family="sans-serif" font-size="14.00">dependencies</text>
<g id="clust1" class="cluster">
<title>cluster_CloseAccountModule</title>
<polygon fill="none" stroke="black" stroke-dasharray="1,5" points="8,-32.8 8,-157.8 1012,-157.8 1012,-32.8 8,-32.8"/>
</g>
<g id="clust5" class="cluster">
<title>cluster_CloseAccountModule_imports</title>
<polygon fill="none" stroke="black" points="416,-40.8 416,-92.8 1004,-92.8 1004,-40.8 416,-40.8"/>
</g>
<g id="clust2" class="cluster">
<title>cluster_CloseAccountModule_declarations</title>
<polygon fill="none" stroke="black" points="16,-40.8 16,-92.8 408,-92.8 408,-40.8 16,-40.8"/>
</g>
<!-- CloseAccountComponent -->
<g id="node1" class="node">
<title>CloseAccountComponent</title>
<polygon fill="#ffffb3" stroke="black" points="400.15,-84.8 239.85,-84.8 239.85,-48.8 400.15,-48.8 400.15,-84.8"/>
<text text-anchor="middle" x="320" y="-62.6" font-family="Times,serif" font-size="14.00">CloseAccountComponent</text>
</g>
<!-- CloseAccountModule -->
<g id="node3" class="node">
<title>CloseAccountModule</title>
<polygon fill="#8dd3c7" stroke="black" points="641.37,-149.8 638.37,-153.8 617.37,-153.8 614.37,-149.8 502.63,-149.8 502.63,-113.8 641.37,-113.8 641.37,-149.8"/>
<text text-anchor="middle" x="572" y="-127.6" font-family="Times,serif" font-size="14.00">CloseAccountModule</text>
</g>
<!-- CloseAccountComponent&#45;&gt;CloseAccountModule -->
<g id="edge1" class="edge">
<title>CloseAccountComponent&#45;&gt;CloseAccountModule</title>
<path fill="none" stroke="black" d="M320,-84.82C320,-102.17 320,-125.8 320,-125.8 320,-125.8 492.47,-125.8 492.47,-125.8"/>
<polygon fill="black" stroke="black" points="492.47,-129.3 502.47,-125.8 492.47,-122.3 492.47,-129.3"/>
</g>
<!-- CloseAccountModalComponent -->
<g id="node2" class="node">
<title>CloseAccountModalComponent</title>
<polygon fill="#ffffb3" stroke="black" points="221.7,-84.8 24.3,-84.8 24.3,-48.8 221.7,-48.8 221.7,-84.8"/>
<text text-anchor="middle" x="123" y="-62.6" font-family="Times,serif" font-size="14.00">CloseAccountModalComponent</text>
</g>
<!-- CloseAccountModalComponent&#45;&gt;CloseAccountModule -->
<g id="edge2" class="edge">
<title>CloseAccountModalComponent&#45;&gt;CloseAccountModule</title>
<path fill="none" stroke="black" d="M123,-85.08C123,-106.12 123,-137.8 123,-137.8 123,-137.8 492.34,-137.8 492.34,-137.8"/>
<polygon fill="black" stroke="black" points="492.34,-141.3 502.34,-137.8 492.34,-134.3 492.34,-141.3"/>
</g>
<!-- I18nModule -->
<g id="node4" class="node">
<title>I18nModule</title>
<polygon fill="#8dd3c7" stroke="black" points="995.71,-84.8 992.71,-88.8 971.71,-88.8 968.71,-84.8 910.29,-84.8 910.29,-48.8 995.71,-48.8 995.71,-84.8"/>
<text text-anchor="middle" x="953" y="-62.6" font-family="Times,serif" font-size="14.00">I18nModule</text>
</g>
<!-- I18nModule&#45;&gt;CloseAccountModule -->
<g id="edge3" class="edge">
<title>I18nModule&#45;&gt;CloseAccountModule</title>
<path fill="none" stroke="black" d="M953,-85.08C953,-106.12 953,-137.8 953,-137.8 953,-137.8 651.44,-137.8 651.44,-137.8"/>
<polygon fill="black" stroke="black" points="651.44,-134.3 641.44,-137.8 651.44,-141.3 651.44,-134.3"/>
</g>
<!-- IconModule -->
<g id="node5" class="node">
<title>IconModule</title>
<polygon fill="#8dd3c7" stroke="black" points="892.43,-84.8 889.43,-88.8 868.43,-88.8 865.43,-84.8 807.57,-84.8 807.57,-48.8 892.43,-48.8 892.43,-84.8"/>
<text text-anchor="middle" x="850" y="-62.6" font-family="Times,serif" font-size="14.00">IconModule</text>
</g>
<!-- IconModule&#45;&gt;CloseAccountModule -->
<g id="edge4" class="edge">
<title>IconModule&#45;&gt;CloseAccountModule</title>
<path fill="none" stroke="black" d="M850,-84.82C850,-102.17 850,-125.8 850,-125.8 850,-125.8 651.43,-125.8 651.43,-125.8"/>
<polygon fill="black" stroke="black" points="651.43,-122.3 641.43,-125.8 651.43,-129.3 651.43,-122.3"/>
</g>
<!-- KeyboardFocusModule -->
<g id="node6" class="node">
<title>KeyboardFocusModule</title>
<polygon fill="#8dd3c7" stroke="black" points="790.2,-84.8 787.2,-88.8 766.2,-88.8 763.2,-84.8 641.8,-84.8 641.8,-48.8 790.2,-48.8 790.2,-84.8"/>
<text text-anchor="middle" x="716" y="-62.6" font-family="Times,serif" font-size="14.00">KeyboardFocusModule</text>
</g>
<!-- KeyboardFocusModule&#45;&gt;CloseAccountModule -->
<g id="edge5" class="edge">
<title>KeyboardFocusModule&#45;&gt;CloseAccountModule</title>
<path fill="none" stroke="black" d="M641.75,-66.8C636.07,-66.8 632.49,-66.8 632.49,-66.8 632.49,-66.8 632.49,-103.69 632.49,-103.69"/>
<polygon fill="black" stroke="black" points="628.99,-103.69 632.49,-113.69 635.99,-103.69 628.99,-103.69"/>
</g>
<!-- SpinnerModule -->
<g id="node7" class="node">
<title>SpinnerModule</title>
<polygon fill="#8dd3c7" stroke="black" points="623.6,-84.8 620.6,-88.8 599.6,-88.8 596.6,-84.8 520.4,-84.8 520.4,-48.8 623.6,-48.8 623.6,-84.8"/>
<text text-anchor="middle" x="572" y="-62.6" font-family="Times,serif" font-size="14.00">SpinnerModule</text>
</g>
<!-- SpinnerModule&#45;&gt;CloseAccountModule -->
<g id="edge6" class="edge">
<title>SpinnerModule&#45;&gt;CloseAccountModule</title>
<path fill="none" stroke="black" d="M572,-84.91C572,-84.91 572,-103.79 572,-103.79"/>
<polygon fill="black" stroke="black" points="568.5,-103.79 572,-113.79 575.5,-103.79 568.5,-103.79"/>
</g>
<!-- UrlModule -->
<g id="node8" class="node">
<title>UrlModule</title>
<polygon fill="#8dd3c7" stroke="black" points="502.21,-84.8 499.21,-88.8 478.21,-88.8 475.21,-84.8 423.79,-84.8 423.79,-48.8 502.21,-48.8 502.21,-84.8"/>
<text text-anchor="middle" x="463" y="-62.6" font-family="Times,serif" font-size="14.00">UrlModule</text>
</g>
<!-- UrlModule&#45;&gt;CloseAccountModule -->
<g id="edge7" class="edge">
<title>UrlModule&#45;&gt;CloseAccountModule</title>
<path fill="none" stroke="black" d="M502.15,-66.8C507.67,-66.8 511.51,-66.8 511.51,-66.8 511.51,-66.8 511.51,-103.69 511.51,-103.69"/>
<polygon fill="black" stroke="black" points="508.01,-103.69 511.51,-113.69 515.01,-103.69 508.01,-103.69"/>
</g>
</g>
</svg>
