<?xml version="1.0" encoding="UTF-8" standalone="no"?>
<!DOCTYPE svg PUBLIC "-//W3C//DTD SVG 1.1//EN"
 "http://www.w3.org/Graphics/SVG/1.1/DTD/svg11.dtd">
<!-- Generated by graphviz version 5.0.0 (20220707.1540)
 -->
<!-- Title: dependencies Pages: 1 -->
<svg width="1034pt" height="174pt"
 viewBox="0.00 0.00 1034.00 173.80" xmlns="http://www.w3.org/2000/svg" xmlns:xlink="http://www.w3.org/1999/xlink">
<g id="graph0" class="graph" transform="scale(1 1) rotate(0) translate(4 169.8)">
<title>dependencies</title>
<polygon fill="white" stroke="transparent" points="-4,4 -4,-169.8 1030,-169.8 1030,4 -4,4"/>
<text text-anchor="middle" x="513" y="-8.2" font-family="sans-serif" font-size="14.00">dependencies</text>
<g id="clust1" class="cluster">
<title>cluster_AccountSummaryDocumentModule</title>
<polygon fill="none" stroke="black" stroke-dasharray="1,5" points="8,-32.8 8,-157.8 1018,-157.8 1018,-32.8 8,-32.8"/>
</g>
<g id="clust4" class="cluster">
<title>cluster_AccountSummaryDocumentModule_imports</title>
<polygon fill="none" stroke="black" points="282,-40.8 282,-92.8 1010,-92.8 1010,-40.8 282,-40.8"/>
</g>
<g id="clust2" class="cluster">
<title>cluster_AccountSummaryDocumentModule_declarations</title>
<polygon fill="none" stroke="black" points="16,-40.8 16,-92.8 274,-92.8 274,-40.8 16,-40.8"/>
</g>
<!-- AccountSummaryDocumentComponent -->
<g id="node1" class="node">
<title>AccountSummaryDocumentComponent</title>
<polygon fill="#ffffb3" stroke="black" points="265.52,-84.8 24.48,-84.8 24.48,-48.8 265.52,-48.8 265.52,-84.8"/>
<text text-anchor="middle" x="145" y="-62.6" font-family="Times,serif" font-size="14.00">AccountSummaryDocumentComponent</text>
</g>
<!-- AccountSummaryDocumentModule -->
<g id="node2" class="node">
<title>AccountSummaryDocumentModule</title>
<polygon fill="#8dd3c7" stroke="black" points="637.74,-149.8 634.74,-153.8 613.74,-153.8 610.74,-149.8 418.26,-149.8 418.26,-113.8 637.74,-113.8 637.74,-149.8"/>
<text text-anchor="middle" x="528" y="-127.6" font-family="Times,serif" font-size="14.00">AccountSummaryDocumentModule</text>
</g>
<!-- AccountSummaryDocumentComponent&#45;&gt;AccountSummaryDocumentModule -->
<g id="edge1" class="edge">
<title>AccountSummaryDocumentComponent&#45;&gt;AccountSummaryDocumentModule</title>
<path fill="none" stroke="black" d="M145,-85.08C145,-106.12 145,-137.8 145,-137.8 145,-137.8 408.25,-137.8 408.25,-137.8"/>
<polygon fill="black" stroke="black" points="408.25,-141.3 418.25,-137.8 408.25,-134.3 408.25,-141.3"/>
</g>
<!-- AccountSummaryDocumentFilterModule -->
<g id="node3" class="node">
<title>AccountSummaryDocumentFilterModule</title>
<polygon fill="#8dd3c7" stroke="black" points="1002.07,-84.8 999.07,-88.8 978.07,-88.8 975.07,-84.8 751.93,-84.8 751.93,-48.8 1002.07,-48.8 1002.07,-84.8"/>
<text text-anchor="middle" x="877" y="-62.6" font-family="Times,serif" font-size="14.00">AccountSummaryDocumentFilterModule</text>
</g>
<!-- AccountSummaryDocumentFilterModule&#45;&gt;AccountSummaryDocumentModule -->
<g id="edge2" class="edge">
<title>AccountSummaryDocumentFilterModule&#45;&gt;AccountSummaryDocumentModule</title>
<path fill="none" stroke="black" d="M877,-84.91C877,-104.14 877,-131.8 877,-131.8 877,-131.8 647.95,-131.8 647.95,-131.8"/>
<polygon fill="black" stroke="black" points="647.95,-128.3 637.95,-131.8 647.95,-135.3 647.95,-128.3"/>
</g>
<!-- I18nModule -->
<g id="node4" class="node">
<title>I18nModule</title>
<polygon fill="#8dd3c7" stroke="black" points="733.71,-84.8 730.71,-88.8 709.71,-88.8 706.71,-84.8 648.29,-84.8 648.29,-48.8 733.71,-48.8 733.71,-84.8"/>
<text text-anchor="middle" x="691" y="-62.6" font-family="Times,serif" font-size="14.00">I18nModule</text>
</g>
<!-- I18nModule&#45;&gt;AccountSummaryDocumentModule -->
<g id="edge3" class="edge">
<title>I18nModule&#45;&gt;AccountSummaryDocumentModule</title>
<path fill="none" stroke="black" d="M648.12,-66.8C640.03,-66.8 634.04,-66.8 634.04,-66.8 634.04,-66.8 634.04,-103.69 634.04,-103.69"/>
<polygon fill="black" stroke="black" points="630.54,-103.69 634.04,-113.69 637.54,-103.69 630.54,-103.69"/>
</g>
<!-- IconModule -->
<g id="node5" class="node">
<title>IconModule</title>
<polygon fill="#8dd3c7" stroke="black" points="630.43,-84.8 627.43,-88.8 606.43,-88.8 603.43,-84.8 545.57,-84.8 545.57,-48.8 630.43,-48.8 630.43,-84.8"/>
<text text-anchor="middle" x="588" y="-62.6" font-family="Times,serif" font-size="14.00">IconModule</text>
</g>
<!-- IconModule&#45;&gt;AccountSummaryDocumentModule -->
<g id="edge4" class="edge">
<title>IconModule&#45;&gt;AccountSummaryDocumentModule</title>
<path fill="none" stroke="black" d="M588,-84.91C588,-84.91 588,-103.79 588,-103.79"/>
<polygon fill="black" stroke="black" points="584.5,-103.79 588,-113.79 591.5,-103.79 584.5,-103.79"/>
</g>
<!-- PaginationModule -->
<g id="node6" class="node">
<title>PaginationModule</title>
<polygon fill="#8dd3c7" stroke="black" points="527.94,-84.8 524.94,-88.8 503.94,-88.8 500.94,-84.8 408.06,-84.8 408.06,-48.8 527.94,-48.8 527.94,-84.8"/>
<text text-anchor="middle" x="468" y="-62.6" font-family="Times,serif" font-size="14.00">PaginationModule</text>
</g>
<!-- PaginationModule&#45;&gt;AccountSummaryDocumentModule -->
<g id="edge5" class="edge">
<title>PaginationModule&#45;&gt;AccountSummaryDocumentModule</title>
<path fill="none" stroke="black" d="M472.92,-84.91C472.92,-84.91 472.92,-103.79 472.92,-103.79"/>
<polygon fill="black" stroke="black" points="469.42,-103.79 472.92,-113.79 476.42,-103.79 469.42,-103.79"/>
</g>
<!-- SortingModule -->
<g id="node7" class="node">
<title>SortingModule</title>
<polygon fill="#8dd3c7" stroke="black" points="390.28,-84.8 387.28,-88.8 366.28,-88.8 363.28,-84.8 289.72,-84.8 289.72,-48.8 390.28,-48.8 390.28,-84.8"/>
<text text-anchor="middle" x="340" y="-62.6" font-family="Times,serif" font-size="14.00">SortingModule</text>
</g>
<!-- SortingModule&#45;&gt;AccountSummaryDocumentModule -->
<g id="edge6" class="edge">
<title>SortingModule&#45;&gt;AccountSummaryDocumentModule</title>
<path fill="none" stroke="black" d="M340,-84.82C340,-102.17 340,-125.8 340,-125.8 340,-125.8 408.1,-125.8 408.1,-125.8"/>
<polygon fill="black" stroke="black" points="408.1,-129.3 418.1,-125.8 408.1,-122.3 408.1,-129.3"/>
</g>
</g>
</svg>
