<?xml version="1.0" encoding="UTF-8" standalone="no"?>
<!DOCTYPE svg PUBLIC "-//W3C//DTD SVG 1.1//EN"
 "http://www.w3.org/Graphics/SVG/1.1/DTD/svg11.dtd">
<!-- Generated by graphviz version 5.0.0 (20220707.1540)
 -->
<!-- Title: dependencies Pages: 1 -->
<svg width="697pt" height="174pt"
 viewBox="0.00 0.00 697.00 173.80" xmlns="http://www.w3.org/2000/svg" xmlns:xlink="http://www.w3.org/1999/xlink">
<g id="graph0" class="graph" transform="scale(1 1) rotate(0) translate(4 169.8)">
<title>dependencies</title>
<polygon fill="white" stroke="transparent" points="-4,4 -4,-169.8 693,-169.8 693,4 -4,4"/>
<text text-anchor="middle" x="344.5" y="-8.2" font-family="sans-serif" font-size="14.00">dependencies</text>
<g id="clust1" class="cluster">
<title>cluster_ForgotPasswordModule</title>
<polygon fill="none" stroke="black" stroke-dasharray="1,5" points="8,-32.8 8,-157.8 681,-157.8 681,-32.8 8,-32.8"/>
</g>
<g id="clust4" class="cluster">
<title>cluster_ForgotPasswordModule_imports</title>
<polygon fill="none" stroke="black" points="212,-40.8 212,-92.8 673,-92.8 673,-40.8 212,-40.8"/>
</g>
<g id="clust2" class="cluster">
<title>cluster_ForgotPasswordModule_declarations</title>
<polygon fill="none" stroke="black" points="16,-40.8 16,-92.8 204,-92.8 204,-40.8 16,-40.8"/>
</g>
<!-- ForgotPasswordComponent -->
<g id="node1" class="node">
<title>ForgotPasswordComponent</title>
<polygon fill="#ffffb3" stroke="black" points="196.34,-84.8 23.66,-84.8 23.66,-48.8 196.34,-48.8 196.34,-84.8"/>
<text text-anchor="middle" x="110" y="-62.6" font-family="Times,serif" font-size="14.00">ForgotPasswordComponent</text>
</g>
<!-- ForgotPasswordModule -->
<g id="node2" class="node">
<title>ForgotPasswordModule</title>
<polygon fill="#8dd3c7" stroke="black" points="443.06,-149.8 440.06,-153.8 419.06,-153.8 416.06,-149.8 292.94,-149.8 292.94,-113.8 443.06,-113.8 443.06,-149.8"/>
<text text-anchor="middle" x="368" y="-127.6" font-family="Times,serif" font-size="14.00">ForgotPasswordModule</text>
</g>
<!-- ForgotPasswordComponent&#45;&gt;ForgotPasswordModule -->
<g id="edge1" class="edge">
<title>ForgotPasswordComponent&#45;&gt;ForgotPasswordModule</title>
<path fill="none" stroke="black" d="M110,-84.91C110,-104.14 110,-131.8 110,-131.8 110,-131.8 282.68,-131.8 282.68,-131.8"/>
<polygon fill="black" stroke="black" points="282.68,-135.3 292.68,-131.8 282.68,-128.3 282.68,-135.3"/>
</g>
<!-- FormErrorsModule -->
<g id="node3" class="node">
<title>FormErrorsModule</title>
<polygon fill="#8dd3c7" stroke="black" points="665.38,-84.8 662.38,-88.8 641.38,-88.8 638.38,-84.8 540.62,-84.8 540.62,-48.8 665.38,-48.8 665.38,-84.8"/>
<text text-anchor="middle" x="603" y="-62.6" font-family="Times,serif" font-size="14.00">FormErrorsModule</text>
</g>
<!-- FormErrorsModule&#45;&gt;ForgotPasswordModule -->
<g id="edge2" class="edge">
<title>FormErrorsModule&#45;&gt;ForgotPasswordModule</title>
<path fill="none" stroke="black" d="M603,-84.91C603,-104.14 603,-131.8 603,-131.8 603,-131.8 453.33,-131.8 453.33,-131.8"/>
<polygon fill="black" stroke="black" points="453.33,-128.3 443.33,-131.8 453.33,-135.3 453.33,-128.3"/>
</g>
<!-- I18nModule -->
<g id="node4" class="node">
<title>I18nModule</title>
<polygon fill="#8dd3c7" stroke="black" points="522.71,-84.8 519.71,-88.8 498.71,-88.8 495.71,-84.8 437.29,-84.8 437.29,-48.8 522.71,-48.8 522.71,-84.8"/>
<text text-anchor="middle" x="480" y="-62.6" font-family="Times,serif" font-size="14.00">I18nModule</text>
</g>
<!-- I18nModule&#45;&gt;ForgotPasswordModule -->
<g id="edge3" class="edge">
<title>I18nModule&#45;&gt;ForgotPasswordModule</title>
<path fill="none" stroke="black" d="M436.98,-66.8C431.9,-66.8 428.47,-66.8 428.47,-66.8 428.47,-66.8 428.47,-103.69 428.47,-103.69"/>
<polygon fill="black" stroke="black" points="424.97,-103.69 428.47,-113.69 431.97,-103.69 424.97,-103.69"/>
</g>
<!-- SpinnerModule -->
<g id="node5" class="node">
<title>SpinnerModule</title>
<polygon fill="#8dd3c7" stroke="black" points="419.6,-84.8 416.6,-88.8 395.6,-88.8 392.6,-84.8 316.4,-84.8 316.4,-48.8 419.6,-48.8 419.6,-84.8"/>
<text text-anchor="middle" x="368" y="-62.6" font-family="Times,serif" font-size="14.00">SpinnerModule</text>
</g>
<!-- SpinnerModule&#45;&gt;ForgotPasswordModule -->
<g id="edge4" class="edge">
<title>SpinnerModule&#45;&gt;ForgotPasswordModule</title>
<path fill="none" stroke="black" d="M368,-84.91C368,-84.91 368,-103.79 368,-103.79"/>
<polygon fill="black" stroke="black" points="364.5,-103.79 368,-113.79 371.5,-103.79 364.5,-103.79"/>
</g>
<!-- UrlModule -->
<g id="node6" class="node">
<title>UrlModule</title>
<polygon fill="#8dd3c7" stroke="black" points="298.21,-84.8 295.21,-88.8 274.21,-88.8 271.21,-84.8 219.79,-84.8 219.79,-48.8 298.21,-48.8 298.21,-84.8"/>
<text text-anchor="middle" x="259" y="-62.6" font-family="Times,serif" font-size="14.00">UrlModule</text>
</g>
<!-- UrlModule&#45;&gt;ForgotPasswordModule -->
<g id="edge5" class="edge">
<title>UrlModule&#45;&gt;ForgotPasswordModule</title>
<path fill="none" stroke="black" d="M298.42,-66.8C303.67,-66.8 307.28,-66.8 307.28,-66.8 307.28,-66.8 307.28,-103.69 307.28,-103.69"/>
<polygon fill="black" stroke="black" points="303.78,-103.69 307.28,-113.69 310.78,-103.69 303.78,-103.69"/>
</g>
</g>
</svg>
