<?xml version="1.0" encoding="UTF-8" standalone="no"?>
<!DOCTYPE svg PUBLIC "-//W3C//DTD SVG 1.1//EN"
 "http://www.w3.org/Graphics/SVG/1.1/DTD/svg11.dtd">
<!-- Generated by graphviz version 5.0.0 (20220707.1540)
 -->
<!-- Title: dependencies Pages: 1 -->
<svg width="746pt" height="247pt"
 viewBox="0.00 0.00 746.00 246.80" xmlns="http://www.w3.org/2000/svg" xmlns:xlink="http://www.w3.org/1999/xlink">
<g id="graph0" class="graph" transform="scale(1 1) rotate(0) translate(4 242.8)">
<title>dependencies</title>
<polygon fill="white" stroke="transparent" points="-4,4 -4,-242.8 742,-242.8 742,4 -4,4"/>
<text text-anchor="middle" x="369" y="-8.2" font-family="sans-serif" font-size="14.00">dependencies</text>
<g id="clust1" class="cluster">
<title>cluster_ConfiguratorAttributeNumericInputFieldModule</title>
<polygon fill="none" stroke="black" stroke-dasharray="1,5" points="8,-32.8 8,-230.8 730,-230.8 730,-32.8 8,-32.8"/>
</g>
<g id="clust2" class="cluster">
<title>cluster_ConfiguratorAttributeNumericInputFieldModule_declarations</title>
<polygon fill="none" stroke="black" points="394,-40.8 394,-92.8 722,-92.8 722,-40.8 394,-40.8"/>
</g>
<g id="clust4" class="cluster">
<title>cluster_ConfiguratorAttributeNumericInputFieldModule_imports</title>
<polygon fill="none" stroke="black" points="16,-40.8 16,-92.8 386,-92.8 386,-40.8 16,-40.8"/>
</g>
<g id="clust5" class="cluster">
<title>cluster_ConfiguratorAttributeNumericInputFieldModule_exports</title>
<polygon fill="none" stroke="black" points="117,-170.8 117,-222.8 449,-222.8 449,-170.8 117,-170.8"/>
</g>
<!-- ConfiguratorAttributeNumericInputFieldComponent -->
<g id="node1" class="node">
<title>ConfiguratorAttributeNumericInputFieldComponent</title>
<polygon fill="#ffffb3" stroke="black" points="713.5,-84.8 402.5,-84.8 402.5,-48.8 713.5,-48.8 713.5,-84.8"/>
<text text-anchor="middle" x="558" y="-62.6" font-family="Times,serif" font-size="14.00">ConfiguratorAttributeNumericInputFieldComponent</text>
</g>
<!-- ConfiguratorAttributeNumericInputFieldModule -->
<g id="node2" class="node">
<title>ConfiguratorAttributeNumericInputFieldModule</title>
<polygon fill="#8dd3c7" stroke="black" points="427.72,-149.8 424.72,-153.8 403.72,-153.8 400.72,-149.8 138.28,-149.8 138.28,-113.8 427.72,-113.8 427.72,-149.8"/>
<text text-anchor="middle" x="283" y="-127.6" font-family="Times,serif" font-size="14.00">ConfiguratorAttributeNumericInputFieldModule</text>
</g>
<!-- ConfiguratorAttributeNumericInputFieldComponent&#45;&gt;ConfiguratorAttributeNumericInputFieldModule -->
<g id="edge1" class="edge">
<title>ConfiguratorAttributeNumericInputFieldComponent&#45;&gt;ConfiguratorAttributeNumericInputFieldModule</title>
<path fill="none" stroke="black" d="M415.06,-84.91C415.06,-84.91 415.06,-103.79 415.06,-103.79"/>
<polygon fill="black" stroke="black" points="411.56,-103.79 415.06,-113.79 418.56,-103.79 411.56,-103.79"/>
</g>
<!-- ConfiguratorAttributeNumericInputFieldComponent  -->
<g id="node6" class="node">
<title>ConfiguratorAttributeNumericInputFieldComponent </title>
<polygon fill="#fb8072" stroke="black" points="440.5,-214.8 125.5,-214.8 125.5,-178.8 440.5,-178.8 440.5,-214.8"/>
<text text-anchor="middle" x="283" y="-192.6" font-family="Times,serif" font-size="14.00">ConfiguratorAttributeNumericInputFieldComponent </text>
</g>
<!-- ConfiguratorAttributeNumericInputFieldModule&#45;&gt;ConfiguratorAttributeNumericInputFieldComponent  -->
<g id="edge5" class="edge">
<title>ConfiguratorAttributeNumericInputFieldModule&#45;&gt;ConfiguratorAttributeNumericInputFieldComponent </title>
<path fill="none" stroke="black" stroke-dasharray="5,2" d="M283,-149.91C283,-149.91 283,-168.79 283,-168.79"/>
<polygon fill="black" stroke="black" points="279.5,-168.79 283,-178.79 286.5,-168.79 279.5,-168.79"/>
</g>
<!-- I18nModule -->
<g id="node3" class="node">
<title>I18nModule</title>
<polygon fill="#8dd3c7" stroke="black" points="377.71,-84.8 374.71,-88.8 353.71,-88.8 350.71,-84.8 292.29,-84.8 292.29,-48.8 377.71,-48.8 377.71,-84.8"/>
<text text-anchor="middle" x="335" y="-62.6" font-family="Times,serif" font-size="14.00">I18nModule</text>
</g>
<!-- I18nModule&#45;&gt;ConfiguratorAttributeNumericInputFieldModule -->
<g id="edge2" class="edge">
<title>I18nModule&#45;&gt;ConfiguratorAttributeNumericInputFieldModule</title>
<path fill="none" stroke="black" d="M335,-84.91C335,-84.91 335,-103.79 335,-103.79"/>
<polygon fill="black" stroke="black" points="331.5,-103.79 335,-113.79 338.5,-103.79 331.5,-103.79"/>
</g>
<!-- IconModule -->
<g id="node4" class="node">
<title>IconModule</title>
<polygon fill="#8dd3c7" stroke="black" points="274.43,-84.8 271.43,-88.8 250.43,-88.8 247.43,-84.8 189.57,-84.8 189.57,-48.8 274.43,-48.8 274.43,-84.8"/>
<text text-anchor="middle" x="232" y="-62.6" font-family="Times,serif" font-size="14.00">IconModule</text>
</g>
<!-- IconModule&#45;&gt;ConfiguratorAttributeNumericInputFieldModule -->
<g id="edge3" class="edge">
<title>IconModule&#45;&gt;ConfiguratorAttributeNumericInputFieldModule</title>
<path fill="none" stroke="black" d="M232,-84.91C232,-84.91 232,-103.79 232,-103.79"/>
<polygon fill="black" stroke="black" points="228.5,-103.79 232,-113.79 235.5,-103.79 228.5,-103.79"/>
</g>
<!-- KeyboardFocusModule -->
<g id="node5" class="node">
<title>KeyboardFocusModule</title>
<polygon fill="#8dd3c7" stroke="black" points="172.2,-84.8 169.2,-88.8 148.2,-88.8 145.2,-84.8 23.8,-84.8 23.8,-48.8 172.2,-48.8 172.2,-84.8"/>
<text text-anchor="middle" x="98" y="-62.6" font-family="Times,serif" font-size="14.00">KeyboardFocusModule</text>
</g>
<!-- KeyboardFocusModule&#45;&gt;ConfiguratorAttributeNumericInputFieldModule -->
<g id="edge4" class="edge">
<title>KeyboardFocusModule&#45;&gt;ConfiguratorAttributeNumericInputFieldModule</title>
<path fill="none" stroke="black" d="M155.12,-84.91C155.12,-84.91 155.12,-103.79 155.12,-103.79"/>
<polygon fill="black" stroke="black" points="151.62,-103.79 155.12,-113.79 158.62,-103.79 151.62,-103.79"/>
</g>
</g>
</svg>
