<?xml version="1.0" encoding="UTF-8" standalone="no"?>
<!DOCTYPE svg PUBLIC "-//W3C//DTD SVG 1.1//EN"
 "http://www.w3.org/Graphics/SVG/1.1/DTD/svg11.dtd">
<!-- Generated by graphviz version 5.0.0 (20220707.1540)
 -->
<!-- Title: dependencies Pages: 1 -->
<svg width="402pt" height="174pt"
 viewBox="0.00 0.00 402.00 173.80" xmlns="http://www.w3.org/2000/svg" xmlns:xlink="http://www.w3.org/1999/xlink">
<g id="graph0" class="graph" transform="scale(1 1) rotate(0) translate(4 169.8)">
<title>dependencies</title>
<polygon fill="white" stroke="transparent" points="-4,4 -4,-169.8 398,-169.8 398,4 -4,4"/>
<text text-anchor="middle" x="197" y="-8.2" font-family="sans-serif" font-size="14.00">dependencies</text>
<g id="clust1" class="cluster">
<title>cluster_CheckoutB2BModule</title>
<polygon fill="none" stroke="black" stroke-dasharray="1,5" points="8,-32.8 8,-157.8 386,-157.8 386,-32.8 8,-32.8"/>
</g>
<g id="clust3" class="cluster">
<title>cluster_CheckoutB2BModule_imports</title>
<polygon fill="none" stroke="black" points="16,-40.8 16,-92.8 378,-92.8 378,-40.8 16,-40.8"/>
</g>
<!-- CheckoutB2BCoreModule -->
<g id="node1" class="node">
<title>CheckoutB2BCoreModule</title>
<polygon fill="#8dd3c7" stroke="black" points="370.1,-84.8 367.1,-88.8 346.1,-88.8 343.1,-84.8 203.9,-84.8 203.9,-48.8 370.1,-48.8 370.1,-84.8"/>
<text text-anchor="middle" x="287" y="-62.6" font-family="Times,serif" font-size="14.00">CheckoutB2BCoreModule</text>
</g>
<!-- CheckoutB2BModule -->
<g id="node3" class="node">
<title>CheckoutB2BModule</title>
<polygon fill="#8dd3c7" stroke="black" points="265.38,-149.8 262.38,-153.8 241.38,-153.8 238.38,-149.8 126.62,-149.8 126.62,-113.8 265.38,-113.8 265.38,-149.8"/>
<text text-anchor="middle" x="196" y="-127.6" font-family="Times,serif" font-size="14.00">CheckoutB2BModule</text>
</g>
<!-- CheckoutB2BCoreModule&#45;&gt;CheckoutB2BModule -->
<g id="edge1" class="edge">
<title>CheckoutB2BCoreModule&#45;&gt;CheckoutB2BModule</title>
<path fill="none" stroke="black" d="M234.7,-84.91C234.7,-84.91 234.7,-103.79 234.7,-103.79"/>
<polygon fill="black" stroke="black" points="231.2,-103.79 234.7,-113.79 238.2,-103.79 231.2,-103.79"/>
</g>
<!-- CheckoutB2BOccModule -->
<g id="node2" class="node">
<title>CheckoutB2BOccModule</title>
<polygon fill="#8dd3c7" stroke="black" points="185.92,-84.8 182.92,-88.8 161.92,-88.8 158.92,-84.8 24.08,-84.8 24.08,-48.8 185.92,-48.8 185.92,-84.8"/>
<text text-anchor="middle" x="105" y="-62.6" font-family="Times,serif" font-size="14.00">CheckoutB2BOccModule</text>
</g>
<!-- CheckoutB2BOccModule&#45;&gt;CheckoutB2BModule -->
<g id="edge2" class="edge">
<title>CheckoutB2BOccModule&#45;&gt;CheckoutB2BModule</title>
<path fill="none" stroke="black" d="M156.13,-84.91C156.13,-84.91 156.13,-103.79 156.13,-103.79"/>
<polygon fill="black" stroke="black" points="152.63,-103.79 156.13,-113.79 159.63,-103.79 152.63,-103.79"/>
</g>
</g>
</svg>
