<?xml version="1.0" encoding="UTF-8" standalone="no"?>
<!DOCTYPE svg PUBLIC "-//W3C//DTD SVG 1.1//EN"
 "http://www.w3.org/Graphics/SVG/1.1/DTD/svg11.dtd">
<!-- Generated by graphviz version 5.0.0 (20220707.1540)
 -->
<!-- Title: dependencies Pages: 1 -->
<svg width="1067pt" height="174pt"
 viewBox="0.00 0.00 1067.00 173.80" xmlns="http://www.w3.org/2000/svg" xmlns:xlink="http://www.w3.org/1999/xlink">
<g id="graph0" class="graph" transform="scale(1 1) rotate(0) translate(4 169.8)">
<title>dependencies</title>
<polygon fill="white" stroke="transparent" points="-4,4 -4,-169.8 1063,-169.8 1063,4 -4,4"/>
<text text-anchor="middle" x="529.5" y="-8.2" font-family="sans-serif" font-size="14.00">dependencies</text>
<g id="clust1" class="cluster">
<title>cluster_CheckoutB2BCoreModule</title>
<polygon fill="none" stroke="black" stroke-dasharray="1,5" points="8,-32.8 8,-157.8 1051,-157.8 1051,-32.8 8,-32.8"/>
</g>
<g id="clust6" class="cluster">
<title>cluster_CheckoutB2BCoreModule_providers</title>
<polygon fill="none" stroke="black" points="16,-40.8 16,-92.8 1043,-92.8 1043,-40.8 16,-40.8"/>
</g>
<!-- AsmBindCartService -->
<g id="node1" class="node">
<title>AsmBindCartService</title>
<ellipse fill="#fdb462" stroke="black" cx="941" cy="-66.8" rx="93.79" ry="18"/>
<text text-anchor="middle" x="941" y="-62.6" font-family="Times,serif" font-size="14.00">AsmBindCartService</text>
</g>
<!-- CheckoutB2BCoreModule -->
<g id="node5" class="node">
<title>CheckoutB2BCoreModule</title>
<polygon fill="#8dd3c7" stroke="black" points="671.1,-149.8 668.1,-153.8 647.1,-153.8 644.1,-149.8 504.9,-149.8 504.9,-113.8 671.1,-113.8 671.1,-149.8"/>
<text text-anchor="middle" x="588" y="-127.6" font-family="Times,serif" font-size="14.00">CheckoutB2BCoreModule</text>
</g>
<!-- AsmBindCartService&#45;&gt;CheckoutB2BCoreModule -->
<g id="edge1" class="edge">
<title>AsmBindCartService&#45;&gt;CheckoutB2BCoreModule</title>
<path fill="none" stroke="black" d="M941,-84.91C941,-104.14 941,-131.8 941,-131.8 941,-131.8 681.21,-131.8 681.21,-131.8"/>
<polygon fill="black" stroke="black" points="681.21,-128.3 671.21,-131.8 681.21,-135.3 681.21,-128.3"/>
</g>
<!-- AsmCustomerListService -->
<g id="node2" class="node">
<title>AsmCustomerListService</title>
<ellipse fill="#fdb462" stroke="black" cx="719" cy="-66.8" rx="110.63" ry="18"/>
<text text-anchor="middle" x="719" y="-62.6" font-family="Times,serif" font-size="14.00">AsmCustomerListService</text>
</g>
<!-- AsmCustomerListService&#45;&gt;CheckoutB2BCoreModule -->
<g id="edge2" class="edge">
<title>AsmCustomerListService&#45;&gt;CheckoutB2BCoreModule</title>
<path fill="none" stroke="black" d="M639.62,-79.64C639.62,-79.64 639.62,-103.32 639.62,-103.32"/>
<polygon fill="black" stroke="black" points="636.12,-103.32 639.62,-113.32 643.12,-103.32 636.12,-103.32"/>
</g>
<!-- CheckoutCostCenterConnector -->
<g id="node3" class="node">
<title>CheckoutCostCenterConnector</title>
<ellipse fill="#fdb462" stroke="black" cx="458" cy="-66.8" rx="131.95" ry="18"/>
<text text-anchor="middle" x="458" y="-62.6" font-family="Times,serif" font-size="14.00">CheckoutCostCenterConnector</text>
</g>
<!-- CheckoutCostCenterConnector&#45;&gt;CheckoutB2BCoreModule -->
<g id="edge3" class="edge">
<title>CheckoutCostCenterConnector&#45;&gt;CheckoutB2BCoreModule</title>
<path fill="none" stroke="black" d="M547.34,-80.27C547.34,-80.27 547.34,-103.66 547.34,-103.66"/>
<polygon fill="black" stroke="black" points="543.84,-103.66 547.34,-113.66 550.84,-103.66 543.84,-103.66"/>
</g>
<!-- CheckoutPaymentTypeConnector -->
<g id="node4" class="node">
<title>CheckoutPaymentTypeConnector</title>
<ellipse fill="#fdb462" stroke="black" cx="166" cy="-66.8" rx="141.82" ry="18"/>
<text text-anchor="middle" x="166" y="-62.6" font-family="Times,serif" font-size="14.00">CheckoutPaymentTypeConnector</text>
</g>
<!-- CheckoutPaymentTypeConnector&#45;&gt;CheckoutB2BCoreModule -->
<g id="edge4" class="edge">
<title>CheckoutPaymentTypeConnector&#45;&gt;CheckoutB2BCoreModule</title>
<path fill="none" stroke="black" d="M166,-84.91C166,-104.14 166,-131.8 166,-131.8 166,-131.8 494.88,-131.8 494.88,-131.8"/>
<polygon fill="black" stroke="black" points="494.88,-135.3 504.88,-131.8 494.88,-128.3 494.88,-135.3"/>
</g>
</g>
</svg>
