<?xml version="1.0" encoding="UTF-8" standalone="no"?>
<!DOCTYPE svg PUBLIC "-//W3C//DTD SVG 1.1//EN"
 "http://www.w3.org/Graphics/SVG/1.1/DTD/svg11.dtd">
<!-- Generated by graphviz version 5.0.0 (20220707.1540)
 -->
<!-- Title: dependencies Pages: 1 -->
<svg width="1148pt" height="358pt"
 viewBox="0.00 0.00 1148.00 358.39" xmlns="http://www.w3.org/2000/svg" xmlns:xlink="http://www.w3.org/1999/xlink">
<g id="graph0" class="graph" transform="scale(1 1) rotate(0) translate(4 354.39)">
<title>dependencies</title>
<polygon fill="white" stroke="transparent" points="-4,4 -4,-354.39 1144,-354.39 1144,4 -4,4"/>
<text text-anchor="middle" x="570" y="-8.2" font-family="sans-serif" font-size="14.00">dependencies</text>
<g id="clust1" class="cluster">
<title>cluster_PermissionDetailsModule</title>
<polygon fill="none" stroke="black" stroke-dasharray="1,5" points="8,-32.8 8,-342.39 1132,-342.39 1132,-32.8 8,-32.8"/>
</g>
<g id="clust5" class="cluster">
<title>cluster_PermissionDetailsModule_exports</title>
<polygon fill="none" stroke="black" points="457,-282.39 457,-334.39 659,-334.39 659,-282.39 457,-282.39"/>
</g>
<g id="clust2" class="cluster">
<title>cluster_PermissionDetailsModule_declarations</title>
<polygon fill="none" stroke="black" points="924,-152.39 924,-204.39 1124,-204.39 1124,-152.39 924,-152.39"/>
</g>
<g id="clust3" class="cluster">
<title>cluster_PermissionDetailsModule_PermissionDetailsComponent_providers</title>
<polygon fill="none" stroke="black" points="598,-40.8 598,-139.39 1124,-139.39 1124,-40.8 598,-40.8"/>
</g>
<g id="clust4" class="cluster">
<title>cluster_PermissionDetailsModule_imports</title>
<polygon fill="none" stroke="black" points="16,-152.39 16,-204.39 916,-204.39 916,-152.39 16,-152.39"/>
</g>
<!-- PermissionDetailsComponent -->
<g id="node1" class="node">
<title>PermissionDetailsComponent</title>
<polygon fill="#ffffb3" stroke="black" points="1115.71,-196.39 932.29,-196.39 932.29,-160.39 1115.71,-160.39 1115.71,-196.39"/>
<text text-anchor="middle" x="1024" y="-174.19" font-family="Times,serif" font-size="14.00">PermissionDetailsComponent</text>
</g>
<!-- PermissionDetailsModule -->
<g id="node2" class="node">
<title>PermissionDetailsModule</title>
<polygon fill="#8dd3c7" stroke="black" points="638.94,-261.39 635.94,-265.39 614.94,-265.39 611.94,-261.39 477.06,-261.39 477.06,-225.39 638.94,-225.39 638.94,-261.39"/>
<text text-anchor="middle" x="558" y="-239.19" font-family="Times,serif" font-size="14.00">PermissionDetailsModule</text>
</g>
<!-- PermissionDetailsComponent&#45;&gt;PermissionDetailsModule -->
<g id="edge1" class="edge">
<title>PermissionDetailsComponent&#45;&gt;PermissionDetailsModule</title>
<path fill="none" stroke="black" d="M1024,-196.68C1024,-218.6 1024,-252.39 1024,-252.39 1024,-252.39 648.9,-252.39 648.9,-252.39"/>
<polygon fill="black" stroke="black" points="648.9,-248.89 638.9,-252.39 648.9,-255.89 648.9,-248.89"/>
</g>
<!-- PermissionDetailsComponent  -->
<g id="node11" class="node">
<title>PermissionDetailsComponent </title>
<polygon fill="#fb8072" stroke="black" points="651.21,-326.39 464.79,-326.39 464.79,-290.39 651.21,-290.39 651.21,-326.39"/>
<text text-anchor="middle" x="558" y="-304.19" font-family="Times,serif" font-size="14.00">PermissionDetailsComponent </text>
</g>
<!-- PermissionDetailsModule&#45;&gt;PermissionDetailsComponent  -->
<g id="edge10" class="edge">
<title>PermissionDetailsModule&#45;&gt;PermissionDetailsComponent </title>
<path fill="none" stroke="black" stroke-dasharray="5,2" d="M558,-261.5C558,-261.5 558,-280.38 558,-280.38"/>
<polygon fill="black" stroke="black" points="554.5,-280.38 558,-290.38 561.5,-280.38 554.5,-280.38"/>
</g>
<!-- {
 &#160;&#160;&#160;provide: ItemService, useExisting: PermissionItemService,
} -->
<g id="node3" class="node">
<title>{
 &#160;&#160;&#160;provide: ItemService, useExisting: PermissionItemService,
}</title>
<ellipse fill="#fdb462" stroke="black" cx="861" cy="-90.1" rx="255.35" ry="41.09"/>
<text text-anchor="middle" x="861" y="-102.7" font-family="Times,serif" font-size="14.00">{</text>
<text text-anchor="middle" x="861" y="-85.9" font-family="Times,serif" font-size="14.00"> &#160;&#160;&#160;provide: ItemService, useExisting: PermissionItemService,</text>
<text text-anchor="middle" x="861" y="-69.1" font-family="Times,serif" font-size="14.00">}</text>
</g>
<!-- {
 &#160;&#160;&#160;provide: ItemService, useExisting: PermissionItemService,
}&#45;&gt;PermissionDetailsComponent -->
<g id="edge2" class="edge">
<title>{
 &#160;&#160;&#160;provide: ItemService, useExisting: PermissionItemService,
}&#45;&gt;PermissionDetailsComponent</title>
<path fill="none" stroke="black" d="M1024,-121.97C1024,-121.97 1024,-150.18 1024,-150.18"/>
<polygon fill="black" stroke="black" points="1020.5,-150.18 1024,-160.18 1027.5,-150.18 1020.5,-150.18"/>
</g>
<!-- CardModule -->
<g id="node4" class="node">
<title>CardModule</title>
<polygon fill="#8dd3c7" stroke="black" points="908.27,-196.39 905.27,-200.39 884.27,-200.39 881.27,-196.39 821.73,-196.39 821.73,-160.39 908.27,-160.39 908.27,-196.39"/>
<text text-anchor="middle" x="865" y="-174.19" font-family="Times,serif" font-size="14.00">CardModule</text>
</g>
<!-- CardModule&#45;&gt;PermissionDetailsModule -->
<g id="edge3" class="edge">
<title>CardModule&#45;&gt;PermissionDetailsModule</title>
<path fill="none" stroke="black" d="M865,-196.5C865,-215.73 865,-243.39 865,-243.39 865,-243.39 649.06,-243.39 649.06,-243.39"/>
<polygon fill="black" stroke="black" points="649.06,-239.89 639.06,-243.39 649.06,-246.89 649.06,-239.89"/>
</g>
<!-- DisableInfoModule -->
<g id="node5" class="node">
<title>DisableInfoModule</title>
<polygon fill="#8dd3c7" stroke="black" points="803.64,-196.39 800.64,-200.39 779.64,-200.39 776.64,-196.39 678.36,-196.39 678.36,-160.39 803.64,-160.39 803.64,-196.39"/>
<text text-anchor="middle" x="741" y="-174.19" font-family="Times,serif" font-size="14.00">DisableInfoModule</text>
</g>
<!-- DisableInfoModule&#45;&gt;PermissionDetailsModule -->
<g id="edge4" class="edge">
<title>DisableInfoModule&#45;&gt;PermissionDetailsModule</title>
<path fill="none" stroke="black" d="M741,-196.42C741,-212.79 741,-234.39 741,-234.39 741,-234.39 648.8,-234.39 648.8,-234.39"/>
<polygon fill="black" stroke="black" points="648.8,-230.89 638.8,-234.39 648.8,-237.89 648.8,-230.89"/>
</g>
<!-- I18nModule -->
<g id="node6" class="node">
<title>I18nModule</title>
<polygon fill="#8dd3c7" stroke="black" points="660.71,-196.39 657.71,-200.39 636.71,-200.39 633.71,-196.39 575.29,-196.39 575.29,-160.39 660.71,-160.39 660.71,-196.39"/>
<text text-anchor="middle" x="618" y="-174.19" font-family="Times,serif" font-size="14.00">I18nModule</text>
</g>
<!-- I18nModule&#45;&gt;PermissionDetailsModule -->
<g id="edge5" class="edge">
<title>I18nModule&#45;&gt;PermissionDetailsModule</title>
<path fill="none" stroke="black" d="M607.06,-196.5C607.06,-196.5 607.06,-215.38 607.06,-215.38"/>
<polygon fill="black" stroke="black" points="603.56,-215.38 607.06,-225.38 610.56,-215.38 603.56,-215.38"/>
</g>
<!-- ItemExistsModule -->
<g id="node7" class="node">
<title>ItemExistsModule</title>
<polygon fill="#8dd3c7" stroke="black" points="557.94,-196.39 554.94,-200.39 533.94,-200.39 530.94,-196.39 438.06,-196.39 438.06,-160.39 557.94,-160.39 557.94,-196.39"/>
<text text-anchor="middle" x="498" y="-174.19" font-family="Times,serif" font-size="14.00">ItemExistsModule</text>
</g>
<!-- ItemExistsModule&#45;&gt;PermissionDetailsModule -->
<g id="edge6" class="edge">
<title>ItemExistsModule&#45;&gt;PermissionDetailsModule</title>
<path fill="none" stroke="black" d="M517.5,-196.5C517.5,-196.5 517.5,-215.38 517.5,-215.38"/>
<polygon fill="black" stroke="black" points="514,-215.38 517.5,-225.38 521,-215.38 514,-215.38"/>
</g>
<!-- KeyboardFocusModule -->
<g id="node8" class="node">
<title>KeyboardFocusModule</title>
<polygon fill="#8dd3c7" stroke="black" points="420.2,-196.39 417.2,-200.39 396.2,-200.39 393.2,-196.39 271.8,-196.39 271.8,-160.39 420.2,-160.39 420.2,-196.39"/>
<text text-anchor="middle" x="346" y="-174.19" font-family="Times,serif" font-size="14.00">KeyboardFocusModule</text>
</g>
<!-- KeyboardFocusModule&#45;&gt;PermissionDetailsModule -->
<g id="edge7" class="edge">
<title>KeyboardFocusModule&#45;&gt;PermissionDetailsModule</title>
<path fill="none" stroke="black" d="M346,-196.42C346,-212.79 346,-234.39 346,-234.39 346,-234.39 467.25,-234.39 467.25,-234.39"/>
<polygon fill="black" stroke="black" points="467.25,-237.89 477.25,-234.39 467.25,-230.89 467.25,-237.89"/>
</g>
<!-- ToggleStatusModule -->
<g id="node9" class="node">
<title>ToggleStatusModule</title>
<polygon fill="#8dd3c7" stroke="black" points="253.94,-196.39 250.94,-200.39 229.94,-200.39 226.94,-196.39 120.06,-196.39 120.06,-160.39 253.94,-160.39 253.94,-196.39"/>
<text text-anchor="middle" x="187" y="-174.19" font-family="Times,serif" font-size="14.00">ToggleStatusModule</text>
</g>
<!-- ToggleStatusModule&#45;&gt;PermissionDetailsModule -->
<g id="edge8" class="edge">
<title>ToggleStatusModule&#45;&gt;PermissionDetailsModule</title>
<path fill="none" stroke="black" d="M187,-196.5C187,-215.73 187,-243.39 187,-243.39 187,-243.39 467.04,-243.39 467.04,-243.39"/>
<polygon fill="black" stroke="black" points="467.04,-246.89 477.04,-243.39 467.04,-239.89 467.04,-246.89"/>
</g>
<!-- UrlModule -->
<g id="node10" class="node">
<title>UrlModule</title>
<polygon fill="#8dd3c7" stroke="black" points="102.21,-196.39 99.21,-200.39 78.21,-200.39 75.21,-196.39 23.79,-196.39 23.79,-160.39 102.21,-160.39 102.21,-196.39"/>
<text text-anchor="middle" x="63" y="-174.19" font-family="Times,serif" font-size="14.00">UrlModule</text>
</g>
<!-- UrlModule&#45;&gt;PermissionDetailsModule -->
<g id="edge9" class="edge">
<title>UrlModule&#45;&gt;PermissionDetailsModule</title>
<path fill="none" stroke="black" d="M63,-196.68C63,-218.6 63,-252.39 63,-252.39 63,-252.39 467.09,-252.39 467.09,-252.39"/>
<polygon fill="black" stroke="black" points="467.09,-255.89 477.09,-252.39 467.09,-248.89 467.09,-255.89"/>
</g>
</g>
</svg>
