<?xml version="1.0" encoding="UTF-8" standalone="no"?>
<!DOCTYPE svg PUBLIC "-//W3C//DTD SVG 1.1//EN"
 "http://www.w3.org/Graphics/SVG/1.1/DTD/svg11.dtd">
<!-- Generated by graphviz version 5.0.0 (20220707.1540)
 -->
<!-- Title: dependencies Pages: 1 -->
<svg width="496pt" height="174pt"
 viewBox="0.00 0.00 496.00 173.80" xmlns="http://www.w3.org/2000/svg" xmlns:xlink="http://www.w3.org/1999/xlink">
<g id="graph0" class="graph" transform="scale(1 1) rotate(0) translate(4 169.8)">
<title>dependencies</title>
<polygon fill="white" stroke="transparent" points="-4,4 -4,-169.8 492,-169.8 492,4 -4,4"/>
<text text-anchor="middle" x="244" y="-8.2" font-family="sans-serif" font-size="14.00">dependencies</text>
<g id="clust1" class="cluster">
<title>cluster_DpCheckoutModule</title>
<polygon fill="none" stroke="black" stroke-dasharray="1,5" points="8,-32.8 8,-157.8 480,-157.8 480,-32.8 8,-32.8"/>
</g>
<g id="clust3" class="cluster">
<title>cluster_DpCheckoutModule_imports</title>
<polygon fill="none" stroke="black" points="286,-40.8 286,-92.8 472,-92.8 472,-40.8 286,-40.8"/>
</g>
<g id="clust6" class="cluster">
<title>cluster_DpCheckoutModule_providers</title>
<polygon fill="none" stroke="black" points="16,-40.8 16,-92.8 278,-92.8 278,-40.8 16,-40.8"/>
</g>
<!-- DpPaymentMethodModule -->
<g id="node1" class="node">
<title>DpPaymentMethodModule</title>
<polygon fill="#8dd3c7" stroke="black" points="463.71,-84.8 460.71,-88.8 439.71,-88.8 436.71,-84.8 294.29,-84.8 294.29,-48.8 463.71,-48.8 463.71,-84.8"/>
<text text-anchor="middle" x="379" y="-62.6" font-family="Times,serif" font-size="14.00">DpPaymentMethodModule</text>
</g>
<!-- DpCheckoutModule -->
<g id="node2" class="node">
<title>DpCheckoutModule</title>
<polygon fill="#8dd3c7" stroke="black" points="328.32,-149.8 325.32,-153.8 304.32,-153.8 301.32,-149.8 197.68,-149.8 197.68,-113.8 328.32,-113.8 328.32,-149.8"/>
<text text-anchor="middle" x="263" y="-127.6" font-family="Times,serif" font-size="14.00">DpCheckoutModule</text>
</g>
<!-- DpPaymentMethodModule&#45;&gt;DpCheckoutModule -->
<g id="edge1" class="edge">
<title>DpPaymentMethodModule&#45;&gt;DpCheckoutModule</title>
<path fill="none" stroke="black" d="M311.28,-84.91C311.28,-84.91 311.28,-103.79 311.28,-103.79"/>
<polygon fill="black" stroke="black" points="307.78,-103.79 311.28,-113.79 314.78,-103.79 307.78,-103.79"/>
</g>
<!-- DpCheckoutPaymentService -->
<g id="node3" class="node">
<title>DpCheckoutPaymentService</title>
<ellipse fill="#fdb462" stroke="black" cx="147" cy="-66.8" rx="122.7" ry="18"/>
<text text-anchor="middle" x="147" y="-62.6" font-family="Times,serif" font-size="14.00">DpCheckoutPaymentService</text>
</g>
<!-- DpCheckoutPaymentService&#45;&gt;DpCheckoutModule -->
<g id="edge2" class="edge">
<title>DpCheckoutPaymentService&#45;&gt;DpCheckoutModule</title>
<path fill="none" stroke="black" d="M233.72,-79.64C233.72,-79.64 233.72,-103.32 233.72,-103.32"/>
<polygon fill="black" stroke="black" points="230.22,-103.32 233.72,-113.32 237.22,-103.32 230.22,-103.32"/>
</g>
</g>
</svg>
