<?xml version="1.0" encoding="UTF-8" standalone="no"?>
<!DOCTYPE svg PUBLIC "-//W3C//DTD SVG 1.1//EN"
 "http://www.w3.org/Graphics/SVG/1.1/DTD/svg11.dtd">
<!-- Generated by graphviz version 5.0.0 (20220707.1540)
 -->
<!-- Title: dependencies Pages: 1 -->
<svg width="416pt" height="247pt"
 viewBox="0.00 0.00 416.00 246.80" xmlns="http://www.w3.org/2000/svg" xmlns:xlink="http://www.w3.org/1999/xlink">
<g id="graph0" class="graph" transform="scale(1 1) rotate(0) translate(4 242.8)">
<title>dependencies</title>
<polygon fill="white" stroke="transparent" points="-4,4 -4,-242.8 412,-242.8 412,4 -4,4"/>
<text text-anchor="middle" x="204" y="-8.2" font-family="sans-serif" font-size="14.00">dependencies</text>
<g id="clust1" class="cluster">
<title>cluster_DisableInfoModule</title>
<polygon fill="none" stroke="black" stroke-dasharray="1,5" points="8,-32.8 8,-230.8 400,-230.8 400,-32.8 8,-32.8"/>
</g>
<g id="clust4" class="cluster">
<title>cluster_DisableInfoModule_imports</title>
<polygon fill="none" stroke="black" points="188,-40.8 188,-92.8 392,-92.8 392,-40.8 188,-40.8"/>
</g>
<g id="clust2" class="cluster">
<title>cluster_DisableInfoModule_declarations</title>
<polygon fill="none" stroke="black" points="16,-40.8 16,-92.8 180,-92.8 180,-40.8 16,-40.8"/>
</g>
<g id="clust5" class="cluster">
<title>cluster_DisableInfoModule_exports</title>
<polygon fill="none" stroke="black" points="155,-170.8 155,-222.8 321,-222.8 321,-170.8 155,-170.8"/>
</g>
<!-- DisableInfoComponent -->
<g id="node1" class="node">
<title>DisableInfoComponent</title>
<polygon fill="#ffffb3" stroke="black" points="171.92,-84.8 24.08,-84.8 24.08,-48.8 171.92,-48.8 171.92,-84.8"/>
<text text-anchor="middle" x="98" y="-62.6" font-family="Times,serif" font-size="14.00">DisableInfoComponent</text>
</g>
<!-- DisableInfoModule -->
<g id="node2" class="node">
<title>DisableInfoModule</title>
<polygon fill="#8dd3c7" stroke="black" points="300.64,-149.8 297.64,-153.8 276.64,-153.8 273.64,-149.8 175.36,-149.8 175.36,-113.8 300.64,-113.8 300.64,-149.8"/>
<text text-anchor="middle" x="238" y="-127.6" font-family="Times,serif" font-size="14.00">DisableInfoModule</text>
</g>
<!-- DisableInfoComponent&#45;&gt;DisableInfoModule -->
<g id="edge1" class="edge">
<title>DisableInfoComponent&#45;&gt;DisableInfoModule</title>
<path fill="none" stroke="black" d="M167.12,-84.91C167.12,-104.14 167.12,-131.8 167.12,-131.8 167.12,-131.8 167.94,-131.8 167.94,-131.8"/>
<polygon fill="black" stroke="black" points="165.26,-135.3 175.26,-131.8 165.26,-128.3 165.26,-135.3"/>
</g>
<!-- DisableInfoComponent  -->
<g id="node5" class="node">
<title>DisableInfoComponent </title>
<polygon fill="#fb8072" stroke="black" points="313.42,-214.8 162.58,-214.8 162.58,-178.8 313.42,-178.8 313.42,-214.8"/>
<text text-anchor="middle" x="238" y="-192.6" font-family="Times,serif" font-size="14.00">DisableInfoComponent </text>
</g>
<!-- DisableInfoModule&#45;&gt;DisableInfoComponent  -->
<g id="edge4" class="edge">
<title>DisableInfoModule&#45;&gt;DisableInfoComponent </title>
<path fill="none" stroke="black" stroke-dasharray="5,2" d="M238,-149.91C238,-149.91 238,-168.79 238,-168.79"/>
<polygon fill="black" stroke="black" points="234.5,-168.79 238,-178.79 241.5,-168.79 234.5,-168.79"/>
</g>
<!-- I18nModule -->
<g id="node3" class="node">
<title>I18nModule</title>
<polygon fill="#8dd3c7" stroke="black" points="383.71,-84.8 380.71,-88.8 359.71,-88.8 356.71,-84.8 298.29,-84.8 298.29,-48.8 383.71,-48.8 383.71,-84.8"/>
<text text-anchor="middle" x="341" y="-62.6" font-family="Times,serif" font-size="14.00">I18nModule</text>
</g>
<!-- I18nModule&#45;&gt;DisableInfoModule -->
<g id="edge2" class="edge">
<title>I18nModule&#45;&gt;DisableInfoModule</title>
<path fill="none" stroke="black" d="M307.14,-84.91C307.14,-104.14 307.14,-131.8 307.14,-131.8 307.14,-131.8 306.5,-131.8 306.5,-131.8"/>
<polygon fill="black" stroke="black" points="310.76,-128.3 300.76,-131.8 310.76,-135.3 310.76,-128.3"/>
</g>
<!-- IconModule -->
<g id="node4" class="node">
<title>IconModule</title>
<polygon fill="#8dd3c7" stroke="black" points="280.43,-84.8 277.43,-88.8 256.43,-88.8 253.43,-84.8 195.57,-84.8 195.57,-48.8 280.43,-48.8 280.43,-84.8"/>
<text text-anchor="middle" x="238" y="-62.6" font-family="Times,serif" font-size="14.00">IconModule</text>
</g>
<!-- IconModule&#45;&gt;DisableInfoModule -->
<g id="edge3" class="edge">
<title>IconModule&#45;&gt;DisableInfoModule</title>
<path fill="none" stroke="black" d="M238,-84.91C238,-84.91 238,-103.79 238,-103.79"/>
<polygon fill="black" stroke="black" points="234.5,-103.79 238,-113.79 241.5,-103.79 234.5,-103.79"/>
</g>
</g>
</svg>
