<?xml version="1.0" encoding="UTF-8" standalone="no"?>
<!DOCTYPE svg PUBLIC "-//W3C//DTD SVG 1.1//EN"
 "http://www.w3.org/Graphics/SVG/1.1/DTD/svg11.dtd">
<!-- Generated by graphviz version 5.0.0 (20220707.1540)
 -->
<!-- Title: dependencies Pages: 1 -->
<svg width="1702pt" height="174pt"
 viewBox="0.00 0.00 1702.00 173.80" xmlns="http://www.w3.org/2000/svg" xmlns:xlink="http://www.w3.org/1999/xlink">
<g id="graph0" class="graph" transform="scale(1 1) rotate(0) translate(4 169.8)">
<title>dependencies</title>
<polygon fill="white" stroke="transparent" points="-4,4 -4,-169.8 1698,-169.8 1698,4 -4,4"/>
<text text-anchor="middle" x="847" y="-8.2" font-family="sans-serif" font-size="14.00">dependencies</text>
<g id="clust1" class="cluster">
<title>cluster_OrderComponentsModule</title>
<polygon fill="none" stroke="black" stroke-dasharray="1,5" points="8,-32.8 8,-157.8 1686,-157.8 1686,-32.8 8,-32.8"/>
</g>
<g id="clust3" class="cluster">
<title>cluster_OrderComponentsModule_imports</title>
<polygon fill="none" stroke="black" points="16,-40.8 16,-92.8 1678,-92.8 1678,-40.8 16,-40.8"/>
</g>
<!-- OrderCancellationModule -->
<g id="node1" class="node">
<title>OrderCancellationModule</title>
<polygon fill="#8dd3c7" stroke="black" points="1670.45,-84.8 1667.45,-88.8 1646.45,-88.8 1643.45,-84.8 1507.55,-84.8 1507.55,-48.8 1670.45,-48.8 1670.45,-84.8"/>
<text text-anchor="middle" x="1589" y="-62.6" font-family="Times,serif" font-size="14.00">OrderCancellationModule</text>
</g>
<!-- OrderComponentsModule -->
<g id="node10" class="node">
<title>OrderComponentsModule</title>
<polygon fill="#8dd3c7" stroke="black" points="1018.48,-149.8 1015.48,-153.8 994.48,-153.8 991.48,-149.8 855.52,-149.8 855.52,-113.8 1018.48,-113.8 1018.48,-149.8"/>
<text text-anchor="middle" x="937" y="-127.6" font-family="Times,serif" font-size="14.00">OrderComponentsModule</text>
</g>
<!-- OrderCancellationModule&#45;&gt;OrderComponentsModule -->
<g id="edge1" class="edge">
<title>OrderCancellationModule&#45;&gt;OrderComponentsModule</title>
<path fill="none" stroke="black" d="M1589,-85.09C1589,-107.01 1589,-140.8 1589,-140.8 1589,-140.8 1028.59,-140.8 1028.59,-140.8"/>
<polygon fill="black" stroke="black" points="1028.59,-137.3 1018.59,-140.8 1028.59,-144.3 1028.59,-137.3"/>
</g>
<!-- OrderConfirmationModule -->
<g id="node2" class="node">
<title>OrderConfirmationModule</title>
<polygon fill="#8dd3c7" stroke="black" points="1489.64,-84.8 1486.64,-88.8 1465.64,-88.8 1462.64,-84.8 1322.36,-84.8 1322.36,-48.8 1489.64,-48.8 1489.64,-84.8"/>
<text text-anchor="middle" x="1406" y="-62.6" font-family="Times,serif" font-size="14.00">OrderConfirmationModule</text>
</g>
<!-- OrderConfirmationModule&#45;&gt;OrderComponentsModule -->
<g id="edge2" class="edge">
<title>OrderConfirmationModule&#45;&gt;OrderComponentsModule</title>
<path fill="none" stroke="black" d="M1406,-84.91C1406,-104.14 1406,-131.8 1406,-131.8 1406,-131.8 1028.69,-131.8 1028.69,-131.8"/>
<polygon fill="black" stroke="black" points="1028.69,-128.3 1018.69,-131.8 1028.69,-135.3 1028.69,-128.3"/>
</g>
<!-- OrderDetailsModule -->
<g id="node3" class="node">
<title>OrderDetailsModule</title>
<polygon fill="#8dd3c7" stroke="black" points="1303.86,-84.8 1300.86,-88.8 1279.86,-88.8 1276.86,-84.8 1172.14,-84.8 1172.14,-48.8 1303.86,-48.8 1303.86,-84.8"/>
<text text-anchor="middle" x="1238" y="-62.6" font-family="Times,serif" font-size="14.00">OrderDetailsModule</text>
</g>
<!-- OrderDetailsModule&#45;&gt;OrderComponentsModule -->
<g id="edge3" class="edge">
<title>OrderDetailsModule&#45;&gt;OrderComponentsModule</title>
<path fill="none" stroke="black" d="M1238,-84.83C1238,-101.2 1238,-122.8 1238,-122.8 1238,-122.8 1028.85,-122.8 1028.85,-122.8"/>
<polygon fill="black" stroke="black" points="1028.85,-119.3 1018.85,-122.8 1028.85,-126.3 1028.85,-119.3"/>
</g>
<!-- OrderHistoryModule -->
<g id="node4" class="node">
<title>OrderHistoryModule</title>
<polygon fill="#8dd3c7" stroke="black" points="1154.2,-84.8 1151.2,-88.8 1130.2,-88.8 1127.2,-84.8 1019.8,-84.8 1019.8,-48.8 1154.2,-48.8 1154.2,-84.8"/>
<text text-anchor="middle" x="1087" y="-62.6" font-family="Times,serif" font-size="14.00">OrderHistoryModule</text>
</g>
<!-- OrderHistoryModule&#45;&gt;OrderComponentsModule -->
<g id="edge4" class="edge">
<title>OrderHistoryModule&#45;&gt;OrderComponentsModule</title>
<path fill="none" stroke="black" d="M1019.72,-66.8C1013.99,-66.8 1010.32,-66.8 1010.32,-66.8 1010.32,-66.8 1010.32,-103.69 1010.32,-103.69"/>
<polygon fill="black" stroke="black" points="1006.82,-103.69 1010.32,-113.69 1013.82,-103.69 1006.82,-103.69"/>
</g>
<!-- OrderReturnModule -->
<g id="node5" class="node">
<title>OrderReturnModule</title>
<polygon fill="#8dd3c7" stroke="black" points="1002.3,-84.8 999.3,-88.8 978.3,-88.8 975.3,-84.8 871.7,-84.8 871.7,-48.8 1002.3,-48.8 1002.3,-84.8"/>
<text text-anchor="middle" x="937" y="-62.6" font-family="Times,serif" font-size="14.00">OrderReturnModule</text>
</g>
<!-- OrderReturnModule&#45;&gt;OrderComponentsModule -->
<g id="edge5" class="edge">
<title>OrderReturnModule&#45;&gt;OrderComponentsModule</title>
<path fill="none" stroke="black" d="M937,-84.91C937,-84.91 937,-103.79 937,-103.79"/>
<polygon fill="black" stroke="black" points="933.5,-103.79 937,-113.79 940.5,-103.79 933.5,-103.79"/>
</g>
<!-- ReplenishmentOrderDetailsModule -->
<g id="node6" class="node">
<title>ReplenishmentOrderDetailsModule</title>
<polygon fill="#8dd3c7" stroke="black" points="853.84,-84.8 850.84,-88.8 829.84,-88.8 826.84,-84.8 638.16,-84.8 638.16,-48.8 853.84,-48.8 853.84,-84.8"/>
<text text-anchor="middle" x="746" y="-62.6" font-family="Times,serif" font-size="14.00">ReplenishmentOrderDetailsModule</text>
</g>
<!-- ReplenishmentOrderDetailsModule&#45;&gt;OrderComponentsModule -->
<g id="edge6" class="edge">
<title>ReplenishmentOrderDetailsModule&#45;&gt;OrderComponentsModule</title>
<path fill="none" stroke="black" d="M854.05,-66.8C860.04,-66.8 863.68,-66.8 863.68,-66.8 863.68,-66.8 863.68,-103.69 863.68,-103.69"/>
<polygon fill="black" stroke="black" points="860.18,-103.69 863.68,-113.69 867.18,-103.69 860.18,-103.69"/>
</g>
<!-- ReplenishmentOrderHistoryModule -->
<g id="node7" class="node">
<title>ReplenishmentOrderHistoryModule</title>
<polygon fill="#8dd3c7" stroke="black" points="620.19,-84.8 617.19,-88.8 596.19,-88.8 593.19,-84.8 401.81,-84.8 401.81,-48.8 620.19,-48.8 620.19,-84.8"/>
<text text-anchor="middle" x="511" y="-62.6" font-family="Times,serif" font-size="14.00">ReplenishmentOrderHistoryModule</text>
</g>
<!-- ReplenishmentOrderHistoryModule&#45;&gt;OrderComponentsModule -->
<g id="edge7" class="edge">
<title>ReplenishmentOrderHistoryModule&#45;&gt;OrderComponentsModule</title>
<path fill="none" stroke="black" d="M511,-84.83C511,-101.2 511,-122.8 511,-122.8 511,-122.8 845.37,-122.8 845.37,-122.8"/>
<polygon fill="black" stroke="black" points="845.37,-126.3 855.37,-122.8 845.37,-119.3 845.37,-126.3"/>
</g>
<!-- ReturnRequestDetailModule -->
<g id="node8" class="node">
<title>ReturnRequestDetailModule</title>
<polygon fill="#8dd3c7" stroke="black" points="383.47,-84.8 380.47,-88.8 359.47,-88.8 356.47,-84.8 206.53,-84.8 206.53,-48.8 383.47,-48.8 383.47,-84.8"/>
<text text-anchor="middle" x="295" y="-62.6" font-family="Times,serif" font-size="14.00">ReturnRequestDetailModule</text>
</g>
<!-- ReturnRequestDetailModule&#45;&gt;OrderComponentsModule -->
<g id="edge8" class="edge">
<title>ReturnRequestDetailModule&#45;&gt;OrderComponentsModule</title>
<path fill="none" stroke="black" d="M295,-84.91C295,-104.14 295,-131.8 295,-131.8 295,-131.8 845.36,-131.8 845.36,-131.8"/>
<polygon fill="black" stroke="black" points="845.36,-135.3 855.36,-131.8 845.36,-128.3 845.36,-135.3"/>
</g>
<!-- ReturnRequestListModule -->
<g id="node9" class="node">
<title>ReturnRequestListModule</title>
<polygon fill="#8dd3c7" stroke="black" points="188.04,-84.8 185.04,-88.8 164.04,-88.8 161.04,-84.8 23.96,-84.8 23.96,-48.8 188.04,-48.8 188.04,-84.8"/>
<text text-anchor="middle" x="106" y="-62.6" font-family="Times,serif" font-size="14.00">ReturnRequestListModule</text>
</g>
<!-- ReturnRequestListModule&#45;&gt;OrderComponentsModule -->
<g id="edge9" class="edge">
<title>ReturnRequestListModule&#45;&gt;OrderComponentsModule</title>
<path fill="none" stroke="black" d="M106,-85.09C106,-107.01 106,-140.8 106,-140.8 106,-140.8 845.43,-140.8 845.43,-140.8"/>
<polygon fill="black" stroke="black" points="845.43,-144.3 855.43,-140.8 845.43,-137.3 845.43,-144.3"/>
</g>
</g>
</svg>
