<?xml version="1.0" encoding="UTF-8" standalone="no"?>
<!DOCTYPE svg PUBLIC "-//W3C//DTD SVG 1.1//EN"
 "http://www.w3.org/Graphics/SVG/1.1/DTD/svg11.dtd">
<!-- Generated by graphviz version 5.0.0 (20220707.1540)
 -->
<!-- Title: dependencies Pages: 1 -->
<svg width="264pt" height="174pt"
 viewBox="0.00 0.00 264.00 173.80" xmlns="http://www.w3.org/2000/svg" xmlns:xlink="http://www.w3.org/1999/xlink">
<g id="graph0" class="graph" transform="scale(1 1) rotate(0) translate(4 169.8)">
<title>dependencies</title>
<polygon fill="white" stroke="transparent" points="-4,4 -4,-169.8 260,-169.8 260,4 -4,4"/>
<text text-anchor="middle" x="128" y="-8.2" font-family="sans-serif" font-size="14.00">dependencies</text>
<g id="clust1" class="cluster">
<title>cluster_AnonymousConsentsModule</title>
<polygon fill="none" stroke="black" stroke-dasharray="1,5" points="8,-32.8 8,-157.8 248,-157.8 248,-32.8 8,-32.8"/>
</g>
<g id="clust3" class="cluster">
<title>cluster_AnonymousConsentsModule_imports</title>
<polygon fill="none" stroke="black" points="16,-40.8 16,-92.8 240,-92.8 240,-40.8 16,-40.8"/>
</g>
<!-- AnonymousConsentsStoreModule -->
<g id="node1" class="node">
<title>AnonymousConsentsStoreModule</title>
<polygon fill="#8dd3c7" stroke="black" points="232.39,-84.8 229.39,-88.8 208.39,-88.8 205.39,-84.8 23.61,-84.8 23.61,-48.8 232.39,-48.8 232.39,-84.8"/>
<text text-anchor="middle" x="128" y="-62.6" font-family="Times,serif" font-size="14.00">AnonymousConsentsStoreModule</text>
</g>
<!-- AnonymousConsentsModule -->
<g id="node2" class="node">
<title>AnonymousConsentsModule</title>
<polygon fill="#8dd3c7" stroke="black" points="217.84,-149.8 214.84,-153.8 193.84,-153.8 190.84,-149.8 38.16,-149.8 38.16,-113.8 217.84,-113.8 217.84,-149.8"/>
<text text-anchor="middle" x="128" y="-127.6" font-family="Times,serif" font-size="14.00">AnonymousConsentsModule</text>
</g>
<!-- AnonymousConsentsStoreModule&#45;&gt;AnonymousConsentsModule -->
<g id="edge1" class="edge">
<title>AnonymousConsentsStoreModule&#45;&gt;AnonymousConsentsModule</title>
<path fill="none" stroke="black" d="M128,-84.91C128,-84.91 128,-103.79 128,-103.79"/>
<polygon fill="black" stroke="black" points="124.5,-103.79 128,-113.79 131.5,-103.79 124.5,-103.79"/>
</g>
</g>
</svg>
