<?xml version="1.0" encoding="UTF-8" standalone="no"?>
<!DOCTYPE svg PUBLIC "-//W3C//DTD SVG 1.1//EN"
 "http://www.w3.org/Graphics/SVG/1.1/DTD/svg11.dtd">
<!-- Generated by graphviz version 5.0.0 (20220707.1540)
 -->
<!-- Title: dependencies Pages: 1 -->
<svg width="967pt" height="247pt"
 viewBox="0.00 0.00 967.00 246.80" xmlns="http://www.w3.org/2000/svg" xmlns:xlink="http://www.w3.org/1999/xlink">
<g id="graph0" class="graph" transform="scale(1 1) rotate(0) translate(4 242.8)">
<title>dependencies</title>
<polygon fill="white" stroke="transparent" points="-4,4 -4,-242.8 963,-242.8 963,4 -4,4"/>
<text text-anchor="middle" x="479.5" y="-8.2" font-family="sans-serif" font-size="14.00">dependencies</text>
<g id="clust1" class="cluster">
<title>cluster_StockNotificationModule</title>
<polygon fill="none" stroke="black" stroke-dasharray="1,5" points="8,-32.8 8,-230.8 951,-230.8 951,-32.8 8,-32.8"/>
</g>
<g id="clust2" class="cluster">
<title>cluster_StockNotificationModule_declarations</title>
<polygon fill="none" stroke="black" points="510,-40.8 510,-92.8 943,-92.8 943,-40.8 510,-40.8"/>
</g>
<g id="clust6" class="cluster">
<title>cluster_StockNotificationModule_exports</title>
<polygon fill="none" stroke="black" points="154,-170.8 154,-222.8 594,-222.8 594,-170.8 154,-170.8"/>
</g>
<g id="clust5" class="cluster">
<title>cluster_StockNotificationModule_imports</title>
<polygon fill="none" stroke="black" points="16,-40.8 16,-92.8 502,-92.8 502,-40.8 16,-40.8"/>
</g>
<!-- StockNotificationComponent -->
<g id="node1" class="node">
<title>StockNotificationComponent</title>
<polygon fill="#ffffb3" stroke="black" points="935.37,-84.8 754.63,-84.8 754.63,-48.8 935.37,-48.8 935.37,-84.8"/>
<text text-anchor="middle" x="845" y="-62.6" font-family="Times,serif" font-size="14.00">StockNotificationComponent</text>
</g>
<!-- StockNotificationModule -->
<g id="node3" class="node">
<title>StockNotificationModule</title>
<polygon fill="#8dd3c7" stroke="black" points="462.59,-149.8 459.59,-153.8 438.59,-153.8 435.59,-149.8 303.41,-149.8 303.41,-113.8 462.59,-113.8 462.59,-149.8"/>
<text text-anchor="middle" x="383" y="-127.6" font-family="Times,serif" font-size="14.00">StockNotificationModule</text>
</g>
<!-- StockNotificationComponent&#45;&gt;StockNotificationModule -->
<g id="edge1" class="edge">
<title>StockNotificationComponent&#45;&gt;StockNotificationModule</title>
<path fill="none" stroke="black" d="M845,-85.08C845,-106.12 845,-137.8 845,-137.8 845,-137.8 472.68,-137.8 472.68,-137.8"/>
<polygon fill="black" stroke="black" points="472.68,-134.3 462.68,-137.8 472.68,-141.3 472.68,-134.3"/>
</g>
<!-- StockNotificationDialogComponent -->
<g id="node2" class="node">
<title>StockNotificationDialogComponent</title>
<polygon fill="#ffffb3" stroke="black" points="736.47,-84.8 517.53,-84.8 517.53,-48.8 736.47,-48.8 736.47,-84.8"/>
<text text-anchor="middle" x="627" y="-62.6" font-family="Times,serif" font-size="14.00">StockNotificationDialogComponent</text>
</g>
<!-- StockNotificationDialogComponent&#45;&gt;StockNotificationModule -->
<g id="edge2" class="edge">
<title>StockNotificationDialogComponent&#45;&gt;StockNotificationModule</title>
<path fill="none" stroke="black" d="M551.85,-84.82C551.85,-102.17 551.85,-125.8 551.85,-125.8 551.85,-125.8 472.97,-125.8 472.97,-125.8"/>
<polygon fill="black" stroke="black" points="472.97,-122.3 462.97,-125.8 472.97,-129.3 472.97,-122.3"/>
</g>
<!-- StockNotificationComponent  -->
<g id="node8" class="node">
<title>StockNotificationComponent </title>
<polygon fill="#fb8072" stroke="black" points="586.37,-214.8 401.63,-214.8 401.63,-178.8 586.37,-178.8 586.37,-214.8"/>
<text text-anchor="middle" x="494" y="-192.6" font-family="Times,serif" font-size="14.00">StockNotificationComponent </text>
</g>
<!-- StockNotificationModule&#45;&gt;StockNotificationComponent  -->
<g id="edge7" class="edge">
<title>StockNotificationModule&#45;&gt;StockNotificationComponent </title>
<path fill="none" stroke="black" stroke-dasharray="5,2" d="M432.18,-149.91C432.18,-149.91 432.18,-168.79 432.18,-168.79"/>
<polygon fill="black" stroke="black" points="428.68,-168.79 432.18,-178.79 435.68,-168.79 428.68,-168.79"/>
</g>
<!-- StockNotificationDialogComponent  -->
<g id="node9" class="node">
<title>StockNotificationDialogComponent </title>
<polygon fill="#fb8072" stroke="black" points="384.47,-214.8 161.53,-214.8 161.53,-178.8 384.47,-178.8 384.47,-214.8"/>
<text text-anchor="middle" x="273" y="-192.6" font-family="Times,serif" font-size="14.00">StockNotificationDialogComponent </text>
</g>
<!-- StockNotificationModule&#45;&gt;StockNotificationDialogComponent  -->
<g id="edge8" class="edge">
<title>StockNotificationModule&#45;&gt;StockNotificationDialogComponent </title>
<path fill="none" stroke="black" stroke-dasharray="5,2" d="M343.85,-149.91C343.85,-149.91 343.85,-168.79 343.85,-168.79"/>
<polygon fill="black" stroke="black" points="340.35,-168.79 343.85,-178.79 347.35,-168.79 340.35,-168.79"/>
</g>
<!-- I18nModule -->
<g id="node4" class="node">
<title>I18nModule</title>
<polygon fill="#8dd3c7" stroke="black" points="493.71,-84.8 490.71,-88.8 469.71,-88.8 466.71,-84.8 408.29,-84.8 408.29,-48.8 493.71,-48.8 493.71,-84.8"/>
<text text-anchor="middle" x="451" y="-62.6" font-family="Times,serif" font-size="14.00">I18nModule</text>
</g>
<!-- I18nModule&#45;&gt;StockNotificationModule -->
<g id="edge3" class="edge">
<title>I18nModule&#45;&gt;StockNotificationModule</title>
<path fill="none" stroke="black" d="M435.47,-84.91C435.47,-84.91 435.47,-103.79 435.47,-103.79"/>
<polygon fill="black" stroke="black" points="431.97,-103.79 435.47,-113.79 438.97,-103.79 431.97,-103.79"/>
</g>
<!-- KeyboardFocusModule -->
<g id="node5" class="node">
<title>KeyboardFocusModule</title>
<polygon fill="#8dd3c7" stroke="black" points="390.2,-84.8 387.2,-88.8 366.2,-88.8 363.2,-84.8 241.8,-84.8 241.8,-48.8 390.2,-48.8 390.2,-84.8"/>
<text text-anchor="middle" x="316" y="-62.6" font-family="Times,serif" font-size="14.00">KeyboardFocusModule</text>
</g>
<!-- KeyboardFocusModule&#45;&gt;StockNotificationModule -->
<g id="edge4" class="edge">
<title>KeyboardFocusModule&#45;&gt;StockNotificationModule</title>
<path fill="none" stroke="black" d="M346.78,-84.91C346.78,-84.91 346.78,-103.79 346.78,-103.79"/>
<polygon fill="black" stroke="black" points="343.28,-103.79 346.78,-113.79 350.28,-103.79 343.28,-103.79"/>
</g>
<!-- SpinnerModule -->
<g id="node6" class="node">
<title>SpinnerModule</title>
<polygon fill="#8dd3c7" stroke="black" points="223.6,-84.8 220.6,-88.8 199.6,-88.8 196.6,-84.8 120.4,-84.8 120.4,-48.8 223.6,-48.8 223.6,-84.8"/>
<text text-anchor="middle" x="172" y="-62.6" font-family="Times,serif" font-size="14.00">SpinnerModule</text>
</g>
<!-- SpinnerModule&#45;&gt;StockNotificationModule -->
<g id="edge5" class="edge">
<title>SpinnerModule&#45;&gt;StockNotificationModule</title>
<path fill="none" stroke="black" d="M192.66,-84.82C192.66,-102.17 192.66,-125.8 192.66,-125.8 192.66,-125.8 293.38,-125.8 293.38,-125.8"/>
<polygon fill="black" stroke="black" points="293.38,-129.3 303.38,-125.8 293.38,-122.3 293.38,-129.3"/>
</g>
<!-- UrlModule -->
<g id="node7" class="node">
<title>UrlModule</title>
<polygon fill="#8dd3c7" stroke="black" points="102.21,-84.8 99.21,-88.8 78.21,-88.8 75.21,-84.8 23.79,-84.8 23.79,-48.8 102.21,-48.8 102.21,-84.8"/>
<text text-anchor="middle" x="63" y="-62.6" font-family="Times,serif" font-size="14.00">UrlModule</text>
</g>
<!-- UrlModule&#45;&gt;StockNotificationModule -->
<g id="edge6" class="edge">
<title>UrlModule&#45;&gt;StockNotificationModule</title>
<path fill="none" stroke="black" d="M63,-85.08C63,-106.12 63,-137.8 63,-137.8 63,-137.8 293.08,-137.8 293.08,-137.8"/>
<polygon fill="black" stroke="black" points="293.08,-141.3 303.08,-137.8 293.08,-134.3 293.08,-141.3"/>
</g>
</g>
</svg>
