<?xml version="1.0" encoding="UTF-8" standalone="no"?>
<!DOCTYPE svg PUBLIC "-//W3C//DTD SVG 1.1//EN"
 "http://www.w3.org/Graphics/SVG/1.1/DTD/svg11.dtd">
<!-- Generated by graphviz version 5.0.0 (20220707.1540)
 -->
<!-- Title: dependencies Pages: 1 -->
<svg width="1185pt" height="174pt"
 viewBox="0.00 0.00 1185.00 173.80" xmlns="http://www.w3.org/2000/svg" xmlns:xlink="http://www.w3.org/1999/xlink">
<g id="graph0" class="graph" transform="scale(1 1) rotate(0) translate(4 169.8)">
<title>dependencies</title>
<polygon fill="white" stroke="transparent" points="-4,4 -4,-169.8 1181,-169.8 1181,4 -4,4"/>
<text text-anchor="middle" x="588.5" y="-8.2" font-family="sans-serif" font-size="14.00">dependencies</text>
<g id="clust1" class="cluster">
<title>cluster_UserComponentsModule</title>
<polygon fill="none" stroke="black" stroke-dasharray="1,5" points="8,-32.8 8,-157.8 1169,-157.8 1169,-32.8 8,-32.8"/>
</g>
<g id="clust3" class="cluster">
<title>cluster_UserComponentsModule_imports</title>
<polygon fill="none" stroke="black" points="16,-40.8 16,-92.8 1161,-92.8 1161,-40.8 16,-40.8"/>
</g>
<!-- ListModule -->
<g id="node1" class="node">
<title>ListModule</title>
<polygon fill="#8dd3c7" stroke="black" points="1152.83,-84.8 1149.83,-88.8 1128.83,-88.8 1125.83,-84.8 1071.17,-84.8 1071.17,-48.8 1152.83,-48.8 1152.83,-84.8"/>
<text text-anchor="middle" x="1112" y="-62.6" font-family="Times,serif" font-size="14.00">ListModule</text>
</g>
<!-- UserComponentsModule -->
<g id="node8" class="node">
<title>UserComponentsModule</title>
<polygon fill="#8dd3c7" stroke="black" points="659.27,-149.8 656.27,-153.8 635.27,-153.8 632.27,-149.8 502.73,-149.8 502.73,-113.8 659.27,-113.8 659.27,-149.8"/>
<text text-anchor="middle" x="581" y="-127.6" font-family="Times,serif" font-size="14.00">UserComponentsModule</text>
</g>
<!-- ListModule&#45;&gt;UserComponentsModule -->
<g id="edge1" class="edge">
<title>ListModule&#45;&gt;UserComponentsModule</title>
<path fill="none" stroke="black" d="M1112,-85.08C1112,-106.12 1112,-137.8 1112,-137.8 1112,-137.8 669.35,-137.8 669.35,-137.8"/>
<polygon fill="black" stroke="black" points="669.35,-134.3 659.35,-137.8 669.35,-141.3 669.35,-134.3"/>
</g>
<!-- UserApproverListModule -->
<g id="node2" class="node">
<title>UserApproverListModule</title>
<polygon fill="#8dd3c7" stroke="black" points="1053.91,-84.8 1050.91,-88.8 1029.91,-88.8 1026.91,-84.8 892.09,-84.8 892.09,-48.8 1053.91,-48.8 1053.91,-84.8"/>
<text text-anchor="middle" x="973" y="-62.6" font-family="Times,serif" font-size="14.00">UserApproverListModule</text>
</g>
<!-- UserApproverListModule&#45;&gt;UserComponentsModule -->
<g id="edge2" class="edge">
<title>UserApproverListModule&#45;&gt;UserComponentsModule</title>
<path fill="none" stroke="black" d="M973,-84.82C973,-102.17 973,-125.8 973,-125.8 973,-125.8 669.38,-125.8 669.38,-125.8"/>
<polygon fill="black" stroke="black" points="669.38,-122.3 659.38,-125.8 669.38,-129.3 669.38,-122.3"/>
</g>
<!-- UserChangePasswordFormModule -->
<g id="node3" class="node">
<title>UserChangePasswordFormModule</title>
<polygon fill="#8dd3c7" stroke="black" points="874.26,-84.8 871.26,-88.8 850.26,-88.8 847.26,-84.8 661.74,-84.8 661.74,-48.8 874.26,-48.8 874.26,-84.8"/>
<text text-anchor="middle" x="768" y="-62.6" font-family="Times,serif" font-size="14.00">UserChangePasswordFormModule</text>
</g>
<!-- UserChangePasswordFormModule&#45;&gt;UserComponentsModule -->
<g id="edge3" class="edge">
<title>UserChangePasswordFormModule&#45;&gt;UserComponentsModule</title>
<path fill="none" stroke="black" d="M661.53,-66.8C655.36,-66.8 651.6,-66.8 651.6,-66.8 651.6,-66.8 651.6,-103.69 651.6,-103.69"/>
<polygon fill="black" stroke="black" points="648.1,-103.69 651.6,-113.69 655.1,-103.69 648.1,-103.69"/>
</g>
<!-- UserDetailsModule -->
<g id="node4" class="node">
<title>UserDetailsModule</title>
<polygon fill="#8dd3c7" stroke="black" points="643.64,-84.8 640.64,-88.8 619.64,-88.8 616.64,-84.8 518.36,-84.8 518.36,-48.8 643.64,-48.8 643.64,-84.8"/>
<text text-anchor="middle" x="581" y="-62.6" font-family="Times,serif" font-size="14.00">UserDetailsModule</text>
</g>
<!-- UserDetailsModule&#45;&gt;UserComponentsModule -->
<g id="edge4" class="edge">
<title>UserDetailsModule&#45;&gt;UserComponentsModule</title>
<path fill="none" stroke="black" d="M581,-84.91C581,-84.91 581,-103.79 581,-103.79"/>
<polygon fill="black" stroke="black" points="577.5,-103.79 581,-113.79 584.5,-103.79 577.5,-103.79"/>
</g>
<!-- UserFormModule -->
<g id="node5" class="node">
<title>UserFormModule</title>
<polygon fill="#8dd3c7" stroke="black" points="500.32,-84.8 497.32,-88.8 476.32,-88.8 473.32,-84.8 383.68,-84.8 383.68,-48.8 500.32,-48.8 500.32,-84.8"/>
<text text-anchor="middle" x="442" y="-62.6" font-family="Times,serif" font-size="14.00">UserFormModule</text>
</g>
<!-- UserFormModule&#45;&gt;UserComponentsModule -->
<g id="edge5" class="edge">
<title>UserFormModule&#45;&gt;UserComponentsModule</title>
<path fill="none" stroke="black" d="M500.31,-66.8C506.39,-66.8 510.4,-66.8 510.4,-66.8 510.4,-66.8 510.4,-103.69 510.4,-103.69"/>
<polygon fill="black" stroke="black" points="506.9,-103.69 510.4,-113.69 513.9,-103.69 506.9,-103.69"/>
</g>
<!-- UserPermissionListModule -->
<g id="node6" class="node">
<title>UserPermissionListModule</title>
<polygon fill="#8dd3c7" stroke="black" points="365.99,-84.8 362.99,-88.8 341.99,-88.8 338.99,-84.8 196.01,-84.8 196.01,-48.8 365.99,-48.8 365.99,-84.8"/>
<text text-anchor="middle" x="281" y="-62.6" font-family="Times,serif" font-size="14.00">UserPermissionListModule</text>
</g>
<!-- UserPermissionListModule&#45;&gt;UserComponentsModule -->
<g id="edge6" class="edge">
<title>UserPermissionListModule&#45;&gt;UserComponentsModule</title>
<path fill="none" stroke="black" d="M281,-84.82C281,-102.17 281,-125.8 281,-125.8 281,-125.8 492.57,-125.8 492.57,-125.8"/>
<polygon fill="black" stroke="black" points="492.57,-129.3 502.57,-125.8 492.57,-122.3 492.57,-129.3"/>
</g>
<!-- UserUserGroupsModule -->
<g id="node7" class="node">
<title>UserUserGroupsModule</title>
<polygon fill="#8dd3c7" stroke="black" points="177.64,-84.8 174.64,-88.8 153.64,-88.8 150.64,-84.8 24.36,-84.8 24.36,-48.8 177.64,-48.8 177.64,-84.8"/>
<text text-anchor="middle" x="101" y="-62.6" font-family="Times,serif" font-size="14.00">UserUserGroupsModule</text>
</g>
<!-- UserUserGroupsModule&#45;&gt;UserComponentsModule -->
<g id="edge7" class="edge">
<title>UserUserGroupsModule&#45;&gt;UserComponentsModule</title>
<path fill="none" stroke="black" d="M101,-85.08C101,-106.12 101,-137.8 101,-137.8 101,-137.8 492.54,-137.8 492.54,-137.8"/>
<polygon fill="black" stroke="black" points="492.54,-141.3 502.54,-137.8 492.54,-134.3 492.54,-141.3"/>
</g>
</g>
</svg>
