<?xml version="1.0" encoding="UTF-8" standalone="no"?>
<!DOCTYPE svg PUBLIC "-//W3C//DTD SVG 1.1//EN"
 "http://www.w3.org/Graphics/SVG/1.1/DTD/svg11.dtd">
<!-- Generated by graphviz version 5.0.0 (20220707.1540)
 -->
<!-- Title: dependencies Pages: 1 -->
<svg width="420pt" height="247pt"
 viewBox="0.00 0.00 420.00 246.80" xmlns="http://www.w3.org/2000/svg" xmlns:xlink="http://www.w3.org/1999/xlink">
<g id="graph0" class="graph" transform="scale(1 1) rotate(0) translate(4 242.8)">
<title>dependencies</title>
<polygon fill="white" stroke="transparent" points="-4,4 -4,-242.8 416,-242.8 416,4 -4,4"/>
<text text-anchor="middle" x="206" y="-8.2" font-family="sans-serif" font-size="14.00">dependencies</text>
<g id="clust1" class="cluster">
<title>cluster_ScrollToTopModule</title>
<polygon fill="none" stroke="black" stroke-dasharray="1,5" points="8,-32.8 8,-230.8 404,-230.8 404,-32.8 8,-32.8"/>
</g>
<g id="clust5" class="cluster">
<title>cluster_ScrollToTopModule_exports</title>
<polygon fill="none" stroke="black" points="83,-170.8 83,-222.8 255,-222.8 255,-170.8 83,-170.8"/>
</g>
<g id="clust2" class="cluster">
<title>cluster_ScrollToTopModule_declarations</title>
<polygon fill="none" stroke="black" points="228,-40.8 228,-92.8 396,-92.8 396,-40.8 228,-40.8"/>
</g>
<g id="clust4" class="cluster">
<title>cluster_ScrollToTopModule_imports</title>
<polygon fill="none" stroke="black" points="16,-40.8 16,-92.8 220,-92.8 220,-40.8 16,-40.8"/>
</g>
<!-- ScrollToTopComponent -->
<g id="node1" class="node">
<title>ScrollToTopComponent</title>
<polygon fill="#ffffb3" stroke="black" points="388.38,-84.8 235.62,-84.8 235.62,-48.8 388.38,-48.8 388.38,-84.8"/>
<text text-anchor="middle" x="312" y="-62.6" font-family="Times,serif" font-size="14.00">ScrollToTopComponent</text>
</g>
<!-- ScrollToTopModule -->
<g id="node2" class="node">
<title>ScrollToTopModule</title>
<polygon fill="#8dd3c7" stroke="black" points="234.6,-149.8 231.6,-153.8 210.6,-153.8 207.6,-149.8 103.4,-149.8 103.4,-113.8 234.6,-113.8 234.6,-149.8"/>
<text text-anchor="middle" x="169" y="-127.6" font-family="Times,serif" font-size="14.00">ScrollToTopModule</text>
</g>
<!-- ScrollToTopComponent&#45;&gt;ScrollToTopModule -->
<g id="edge1" class="edge">
<title>ScrollToTopComponent&#45;&gt;ScrollToTopModule</title>
<path fill="none" stroke="black" d="M241.38,-84.91C241.38,-104.14 241.38,-131.8 241.38,-131.8 241.38,-131.8 240.71,-131.8 240.71,-131.8"/>
<polygon fill="black" stroke="black" points="244.7,-128.3 234.7,-131.8 244.7,-135.3 244.7,-128.3"/>
</g>
<!-- ScrollToTopComponent  -->
<g id="node5" class="node">
<title>ScrollToTopComponent </title>
<polygon fill="#fb8072" stroke="black" points="247.38,-214.8 90.62,-214.8 90.62,-178.8 247.38,-178.8 247.38,-214.8"/>
<text text-anchor="middle" x="169" y="-192.6" font-family="Times,serif" font-size="14.00">ScrollToTopComponent </text>
</g>
<!-- ScrollToTopModule&#45;&gt;ScrollToTopComponent  -->
<g id="edge4" class="edge">
<title>ScrollToTopModule&#45;&gt;ScrollToTopComponent </title>
<path fill="none" stroke="black" stroke-dasharray="5,2" d="M169,-149.91C169,-149.91 169,-168.79 169,-168.79"/>
<polygon fill="black" stroke="black" points="165.5,-168.79 169,-178.79 172.5,-168.79 165.5,-168.79"/>
</g>
<!-- I18nModule -->
<g id="node3" class="node">
<title>I18nModule</title>
<polygon fill="#8dd3c7" stroke="black" points="211.71,-84.8 208.71,-88.8 187.71,-88.8 184.71,-84.8 126.29,-84.8 126.29,-48.8 211.71,-48.8 211.71,-84.8"/>
<text text-anchor="middle" x="169" y="-62.6" font-family="Times,serif" font-size="14.00">I18nModule</text>
</g>
<!-- I18nModule&#45;&gt;ScrollToTopModule -->
<g id="edge2" class="edge">
<title>I18nModule&#45;&gt;ScrollToTopModule</title>
<path fill="none" stroke="black" d="M169,-84.91C169,-84.91 169,-103.79 169,-103.79"/>
<polygon fill="black" stroke="black" points="165.5,-103.79 169,-113.79 172.5,-103.79 165.5,-103.79"/>
</g>
<!-- IconModule -->
<g id="node4" class="node">
<title>IconModule</title>
<polygon fill="#8dd3c7" stroke="black" points="108.43,-84.8 105.43,-88.8 84.43,-88.8 81.43,-84.8 23.57,-84.8 23.57,-48.8 108.43,-48.8 108.43,-84.8"/>
<text text-anchor="middle" x="66" y="-62.6" font-family="Times,serif" font-size="14.00">IconModule</text>
</g>
<!-- IconModule&#45;&gt;ScrollToTopModule -->
<g id="edge3" class="edge">
<title>IconModule&#45;&gt;ScrollToTopModule</title>
<path fill="none" stroke="black" d="M97.13,-84.91C97.13,-104.14 97.13,-131.8 97.13,-131.8 97.13,-131.8 97.74,-131.8 97.74,-131.8"/>
<polygon fill="black" stroke="black" points="93.26,-135.3 103.26,-131.8 93.26,-128.3 93.26,-135.3"/>
</g>
</g>
</svg>
