<?xml version="1.0" encoding="UTF-8" standalone="no"?>
<!DOCTYPE svg PUBLIC "-//W3C//DTD SVG 1.1//EN"
 "http://www.w3.org/Graphics/SVG/1.1/DTD/svg11.dtd">
<!-- Generated by graphviz version 5.0.0 (20220707.1540)
 -->
<!-- Title: dependencies Pages: 1 -->
<svg width="608pt" height="174pt"
 viewBox="0.00 0.00 608.00 173.80" xmlns="http://www.w3.org/2000/svg" xmlns:xlink="http://www.w3.org/1999/xlink">
<g id="graph0" class="graph" transform="scale(1 1) rotate(0) translate(4 169.8)">
<title>dependencies</title>
<polygon fill="white" stroke="transparent" points="-4,4 -4,-169.8 604,-169.8 604,4 -4,4"/>
<text text-anchor="middle" x="300" y="-8.2" font-family="sans-serif" font-size="14.00">dependencies</text>
<g id="clust1" class="cluster">
<title>cluster_AccountSummaryModule</title>
<polygon fill="none" stroke="black" stroke-dasharray="1,5" points="8,-32.8 8,-157.8 592,-157.8 592,-32.8 8,-32.8"/>
</g>
<g id="clust3" class="cluster">
<title>cluster_AccountSummaryModule_imports</title>
<polygon fill="none" stroke="black" points="16,-40.8 16,-92.8 584,-92.8 584,-40.8 16,-40.8"/>
</g>
<!-- AccountSummaryCoreModule -->
<g id="node1" class="node">
<title>AccountSummaryCoreModule</title>
<polygon fill="#8dd3c7" stroke="black" points="576.14,-84.8 573.14,-88.8 552.14,-88.8 549.14,-84.8 387.86,-84.8 387.86,-48.8 576.14,-48.8 576.14,-84.8"/>
<text text-anchor="middle" x="482" y="-62.6" font-family="Times,serif" font-size="14.00">AccountSummaryCoreModule</text>
</g>
<!-- AccountSummaryModule -->
<g id="node4" class="node">
<title>AccountSummaryModule</title>
<polygon fill="#8dd3c7" stroke="black" points="358.92,-149.8 355.92,-153.8 334.92,-153.8 331.92,-149.8 197.08,-149.8 197.08,-113.8 358.92,-113.8 358.92,-149.8"/>
<text text-anchor="middle" x="278" y="-127.6" font-family="Times,serif" font-size="14.00">AccountSummaryModule</text>
</g>
<!-- AccountSummaryCoreModule&#45;&gt;AccountSummaryModule -->
<g id="edge1" class="edge">
<title>AccountSummaryCoreModule&#45;&gt;AccountSummaryModule</title>
<path fill="none" stroke="black" d="M482,-84.91C482,-104.14 482,-131.8 482,-131.8 482,-131.8 368.92,-131.8 368.92,-131.8"/>
<polygon fill="black" stroke="black" points="368.92,-128.3 358.92,-131.8 368.92,-135.3 368.92,-128.3"/>
</g>
<!-- AccountSummaryOccModule -->
<g id="node2" class="node">
<title>AccountSummaryOccModule</title>
<polygon fill="#8dd3c7" stroke="black" points="369.96,-84.8 366.96,-88.8 345.96,-88.8 342.96,-84.8 186.04,-84.8 186.04,-48.8 369.96,-48.8 369.96,-84.8"/>
<text text-anchor="middle" x="278" y="-62.6" font-family="Times,serif" font-size="14.00">AccountSummaryOccModule</text>
</g>
<!-- AccountSummaryOccModule&#45;&gt;AccountSummaryModule -->
<g id="edge2" class="edge">
<title>AccountSummaryOccModule&#45;&gt;AccountSummaryModule</title>
<path fill="none" stroke="black" d="M278,-84.91C278,-84.91 278,-103.79 278,-103.79"/>
<polygon fill="black" stroke="black" points="274.5,-103.79 278,-113.79 281.5,-103.79 274.5,-103.79"/>
</g>
<!-- AdministrationModule -->
<g id="node3" class="node">
<title>AdministrationModule</title>
<polygon fill="#8dd3c7" stroke="black" points="168.32,-84.8 165.32,-88.8 144.32,-88.8 141.32,-84.8 23.68,-84.8 23.68,-48.8 168.32,-48.8 168.32,-84.8"/>
<text text-anchor="middle" x="96" y="-62.6" font-family="Times,serif" font-size="14.00">AdministrationModule</text>
</g>
<!-- AdministrationModule&#45;&gt;AccountSummaryModule -->
<g id="edge3" class="edge">
<title>AdministrationModule&#45;&gt;AccountSummaryModule</title>
<path fill="none" stroke="black" d="M96,-84.91C96,-104.14 96,-131.8 96,-131.8 96,-131.8 187.11,-131.8 187.11,-131.8"/>
<polygon fill="black" stroke="black" points="187.11,-135.3 197.11,-131.8 187.11,-128.3 187.11,-135.3"/>
</g>
</g>
</svg>
