<?xml version="1.0" encoding="UTF-8" standalone="no"?>
<!DOCTYPE svg PUBLIC "-//W3C//DTD SVG 1.1//EN"
 "http://www.w3.org/Graphics/SVG/1.1/DTD/svg11.dtd">
<!-- Generated by graphviz version 5.0.0 (20220707.1540)
 -->
<!-- Title: dependencies Pages: 1 -->
<svg width="693pt" height="174pt"
 viewBox="0.00 0.00 693.00 173.80" xmlns="http://www.w3.org/2000/svg" xmlns:xlink="http://www.w3.org/1999/xlink">
<g id="graph0" class="graph" transform="scale(1 1) rotate(0) translate(4 169.8)">
<title>dependencies</title>
<polygon fill="white" stroke="transparent" points="-4,4 -4,-169.8 689,-169.8 689,4 -4,4"/>
<text text-anchor="middle" x="342.5" y="-8.2" font-family="sans-serif" font-size="14.00">dependencies</text>
<g id="clust1" class="cluster">
<title>cluster_UserProfileCoreModule</title>
<polygon fill="none" stroke="black" stroke-dasharray="1,5" points="8,-32.8 8,-157.8 677,-157.8 677,-32.8 8,-32.8"/>
</g>
<g id="clust6" class="cluster">
<title>cluster_UserProfileCoreModule_providers</title>
<polygon fill="none" stroke="black" points="16,-40.8 16,-92.8 669,-92.8 669,-40.8 16,-40.8"/>
</g>
<!-- AsmBindCartService -->
<g id="node1" class="node">
<title>AsmBindCartService</title>
<ellipse fill="#fdb462" stroke="black" cx="567" cy="-66.8" rx="93.79" ry="18"/>
<text text-anchor="middle" x="567" y="-62.6" font-family="Times,serif" font-size="14.00">AsmBindCartService</text>
</g>
<!-- UserProfileCoreModule -->
<g id="node4" class="node">
<title>UserProfileCoreModule</title>
<polygon fill="#8dd3c7" stroke="black" points="420.8,-149.8 417.8,-153.8 396.8,-153.8 393.8,-149.8 269.2,-149.8 269.2,-113.8 420.8,-113.8 420.8,-149.8"/>
<text text-anchor="middle" x="345" y="-127.6" font-family="Times,serif" font-size="14.00">UserProfileCoreModule</text>
</g>
<!-- AsmBindCartService&#45;&gt;UserProfileCoreModule -->
<g id="edge1" class="edge">
<title>AsmBindCartService&#45;&gt;UserProfileCoreModule</title>
<path fill="none" stroke="black" d="M567,-84.91C567,-104.14 567,-131.8 567,-131.8 567,-131.8 430.78,-131.8 430.78,-131.8"/>
<polygon fill="black" stroke="black" points="430.78,-128.3 420.78,-131.8 430.78,-135.3 430.78,-128.3"/>
</g>
<!-- AsmCustomerListService -->
<g id="node2" class="node">
<title>AsmCustomerListService</title>
<ellipse fill="#fdb462" stroke="black" cx="345" cy="-66.8" rx="110.63" ry="18"/>
<text text-anchor="middle" x="345" y="-62.6" font-family="Times,serif" font-size="14.00">AsmCustomerListService</text>
</g>
<!-- AsmCustomerListService&#45;&gt;UserProfileCoreModule -->
<g id="edge2" class="edge">
<title>AsmCustomerListService&#45;&gt;UserProfileCoreModule</title>
<path fill="none" stroke="black" d="M345,-84.91C345,-84.91 345,-103.79 345,-103.79"/>
<polygon fill="black" stroke="black" points="341.5,-103.79 345,-113.79 348.5,-103.79 341.5,-103.79"/>
</g>
<!-- UserProfileConnector -->
<g id="node3" class="node">
<title>UserProfileConnector</title>
<ellipse fill="#fdb462" stroke="black" cx="120" cy="-66.8" rx="95.56" ry="18"/>
<text text-anchor="middle" x="120" y="-62.6" font-family="Times,serif" font-size="14.00">UserProfileConnector</text>
</g>
<!-- UserProfileConnector&#45;&gt;UserProfileCoreModule -->
<g id="edge3" class="edge">
<title>UserProfileConnector&#45;&gt;UserProfileCoreModule</title>
<path fill="none" stroke="black" d="M120,-84.91C120,-104.14 120,-131.8 120,-131.8 120,-131.8 259.14,-131.8 259.14,-131.8"/>
<polygon fill="black" stroke="black" points="259.14,-135.3 269.14,-131.8 259.14,-128.3 259.14,-135.3"/>
</g>
</g>
</svg>
