<?xml version="1.0" encoding="UTF-8" standalone="no"?>
<!DOCTYPE svg PUBLIC "-//W3C//DTD SVG 1.1//EN"
 "http://www.w3.org/Graphics/SVG/1.1/DTD/svg11.dtd">
<!-- Generated by graphviz version 5.0.0 (20220707.1540)
 -->
<!-- Title: dependencies Pages: 1 -->
<svg width="632pt" height="247pt"
 viewBox="0.00 0.00 632.00 246.80" xmlns="http://www.w3.org/2000/svg" xmlns:xlink="http://www.w3.org/1999/xlink">
<g id="graph0" class="graph" transform="scale(1 1) rotate(0) translate(4 242.8)">
<title>dependencies</title>
<polygon fill="white" stroke="transparent" points="-4,4 -4,-242.8 628,-242.8 628,4 -4,4"/>
<text text-anchor="middle" x="312" y="-8.2" font-family="sans-serif" font-size="14.00">dependencies</text>
<g id="clust1" class="cluster">
<title>cluster_PwaModule</title>
<polygon fill="none" stroke="black" stroke-dasharray="1,5" points="8,-32.8 8,-230.8 616,-230.8 616,-32.8 8,-32.8"/>
</g>
<g id="clust6" class="cluster">
<title>cluster_PwaModule_exports</title>
<polygon fill="none" stroke="black" points="68,-170.8 68,-222.8 557,-222.8 557,-170.8 68,-170.8"/>
</g>
<g id="clust5" class="cluster">
<title>cluster_PwaModule_imports</title>
<polygon fill="none" stroke="black" points="506,-40.8 506,-92.8 608,-92.8 608,-40.8 506,-40.8"/>
</g>
<g id="clust2" class="cluster">
<title>cluster_PwaModule_declarations</title>
<polygon fill="none" stroke="black" points="16,-40.8 16,-92.8 498,-92.8 498,-40.8 16,-40.8"/>
</g>
<!-- AddToHomeScreenBannerComponent -->
<g id="node1" class="node">
<title>AddToHomeScreenBannerComponent</title>
<polygon fill="#ffffb3" stroke="black" points="489.72,-84.8 256.28,-84.8 256.28,-48.8 489.72,-48.8 489.72,-84.8"/>
<text text-anchor="middle" x="373" y="-62.6" font-family="Times,serif" font-size="14.00">AddToHomeScreenBannerComponent</text>
</g>
<!-- PwaModule -->
<g id="node3" class="node">
<title>PwaModule</title>
<polygon fill="#8dd3c7" stroke="black" points="414.66,-149.8 411.66,-153.8 390.66,-153.8 387.66,-149.8 331.34,-149.8 331.34,-113.8 414.66,-113.8 414.66,-149.8"/>
<text text-anchor="middle" x="373" y="-127.6" font-family="Times,serif" font-size="14.00">PwaModule</text>
</g>
<!-- AddToHomeScreenBannerComponent&#45;&gt;PwaModule -->
<g id="edge1" class="edge">
<title>AddToHomeScreenBannerComponent&#45;&gt;PwaModule</title>
<path fill="none" stroke="black" d="M373,-84.91C373,-84.91 373,-103.79 373,-103.79"/>
<polygon fill="black" stroke="black" points="369.5,-103.79 373,-113.79 376.5,-103.79 369.5,-103.79"/>
</g>
<!-- AddToHomeScreenBtnComponent -->
<g id="node2" class="node">
<title>AddToHomeScreenBtnComponent</title>
<polygon fill="#ffffb3" stroke="black" points="237.52,-84.8 24.48,-84.8 24.48,-48.8 237.52,-48.8 237.52,-84.8"/>
<text text-anchor="middle" x="131" y="-62.6" font-family="Times,serif" font-size="14.00">AddToHomeScreenBtnComponent</text>
</g>
<!-- AddToHomeScreenBtnComponent&#45;&gt;PwaModule -->
<g id="edge2" class="edge">
<title>AddToHomeScreenBtnComponent&#45;&gt;PwaModule</title>
<path fill="none" stroke="black" d="M157.12,-84.82C157.12,-102.17 157.12,-125.8 157.12,-125.8 157.12,-125.8 321.12,-125.8 321.12,-125.8"/>
<polygon fill="black" stroke="black" points="321.12,-129.3 331.12,-125.8 321.12,-122.3 321.12,-129.3"/>
</g>
<!-- AddToHomeScreenBannerComponent  -->
<g id="node5" class="node">
<title>AddToHomeScreenBannerComponent </title>
<polygon fill="#fb8072" stroke="black" points="548.72,-214.8 311.28,-214.8 311.28,-178.8 548.72,-178.8 548.72,-214.8"/>
<text text-anchor="middle" x="430" y="-192.6" font-family="Times,serif" font-size="14.00">AddToHomeScreenBannerComponent </text>
</g>
<!-- PwaModule&#45;&gt;AddToHomeScreenBannerComponent  -->
<g id="edge4" class="edge">
<title>PwaModule&#45;&gt;AddToHomeScreenBannerComponent </title>
<path fill="none" stroke="black" stroke-dasharray="5,2" d="M373,-149.91C373,-149.91 373,-168.79 373,-168.79"/>
<polygon fill="black" stroke="black" points="369.5,-168.79 373,-178.79 376.5,-168.79 369.5,-168.79"/>
</g>
<!-- AddToHomeScreenBtnComponent  -->
<g id="node6" class="node">
<title>AddToHomeScreenBtnComponent </title>
<polygon fill="#fb8072" stroke="black" points="293.52,-214.8 76.48,-214.8 76.48,-178.8 293.52,-178.8 293.52,-214.8"/>
<text text-anchor="middle" x="185" y="-192.6" font-family="Times,serif" font-size="14.00">AddToHomeScreenBtnComponent </text>
</g>
<!-- PwaModule&#45;&gt;AddToHomeScreenBtnComponent  -->
<g id="edge5" class="edge">
<title>PwaModule&#45;&gt;AddToHomeScreenBtnComponent </title>
<path fill="none" stroke="black" stroke-dasharray="5,2" d="M331.08,-137.8C304.4,-137.8 274.82,-137.8 274.82,-137.8 274.82,-137.8 274.82,-168.78 274.82,-168.78"/>
<polygon fill="black" stroke="black" points="271.33,-168.78 274.82,-178.78 278.33,-168.78 271.33,-168.78"/>
</g>
<!-- I18nModule -->
<g id="node4" class="node">
<title>I18nModule</title>
<polygon fill="#8dd3c7" stroke="black" points="599.71,-84.8 596.71,-88.8 575.71,-88.8 572.71,-84.8 514.29,-84.8 514.29,-48.8 599.71,-48.8 599.71,-84.8"/>
<text text-anchor="middle" x="557" y="-62.6" font-family="Times,serif" font-size="14.00">I18nModule</text>
</g>
<!-- I18nModule&#45;&gt;PwaModule -->
<g id="edge3" class="edge">
<title>I18nModule&#45;&gt;PwaModule</title>
<path fill="none" stroke="black" d="M531.5,-84.91C531.5,-104.14 531.5,-131.8 531.5,-131.8 531.5,-131.8 425.06,-131.8 425.06,-131.8"/>
<polygon fill="black" stroke="black" points="425.06,-128.3 415.06,-131.8 425.06,-135.3 425.06,-128.3"/>
</g>
</g>
</svg>
