<?xml version="1.0" encoding="UTF-8" standalone="no"?>
<!DOCTYPE svg PUBLIC "-//W3C//DTD SVG 1.1//EN"
 "http://www.w3.org/Graphics/SVG/1.1/DTD/svg11.dtd">
<!-- Generated by graphviz version 5.0.0 (20220707.1540)
 -->
<!-- Title: dependencies Pages: 1 -->
<svg width="503pt" height="247pt"
 viewBox="0.00 0.00 503.00 246.80" xmlns="http://www.w3.org/2000/svg" xmlns:xlink="http://www.w3.org/1999/xlink">
<g id="graph0" class="graph" transform="scale(1 1) rotate(0) translate(4 242.8)">
<title>dependencies</title>
<polygon fill="white" stroke="transparent" points="-4,4 -4,-242.8 499,-242.8 499,4 -4,4"/>
<text text-anchor="middle" x="247.5" y="-8.2" font-family="sans-serif" font-size="14.00">dependencies</text>
<g id="clust1" class="cluster">
<title>cluster_CheckoutDeliveryModeModule</title>
<polygon fill="none" stroke="black" stroke-dasharray="1,5" points="8,-32.8 8,-230.8 487,-230.8 487,-32.8 8,-32.8"/>
</g>
<g id="clust5" class="cluster">
<title>cluster_CheckoutDeliveryModeModule_exports</title>
<polygon fill="none" stroke="black" points="70,-170.8 70,-222.8 306,-222.8 306,-170.8 70,-170.8"/>
</g>
<g id="clust2" class="cluster">
<title>cluster_CheckoutDeliveryModeModule_declarations</title>
<polygon fill="none" stroke="black" points="247,-40.8 247,-92.8 479,-92.8 479,-40.8 247,-40.8"/>
</g>
<g id="clust4" class="cluster">
<title>cluster_CheckoutDeliveryModeModule_imports</title>
<polygon fill="none" stroke="black" points="16,-40.8 16,-92.8 239,-92.8 239,-40.8 16,-40.8"/>
</g>
<!-- CheckoutDeliveryModeComponent -->
<g id="node1" class="node">
<title>CheckoutDeliveryModeComponent</title>
<polygon fill="#ffffb3" stroke="black" points="471.13,-84.8 254.87,-84.8 254.87,-48.8 471.13,-48.8 471.13,-84.8"/>
<text text-anchor="middle" x="363" y="-62.6" font-family="Times,serif" font-size="14.00">CheckoutDeliveryModeComponent</text>
</g>
<!-- CheckoutDeliveryModeModule -->
<g id="node2" class="node">
<title>CheckoutDeliveryModeModule</title>
<polygon fill="#8dd3c7" stroke="black" points="285.35,-149.8 282.35,-153.8 261.35,-153.8 258.35,-149.8 90.65,-149.8 90.65,-113.8 285.35,-113.8 285.35,-149.8"/>
<text text-anchor="middle" x="188" y="-127.6" font-family="Times,serif" font-size="14.00">CheckoutDeliveryModeModule</text>
</g>
<!-- CheckoutDeliveryModeComponent&#45;&gt;CheckoutDeliveryModeModule -->
<g id="edge1" class="edge">
<title>CheckoutDeliveryModeComponent&#45;&gt;CheckoutDeliveryModeModule</title>
<path fill="none" stroke="black" d="M270.06,-84.91C270.06,-84.91 270.06,-103.79 270.06,-103.79"/>
<polygon fill="black" stroke="black" points="266.56,-103.79 270.06,-113.79 273.56,-103.79 266.56,-103.79"/>
</g>
<!-- CheckoutDeliveryModeComponent  -->
<g id="node5" class="node">
<title>CheckoutDeliveryModeComponent </title>
<polygon fill="#fb8072" stroke="black" points="298.13,-214.8 77.87,-214.8 77.87,-178.8 298.13,-178.8 298.13,-214.8"/>
<text text-anchor="middle" x="188" y="-192.6" font-family="Times,serif" font-size="14.00">CheckoutDeliveryModeComponent </text>
</g>
<!-- CheckoutDeliveryModeModule&#45;&gt;CheckoutDeliveryModeComponent  -->
<g id="edge4" class="edge">
<title>CheckoutDeliveryModeModule&#45;&gt;CheckoutDeliveryModeComponent </title>
<path fill="none" stroke="black" stroke-dasharray="5,2" d="M188,-149.91C188,-149.91 188,-168.79 188,-168.79"/>
<polygon fill="black" stroke="black" points="184.5,-168.79 188,-178.79 191.5,-168.79 184.5,-168.79"/>
</g>
<!-- I18nModule -->
<g id="node3" class="node">
<title>I18nModule</title>
<polygon fill="#8dd3c7" stroke="black" points="230.71,-84.8 227.71,-88.8 206.71,-88.8 203.71,-84.8 145.29,-84.8 145.29,-48.8 230.71,-48.8 230.71,-84.8"/>
<text text-anchor="middle" x="188" y="-62.6" font-family="Times,serif" font-size="14.00">I18nModule</text>
</g>
<!-- I18nModule&#45;&gt;CheckoutDeliveryModeModule -->
<g id="edge2" class="edge">
<title>I18nModule&#45;&gt;CheckoutDeliveryModeModule</title>
<path fill="none" stroke="black" d="M188,-84.91C188,-84.91 188,-103.79 188,-103.79"/>
<polygon fill="black" stroke="black" points="184.5,-103.79 188,-113.79 191.5,-103.79 184.5,-103.79"/>
</g>
<!-- SpinnerModule -->
<g id="node4" class="node">
<title>SpinnerModule</title>
<polygon fill="#8dd3c7" stroke="black" points="127.6,-84.8 124.6,-88.8 103.6,-88.8 100.6,-84.8 24.4,-84.8 24.4,-48.8 127.6,-48.8 127.6,-84.8"/>
<text text-anchor="middle" x="76" y="-62.6" font-family="Times,serif" font-size="14.00">SpinnerModule</text>
</g>
<!-- SpinnerModule&#45;&gt;CheckoutDeliveryModeModule -->
<g id="edge3" class="edge">
<title>SpinnerModule&#45;&gt;CheckoutDeliveryModeModule</title>
<path fill="none" stroke="black" d="M109.06,-84.91C109.06,-84.91 109.06,-103.79 109.06,-103.79"/>
<polygon fill="black" stroke="black" points="105.56,-103.79 109.06,-113.79 112.56,-103.79 105.56,-103.79"/>
</g>
</g>
</svg>
