<?xml version="1.0" encoding="UTF-8" standalone="no"?>
<!DOCTYPE svg PUBLIC "-//W3C//DTD SVG 1.1//EN"
 "http://www.w3.org/Graphics/SVG/1.1/DTD/svg11.dtd">
<!-- Generated by graphviz version 5.0.0 (20220707.1540)
 -->
<!-- Title: dependencies Pages: 1 -->
<svg width="698pt" height="174pt"
 viewBox="0.00 0.00 698.00 173.80" xmlns="http://www.w3.org/2000/svg" xmlns:xlink="http://www.w3.org/1999/xlink">
<g id="graph0" class="graph" transform="scale(1 1) rotate(0) translate(4 169.8)">
<title>dependencies</title>
<polygon fill="white" stroke="transparent" points="-4,4 -4,-169.8 694,-169.8 694,4 -4,4"/>
<text text-anchor="middle" x="345" y="-8.2" font-family="sans-serif" font-size="14.00">dependencies</text>
<g id="clust1" class="cluster">
<title>cluster_AccountSummaryComponentsModule</title>
<polygon fill="none" stroke="black" stroke-dasharray="1,5" points="8,-32.8 8,-157.8 682,-157.8 682,-32.8 8,-32.8"/>
</g>
<g id="clust3" class="cluster">
<title>cluster_AccountSummaryComponentsModule_imports</title>
<polygon fill="none" stroke="black" points="16,-40.8 16,-92.8 674,-92.8 674,-40.8 16,-40.8"/>
</g>
<!-- AccountSummaryDocumentModule -->
<g id="node1" class="node">
<title>AccountSummaryDocumentModule</title>
<polygon fill="#8dd3c7" stroke="black" points="665.74,-84.8 662.74,-88.8 641.74,-88.8 638.74,-84.8 446.26,-84.8 446.26,-48.8 665.74,-48.8 665.74,-84.8"/>
<text text-anchor="middle" x="556" y="-62.6" font-family="Times,serif" font-size="14.00">AccountSummaryDocumentModule</text>
</g>
<!-- AccountSummaryComponentsModule -->
<g id="node4" class="node">
<title>AccountSummaryComponentsModule</title>
<polygon fill="#8dd3c7" stroke="black" points="443.2,-149.8 440.2,-153.8 419.2,-153.8 416.2,-149.8 210.8,-149.8 210.8,-113.8 443.2,-113.8 443.2,-149.8"/>
<text text-anchor="middle" x="327" y="-127.6" font-family="Times,serif" font-size="14.00">AccountSummaryComponentsModule</text>
</g>
<!-- AccountSummaryDocumentModule&#45;&gt;AccountSummaryComponentsModule -->
<g id="edge1" class="edge">
<title>AccountSummaryDocumentModule&#45;&gt;AccountSummaryComponentsModule</title>
<path fill="none" stroke="black" d="M446.2,-66.8C439.57,-66.8 435.51,-66.8 435.51,-66.8 435.51,-66.8 435.51,-103.69 435.51,-103.69"/>
<polygon fill="black" stroke="black" points="432.01,-103.69 435.51,-113.69 439.01,-103.69 432.01,-103.69"/>
</g>
<!-- AccountSummaryHeaderModule -->
<g id="node2" class="node">
<title>AccountSummaryHeaderModule</title>
<polygon fill="#8dd3c7" stroke="black" points="427.84,-84.8 424.84,-88.8 403.84,-88.8 400.84,-84.8 226.16,-84.8 226.16,-48.8 427.84,-48.8 427.84,-84.8"/>
<text text-anchor="middle" x="327" y="-62.6" font-family="Times,serif" font-size="14.00">AccountSummaryHeaderModule</text>
</g>
<!-- AccountSummaryHeaderModule&#45;&gt;AccountSummaryComponentsModule -->
<g id="edge2" class="edge">
<title>AccountSummaryHeaderModule&#45;&gt;AccountSummaryComponentsModule</title>
<path fill="none" stroke="black" d="M327,-84.91C327,-84.91 327,-103.79 327,-103.79"/>
<polygon fill="black" stroke="black" points="323.5,-103.79 327,-113.79 330.5,-103.79 323.5,-103.79"/>
</g>
<!-- AccountSummaryListModule -->
<g id="node3" class="node">
<title>AccountSummaryListModule</title>
<polygon fill="#8dd3c7" stroke="black" points="207.7,-84.8 204.7,-88.8 183.7,-88.8 180.7,-84.8 24.3,-84.8 24.3,-48.8 207.7,-48.8 207.7,-84.8"/>
<text text-anchor="middle" x="116" y="-62.6" font-family="Times,serif" font-size="14.00">AccountSummaryListModule</text>
</g>
<!-- AccountSummaryListModule&#45;&gt;AccountSummaryComponentsModule -->
<g id="edge3" class="edge">
<title>AccountSummaryListModule&#45;&gt;AccountSummaryComponentsModule</title>
<path fill="none" stroke="black" d="M207.91,-66.8C214.42,-66.8 218.49,-66.8 218.49,-66.8 218.49,-66.8 218.49,-103.69 218.49,-103.69"/>
<polygon fill="black" stroke="black" points="214.99,-103.69 218.49,-113.69 221.99,-103.69 214.99,-103.69"/>
</g>
</g>
</svg>
