<?xml version="1.0" encoding="UTF-8" standalone="no"?>
<!DOCTYPE svg PUBLIC "-//W3C//DTD SVG 1.1//EN"
 "http://www.w3.org/Graphics/SVG/1.1/DTD/svg11.dtd">
<!-- Generated by graphviz version 5.0.0 (20220707.1540)
 -->
<!-- Title: dependencies Pages: 1 -->
<svg width="1155pt" height="174pt"
 viewBox="0.00 0.00 1155.00 173.80" xmlns="http://www.w3.org/2000/svg" xmlns:xlink="http://www.w3.org/1999/xlink">
<g id="graph0" class="graph" transform="scale(1 1) rotate(0) translate(4 169.8)">
<title>dependencies</title>
<polygon fill="white" stroke="transparent" points="-4,4 -4,-169.8 1151,-169.8 1151,4 -4,4"/>
<text text-anchor="middle" x="573.5" y="-8.2" font-family="sans-serif" font-size="14.00">dependencies</text>
<g id="clust1" class="cluster">
<title>cluster_CommonConfiguratorComponentsModule</title>
<polygon fill="none" stroke="black" stroke-dasharray="1,5" points="8,-32.8 8,-157.8 1139,-157.8 1139,-32.8 8,-32.8"/>
</g>
<g id="clust3" class="cluster">
<title>cluster_CommonConfiguratorComponentsModule_imports</title>
<polygon fill="none" stroke="black" points="16,-40.8 16,-92.8 1131,-92.8 1131,-40.8 16,-40.8"/>
</g>
<!-- ConfiguratorCartEntryBundleInfoModule -->
<g id="node1" class="node">
<title>ConfiguratorCartEntryBundleInfoModule</title>
<polygon fill="#8dd3c7" stroke="black" points="1123.34,-84.8 1120.34,-88.8 1099.34,-88.8 1096.34,-84.8 872.66,-84.8 872.66,-48.8 1123.34,-48.8 1123.34,-84.8"/>
<text text-anchor="middle" x="998" y="-62.6" font-family="Times,serif" font-size="14.00">ConfiguratorCartEntryBundleInfoModule</text>
</g>
<!-- CommonConfiguratorComponentsModule -->
<g id="node6" class="node">
<title>CommonConfiguratorComponentsModule</title>
<polygon fill="#8dd3c7" stroke="black" points="636.27,-149.8 633.27,-153.8 612.27,-153.8 609.27,-149.8 381.73,-149.8 381.73,-113.8 636.27,-113.8 636.27,-149.8"/>
<text text-anchor="middle" x="509" y="-127.6" font-family="Times,serif" font-size="14.00">CommonConfiguratorComponentsModule</text>
</g>
<!-- ConfiguratorCartEntryBundleInfoModule&#45;&gt;CommonConfiguratorComponentsModule -->
<g id="edge1" class="edge">
<title>ConfiguratorCartEntryBundleInfoModule&#45;&gt;CommonConfiguratorComponentsModule</title>
<path fill="none" stroke="black" d="M998,-84.91C998,-104.14 998,-131.8 998,-131.8 998,-131.8 646.52,-131.8 646.52,-131.8"/>
<polygon fill="black" stroke="black" points="646.52,-128.3 636.52,-131.8 646.52,-135.3 646.52,-128.3"/>
</g>
<!-- ConfiguratorCartEntryInfoModule -->
<g id="node2" class="node">
<title>ConfiguratorCartEntryInfoModule</title>
<polygon fill="#8dd3c7" stroke="black" points="854.4,-84.8 851.4,-88.8 830.4,-88.8 827.4,-84.8 643.6,-84.8 643.6,-48.8 854.4,-48.8 854.4,-84.8"/>
<text text-anchor="middle" x="749" y="-62.6" font-family="Times,serif" font-size="14.00">ConfiguratorCartEntryInfoModule</text>
</g>
<!-- ConfiguratorCartEntryInfoModule&#45;&gt;CommonConfiguratorComponentsModule -->
<g id="edge2" class="edge">
<title>ConfiguratorCartEntryInfoModule&#45;&gt;CommonConfiguratorComponentsModule</title>
<path fill="none" stroke="black" d="M643.74,-66.8C635.99,-66.8 631.13,-66.8 631.13,-66.8 631.13,-66.8 631.13,-103.69 631.13,-103.69"/>
<polygon fill="black" stroke="black" points="627.63,-103.69 631.13,-113.69 634.63,-103.69 627.63,-103.69"/>
</g>
<!-- ConfiguratorIssuesNotificationModule -->
<g id="node3" class="node">
<title>ConfiguratorIssuesNotificationModule</title>
<polygon fill="#8dd3c7" stroke="black" points="625.74,-84.8 622.74,-88.8 601.74,-88.8 598.74,-84.8 392.26,-84.8 392.26,-48.8 625.74,-48.8 625.74,-84.8"/>
<text text-anchor="middle" x="509" y="-62.6" font-family="Times,serif" font-size="14.00">ConfiguratorIssuesNotificationModule</text>
</g>
<!-- ConfiguratorIssuesNotificationModule&#45;&gt;CommonConfiguratorComponentsModule -->
<g id="edge3" class="edge">
<title>ConfiguratorIssuesNotificationModule&#45;&gt;CommonConfiguratorComponentsModule</title>
<path fill="none" stroke="black" d="M509,-84.91C509,-84.91 509,-103.79 509,-103.79"/>
<polygon fill="black" stroke="black" points="505.5,-103.79 509,-113.79 512.5,-103.79 505.5,-103.79"/>
</g>
<!-- ConfigureCartEntryModule -->
<g id="node4" class="node">
<title>ConfigureCartEntryModule</title>
<polygon fill="#8dd3c7" stroke="black" points="373.53,-84.8 370.53,-88.8 349.53,-88.8 346.53,-84.8 202.47,-84.8 202.47,-48.8 373.53,-48.8 373.53,-84.8"/>
<text text-anchor="middle" x="288" y="-62.6" font-family="Times,serif" font-size="14.00">ConfigureCartEntryModule</text>
</g>
<!-- ConfigureCartEntryModule&#45;&gt;CommonConfiguratorComponentsModule -->
<g id="edge4" class="edge">
<title>ConfigureCartEntryModule&#45;&gt;CommonConfiguratorComponentsModule</title>
<path fill="none" stroke="black" d="M373.54,-66.8C381.62,-66.8 386.87,-66.8 386.87,-66.8 386.87,-66.8 386.87,-103.69 386.87,-103.69"/>
<polygon fill="black" stroke="black" points="383.37,-103.69 386.87,-113.69 390.37,-103.69 383.37,-103.69"/>
</g>
<!-- ConfigureProductModule -->
<g id="node5" class="node">
<title>ConfigureProductModule</title>
<polygon fill="#8dd3c7" stroke="black" points="183.87,-84.8 180.87,-88.8 159.87,-88.8 156.87,-84.8 24.13,-84.8 24.13,-48.8 183.87,-48.8 183.87,-84.8"/>
<text text-anchor="middle" x="104" y="-62.6" font-family="Times,serif" font-size="14.00">ConfigureProductModule</text>
</g>
<!-- ConfigureProductModule&#45;&gt;CommonConfiguratorComponentsModule -->
<g id="edge5" class="edge">
<title>ConfigureProductModule&#45;&gt;CommonConfiguratorComponentsModule</title>
<path fill="none" stroke="black" d="M104,-84.91C104,-104.14 104,-131.8 104,-131.8 104,-131.8 371.69,-131.8 371.69,-131.8"/>
<polygon fill="black" stroke="black" points="371.69,-135.3 381.69,-131.8 371.69,-128.3 371.69,-135.3"/>
</g>
</g>
</svg>
