<?xml version="1.0" encoding="UTF-8" standalone="no"?>
<!DOCTYPE svg PUBLIC "-//W3C//DTD SVG 1.1//EN"
 "http://www.w3.org/Graphics/SVG/1.1/DTD/svg11.dtd">
<!-- Generated by graphviz version 5.0.0 (20220707.1540)
 -->
<!-- Title: dependencies Pages: 1 -->
<svg width="633pt" height="247pt"
 viewBox="0.00 0.00 633.00 246.80" xmlns="http://www.w3.org/2000/svg" xmlns:xlink="http://www.w3.org/1999/xlink">
<g id="graph0" class="graph" transform="scale(1 1) rotate(0) translate(4 242.8)">
<title>dependencies</title>
<polygon fill="white" stroke="transparent" points="-4,4 -4,-242.8 629,-242.8 629,4 -4,4"/>
<text text-anchor="middle" x="312.5" y="-8.2" font-family="sans-serif" font-size="14.00">dependencies</text>
<g id="clust1" class="cluster">
<title>cluster_FooterNavigationModule</title>
<polygon fill="none" stroke="black" stroke-dasharray="1,5" points="8,-32.8 8,-230.8 617,-230.8 617,-32.8 8,-32.8"/>
</g>
<g id="clust5" class="cluster">
<title>cluster_FooterNavigationModule_exports</title>
<polygon fill="none" stroke="black" points="249,-170.8 249,-222.8 449,-222.8 449,-170.8 249,-170.8"/>
</g>
<g id="clust4" class="cluster">
<title>cluster_FooterNavigationModule_imports</title>
<polygon fill="none" stroke="black" points="220,-40.8 220,-92.8 609,-92.8 609,-40.8 220,-40.8"/>
</g>
<g id="clust2" class="cluster">
<title>cluster_FooterNavigationModule_declarations</title>
<polygon fill="none" stroke="black" points="16,-40.8 16,-92.8 212,-92.8 212,-40.8 16,-40.8"/>
</g>
<!-- FooterNavigationComponent -->
<g id="node1" class="node">
<title>FooterNavigationComponent</title>
<polygon fill="#ffffb3" stroke="black" points="204.09,-84.8 23.91,-84.8 23.91,-48.8 204.09,-48.8 204.09,-84.8"/>
<text text-anchor="middle" x="114" y="-62.6" font-family="Times,serif" font-size="14.00">FooterNavigationComponent</text>
</g>
<!-- FooterNavigationModule -->
<g id="node2" class="node">
<title>FooterNavigationModule</title>
<polygon fill="#8dd3c7" stroke="black" points="428.31,-149.8 425.31,-153.8 404.31,-153.8 401.31,-149.8 269.69,-149.8 269.69,-113.8 428.31,-113.8 428.31,-149.8"/>
<text text-anchor="middle" x="349" y="-127.6" font-family="Times,serif" font-size="14.00">FooterNavigationModule</text>
</g>
<!-- FooterNavigationComponent&#45;&gt;FooterNavigationModule -->
<g id="edge1" class="edge">
<title>FooterNavigationComponent&#45;&gt;FooterNavigationModule</title>
<path fill="none" stroke="black" d="M114,-84.91C114,-104.14 114,-131.8 114,-131.8 114,-131.8 259.77,-131.8 259.77,-131.8"/>
<polygon fill="black" stroke="black" points="259.77,-135.3 269.77,-131.8 259.77,-128.3 259.77,-135.3"/>
</g>
<!-- FooterNavigationComponent  -->
<g id="node6" class="node">
<title>FooterNavigationComponent </title>
<polygon fill="#fb8072" stroke="black" points="440.59,-214.8 257.41,-214.8 257.41,-178.8 440.59,-178.8 440.59,-214.8"/>
<text text-anchor="middle" x="349" y="-192.6" font-family="Times,serif" font-size="14.00">FooterNavigationComponent </text>
</g>
<!-- FooterNavigationModule&#45;&gt;FooterNavigationComponent  -->
<g id="edge5" class="edge">
<title>FooterNavigationModule&#45;&gt;FooterNavigationComponent </title>
<path fill="none" stroke="black" stroke-dasharray="5,2" d="M349,-149.91C349,-149.91 349,-168.79 349,-168.79"/>
<polygon fill="black" stroke="black" points="345.5,-168.79 349,-178.79 352.5,-168.79 345.5,-168.79"/>
</g>
<!-- GenericLinkModule -->
<g id="node3" class="node">
<title>GenericLinkModule</title>
<polygon fill="#8dd3c7" stroke="black" points="601.3,-84.8 598.3,-88.8 577.3,-88.8 574.3,-84.8 470.7,-84.8 470.7,-48.8 601.3,-48.8 601.3,-84.8"/>
<text text-anchor="middle" x="536" y="-62.6" font-family="Times,serif" font-size="14.00">GenericLinkModule</text>
</g>
<!-- GenericLinkModule&#45;&gt;FooterNavigationModule -->
<g id="edge2" class="edge">
<title>GenericLinkModule&#45;&gt;FooterNavigationModule</title>
<path fill="none" stroke="black" d="M536,-84.91C536,-104.14 536,-131.8 536,-131.8 536,-131.8 438.3,-131.8 438.3,-131.8"/>
<polygon fill="black" stroke="black" points="438.3,-128.3 428.3,-131.8 438.3,-135.3 438.3,-128.3"/>
</g>
<!-- I18nModule -->
<g id="node4" class="node">
<title>I18nModule</title>
<polygon fill="#8dd3c7" stroke="black" points="452.71,-84.8 449.71,-88.8 428.71,-88.8 425.71,-84.8 367.29,-84.8 367.29,-48.8 452.71,-48.8 452.71,-84.8"/>
<text text-anchor="middle" x="410" y="-62.6" font-family="Times,serif" font-size="14.00">I18nModule</text>
</g>
<!-- I18nModule&#45;&gt;FooterNavigationModule -->
<g id="edge3" class="edge">
<title>I18nModule&#45;&gt;FooterNavigationModule</title>
<path fill="none" stroke="black" d="M397.77,-84.91C397.77,-84.91 397.77,-103.79 397.77,-103.79"/>
<polygon fill="black" stroke="black" points="394.27,-103.79 397.77,-113.79 401.27,-103.79 394.27,-103.79"/>
</g>
<!-- NavigationModule -->
<g id="node5" class="node">
<title>NavigationModule</title>
<polygon fill="#8dd3c7" stroke="black" points="349.76,-84.8 346.76,-88.8 325.76,-88.8 322.76,-84.8 228.24,-84.8 228.24,-48.8 349.76,-48.8 349.76,-84.8"/>
<text text-anchor="middle" x="289" y="-62.6" font-family="Times,serif" font-size="14.00">NavigationModule</text>
</g>
<!-- NavigationModule&#45;&gt;FooterNavigationModule -->
<g id="edge4" class="edge">
<title>NavigationModule&#45;&gt;FooterNavigationModule</title>
<path fill="none" stroke="black" d="M309.86,-84.91C309.86,-84.91 309.86,-103.79 309.86,-103.79"/>
<polygon fill="black" stroke="black" points="306.36,-103.79 309.86,-113.79 313.36,-103.79 306.36,-103.79"/>
</g>
</g>
</svg>
