<?xml version="1.0" encoding="UTF-8" standalone="no"?>
<!DOCTYPE svg PUBLIC "-//W3C//DTD SVG 1.1//EN"
 "http://www.w3.org/Graphics/SVG/1.1/DTD/svg11.dtd">
<!-- Generated by graphviz version 5.0.0 (20220707.1540)
 -->
<!-- Title: dependencies Pages: 1 -->
<svg width="494pt" height="247pt"
 viewBox="0.00 0.00 494.00 246.80" xmlns="http://www.w3.org/2000/svg" xmlns:xlink="http://www.w3.org/1999/xlink">
<g id="graph0" class="graph" transform="scale(1 1) rotate(0) translate(4 242.8)">
<title>dependencies</title>
<polygon fill="white" stroke="transparent" points="-4,4 -4,-242.8 490,-242.8 490,4 -4,4"/>
<text text-anchor="middle" x="243" y="-8.2" font-family="sans-serif" font-size="14.00">dependencies</text>
<g id="clust1" class="cluster">
<title>cluster_TabParagraphContainerModule</title>
<polygon fill="none" stroke="black" stroke-dasharray="1,5" points="8,-32.8 8,-230.8 478,-230.8 478,-32.8 8,-32.8"/>
</g>
<g id="clust4" class="cluster">
<title>cluster_TabParagraphContainerModule_imports</title>
<polygon fill="none" stroke="black" points="256,-40.8 256,-92.8 470,-92.8 470,-40.8 256,-40.8"/>
</g>
<g id="clust2" class="cluster">
<title>cluster_TabParagraphContainerModule_declarations</title>
<polygon fill="none" stroke="black" points="16,-40.8 16,-92.8 248,-92.8 248,-40.8 16,-40.8"/>
</g>
<g id="clust5" class="cluster">
<title>cluster_TabParagraphContainerModule_exports</title>
<polygon fill="none" stroke="black" points="194,-170.8 194,-222.8 428,-222.8 428,-170.8 194,-170.8"/>
</g>
<!-- TabParagraphContainerComponent -->
<g id="node1" class="node">
<title>TabParagraphContainerComponent</title>
<polygon fill="#ffffb3" stroke="black" points="239.56,-84.8 24.44,-84.8 24.44,-48.8 239.56,-48.8 239.56,-84.8"/>
<text text-anchor="middle" x="132" y="-62.6" font-family="Times,serif" font-size="14.00">TabParagraphContainerComponent</text>
</g>
<!-- TabParagraphContainerModule -->
<g id="node2" class="node">
<title>TabParagraphContainerModule</title>
<polygon fill="#8dd3c7" stroke="black" points="407.78,-149.8 404.78,-153.8 383.78,-153.8 380.78,-149.8 214.22,-149.8 214.22,-113.8 407.78,-113.8 407.78,-149.8"/>
<text text-anchor="middle" x="311" y="-127.6" font-family="Times,serif" font-size="14.00">TabParagraphContainerModule</text>
</g>
<!-- TabParagraphContainerComponent&#45;&gt;TabParagraphContainerModule -->
<g id="edge1" class="edge">
<title>TabParagraphContainerComponent&#45;&gt;TabParagraphContainerModule</title>
<path fill="none" stroke="black" d="M226.94,-84.91C226.94,-84.91 226.94,-103.79 226.94,-103.79"/>
<polygon fill="black" stroke="black" points="223.44,-103.79 226.94,-113.79 230.44,-103.79 223.44,-103.79"/>
</g>
<!-- TabParagraphContainerComponent  -->
<g id="node5" class="node">
<title>TabParagraphContainerComponent </title>
<polygon fill="#fb8072" stroke="black" points="420.06,-214.8 201.94,-214.8 201.94,-178.8 420.06,-178.8 420.06,-214.8"/>
<text text-anchor="middle" x="311" y="-192.6" font-family="Times,serif" font-size="14.00">TabParagraphContainerComponent </text>
</g>
<!-- TabParagraphContainerModule&#45;&gt;TabParagraphContainerComponent  -->
<g id="edge4" class="edge">
<title>TabParagraphContainerModule&#45;&gt;TabParagraphContainerComponent </title>
<path fill="none" stroke="black" stroke-dasharray="5,2" d="M311,-149.91C311,-149.91 311,-168.79 311,-168.79"/>
<polygon fill="black" stroke="black" points="307.5,-168.79 311,-178.79 314.5,-168.79 307.5,-168.79"/>
</g>
<!-- I18nModule -->
<g id="node3" class="node">
<title>I18nModule</title>
<polygon fill="#8dd3c7" stroke="black" points="461.71,-84.8 458.71,-88.8 437.71,-88.8 434.71,-84.8 376.29,-84.8 376.29,-48.8 461.71,-48.8 461.71,-84.8"/>
<text text-anchor="middle" x="419" y="-62.6" font-family="Times,serif" font-size="14.00">I18nModule</text>
</g>
<!-- I18nModule&#45;&gt;TabParagraphContainerModule -->
<g id="edge2" class="edge">
<title>I18nModule&#45;&gt;TabParagraphContainerModule</title>
<path fill="none" stroke="black" d="M392.02,-84.91C392.02,-84.91 392.02,-103.79 392.02,-103.79"/>
<polygon fill="black" stroke="black" points="388.52,-103.79 392.02,-113.79 395.52,-103.79 388.52,-103.79"/>
</g>
<!-- OutletModule -->
<g id="node4" class="node">
<title>OutletModule</title>
<polygon fill="#8dd3c7" stroke="black" points="358.05,-84.8 355.05,-88.8 334.05,-88.8 331.05,-84.8 263.95,-84.8 263.95,-48.8 358.05,-48.8 358.05,-84.8"/>
<text text-anchor="middle" x="311" y="-62.6" font-family="Times,serif" font-size="14.00">OutletModule</text>
</g>
<!-- OutletModule&#45;&gt;TabParagraphContainerModule -->
<g id="edge3" class="edge">
<title>OutletModule&#45;&gt;TabParagraphContainerModule</title>
<path fill="none" stroke="black" d="M311,-84.91C311,-84.91 311,-103.79 311,-103.79"/>
<polygon fill="black" stroke="black" points="307.5,-103.79 311,-113.79 314.5,-103.79 307.5,-103.79"/>
</g>
</g>
</svg>
