<?xml version="1.0" encoding="UTF-8" standalone="no"?>
<!DOCTYPE svg PUBLIC "-//W3C//DTD SVG 1.1//EN"
 "http://www.w3.org/Graphics/SVG/1.1/DTD/svg11.dtd">
<!-- Generated by graphviz version 5.0.0 (20220707.1540)
 -->
<!-- Title: dependencies Pages: 1 -->
<svg width="1144pt" height="247pt"
 viewBox="0.00 0.00 1144.00 246.80" xmlns="http://www.w3.org/2000/svg" xmlns:xlink="http://www.w3.org/1999/xlink">
<g id="graph0" class="graph" transform="scale(1 1) rotate(0) translate(4 242.8)">
<title>dependencies</title>
<polygon fill="white" stroke="transparent" points="-4,4 -4,-242.8 1140,-242.8 1140,4 -4,4"/>
<text text-anchor="middle" x="568" y="-8.2" font-family="sans-serif" font-size="14.00">dependencies</text>
<g id="clust1" class="cluster">
<title>cluster_OrderApprovalDetailsModule</title>
<polygon fill="none" stroke="black" stroke-dasharray="1,5" points="8,-32.8 8,-230.8 1128,-230.8 1128,-32.8 8,-32.8"/>
</g>
<g id="clust2" class="cluster">
<title>cluster_OrderApprovalDetailsModule_declarations</title>
<polygon fill="none" stroke="black" points="602,-40.8 602,-92.8 1120,-92.8 1120,-40.8 602,-40.8"/>
</g>
<g id="clust6" class="cluster">
<title>cluster_OrderApprovalDetailsModule_exports</title>
<polygon fill="none" stroke="black" points="144,-170.8 144,-222.8 668,-222.8 668,-170.8 144,-170.8"/>
</g>
<g id="clust5" class="cluster">
<title>cluster_OrderApprovalDetailsModule_imports</title>
<polygon fill="none" stroke="black" points="16,-40.8 16,-92.8 594,-92.8 594,-40.8 16,-40.8"/>
</g>
<!-- OrderApprovalDetailFormComponent -->
<g id="node1" class="node">
<title>OrderApprovalDetailFormComponent</title>
<polygon fill="#ffffb3" stroke="black" points="1111.9,-84.8 880.1,-84.8 880.1,-48.8 1111.9,-48.8 1111.9,-84.8"/>
<text text-anchor="middle" x="996" y="-62.6" font-family="Times,serif" font-size="14.00">OrderApprovalDetailFormComponent</text>
</g>
<!-- OrderApprovalDetailsModule -->
<g id="node3" class="node">
<title>OrderApprovalDetailsModule</title>
<polygon fill="#8dd3c7" stroke="black" points="499.23,-149.8 496.23,-153.8 475.23,-153.8 472.23,-149.8 314.77,-149.8 314.77,-113.8 499.23,-113.8 499.23,-149.8"/>
<text text-anchor="middle" x="407" y="-127.6" font-family="Times,serif" font-size="14.00">OrderApprovalDetailsModule</text>
</g>
<!-- OrderApprovalDetailFormComponent&#45;&gt;OrderApprovalDetailsModule -->
<g id="edge1" class="edge">
<title>OrderApprovalDetailFormComponent&#45;&gt;OrderApprovalDetailsModule</title>
<path fill="none" stroke="black" d="M996,-85.08C996,-106.12 996,-137.8 996,-137.8 996,-137.8 509.36,-137.8 509.36,-137.8"/>
<polygon fill="black" stroke="black" points="509.36,-134.3 499.36,-137.8 509.35,-141.3 509.36,-134.3"/>
</g>
<!-- OrderDetailPermissionResultsComponent -->
<g id="node2" class="node">
<title>OrderDetailPermissionResultsComponent</title>
<polygon fill="#ffffb3" stroke="black" points="861.64,-84.8 610.36,-84.8 610.36,-48.8 861.64,-48.8 861.64,-84.8"/>
<text text-anchor="middle" x="736" y="-62.6" font-family="Times,serif" font-size="14.00">OrderDetailPermissionResultsComponent</text>
</g>
<!-- OrderDetailPermissionResultsComponent&#45;&gt;OrderApprovalDetailsModule -->
<g id="edge2" class="edge">
<title>OrderDetailPermissionResultsComponent&#45;&gt;OrderApprovalDetailsModule</title>
<path fill="none" stroke="black" d="M635.31,-84.82C635.31,-102.17 635.31,-125.8 635.31,-125.8 635.31,-125.8 509.54,-125.8 509.54,-125.8"/>
<polygon fill="black" stroke="black" points="509.54,-122.3 499.54,-125.8 509.54,-129.3 509.54,-122.3"/>
</g>
<!-- OrderApprovalDetailFormComponent  -->
<g id="node9" class="node">
<title>OrderApprovalDetailFormComponent </title>
<polygon fill="#fb8072" stroke="black" points="660.4,-214.8 425.6,-214.8 425.6,-178.8 660.4,-178.8 660.4,-214.8"/>
<text text-anchor="middle" x="543" y="-192.6" font-family="Times,serif" font-size="14.00">OrderApprovalDetailFormComponent </text>
</g>
<!-- OrderApprovalDetailsModule&#45;&gt;OrderApprovalDetailFormComponent  -->
<g id="edge8" class="edge">
<title>OrderApprovalDetailsModule&#45;&gt;OrderApprovalDetailFormComponent </title>
<path fill="none" stroke="black" stroke-dasharray="5,2" d="M462.46,-149.91C462.46,-149.91 462.46,-168.79 462.46,-168.79"/>
<polygon fill="black" stroke="black" points="458.96,-168.79 462.46,-178.79 465.96,-168.79 458.96,-168.79"/>
</g>
<!-- OrderDetailPermissionResultsComponent  -->
<g id="node10" class="node">
<title>OrderDetailPermissionResultsComponent </title>
<polygon fill="#fb8072" stroke="black" points="407.64,-214.8 152.36,-214.8 152.36,-178.8 407.64,-178.8 407.64,-214.8"/>
<text text-anchor="middle" x="280" y="-192.6" font-family="Times,serif" font-size="14.00">OrderDetailPermissionResultsComponent </text>
</g>
<!-- OrderApprovalDetailsModule&#45;&gt;OrderDetailPermissionResultsComponent  -->
<g id="edge9" class="edge">
<title>OrderApprovalDetailsModule&#45;&gt;OrderDetailPermissionResultsComponent </title>
<path fill="none" stroke="black" stroke-dasharray="5,2" d="M361.1,-149.91C361.1,-149.91 361.1,-168.79 361.1,-168.79"/>
<polygon fill="black" stroke="black" points="357.6,-168.79 361.1,-178.79 364.6,-168.79 357.6,-168.79"/>
</g>
<!-- ConfigModule -->
<g id="node4" class="node">
<title>ConfigModule</title>
<polygon fill="#8dd3c7" stroke="black" points="586.44,-84.8 583.44,-88.8 562.44,-88.8 559.44,-84.8 487.56,-84.8 487.56,-48.8 586.44,-48.8 586.44,-84.8"/>
<text text-anchor="middle" x="537" y="-62.6" font-family="Times,serif" font-size="14.00">ConfigModule</text>
</g>
<!-- ConfigModule&#45;&gt;OrderApprovalDetailsModule -->
<g id="edge3" class="edge">
<title>ConfigModule&#45;&gt;OrderApprovalDetailsModule</title>
<path fill="none" stroke="black" d="M493.57,-84.91C493.57,-84.91 493.57,-103.79 493.57,-103.79"/>
<polygon fill="black" stroke="black" points="490.07,-103.79 493.57,-113.79 497.07,-103.79 490.07,-103.79"/>
</g>
<!-- FormErrorsModule -->
<g id="node5" class="node">
<title>FormErrorsModule</title>
<polygon fill="#8dd3c7" stroke="black" points="469.38,-84.8 466.38,-88.8 445.38,-88.8 442.38,-84.8 344.62,-84.8 344.62,-48.8 469.38,-48.8 469.38,-84.8"/>
<text text-anchor="middle" x="407" y="-62.6" font-family="Times,serif" font-size="14.00">FormErrorsModule</text>
</g>
<!-- FormErrorsModule&#45;&gt;OrderApprovalDetailsModule -->
<g id="edge4" class="edge">
<title>FormErrorsModule&#45;&gt;OrderApprovalDetailsModule</title>
<path fill="none" stroke="black" d="M407,-84.91C407,-84.91 407,-103.79 407,-103.79"/>
<polygon fill="black" stroke="black" points="403.5,-103.79 407,-113.79 410.5,-103.79 403.5,-103.79"/>
</g>
<!-- I18nModule -->
<g id="node6" class="node">
<title>I18nModule</title>
<polygon fill="#8dd3c7" stroke="black" points="326.71,-84.8 323.71,-88.8 302.71,-88.8 299.71,-84.8 241.29,-84.8 241.29,-48.8 326.71,-48.8 326.71,-84.8"/>
<text text-anchor="middle" x="284" y="-62.6" font-family="Times,serif" font-size="14.00">I18nModule</text>
</g>
<!-- I18nModule&#45;&gt;OrderApprovalDetailsModule -->
<g id="edge5" class="edge">
<title>I18nModule&#45;&gt;OrderApprovalDetailsModule</title>
<path fill="none" stroke="black" d="M320.62,-84.91C320.62,-84.91 320.62,-103.79 320.62,-103.79"/>
<polygon fill="black" stroke="black" points="317.12,-103.79 320.62,-113.79 324.12,-103.79 317.12,-103.79"/>
</g>
<!-- SpinnerModule -->
<g id="node7" class="node">
<title>SpinnerModule</title>
<polygon fill="#8dd3c7" stroke="black" points="223.6,-84.8 220.6,-88.8 199.6,-88.8 196.6,-84.8 120.4,-84.8 120.4,-48.8 223.6,-48.8 223.6,-84.8"/>
<text text-anchor="middle" x="172" y="-62.6" font-family="Times,serif" font-size="14.00">SpinnerModule</text>
</g>
<!-- SpinnerModule&#45;&gt;OrderApprovalDetailsModule -->
<g id="edge6" class="edge">
<title>SpinnerModule&#45;&gt;OrderApprovalDetailsModule</title>
<path fill="none" stroke="black" d="M187.99,-84.82C187.99,-102.17 187.99,-125.8 187.99,-125.8 187.99,-125.8 304.75,-125.8 304.75,-125.8"/>
<polygon fill="black" stroke="black" points="304.76,-129.3 314.75,-125.8 304.75,-122.3 304.76,-129.3"/>
</g>
<!-- UrlModule -->
<g id="node8" class="node">
<title>UrlModule</title>
<polygon fill="#8dd3c7" stroke="black" points="102.21,-84.8 99.21,-88.8 78.21,-88.8 75.21,-84.8 23.79,-84.8 23.79,-48.8 102.21,-48.8 102.21,-84.8"/>
<text text-anchor="middle" x="63" y="-62.6" font-family="Times,serif" font-size="14.00">UrlModule</text>
</g>
<!-- UrlModule&#45;&gt;OrderApprovalDetailsModule -->
<g id="edge7" class="edge">
<title>UrlModule&#45;&gt;OrderApprovalDetailsModule</title>
<path fill="none" stroke="black" d="M63,-85.08C63,-106.12 63,-137.8 63,-137.8 63,-137.8 304.36,-137.8 304.36,-137.8"/>
<polygon fill="black" stroke="black" points="304.36,-141.3 314.36,-137.8 304.36,-134.3 304.36,-141.3"/>
</g>
</g>
</svg>
