<?xml version="1.0" encoding="UTF-8" standalone="no"?>
<!DOCTYPE svg PUBLIC "-//W3C//DTD SVG 1.1//EN"
 "http://www.w3.org/Graphics/SVG/1.1/DTD/svg11.dtd">
<!-- Generated by graphviz version 5.0.0 (20220707.1540)
 -->
<!-- Title: dependencies Pages: 1 -->
<svg width="966pt" height="247pt"
 viewBox="0.00 0.00 966.00 246.80" xmlns="http://www.w3.org/2000/svg" xmlns:xlink="http://www.w3.org/1999/xlink">
<g id="graph0" class="graph" transform="scale(1 1) rotate(0) translate(4 242.8)">
<title>dependencies</title>
<polygon fill="white" stroke="transparent" points="-4,4 -4,-242.8 962,-242.8 962,4 -4,4"/>
<text text-anchor="middle" x="479" y="-8.2" font-family="sans-serif" font-size="14.00">dependencies</text>
<g id="clust1" class="cluster">
<title>cluster_B2BCheckoutReviewSubmitModule</title>
<polygon fill="none" stroke="black" stroke-dasharray="1,5" points="8,-32.8 8,-230.8 950,-230.8 950,-32.8 8,-32.8"/>
</g>
<g id="clust2" class="cluster">
<title>cluster_B2BCheckoutReviewSubmitModule_declarations</title>
<polygon fill="none" stroke="black" points="682,-40.8 682,-92.8 942,-92.8 942,-40.8 682,-40.8"/>
</g>
<g id="clust4" class="cluster">
<title>cluster_B2BCheckoutReviewSubmitModule_imports</title>
<polygon fill="none" stroke="black" points="16,-40.8 16,-92.8 674,-92.8 674,-40.8 16,-40.8"/>
</g>
<g id="clust5" class="cluster">
<title>cluster_B2BCheckoutReviewSubmitModule_exports</title>
<polygon fill="none" stroke="black" points="284,-170.8 284,-222.8 548,-222.8 548,-170.8 284,-170.8"/>
</g>
<!-- B2BCheckoutReviewSubmitComponent -->
<g id="node1" class="node">
<title>B2BCheckoutReviewSubmitComponent</title>
<polygon fill="#ffffb3" stroke="black" points="933.88,-84.8 690.12,-84.8 690.12,-48.8 933.88,-48.8 933.88,-84.8"/>
<text text-anchor="middle" x="812" y="-62.6" font-family="Times,serif" font-size="14.00">B2BCheckoutReviewSubmitComponent</text>
</g>
<!-- B2BCheckoutReviewSubmitModule -->
<g id="node2" class="node">
<title>B2BCheckoutReviewSubmitModule</title>
<polygon fill="#8dd3c7" stroke="black" points="527.1,-149.8 524.1,-153.8 503.1,-153.8 500.1,-149.8 304.9,-149.8 304.9,-113.8 527.1,-113.8 527.1,-149.8"/>
<text text-anchor="middle" x="416" y="-127.6" font-family="Times,serif" font-size="14.00">B2BCheckoutReviewSubmitModule</text>
</g>
<!-- B2BCheckoutReviewSubmitComponent&#45;&gt;B2BCheckoutReviewSubmitModule -->
<g id="edge1" class="edge">
<title>B2BCheckoutReviewSubmitComponent&#45;&gt;B2BCheckoutReviewSubmitModule</title>
<path fill="none" stroke="black" d="M812,-85.08C812,-106.12 812,-137.8 812,-137.8 812,-137.8 537.1,-137.8 537.1,-137.8"/>
<polygon fill="black" stroke="black" points="537.1,-134.3 527.1,-137.8 537.1,-141.3 537.1,-134.3"/>
</g>
<!-- B2BCheckoutReviewSubmitComponent  -->
<g id="node9" class="node">
<title>B2BCheckoutReviewSubmitComponent </title>
<polygon fill="#fb8072" stroke="black" points="539.88,-214.8 292.12,-214.8 292.12,-178.8 539.88,-178.8 539.88,-214.8"/>
<text text-anchor="middle" x="416" y="-192.6" font-family="Times,serif" font-size="14.00">B2BCheckoutReviewSubmitComponent </text>
</g>
<!-- B2BCheckoutReviewSubmitModule&#45;&gt;B2BCheckoutReviewSubmitComponent  -->
<g id="edge8" class="edge">
<title>B2BCheckoutReviewSubmitModule&#45;&gt;B2BCheckoutReviewSubmitComponent </title>
<path fill="none" stroke="black" stroke-dasharray="5,2" d="M416,-149.91C416,-149.91 416,-168.79 416,-168.79"/>
<polygon fill="black" stroke="black" points="412.5,-168.79 416,-178.79 419.5,-168.79 412.5,-168.79"/>
</g>
<!-- CardModule -->
<g id="node3" class="node">
<title>CardModule</title>
<polygon fill="#8dd3c7" stroke="black" points="666.27,-84.8 663.27,-88.8 642.27,-88.8 639.27,-84.8 579.73,-84.8 579.73,-48.8 666.27,-48.8 666.27,-84.8"/>
<text text-anchor="middle" x="623" y="-62.6" font-family="Times,serif" font-size="14.00">CardModule</text>
</g>
<!-- CardModule&#45;&gt;B2BCheckoutReviewSubmitModule -->
<g id="edge2" class="edge">
<title>CardModule&#45;&gt;B2BCheckoutReviewSubmitModule</title>
<path fill="none" stroke="black" d="M623,-84.82C623,-102.17 623,-125.8 623,-125.8 623,-125.8 537.07,-125.8 537.07,-125.8"/>
<polygon fill="black" stroke="black" points="537.07,-122.3 527.07,-125.8 537.07,-129.3 537.07,-122.3"/>
</g>
<!-- I18nModule -->
<g id="node4" class="node">
<title>I18nModule</title>
<polygon fill="#8dd3c7" stroke="black" points="561.71,-84.8 558.71,-88.8 537.71,-88.8 534.71,-84.8 476.29,-84.8 476.29,-48.8 561.71,-48.8 561.71,-84.8"/>
<text text-anchor="middle" x="519" y="-62.6" font-family="Times,serif" font-size="14.00">I18nModule</text>
</g>
<!-- I18nModule&#45;&gt;B2BCheckoutReviewSubmitModule -->
<g id="edge3" class="edge">
<title>I18nModule&#45;&gt;B2BCheckoutReviewSubmitModule</title>
<path fill="none" stroke="black" d="M501.72,-84.91C501.72,-84.91 501.72,-103.79 501.72,-103.79"/>
<polygon fill="black" stroke="black" points="498.22,-103.79 501.72,-113.79 505.22,-103.79 498.22,-103.79"/>
</g>
<!-- IconModule -->
<g id="node5" class="node">
<title>IconModule</title>
<polygon fill="#8dd3c7" stroke="black" points="458.43,-84.8 455.43,-88.8 434.43,-88.8 431.43,-84.8 373.57,-84.8 373.57,-48.8 458.43,-48.8 458.43,-84.8"/>
<text text-anchor="middle" x="416" y="-62.6" font-family="Times,serif" font-size="14.00">IconModule</text>
</g>
<!-- IconModule&#45;&gt;B2BCheckoutReviewSubmitModule -->
<g id="edge4" class="edge">
<title>IconModule&#45;&gt;B2BCheckoutReviewSubmitModule</title>
<path fill="none" stroke="black" d="M416,-84.91C416,-84.91 416,-103.79 416,-103.79"/>
<polygon fill="black" stroke="black" points="412.5,-103.79 416,-113.79 419.5,-103.79 412.5,-103.79"/>
</g>
<!-- OutletModule -->
<g id="node6" class="node">
<title>OutletModule</title>
<polygon fill="#8dd3c7" stroke="black" points="356.05,-84.8 353.05,-88.8 332.05,-88.8 329.05,-84.8 261.95,-84.8 261.95,-48.8 356.05,-48.8 356.05,-84.8"/>
<text text-anchor="middle" x="309" y="-62.6" font-family="Times,serif" font-size="14.00">OutletModule</text>
</g>
<!-- OutletModule&#45;&gt;B2BCheckoutReviewSubmitModule -->
<g id="edge5" class="edge">
<title>OutletModule&#45;&gt;B2BCheckoutReviewSubmitModule</title>
<path fill="none" stroke="black" d="M330.61,-84.91C330.61,-84.91 330.61,-103.79 330.61,-103.79"/>
<polygon fill="black" stroke="black" points="327.11,-103.79 330.61,-113.79 334.11,-103.79 327.11,-103.79"/>
</g>
<!-- PromotionsModule -->
<g id="node7" class="node">
<title>PromotionsModule</title>
<polygon fill="#8dd3c7" stroke="black" points="244.12,-84.8 241.12,-88.8 220.12,-88.8 217.12,-84.8 119.88,-84.8 119.88,-48.8 244.12,-48.8 244.12,-84.8"/>
<text text-anchor="middle" x="182" y="-62.6" font-family="Times,serif" font-size="14.00">PromotionsModule</text>
</g>
<!-- PromotionsModule&#45;&gt;B2BCheckoutReviewSubmitModule -->
<g id="edge6" class="edge">
<title>PromotionsModule&#45;&gt;B2BCheckoutReviewSubmitModule</title>
<path fill="none" stroke="black" d="M182,-84.82C182,-102.17 182,-125.8 182,-125.8 182,-125.8 294.83,-125.8 294.83,-125.8"/>
<polygon fill="black" stroke="black" points="294.83,-129.3 304.83,-125.8 294.82,-122.3 294.83,-129.3"/>
</g>
<!-- UrlModule -->
<g id="node8" class="node">
<title>UrlModule</title>
<polygon fill="#8dd3c7" stroke="black" points="102.21,-84.8 99.21,-88.8 78.21,-88.8 75.21,-84.8 23.79,-84.8 23.79,-48.8 102.21,-48.8 102.21,-84.8"/>
<text text-anchor="middle" x="63" y="-62.6" font-family="Times,serif" font-size="14.00">UrlModule</text>
</g>
<!-- UrlModule&#45;&gt;B2BCheckoutReviewSubmitModule -->
<g id="edge7" class="edge">
<title>UrlModule&#45;&gt;B2BCheckoutReviewSubmitModule</title>
<path fill="none" stroke="black" d="M63,-85.08C63,-106.12 63,-137.8 63,-137.8 63,-137.8 294.79,-137.8 294.79,-137.8"/>
<polygon fill="black" stroke="black" points="294.79,-141.3 304.79,-137.8 294.79,-134.3 294.79,-141.3"/>
</g>
</g>
</svg>
