<?xml version="1.0" encoding="UTF-8" standalone="no"?>
<!DOCTYPE svg PUBLIC "-//W3C//DTD SVG 1.1//EN"
 "http://www.w3.org/Graphics/SVG/1.1/DTD/svg11.dtd">
<!-- Generated by graphviz version 5.0.0 (20220707.1540)
 -->
<!-- Title: dependencies Pages: 1 -->
<svg width="966pt" height="247pt"
 viewBox="0.00 0.00 966.00 246.80" xmlns="http://www.w3.org/2000/svg" xmlns:xlink="http://www.w3.org/1999/xlink">
<g id="graph0" class="graph" transform="scale(1 1) rotate(0) translate(4 242.8)">
<title>dependencies</title>
<polygon fill="white" stroke="transparent" points="-4,4 -4,-242.8 962,-242.8 962,4 -4,4"/>
<text text-anchor="middle" x="479" y="-8.2" font-family="sans-serif" font-size="14.00">dependencies</text>
<g id="clust1" class="cluster">
<title>cluster_B2BCheckoutReviewSubmitModule</title>
<polygon fill="none" stroke="black" stroke-dasharray="1,5" points="8,-32.8 8,-230.8 950,-230.8 950,-32.8 8,-32.8"/>
</g>
<g id="clust4" class="cluster">
<title>cluster_B2BCheckoutReviewSubmitModule_imports</title>
<polygon fill="none" stroke="black" points="284,-40.8 284,-92.8 942,-92.8 942,-40.8 284,-40.8"/>
</g>
<g id="clust2" class="cluster">
<title>cluster_B2BCheckoutReviewSubmitModule_declarations</title>
<polygon fill="none" stroke="black" points="16,-40.8 16,-92.8 276,-92.8 276,-40.8 16,-40.8"/>
</g>
<g id="clust5" class="cluster">
<title>cluster_B2BCheckoutReviewSubmitModule_exports</title>
<polygon fill="none" stroke="black" points="445,-170.8 445,-222.8 709,-222.8 709,-170.8 445,-170.8"/>
</g>
<!-- B2BCheckoutReviewSubmitComponent -->
<g id="node1" class="node">
<title>B2BCheckoutReviewSubmitComponent</title>
<polygon fill="#ffffb3" stroke="black" points="267.88,-84.8 24.12,-84.8 24.12,-48.8 267.88,-48.8 267.88,-84.8"/>
<text text-anchor="middle" x="146" y="-62.6" font-family="Times,serif" font-size="14.00">B2BCheckoutReviewSubmitComponent</text>
</g>
<!-- B2BCheckoutReviewSubmitModule -->
<g id="node2" class="node">
<title>B2BCheckoutReviewSubmitModule</title>
<polygon fill="#8dd3c7" stroke="black" points="688.1,-149.8 685.1,-153.8 664.1,-153.8 661.1,-149.8 465.9,-149.8 465.9,-113.8 688.1,-113.8 688.1,-149.8"/>
<text text-anchor="middle" x="577" y="-127.6" font-family="Times,serif" font-size="14.00">B2BCheckoutReviewSubmitModule</text>
</g>
<!-- B2BCheckoutReviewSubmitComponent&#45;&gt;B2BCheckoutReviewSubmitModule -->
<g id="edge1" class="edge">
<title>B2BCheckoutReviewSubmitComponent&#45;&gt;B2BCheckoutReviewSubmitModule</title>
<path fill="none" stroke="black" d="M146,-85.08C146,-106.12 146,-137.8 146,-137.8 146,-137.8 455.73,-137.8 455.73,-137.8"/>
<polygon fill="black" stroke="black" points="455.73,-141.3 465.73,-137.8 455.73,-134.3 455.73,-141.3"/>
</g>
<!-- B2BCheckoutReviewSubmitComponent  -->
<g id="node9" class="node">
<title>B2BCheckoutReviewSubmitComponent </title>
<polygon fill="#fb8072" stroke="black" points="700.88,-214.8 453.12,-214.8 453.12,-178.8 700.88,-178.8 700.88,-214.8"/>
<text text-anchor="middle" x="577" y="-192.6" font-family="Times,serif" font-size="14.00">B2BCheckoutReviewSubmitComponent </text>
</g>
<!-- B2BCheckoutReviewSubmitModule&#45;&gt;B2BCheckoutReviewSubmitComponent  -->
<g id="edge8" class="edge">
<title>B2BCheckoutReviewSubmitModule&#45;&gt;B2BCheckoutReviewSubmitComponent </title>
<path fill="none" stroke="black" stroke-dasharray="5,2" d="M577,-149.91C577,-149.91 577,-168.79 577,-168.79"/>
<polygon fill="black" stroke="black" points="573.5,-168.79 577,-178.79 580.5,-168.79 573.5,-168.79"/>
</g>
<!-- CardModule -->
<g id="node3" class="node">
<title>CardModule</title>
<polygon fill="#8dd3c7" stroke="black" points="934.27,-84.8 931.27,-88.8 910.27,-88.8 907.27,-84.8 847.73,-84.8 847.73,-48.8 934.27,-48.8 934.27,-84.8"/>
<text text-anchor="middle" x="891" y="-62.6" font-family="Times,serif" font-size="14.00">CardModule</text>
</g>
<!-- CardModule&#45;&gt;B2BCheckoutReviewSubmitModule -->
<g id="edge2" class="edge">
<title>CardModule&#45;&gt;B2BCheckoutReviewSubmitModule</title>
<path fill="none" stroke="black" d="M891,-85.08C891,-106.12 891,-137.8 891,-137.8 891,-137.8 698.15,-137.8 698.15,-137.8"/>
<polygon fill="black" stroke="black" points="698.15,-134.3 688.15,-137.8 698.15,-141.3 698.15,-134.3"/>
</g>
<!-- I18nModule -->
<g id="node4" class="node">
<title>I18nModule</title>
<polygon fill="#8dd3c7" stroke="black" points="829.71,-84.8 826.71,-88.8 805.71,-88.8 802.71,-84.8 744.29,-84.8 744.29,-48.8 829.71,-48.8 829.71,-84.8"/>
<text text-anchor="middle" x="787" y="-62.6" font-family="Times,serif" font-size="14.00">I18nModule</text>
</g>
<!-- I18nModule&#45;&gt;B2BCheckoutReviewSubmitModule -->
<g id="edge3" class="edge">
<title>I18nModule&#45;&gt;B2BCheckoutReviewSubmitModule</title>
<path fill="none" stroke="black" d="M787,-84.82C787,-102.17 787,-125.8 787,-125.8 787,-125.8 698.15,-125.8 698.15,-125.8"/>
<polygon fill="black" stroke="black" points="698.15,-122.3 688.15,-125.8 698.15,-129.3 698.15,-122.3"/>
</g>
<!-- IconModule -->
<g id="node5" class="node">
<title>IconModule</title>
<polygon fill="#8dd3c7" stroke="black" points="726.43,-84.8 723.43,-88.8 702.43,-88.8 699.43,-84.8 641.57,-84.8 641.57,-48.8 726.43,-48.8 726.43,-84.8"/>
<text text-anchor="middle" x="684" y="-62.6" font-family="Times,serif" font-size="14.00">IconModule</text>
</g>
<!-- IconModule&#45;&gt;B2BCheckoutReviewSubmitModule -->
<g id="edge4" class="edge">
<title>IconModule&#45;&gt;B2BCheckoutReviewSubmitModule</title>
<path fill="none" stroke="black" d="M664.92,-84.91C664.92,-84.91 664.92,-103.79 664.92,-103.79"/>
<polygon fill="black" stroke="black" points="661.42,-103.79 664.92,-113.79 668.42,-103.79 661.42,-103.79"/>
</g>
<!-- OutletModule -->
<g id="node6" class="node">
<title>OutletModule</title>
<polygon fill="#8dd3c7" stroke="black" points="624.05,-84.8 621.05,-88.8 600.05,-88.8 597.05,-84.8 529.95,-84.8 529.95,-48.8 624.05,-48.8 624.05,-84.8"/>
<text text-anchor="middle" x="577" y="-62.6" font-family="Times,serif" font-size="14.00">OutletModule</text>
</g>
<!-- OutletModule&#45;&gt;B2BCheckoutReviewSubmitModule -->
<g id="edge5" class="edge">
<title>OutletModule&#45;&gt;B2BCheckoutReviewSubmitModule</title>
<path fill="none" stroke="black" d="M577,-84.91C577,-84.91 577,-103.79 577,-103.79"/>
<polygon fill="black" stroke="black" points="573.5,-103.79 577,-113.79 580.5,-103.79 573.5,-103.79"/>
</g>
<!-- PromotionsModule -->
<g id="node7" class="node">
<title>PromotionsModule</title>
<polygon fill="#8dd3c7" stroke="black" points="512.12,-84.8 509.12,-88.8 488.12,-88.8 485.12,-84.8 387.88,-84.8 387.88,-48.8 512.12,-48.8 512.12,-84.8"/>
<text text-anchor="middle" x="450" y="-62.6" font-family="Times,serif" font-size="14.00">PromotionsModule</text>
</g>
<!-- PromotionsModule&#45;&gt;B2BCheckoutReviewSubmitModule -->
<g id="edge6" class="edge">
<title>PromotionsModule&#45;&gt;B2BCheckoutReviewSubmitModule</title>
<path fill="none" stroke="black" d="M489,-84.91C489,-84.91 489,-103.79 489,-103.79"/>
<polygon fill="black" stroke="black" points="485.5,-103.79 489,-113.79 492.5,-103.79 485.5,-103.79"/>
</g>
<!-- UrlModule -->
<g id="node8" class="node">
<title>UrlModule</title>
<polygon fill="#8dd3c7" stroke="black" points="370.21,-84.8 367.21,-88.8 346.21,-88.8 343.21,-84.8 291.79,-84.8 291.79,-48.8 370.21,-48.8 370.21,-84.8"/>
<text text-anchor="middle" x="331" y="-62.6" font-family="Times,serif" font-size="14.00">UrlModule</text>
</g>
<!-- UrlModule&#45;&gt;B2BCheckoutReviewSubmitModule -->
<g id="edge7" class="edge">
<title>UrlModule&#45;&gt;B2BCheckoutReviewSubmitModule</title>
<path fill="none" stroke="black" d="M331,-84.82C331,-102.17 331,-125.8 331,-125.8 331,-125.8 455.88,-125.8 455.88,-125.8"/>
<polygon fill="black" stroke="black" points="455.88,-129.3 465.88,-125.8 455.88,-122.3 455.88,-129.3"/>
</g>
</g>
</svg>
