<?xml version="1.0" encoding="UTF-8" standalone="no"?>
<!DOCTYPE svg PUBLIC "-//W3C//DTD SVG 1.1//EN"
 "http://www.w3.org/Graphics/SVG/1.1/DTD/svg11.dtd">
<!-- Generated by graphviz version 5.0.0 (20220707.1540)
 -->
<!-- Title: dependencies Pages: 1 -->
<svg width="1947pt" height="247pt"
 viewBox="0.00 0.00 1947.00 246.80" xmlns="http://www.w3.org/2000/svg" xmlns:xlink="http://www.w3.org/1999/xlink">
<g id="graph0" class="graph" transform="scale(1 1) rotate(0) translate(4 242.8)">
<title>dependencies</title>
<polygon fill="white" stroke="transparent" points="-4,4 -4,-242.8 1943,-242.8 1943,4 -4,4"/>
<text text-anchor="middle" x="969.5" y="-8.2" font-family="sans-serif" font-size="14.00">dependencies</text>
<g id="clust1" class="cluster">
<title>cluster_ImportOrderEntriesModule</title>
<polygon fill="none" stroke="black" stroke-dasharray="1,5" points="8,-32.8 8,-230.8 1931,-230.8 1931,-32.8 8,-32.8"/>
</g>
<g id="clust9" class="cluster">
<title>cluster_ImportOrderEntriesModule_exports</title>
<polygon fill="none" stroke="black" points="635,-170.8 635,-222.8 1782,-222.8 1782,-170.8 635,-170.8"/>
</g>
<g id="clust8" class="cluster">
<title>cluster_ImportOrderEntriesModule_imports</title>
<polygon fill="none" stroke="black" points="1154,-40.8 1154,-92.8 1923,-92.8 1923,-40.8 1154,-40.8"/>
</g>
<g id="clust2" class="cluster">
<title>cluster_ImportOrderEntriesModule_declarations</title>
<polygon fill="none" stroke="black" points="16,-40.8 16,-92.8 1146,-92.8 1146,-40.8 16,-40.8"/>
</g>
<!-- ImportEntriesDialogComponent -->
<g id="node1" class="node">
<title>ImportEntriesDialogComponent</title>
<polygon fill="#ffffb3" stroke="black" points="1137.69,-84.8 940.31,-84.8 940.31,-48.8 1137.69,-48.8 1137.69,-84.8"/>
<text text-anchor="middle" x="1039" y="-62.6" font-family="Times,serif" font-size="14.00">ImportEntriesDialogComponent</text>
</g>
<!-- ImportOrderEntriesModule -->
<g id="node6" class="node">
<title>ImportOrderEntriesModule</title>
<polygon fill="#8dd3c7" stroke="black" points="1320.96,-149.8 1317.96,-153.8 1296.96,-153.8 1293.96,-149.8 1151.04,-149.8 1151.04,-113.8 1320.96,-113.8 1320.96,-149.8"/>
<text text-anchor="middle" x="1236" y="-127.6" font-family="Times,serif" font-size="14.00">ImportOrderEntriesModule</text>
</g>
<!-- ImportEntriesDialogComponent&#45;&gt;ImportOrderEntriesModule -->
<g id="edge1" class="edge">
<title>ImportEntriesDialogComponent&#45;&gt;ImportOrderEntriesModule</title>
<path fill="none" stroke="black" d="M1132.54,-84.99C1132.54,-99.98 1132.54,-118.8 1132.54,-118.8 1132.54,-118.8 1141.04,-118.8 1141.04,-118.8"/>
<polygon fill="black" stroke="black" points="1141.04,-122.3 1151.04,-118.8 1141.04,-115.3 1141.04,-122.3"/>
</g>
<!-- ImportEntriesFormComponent -->
<g id="node2" class="node">
<title>ImportEntriesFormComponent</title>
<polygon fill="#ffffb3" stroke="black" points="922.93,-84.8 733.07,-84.8 733.07,-48.8 922.93,-48.8 922.93,-84.8"/>
<text text-anchor="middle" x="828" y="-62.6" font-family="Times,serif" font-size="14.00">ImportEntriesFormComponent</text>
</g>
<!-- ImportEntriesFormComponent&#45;&gt;ImportOrderEntriesModule -->
<g id="edge2" class="edge">
<title>ImportEntriesFormComponent&#45;&gt;ImportOrderEntriesModule</title>
<path fill="none" stroke="black" d="M918.55,-84.83C918.55,-101.2 918.55,-122.8 918.55,-122.8 918.55,-122.8 1140.93,-122.8 1140.93,-122.8"/>
<polygon fill="black" stroke="black" points="1140.93,-126.3 1150.93,-122.8 1140.93,-119.3 1140.93,-126.3"/>
</g>
<!-- ImportEntriesSummaryComponent -->
<g id="node3" class="node">
<title>ImportEntriesSummaryComponent</title>
<polygon fill="#ffffb3" stroke="black" points="715.53,-84.8 502.47,-84.8 502.47,-48.8 715.53,-48.8 715.53,-84.8"/>
<text text-anchor="middle" x="609" y="-62.6" font-family="Times,serif" font-size="14.00">ImportEntriesSummaryComponent</text>
</g>
<!-- ImportEntriesSummaryComponent&#45;&gt;ImportOrderEntriesModule -->
<g id="edge3" class="edge">
<title>ImportEntriesSummaryComponent&#45;&gt;ImportOrderEntriesModule</title>
<path fill="none" stroke="black" d="M679.49,-85.1C679.49,-103.07 679.49,-127.8 679.49,-127.8 679.49,-127.8 1140.87,-127.8 1140.87,-127.8"/>
<polygon fill="black" stroke="black" points="1140.87,-131.3 1150.87,-127.8 1140.87,-124.3 1140.87,-131.3"/>
</g>
<!-- ImportOrderEntriesComponent -->
<g id="node4" class="node">
<title>ImportOrderEntriesComponent</title>
<polygon fill="#ffffb3" stroke="black" points="483.74,-84.8 292.26,-84.8 292.26,-48.8 483.74,-48.8 483.74,-84.8"/>
<text text-anchor="middle" x="388" y="-62.6" font-family="Times,serif" font-size="14.00">ImportOrderEntriesComponent</text>
</g>
<!-- ImportOrderEntriesComponent&#45;&gt;ImportOrderEntriesModule -->
<g id="edge4" class="edge">
<title>ImportOrderEntriesComponent&#45;&gt;ImportOrderEntriesModule</title>
<path fill="none" stroke="black" d="M388,-84.91C388,-104.14 388,-131.8 388,-131.8 388,-131.8 1140.81,-131.8 1140.81,-131.8"/>
<polygon fill="black" stroke="black" points="1140.81,-135.3 1150.81,-131.8 1140.81,-128.3 1140.81,-135.3"/>
</g>
<!-- ImportToNewSavedCartFormComponent -->
<g id="node5" class="node">
<title>ImportToNewSavedCartFormComponent</title>
<polygon fill="#ffffb3" stroke="black" points="274.08,-84.8 23.92,-84.8 23.92,-48.8 274.08,-48.8 274.08,-84.8"/>
<text text-anchor="middle" x="149" y="-62.6" font-family="Times,serif" font-size="14.00">ImportToNewSavedCartFormComponent</text>
</g>
<!-- ImportToNewSavedCartFormComponent&#45;&gt;ImportOrderEntriesModule -->
<g id="edge5" class="edge">
<title>ImportToNewSavedCartFormComponent&#45;&gt;ImportOrderEntriesModule</title>
<path fill="none" stroke="black" d="M149,-84.83C149,-105.57 149,-136.8 149,-136.8 149,-136.8 1140.7,-136.8 1140.7,-136.8"/>
<polygon fill="black" stroke="black" points="1140.7,-140.3 1150.7,-136.8 1140.7,-133.3 1140.7,-140.3"/>
</g>
<!-- ImportEntriesDialogComponent  -->
<g id="node13" class="node">
<title>ImportEntriesDialogComponent </title>
<polygon fill="#fb8072" stroke="black" points="1774.19,-214.8 1573.81,-214.8 1573.81,-178.8 1774.19,-178.8 1774.19,-214.8"/>
<text text-anchor="middle" x="1674" y="-192.6" font-family="Times,serif" font-size="14.00">ImportEntriesDialogComponent </text>
</g>
<!-- ImportOrderEntriesModule&#45;&gt;ImportEntriesDialogComponent  -->
<g id="edge12" class="edge">
<title>ImportOrderEntriesModule&#45;&gt;ImportEntriesDialogComponent </title>
<path fill="none" stroke="black" stroke-dasharray="5,2" d="M1321.29,-139.8C1433.34,-139.8 1616.05,-139.8 1616.05,-139.8 1616.05,-139.8 1616.05,-168.76 1616.05,-168.76"/>
<polygon fill="black" stroke="black" points="1612.55,-168.76 1616.05,-178.76 1619.55,-168.76 1612.55,-168.76"/>
</g>
<!-- ImportEntriesFormComponent  -->
<g id="node14" class="node">
<title>ImportEntriesFormComponent </title>
<polygon fill="#fb8072" stroke="black" points="1555.43,-214.8 1362.57,-214.8 1362.57,-178.8 1555.43,-178.8 1555.43,-214.8"/>
<text text-anchor="middle" x="1459" y="-192.6" font-family="Times,serif" font-size="14.00">ImportEntriesFormComponent </text>
</g>
<!-- ImportOrderEntriesModule&#45;&gt;ImportEntriesFormComponent  -->
<g id="edge13" class="edge">
<title>ImportOrderEntriesModule&#45;&gt;ImportEntriesFormComponent </title>
<path fill="none" stroke="black" stroke-dasharray="5,2" d="M1320.98,-144.8C1355.49,-144.8 1387.38,-144.8 1387.38,-144.8 1387.38,-144.8 1387.38,-168.61 1387.38,-168.61"/>
<polygon fill="black" stroke="black" points="1383.88,-168.61 1387.38,-178.61 1390.88,-168.61 1383.88,-168.61"/>
</g>
<!-- ImportEntriesSummaryComponent  -->
<g id="node15" class="node">
<title>ImportEntriesSummaryComponent </title>
<polygon fill="#fb8072" stroke="black" points="1344.53,-214.8 1127.47,-214.8 1127.47,-178.8 1344.53,-178.8 1344.53,-214.8"/>
<text text-anchor="middle" x="1236" y="-192.6" font-family="Times,serif" font-size="14.00">ImportEntriesSummaryComponent </text>
</g>
<!-- ImportOrderEntriesModule&#45;&gt;ImportEntriesSummaryComponent  -->
<g id="edge14" class="edge">
<title>ImportOrderEntriesModule&#45;&gt;ImportEntriesSummaryComponent </title>
<path fill="none" stroke="black" stroke-dasharray="5,2" d="M1236,-149.91C1236,-149.91 1236,-168.79 1236,-168.79"/>
<polygon fill="black" stroke="black" points="1232.5,-168.79 1236,-178.79 1239.5,-168.79 1232.5,-168.79"/>
</g>
<!-- ImportOrderEntriesComponent  -->
<g id="node16" class="node">
<title>ImportOrderEntriesComponent </title>
<polygon fill="#fb8072" stroke="black" points="1109.74,-214.8 914.26,-214.8 914.26,-178.8 1109.74,-178.8 1109.74,-214.8"/>
<text text-anchor="middle" x="1012" y="-192.6" font-family="Times,serif" font-size="14.00">ImportOrderEntriesComponent </text>
</g>
<!-- ImportOrderEntriesModule&#45;&gt;ImportOrderEntriesComponent  -->
<g id="edge15" class="edge">
<title>ImportOrderEntriesModule&#45;&gt;ImportOrderEntriesComponent </title>
<path fill="none" stroke="black" stroke-dasharray="5,2" d="M1150.79,-145.8C1092.23,-145.8 1025.01,-145.8 1025.01,-145.8 1025.01,-145.8 1025.01,-168.68 1025.01,-168.68"/>
<polygon fill="black" stroke="black" points="1021.51,-168.68 1025.01,-178.68 1028.51,-168.68 1021.51,-168.68"/>
</g>
<!-- ImportToNewSavedCartFormComponent  -->
<g id="node17" class="node">
<title>ImportToNewSavedCartFormComponent </title>
<polygon fill="#fb8072" stroke="black" points="896.58,-214.8 643.42,-214.8 643.42,-178.8 896.58,-178.8 896.58,-214.8"/>
<text text-anchor="middle" x="770" y="-192.6" font-family="Times,serif" font-size="14.00">ImportToNewSavedCartFormComponent </text>
</g>
<!-- ImportOrderEntriesModule&#45;&gt;ImportToNewSavedCartFormComponent  -->
<g id="edge16" class="edge">
<title>ImportOrderEntriesModule&#45;&gt;ImportToNewSavedCartFormComponent </title>
<path fill="none" stroke="black" stroke-dasharray="5,2" d="M1150.81,-140.8C1027.81,-140.8 815.04,-140.8 815.04,-140.8 815.04,-140.8 815.04,-168.77 815.04,-168.77"/>
<polygon fill="black" stroke="black" points="811.54,-168.77 815.04,-178.77 818.54,-168.77 811.54,-168.77"/>
</g>
<!-- ConfigModule -->
<g id="node7" class="node">
<title>ConfigModule</title>
<polygon fill="#8dd3c7" stroke="black" points="1915.44,-84.8 1912.44,-88.8 1891.44,-88.8 1888.44,-84.8 1816.56,-84.8 1816.56,-48.8 1915.44,-48.8 1915.44,-84.8"/>
<text text-anchor="middle" x="1866" y="-62.6" font-family="Times,serif" font-size="14.00">ConfigModule</text>
</g>
<!-- ConfigModule&#45;&gt;ImportOrderEntriesModule -->
<g id="edge6" class="edge">
<title>ConfigModule&#45;&gt;ImportOrderEntriesModule</title>
<path fill="none" stroke="black" d="M1866,-85.02C1866,-105.17 1866,-134.8 1866,-134.8 1866,-134.8 1330.96,-134.8 1330.96,-134.8"/>
<polygon fill="black" stroke="black" points="1330.96,-131.3 1320.96,-134.8 1330.96,-138.3 1330.96,-131.3"/>
</g>
<!-- FileUploadModule -->
<g id="node8" class="node">
<title>FileUploadModule</title>
<polygon fill="#8dd3c7" stroke="black" points="1799.05,-84.8 1796.05,-88.8 1775.05,-88.8 1772.05,-84.8 1676.95,-84.8 1676.95,-48.8 1799.05,-48.8 1799.05,-84.8"/>
<text text-anchor="middle" x="1738" y="-62.6" font-family="Times,serif" font-size="14.00">FileUploadModule</text>
</g>
<!-- FileUploadModule&#45;&gt;ImportOrderEntriesModule -->
<g id="edge7" class="edge">
<title>FileUploadModule&#45;&gt;ImportOrderEntriesModule</title>
<path fill="none" stroke="black" d="M1725.54,-85.02C1725.54,-103.63 1725.54,-129.8 1725.54,-129.8 1725.54,-129.8 1330.99,-129.8 1330.99,-129.8"/>
<polygon fill="black" stroke="black" points="1330.99,-126.3 1320.99,-129.8 1330.99,-133.3 1330.99,-126.3"/>
</g>
<!-- FormErrorsModule -->
<g id="node9" class="node">
<title>FormErrorsModule</title>
<polygon fill="#8dd3c7" stroke="black" points="1658.38,-84.8 1655.38,-88.8 1634.38,-88.8 1631.38,-84.8 1533.62,-84.8 1533.62,-48.8 1658.38,-48.8 1658.38,-84.8"/>
<text text-anchor="middle" x="1596" y="-62.6" font-family="Times,serif" font-size="14.00">FormErrorsModule</text>
</g>
<!-- FormErrorsModule&#45;&gt;ImportOrderEntriesModule -->
<g id="edge8" class="edge">
<title>FormErrorsModule&#45;&gt;ImportOrderEntriesModule</title>
<path fill="none" stroke="black" d="M1544.51,-84.83C1544.51,-101.86 1544.51,-124.8 1544.51,-124.8 1544.51,-124.8 1331.12,-124.8 1331.12,-124.8"/>
<polygon fill="black" stroke="black" points="1331.12,-121.3 1321.12,-124.8 1331.12,-128.3 1331.12,-121.3"/>
</g>
<!-- I18nModule -->
<g id="node10" class="node">
<title>I18nModule</title>
<polygon fill="#8dd3c7" stroke="black" points="1515.71,-84.8 1512.71,-88.8 1491.71,-88.8 1488.71,-84.8 1430.29,-84.8 1430.29,-48.8 1515.71,-48.8 1515.71,-84.8"/>
<text text-anchor="middle" x="1473" y="-62.6" font-family="Times,serif" font-size="14.00">I18nModule</text>
</g>
<!-- I18nModule&#45;&gt;ImportOrderEntriesModule -->
<g id="edge9" class="edge">
<title>I18nModule&#45;&gt;ImportOrderEntriesModule</title>
<path fill="none" stroke="black" d="M1473,-85.04C1473,-100.37 1473,-119.8 1473,-119.8 1473,-119.8 1331.23,-119.8 1331.23,-119.8"/>
<polygon fill="black" stroke="black" points="1331.23,-116.3 1321.23,-119.8 1331.23,-123.3 1331.23,-116.3"/>
</g>
<!-- IconModule -->
<g id="node11" class="node">
<title>IconModule</title>
<polygon fill="#8dd3c7" stroke="black" points="1412.43,-84.8 1409.43,-88.8 1388.43,-88.8 1385.43,-84.8 1327.57,-84.8 1327.57,-48.8 1412.43,-48.8 1412.43,-84.8"/>
<text text-anchor="middle" x="1370" y="-62.6" font-family="Times,serif" font-size="14.00">IconModule</text>
</g>
<!-- IconModule&#45;&gt;ImportOrderEntriesModule -->
<g id="edge10" class="edge">
<title>IconModule&#45;&gt;ImportOrderEntriesModule</title>
<path fill="none" stroke="black" d="M1327.63,-66.8C1320.6,-66.8 1315.54,-66.8 1315.54,-66.8 1315.54,-66.8 1315.54,-103.69 1315.54,-103.69"/>
<polygon fill="black" stroke="black" points="1312.04,-103.69 1315.54,-113.69 1319.04,-103.69 1312.04,-103.69"/>
</g>
<!-- KeyboardFocusModule -->
<g id="node12" class="node">
<title>KeyboardFocusModule</title>
<polygon fill="#8dd3c7" stroke="black" points="1310.2,-84.8 1307.2,-88.8 1286.2,-88.8 1283.2,-84.8 1161.8,-84.8 1161.8,-48.8 1310.2,-48.8 1310.2,-84.8"/>
<text text-anchor="middle" x="1236" y="-62.6" font-family="Times,serif" font-size="14.00">KeyboardFocusModule</text>
</g>
<!-- KeyboardFocusModule&#45;&gt;ImportOrderEntriesModule -->
<g id="edge11" class="edge">
<title>KeyboardFocusModule&#45;&gt;ImportOrderEntriesModule</title>
<path fill="none" stroke="black" d="M1236,-84.91C1236,-84.91 1236,-103.79 1236,-103.79"/>
<polygon fill="black" stroke="black" points="1232.5,-103.79 1236,-113.79 1239.5,-103.79 1232.5,-103.79"/>
</g>
</g>
</svg>
