<?xml version="1.0" encoding="UTF-8" standalone="no"?>
<!DOCTYPE svg PUBLIC "-//W3C//DTD SVG 1.1//EN"
 "http://www.w3.org/Graphics/SVG/1.1/DTD/svg11.dtd">
<!-- Generated by graphviz version 5.0.0 (20220707.1540)
 -->
<!-- Title: dependencies Pages: 1 -->
<svg width="1029pt" height="174pt"
 viewBox="0.00 0.00 1029.00 173.80" xmlns="http://www.w3.org/2000/svg" xmlns:xlink="http://www.w3.org/1999/xlink">
<g id="graph0" class="graph" transform="scale(1 1) rotate(0) translate(4 169.8)">
<title>dependencies</title>
<polygon fill="white" stroke="transparent" points="-4,4 -4,-169.8 1025,-169.8 1025,4 -4,4"/>
<text text-anchor="middle" x="510.5" y="-8.2" font-family="sans-serif" font-size="14.00">dependencies</text>
<g id="clust1" class="cluster">
<title>cluster_SavedCartCoreModule</title>
<polygon fill="none" stroke="black" stroke-dasharray="1,5" points="8,-32.8 8,-157.8 1013,-157.8 1013,-32.8 8,-32.8"/>
</g>
<g id="clust3" class="cluster">
<title>cluster_SavedCartCoreModule_imports</title>
<polygon fill="none" stroke="black" points="667,-40.8 667,-92.8 1005,-92.8 1005,-40.8 667,-40.8"/>
</g>
<g id="clust6" class="cluster">
<title>cluster_SavedCartCoreModule_providers</title>
<polygon fill="none" stroke="black" points="16,-40.8 16,-92.8 659,-92.8 659,-40.8 16,-40.8"/>
</g>
<!-- SavedCartEventsModule -->
<g id="node1" class="node">
<title>SavedCartEventsModule</title>
<polygon fill="#8dd3c7" stroke="black" points="996.97,-84.8 993.97,-88.8 972.97,-88.8 969.97,-84.8 841.03,-84.8 841.03,-48.8 996.97,-48.8 996.97,-84.8"/>
<text text-anchor="middle" x="919" y="-62.6" font-family="Times,serif" font-size="14.00">SavedCartEventsModule</text>
</g>
<!-- SavedCartCoreModule -->
<g id="node3" class="node">
<title>SavedCartCoreModule</title>
<polygon fill="#8dd3c7" stroke="black" points="629.58,-149.8 626.58,-153.8 605.58,-153.8 602.58,-149.8 484.42,-149.8 484.42,-113.8 629.58,-113.8 629.58,-149.8"/>
<text text-anchor="middle" x="557" y="-127.6" font-family="Times,serif" font-size="14.00">SavedCartCoreModule</text>
</g>
<!-- SavedCartEventsModule&#45;&gt;SavedCartCoreModule -->
<g id="edge1" class="edge">
<title>SavedCartEventsModule&#45;&gt;SavedCartCoreModule</title>
<path fill="none" stroke="black" d="M919,-85.08C919,-106.12 919,-137.8 919,-137.8 919,-137.8 639.82,-137.8 639.82,-137.8"/>
<polygon fill="black" stroke="black" points="639.82,-134.3 629.82,-137.8 639.82,-141.3 639.82,-134.3"/>
</g>
<!-- SavedCartStoreModule -->
<g id="node2" class="node">
<title>SavedCartStoreModule</title>
<polygon fill="#8dd3c7" stroke="black" points="822.92,-84.8 819.92,-88.8 798.92,-88.8 795.92,-84.8 675.08,-84.8 675.08,-48.8 822.92,-48.8 822.92,-84.8"/>
<text text-anchor="middle" x="749" y="-62.6" font-family="Times,serif" font-size="14.00">SavedCartStoreModule</text>
</g>
<!-- SavedCartStoreModule&#45;&gt;SavedCartCoreModule -->
<g id="edge2" class="edge">
<title>SavedCartStoreModule&#45;&gt;SavedCartCoreModule</title>
<path fill="none" stroke="black" d="M749,-84.82C749,-102.17 749,-125.8 749,-125.8 749,-125.8 639.59,-125.8 639.59,-125.8"/>
<polygon fill="black" stroke="black" points="639.59,-122.3 629.59,-125.8 639.59,-129.3 639.59,-122.3"/>
</g>
<!-- AsmBindCartService -->
<g id="node4" class="node">
<title>AsmBindCartService</title>
<ellipse fill="#fdb462" stroke="black" cx="557" cy="-66.8" rx="93.79" ry="18"/>
<text text-anchor="middle" x="557" y="-62.6" font-family="Times,serif" font-size="14.00">AsmBindCartService</text>
</g>
<!-- AsmBindCartService&#45;&gt;SavedCartCoreModule -->
<g id="edge3" class="edge">
<title>AsmBindCartService&#45;&gt;SavedCartCoreModule</title>
<path fill="none" stroke="black" d="M557,-84.91C557,-84.91 557,-103.79 557,-103.79"/>
<polygon fill="black" stroke="black" points="553.5,-103.79 557,-113.79 560.5,-103.79 553.5,-103.79"/>
</g>
<!-- AsmCustomerListService -->
<g id="node5" class="node">
<title>AsmCustomerListService</title>
<ellipse fill="#fdb462" stroke="black" cx="335" cy="-66.8" rx="110.63" ry="18"/>
<text text-anchor="middle" x="335" y="-62.6" font-family="Times,serif" font-size="14.00">AsmCustomerListService</text>
</g>
<!-- AsmCustomerListService&#45;&gt;SavedCartCoreModule -->
<g id="edge4" class="edge">
<title>AsmCustomerListService&#45;&gt;SavedCartCoreModule</title>
<path fill="none" stroke="black" d="M335,-84.82C335,-102.17 335,-125.8 335,-125.8 335,-125.8 474.31,-125.8 474.31,-125.8"/>
<polygon fill="black" stroke="black" points="474.31,-129.3 484.31,-125.8 474.31,-122.3 474.31,-129.3"/>
</g>
<!-- SavedCartConnector -->
<g id="node6" class="node">
<title>SavedCartConnector</title>
<ellipse fill="#fdb462" stroke="black" cx="115" cy="-66.8" rx="91.48" ry="18"/>
<text text-anchor="middle" x="115" y="-62.6" font-family="Times,serif" font-size="14.00">SavedCartConnector</text>
</g>
<!-- SavedCartConnector&#45;&gt;SavedCartCoreModule -->
<g id="edge5" class="edge">
<title>SavedCartConnector&#45;&gt;SavedCartCoreModule</title>
<path fill="none" stroke="black" d="M115,-85.08C115,-106.12 115,-137.8 115,-137.8 115,-137.8 474.01,-137.8 474.01,-137.8"/>
<polygon fill="black" stroke="black" points="474.01,-141.3 484.01,-137.8 474.01,-134.3 474.01,-141.3"/>
</g>
</g>
</svg>
