<?xml version="1.0" encoding="UTF-8" standalone="no"?>
<!DOCTYPE svg PUBLIC "-//W3C//DTD SVG 1.1//EN"
 "http://www.w3.org/Graphics/SVG/1.1/DTD/svg11.dtd">
<!-- Generated by graphviz version 5.0.0 (20220707.1540)
 -->
<!-- Title: dependencies Pages: 1 -->
<svg width="1029pt" height="174pt"
 viewBox="0.00 0.00 1029.00 173.80" xmlns="http://www.w3.org/2000/svg" xmlns:xlink="http://www.w3.org/1999/xlink">
<g id="graph0" class="graph" transform="scale(1 1) rotate(0) translate(4 169.8)">
<title>dependencies</title>
<polygon fill="white" stroke="transparent" points="-4,4 -4,-169.8 1025,-169.8 1025,4 -4,4"/>
<text text-anchor="middle" x="510.5" y="-8.2" font-family="sans-serif" font-size="14.00">dependencies</text>
<g id="clust1" class="cluster">
<title>cluster_SavedCartCoreModule</title>
<polygon fill="none" stroke="black" stroke-dasharray="1,5" points="8,-32.8 8,-157.8 1013,-157.8 1013,-32.8 8,-32.8"/>
</g>
<g id="clust6" class="cluster">
<title>cluster_SavedCartCoreModule_providers</title>
<polygon fill="none" stroke="black" points="362,-40.8 362,-92.8 1005,-92.8 1005,-40.8 362,-40.8"/>
</g>
<g id="clust3" class="cluster">
<title>cluster_SavedCartCoreModule_imports</title>
<polygon fill="none" stroke="black" points="16,-40.8 16,-92.8 354,-92.8 354,-40.8 16,-40.8"/>
</g>
<!-- SavedCartEventsModule -->
<g id="node1" class="node">
<title>SavedCartEventsModule</title>
<polygon fill="#8dd3c7" stroke="black" points="345.97,-84.8 342.97,-88.8 321.97,-88.8 318.97,-84.8 190.03,-84.8 190.03,-48.8 345.97,-48.8 345.97,-84.8"/>
<text text-anchor="middle" x="268" y="-62.6" font-family="Times,serif" font-size="14.00">SavedCartEventsModule</text>
</g>
<!-- SavedCartCoreModule -->
<g id="node3" class="node">
<title>SavedCartCoreModule</title>
<polygon fill="#8dd3c7" stroke="black" points="533.58,-149.8 530.58,-153.8 509.58,-153.8 506.58,-149.8 388.42,-149.8 388.42,-113.8 533.58,-113.8 533.58,-149.8"/>
<text text-anchor="middle" x="461" y="-127.6" font-family="Times,serif" font-size="14.00">SavedCartCoreModule</text>
</g>
<!-- SavedCartEventsModule&#45;&gt;SavedCartCoreModule -->
<g id="edge1" class="edge">
<title>SavedCartEventsModule&#45;&gt;SavedCartCoreModule</title>
<path fill="none" stroke="black" d="M268,-84.82C268,-102.17 268,-125.8 268,-125.8 268,-125.8 378.31,-125.8 378.31,-125.8"/>
<polygon fill="black" stroke="black" points="378.31,-129.3 388.31,-125.8 378.31,-122.3 378.31,-129.3"/>
</g>
<!-- SavedCartStoreModule -->
<g id="node2" class="node">
<title>SavedCartStoreModule</title>
<polygon fill="#8dd3c7" stroke="black" points="171.92,-84.8 168.92,-88.8 147.92,-88.8 144.92,-84.8 24.08,-84.8 24.08,-48.8 171.92,-48.8 171.92,-84.8"/>
<text text-anchor="middle" x="98" y="-62.6" font-family="Times,serif" font-size="14.00">SavedCartStoreModule</text>
</g>
<!-- SavedCartStoreModule&#45;&gt;SavedCartCoreModule -->
<g id="edge2" class="edge">
<title>SavedCartStoreModule&#45;&gt;SavedCartCoreModule</title>
<path fill="none" stroke="black" d="M98,-85.08C98,-106.12 98,-137.8 98,-137.8 98,-137.8 378.41,-137.8 378.41,-137.8"/>
<polygon fill="black" stroke="black" points="378.41,-141.3 388.41,-137.8 378.41,-134.3 378.41,-141.3"/>
</g>
<!-- AsmBindCartService -->
<g id="node4" class="node">
<title>AsmBindCartService</title>
<ellipse fill="#fdb462" stroke="black" cx="903" cy="-66.8" rx="93.79" ry="18"/>
<text text-anchor="middle" x="903" y="-62.6" font-family="Times,serif" font-size="14.00">AsmBindCartService</text>
</g>
<!-- AsmBindCartService&#45;&gt;SavedCartCoreModule -->
<g id="edge3" class="edge">
<title>AsmBindCartService&#45;&gt;SavedCartCoreModule</title>
<path fill="none" stroke="black" d="M903,-85.08C903,-106.12 903,-137.8 903,-137.8 903,-137.8 543.99,-137.8 543.99,-137.8"/>
<polygon fill="black" stroke="black" points="543.99,-134.3 533.99,-137.8 543.99,-141.3 543.99,-134.3"/>
</g>
<!-- AsmCustomerListService -->
<g id="node5" class="node">
<title>AsmCustomerListService</title>
<ellipse fill="#fdb462" stroke="black" cx="681" cy="-66.8" rx="110.63" ry="18"/>
<text text-anchor="middle" x="681" y="-62.6" font-family="Times,serif" font-size="14.00">AsmCustomerListService</text>
</g>
<!-- AsmCustomerListService&#45;&gt;SavedCartCoreModule -->
<g id="edge4" class="edge">
<title>AsmCustomerListService&#45;&gt;SavedCartCoreModule</title>
<path fill="none" stroke="black" d="M681,-84.82C681,-102.17 681,-125.8 681,-125.8 681,-125.8 543.65,-125.8 543.65,-125.8"/>
<polygon fill="black" stroke="black" points="543.65,-122.3 533.65,-125.8 543.65,-129.3 543.65,-122.3"/>
</g>
<!-- SavedCartConnector -->
<g id="node6" class="node">
<title>SavedCartConnector</title>
<ellipse fill="#fdb462" stroke="black" cx="461" cy="-66.8" rx="91.48" ry="18"/>
<text text-anchor="middle" x="461" y="-62.6" font-family="Times,serif" font-size="14.00">SavedCartConnector</text>
</g>
<!-- SavedCartConnector&#45;&gt;SavedCartCoreModule -->
<g id="edge5" class="edge">
<title>SavedCartConnector&#45;&gt;SavedCartCoreModule</title>
<path fill="none" stroke="black" d="M461,-84.91C461,-84.91 461,-103.79 461,-103.79"/>
<polygon fill="black" stroke="black" points="457.5,-103.79 461,-113.79 464.5,-103.79 457.5,-103.79"/>
</g>
</g>
</svg>
