<?xml version="1.0" encoding="UTF-8" standalone="no"?>
<!DOCTYPE svg PUBLIC "-//W3C//DTD SVG 1.1//EN"
 "http://www.w3.org/Graphics/SVG/1.1/DTD/svg11.dtd">
<!-- Generated by graphviz version 5.0.0 (20220707.1540)
 -->
<!-- Title: dependencies Pages: 1 -->
<svg width="1134pt" height="247pt"
 viewBox="0.00 0.00 1134.00 246.80" xmlns="http://www.w3.org/2000/svg" xmlns:xlink="http://www.w3.org/1999/xlink">
<g id="graph0" class="graph" transform="scale(1 1) rotate(0) translate(4 242.8)">
<title>dependencies</title>
<polygon fill="white" stroke="transparent" points="-4,4 -4,-242.8 1130,-242.8 1130,4 -4,4"/>
<text text-anchor="middle" x="563" y="-8.2" font-family="sans-serif" font-size="14.00">dependencies</text>
<g id="clust1" class="cluster">
<title>cluster_AddressFormModule</title>
<polygon fill="none" stroke="black" stroke-dasharray="1,5" points="8,-32.8 8,-230.8 1118,-230.8 1118,-32.8 8,-32.8"/>
</g>
<g id="clust2" class="cluster">
<title>cluster_AddressFormModule_declarations</title>
<polygon fill="none" stroke="black" points="696,-40.8 696,-92.8 1110,-92.8 1110,-40.8 696,-40.8"/>
</g>
<g id="clust6" class="cluster">
<title>cluster_AddressFormModule_exports</title>
<polygon fill="none" stroke="black" points="268,-170.8 268,-222.8 690,-222.8 690,-170.8 268,-170.8"/>
</g>
<g id="clust5" class="cluster">
<title>cluster_AddressFormModule_imports</title>
<polygon fill="none" stroke="black" points="16,-40.8 16,-92.8 688,-92.8 688,-40.8 16,-40.8"/>
</g>
<!-- AddressFormComponent -->
<g id="node1" class="node">
<title>AddressFormComponent</title>
<polygon fill="#ffffb3" stroke="black" points="1101.55,-84.8 944.45,-84.8 944.45,-48.8 1101.55,-48.8 1101.55,-84.8"/>
<text text-anchor="middle" x="1023" y="-62.6" font-family="Times,serif" font-size="14.00">AddressFormComponent</text>
</g>
<!-- AddressFormModule -->
<g id="node3" class="node">
<title>AddressFormModule</title>
<polygon fill="#8dd3c7" stroke="black" points="562.77,-149.8 559.77,-153.8 538.77,-153.8 535.77,-149.8 427.23,-149.8 427.23,-113.8 562.77,-113.8 562.77,-149.8"/>
<text text-anchor="middle" x="495" y="-127.6" font-family="Times,serif" font-size="14.00">AddressFormModule</text>
</g>
<!-- AddressFormComponent&#45;&gt;AddressFormModule -->
<g id="edge1" class="edge">
<title>AddressFormComponent&#45;&gt;AddressFormModule</title>
<path fill="none" stroke="black" d="M1023,-85.08C1023,-106.12 1023,-137.8 1023,-137.8 1023,-137.8 572.95,-137.8 572.95,-137.8"/>
<polygon fill="black" stroke="black" points="572.95,-134.3 562.95,-137.8 572.95,-141.3 572.95,-134.3"/>
</g>
<!-- SuggestedAddressDialogComponent -->
<g id="node2" class="node">
<title>SuggestedAddressDialogComponent</title>
<polygon fill="#ffffb3" stroke="black" points="926.37,-84.8 703.63,-84.8 703.63,-48.8 926.37,-48.8 926.37,-84.8"/>
<text text-anchor="middle" x="815" y="-62.6" font-family="Times,serif" font-size="14.00">SuggestedAddressDialogComponent</text>
</g>
<!-- SuggestedAddressDialogComponent&#45;&gt;AddressFormModule -->
<g id="edge2" class="edge">
<title>SuggestedAddressDialogComponent&#45;&gt;AddressFormModule</title>
<path fill="none" stroke="black" d="M815,-84.82C815,-102.17 815,-125.8 815,-125.8 815,-125.8 572.86,-125.8 572.86,-125.8"/>
<polygon fill="black" stroke="black" points="572.86,-122.3 562.86,-125.8 572.86,-129.3 572.86,-122.3"/>
</g>
<!-- AddressFormComponent  -->
<g id="node9" class="node">
<title>AddressFormComponent </title>
<polygon fill="#fb8072" stroke="black" points="681.55,-214.8 520.45,-214.8 520.45,-178.8 681.55,-178.8 681.55,-214.8"/>
<text text-anchor="middle" x="601" y="-192.6" font-family="Times,serif" font-size="14.00">AddressFormComponent </text>
</g>
<!-- AddressFormModule&#45;&gt;AddressFormComponent  -->
<g id="edge8" class="edge">
<title>AddressFormModule&#45;&gt;AddressFormComponent </title>
<path fill="none" stroke="black" stroke-dasharray="5,2" d="M541.68,-149.91C541.68,-149.91 541.68,-168.79 541.68,-168.79"/>
<polygon fill="black" stroke="black" points="538.18,-168.79 541.68,-178.79 545.18,-168.79 538.18,-168.79"/>
</g>
<!-- SuggestedAddressDialogComponent  -->
<g id="node10" class="node">
<title>SuggestedAddressDialogComponent </title>
<polygon fill="#fb8072" stroke="black" points="502.37,-214.8 275.63,-214.8 275.63,-178.8 502.37,-178.8 502.37,-214.8"/>
<text text-anchor="middle" x="389" y="-192.6" font-family="Times,serif" font-size="14.00">SuggestedAddressDialogComponent </text>
</g>
<!-- AddressFormModule&#45;&gt;SuggestedAddressDialogComponent  -->
<g id="edge9" class="edge">
<title>AddressFormModule&#45;&gt;SuggestedAddressDialogComponent </title>
<path fill="none" stroke="black" stroke-dasharray="5,2" d="M464.65,-149.91C464.65,-149.91 464.65,-168.79 464.65,-168.79"/>
<polygon fill="black" stroke="black" points="461.15,-168.79 464.65,-178.79 468.15,-168.79 461.15,-168.79"/>
</g>
<!-- FormErrorsModule -->
<g id="node4" class="node">
<title>FormErrorsModule</title>
<polygon fill="#8dd3c7" stroke="black" points="680.38,-84.8 677.38,-88.8 656.38,-88.8 653.38,-84.8 555.62,-84.8 555.62,-48.8 680.38,-48.8 680.38,-84.8"/>
<text text-anchor="middle" x="618" y="-62.6" font-family="Times,serif" font-size="14.00">FormErrorsModule</text>
</g>
<!-- FormErrorsModule&#45;&gt;AddressFormModule -->
<g id="edge3" class="edge">
<title>FormErrorsModule&#45;&gt;AddressFormModule</title>
<path fill="none" stroke="black" d="M559.22,-84.91C559.22,-84.91 559.22,-103.79 559.22,-103.79"/>
<polygon fill="black" stroke="black" points="555.72,-103.79 559.22,-113.79 562.72,-103.79 555.72,-103.79"/>
</g>
<!-- I18nModule -->
<g id="node5" class="node">
<title>I18nModule</title>
<polygon fill="#8dd3c7" stroke="black" points="537.71,-84.8 534.71,-88.8 513.71,-88.8 510.71,-84.8 452.29,-84.8 452.29,-48.8 537.71,-48.8 537.71,-84.8"/>
<text text-anchor="middle" x="495" y="-62.6" font-family="Times,serif" font-size="14.00">I18nModule</text>
</g>
<!-- I18nModule&#45;&gt;AddressFormModule -->
<g id="edge4" class="edge">
<title>I18nModule&#45;&gt;AddressFormModule</title>
<path fill="none" stroke="black" d="M495,-84.91C495,-84.91 495,-103.79 495,-103.79"/>
<polygon fill="black" stroke="black" points="491.5,-103.79 495,-113.79 498.5,-103.79 491.5,-103.79"/>
</g>
<!-- IconModule -->
<g id="node6" class="node">
<title>IconModule</title>
<polygon fill="#8dd3c7" stroke="black" points="434.43,-84.8 431.43,-88.8 410.43,-88.8 407.43,-84.8 349.57,-84.8 349.57,-48.8 434.43,-48.8 434.43,-84.8"/>
<text text-anchor="middle" x="392" y="-62.6" font-family="Times,serif" font-size="14.00">IconModule</text>
</g>
<!-- IconModule&#45;&gt;AddressFormModule -->
<g id="edge5" class="edge">
<title>IconModule&#45;&gt;AddressFormModule</title>
<path fill="none" stroke="black" d="M430.66,-84.91C430.66,-84.91 430.66,-103.79 430.66,-103.79"/>
<polygon fill="black" stroke="black" points="427.16,-103.79 430.66,-113.79 434.16,-103.79 427.16,-103.79"/>
</g>
<!-- KeyboardFocusModule -->
<g id="node7" class="node">
<title>KeyboardFocusModule</title>
<polygon fill="#8dd3c7" stroke="black" points="332.2,-84.8 329.2,-88.8 308.2,-88.8 305.2,-84.8 183.8,-84.8 183.8,-48.8 332.2,-48.8 332.2,-84.8"/>
<text text-anchor="middle" x="258" y="-62.6" font-family="Times,serif" font-size="14.00">KeyboardFocusModule</text>
</g>
<!-- KeyboardFocusModule&#45;&gt;AddressFormModule -->
<g id="edge6" class="edge">
<title>KeyboardFocusModule&#45;&gt;AddressFormModule</title>
<path fill="none" stroke="black" d="M303.96,-84.82C303.96,-102.17 303.96,-125.8 303.96,-125.8 303.96,-125.8 417.11,-125.8 417.11,-125.8"/>
<polygon fill="black" stroke="black" points="417.11,-129.3 427.11,-125.8 417.11,-122.3 417.11,-129.3"/>
</g>
<!-- NgSelectA11yModule -->
<g id="node8" class="node">
<title>NgSelectA11yModule</title>
<polygon fill="#8dd3c7" stroke="black" points="165.98,-84.8 162.98,-88.8 141.98,-88.8 138.98,-84.8 24.02,-84.8 24.02,-48.8 165.98,-48.8 165.98,-84.8"/>
<text text-anchor="middle" x="95" y="-62.6" font-family="Times,serif" font-size="14.00">NgSelectA11yModule</text>
</g>
<!-- NgSelectA11yModule&#45;&gt;AddressFormModule -->
<g id="edge7" class="edge">
<title>NgSelectA11yModule&#45;&gt;AddressFormModule</title>
<path fill="none" stroke="black" d="M95,-85.08C95,-106.12 95,-137.8 95,-137.8 95,-137.8 417.15,-137.8 417.15,-137.8"/>
<polygon fill="black" stroke="black" points="417.15,-141.3 427.15,-137.8 417.15,-134.3 417.15,-141.3"/>
</g>
</g>
</svg>
