<?xml version="1.0" encoding="UTF-8" standalone="no"?>
<!DOCTYPE svg PUBLIC "-//W3C//DTD SVG 1.1//EN"
 "http://www.w3.org/Graphics/SVG/1.1/DTD/svg11.dtd">
<!-- Generated by graphviz version 5.0.0 (20220707.1540)
 -->
<!-- Title: dependencies Pages: 1 -->
<svg width="1201pt" height="174pt"
 viewBox="0.00 0.00 1201.00 173.80" xmlns="http://www.w3.org/2000/svg" xmlns:xlink="http://www.w3.org/1999/xlink">
<g id="graph0" class="graph" transform="scale(1 1) rotate(0) translate(4 169.8)">
<title>dependencies</title>
<polygon fill="white" stroke="transparent" points="-4,4 -4,-169.8 1197,-169.8 1197,4 -4,4"/>
<text text-anchor="middle" x="596.5" y="-8.2" font-family="sans-serif" font-size="14.00">dependencies</text>
<g id="clust1" class="cluster">
<title>cluster_ProductVariantsContainerModule</title>
<polygon fill="none" stroke="black" stroke-dasharray="1,5" points="8,-32.8 8,-157.8 1185,-157.8 1185,-32.8 8,-32.8"/>
</g>
<g id="clust2" class="cluster">
<title>cluster_ProductVariantsContainerModule_declarations</title>
<polygon fill="none" stroke="black" points="933,-40.8 933,-92.8 1177,-92.8 1177,-40.8 933,-40.8"/>
</g>
<g id="clust4" class="cluster">
<title>cluster_ProductVariantsContainerModule_imports</title>
<polygon fill="none" stroke="black" points="16,-40.8 16,-92.8 925,-92.8 925,-40.8 16,-40.8"/>
</g>
<!-- ProductVariantsContainerComponent -->
<g id="node1" class="node">
<title>ProductVariantsContainerComponent</title>
<polygon fill="#ffffb3" stroke="black" points="1168.52,-84.8 941.48,-84.8 941.48,-48.8 1168.52,-48.8 1168.52,-84.8"/>
<text text-anchor="middle" x="1055" y="-62.6" font-family="Times,serif" font-size="14.00">ProductVariantsContainerComponent</text>
</g>
<!-- ProductVariantsContainerModule -->
<g id="node2" class="node">
<title>ProductVariantsContainerModule</title>
<polygon fill="#8dd3c7" stroke="black" points="685.74,-149.8 682.74,-153.8 661.74,-153.8 658.74,-149.8 480.26,-149.8 480.26,-113.8 685.74,-113.8 685.74,-149.8"/>
<text text-anchor="middle" x="583" y="-127.6" font-family="Times,serif" font-size="14.00">ProductVariantsContainerModule</text>
</g>
<!-- ProductVariantsContainerComponent&#45;&gt;ProductVariantsContainerModule -->
<g id="edge1" class="edge">
<title>ProductVariantsContainerComponent&#45;&gt;ProductVariantsContainerModule</title>
<path fill="none" stroke="black" d="M1055,-85.08C1055,-106.12 1055,-137.8 1055,-137.8 1055,-137.8 696,-137.8 696,-137.8"/>
<polygon fill="black" stroke="black" points="696,-134.3 686,-137.8 696,-141.3 696,-134.3"/>
</g>
<!-- I18nModule -->
<g id="node3" class="node">
<title>I18nModule</title>
<polygon fill="#8dd3c7" stroke="black" points="916.71,-84.8 913.71,-88.8 892.71,-88.8 889.71,-84.8 831.29,-84.8 831.29,-48.8 916.71,-48.8 916.71,-84.8"/>
<text text-anchor="middle" x="874" y="-62.6" font-family="Times,serif" font-size="14.00">I18nModule</text>
</g>
<!-- I18nModule&#45;&gt;ProductVariantsContainerModule -->
<g id="edge2" class="edge">
<title>I18nModule&#45;&gt;ProductVariantsContainerModule</title>
<path fill="none" stroke="black" d="M874,-84.82C874,-102.17 874,-125.8 874,-125.8 874,-125.8 696.01,-125.8 696.01,-125.8"/>
<polygon fill="black" stroke="black" points="696.01,-122.3 686.01,-125.8 696.01,-129.3 696.01,-122.3"/>
</g>
<!-- ProductVariantColorSelectorModule -->
<g id="node4" class="node">
<title>ProductVariantColorSelectorModule</title>
<polygon fill="#8dd3c7" stroke="black" points="813.34,-84.8 810.34,-88.8 789.34,-88.8 786.34,-84.8 590.66,-84.8 590.66,-48.8 813.34,-48.8 813.34,-84.8"/>
<text text-anchor="middle" x="702" y="-62.6" font-family="Times,serif" font-size="14.00">ProductVariantColorSelectorModule</text>
</g>
<!-- ProductVariantColorSelectorModule&#45;&gt;ProductVariantsContainerModule -->
<g id="edge3" class="edge">
<title>ProductVariantColorSelectorModule&#45;&gt;ProductVariantsContainerModule</title>
<path fill="none" stroke="black" d="M638.22,-84.91C638.22,-84.91 638.22,-103.79 638.22,-103.79"/>
<polygon fill="black" stroke="black" points="634.72,-103.79 638.22,-113.79 641.72,-103.79 634.72,-103.79"/>
</g>
<!-- ProductVariantSizeSelectorModule -->
<g id="node5" class="node">
<title>ProductVariantSizeSelectorModule</title>
<polygon fill="#8dd3c7" stroke="black" points="572.56,-84.8 569.56,-88.8 548.56,-88.8 545.56,-84.8 357.44,-84.8 357.44,-48.8 572.56,-48.8 572.56,-84.8"/>
<text text-anchor="middle" x="465" y="-62.6" font-family="Times,serif" font-size="14.00">ProductVariantSizeSelectorModule</text>
</g>
<!-- ProductVariantSizeSelectorModule&#45;&gt;ProductVariantsContainerModule -->
<g id="edge4" class="edge">
<title>ProductVariantSizeSelectorModule&#45;&gt;ProductVariantsContainerModule</title>
<path fill="none" stroke="black" d="M526.33,-84.91C526.33,-84.91 526.33,-103.79 526.33,-103.79"/>
<polygon fill="black" stroke="black" points="522.83,-103.79 526.33,-113.79 529.83,-103.79 522.83,-103.79"/>
</g>
<!-- ProductVariantStyleSelectorModule -->
<g id="node6" class="node">
<title>ProductVariantStyleSelectorModule</title>
<polygon fill="#8dd3c7" stroke="black" points="339.73,-84.8 336.73,-88.8 315.73,-88.8 312.73,-84.8 120.27,-84.8 120.27,-48.8 339.73,-48.8 339.73,-84.8"/>
<text text-anchor="middle" x="230" y="-62.6" font-family="Times,serif" font-size="14.00">ProductVariantStyleSelectorModule</text>
</g>
<!-- ProductVariantStyleSelectorModule&#45;&gt;ProductVariantsContainerModule -->
<g id="edge5" class="edge">
<title>ProductVariantStyleSelectorModule&#45;&gt;ProductVariantsContainerModule</title>
<path fill="none" stroke="black" d="M230,-84.82C230,-102.17 230,-125.8 230,-125.8 230,-125.8 469.95,-125.8 469.95,-125.8"/>
<polygon fill="black" stroke="black" points="469.95,-129.3 479.95,-125.8 469.95,-122.3 469.95,-129.3"/>
</g>
<!-- UrlModule -->
<g id="node7" class="node">
<title>UrlModule</title>
<polygon fill="#8dd3c7" stroke="black" points="102.21,-84.8 99.21,-88.8 78.21,-88.8 75.21,-84.8 23.79,-84.8 23.79,-48.8 102.21,-48.8 102.21,-84.8"/>
<text text-anchor="middle" x="63" y="-62.6" font-family="Times,serif" font-size="14.00">UrlModule</text>
</g>
<!-- UrlModule&#45;&gt;ProductVariantsContainerModule -->
<g id="edge6" class="edge">
<title>UrlModule&#45;&gt;ProductVariantsContainerModule</title>
<path fill="none" stroke="black" d="M63,-85.08C63,-106.12 63,-137.8 63,-137.8 63,-137.8 469.95,-137.8 469.95,-137.8"/>
<polygon fill="black" stroke="black" points="469.95,-141.3 479.95,-137.8 469.95,-134.3 469.95,-141.3"/>
</g>
</g>
</svg>
