<?xml version="1.0" encoding="UTF-8" standalone="no"?>
<!DOCTYPE svg PUBLIC "-//W3C//DTD SVG 1.1//EN"
 "http://www.w3.org/Graphics/SVG/1.1/DTD/svg11.dtd">
<!-- Generated by graphviz version 5.0.0 (20220707.1540)
 -->
<!-- Title: dependencies Pages: 1 -->
<svg width="495pt" height="247pt"
 viewBox="0.00 0.00 495.00 246.80" xmlns="http://www.w3.org/2000/svg" xmlns:xlink="http://www.w3.org/1999/xlink">
<g id="graph0" class="graph" transform="scale(1 1) rotate(0) translate(4 242.8)">
<title>dependencies</title>
<polygon fill="white" stroke="transparent" points="-4,4 -4,-242.8 491,-242.8 491,4 -4,4"/>
<text text-anchor="middle" x="243.5" y="-8.2" font-family="sans-serif" font-size="14.00">dependencies</text>
<g id="clust1" class="cluster">
<title>cluster_NotificationPreferenceModule</title>
<polygon fill="none" stroke="black" stroke-dasharray="1,5" points="8,-32.8 8,-230.8 479,-230.8 479,-32.8 8,-32.8"/>
</g>
<g id="clust5" class="cluster">
<title>cluster_NotificationPreferenceModule_exports</title>
<polygon fill="none" stroke="black" points="194,-170.8 194,-222.8 422,-222.8 422,-170.8 194,-170.8"/>
</g>
<g id="clust4" class="cluster">
<title>cluster_NotificationPreferenceModule_imports</title>
<polygon fill="none" stroke="black" points="248,-40.8 248,-92.8 471,-92.8 471,-40.8 248,-40.8"/>
</g>
<g id="clust2" class="cluster">
<title>cluster_NotificationPreferenceModule_declarations</title>
<polygon fill="none" stroke="black" points="16,-40.8 16,-92.8 240,-92.8 240,-40.8 16,-40.8"/>
</g>
<!-- NotificationPreferenceComponent -->
<g id="node1" class="node">
<title>NotificationPreferenceComponent</title>
<polygon fill="#ffffb3" stroke="black" points="232.32,-84.8 23.68,-84.8 23.68,-48.8 232.32,-48.8 232.32,-84.8"/>
<text text-anchor="middle" x="128" y="-62.6" font-family="Times,serif" font-size="14.00">NotificationPreferenceComponent</text>
</g>
<!-- NotificationPreferenceModule -->
<g id="node2" class="node">
<title>NotificationPreferenceModule</title>
<polygon fill="#8dd3c7" stroke="black" points="401.54,-149.8 398.54,-153.8 377.54,-153.8 374.54,-149.8 214.46,-149.8 214.46,-113.8 401.54,-113.8 401.54,-149.8"/>
<text text-anchor="middle" x="308" y="-127.6" font-family="Times,serif" font-size="14.00">NotificationPreferenceModule</text>
</g>
<!-- NotificationPreferenceComponent&#45;&gt;NotificationPreferenceModule -->
<g id="edge1" class="edge">
<title>NotificationPreferenceComponent&#45;&gt;NotificationPreferenceModule</title>
<path fill="none" stroke="black" d="M223.44,-84.91C223.44,-84.91 223.44,-103.79 223.44,-103.79"/>
<polygon fill="black" stroke="black" points="219.94,-103.79 223.44,-113.79 226.94,-103.79 219.94,-103.79"/>
</g>
<!-- NotificationPreferenceComponent  -->
<g id="node5" class="node">
<title>NotificationPreferenceComponent </title>
<polygon fill="#fb8072" stroke="black" points="414.32,-214.8 201.68,-214.8 201.68,-178.8 414.32,-178.8 414.32,-214.8"/>
<text text-anchor="middle" x="308" y="-192.6" font-family="Times,serif" font-size="14.00">NotificationPreferenceComponent </text>
</g>
<!-- NotificationPreferenceModule&#45;&gt;NotificationPreferenceComponent  -->
<g id="edge4" class="edge">
<title>NotificationPreferenceModule&#45;&gt;NotificationPreferenceComponent </title>
<path fill="none" stroke="black" stroke-dasharray="5,2" d="M308,-149.91C308,-149.91 308,-168.79 308,-168.79"/>
<polygon fill="black" stroke="black" points="304.5,-168.79 308,-178.79 311.5,-168.79 304.5,-168.79"/>
</g>
<!-- I18nModule -->
<g id="node3" class="node">
<title>I18nModule</title>
<polygon fill="#8dd3c7" stroke="black" points="462.71,-84.8 459.71,-88.8 438.71,-88.8 435.71,-84.8 377.29,-84.8 377.29,-48.8 462.71,-48.8 462.71,-84.8"/>
<text text-anchor="middle" x="420" y="-62.6" font-family="Times,serif" font-size="14.00">I18nModule</text>
</g>
<!-- I18nModule&#45;&gt;NotificationPreferenceModule -->
<g id="edge2" class="edge">
<title>I18nModule&#45;&gt;NotificationPreferenceModule</title>
<path fill="none" stroke="black" d="M389.46,-84.91C389.46,-84.91 389.46,-103.79 389.46,-103.79"/>
<polygon fill="black" stroke="black" points="385.96,-103.79 389.46,-113.79 392.96,-103.79 385.96,-103.79"/>
</g>
<!-- SpinnerModule -->
<g id="node4" class="node">
<title>SpinnerModule</title>
<polygon fill="#8dd3c7" stroke="black" points="359.6,-84.8 356.6,-88.8 335.6,-88.8 332.6,-84.8 256.4,-84.8 256.4,-48.8 359.6,-48.8 359.6,-84.8"/>
<text text-anchor="middle" x="308" y="-62.6" font-family="Times,serif" font-size="14.00">SpinnerModule</text>
</g>
<!-- SpinnerModule&#45;&gt;NotificationPreferenceModule -->
<g id="edge3" class="edge">
<title>SpinnerModule&#45;&gt;NotificationPreferenceModule</title>
<path fill="none" stroke="black" d="M308,-84.91C308,-84.91 308,-103.79 308,-103.79"/>
<polygon fill="black" stroke="black" points="304.5,-103.79 308,-113.79 311.5,-103.79 304.5,-103.79"/>
</g>
</g>
</svg>
