<?xml version="1.0" encoding="UTF-8" standalone="no"?>
<!DOCTYPE svg PUBLIC "-//W3C//DTD SVG 1.1//EN"
 "http://www.w3.org/Graphics/SVG/1.1/DTD/svg11.dtd">
<!-- Generated by graphviz version 5.0.0 (20220707.1540)
 -->
<!-- Title: dependencies Pages: 1 -->
<svg width="674pt" height="174pt"
 viewBox="0.00 0.00 674.00 173.80" xmlns="http://www.w3.org/2000/svg" xmlns:xlink="http://www.w3.org/1999/xlink">
<g id="graph0" class="graph" transform="scale(1 1) rotate(0) translate(4 169.8)">
<title>dependencies</title>
<polygon fill="white" stroke="transparent" points="-4,4 -4,-169.8 670,-169.8 670,4 -4,4"/>
<text text-anchor="middle" x="333" y="-8.2" font-family="sans-serif" font-size="14.00">dependencies</text>
<g id="clust1" class="cluster">
<title>cluster_CheckoutScheduledReplenishmentComponentsModule</title>
<polygon fill="none" stroke="black" stroke-dasharray="1,5" points="8,-32.8 8,-157.8 658,-157.8 658,-32.8 8,-32.8"/>
</g>
<g id="clust3" class="cluster">
<title>cluster_CheckoutScheduledReplenishmentComponentsModule_imports</title>
<polygon fill="none" stroke="black" points="16,-40.8 16,-92.8 650,-92.8 650,-40.8 16,-40.8"/>
</g>
<!-- CheckoutScheduleReplenishmentOrderModule -->
<g id="node1" class="node">
<title>CheckoutScheduleReplenishmentOrderModule</title>
<polygon fill="#8dd3c7" stroke="black" points="641.66,-84.8 638.66,-88.8 617.66,-88.8 614.66,-84.8 360.34,-84.8 360.34,-48.8 641.66,-48.8 641.66,-84.8"/>
<text text-anchor="middle" x="501" y="-62.6" font-family="Times,serif" font-size="14.00">CheckoutScheduleReplenishmentOrderModule</text>
</g>
<!-- CheckoutScheduledReplenishmentComponentsModule -->
<g id="node3" class="node">
<title>CheckoutScheduledReplenishmentComponentsModule</title>
<polygon fill="#8dd3c7" stroke="black" points="498.29,-149.8 495.29,-153.8 474.29,-153.8 471.29,-149.8 171.71,-149.8 171.71,-113.8 498.29,-113.8 498.29,-149.8"/>
<text text-anchor="middle" x="335" y="-127.6" font-family="Times,serif" font-size="14.00">CheckoutScheduledReplenishmentComponentsModule</text>
</g>
<!-- CheckoutScheduleReplenishmentOrderModule&#45;&gt;CheckoutScheduledReplenishmentComponentsModule -->
<g id="edge1" class="edge">
<title>CheckoutScheduleReplenishmentOrderModule&#45;&gt;CheckoutScheduledReplenishmentComponentsModule</title>
<path fill="none" stroke="black" d="M429.28,-84.91C429.28,-84.91 429.28,-103.79 429.28,-103.79"/>
<polygon fill="black" stroke="black" points="425.78,-103.79 429.28,-113.79 432.78,-103.79 425.78,-103.79"/>
</g>
<!-- CheckoutScheduledReplenishmentPlaceOrderModule -->
<g id="node2" class="node">
<title>CheckoutScheduledReplenishmentPlaceOrderModule</title>
<polygon fill="#8dd3c7" stroke="black" points="342.48,-84.8 339.48,-88.8 318.48,-88.8 315.48,-84.8 23.52,-84.8 23.52,-48.8 342.48,-48.8 342.48,-84.8"/>
<text text-anchor="middle" x="183" y="-62.6" font-family="Times,serif" font-size="14.00">CheckoutScheduledReplenishmentPlaceOrderModule</text>
</g>
<!-- CheckoutScheduledReplenishmentPlaceOrderModule&#45;&gt;CheckoutScheduledReplenishmentComponentsModule -->
<g id="edge2" class="edge">
<title>CheckoutScheduledReplenishmentPlaceOrderModule&#45;&gt;CheckoutScheduledReplenishmentComponentsModule</title>
<path fill="none" stroke="black" d="M257.05,-84.91C257.05,-84.91 257.05,-103.79 257.05,-103.79"/>
<polygon fill="black" stroke="black" points="253.55,-103.79 257.05,-113.79 260.55,-103.79 253.55,-103.79"/>
</g>
</g>
</svg>
