<?xml version="1.0" encoding="UTF-8" standalone="no"?>
<!DOCTYPE svg PUBLIC "-//W3C//DTD SVG 1.1//EN"
 "http://www.w3.org/Graphics/SVG/1.1/DTD/svg11.dtd">
<!-- Generated by graphviz version 5.0.0 (20220707.1540)
 -->
<!-- Title: dependencies Pages: 1 -->
<svg width="538pt" height="247pt"
 viewBox="0.00 0.00 538.00 246.80" xmlns="http://www.w3.org/2000/svg" xmlns:xlink="http://www.w3.org/1999/xlink">
<g id="graph0" class="graph" transform="scale(1 1) rotate(0) translate(4 242.8)">
<title>dependencies</title>
<polygon fill="white" stroke="transparent" points="-4,4 -4,-242.8 534,-242.8 534,4 -4,4"/>
<text text-anchor="middle" x="265" y="-8.2" font-family="sans-serif" font-size="14.00">dependencies</text>
<g id="clust1" class="cluster">
<title>cluster_MessageComponentModule</title>
<polygon fill="none" stroke="black" stroke-dasharray="1,5" points="8,-32.8 8,-230.8 522,-230.8 522,-32.8 8,-32.8"/>
</g>
<g id="clust5" class="cluster">
<title>cluster_MessageComponentModule_exports</title>
<polygon fill="none" stroke="black" points="196,-170.8 196,-222.8 346,-222.8 346,-170.8 196,-170.8"/>
</g>
<g id="clust4" class="cluster">
<title>cluster_MessageComponentModule_imports</title>
<polygon fill="none" stroke="black" points="170,-40.8 170,-92.8 514,-92.8 514,-40.8 170,-40.8"/>
</g>
<g id="clust2" class="cluster">
<title>cluster_MessageComponentModule_declarations</title>
<polygon fill="none" stroke="black" points="16,-40.8 16,-92.8 162,-92.8 162,-40.8 16,-40.8"/>
</g>
<!-- MessageComponent -->
<g id="node1" class="node">
<title>MessageComponent</title>
<polygon fill="#ffffb3" stroke="black" points="154.32,-84.8 23.68,-84.8 23.68,-48.8 154.32,-48.8 154.32,-84.8"/>
<text text-anchor="middle" x="89" y="-62.6" font-family="Times,serif" font-size="14.00">MessageComponent</text>
</g>
<!-- MessageComponentModule -->
<g id="node2" class="node">
<title>MessageComponentModule</title>
<polygon fill="#8dd3c7" stroke="black" points="357.87,-149.8 354.87,-153.8 333.87,-153.8 330.87,-149.8 184.13,-149.8 184.13,-113.8 357.87,-113.8 357.87,-149.8"/>
<text text-anchor="middle" x="271" y="-127.6" font-family="Times,serif" font-size="14.00">MessageComponentModule</text>
</g>
<!-- MessageComponent&#45;&gt;MessageComponentModule -->
<g id="edge1" class="edge">
<title>MessageComponent&#45;&gt;MessageComponentModule</title>
<path fill="none" stroke="black" d="M89,-84.91C89,-104.14 89,-131.8 89,-131.8 89,-131.8 174,-131.8 174,-131.8"/>
<polygon fill="black" stroke="black" points="174,-135.3 184,-131.8 174,-128.3 174,-135.3"/>
</g>
<!-- MessageComponent  -->
<g id="node6" class="node">
<title>MessageComponent </title>
<polygon fill="#fb8072" stroke="black" points="337.82,-214.8 204.18,-214.8 204.18,-178.8 337.82,-178.8 337.82,-214.8"/>
<text text-anchor="middle" x="271" y="-192.6" font-family="Times,serif" font-size="14.00">MessageComponent </text>
</g>
<!-- MessageComponentModule&#45;&gt;MessageComponent  -->
<g id="edge5" class="edge">
<title>MessageComponentModule&#45;&gt;MessageComponent </title>
<path fill="none" stroke="black" stroke-dasharray="5,2" d="M271,-149.91C271,-149.91 271,-168.79 271,-168.79"/>
<polygon fill="black" stroke="black" points="267.5,-168.79 271,-178.79 274.5,-168.79 267.5,-168.79"/>
</g>
<!-- AtMessageModule -->
<g id="node3" class="node">
<title>AtMessageModule</title>
<polygon fill="#8dd3c7" stroke="black" points="506.04,-84.8 503.04,-88.8 482.04,-88.8 479.04,-84.8 383.96,-84.8 383.96,-48.8 506.04,-48.8 506.04,-84.8"/>
<text text-anchor="middle" x="445" y="-62.6" font-family="Times,serif" font-size="14.00">AtMessageModule</text>
</g>
<!-- AtMessageModule&#45;&gt;MessageComponentModule -->
<g id="edge2" class="edge">
<title>AtMessageModule&#45;&gt;MessageComponentModule</title>
<path fill="none" stroke="black" d="M445,-84.91C445,-104.14 445,-131.8 445,-131.8 445,-131.8 368,-131.8 368,-131.8"/>
<polygon fill="black" stroke="black" points="368,-128.3 358,-131.8 368,-135.3 368,-128.3"/>
</g>
<!-- I18nModule -->
<g id="node4" class="node">
<title>I18nModule</title>
<polygon fill="#8dd3c7" stroke="black" points="365.71,-84.8 362.71,-88.8 341.71,-88.8 338.71,-84.8 280.29,-84.8 280.29,-48.8 365.71,-48.8 365.71,-84.8"/>
<text text-anchor="middle" x="323" y="-62.6" font-family="Times,serif" font-size="14.00">I18nModule</text>
</g>
<!-- I18nModule&#45;&gt;MessageComponentModule -->
<g id="edge3" class="edge">
<title>I18nModule&#45;&gt;MessageComponentModule</title>
<path fill="none" stroke="black" d="M319.16,-84.91C319.16,-84.91 319.16,-103.79 319.16,-103.79"/>
<polygon fill="black" stroke="black" points="315.66,-103.79 319.16,-113.79 322.66,-103.79 315.66,-103.79"/>
</g>
<!-- IconModule -->
<g id="node5" class="node">
<title>IconModule</title>
<polygon fill="#8dd3c7" stroke="black" points="262.43,-84.8 259.43,-88.8 238.43,-88.8 235.43,-84.8 177.57,-84.8 177.57,-48.8 262.43,-48.8 262.43,-84.8"/>
<text text-anchor="middle" x="220" y="-62.6" font-family="Times,serif" font-size="14.00">IconModule</text>
</g>
<!-- IconModule&#45;&gt;MessageComponentModule -->
<g id="edge4" class="edge">
<title>IconModule&#45;&gt;MessageComponentModule</title>
<path fill="none" stroke="black" d="M223.14,-84.91C223.14,-84.91 223.14,-103.79 223.14,-103.79"/>
<polygon fill="black" stroke="black" points="219.64,-103.79 223.14,-113.79 226.64,-103.79 219.64,-103.79"/>
</g>
</g>
</svg>
