<?xml version="1.0" encoding="UTF-8" standalone="no"?>
<!DOCTYPE svg PUBLIC "-//W3C//DTD SVG 1.1//EN"
 "http://www.w3.org/Graphics/SVG/1.1/DTD/svg11.dtd">
<!-- Generated by graphviz version 5.0.0 (20220707.1540)
 -->
<!-- Title: dependencies Pages: 1 -->
<svg width="538pt" height="247pt"
 viewBox="0.00 0.00 538.00 246.80" xmlns="http://www.w3.org/2000/svg" xmlns:xlink="http://www.w3.org/1999/xlink">
<g id="graph0" class="graph" transform="scale(1 1) rotate(0) translate(4 242.8)">
<title>dependencies</title>
<polygon fill="white" stroke="transparent" points="-4,4 -4,-242.8 534,-242.8 534,4 -4,4"/>
<text text-anchor="middle" x="265" y="-8.2" font-family="sans-serif" font-size="14.00">dependencies</text>
<g id="clust1" class="cluster">
<title>cluster_MessageComponentModule</title>
<polygon fill="none" stroke="black" stroke-dasharray="1,5" points="8,-32.8 8,-230.8 522,-230.8 522,-32.8 8,-32.8"/>
</g>
<g id="clust5" class="cluster">
<title>cluster_MessageComponentModule_exports</title>
<polygon fill="none" stroke="black" points="155,-170.8 155,-222.8 305,-222.8 305,-170.8 155,-170.8"/>
</g>
<g id="clust2" class="cluster">
<title>cluster_MessageComponentModule_declarations</title>
<polygon fill="none" stroke="black" points="368,-40.8 368,-92.8 514,-92.8 514,-40.8 368,-40.8"/>
</g>
<g id="clust4" class="cluster">
<title>cluster_MessageComponentModule_imports</title>
<polygon fill="none" stroke="black" points="16,-40.8 16,-92.8 360,-92.8 360,-40.8 16,-40.8"/>
</g>
<!-- MessageComponent -->
<g id="node1" class="node">
<title>MessageComponent</title>
<polygon fill="#ffffb3" stroke="black" points="506.32,-84.8 375.68,-84.8 375.68,-48.8 506.32,-48.8 506.32,-84.8"/>
<text text-anchor="middle" x="441" y="-62.6" font-family="Times,serif" font-size="14.00">MessageComponent</text>
</g>
<!-- MessageComponentModule -->
<g id="node2" class="node">
<title>MessageComponentModule</title>
<polygon fill="#8dd3c7" stroke="black" points="316.87,-149.8 313.87,-153.8 292.87,-153.8 289.87,-149.8 143.13,-149.8 143.13,-113.8 316.87,-113.8 316.87,-149.8"/>
<text text-anchor="middle" x="230" y="-127.6" font-family="Times,serif" font-size="14.00">MessageComponentModule</text>
</g>
<!-- MessageComponent&#45;&gt;MessageComponentModule -->
<g id="edge1" class="edge">
<title>MessageComponent&#45;&gt;MessageComponentModule</title>
<path fill="none" stroke="black" d="M441,-84.91C441,-104.14 441,-131.8 441,-131.8 441,-131.8 327.04,-131.8 327.04,-131.8"/>
<polygon fill="black" stroke="black" points="327.04,-128.3 317.04,-131.8 327.04,-135.3 327.04,-128.3"/>
</g>
<!-- MessageComponent  -->
<g id="node6" class="node">
<title>MessageComponent </title>
<polygon fill="#fb8072" stroke="black" points="296.82,-214.8 163.18,-214.8 163.18,-178.8 296.82,-178.8 296.82,-214.8"/>
<text text-anchor="middle" x="230" y="-192.6" font-family="Times,serif" font-size="14.00">MessageComponent </text>
</g>
<!-- MessageComponentModule&#45;&gt;MessageComponent  -->
<g id="edge5" class="edge">
<title>MessageComponentModule&#45;&gt;MessageComponent </title>
<path fill="none" stroke="black" stroke-dasharray="5,2" d="M230,-149.91C230,-149.91 230,-168.79 230,-168.79"/>
<polygon fill="black" stroke="black" points="226.5,-168.79 230,-178.79 233.5,-168.79 226.5,-168.79"/>
</g>
<!-- AtMessageModule -->
<g id="node3" class="node">
<title>AtMessageModule</title>
<polygon fill="#8dd3c7" stroke="black" points="352.04,-84.8 349.04,-88.8 328.04,-88.8 325.04,-84.8 229.96,-84.8 229.96,-48.8 352.04,-48.8 352.04,-84.8"/>
<text text-anchor="middle" x="291" y="-62.6" font-family="Times,serif" font-size="14.00">AtMessageModule</text>
</g>
<!-- AtMessageModule&#45;&gt;MessageComponentModule -->
<g id="edge2" class="edge">
<title>AtMessageModule&#45;&gt;MessageComponentModule</title>
<path fill="none" stroke="black" d="M273.33,-84.91C273.33,-84.91 273.33,-103.79 273.33,-103.79"/>
<polygon fill="black" stroke="black" points="269.83,-103.79 273.33,-113.79 276.83,-103.79 269.83,-103.79"/>
</g>
<!-- I18nModule -->
<g id="node4" class="node">
<title>I18nModule</title>
<polygon fill="#8dd3c7" stroke="black" points="211.71,-84.8 208.71,-88.8 187.71,-88.8 184.71,-84.8 126.29,-84.8 126.29,-48.8 211.71,-48.8 211.71,-84.8"/>
<text text-anchor="middle" x="169" y="-62.6" font-family="Times,serif" font-size="14.00">I18nModule</text>
</g>
<!-- I18nModule&#45;&gt;MessageComponentModule -->
<g id="edge3" class="edge">
<title>I18nModule&#45;&gt;MessageComponentModule</title>
<path fill="none" stroke="black" d="M177.34,-84.91C177.34,-84.91 177.34,-103.79 177.34,-103.79"/>
<polygon fill="black" stroke="black" points="173.84,-103.79 177.34,-113.79 180.84,-103.79 173.84,-103.79"/>
</g>
<!-- IconModule -->
<g id="node5" class="node">
<title>IconModule</title>
<polygon fill="#8dd3c7" stroke="black" points="108.43,-84.8 105.43,-88.8 84.43,-88.8 81.43,-84.8 23.57,-84.8 23.57,-48.8 108.43,-48.8 108.43,-84.8"/>
<text text-anchor="middle" x="66" y="-62.6" font-family="Times,serif" font-size="14.00">IconModule</text>
</g>
<!-- IconModule&#45;&gt;MessageComponentModule -->
<g id="edge4" class="edge">
<title>IconModule&#45;&gt;MessageComponentModule</title>
<path fill="none" stroke="black" d="M66,-84.91C66,-104.14 66,-131.8 66,-131.8 66,-131.8 132.72,-131.8 132.72,-131.8"/>
<polygon fill="black" stroke="black" points="132.72,-135.3 142.72,-131.8 132.72,-128.3 132.72,-135.3"/>
</g>
</g>
</svg>
