<?xml version="1.0" encoding="UTF-8" standalone="no"?>
<!DOCTYPE svg PUBLIC "-//W3C//DTD SVG 1.1//EN"
 "http://www.w3.org/Graphics/SVG/1.1/DTD/svg11.dtd">
<!-- Generated by graphviz version 5.0.0 (20220707.1540)
 -->
<!-- Title: dependencies Pages: 1 -->
<svg width="3615pt" height="174pt"
 viewBox="0.00 0.00 3615.00 173.80" xmlns="http://www.w3.org/2000/svg" xmlns:xlink="http://www.w3.org/1999/xlink">
<g id="graph0" class="graph" transform="scale(1 1) rotate(0) translate(4 169.8)">
<title>dependencies</title>
<polygon fill="white" stroke="transparent" points="-4,4 -4,-169.8 3611,-169.8 3611,4 -4,4"/>
<text text-anchor="middle" x="1803.5" y="-8.2" font-family="sans-serif" font-size="14.00">dependencies</text>
<g id="clust1" class="cluster">
<title>cluster_RulebasedConfiguratorComponentsModule</title>
<polygon fill="none" stroke="black" stroke-dasharray="1,5" points="8,-32.8 8,-157.8 3599,-157.8 3599,-32.8 8,-32.8"/>
</g>
<g id="clust3" class="cluster">
<title>cluster_RulebasedConfiguratorComponentsModule_imports</title>
<polygon fill="none" stroke="black" points="16,-40.8 16,-92.8 3591,-92.8 3591,-40.8 16,-40.8"/>
</g>
<!-- ConfiguratorAddToCartButtonModule -->
<g id="node1" class="node">
<title>ConfiguratorAddToCartButtonModule</title>
<polygon fill="#8dd3c7" stroke="black" points="3582.75,-84.8 3579.75,-88.8 3558.75,-88.8 3555.75,-84.8 3349.25,-84.8 3349.25,-48.8 3582.75,-48.8 3582.75,-84.8"/>
<text text-anchor="middle" x="3466" y="-62.6" font-family="Times,serif" font-size="14.00">ConfiguratorAddToCartButtonModule</text>
</g>
<!-- RulebasedConfiguratorComponentsModule -->
<g id="node16" class="node">
<title>RulebasedConfiguratorComponentsModule</title>
<polygon fill="#8dd3c7" stroke="black" points="1970.47,-149.8 1967.47,-153.8 1946.47,-153.8 1943.47,-149.8 1709.53,-149.8 1709.53,-113.8 1970.47,-113.8 1970.47,-149.8"/>
<text text-anchor="middle" x="1840" y="-127.6" font-family="Times,serif" font-size="14.00">RulebasedConfiguratorComponentsModule</text>
</g>
<!-- ConfiguratorAddToCartButtonModule&#45;&gt;RulebasedConfiguratorComponentsModule -->
<g id="edge1" class="edge">
<title>ConfiguratorAddToCartButtonModule&#45;&gt;RulebasedConfiguratorComponentsModule</title>
<path fill="none" stroke="black" d="M3466,-84.89C3466,-107.93 3466,-144.8 3466,-144.8 3466,-144.8 1980.66,-144.8 1980.66,-144.8"/>
<polygon fill="black" stroke="black" points="1980.66,-141.3 1970.66,-144.8 1980.66,-148.3 1980.66,-141.3"/>
</g>
<!-- ConfiguratorConflictAndErrorMessagesModule -->
<g id="node2" class="node">
<title>ConfiguratorConflictAndErrorMessagesModule</title>
<polygon fill="#8dd3c7" stroke="black" points="3330.84,-84.8 3327.84,-88.8 3306.84,-88.8 3303.84,-84.8 3045.16,-84.8 3045.16,-48.8 3330.84,-48.8 3330.84,-84.8"/>
<text text-anchor="middle" x="3188" y="-62.6" font-family="Times,serif" font-size="14.00">ConfiguratorConflictAndErrorMessagesModule</text>
</g>
<!-- ConfiguratorConflictAndErrorMessagesModule&#45;&gt;RulebasedConfiguratorComponentsModule -->
<g id="edge2" class="edge">
<title>ConfiguratorConflictAndErrorMessagesModule&#45;&gt;RulebasedConfiguratorComponentsModule</title>
<path fill="none" stroke="black" d="M3188,-84.84C3188,-106.46 3188,-139.8 3188,-139.8 3188,-139.8 1980.48,-139.8 1980.48,-139.8"/>
<polygon fill="black" stroke="black" points="1980.48,-136.3 1970.48,-139.8 1980.48,-143.3 1980.48,-136.3"/>
</g>
<!-- ConfiguratorExitButtonModule -->
<g id="node3" class="node">
<title>ConfiguratorExitButtonModule</title>
<polygon fill="#8dd3c7" stroke="black" points="3026.82,-84.8 3023.82,-88.8 3002.82,-88.8 2999.82,-84.8 2833.18,-84.8 2833.18,-48.8 3026.82,-48.8 3026.82,-84.8"/>
<text text-anchor="middle" x="2930" y="-62.6" font-family="Times,serif" font-size="14.00">ConfiguratorExitButtonModule</text>
</g>
<!-- ConfiguratorExitButtonModule&#45;&gt;RulebasedConfiguratorComponentsModule -->
<g id="edge3" class="edge">
<title>ConfiguratorExitButtonModule&#45;&gt;RulebasedConfiguratorComponentsModule</title>
<path fill="none" stroke="black" d="M2930,-85.02C2930,-105.17 2930,-134.8 2930,-134.8 2930,-134.8 1980.67,-134.8 1980.67,-134.8"/>
<polygon fill="black" stroke="black" points="1980.67,-131.3 1970.67,-134.8 1980.67,-138.3 1980.67,-131.3"/>
</g>
<!-- ConfiguratorFormModule -->
<g id="node4" class="node">
<title>ConfiguratorFormModule</title>
<polygon fill="#8dd3c7" stroke="black" points="2815.21,-84.8 2812.21,-88.8 2791.21,-88.8 2788.21,-84.8 2652.79,-84.8 2652.79,-48.8 2815.21,-48.8 2815.21,-84.8"/>
<text text-anchor="middle" x="2734" y="-62.6" font-family="Times,serif" font-size="14.00">ConfiguratorFormModule</text>
</g>
<!-- ConfiguratorFormModule&#45;&gt;RulebasedConfiguratorComponentsModule -->
<g id="edge4" class="edge">
<title>ConfiguratorFormModule&#45;&gt;RulebasedConfiguratorComponentsModule</title>
<path fill="none" stroke="black" d="M2734,-85.02C2734,-103.63 2734,-129.8 2734,-129.8 2734,-129.8 1980.47,-129.8 1980.47,-129.8"/>
<polygon fill="black" stroke="black" points="1980.47,-126.3 1970.47,-129.8 1980.47,-133.3 1980.47,-126.3"/>
</g>
<!-- ConfiguratorGroupMenuModule -->
<g id="node5" class="node">
<title>ConfiguratorGroupMenuModule</title>
<polygon fill="#8dd3c7" stroke="black" points="2635.3,-84.8 2632.3,-88.8 2611.3,-88.8 2608.3,-84.8 2434.7,-84.8 2434.7,-48.8 2635.3,-48.8 2635.3,-84.8"/>
<text text-anchor="middle" x="2535" y="-62.6" font-family="Times,serif" font-size="14.00">ConfiguratorGroupMenuModule</text>
</g>
<!-- ConfiguratorGroupMenuModule&#45;&gt;RulebasedConfiguratorComponentsModule -->
<g id="edge5" class="edge">
<title>ConfiguratorGroupMenuModule&#45;&gt;RulebasedConfiguratorComponentsModule</title>
<path fill="none" stroke="black" d="M2535,-84.83C2535,-101.86 2535,-124.8 2535,-124.8 2535,-124.8 1980.72,-124.8 1980.72,-124.8"/>
<polygon fill="black" stroke="black" points="1980.72,-121.3 1970.72,-124.8 1980.72,-128.3 1980.72,-121.3"/>
</g>
<!-- ConfiguratorGroupTitleModule -->
<g id="node6" class="node">
<title>ConfiguratorGroupTitleModule</title>
<polygon fill="#8dd3c7" stroke="black" points="2417.08,-84.8 2414.08,-88.8 2393.08,-88.8 2390.08,-84.8 2222.92,-84.8 2222.92,-48.8 2417.08,-48.8 2417.08,-84.8"/>
<text text-anchor="middle" x="2320" y="-62.6" font-family="Times,serif" font-size="14.00">ConfiguratorGroupTitleModule</text>
</g>
<!-- ConfiguratorGroupTitleModule&#45;&gt;RulebasedConfiguratorComponentsModule -->
<g id="edge6" class="edge">
<title>ConfiguratorGroupTitleModule&#45;&gt;RulebasedConfiguratorComponentsModule</title>
<path fill="none" stroke="black" d="M2320,-85.04C2320,-100.37 2320,-119.8 2320,-119.8 2320,-119.8 1980.53,-119.8 1980.53,-119.8"/>
<polygon fill="black" stroke="black" points="1980.53,-116.3 1970.53,-119.8 1980.53,-123.3 1980.53,-116.3"/>
</g>
<!-- ConfiguratorOverviewAttributeModule -->
<g id="node7" class="node">
<title>ConfiguratorOverviewAttributeModule</title>
<polygon fill="#8dd3c7" stroke="black" points="2204.61,-84.8 2201.61,-88.8 2180.61,-88.8 2177.61,-84.8 1967.39,-84.8 1967.39,-48.8 2204.61,-48.8 2204.61,-84.8"/>
<text text-anchor="middle" x="2086" y="-62.6" font-family="Times,serif" font-size="14.00">ConfiguratorOverviewAttributeModule</text>
</g>
<!-- ConfiguratorOverviewAttributeModule&#45;&gt;RulebasedConfiguratorComponentsModule -->
<g id="edge7" class="edge">
<title>ConfiguratorOverviewAttributeModule&#45;&gt;RulebasedConfiguratorComponentsModule</title>
<path fill="none" stroke="black" d="M1967.16,-66.8C1961.39,-66.8 1957.95,-66.8 1957.95,-66.8 1957.95,-66.8 1957.95,-103.69 1957.95,-103.69"/>
<polygon fill="black" stroke="black" points="1954.45,-103.69 1957.95,-113.69 1961.45,-103.69 1954.45,-103.69"/>
</g>
<!-- ConfiguratorOverviewFormModule -->
<g id="node8" class="node">
<title>ConfiguratorOverviewFormModule</title>
<polygon fill="#8dd3c7" stroke="black" points="1948.91,-84.8 1945.91,-88.8 1924.91,-88.8 1921.91,-84.8 1731.09,-84.8 1731.09,-48.8 1948.91,-48.8 1948.91,-84.8"/>
<text text-anchor="middle" x="1840" y="-62.6" font-family="Times,serif" font-size="14.00">ConfiguratorOverviewFormModule</text>
</g>
<!-- ConfiguratorOverviewFormModule&#45;&gt;RulebasedConfiguratorComponentsModule -->
<g id="edge8" class="edge">
<title>ConfiguratorOverviewFormModule&#45;&gt;RulebasedConfiguratorComponentsModule</title>
<path fill="none" stroke="black" d="M1840,-84.91C1840,-84.91 1840,-103.79 1840,-103.79"/>
<polygon fill="black" stroke="black" points="1836.5,-103.79 1840,-113.79 1843.5,-103.79 1836.5,-103.79"/>
</g>
<!-- ConfiguratorOverviewNotificationBannerModule -->
<g id="node9" class="node">
<title>ConfiguratorOverviewNotificationBannerModule</title>
<polygon fill="#8dd3c7" stroke="black" points="1713.65,-84.8 1710.65,-88.8 1689.65,-88.8 1686.65,-84.8 1418.35,-84.8 1418.35,-48.8 1713.65,-48.8 1713.65,-84.8"/>
<text text-anchor="middle" x="1566" y="-62.6" font-family="Times,serif" font-size="14.00">ConfiguratorOverviewNotificationBannerModule</text>
</g>
<!-- ConfiguratorOverviewNotificationBannerModule&#45;&gt;RulebasedConfiguratorComponentsModule -->
<g id="edge9" class="edge">
<title>ConfiguratorOverviewNotificationBannerModule&#45;&gt;RulebasedConfiguratorComponentsModule</title>
<path fill="none" stroke="black" d="M1713.58,-66.8C1719.17,-66.8 1722.43,-66.8 1722.43,-66.8 1722.43,-66.8 1722.43,-103.69 1722.43,-103.69"/>
<polygon fill="black" stroke="black" points="1718.93,-103.69 1722.43,-113.69 1725.93,-103.69 1718.93,-103.69"/>
</g>
<!-- ConfiguratorPreviousNextButtonsModule -->
<g id="node10" class="node">
<title>ConfiguratorPreviousNextButtonsModule</title>
<polygon fill="#8dd3c7" stroke="black" points="1400.65,-84.8 1397.65,-88.8 1376.65,-88.8 1373.65,-84.8 1149.35,-84.8 1149.35,-48.8 1400.65,-48.8 1400.65,-84.8"/>
<text text-anchor="middle" x="1275" y="-62.6" font-family="Times,serif" font-size="14.00">ConfiguratorPreviousNextButtonsModule</text>
</g>
<!-- ConfiguratorPreviousNextButtonsModule&#45;&gt;RulebasedConfiguratorComponentsModule -->
<g id="edge10" class="edge">
<title>ConfiguratorPreviousNextButtonsModule&#45;&gt;RulebasedConfiguratorComponentsModule</title>
<path fill="none" stroke="black" d="M1275,-85.04C1275,-100.37 1275,-119.8 1275,-119.8 1275,-119.8 1699.31,-119.8 1699.31,-119.8"/>
<polygon fill="black" stroke="black" points="1699.31,-123.3 1709.31,-119.8 1699.31,-116.3 1699.31,-123.3"/>
</g>
<!-- ConfiguratorPriceSummaryModule -->
<g id="node11" class="node">
<title>ConfiguratorPriceSummaryModule</title>
<polygon fill="#8dd3c7" stroke="black" points="1131.58,-84.8 1128.58,-88.8 1107.58,-88.8 1104.58,-84.8 916.42,-84.8 916.42,-48.8 1131.58,-48.8 1131.58,-84.8"/>
<text text-anchor="middle" x="1024" y="-62.6" font-family="Times,serif" font-size="14.00">ConfiguratorPriceSummaryModule</text>
</g>
<!-- ConfiguratorPriceSummaryModule&#45;&gt;RulebasedConfiguratorComponentsModule -->
<g id="edge11" class="edge">
<title>ConfiguratorPriceSummaryModule&#45;&gt;RulebasedConfiguratorComponentsModule</title>
<path fill="none" stroke="black" d="M1024,-84.83C1024,-101.86 1024,-124.8 1024,-124.8 1024,-124.8 1699.35,-124.8 1699.35,-124.8"/>
<polygon fill="black" stroke="black" points="1699.35,-128.3 1709.35,-124.8 1699.35,-121.3 1699.35,-128.3"/>
</g>
<!-- ConfiguratorProductTitleModule -->
<g id="node12" class="node">
<title>ConfiguratorProductTitleModule</title>
<polygon fill="#8dd3c7" stroke="black" points="898.86,-84.8 895.86,-88.8 874.86,-88.8 871.86,-84.8 697.14,-84.8 697.14,-48.8 898.86,-48.8 898.86,-84.8"/>
<text text-anchor="middle" x="798" y="-62.6" font-family="Times,serif" font-size="14.00">ConfiguratorProductTitleModule</text>
</g>
<!-- ConfiguratorProductTitleModule&#45;&gt;RulebasedConfiguratorComponentsModule -->
<g id="edge12" class="edge">
<title>ConfiguratorProductTitleModule&#45;&gt;RulebasedConfiguratorComponentsModule</title>
<path fill="none" stroke="black" d="M798,-85.02C798,-103.63 798,-129.8 798,-129.8 798,-129.8 1699.35,-129.8 1699.35,-129.8"/>
<polygon fill="black" stroke="black" points="1699.35,-133.3 1709.35,-129.8 1699.35,-126.3 1699.35,-133.3"/>
</g>
<!-- ConfiguratorTabBarModule -->
<g id="node13" class="node">
<title>ConfiguratorTabBarModule</title>
<polygon fill="#8dd3c7" stroke="black" points="678.85,-84.8 675.85,-88.8 654.85,-88.8 651.85,-84.8 505.15,-84.8 505.15,-48.8 678.85,-48.8 678.85,-84.8"/>
<text text-anchor="middle" x="592" y="-62.6" font-family="Times,serif" font-size="14.00">ConfiguratorTabBarModule</text>
</g>
<!-- ConfiguratorTabBarModule&#45;&gt;RulebasedConfiguratorComponentsModule -->
<g id="edge13" class="edge">
<title>ConfiguratorTabBarModule&#45;&gt;RulebasedConfiguratorComponentsModule</title>
<path fill="none" stroke="black" d="M592,-85.02C592,-105.17 592,-134.8 592,-134.8 592,-134.8 1699.39,-134.8 1699.39,-134.8"/>
<polygon fill="black" stroke="black" points="1699.39,-138.3 1709.39,-134.8 1699.39,-131.3 1699.39,-138.3"/>
</g>
<!-- ConfiguratorUpdateMessageModule -->
<g id="node14" class="node">
<title>ConfiguratorUpdateMessageModule</title>
<polygon fill="#8dd3c7" stroke="black" points="486.78,-84.8 483.78,-88.8 462.78,-88.8 459.78,-84.8 265.22,-84.8 265.22,-48.8 486.78,-48.8 486.78,-84.8"/>
<text text-anchor="middle" x="376" y="-62.6" font-family="Times,serif" font-size="14.00">ConfiguratorUpdateMessageModule</text>
</g>
<!-- ConfiguratorUpdateMessageModule&#45;&gt;RulebasedConfiguratorComponentsModule -->
<g id="edge14" class="edge">
<title>ConfiguratorUpdateMessageModule&#45;&gt;RulebasedConfiguratorComponentsModule</title>
<path fill="none" stroke="black" d="M376,-84.84C376,-106.46 376,-139.8 376,-139.8 376,-139.8 1699.44,-139.8 1699.44,-139.8"/>
<polygon fill="black" stroke="black" points="1699.44,-143.3 1709.44,-139.8 1699.44,-136.3 1699.44,-143.3"/>
</g>
<!-- ConfiguratorVariantCarouselModule -->
<g id="node15" class="node">
<title>ConfiguratorVariantCarouselModule</title>
<polygon fill="#8dd3c7" stroke="black" points="247.61,-84.8 244.61,-88.8 223.61,-88.8 220.61,-84.8 24.39,-84.8 24.39,-48.8 247.61,-48.8 247.61,-84.8"/>
<text text-anchor="middle" x="136" y="-62.6" font-family="Times,serif" font-size="14.00">ConfiguratorVariantCarouselModule</text>
</g>
<!-- ConfiguratorVariantCarouselModule&#45;&gt;RulebasedConfiguratorComponentsModule -->
<g id="edge15" class="edge">
<title>ConfiguratorVariantCarouselModule&#45;&gt;RulebasedConfiguratorComponentsModule</title>
<path fill="none" stroke="black" d="M136,-84.89C136,-107.93 136,-144.8 136,-144.8 136,-144.8 1699.47,-144.8 1699.47,-144.8"/>
<polygon fill="black" stroke="black" points="1699.47,-148.3 1709.47,-144.8 1699.47,-141.3 1699.47,-148.3"/>
</g>
</g>
</svg>
