<?xml version="1.0" encoding="UTF-8" standalone="no"?>
<!DOCTYPE svg PUBLIC "-//W3C//DTD SVG 1.1//EN"
 "http://www.w3.org/Graphics/SVG/1.1/DTD/svg11.dtd">
<!-- Generated by graphviz version 5.0.0 (20220707.1540)
 -->
<!-- Title: dependencies Pages: 1 -->
<svg width="424pt" height="247pt"
 viewBox="0.00 0.00 424.00 246.80" xmlns="http://www.w3.org/2000/svg" xmlns:xlink="http://www.w3.org/1999/xlink">
<g id="graph0" class="graph" transform="scale(1 1) rotate(0) translate(4 242.8)">
<title>dependencies</title>
<polygon fill="white" stroke="transparent" points="-4,4 -4,-242.8 420,-242.8 420,4 -4,4"/>
<text text-anchor="middle" x="208" y="-8.2" font-family="sans-serif" font-size="14.00">dependencies</text>
<g id="clust1" class="cluster">
<title>cluster_GigyaRaasModule</title>
<polygon fill="none" stroke="black" stroke-dasharray="1,5" points="8,-32.8 8,-230.8 408,-230.8 408,-32.8 8,-32.8"/>
</g>
<g id="clust2" class="cluster">
<title>cluster_GigyaRaasModule_declarations</title>
<polygon fill="none" stroke="black" points="242,-40.8 242,-92.8 400,-92.8 400,-40.8 242,-40.8"/>
</g>
<g id="clust5" class="cluster">
<title>cluster_GigyaRaasModule_exports</title>
<polygon fill="none" stroke="black" points="96,-170.8 96,-222.8 258,-222.8 258,-170.8 96,-170.8"/>
</g>
<g id="clust4" class="cluster">
<title>cluster_GigyaRaasModule_imports</title>
<polygon fill="none" stroke="black" points="16,-40.8 16,-92.8 234,-92.8 234,-40.8 16,-40.8"/>
</g>
<!-- GigyaRaasComponent -->
<g id="node1" class="node">
<title>GigyaRaasComponent</title>
<polygon fill="#ffffb3" stroke="black" points="392.26,-84.8 249.74,-84.8 249.74,-48.8 392.26,-48.8 392.26,-84.8"/>
<text text-anchor="middle" x="321" y="-62.6" font-family="Times,serif" font-size="14.00">GigyaRaasComponent</text>
</g>
<!-- GigyaRaasModule -->
<g id="node2" class="node">
<title>GigyaRaasModule</title>
<polygon fill="#8dd3c7" stroke="black" points="237.48,-149.8 234.48,-153.8 213.48,-153.8 210.48,-149.8 116.52,-149.8 116.52,-113.8 237.48,-113.8 237.48,-149.8"/>
<text text-anchor="middle" x="177" y="-127.6" font-family="Times,serif" font-size="14.00">GigyaRaasModule</text>
</g>
<!-- GigyaRaasComponent&#45;&gt;GigyaRaasModule -->
<g id="edge1" class="edge">
<title>GigyaRaasComponent&#45;&gt;GigyaRaasModule</title>
<path fill="none" stroke="black" d="M249.47,-66.8C239.1,-66.8 231.86,-66.8 231.86,-66.8 231.86,-66.8 231.86,-103.69 231.86,-103.69"/>
<polygon fill="black" stroke="black" points="228.36,-103.69 231.86,-113.69 235.36,-103.69 228.36,-103.69"/>
</g>
<!-- GigyaRaasComponent  -->
<g id="node5" class="node">
<title>GigyaRaasComponent </title>
<polygon fill="#fb8072" stroke="black" points="250.26,-214.8 103.74,-214.8 103.74,-178.8 250.26,-178.8 250.26,-214.8"/>
<text text-anchor="middle" x="177" y="-192.6" font-family="Times,serif" font-size="14.00">GigyaRaasComponent </text>
</g>
<!-- GigyaRaasModule&#45;&gt;GigyaRaasComponent  -->
<g id="edge4" class="edge">
<title>GigyaRaasModule&#45;&gt;GigyaRaasComponent </title>
<path fill="none" stroke="black" stroke-dasharray="5,2" d="M177,-149.91C177,-149.91 177,-168.79 177,-168.79"/>
<polygon fill="black" stroke="black" points="173.5,-168.79 177,-178.79 180.5,-168.79 173.5,-168.79"/>
</g>
<!-- ConfigModule -->
<g id="node3" class="node">
<title>ConfigModule</title>
<polygon fill="#8dd3c7" stroke="black" points="226.44,-84.8 223.44,-88.8 202.44,-88.8 199.44,-84.8 127.56,-84.8 127.56,-48.8 226.44,-48.8 226.44,-84.8"/>
<text text-anchor="middle" x="177" y="-62.6" font-family="Times,serif" font-size="14.00">ConfigModule</text>
</g>
<!-- ConfigModule&#45;&gt;GigyaRaasModule -->
<g id="edge2" class="edge">
<title>ConfigModule&#45;&gt;GigyaRaasModule</title>
<path fill="none" stroke="black" d="M177,-84.91C177,-84.91 177,-103.79 177,-103.79"/>
<polygon fill="black" stroke="black" points="173.5,-103.79 177,-113.79 180.5,-103.79 173.5,-103.79"/>
</g>
<!-- I18nModule -->
<g id="node4" class="node">
<title>I18nModule</title>
<polygon fill="#8dd3c7" stroke="black" points="109.71,-84.8 106.71,-88.8 85.71,-88.8 82.71,-84.8 24.29,-84.8 24.29,-48.8 109.71,-48.8 109.71,-84.8"/>
<text text-anchor="middle" x="67" y="-62.6" font-family="Times,serif" font-size="14.00">I18nModule</text>
</g>
<!-- I18nModule&#45;&gt;GigyaRaasModule -->
<g id="edge3" class="edge">
<title>I18nModule&#45;&gt;GigyaRaasModule</title>
<path fill="none" stroke="black" d="M109.63,-66.8C116.89,-66.8 122.14,-66.8 122.14,-66.8 122.14,-66.8 122.14,-103.69 122.14,-103.69"/>
<polygon fill="black" stroke="black" points="118.64,-103.69 122.14,-113.69 125.64,-103.69 118.64,-103.69"/>
</g>
</g>
</svg>
