<?xml version="1.0" encoding="UTF-8" standalone="no"?>
<!DOCTYPE svg PUBLIC "-//W3C//DTD SVG 1.1//EN"
 "http://www.w3.org/Graphics/SVG/1.1/DTD/svg11.dtd">
<!-- Generated by graphviz version 5.0.0 (20220707.1540)
 -->
<!-- Title: dependencies Pages: 1 -->
<svg width="2546pt" height="247pt"
 viewBox="0.00 0.00 2546.00 246.80" xmlns="http://www.w3.org/2000/svg" xmlns:xlink="http://www.w3.org/1999/xlink">
<g id="graph0" class="graph" transform="scale(1 1) rotate(0) translate(4 242.8)">
<title>dependencies</title>
<polygon fill="white" stroke="transparent" points="-4,4 -4,-242.8 2542,-242.8 2542,4 -4,4"/>
<text text-anchor="middle" x="1269" y="-8.2" font-family="sans-serif" font-size="14.00">dependencies</text>
<g id="clust1" class="cluster">
<title>cluster_ReplenishmentOrderDetailsModule</title>
<polygon fill="none" stroke="black" stroke-dasharray="1,5" points="8,-32.8 8,-230.8 2530,-230.8 2530,-32.8 8,-32.8"/>
</g>
<g id="clust10" class="cluster">
<title>cluster_ReplenishmentOrderDetailsModule_imports</title>
<polygon fill="none" stroke="black" points="1492,-40.8 1492,-92.8 2522,-92.8 2522,-40.8 1492,-40.8"/>
</g>
<g id="clust11" class="cluster">
<title>cluster_ReplenishmentOrderDetailsModule_exports</title>
<polygon fill="none" stroke="black" points="740,-170.8 740,-222.8 2232,-222.8 2232,-170.8 740,-170.8"/>
</g>
<g id="clust2" class="cluster">
<title>cluster_ReplenishmentOrderDetailsModule_declarations</title>
<polygon fill="none" stroke="black" points="16,-40.8 16,-92.8 1484,-92.8 1484,-40.8 16,-40.8"/>
</g>
<!-- ConsignmentTrackingComponent -->
<g id="node1" class="node">
<title>ConsignmentTrackingComponent</title>
<polygon fill="#ffffb3" stroke="black" points="1476.03,-84.8 1269.97,-84.8 1269.97,-48.8 1476.03,-48.8 1476.03,-84.8"/>
<text text-anchor="middle" x="1373" y="-62.6" font-family="Times,serif" font-size="14.00">ConsignmentTrackingComponent</text>
</g>
<!-- ReplenishmentOrderDetailsModule -->
<g id="node8" class="node">
<title>ReplenishmentOrderDetailsModule</title>
<polygon fill="#8dd3c7" stroke="black" points="1563.84,-149.8 1560.84,-153.8 1539.84,-153.8 1536.84,-149.8 1348.16,-149.8 1348.16,-113.8 1563.84,-113.8 1563.84,-149.8"/>
<text text-anchor="middle" x="1456" y="-127.6" font-family="Times,serif" font-size="14.00">ReplenishmentOrderDetailsModule</text>
</g>
<!-- ConsignmentTrackingComponent&#45;&gt;ReplenishmentOrderDetailsModule -->
<g id="edge1" class="edge">
<title>ConsignmentTrackingComponent&#45;&gt;ReplenishmentOrderDetailsModule</title>
<path fill="none" stroke="black" d="M1412.17,-84.91C1412.17,-84.91 1412.17,-103.79 1412.17,-103.79"/>
<polygon fill="black" stroke="black" points="1408.67,-103.79 1412.17,-113.79 1415.67,-103.79 1408.67,-103.79"/>
</g>
<!-- OrderConsignedEntriesComponent -->
<g id="node2" class="node">
<title>OrderConsignedEntriesComponent</title>
<polygon fill="#ffffb3" stroke="black" points="1251.52,-84.8 1038.48,-84.8 1038.48,-48.8 1251.52,-48.8 1251.52,-84.8"/>
<text text-anchor="middle" x="1145" y="-62.6" font-family="Times,serif" font-size="14.00">OrderConsignedEntriesComponent</text>
</g>
<!-- OrderConsignedEntriesComponent&#45;&gt;ReplenishmentOrderDetailsModule -->
<g id="edge2" class="edge">
<title>OrderConsignedEntriesComponent&#45;&gt;ReplenishmentOrderDetailsModule</title>
<path fill="none" stroke="black" d="M1197.82,-84.92C1197.82,-99.58 1197.82,-117.8 1197.82,-117.8 1197.82,-117.8 1338,-117.8 1338,-117.8"/>
<polygon fill="black" stroke="black" points="1338,-121.3 1348,-117.8 1338,-114.3 1338,-121.3"/>
</g>
<!-- OrderDetailActionsComponent -->
<g id="node3" class="node">
<title>OrderDetailActionsComponent</title>
<polygon fill="#ffffb3" stroke="black" points="1019.74,-84.8 828.26,-84.8 828.26,-48.8 1019.74,-48.8 1019.74,-84.8"/>
<text text-anchor="middle" x="924" y="-62.6" font-family="Times,serif" font-size="14.00">OrderDetailActionsComponent</text>
</g>
<!-- OrderDetailActionsComponent&#45;&gt;ReplenishmentOrderDetailsModule -->
<g id="edge3" class="edge">
<title>OrderDetailActionsComponent&#45;&gt;ReplenishmentOrderDetailsModule</title>
<path fill="none" stroke="black" d="M979.76,-84.81C979.76,-100.85 979.76,-121.8 979.76,-121.8 979.76,-121.8 1337.93,-121.8 1337.93,-121.8"/>
<polygon fill="black" stroke="black" points="1337.93,-125.3 1347.93,-121.8 1337.93,-118.3 1337.93,-125.3"/>
</g>
<!-- OrderDetailItemsComponent -->
<g id="node4" class="node">
<title>OrderDetailItemsComponent</title>
<polygon fill="#ffffb3" stroke="black" points="809.79,-84.8 630.21,-84.8 630.21,-48.8 809.79,-48.8 809.79,-84.8"/>
<text text-anchor="middle" x="720" y="-62.6" font-family="Times,serif" font-size="14.00">OrderDetailItemsComponent</text>
</g>
<!-- OrderDetailItemsComponent&#45;&gt;ReplenishmentOrderDetailsModule -->
<g id="edge4" class="edge">
<title>OrderDetailItemsComponent&#45;&gt;ReplenishmentOrderDetailsModule</title>
<path fill="none" stroke="black" d="M778.96,-84.82C778.96,-102.17 778.96,-125.8 778.96,-125.8 778.96,-125.8 1337.97,-125.8 1337.97,-125.8"/>
<polygon fill="black" stroke="black" points="1337.97,-129.3 1347.97,-125.8 1337.97,-122.3 1337.97,-129.3"/>
</g>
<!-- OrderDetailShippingComponent -->
<g id="node5" class="node">
<title>OrderDetailShippingComponent</title>
<polygon fill="#ffffb3" stroke="black" points="612.25,-84.8 413.75,-84.8 413.75,-48.8 612.25,-48.8 612.25,-84.8"/>
<text text-anchor="middle" x="513" y="-62.6" font-family="Times,serif" font-size="14.00">OrderDetailShippingComponent</text>
</g>
<!-- OrderDetailShippingComponent&#45;&gt;ReplenishmentOrderDetailsModule -->
<g id="edge5" class="edge">
<title>OrderDetailShippingComponent&#45;&gt;ReplenishmentOrderDetailsModule</title>
<path fill="none" stroke="black" d="M513,-85.02C513,-103.63 513,-129.8 513,-129.8 513,-129.8 1337.83,-129.8 1337.83,-129.8"/>
<polygon fill="black" stroke="black" points="1337.83,-133.3 1347.83,-129.8 1337.83,-126.3 1337.83,-133.3"/>
</g>
<!-- OrderDetailTotalsComponent -->
<g id="node6" class="node">
<title>OrderDetailTotalsComponent</title>
<polygon fill="#ffffb3" stroke="black" points="395.68,-84.8 212.32,-84.8 212.32,-48.8 395.68,-48.8 395.68,-84.8"/>
<text text-anchor="middle" x="304" y="-62.6" font-family="Times,serif" font-size="14.00">OrderDetailTotalsComponent</text>
</g>
<!-- OrderDetailTotalsComponent&#45;&gt;ReplenishmentOrderDetailsModule -->
<g id="edge6" class="edge">
<title>OrderDetailTotalsComponent&#45;&gt;ReplenishmentOrderDetailsModule</title>
<path fill="none" stroke="black" d="M304,-85.11C304,-104.95 304,-133.8 304,-133.8 304,-133.8 1338.14,-133.8 1338.14,-133.8"/>
<polygon fill="black" stroke="black" points="1338.14,-137.3 1348.14,-133.8 1338.14,-130.3 1338.14,-137.3"/>
</g>
<!-- TrackingEventsComponent -->
<g id="node7" class="node">
<title>TrackingEventsComponent</title>
<polygon fill="#ffffb3" stroke="black" points="193.97,-84.8 24.03,-84.8 24.03,-48.8 193.97,-48.8 193.97,-84.8"/>
<text text-anchor="middle" x="109" y="-62.6" font-family="Times,serif" font-size="14.00">TrackingEventsComponent</text>
</g>
<!-- TrackingEventsComponent&#45;&gt;ReplenishmentOrderDetailsModule -->
<g id="edge7" class="edge">
<title>TrackingEventsComponent&#45;&gt;ReplenishmentOrderDetailsModule</title>
<path fill="none" stroke="black" d="M109,-85.08C109,-106.12 109,-137.8 109,-137.8 109,-137.8 1338.05,-137.8 1338.05,-137.8"/>
<polygon fill="black" stroke="black" points="1338.05,-141.3 1348.05,-137.8 1338.05,-134.3 1338.05,-141.3"/>
</g>
<!-- ConsignmentTrackingComponent  -->
<g id="node16" class="node">
<title>ConsignmentTrackingComponent </title>
<polygon fill="#fb8072" stroke="black" points="2224.03,-214.8 2013.97,-214.8 2013.97,-178.8 2224.03,-178.8 2224.03,-214.8"/>
<text text-anchor="middle" x="2119" y="-192.6" font-family="Times,serif" font-size="14.00">ConsignmentTrackingComponent </text>
</g>
<!-- ReplenishmentOrderDetailsModule&#45;&gt;ConsignmentTrackingComponent  -->
<g id="edge15" class="edge">
<title>ReplenishmentOrderDetailsModule&#45;&gt;ConsignmentTrackingComponent </title>
<path fill="none" stroke="black" stroke-dasharray="5,2" d="M1564.05,-139.8C1738.36,-139.8 2062.31,-139.8 2062.31,-139.8 2062.31,-139.8 2062.31,-168.76 2062.31,-168.76"/>
<polygon fill="black" stroke="black" points="2058.81,-168.76 2062.31,-178.76 2065.81,-168.76 2058.81,-168.76"/>
</g>
<!-- OrderConsignedEntriesComponent  -->
<g id="node17" class="node">
<title>OrderConsignedEntriesComponent </title>
<polygon fill="#fb8072" stroke="black" points="1995.52,-214.8 1778.48,-214.8 1778.48,-178.8 1995.52,-178.8 1995.52,-214.8"/>
<text text-anchor="middle" x="1887" y="-192.6" font-family="Times,serif" font-size="14.00">OrderConsignedEntriesComponent </text>
</g>
<!-- ReplenishmentOrderDetailsModule&#45;&gt;OrderConsignedEntriesComponent  -->
<g id="edge16" class="edge">
<title>ReplenishmentOrderDetailsModule&#45;&gt;OrderConsignedEntriesComponent </title>
<path fill="none" stroke="black" stroke-dasharray="5,2" d="M1563.93,-142.8C1691.59,-142.8 1887,-142.8 1887,-142.8 1887,-142.8 1887,-168.52 1887,-168.52"/>
<polygon fill="black" stroke="black" points="1883.5,-168.52 1887,-178.52 1890.5,-168.52 1883.5,-168.52"/>
</g>
<!-- OrderDetailActionsComponent  -->
<g id="node18" class="node">
<title>OrderDetailActionsComponent </title>
<polygon fill="#fb8072" stroke="black" points="1760.74,-214.8 1565.26,-214.8 1565.26,-178.8 1760.74,-178.8 1760.74,-214.8"/>
<text text-anchor="middle" x="1663" y="-192.6" font-family="Times,serif" font-size="14.00">OrderDetailActionsComponent </text>
</g>
<!-- ReplenishmentOrderDetailsModule&#45;&gt;OrderDetailActionsComponent  -->
<g id="edge17" class="edge">
<title>ReplenishmentOrderDetailsModule&#45;&gt;OrderDetailActionsComponent </title>
<path fill="none" stroke="black" stroke-dasharray="5,2" d="M1564.15,-146.8C1568.92,-146.8 1571.74,-146.8 1571.74,-146.8 1571.74,-146.8 1571.74,-168.75 1571.74,-168.75"/>
<polygon fill="black" stroke="black" points="1568.24,-168.75 1571.74,-178.75 1575.24,-168.75 1568.24,-168.75"/>
</g>
<!-- OrderDetailItemsComponent  -->
<g id="node19" class="node">
<title>OrderDetailItemsComponent </title>
<polygon fill="#fb8072" stroke="black" points="1547.29,-214.8 1364.71,-214.8 1364.71,-178.8 1547.29,-178.8 1547.29,-214.8"/>
<text text-anchor="middle" x="1456" y="-192.6" font-family="Times,serif" font-size="14.00">OrderDetailItemsComponent </text>
</g>
<!-- ReplenishmentOrderDetailsModule&#45;&gt;OrderDetailItemsComponent  -->
<g id="edge18" class="edge">
<title>ReplenishmentOrderDetailsModule&#45;&gt;OrderDetailItemsComponent </title>
<path fill="none" stroke="black" stroke-dasharray="5,2" d="M1456,-149.91C1456,-149.91 1456,-168.79 1456,-168.79"/>
<polygon fill="black" stroke="black" points="1452.5,-168.79 1456,-178.79 1459.5,-168.79 1452.5,-168.79"/>
</g>
<!-- OrderDetailShippingComponent  -->
<g id="node20" class="node">
<title>OrderDetailShippingComponent </title>
<polygon fill="#fb8072" stroke="black" points="1346.25,-214.8 1143.75,-214.8 1143.75,-178.8 1346.25,-178.8 1346.25,-214.8"/>
<text text-anchor="middle" x="1245" y="-192.6" font-family="Times,serif" font-size="14.00">OrderDetailShippingComponent </text>
</g>
<!-- ReplenishmentOrderDetailsModule&#45;&gt;OrderDetailShippingComponent  -->
<g id="edge19" class="edge">
<title>ReplenishmentOrderDetailsModule&#45;&gt;OrderDetailShippingComponent </title>
<path fill="none" stroke="black" stroke-dasharray="5,2" d="M1356.34,-149.91C1356.34,-169.14 1356.34,-196.8 1356.34,-196.8 1356.34,-196.8 1355.35,-196.8 1355.35,-196.8"/>
<polygon fill="black" stroke="black" points="1356.46,-193.3 1346.46,-196.8 1356.46,-200.3 1356.46,-193.3"/>
</g>
<!-- OrderDetailTotalsComponent  -->
<g id="node21" class="node">
<title>OrderDetailTotalsComponent </title>
<polygon fill="#fb8072" stroke="black" points="1126.18,-214.8 939.82,-214.8 939.82,-178.8 1126.18,-178.8 1126.18,-214.8"/>
<text text-anchor="middle" x="1033" y="-192.6" font-family="Times,serif" font-size="14.00">OrderDetailTotalsComponent </text>
</g>
<!-- ReplenishmentOrderDetailsModule&#45;&gt;OrderDetailTotalsComponent  -->
<g id="edge20" class="edge">
<title>ReplenishmentOrderDetailsModule&#45;&gt;OrderDetailTotalsComponent </title>
<path fill="none" stroke="black" stroke-dasharray="5,2" d="M1348.16,-145.8C1237.77,-145.8 1082.29,-145.8 1082.29,-145.8 1082.29,-145.8 1082.29,-168.68 1082.29,-168.68"/>
<polygon fill="black" stroke="black" points="1078.79,-168.68 1082.29,-178.68 1085.79,-168.68 1078.79,-168.68"/>
</g>
<!-- TrackingEventsComponent  -->
<g id="node22" class="node">
<title>TrackingEventsComponent </title>
<polygon fill="#fb8072" stroke="black" points="921.97,-214.8 748.03,-214.8 748.03,-178.8 921.97,-178.8 921.97,-214.8"/>
<text text-anchor="middle" x="835" y="-192.6" font-family="Times,serif" font-size="14.00">TrackingEventsComponent </text>
</g>
<!-- ReplenishmentOrderDetailsModule&#45;&gt;TrackingEventsComponent  -->
<g id="edge21" class="edge">
<title>ReplenishmentOrderDetailsModule&#45;&gt;TrackingEventsComponent </title>
<path fill="none" stroke="black" stroke-dasharray="5,2" d="M1348.07,-141.8C1180.03,-141.8 874.93,-141.8 874.93,-141.8 874.93,-141.8 874.93,-168.79 874.93,-168.79"/>
<polygon fill="black" stroke="black" points="871.43,-168.79 874.93,-178.79 878.43,-168.79 871.43,-168.79"/>
</g>
<!-- CardModule -->
<g id="node9" class="node">
<title>CardModule</title>
<polygon fill="#8dd3c7" stroke="black" points="2514.27,-84.8 2511.27,-88.8 2490.27,-88.8 2487.27,-84.8 2427.73,-84.8 2427.73,-48.8 2514.27,-48.8 2514.27,-84.8"/>
<text text-anchor="middle" x="2471" y="-62.6" font-family="Times,serif" font-size="14.00">CardModule</text>
</g>
<!-- CardModule&#45;&gt;ReplenishmentOrderDetailsModule -->
<g id="edge8" class="edge">
<title>CardModule&#45;&gt;ReplenishmentOrderDetailsModule</title>
<path fill="none" stroke="black" d="M2471,-84.93C2471,-105.37 2471,-135.8 2471,-135.8 2471,-135.8 1574.14,-135.8 1574.14,-135.8"/>
<polygon fill="black" stroke="black" points="1574.14,-132.3 1564.14,-135.8 1574.14,-139.3 1574.14,-132.3"/>
</g>
<!-- I18nModule -->
<g id="node10" class="node">
<title>I18nModule</title>
<polygon fill="#8dd3c7" stroke="black" points="2409.71,-84.8 2406.71,-88.8 2385.71,-88.8 2382.71,-84.8 2324.29,-84.8 2324.29,-48.8 2409.71,-48.8 2409.71,-84.8"/>
<text text-anchor="middle" x="2367" y="-62.6" font-family="Times,serif" font-size="14.00">I18nModule</text>
</g>
<!-- I18nModule&#45;&gt;ReplenishmentOrderDetailsModule -->
<g id="edge9" class="edge">
<title>I18nModule&#45;&gt;ReplenishmentOrderDetailsModule</title>
<path fill="none" stroke="black" d="M2367,-84.91C2367,-104.14 2367,-131.8 2367,-131.8 2367,-131.8 1574.08,-131.8 1574.08,-131.8"/>
<polygon fill="black" stroke="black" points="1574.08,-128.3 1564.08,-131.8 1574.08,-135.3 1574.08,-128.3"/>
</g>
<!-- ListNavigationModule -->
<g id="node11" class="node">
<title>ListNavigationModule</title>
<polygon fill="#8dd3c7" stroke="black" points="2306.54,-84.8 2303.54,-88.8 2282.54,-88.8 2279.54,-84.8 2163.46,-84.8 2163.46,-48.8 2306.54,-48.8 2306.54,-84.8"/>
<text text-anchor="middle" x="2235" y="-62.6" font-family="Times,serif" font-size="14.00">ListNavigationModule</text>
</g>
<!-- ListNavigationModule&#45;&gt;ReplenishmentOrderDetailsModule -->
<g id="edge10" class="edge">
<title>ListNavigationModule&#45;&gt;ReplenishmentOrderDetailsModule</title>
<path fill="none" stroke="black" d="M2193.62,-85.07C2193.62,-103.36 2193.62,-128.8 2193.62,-128.8 2193.62,-128.8 1574.05,-128.8 1574.05,-128.8"/>
<polygon fill="black" stroke="black" points="1574.05,-125.3 1564.05,-128.8 1574.05,-132.3 1574.05,-125.3"/>
</g>
<!-- PromotionsModule -->
<g id="node12" class="node">
<title>PromotionsModule</title>
<polygon fill="#8dd3c7" stroke="black" points="2145.12,-84.8 2142.12,-88.8 2121.12,-88.8 2118.12,-84.8 2020.88,-84.8 2020.88,-48.8 2145.12,-48.8 2145.12,-84.8"/>
<text text-anchor="middle" x="2083" y="-62.6" font-family="Times,serif" font-size="14.00">PromotionsModule</text>
</g>
<!-- PromotionsModule&#45;&gt;ReplenishmentOrderDetailsModule -->
<g id="edge11" class="edge">
<title>PromotionsModule&#45;&gt;ReplenishmentOrderDetailsModule</title>
<path fill="none" stroke="black" d="M2103.69,-84.83C2103.69,-101.86 2103.69,-124.8 2103.69,-124.8 2103.69,-124.8 1574.04,-124.8 1574.04,-124.8"/>
<polygon fill="black" stroke="black" points="1574.04,-121.3 1564.04,-124.8 1574.04,-128.3 1574.04,-121.3"/>
</g>
<!-- ReplenishmentOrderCancellationDialogModule -->
<g id="node13" class="node">
<title>ReplenishmentOrderCancellationDialogModule</title>
<polygon fill="#8dd3c7" stroke="black" points="2002.54,-84.8 1999.54,-88.8 1978.54,-88.8 1975.54,-84.8 1717.46,-84.8 1717.46,-48.8 2002.54,-48.8 2002.54,-84.8"/>
<text text-anchor="middle" x="1860" y="-62.6" font-family="Times,serif" font-size="14.00">ReplenishmentOrderCancellationDialogModule</text>
</g>
<!-- ReplenishmentOrderCancellationDialogModule&#45;&gt;ReplenishmentOrderDetailsModule -->
<g id="edge12" class="edge">
<title>ReplenishmentOrderCancellationDialogModule&#45;&gt;ReplenishmentOrderDetailsModule</title>
<path fill="none" stroke="black" d="M1739.05,-84.81C1739.05,-100.85 1739.05,-121.8 1739.05,-121.8 1739.05,-121.8 1574.22,-121.8 1574.22,-121.8"/>
<polygon fill="black" stroke="black" points="1574.22,-118.3 1564.22,-121.8 1574.22,-125.3 1574.22,-118.3"/>
</g>
<!-- SpinnerModule -->
<g id="node14" class="node">
<title>SpinnerModule</title>
<polygon fill="#8dd3c7" stroke="black" points="1699.6,-84.8 1696.6,-88.8 1675.6,-88.8 1672.6,-84.8 1596.4,-84.8 1596.4,-48.8 1699.6,-48.8 1699.6,-84.8"/>
<text text-anchor="middle" x="1648" y="-62.6" font-family="Times,serif" font-size="14.00">SpinnerModule</text>
</g>
<!-- SpinnerModule&#45;&gt;ReplenishmentOrderDetailsModule -->
<g id="edge13" class="edge">
<title>SpinnerModule&#45;&gt;ReplenishmentOrderDetailsModule</title>
<path fill="none" stroke="black" d="M1648,-84.92C1648,-99.58 1648,-117.8 1648,-117.8 1648,-117.8 1574.07,-117.8 1574.07,-117.8"/>
<polygon fill="black" stroke="black" points="1574.07,-114.3 1564.07,-117.8 1574.07,-121.3 1574.07,-114.3"/>
</g>
<!-- UrlModule -->
<g id="node15" class="node">
<title>UrlModule</title>
<polygon fill="#8dd3c7" stroke="black" points="1578.21,-84.8 1575.21,-88.8 1554.21,-88.8 1551.21,-84.8 1499.79,-84.8 1499.79,-48.8 1578.21,-48.8 1578.21,-84.8"/>
<text text-anchor="middle" x="1539" y="-62.6" font-family="Times,serif" font-size="14.00">UrlModule</text>
</g>
<!-- UrlModule&#45;&gt;ReplenishmentOrderDetailsModule -->
<g id="edge14" class="edge">
<title>UrlModule&#45;&gt;ReplenishmentOrderDetailsModule</title>
<path fill="none" stroke="black" d="M1531.91,-84.91C1531.91,-84.91 1531.91,-103.79 1531.91,-103.79"/>
<polygon fill="black" stroke="black" points="1528.41,-103.79 1531.91,-113.79 1535.41,-103.79 1528.41,-103.79"/>
</g>
</g>
</svg>
