<?xml version="1.0" encoding="UTF-8" standalone="no"?>
<!DOCTYPE svg PUBLIC "-//W3C//DTD SVG 1.1//EN"
 "http://www.w3.org/Graphics/SVG/1.1/DTD/svg11.dtd">
<!-- Generated by graphviz version 5.0.0 (20220707.1540)
 -->
<!-- Title: dependencies Pages: 1 -->
<svg width="344pt" height="174pt"
 viewBox="0.00 0.00 344.00 173.80" xmlns="http://www.w3.org/2000/svg" xmlns:xlink="http://www.w3.org/1999/xlink">
<g id="graph0" class="graph" transform="scale(1 1) rotate(0) translate(4 169.8)">
<title>dependencies</title>
<polygon fill="white" stroke="transparent" points="-4,4 -4,-169.8 340,-169.8 340,4 -4,4"/>
<text text-anchor="middle" x="168" y="-8.2" font-family="sans-serif" font-size="14.00">dependencies</text>
<g id="clust1" class="cluster">
<title>cluster_CheckoutScheduledReplenishmentRootModule</title>
<polygon fill="none" stroke="black" stroke-dasharray="1,5" points="8,-32.8 8,-157.8 328,-157.8 328,-32.8 8,-32.8"/>
</g>
<g id="clust3" class="cluster">
<title>cluster_CheckoutScheduledReplenishmentRootModule_imports</title>
<polygon fill="none" stroke="black" points="16,-40.8 16,-92.8 320,-92.8 320,-40.8 16,-40.8"/>
</g>
<!-- CheckoutScheduledReplenishmentEventModule -->
<g id="node1" class="node">
<title>CheckoutScheduledReplenishmentEventModule</title>
<polygon fill="#8dd3c7" stroke="black" points="312.17,-84.8 309.17,-88.8 288.17,-88.8 285.17,-84.8 23.83,-84.8 23.83,-48.8 312.17,-48.8 312.17,-84.8"/>
<text text-anchor="middle" x="168" y="-62.6" font-family="Times,serif" font-size="14.00">CheckoutScheduledReplenishmentEventModule</text>
</g>
<!-- CheckoutScheduledReplenishmentRootModule -->
<g id="node2" class="node">
<title>CheckoutScheduledReplenishmentRootModule</title>
<polygon fill="#8dd3c7" stroke="black" points="309.24,-149.8 306.24,-153.8 285.24,-153.8 282.24,-149.8 26.76,-149.8 26.76,-113.8 309.24,-113.8 309.24,-149.8"/>
<text text-anchor="middle" x="168" y="-127.6" font-family="Times,serif" font-size="14.00">CheckoutScheduledReplenishmentRootModule</text>
</g>
<!-- CheckoutScheduledReplenishmentEventModule&#45;&gt;CheckoutScheduledReplenishmentRootModule -->
<g id="edge1" class="edge">
<title>CheckoutScheduledReplenishmentEventModule&#45;&gt;CheckoutScheduledReplenishmentRootModule</title>
<path fill="none" stroke="black" d="M168,-84.91C168,-84.91 168,-103.79 168,-103.79"/>
<polygon fill="black" stroke="black" points="164.5,-103.79 168,-113.79 171.5,-103.79 164.5,-103.79"/>
</g>
</g>
</svg>
