<?xml version="1.0" encoding="UTF-8" standalone="no"?>
<!DOCTYPE svg PUBLIC "-//W3C//DTD SVG 1.1//EN"
 "http://www.w3.org/Graphics/SVG/1.1/DTD/svg11.dtd">
<!-- Generated by graphviz version 5.0.0 (20220707.1540)
 -->
<!-- Title: dependencies Pages: 1 -->
<svg width="312pt" height="247pt"
 viewBox="0.00 0.00 312.00 246.80" xmlns="http://www.w3.org/2000/svg" xmlns:xlink="http://www.w3.org/1999/xlink">
<g id="graph0" class="graph" transform="scale(1 1) rotate(0) translate(4 242.8)">
<title>dependencies</title>
<polygon fill="white" stroke="transparent" points="-4,4 -4,-242.8 308,-242.8 308,4 -4,4"/>
<text text-anchor="middle" x="152" y="-8.2" font-family="sans-serif" font-size="14.00">dependencies</text>
<g id="clust1" class="cluster">
<title>cluster_FormErrorsModule</title>
<polygon fill="none" stroke="black" stroke-dasharray="1,5" points="8,-32.8 8,-230.8 296,-230.8 296,-32.8 8,-32.8"/>
</g>
<g id="clust5" class="cluster">
<title>cluster_FormErrorsModule_exports</title>
<polygon fill="none" stroke="black" points="69,-170.8 69,-222.8 235,-222.8 235,-170.8 69,-170.8"/>
</g>
<g id="clust4" class="cluster">
<title>cluster_FormErrorsModule_imports</title>
<polygon fill="none" stroke="black" points="186,-40.8 186,-92.8 288,-92.8 288,-40.8 186,-40.8"/>
</g>
<g id="clust2" class="cluster">
<title>cluster_FormErrorsModule_declarations</title>
<polygon fill="none" stroke="black" points="16,-40.8 16,-92.8 178,-92.8 178,-40.8 16,-40.8"/>
</g>
<!-- FormErrorsComponent -->
<g id="node1" class="node">
<title>FormErrorsComponent</title>
<polygon fill="#ffffb3" stroke="black" points="170.16,-84.8 23.84,-84.8 23.84,-48.8 170.16,-48.8 170.16,-84.8"/>
<text text-anchor="middle" x="97" y="-62.6" font-family="Times,serif" font-size="14.00">FormErrorsComponent</text>
</g>
<!-- FormErrorsModule -->
<g id="node2" class="node">
<title>FormErrorsModule</title>
<polygon fill="#8dd3c7" stroke="black" points="214.38,-149.8 211.38,-153.8 190.38,-153.8 187.38,-149.8 89.62,-149.8 89.62,-113.8 214.38,-113.8 214.38,-149.8"/>
<text text-anchor="middle" x="152" y="-127.6" font-family="Times,serif" font-size="14.00">FormErrorsModule</text>
</g>
<!-- FormErrorsComponent&#45;&gt;FormErrorsModule -->
<g id="edge1" class="edge">
<title>FormErrorsComponent&#45;&gt;FormErrorsModule</title>
<path fill="none" stroke="black" d="M129.94,-84.91C129.94,-84.91 129.94,-103.79 129.94,-103.79"/>
<polygon fill="black" stroke="black" points="126.44,-103.79 129.94,-113.79 133.44,-103.79 126.44,-103.79"/>
</g>
<!-- FormErrorsComponent  -->
<g id="node4" class="node">
<title>FormErrorsComponent </title>
<polygon fill="#fb8072" stroke="black" points="227.16,-214.8 76.84,-214.8 76.84,-178.8 227.16,-178.8 227.16,-214.8"/>
<text text-anchor="middle" x="152" y="-192.6" font-family="Times,serif" font-size="14.00">FormErrorsComponent </text>
</g>
<!-- FormErrorsModule&#45;&gt;FormErrorsComponent  -->
<g id="edge3" class="edge">
<title>FormErrorsModule&#45;&gt;FormErrorsComponent </title>
<path fill="none" stroke="black" stroke-dasharray="5,2" d="M152,-149.91C152,-149.91 152,-168.79 152,-168.79"/>
<polygon fill="black" stroke="black" points="148.5,-168.79 152,-178.79 155.5,-168.79 148.5,-168.79"/>
</g>
<!-- I18nModule -->
<g id="node3" class="node">
<title>I18nModule</title>
<polygon fill="#8dd3c7" stroke="black" points="279.71,-84.8 276.71,-88.8 255.71,-88.8 252.71,-84.8 194.29,-84.8 194.29,-48.8 279.71,-48.8 279.71,-84.8"/>
<text text-anchor="middle" x="237" y="-62.6" font-family="Times,serif" font-size="14.00">I18nModule</text>
</g>
<!-- I18nModule&#45;&gt;FormErrorsModule -->
<g id="edge2" class="edge">
<title>I18nModule&#45;&gt;FormErrorsModule</title>
<path fill="none" stroke="black" d="M204.42,-84.91C204.42,-84.91 204.42,-103.79 204.42,-103.79"/>
<polygon fill="black" stroke="black" points="200.92,-103.79 204.42,-113.79 207.92,-103.79 200.92,-103.79"/>
</g>
</g>
</svg>
