<?xml version="1.0" encoding="UTF-8" standalone="no"?>
<!DOCTYPE svg PUBLIC "-//W3C//DTD SVG 1.1//EN"
 "http://www.w3.org/Graphics/SVG/1.1/DTD/svg11.dtd">
<!-- Generated by graphviz version 5.0.0 (20220707.1540)
 -->
<!-- Title: dependencies Pages: 1 -->
<svg width="869pt" height="285pt"
 viewBox="0.00 0.00 869.00 285.39" xmlns="http://www.w3.org/2000/svg" xmlns:xlink="http://www.w3.org/1999/xlink">
<g id="graph0" class="graph" transform="scale(1 1) rotate(0) translate(4 281.39)">
<title>dependencies</title>
<polygon fill="white" stroke="transparent" points="-4,4 -4,-281.39 865,-281.39 865,4 -4,4"/>
<text text-anchor="middle" x="430.5" y="-8.2" font-family="sans-serif" font-size="14.00">dependencies</text>
<g id="clust1" class="cluster">
<title>cluster_CostCenterBudgetListModule</title>
<polygon fill="none" stroke="black" stroke-dasharray="1,5" points="8,-32.8 8,-269.39 853,-269.39 853,-32.8 8,-32.8"/>
</g>
<g id="clust2" class="cluster">
<title>cluster_CostCenterBudgetListModule_declarations</title>
<polygon fill="none" stroke="black" points="346,-152.39 346,-204.39 845,-204.39 845,-152.39 346,-152.39"/>
</g>
<g id="clust4" class="cluster">
<title>cluster_CostCenterBudgetListModule_CostCenterBudgetListComponent_providers</title>
<polygon fill="none" stroke="black" points="170,-40.8 170,-139.39 744,-139.39 744,-40.8 170,-40.8"/>
</g>
<g id="clust5" class="cluster">
<title>cluster_CostCenterBudgetListModule_imports</title>
<polygon fill="none" stroke="black" points="16,-152.39 16,-204.39 338,-204.39 338,-152.39 16,-152.39"/>
</g>
<!-- CostCenterAssignedBudgetListComponent -->
<g id="node1" class="node">
<title>CostCenterAssignedBudgetListComponent</title>
<polygon fill="#ffffb3" stroke="black" points="837.16,-196.39 578.84,-196.39 578.84,-160.39 837.16,-160.39 837.16,-196.39"/>
<text text-anchor="middle" x="708" y="-174.19" font-family="Times,serif" font-size="14.00">CostCenterAssignedBudgetListComponent</text>
</g>
<!-- CostCenterBudgetListModule -->
<g id="node3" class="node">
<title>CostCenterBudgetListModule</title>
<polygon fill="#8dd3c7" stroke="black" points="379.27,-261.39 376.27,-265.39 355.27,-265.39 352.27,-261.39 194.73,-261.39 194.73,-225.39 379.27,-225.39 379.27,-261.39"/>
<text text-anchor="middle" x="287" y="-239.19" font-family="Times,serif" font-size="14.00">CostCenterBudgetListModule</text>
</g>
<!-- CostCenterAssignedBudgetListComponent&#45;&gt;CostCenterBudgetListModule -->
<g id="edge1" class="edge">
<title>CostCenterAssignedBudgetListComponent&#45;&gt;CostCenterBudgetListModule</title>
<path fill="none" stroke="black" d="M708,-196.5C708,-215.73 708,-243.39 708,-243.39 708,-243.39 389.39,-243.39 389.39,-243.39"/>
<polygon fill="black" stroke="black" points="389.39,-239.89 379.39,-243.39 389.39,-246.89 389.39,-239.89"/>
</g>
<!-- CostCenterBudgetListComponent -->
<g id="node2" class="node">
<title>CostCenterBudgetListComponent</title>
<polygon fill="#ffffb3" stroke="black" points="560.05,-196.39 353.95,-196.39 353.95,-160.39 560.05,-160.39 560.05,-196.39"/>
<text text-anchor="middle" x="457" y="-174.19" font-family="Times,serif" font-size="14.00">CostCenterBudgetListComponent</text>
</g>
<!-- CostCenterBudgetListComponent&#45;&gt;CostCenterBudgetListModule -->
<g id="edge2" class="edge">
<title>CostCenterBudgetListComponent&#45;&gt;CostCenterBudgetListModule</title>
<path fill="none" stroke="black" d="M366.56,-196.5C366.56,-196.5 366.56,-215.38 366.56,-215.38"/>
<polygon fill="black" stroke="black" points="363.06,-215.38 366.56,-225.38 370.06,-215.38 363.06,-215.38"/>
</g>
<!-- {
 &#160;&#160;&#160;provide: ListService, useExisting: CostCenterBudgetListService,
} -->
<g id="node4" class="node">
<title>{
 &#160;&#160;&#160;provide: ListService, useExisting: CostCenterBudgetListService,
}</title>
<ellipse fill="#fdb462" stroke="black" cx="457" cy="-90.1" rx="278.66" ry="41.09"/>
<text text-anchor="middle" x="457" y="-102.7" font-family="Times,serif" font-size="14.00">{</text>
<text text-anchor="middle" x="457" y="-85.9" font-family="Times,serif" font-size="14.00"> &#160;&#160;&#160;provide: ListService, useExisting: CostCenterBudgetListService,</text>
<text text-anchor="middle" x="457" y="-69.1" font-family="Times,serif" font-size="14.00">}</text>
</g>
<!-- {
 &#160;&#160;&#160;provide: ListService, useExisting: CostCenterBudgetListService,
}&#45;&gt;CostCenterBudgetListComponent -->
<g id="edge3" class="edge">
<title>{
 &#160;&#160;&#160;provide: ListService, useExisting: CostCenterBudgetListService,
}&#45;&gt;CostCenterBudgetListComponent</title>
<path fill="none" stroke="black" d="M457,-131.4C457,-131.4 457,-150.06 457,-150.06"/>
<polygon fill="black" stroke="black" points="453.5,-150.06 457,-160.06 460.5,-150.06 453.5,-150.06"/>
</g>
<!-- I18nModule -->
<g id="node5" class="node">
<title>I18nModule</title>
<polygon fill="#8dd3c7" stroke="black" points="329.71,-196.39 326.71,-200.39 305.71,-200.39 302.71,-196.39 244.29,-196.39 244.29,-160.39 329.71,-160.39 329.71,-196.39"/>
<text text-anchor="middle" x="287" y="-174.19" font-family="Times,serif" font-size="14.00">I18nModule</text>
</g>
<!-- I18nModule&#45;&gt;CostCenterBudgetListModule -->
<g id="edge4" class="edge">
<title>I18nModule&#45;&gt;CostCenterBudgetListModule</title>
<path fill="none" stroke="black" d="M287,-196.5C287,-196.5 287,-215.38 287,-215.38"/>
<polygon fill="black" stroke="black" points="283.5,-215.38 287,-225.38 290.5,-215.38 283.5,-215.38"/>
</g>
<!-- ListModule -->
<g id="node6" class="node">
<title>ListModule</title>
<polygon fill="#8dd3c7" stroke="black" points="226.83,-196.39 223.83,-200.39 202.83,-200.39 199.83,-196.39 145.17,-196.39 145.17,-160.39 226.83,-160.39 226.83,-196.39"/>
<text text-anchor="middle" x="186" y="-174.19" font-family="Times,serif" font-size="14.00">ListModule</text>
</g>
<!-- ListModule&#45;&gt;CostCenterBudgetListModule -->
<g id="edge5" class="edge">
<title>ListModule&#45;&gt;CostCenterBudgetListModule</title>
<path fill="none" stroke="black" d="M210.64,-196.5C210.64,-196.5 210.64,-215.38 210.64,-215.38"/>
<polygon fill="black" stroke="black" points="207.14,-215.38 210.64,-225.38 214.14,-215.38 207.14,-215.38"/>
</g>
<!-- SubListModule -->
<g id="node7" class="node">
<title>SubListModule</title>
<polygon fill="#8dd3c7" stroke="black" points="127.62,-196.39 124.62,-200.39 103.62,-200.39 100.62,-196.39 24.38,-196.39 24.38,-160.39 127.62,-160.39 127.62,-196.39"/>
<text text-anchor="middle" x="76" y="-174.19" font-family="Times,serif" font-size="14.00">SubListModule</text>
</g>
<!-- SubListModule&#45;&gt;CostCenterBudgetListModule -->
<g id="edge6" class="edge">
<title>SubListModule&#45;&gt;CostCenterBudgetListModule</title>
<path fill="none" stroke="black" d="M76,-196.5C76,-215.73 76,-243.39 76,-243.39 76,-243.39 184.45,-243.39 184.45,-243.39"/>
<polygon fill="black" stroke="black" points="184.45,-246.89 194.45,-243.39 184.45,-239.89 184.45,-246.89"/>
</g>
</g>
</svg>
