<?xml version="1.0" encoding="UTF-8" standalone="no"?>
<!DOCTYPE svg PUBLIC "-//W3C//DTD SVG 1.1//EN"
 "http://www.w3.org/Graphics/SVG/1.1/DTD/svg11.dtd">
<!-- Generated by graphviz version 5.0.0 (20220707.1540)
 -->
<!-- Title: dependencies Pages: 1 -->
<svg width="749pt" height="174pt"
 viewBox="0.00 0.00 749.00 173.80" xmlns="http://www.w3.org/2000/svg" xmlns:xlink="http://www.w3.org/1999/xlink">
<g id="graph0" class="graph" transform="scale(1 1) rotate(0) translate(4 169.8)">
<title>dependencies</title>
<polygon fill="white" stroke="transparent" points="-4,4 -4,-169.8 745,-169.8 745,4 -4,4"/>
<text text-anchor="middle" x="370.5" y="-8.2" font-family="sans-serif" font-size="14.00">dependencies</text>
<g id="clust1" class="cluster">
<title>cluster_CdcCoreModule</title>
<polygon fill="none" stroke="black" stroke-dasharray="1,5" points="8,-32.8 8,-157.8 733,-157.8 733,-32.8 8,-32.8"/>
</g>
<g id="clust3" class="cluster">
<title>cluster_CdcCoreModule_imports</title>
<polygon fill="none" stroke="black" points="467,-40.8 467,-92.8 725,-92.8 725,-40.8 467,-40.8"/>
</g>
<g id="clust6" class="cluster">
<title>cluster_CdcCoreModule_providers</title>
<polygon fill="none" stroke="black" points="16,-40.8 16,-92.8 459,-92.8 459,-40.8 16,-40.8"/>
</g>
<!-- CdcAuthModule -->
<g id="node1" class="node">
<title>CdcAuthModule</title>
<polygon fill="#8dd3c7" stroke="black" points="717.1,-84.8 714.1,-88.8 693.1,-88.8 690.1,-84.8 606.9,-84.8 606.9,-48.8 717.1,-48.8 717.1,-84.8"/>
<text text-anchor="middle" x="662" y="-62.6" font-family="Times,serif" font-size="14.00">CdcAuthModule</text>
</g>
<!-- CdcCoreModule -->
<g id="node3" class="node">
<title>CdcCoreModule</title>
<polygon fill="#8dd3c7" stroke="black" points="498.82,-149.8 495.82,-153.8 474.82,-153.8 471.82,-149.8 389.18,-149.8 389.18,-113.8 498.82,-113.8 498.82,-149.8"/>
<text text-anchor="middle" x="444" y="-127.6" font-family="Times,serif" font-size="14.00">CdcCoreModule</text>
</g>
<!-- CdcAuthModule&#45;&gt;CdcCoreModule -->
<g id="edge1" class="edge">
<title>CdcAuthModule&#45;&gt;CdcCoreModule</title>
<path fill="none" stroke="black" d="M662,-84.91C662,-104.14 662,-131.8 662,-131.8 662,-131.8 508.73,-131.8 508.73,-131.8"/>
<polygon fill="black" stroke="black" points="508.73,-128.3 498.73,-131.8 508.73,-135.3 508.73,-128.3"/>
</g>
<!-- CdcEventModule -->
<g id="node2" class="node">
<title>CdcEventModule</title>
<polygon fill="#8dd3c7" stroke="black" points="589.26,-84.8 586.26,-88.8 565.26,-88.8 562.26,-84.8 474.74,-84.8 474.74,-48.8 589.26,-48.8 589.26,-84.8"/>
<text text-anchor="middle" x="532" y="-62.6" font-family="Times,serif" font-size="14.00">CdcEventModule</text>
</g>
<!-- CdcEventModule&#45;&gt;CdcCoreModule -->
<g id="edge2" class="edge">
<title>CdcEventModule&#45;&gt;CdcCoreModule</title>
<path fill="none" stroke="black" d="M486.64,-84.91C486.64,-84.91 486.64,-103.79 486.64,-103.79"/>
<polygon fill="black" stroke="black" points="483.14,-103.79 486.64,-113.79 490.14,-103.79 483.14,-103.79"/>
</g>
<!-- AsmBindCartService -->
<g id="node4" class="node">
<title>AsmBindCartService</title>
<ellipse fill="#fdb462" stroke="black" cx="357" cy="-66.8" rx="93.79" ry="18"/>
<text text-anchor="middle" x="357" y="-62.6" font-family="Times,serif" font-size="14.00">AsmBindCartService</text>
</g>
<!-- AsmBindCartService&#45;&gt;CdcCoreModule -->
<g id="edge3" class="edge">
<title>AsmBindCartService&#45;&gt;CdcCoreModule</title>
<path fill="none" stroke="black" d="M419.99,-80.27C419.99,-80.27 419.99,-103.66 419.99,-103.66"/>
<polygon fill="black" stroke="black" points="416.49,-103.66 419.99,-113.66 423.49,-103.66 416.49,-103.66"/>
</g>
<!-- AsmCustomerListService -->
<g id="node5" class="node">
<title>AsmCustomerListService</title>
<ellipse fill="#fdb462" stroke="black" cx="135" cy="-66.8" rx="110.63" ry="18"/>
<text text-anchor="middle" x="135" y="-62.6" font-family="Times,serif" font-size="14.00">AsmCustomerListService</text>
</g>
<!-- AsmCustomerListService&#45;&gt;CdcCoreModule -->
<g id="edge4" class="edge">
<title>AsmCustomerListService&#45;&gt;CdcCoreModule</title>
<path fill="none" stroke="black" d="M135,-84.91C135,-104.14 135,-131.8 135,-131.8 135,-131.8 379.11,-131.8 379.11,-131.8"/>
<polygon fill="black" stroke="black" points="379.11,-135.3 389.11,-131.8 379.11,-128.3 379.11,-135.3"/>
</g>
</g>
</svg>
