<?xml version="1.0" encoding="UTF-8" standalone="no"?>
<!DOCTYPE svg PUBLIC "-//W3C//DTD SVG 1.1//EN"
 "http://www.w3.org/Graphics/SVG/1.1/DTD/svg11.dtd">
<!-- Generated by graphviz version 5.0.0 (20220707.1540)
 -->
<!-- Title: dependencies Pages: 1 -->
<svg width="804pt" height="174pt"
 viewBox="0.00 0.00 804.00 173.80" xmlns="http://www.w3.org/2000/svg" xmlns:xlink="http://www.w3.org/1999/xlink">
<g id="graph0" class="graph" transform="scale(1 1) rotate(0) translate(4 169.8)">
<title>dependencies</title>
<polygon fill="white" stroke="transparent" points="-4,4 -4,-169.8 800,-169.8 800,4 -4,4"/>
<text text-anchor="middle" x="398" y="-8.2" font-family="sans-serif" font-size="14.00">dependencies</text>
<g id="clust1" class="cluster">
<title>cluster_ConfirmationMessageModule</title>
<polygon fill="none" stroke="black" stroke-dasharray="1,5" points="8,-32.8 8,-157.8 788,-157.8 788,-32.8 8,-32.8"/>
</g>
<g id="clust4" class="cluster">
<title>cluster_ConfirmationMessageModule_imports</title>
<polygon fill="none" stroke="black" points="246,-40.8 246,-92.8 780,-92.8 780,-40.8 246,-40.8"/>
</g>
<g id="clust2" class="cluster">
<title>cluster_ConfirmationMessageModule_declarations</title>
<polygon fill="none" stroke="black" points="16,-40.8 16,-92.8 238,-92.8 238,-40.8 16,-40.8"/>
</g>
<!-- ConfirmationMessageComponent -->
<g id="node1" class="node">
<title>ConfirmationMessageComponent</title>
<polygon fill="#ffffb3" stroke="black" points="229.75,-84.8 24.25,-84.8 24.25,-48.8 229.75,-48.8 229.75,-84.8"/>
<text text-anchor="middle" x="127" y="-62.6" font-family="Times,serif" font-size="14.00">ConfirmationMessageComponent</text>
</g>
<!-- ConfirmationMessageModule -->
<g id="node2" class="node">
<title>ConfirmationMessageModule</title>
<polygon fill="#8dd3c7" stroke="black" points="553.97,-149.8 550.97,-153.8 529.97,-153.8 526.97,-149.8 370.03,-149.8 370.03,-113.8 553.97,-113.8 553.97,-149.8"/>
<text text-anchor="middle" x="462" y="-127.6" font-family="Times,serif" font-size="14.00">ConfirmationMessageModule</text>
</g>
<!-- ConfirmationMessageComponent&#45;&gt;ConfirmationMessageModule -->
<g id="edge1" class="edge">
<title>ConfirmationMessageComponent&#45;&gt;ConfirmationMessageModule</title>
<path fill="none" stroke="black" d="M127,-84.91C127,-104.14 127,-131.8 127,-131.8 127,-131.8 360.02,-131.8 360.02,-131.8"/>
<polygon fill="black" stroke="black" points="360.02,-135.3 370.02,-131.8 360.02,-128.3 360.02,-135.3"/>
</g>
<!-- FeaturesConfigModule -->
<g id="node3" class="node">
<title>FeaturesConfigModule</title>
<polygon fill="#8dd3c7" stroke="black" points="771.87,-84.8 768.87,-88.8 747.87,-88.8 744.87,-84.8 626.13,-84.8 626.13,-48.8 771.87,-48.8 771.87,-84.8"/>
<text text-anchor="middle" x="699" y="-62.6" font-family="Times,serif" font-size="14.00">FeaturesConfigModule</text>
</g>
<!-- FeaturesConfigModule&#45;&gt;ConfirmationMessageModule -->
<g id="edge2" class="edge">
<title>FeaturesConfigModule&#45;&gt;ConfirmationMessageModule</title>
<path fill="none" stroke="black" d="M699,-84.91C699,-104.14 699,-131.8 699,-131.8 699,-131.8 564.31,-131.8 564.31,-131.8"/>
<polygon fill="black" stroke="black" points="564.31,-128.3 554.31,-131.8 564.31,-135.3 564.31,-128.3"/>
</g>
<!-- I18nModule -->
<g id="node4" class="node">
<title>I18nModule</title>
<polygon fill="#8dd3c7" stroke="black" points="607.71,-84.8 604.71,-88.8 583.71,-88.8 580.71,-84.8 522.29,-84.8 522.29,-48.8 607.71,-48.8 607.71,-84.8"/>
<text text-anchor="middle" x="565" y="-62.6" font-family="Times,serif" font-size="14.00">I18nModule</text>
</g>
<!-- I18nModule&#45;&gt;ConfirmationMessageModule -->
<g id="edge3" class="edge">
<title>I18nModule&#45;&gt;ConfirmationMessageModule</title>
<path fill="none" stroke="black" d="M538.19,-84.91C538.19,-84.91 538.19,-103.79 538.19,-103.79"/>
<polygon fill="black" stroke="black" points="534.69,-103.79 538.19,-113.79 541.69,-103.79 534.69,-103.79"/>
</g>
<!-- IconModule -->
<g id="node5" class="node">
<title>IconModule</title>
<polygon fill="#8dd3c7" stroke="black" points="504.43,-84.8 501.43,-88.8 480.43,-88.8 477.43,-84.8 419.57,-84.8 419.57,-48.8 504.43,-48.8 504.43,-84.8"/>
<text text-anchor="middle" x="462" y="-62.6" font-family="Times,serif" font-size="14.00">IconModule</text>
</g>
<!-- IconModule&#45;&gt;ConfirmationMessageModule -->
<g id="edge4" class="edge">
<title>IconModule&#45;&gt;ConfirmationMessageModule</title>
<path fill="none" stroke="black" d="M462,-84.91C462,-84.91 462,-103.79 462,-103.79"/>
<polygon fill="black" stroke="black" points="458.5,-103.79 462,-113.79 465.5,-103.79 458.5,-103.79"/>
</g>
<!-- KeyboardFocusModule -->
<g id="node6" class="node">
<title>KeyboardFocusModule</title>
<polygon fill="#8dd3c7" stroke="black" points="402.2,-84.8 399.2,-88.8 378.2,-88.8 375.2,-84.8 253.8,-84.8 253.8,-48.8 402.2,-48.8 402.2,-84.8"/>
<text text-anchor="middle" x="328" y="-62.6" font-family="Times,serif" font-size="14.00">KeyboardFocusModule</text>
</g>
<!-- KeyboardFocusModule&#45;&gt;ConfirmationMessageModule -->
<g id="edge5" class="edge">
<title>KeyboardFocusModule&#45;&gt;ConfirmationMessageModule</title>
<path fill="none" stroke="black" d="M386.06,-84.91C386.06,-84.91 386.06,-103.79 386.06,-103.79"/>
<polygon fill="black" stroke="black" points="382.56,-103.79 386.06,-113.79 389.56,-103.79 382.56,-103.79"/>
</g>
</g>
</svg>
