<?xml version="1.0" encoding="UTF-8" standalone="no"?>
<!DOCTYPE svg PUBLIC "-//W3C//DTD SVG 1.1//EN"
 "http://www.w3.org/Graphics/SVG/1.1/DTD/svg11.dtd">
<!-- Generated by graphviz version 5.0.0 (20220707.1540)
 -->
<!-- Title: dependencies Pages: 1 -->
<svg width="458pt" height="247pt"
 viewBox="0.00 0.00 458.00 246.80" xmlns="http://www.w3.org/2000/svg" xmlns:xlink="http://www.w3.org/1999/xlink">
<g id="graph0" class="graph" transform="scale(1 1) rotate(0) translate(4 242.8)">
<title>dependencies</title>
<polygon fill="white" stroke="transparent" points="-4,4 -4,-242.8 454,-242.8 454,4 -4,4"/>
<text text-anchor="middle" x="225" y="-8.2" font-family="sans-serif" font-size="14.00">dependencies</text>
<g id="clust1" class="cluster">
<title>cluster_ProductSummaryModule</title>
<polygon fill="none" stroke="black" stroke-dasharray="1,5" points="8,-32.8 8,-230.8 442,-230.8 442,-32.8 8,-32.8"/>
</g>
<g id="clust4" class="cluster">
<title>cluster_ProductSummaryModule_imports</title>
<polygon fill="none" stroke="black" points="220,-40.8 220,-92.8 434,-92.8 434,-40.8 220,-40.8"/>
</g>
<g id="clust2" class="cluster">
<title>cluster_ProductSummaryModule_declarations</title>
<polygon fill="none" stroke="black" points="16,-40.8 16,-92.8 212,-92.8 212,-40.8 16,-40.8"/>
</g>
<g id="clust5" class="cluster">
<title>cluster_ProductSummaryModule_exports</title>
<polygon fill="none" stroke="black" points="176,-170.8 176,-222.8 374,-222.8 374,-170.8 176,-170.8"/>
</g>
<!-- ProductSummaryComponent -->
<g id="node1" class="node">
<title>ProductSummaryComponent</title>
<polygon fill="#ffffb3" stroke="black" points="203.82,-84.8 24.18,-84.8 24.18,-48.8 203.82,-48.8 203.82,-84.8"/>
<text text-anchor="middle" x="114" y="-62.6" font-family="Times,serif" font-size="14.00">ProductSummaryComponent</text>
</g>
<!-- ProductSummaryModule -->
<g id="node2" class="node">
<title>ProductSummaryModule</title>
<polygon fill="#8dd3c7" stroke="black" points="353.55,-149.8 350.55,-153.8 329.55,-153.8 326.55,-149.8 196.45,-149.8 196.45,-113.8 353.55,-113.8 353.55,-149.8"/>
<text text-anchor="middle" x="275" y="-127.6" font-family="Times,serif" font-size="14.00">ProductSummaryModule</text>
</g>
<!-- ProductSummaryComponent&#45;&gt;ProductSummaryModule -->
<g id="edge1" class="edge">
<title>ProductSummaryComponent&#45;&gt;ProductSummaryModule</title>
<path fill="none" stroke="black" d="M199.94,-84.91C199.94,-84.91 199.94,-103.79 199.94,-103.79"/>
<polygon fill="black" stroke="black" points="196.44,-103.79 199.94,-113.79 203.44,-103.79 196.44,-103.79"/>
</g>
<!-- ProductSummaryComponent  -->
<g id="node5" class="node">
<title>ProductSummaryComponent </title>
<polygon fill="#fb8072" stroke="black" points="366.32,-214.8 183.68,-214.8 183.68,-178.8 366.32,-178.8 366.32,-214.8"/>
<text text-anchor="middle" x="275" y="-192.6" font-family="Times,serif" font-size="14.00">ProductSummaryComponent </text>
</g>
<!-- ProductSummaryModule&#45;&gt;ProductSummaryComponent  -->
<g id="edge4" class="edge">
<title>ProductSummaryModule&#45;&gt;ProductSummaryComponent </title>
<path fill="none" stroke="black" stroke-dasharray="5,2" d="M275,-149.91C275,-149.91 275,-168.79 275,-168.79"/>
<polygon fill="black" stroke="black" points="271.5,-168.79 275,-178.79 278.5,-168.79 271.5,-168.79"/>
</g>
<!-- I18nModule -->
<g id="node3" class="node">
<title>I18nModule</title>
<polygon fill="#8dd3c7" stroke="black" points="425.71,-84.8 422.71,-88.8 401.71,-88.8 398.71,-84.8 340.29,-84.8 340.29,-48.8 425.71,-48.8 425.71,-84.8"/>
<text text-anchor="middle" x="383" y="-62.6" font-family="Times,serif" font-size="14.00">I18nModule</text>
</g>
<!-- I18nModule&#45;&gt;ProductSummaryModule -->
<g id="edge2" class="edge">
<title>I18nModule&#45;&gt;ProductSummaryModule</title>
<path fill="none" stroke="black" d="M347.08,-84.91C347.08,-84.91 347.08,-103.79 347.08,-103.79"/>
<polygon fill="black" stroke="black" points="343.58,-103.79 347.08,-113.79 350.58,-103.79 343.58,-103.79"/>
</g>
<!-- OutletModule -->
<g id="node4" class="node">
<title>OutletModule</title>
<polygon fill="#8dd3c7" stroke="black" points="322.05,-84.8 319.05,-88.8 298.05,-88.8 295.05,-84.8 227.95,-84.8 227.95,-48.8 322.05,-48.8 322.05,-84.8"/>
<text text-anchor="middle" x="275" y="-62.6" font-family="Times,serif" font-size="14.00">OutletModule</text>
</g>
<!-- OutletModule&#45;&gt;ProductSummaryModule -->
<g id="edge3" class="edge">
<title>OutletModule&#45;&gt;ProductSummaryModule</title>
<path fill="none" stroke="black" d="M275,-84.91C275,-84.91 275,-103.79 275,-103.79"/>
<polygon fill="black" stroke="black" points="271.5,-103.79 275,-113.79 278.5,-103.79 271.5,-103.79"/>
</g>
</g>
</svg>
