<?xml version="1.0" encoding="UTF-8" standalone="no"?>
<!DOCTYPE svg PUBLIC "-//W3C//DTD SVG 1.1//EN"
 "http://www.w3.org/Graphics/SVG/1.1/DTD/svg11.dtd">
<!-- Generated by graphviz version 5.0.0 (20220707.1540)
 -->
<!-- Title: dependencies Pages: 1 -->
<svg width="1278pt" height="247pt"
 viewBox="0.00 0.00 1278.00 246.80" xmlns="http://www.w3.org/2000/svg" xmlns:xlink="http://www.w3.org/1999/xlink">
<g id="graph0" class="graph" transform="scale(1 1) rotate(0) translate(4 242.8)">
<title>dependencies</title>
<polygon fill="white" stroke="transparent" points="-4,4 -4,-242.8 1274,-242.8 1274,4 -4,4"/>
<text text-anchor="middle" x="635" y="-8.2" font-family="sans-serif" font-size="14.00">dependencies</text>
<g id="clust1" class="cluster">
<title>cluster_AddedToCartDialogModule</title>
<polygon fill="none" stroke="black" stroke-dasharray="1,5" points="8,-32.8 8,-230.8 1262,-230.8 1262,-32.8 8,-32.8"/>
</g>
<g id="clust5" class="cluster">
<title>cluster_AddedToCartDialogModule_exports</title>
<polygon fill="none" stroke="black" points="507,-170.8 507,-222.8 723,-222.8 723,-170.8 507,-170.8"/>
</g>
<g id="clust2" class="cluster">
<title>cluster_AddedToCartDialogModule_declarations</title>
<polygon fill="none" stroke="black" points="1042,-40.8 1042,-92.8 1254,-92.8 1254,-40.8 1042,-40.8"/>
</g>
<g id="clust4" class="cluster">
<title>cluster_AddedToCartDialogModule_imports</title>
<polygon fill="none" stroke="black" points="16,-40.8 16,-92.8 1034,-92.8 1034,-40.8 16,-40.8"/>
</g>
<!-- AddedToCartDialogComponent -->
<g id="node1" class="node">
<title>AddedToCartDialogComponent</title>
<polygon fill="#ffffb3" stroke="black" points="1246.41,-84.8 1049.59,-84.8 1049.59,-48.8 1246.41,-48.8 1246.41,-84.8"/>
<text text-anchor="middle" x="1148" y="-62.6" font-family="Times,serif" font-size="14.00">AddedToCartDialogComponent</text>
</g>
<!-- AddedToCartDialogModule -->
<g id="node2" class="node">
<title>AddedToCartDialogModule</title>
<polygon fill="#8dd3c7" stroke="black" points="702.14,-149.8 699.14,-153.8 678.14,-153.8 675.14,-149.8 527.86,-149.8 527.86,-113.8 702.14,-113.8 702.14,-149.8"/>
<text text-anchor="middle" x="615" y="-127.6" font-family="Times,serif" font-size="14.00">AddedToCartDialogModule</text>
</g>
<!-- AddedToCartDialogComponent&#45;&gt;AddedToCartDialogModule -->
<g id="edge1" class="edge">
<title>AddedToCartDialogComponent&#45;&gt;AddedToCartDialogModule</title>
<path fill="none" stroke="black" d="M1148,-84.81C1148,-107.29 1148,-142.8 1148,-142.8 1148,-142.8 712.42,-142.8 712.42,-142.8"/>
<polygon fill="black" stroke="black" points="712.42,-139.3 702.42,-142.8 712.42,-146.3 712.42,-139.3"/>
</g>
<!-- AddedToCartDialogComponent  -->
<g id="node11" class="node">
<title>AddedToCartDialogComponent </title>
<polygon fill="#fb8072" stroke="black" points="714.91,-214.8 515.09,-214.8 515.09,-178.8 714.91,-178.8 714.91,-214.8"/>
<text text-anchor="middle" x="615" y="-192.6" font-family="Times,serif" font-size="14.00">AddedToCartDialogComponent </text>
</g>
<!-- AddedToCartDialogModule&#45;&gt;AddedToCartDialogComponent  -->
<g id="edge10" class="edge">
<title>AddedToCartDialogModule&#45;&gt;AddedToCartDialogComponent </title>
<path fill="none" stroke="black" stroke-dasharray="5,2" d="M615,-149.91C615,-149.91 615,-168.79 615,-168.79"/>
<polygon fill="black" stroke="black" points="611.5,-168.79 615,-178.79 618.5,-168.79 611.5,-168.79"/>
</g>
<!-- CartSharedModule -->
<g id="node3" class="node">
<title>CartSharedModule</title>
<polygon fill="#8dd3c7" stroke="black" points="1026.03,-84.8 1023.03,-88.8 1002.03,-88.8 999.03,-84.8 903.97,-84.8 903.97,-48.8 1026.03,-48.8 1026.03,-84.8"/>
<text text-anchor="middle" x="965" y="-62.6" font-family="Times,serif" font-size="14.00">CartSharedModule</text>
</g>
<!-- CartSharedModule&#45;&gt;AddedToCartDialogModule -->
<g id="edge2" class="edge">
<title>CartSharedModule&#45;&gt;AddedToCartDialogModule</title>
<path fill="none" stroke="black" d="M965,-84.93C965,-105.37 965,-135.8 965,-135.8 965,-135.8 712.42,-135.8 712.42,-135.8"/>
<polygon fill="black" stroke="black" points="712.42,-132.3 702.42,-135.8 712.42,-139.3 712.42,-132.3"/>
</g>
<!-- I18nModule -->
<g id="node4" class="node">
<title>I18nModule</title>
<polygon fill="#8dd3c7" stroke="black" points="885.71,-84.8 882.71,-88.8 861.71,-88.8 858.71,-84.8 800.29,-84.8 800.29,-48.8 885.71,-48.8 885.71,-84.8"/>
<text text-anchor="middle" x="843" y="-62.6" font-family="Times,serif" font-size="14.00">I18nModule</text>
</g>
<!-- I18nModule&#45;&gt;AddedToCartDialogModule -->
<g id="edge3" class="edge">
<title>I18nModule&#45;&gt;AddedToCartDialogModule</title>
<path fill="none" stroke="black" d="M843,-85.07C843,-103.36 843,-128.8 843,-128.8 843,-128.8 712.17,-128.8 712.17,-128.8"/>
<polygon fill="black" stroke="black" points="712.17,-125.3 702.17,-128.8 712.17,-132.3 712.17,-125.3"/>
</g>
<!-- IconModule -->
<g id="node5" class="node">
<title>IconModule</title>
<polygon fill="#8dd3c7" stroke="black" points="782.43,-84.8 779.43,-88.8 758.43,-88.8 755.43,-84.8 697.57,-84.8 697.57,-48.8 782.43,-48.8 782.43,-84.8"/>
<text text-anchor="middle" x="740" y="-62.6" font-family="Times,serif" font-size="14.00">IconModule</text>
</g>
<!-- IconModule&#45;&gt;AddedToCartDialogModule -->
<g id="edge4" class="edge">
<title>IconModule&#45;&gt;AddedToCartDialogModule</title>
<path fill="none" stroke="black" d="M708.64,-84.81C708.64,-100.85 708.64,-121.8 708.64,-121.8 708.64,-121.8 707.99,-121.8 707.99,-121.8"/>
<polygon fill="black" stroke="black" points="712.2,-118.3 702.2,-121.8 712.2,-125.3 712.2,-118.3"/>
</g>
<!-- ItemCounterModule -->
<g id="node6" class="node">
<title>ItemCounterModule</title>
<polygon fill="#8dd3c7" stroke="black" points="680.31,-84.8 677.31,-88.8 656.31,-88.8 653.31,-84.8 549.69,-84.8 549.69,-48.8 680.31,-48.8 680.31,-84.8"/>
<text text-anchor="middle" x="615" y="-62.6" font-family="Times,serif" font-size="14.00">ItemCounterModule</text>
</g>
<!-- ItemCounterModule&#45;&gt;AddedToCartDialogModule -->
<g id="edge5" class="edge">
<title>ItemCounterModule&#45;&gt;AddedToCartDialogModule</title>
<path fill="none" stroke="black" d="M615,-84.91C615,-84.91 615,-103.79 615,-103.79"/>
<polygon fill="black" stroke="black" points="611.5,-103.79 615,-113.79 618.5,-103.79 611.5,-103.79"/>
</g>
<!-- KeyboardFocusModule -->
<g id="node7" class="node">
<title>KeyboardFocusModule</title>
<polygon fill="#8dd3c7" stroke="black" points="532.2,-84.8 529.2,-88.8 508.2,-88.8 505.2,-84.8 383.8,-84.8 383.8,-48.8 532.2,-48.8 532.2,-84.8"/>
<text text-anchor="middle" x="458" y="-62.6" font-family="Times,serif" font-size="14.00">KeyboardFocusModule</text>
</g>
<!-- KeyboardFocusModule&#45;&gt;AddedToCartDialogModule -->
<g id="edge6" class="edge">
<title>KeyboardFocusModule&#45;&gt;AddedToCartDialogModule</title>
<path fill="none" stroke="black" d="M521.36,-84.81C521.36,-107.29 521.36,-142.8 521.36,-142.8 521.36,-142.8 522.01,-142.8 522.01,-142.8"/>
<polygon fill="black" stroke="black" points="517.8,-146.3 527.8,-142.8 517.8,-139.3 517.8,-146.3"/>
</g>
<!-- PromotionsModule -->
<g id="node8" class="node">
<title>PromotionsModule</title>
<polygon fill="#8dd3c7" stroke="black" points="366.12,-84.8 363.12,-88.8 342.12,-88.8 339.12,-84.8 241.88,-84.8 241.88,-48.8 366.12,-48.8 366.12,-84.8"/>
<text text-anchor="middle" x="304" y="-62.6" font-family="Times,serif" font-size="14.00">PromotionsModule</text>
</g>
<!-- PromotionsModule&#45;&gt;AddedToCartDialogModule -->
<g id="edge7" class="edge">
<title>PromotionsModule&#45;&gt;AddedToCartDialogModule</title>
<path fill="none" stroke="black" d="M304,-84.81C304,-100.85 304,-121.8 304,-121.8 304,-121.8 517.54,-121.8 517.54,-121.8"/>
<polygon fill="black" stroke="black" points="517.54,-125.3 527.54,-121.8 517.54,-118.3 517.54,-125.3"/>
</g>
<!-- SpinnerModule -->
<g id="node9" class="node">
<title>SpinnerModule</title>
<polygon fill="#8dd3c7" stroke="black" points="223.6,-84.8 220.6,-88.8 199.6,-88.8 196.6,-84.8 120.4,-84.8 120.4,-48.8 223.6,-48.8 223.6,-84.8"/>
<text text-anchor="middle" x="172" y="-62.6" font-family="Times,serif" font-size="14.00">SpinnerModule</text>
</g>
<!-- SpinnerModule&#45;&gt;AddedToCartDialogModule -->
<g id="edge8" class="edge">
<title>SpinnerModule&#45;&gt;AddedToCartDialogModule</title>
<path fill="none" stroke="black" d="M172,-85.07C172,-103.36 172,-128.8 172,-128.8 172,-128.8 517.74,-128.8 517.74,-128.8"/>
<polygon fill="black" stroke="black" points="517.74,-132.3 527.74,-128.8 517.74,-125.3 517.74,-132.3"/>
</g>
<!-- UrlModule -->
<g id="node10" class="node">
<title>UrlModule</title>
<polygon fill="#8dd3c7" stroke="black" points="102.21,-84.8 99.21,-88.8 78.21,-88.8 75.21,-84.8 23.79,-84.8 23.79,-48.8 102.21,-48.8 102.21,-84.8"/>
<text text-anchor="middle" x="63" y="-62.6" font-family="Times,serif" font-size="14.00">UrlModule</text>
</g>
<!-- UrlModule&#45;&gt;AddedToCartDialogModule -->
<g id="edge9" class="edge">
<title>UrlModule&#45;&gt;AddedToCartDialogModule</title>
<path fill="none" stroke="black" d="M63,-84.93C63,-105.37 63,-135.8 63,-135.8 63,-135.8 517.84,-135.8 517.84,-135.8"/>
<polygon fill="black" stroke="black" points="517.84,-139.3 527.84,-135.8 517.84,-132.3 517.84,-139.3"/>
</g>
</g>
</svg>
