<?xml version="1.0" encoding="UTF-8" standalone="no"?>
<!DOCTYPE svg PUBLIC "-//W3C//DTD SVG 1.1//EN"
 "http://www.w3.org/Graphics/SVG/1.1/DTD/svg11.dtd">
<!-- Generated by graphviz version 5.0.0 (20220707.1540)
 -->
<!-- Title: dependencies Pages: 1 -->
<svg width="736pt" height="247pt"
 viewBox="0.00 0.00 736.00 246.80" xmlns="http://www.w3.org/2000/svg" xmlns:xlink="http://www.w3.org/1999/xlink">
<g id="graph0" class="graph" transform="scale(1 1) rotate(0) translate(4 242.8)">
<title>dependencies</title>
<polygon fill="white" stroke="transparent" points="-4,4 -4,-242.8 732,-242.8 732,4 -4,4"/>
<text text-anchor="middle" x="364" y="-8.2" font-family="sans-serif" font-size="14.00">dependencies</text>
<g id="clust1" class="cluster">
<title>cluster_NavigationModule</title>
<polygon fill="none" stroke="black" stroke-dasharray="1,5" points="8,-32.8 8,-230.8 720,-230.8 720,-32.8 8,-32.8"/>
</g>
<g id="clust6" class="cluster">
<title>cluster_NavigationModule_exports</title>
<polygon fill="none" stroke="black" points="235,-170.8 235,-222.8 578,-222.8 578,-170.8 235,-170.8"/>
</g>
<g id="clust5" class="cluster">
<title>cluster_NavigationModule_imports</title>
<polygon fill="none" stroke="black" points="360,-40.8 360,-92.8 712,-92.8 712,-40.8 360,-40.8"/>
</g>
<g id="clust2" class="cluster">
<title>cluster_NavigationModule_declarations</title>
<polygon fill="none" stroke="black" points="16,-40.8 16,-92.8 352,-92.8 352,-40.8 16,-40.8"/>
</g>
<!-- NavigationComponent -->
<g id="node1" class="node">
<title>NavigationComponent</title>
<polygon fill="#ffffb3" stroke="black" points="343.54,-84.8 200.46,-84.8 200.46,-48.8 343.54,-48.8 343.54,-84.8"/>
<text text-anchor="middle" x="272" y="-62.6" font-family="Times,serif" font-size="14.00">NavigationComponent</text>
</g>
<!-- NavigationModule -->
<g id="node3" class="node">
<title>NavigationModule</title>
<polygon fill="#8dd3c7" stroke="black" points="470.76,-149.8 467.76,-153.8 446.76,-153.8 443.76,-149.8 349.24,-149.8 349.24,-113.8 470.76,-113.8 470.76,-149.8"/>
<text text-anchor="middle" x="410" y="-127.6" font-family="Times,serif" font-size="14.00">NavigationModule</text>
</g>
<!-- NavigationComponent&#45;&gt;NavigationModule -->
<g id="edge1" class="edge">
<title>NavigationComponent&#45;&gt;NavigationModule</title>
<path fill="none" stroke="black" d="M343.79,-66.8C352.53,-66.8 358.45,-66.8 358.45,-66.8 358.45,-66.8 358.45,-103.69 358.45,-103.69"/>
<polygon fill="black" stroke="black" points="354.95,-103.69 358.45,-113.69 361.95,-103.69 354.95,-103.69"/>
</g>
<!-- NavigationUIComponent -->
<g id="node2" class="node">
<title>NavigationUIComponent</title>
<polygon fill="#ffffb3" stroke="black" points="182.31,-84.8 23.69,-84.8 23.69,-48.8 182.31,-48.8 182.31,-84.8"/>
<text text-anchor="middle" x="103" y="-62.6" font-family="Times,serif" font-size="14.00">NavigationUIComponent</text>
</g>
<!-- NavigationUIComponent&#45;&gt;NavigationModule -->
<g id="edge2" class="edge">
<title>NavigationUIComponent&#45;&gt;NavigationModule</title>
<path fill="none" stroke="black" d="M103,-84.91C103,-104.14 103,-131.8 103,-131.8 103,-131.8 338.98,-131.8 338.98,-131.8"/>
<polygon fill="black" stroke="black" points="338.98,-135.3 348.98,-131.8 338.98,-128.3 338.98,-135.3"/>
</g>
<!-- NavigationComponent  -->
<g id="node7" class="node">
<title>NavigationComponent </title>
<polygon fill="#fb8072" stroke="black" points="569.54,-214.8 422.46,-214.8 422.46,-178.8 569.54,-178.8 569.54,-214.8"/>
<text text-anchor="middle" x="496" y="-192.6" font-family="Times,serif" font-size="14.00">NavigationComponent </text>
</g>
<!-- NavigationModule&#45;&gt;NavigationComponent  -->
<g id="edge6" class="edge">
<title>NavigationModule&#45;&gt;NavigationComponent </title>
<path fill="none" stroke="black" stroke-dasharray="5,2" d="M446.68,-149.91C446.68,-149.91 446.68,-168.79 446.68,-168.79"/>
<polygon fill="black" stroke="black" points="443.18,-168.79 446.68,-178.79 450.18,-168.79 443.18,-168.79"/>
</g>
<!-- NavigationUIComponent  -->
<g id="node8" class="node">
<title>NavigationUIComponent </title>
<polygon fill="#fb8072" stroke="black" points="404.81,-214.8 243.19,-214.8 243.19,-178.8 404.81,-178.8 404.81,-214.8"/>
<text text-anchor="middle" x="324" y="-192.6" font-family="Times,serif" font-size="14.00">NavigationUIComponent </text>
</g>
<!-- NavigationModule&#45;&gt;NavigationUIComponent  -->
<g id="edge7" class="edge">
<title>NavigationModule&#45;&gt;NavigationUIComponent </title>
<path fill="none" stroke="black" stroke-dasharray="5,2" d="M377.01,-149.91C377.01,-149.91 377.01,-168.79 377.01,-168.79"/>
<polygon fill="black" stroke="black" points="373.51,-168.79 377.01,-178.79 380.51,-168.79 373.51,-168.79"/>
</g>
<!-- GenericLinkModule -->
<g id="node4" class="node">
<title>GenericLinkModule</title>
<polygon fill="#8dd3c7" stroke="black" points="704.3,-84.8 701.3,-88.8 680.3,-88.8 677.3,-84.8 573.7,-84.8 573.7,-48.8 704.3,-48.8 704.3,-84.8"/>
<text text-anchor="middle" x="639" y="-62.6" font-family="Times,serif" font-size="14.00">GenericLinkModule</text>
</g>
<!-- GenericLinkModule&#45;&gt;NavigationModule -->
<g id="edge3" class="edge">
<title>GenericLinkModule&#45;&gt;NavigationModule</title>
<path fill="none" stroke="black" d="M639,-84.91C639,-104.14 639,-131.8 639,-131.8 639,-131.8 480.77,-131.8 480.77,-131.8"/>
<polygon fill="black" stroke="black" points="480.77,-128.3 470.77,-131.8 480.77,-135.3 480.77,-128.3"/>
</g>
<!-- I18nModule -->
<g id="node5" class="node">
<title>I18nModule</title>
<polygon fill="#8dd3c7" stroke="black" points="555.71,-84.8 552.71,-88.8 531.71,-88.8 528.71,-84.8 470.29,-84.8 470.29,-48.8 555.71,-48.8 555.71,-84.8"/>
<text text-anchor="middle" x="513" y="-62.6" font-family="Times,serif" font-size="14.00">I18nModule</text>
</g>
<!-- I18nModule&#45;&gt;NavigationModule -->
<g id="edge4" class="edge">
<title>I18nModule&#45;&gt;NavigationModule</title>
<path fill="none" stroke="black" d="M470.31,-66.8C464.95,-66.8 461.3,-66.8 461.3,-66.8 461.3,-66.8 461.3,-103.69 461.3,-103.69"/>
<polygon fill="black" stroke="black" points="457.8,-103.69 461.3,-113.69 464.8,-103.69 457.8,-103.69"/>
</g>
<!-- IconModule -->
<g id="node6" class="node">
<title>IconModule</title>
<polygon fill="#8dd3c7" stroke="black" points="452.43,-84.8 449.43,-88.8 428.43,-88.8 425.43,-84.8 367.57,-84.8 367.57,-48.8 452.43,-48.8 452.43,-84.8"/>
<text text-anchor="middle" x="410" y="-62.6" font-family="Times,serif" font-size="14.00">IconModule</text>
</g>
<!-- IconModule&#45;&gt;NavigationModule -->
<g id="edge5" class="edge">
<title>IconModule&#45;&gt;NavigationModule</title>
<path fill="none" stroke="black" d="M410,-84.91C410,-84.91 410,-103.79 410,-103.79"/>
<polygon fill="black" stroke="black" points="406.5,-103.79 410,-113.79 413.5,-103.79 406.5,-103.79"/>
</g>
</g>
</svg>
