<?xml version="1.0" encoding="UTF-8" standalone="no"?>
<!DOCTYPE svg PUBLIC "-//W3C//DTD SVG 1.1//EN"
 "http://www.w3.org/Graphics/SVG/1.1/DTD/svg11.dtd">
<!-- Generated by graphviz version 5.0.0 (20220707.1540)
 -->
<!-- Title: dependencies Pages: 1 -->
<svg width="662pt" height="174pt"
 viewBox="0.00 0.00 662.00 173.80" xmlns="http://www.w3.org/2000/svg" xmlns:xlink="http://www.w3.org/1999/xlink">
<g id="graph0" class="graph" transform="scale(1 1) rotate(0) translate(4 169.8)">
<title>dependencies</title>
<polygon fill="white" stroke="transparent" points="-4,4 -4,-169.8 658,-169.8 658,4 -4,4"/>
<text text-anchor="middle" x="327" y="-8.2" font-family="sans-serif" font-size="14.00">dependencies</text>
<g id="clust1" class="cluster">
<title>cluster_CDCRegisterModule</title>
<polygon fill="none" stroke="black" stroke-dasharray="1,5" points="8,-32.8 8,-157.8 646,-157.8 646,-32.8 8,-32.8"/>
</g>
<g id="clust3" class="cluster">
<title>cluster_CDCRegisterModule_imports</title>
<polygon fill="none" stroke="black" points="16,-40.8 16,-92.8 638,-92.8 638,-40.8 16,-40.8"/>
</g>
<!-- FormErrorsModule -->
<g id="node1" class="node">
<title>FormErrorsModule</title>
<polygon fill="#8dd3c7" stroke="black" points="630.38,-84.8 627.38,-88.8 606.38,-88.8 603.38,-84.8 505.62,-84.8 505.62,-48.8 630.38,-48.8 630.38,-84.8"/>
<text text-anchor="middle" x="568" y="-62.6" font-family="Times,serif" font-size="14.00">FormErrorsModule</text>
</g>
<!-- CDCRegisterModule -->
<g id="node6" class="node">
<title>CDCRegisterModule</title>
<polygon fill="#8dd3c7" stroke="black" points="380.49,-149.8 377.49,-153.8 356.49,-153.8 353.49,-149.8 245.51,-149.8 245.51,-113.8 380.49,-113.8 380.49,-149.8"/>
<text text-anchor="middle" x="313" y="-127.6" font-family="Times,serif" font-size="14.00">CDCRegisterModule</text>
</g>
<!-- FormErrorsModule&#45;&gt;CDCRegisterModule -->
<g id="edge1" class="edge">
<title>FormErrorsModule&#45;&gt;CDCRegisterModule</title>
<path fill="none" stroke="black" d="M568,-85.08C568,-106.12 568,-137.8 568,-137.8 568,-137.8 390.67,-137.8 390.67,-137.8"/>
<polygon fill="black" stroke="black" points="390.67,-134.3 380.67,-137.8 390.67,-141.3 390.67,-134.3"/>
</g>
<!-- I18nModule -->
<g id="node2" class="node">
<title>I18nModule</title>
<polygon fill="#8dd3c7" stroke="black" points="487.71,-84.8 484.71,-88.8 463.71,-88.8 460.71,-84.8 402.29,-84.8 402.29,-48.8 487.71,-48.8 487.71,-84.8"/>
<text text-anchor="middle" x="445" y="-62.6" font-family="Times,serif" font-size="14.00">I18nModule</text>
</g>
<!-- I18nModule&#45;&gt;CDCRegisterModule -->
<g id="edge2" class="edge">
<title>I18nModule&#45;&gt;CDCRegisterModule</title>
<path fill="none" stroke="black" d="M445,-84.82C445,-102.17 445,-125.8 445,-125.8 445,-125.8 390.55,-125.8 390.55,-125.8"/>
<polygon fill="black" stroke="black" points="390.55,-122.3 380.55,-125.8 390.55,-129.3 390.55,-122.3"/>
</g>
<!-- NgSelectA11yModule -->
<g id="node3" class="node">
<title>NgSelectA11yModule</title>
<polygon fill="#8dd3c7" stroke="black" points="383.98,-84.8 380.98,-88.8 359.98,-88.8 356.98,-84.8 242.02,-84.8 242.02,-48.8 383.98,-48.8 383.98,-84.8"/>
<text text-anchor="middle" x="313" y="-62.6" font-family="Times,serif" font-size="14.00">NgSelectA11yModule</text>
</g>
<!-- NgSelectA11yModule&#45;&gt;CDCRegisterModule -->
<g id="edge3" class="edge">
<title>NgSelectA11yModule&#45;&gt;CDCRegisterModule</title>
<path fill="none" stroke="black" d="M313,-84.91C313,-84.91 313,-103.79 313,-103.79"/>
<polygon fill="black" stroke="black" points="309.5,-103.79 313,-113.79 316.5,-103.79 309.5,-103.79"/>
</g>
<!-- SpinnerModule -->
<g id="node4" class="node">
<title>SpinnerModule</title>
<polygon fill="#8dd3c7" stroke="black" points="223.6,-84.8 220.6,-88.8 199.6,-88.8 196.6,-84.8 120.4,-84.8 120.4,-48.8 223.6,-48.8 223.6,-84.8"/>
<text text-anchor="middle" x="172" y="-62.6" font-family="Times,serif" font-size="14.00">SpinnerModule</text>
</g>
<!-- SpinnerModule&#45;&gt;CDCRegisterModule -->
<g id="edge4" class="edge">
<title>SpinnerModule&#45;&gt;CDCRegisterModule</title>
<path fill="none" stroke="black" d="M172,-84.82C172,-102.17 172,-125.8 172,-125.8 172,-125.8 235.39,-125.8 235.39,-125.8"/>
<polygon fill="black" stroke="black" points="235.39,-129.3 245.39,-125.8 235.39,-122.3 235.39,-129.3"/>
</g>
<!-- UrlModule -->
<g id="node5" class="node">
<title>UrlModule</title>
<polygon fill="#8dd3c7" stroke="black" points="102.21,-84.8 99.21,-88.8 78.21,-88.8 75.21,-84.8 23.79,-84.8 23.79,-48.8 102.21,-48.8 102.21,-84.8"/>
<text text-anchor="middle" x="63" y="-62.6" font-family="Times,serif" font-size="14.00">UrlModule</text>
</g>
<!-- UrlModule&#45;&gt;CDCRegisterModule -->
<g id="edge5" class="edge">
<title>UrlModule&#45;&gt;CDCRegisterModule</title>
<path fill="none" stroke="black" d="M63,-85.08C63,-106.12 63,-137.8 63,-137.8 63,-137.8 235.35,-137.8 235.35,-137.8"/>
<polygon fill="black" stroke="black" points="235.35,-141.3 245.35,-137.8 235.35,-134.3 235.35,-141.3"/>
</g>
</g>
</svg>
