<?xml version="1.0" encoding="UTF-8" standalone="no"?>
<!DOCTYPE svg PUBLIC "-//W3C//DTD SVG 1.1//EN"
 "http://www.w3.org/Graphics/SVG/1.1/DTD/svg11.dtd">
<!-- Generated by graphviz version 5.0.0 (20220707.1540)
 -->
<!-- Title: dependencies Pages: 1 -->
<svg width="448pt" height="247pt"
 viewBox="0.00 0.00 448.00 246.80" xmlns="http://www.w3.org/2000/svg" xmlns:xlink="http://www.w3.org/1999/xlink">
<g id="graph0" class="graph" transform="scale(1 1) rotate(0) translate(4 242.8)">
<title>dependencies</title>
<polygon fill="white" stroke="transparent" points="-4,4 -4,-242.8 444,-242.8 444,4 -4,4"/>
<text text-anchor="middle" x="220" y="-8.2" font-family="sans-serif" font-size="14.00">dependencies</text>
<g id="clust1" class="cluster">
<title>cluster_SortingModule</title>
<polygon fill="none" stroke="black" stroke-dasharray="1,5" points="8,-32.8 8,-230.8 432,-230.8 432,-32.8 8,-32.8"/>
</g>
<g id="clust2" class="cluster">
<title>cluster_SortingModule_declarations</title>
<polygon fill="none" stroke="black" points="286,-40.8 286,-92.8 424,-92.8 424,-40.8 286,-40.8"/>
</g>
<g id="clust5" class="cluster">
<title>cluster_SortingModule_exports</title>
<polygon fill="none" stroke="black" points="156,-170.8 156,-222.8 298,-222.8 298,-170.8 156,-170.8"/>
</g>
<g id="clust4" class="cluster">
<title>cluster_SortingModule_imports</title>
<polygon fill="none" stroke="black" points="16,-40.8 16,-92.8 278,-92.8 278,-40.8 16,-40.8"/>
</g>
<!-- SortingComponent -->
<g id="node1" class="node">
<title>SortingComponent</title>
<polygon fill="#ffffb3" stroke="black" points="416.06,-84.8 293.94,-84.8 293.94,-48.8 416.06,-48.8 416.06,-84.8"/>
<text text-anchor="middle" x="355" y="-62.6" font-family="Times,serif" font-size="14.00">SortingComponent</text>
</g>
<!-- SortingModule -->
<g id="node2" class="node">
<title>SortingModule</title>
<polygon fill="#8dd3c7" stroke="black" points="277.28,-149.8 274.28,-153.8 253.28,-153.8 250.28,-149.8 176.72,-149.8 176.72,-113.8 277.28,-113.8 277.28,-149.8"/>
<text text-anchor="middle" x="227" y="-127.6" font-family="Times,serif" font-size="14.00">SortingModule</text>
</g>
<!-- SortingComponent&#45;&gt;SortingModule -->
<g id="edge1" class="edge">
<title>SortingComponent&#45;&gt;SortingModule</title>
<path fill="none" stroke="black" d="M293.64,-66.8C282.07,-66.8 273.5,-66.8 273.5,-66.8 273.5,-66.8 273.5,-103.69 273.5,-103.69"/>
<polygon fill="black" stroke="black" points="270,-103.69 273.5,-113.69 277,-103.69 270,-103.69"/>
</g>
<!-- SortingComponent  -->
<g id="node5" class="node">
<title>SortingComponent </title>
<polygon fill="#fb8072" stroke="black" points="290.06,-214.8 163.94,-214.8 163.94,-178.8 290.06,-178.8 290.06,-214.8"/>
<text text-anchor="middle" x="227" y="-192.6" font-family="Times,serif" font-size="14.00">SortingComponent </text>
</g>
<!-- SortingModule&#45;&gt;SortingComponent  -->
<g id="edge4" class="edge">
<title>SortingModule&#45;&gt;SortingComponent </title>
<path fill="none" stroke="black" stroke-dasharray="5,2" d="M227,-149.91C227,-149.91 227,-168.79 227,-168.79"/>
<polygon fill="black" stroke="black" points="223.5,-168.79 227,-178.79 230.5,-168.79 223.5,-168.79"/>
</g>
<!-- I18nModule -->
<g id="node3" class="node">
<title>I18nModule</title>
<polygon fill="#8dd3c7" stroke="black" points="269.71,-84.8 266.71,-88.8 245.71,-88.8 242.71,-84.8 184.29,-84.8 184.29,-48.8 269.71,-48.8 269.71,-84.8"/>
<text text-anchor="middle" x="227" y="-62.6" font-family="Times,serif" font-size="14.00">I18nModule</text>
</g>
<!-- I18nModule&#45;&gt;SortingModule -->
<g id="edge2" class="edge">
<title>I18nModule&#45;&gt;SortingModule</title>
<path fill="none" stroke="black" d="M227,-84.91C227,-84.91 227,-103.79 227,-103.79"/>
<polygon fill="black" stroke="black" points="223.5,-103.79 227,-113.79 230.5,-103.79 223.5,-103.79"/>
</g>
<!-- NgSelectA11yModule -->
<g id="node4" class="node">
<title>NgSelectA11yModule</title>
<polygon fill="#8dd3c7" stroke="black" points="165.98,-84.8 162.98,-88.8 141.98,-88.8 138.98,-84.8 24.02,-84.8 24.02,-48.8 165.98,-48.8 165.98,-84.8"/>
<text text-anchor="middle" x="95" y="-62.6" font-family="Times,serif" font-size="14.00">NgSelectA11yModule</text>
</g>
<!-- NgSelectA11yModule&#45;&gt;SortingModule -->
<g id="edge3" class="edge">
<title>NgSelectA11yModule&#45;&gt;SortingModule</title>
<path fill="none" stroke="black" d="M166,-66.8C174.65,-66.8 180.5,-66.8 180.5,-66.8 180.5,-66.8 180.5,-103.69 180.5,-103.69"/>
<polygon fill="black" stroke="black" points="177,-103.69 180.5,-113.69 184,-103.69 177,-103.69"/>
</g>
</g>
</svg>
