<?xml version="1.0" encoding="UTF-8" standalone="no"?>
<!DOCTYPE svg PUBLIC "-//W3C//DTD SVG 1.1//EN"
 "http://www.w3.org/Graphics/SVG/1.1/DTD/svg11.dtd">
<!-- Generated by graphviz version 5.0.0 (20220707.1540)
 -->
<!-- Title: dependencies Pages: 1 -->
<svg width="425pt" height="174pt"
 viewBox="0.00 0.00 425.00 173.80" xmlns="http://www.w3.org/2000/svg" xmlns:xlink="http://www.w3.org/1999/xlink">
<g id="graph0" class="graph" transform="scale(1 1) rotate(0) translate(4 169.8)">
<title>dependencies</title>
<polygon fill="white" stroke="transparent" points="-4,4 -4,-169.8 421,-169.8 421,4 -4,4"/>
<text text-anchor="middle" x="208.5" y="-8.2" font-family="sans-serif" font-size="14.00">dependencies</text>
<g id="clust1" class="cluster">
<title>cluster_OrderApprovalComponentsModule</title>
<polygon fill="none" stroke="black" stroke-dasharray="1,5" points="8,-32.8 8,-157.8 409,-157.8 409,-32.8 8,-32.8"/>
</g>
<g id="clust3" class="cluster">
<title>cluster_OrderApprovalComponentsModule_imports</title>
<polygon fill="none" stroke="black" points="16,-40.8 16,-92.8 401,-92.8 401,-40.8 16,-40.8"/>
</g>
<!-- OrderApprovalDetailsModule -->
<g id="node1" class="node">
<title>OrderApprovalDetailsModule</title>
<polygon fill="#8dd3c7" stroke="black" points="393.23,-84.8 390.23,-88.8 369.23,-88.8 366.23,-84.8 208.77,-84.8 208.77,-48.8 393.23,-48.8 393.23,-84.8"/>
<text text-anchor="middle" x="301" y="-62.6" font-family="Times,serif" font-size="14.00">OrderApprovalDetailsModule</text>
</g>
<!-- OrderApprovalComponentsModule -->
<g id="node3" class="node">
<title>OrderApprovalComponentsModule</title>
<polygon fill="#8dd3c7" stroke="black" points="315.86,-149.8 312.86,-153.8 291.86,-153.8 288.86,-149.8 100.14,-149.8 100.14,-113.8 315.86,-113.8 315.86,-149.8"/>
<text text-anchor="middle" x="208" y="-127.6" font-family="Times,serif" font-size="14.00">OrderApprovalComponentsModule</text>
</g>
<!-- OrderApprovalDetailsModule&#45;&gt;OrderApprovalComponentsModule -->
<g id="edge1" class="edge">
<title>OrderApprovalDetailsModule&#45;&gt;OrderApprovalComponentsModule</title>
<path fill="none" stroke="black" d="M262.28,-84.91C262.28,-84.91 262.28,-103.79 262.28,-103.79"/>
<polygon fill="black" stroke="black" points="258.78,-103.79 262.28,-113.79 265.78,-103.79 258.78,-103.79"/>
</g>
<!-- OrderApprovalListModule -->
<g id="node2" class="node">
<title>OrderApprovalListModule</title>
<polygon fill="#8dd3c7" stroke="black" points="190.36,-84.8 187.36,-88.8 166.36,-88.8 163.36,-84.8 23.64,-84.8 23.64,-48.8 190.36,-48.8 190.36,-84.8"/>
<text text-anchor="middle" x="107" y="-62.6" font-family="Times,serif" font-size="14.00">OrderApprovalListModule</text>
</g>
<!-- OrderApprovalListModule&#45;&gt;OrderApprovalComponentsModule -->
<g id="edge2" class="edge">
<title>OrderApprovalListModule&#45;&gt;OrderApprovalComponentsModule</title>
<path fill="none" stroke="black" d="M145.25,-84.91C145.25,-84.91 145.25,-103.79 145.25,-103.79"/>
<polygon fill="black" stroke="black" points="141.75,-103.79 145.25,-113.79 148.75,-103.79 141.75,-103.79"/>
</g>
</g>
</svg>
