<?xml version="1.0" encoding="UTF-8" standalone="no"?>
<!DOCTYPE svg PUBLIC "-//W3C//DTD SVG 1.1//EN"
 "http://www.w3.org/Graphics/SVG/1.1/DTD/svg11.dtd">
<!-- Generated by graphviz version 5.0.0 (20220707.1540)
 -->
<!-- Title: dependencies Pages: 1 -->
<svg width="465pt" height="247pt"
 viewBox="0.00 0.00 465.00 246.80" xmlns="http://www.w3.org/2000/svg" xmlns:xlink="http://www.w3.org/1999/xlink">
<g id="graph0" class="graph" transform="scale(1 1) rotate(0) translate(4 242.8)">
<title>dependencies</title>
<polygon fill="white" stroke="transparent" points="-4,4 -4,-242.8 461,-242.8 461,4 -4,4"/>
<text text-anchor="middle" x="228.5" y="-8.2" font-family="sans-serif" font-size="14.00">dependencies</text>
<g id="clust1" class="cluster">
<title>cluster_DpPaymentFormModule</title>
<polygon fill="none" stroke="black" stroke-dasharray="1,5" points="8,-32.8 8,-230.8 449,-230.8 449,-32.8 8,-32.8"/>
</g>
<g id="clust5" class="cluster">
<title>cluster_DpPaymentFormModule_exports</title>
<polygon fill="none" stroke="black" points="179,-170.8 179,-222.8 377,-222.8 377,-170.8 179,-170.8"/>
</g>
<g id="clust4" class="cluster">
<title>cluster_DpPaymentFormModule_imports</title>
<polygon fill="none" stroke="black" points="218,-40.8 218,-92.8 441,-92.8 441,-40.8 218,-40.8"/>
</g>
<g id="clust2" class="cluster">
<title>cluster_DpPaymentFormModule_declarations</title>
<polygon fill="none" stroke="black" points="16,-40.8 16,-92.8 210,-92.8 210,-40.8 16,-40.8"/>
</g>
<!-- DpPaymentFormComponent -->
<g id="node1" class="node">
<title>DpPaymentFormComponent</title>
<polygon fill="#ffffb3" stroke="black" points="201.77,-84.8 24.23,-84.8 24.23,-48.8 201.77,-48.8 201.77,-84.8"/>
<text text-anchor="middle" x="113" y="-62.6" font-family="Times,serif" font-size="14.00">DpPaymentFormComponent</text>
</g>
<!-- DpPaymentFormModule -->
<g id="node2" class="node">
<title>DpPaymentFormModule</title>
<polygon fill="#8dd3c7" stroke="black" points="355.99,-149.8 352.99,-153.8 331.99,-153.8 328.99,-149.8 200.01,-149.8 200.01,-113.8 355.99,-113.8 355.99,-149.8"/>
<text text-anchor="middle" x="278" y="-127.6" font-family="Times,serif" font-size="14.00">DpPaymentFormModule</text>
</g>
<!-- DpPaymentFormComponent&#45;&gt;DpPaymentFormModule -->
<g id="edge1" class="edge">
<title>DpPaymentFormComponent&#45;&gt;DpPaymentFormModule</title>
<path fill="none" stroke="black" d="M193.68,-84.91C193.68,-104.14 193.68,-131.8 193.68,-131.8 193.68,-131.8 194.29,-131.8 194.29,-131.8"/>
<polygon fill="black" stroke="black" points="189.75,-135.3 199.75,-131.8 189.75,-128.3 189.75,-135.3"/>
</g>
<!-- DpPaymentFormComponent  -->
<g id="node5" class="node">
<title>DpPaymentFormComponent </title>
<polygon fill="#fb8072" stroke="black" points="368.77,-214.8 187.23,-214.8 187.23,-178.8 368.77,-178.8 368.77,-214.8"/>
<text text-anchor="middle" x="278" y="-192.6" font-family="Times,serif" font-size="14.00">DpPaymentFormComponent </text>
</g>
<!-- DpPaymentFormModule&#45;&gt;DpPaymentFormComponent  -->
<g id="edge4" class="edge">
<title>DpPaymentFormModule&#45;&gt;DpPaymentFormComponent </title>
<path fill="none" stroke="black" stroke-dasharray="5,2" d="M278,-149.91C278,-149.91 278,-168.79 278,-168.79"/>
<polygon fill="black" stroke="black" points="274.5,-168.79 278,-178.79 281.5,-168.79 274.5,-168.79"/>
</g>
<!-- I18nModule -->
<g id="node3" class="node">
<title>I18nModule</title>
<polygon fill="#8dd3c7" stroke="black" points="432.71,-84.8 429.71,-88.8 408.71,-88.8 405.71,-84.8 347.29,-84.8 347.29,-48.8 432.71,-48.8 432.71,-84.8"/>
<text text-anchor="middle" x="390" y="-62.6" font-family="Times,serif" font-size="14.00">I18nModule</text>
</g>
<!-- I18nModule&#45;&gt;DpPaymentFormModule -->
<g id="edge2" class="edge">
<title>I18nModule&#45;&gt;DpPaymentFormModule</title>
<path fill="none" stroke="black" d="M351.69,-84.91C351.69,-84.91 351.69,-103.79 351.69,-103.79"/>
<polygon fill="black" stroke="black" points="348.19,-103.79 351.69,-113.79 355.19,-103.79 348.19,-103.79"/>
</g>
<!-- SpinnerModule -->
<g id="node4" class="node">
<title>SpinnerModule</title>
<polygon fill="#8dd3c7" stroke="black" points="329.6,-84.8 326.6,-88.8 305.6,-88.8 302.6,-84.8 226.4,-84.8 226.4,-48.8 329.6,-48.8 329.6,-84.8"/>
<text text-anchor="middle" x="278" y="-62.6" font-family="Times,serif" font-size="14.00">SpinnerModule</text>
</g>
<!-- SpinnerModule&#45;&gt;DpPaymentFormModule -->
<g id="edge3" class="edge">
<title>SpinnerModule&#45;&gt;DpPaymentFormModule</title>
<path fill="none" stroke="black" d="M278,-84.91C278,-84.91 278,-103.79 278,-103.79"/>
<polygon fill="black" stroke="black" points="274.5,-103.79 278,-113.79 281.5,-103.79 274.5,-103.79"/>
</g>
</g>
</svg>
