<?xml version="1.0" encoding="UTF-8" standalone="no"?>
<!DOCTYPE svg PUBLIC "-//W3C//DTD SVG 1.1//EN"
 "http://www.w3.org/Graphics/SVG/1.1/DTD/svg11.dtd">
<!-- Generated by graphviz version 5.0.0 (20220707.1540)
 -->
<!-- Title: dependencies Pages: 1 -->
<svg width="721pt" height="285pt"
 viewBox="0.00 0.00 721.00 285.39" xmlns="http://www.w3.org/2000/svg" xmlns:xlink="http://www.w3.org/1999/xlink">
<g id="graph0" class="graph" transform="scale(1 1) rotate(0) translate(4 281.39)">
<title>dependencies</title>
<polygon fill="white" stroke="transparent" points="-4,4 -4,-281.39 717,-281.39 717,4 -4,4"/>
<text text-anchor="middle" x="356.5" y="-8.2" font-family="sans-serif" font-size="14.00">dependencies</text>
<g id="clust1" class="cluster">
<title>cluster_UnitApproverListModule</title>
<polygon fill="none" stroke="black" stroke-dasharray="1,5" points="8,-32.8 8,-269.39 705,-269.39 705,-32.8 8,-32.8"/>
</g>
<g id="clust5" class="cluster">
<title>cluster_UnitApproverListModule_imports</title>
<polygon fill="none" stroke="black" points="474,-152.39 474,-204.39 697,-204.39 697,-152.39 474,-152.39"/>
</g>
<g id="clust2" class="cluster">
<title>cluster_UnitApproverListModule_declarations</title>
<polygon fill="none" stroke="black" points="16,-152.39 16,-204.39 466,-204.39 466,-152.39 16,-152.39"/>
</g>
<g id="clust3" class="cluster">
<title>cluster_UnitApproverListModule_UnitApproverListComponent_providers</title>
<polygon fill="none" stroke="black" points="98,-40.8 98,-139.39 636,-139.39 636,-40.8 98,-40.8"/>
</g>
<!-- UnitApproverListComponent -->
<g id="node1" class="node">
<title>UnitApproverListComponent</title>
<polygon fill="#ffffb3" stroke="black" points="457.65,-196.39 276.35,-196.39 276.35,-160.39 457.65,-160.39 457.65,-196.39"/>
<text text-anchor="middle" x="367" y="-174.19" font-family="Times,serif" font-size="14.00">UnitApproverListComponent</text>
</g>
<!-- UnitApproverListModule -->
<g id="node3" class="node">
<title>UnitApproverListModule</title>
<polygon fill="#8dd3c7" stroke="black" points="529.87,-261.39 526.87,-265.39 505.87,-265.39 502.87,-261.39 370.13,-261.39 370.13,-225.39 529.87,-225.39 529.87,-261.39"/>
<text text-anchor="middle" x="450" y="-239.19" font-family="Times,serif" font-size="14.00">UnitApproverListModule</text>
</g>
<!-- UnitApproverListComponent&#45;&gt;UnitApproverListModule -->
<g id="edge1" class="edge">
<title>UnitApproverListComponent&#45;&gt;UnitApproverListModule</title>
<path fill="none" stroke="black" d="M413.94,-196.5C413.94,-196.5 413.94,-215.38 413.94,-215.38"/>
<polygon fill="black" stroke="black" points="410.44,-215.38 413.94,-225.38 417.44,-215.38 410.44,-215.38"/>
</g>
<!-- UnitAssignedApproverListComponent -->
<g id="node2" class="node">
<title>UnitAssignedApproverListComponent</title>
<polygon fill="#ffffb3" stroke="black" points="257.76,-196.39 24.24,-196.39 24.24,-160.39 257.76,-160.39 257.76,-196.39"/>
<text text-anchor="middle" x="141" y="-174.19" font-family="Times,serif" font-size="14.00">UnitAssignedApproverListComponent</text>
</g>
<!-- UnitAssignedApproverListComponent&#45;&gt;UnitApproverListModule -->
<g id="edge3" class="edge">
<title>UnitAssignedApproverListComponent&#45;&gt;UnitApproverListModule</title>
<path fill="none" stroke="black" d="M141,-196.5C141,-215.73 141,-243.39 141,-243.39 141,-243.39 360.02,-243.39 360.02,-243.39"/>
<polygon fill="black" stroke="black" points="360.02,-246.89 370.02,-243.39 360.02,-239.89 360.02,-246.89"/>
</g>
<!-- {
 &#160;&#160;&#160;provide: ListService, useExisting: UnitApproverListService,
} -->
<g id="node4" class="node">
<title>{
 &#160;&#160;&#160;provide: ListService, useExisting: UnitApproverListService,
}</title>
<ellipse fill="#fdb462" stroke="black" cx="367" cy="-90.1" rx="261.46" ry="41.09"/>
<text text-anchor="middle" x="367" y="-102.7" font-family="Times,serif" font-size="14.00">{</text>
<text text-anchor="middle" x="367" y="-85.9" font-family="Times,serif" font-size="14.00"> &#160;&#160;&#160;provide: ListService, useExisting: UnitApproverListService,</text>
<text text-anchor="middle" x="367" y="-69.1" font-family="Times,serif" font-size="14.00">}</text>
</g>
<!-- {
 &#160;&#160;&#160;provide: ListService, useExisting: UnitApproverListService,
}&#45;&gt;UnitApproverListComponent -->
<g id="edge2" class="edge">
<title>{
 &#160;&#160;&#160;provide: ListService, useExisting: UnitApproverListService,
}&#45;&gt;UnitApproverListComponent</title>
<path fill="none" stroke="black" d="M367,-131.4C367,-131.4 367,-150.06 367,-150.06"/>
<polygon fill="black" stroke="black" points="363.5,-150.06 367,-160.06 370.5,-150.06 363.5,-150.06"/>
</g>
<!-- I18nModule -->
<g id="node5" class="node">
<title>I18nModule</title>
<polygon fill="#8dd3c7" stroke="black" points="688.71,-196.39 685.71,-200.39 664.71,-200.39 661.71,-196.39 603.29,-196.39 603.29,-160.39 688.71,-160.39 688.71,-196.39"/>
<text text-anchor="middle" x="646" y="-174.19" font-family="Times,serif" font-size="14.00">I18nModule</text>
</g>
<!-- I18nModule&#45;&gt;UnitApproverListModule -->
<g id="edge4" class="edge">
<title>I18nModule&#45;&gt;UnitApproverListModule</title>
<path fill="none" stroke="black" d="M646,-196.5C646,-215.73 646,-243.39 646,-243.39 646,-243.39 540,-243.39 540,-243.39"/>
<polygon fill="black" stroke="black" points="540,-239.89 530,-243.39 540,-246.89 540,-239.89"/>
</g>
<!-- SubListModule -->
<g id="node6" class="node">
<title>SubListModule</title>
<polygon fill="#8dd3c7" stroke="black" points="585.62,-196.39 582.62,-200.39 561.62,-200.39 558.62,-196.39 482.38,-196.39 482.38,-160.39 585.62,-160.39 585.62,-196.39"/>
<text text-anchor="middle" x="534" y="-174.19" font-family="Times,serif" font-size="14.00">SubListModule</text>
</g>
<!-- SubListModule&#45;&gt;UnitApproverListModule -->
<g id="edge5" class="edge">
<title>SubListModule&#45;&gt;UnitApproverListModule</title>
<path fill="none" stroke="black" d="M506.19,-196.5C506.19,-196.5 506.19,-215.38 506.19,-215.38"/>
<polygon fill="black" stroke="black" points="502.69,-215.38 506.19,-225.38 509.69,-215.38 502.69,-215.38"/>
</g>
</g>
</svg>
