<?xml version="1.0" encoding="UTF-8" standalone="no"?>
<!DOCTYPE svg PUBLIC "-//W3C//DTD SVG 1.1//EN"
 "http://www.w3.org/Graphics/SVG/1.1/DTD/svg11.dtd">
<!-- Generated by graphviz version 5.0.0 (20220707.1540)
 -->
<!-- Title: dependencies Pages: 1 -->
<svg width="581pt" height="247pt"
 viewBox="0.00 0.00 581.00 246.80" xmlns="http://www.w3.org/2000/svg" xmlns:xlink="http://www.w3.org/1999/xlink">
<g id="graph0" class="graph" transform="scale(1 1) rotate(0) translate(4 242.8)">
<title>dependencies</title>
<polygon fill="white" stroke="transparent" points="-4,4 -4,-242.8 577,-242.8 577,4 -4,4"/>
<text text-anchor="middle" x="286.5" y="-8.2" font-family="sans-serif" font-size="14.00">dependencies</text>
<g id="clust1" class="cluster">
<title>cluster_ProductImagesModule</title>
<polygon fill="none" stroke="black" stroke-dasharray="1,5" points="8,-32.8 8,-230.8 565,-230.8 565,-32.8 8,-32.8"/>
</g>
<g id="clust2" class="cluster">
<title>cluster_ProductImagesModule_declarations</title>
<polygon fill="none" stroke="black" points="375,-40.8 375,-92.8 557,-92.8 557,-40.8 375,-40.8"/>
</g>
<g id="clust5" class="cluster">
<title>cluster_ProductImagesModule_exports</title>
<polygon fill="none" stroke="black" points="152,-170.8 152,-222.8 336,-222.8 336,-170.8 152,-170.8"/>
</g>
<g id="clust4" class="cluster">
<title>cluster_ProductImagesModule_imports</title>
<polygon fill="none" stroke="black" points="16,-40.8 16,-92.8 367,-92.8 367,-40.8 16,-40.8"/>
</g>
<!-- ProductImagesComponent -->
<g id="node1" class="node">
<title>ProductImagesComponent</title>
<polygon fill="#ffffb3" stroke="black" points="548.81,-84.8 383.19,-84.8 383.19,-48.8 548.81,-48.8 548.81,-84.8"/>
<text text-anchor="middle" x="466" y="-62.6" font-family="Times,serif" font-size="14.00">ProductImagesComponent</text>
</g>
<!-- ProductImagesModule -->
<g id="node2" class="node">
<title>ProductImagesModule</title>
<polygon fill="#8dd3c7" stroke="black" points="315.53,-149.8 312.53,-153.8 291.53,-153.8 288.53,-149.8 172.47,-149.8 172.47,-113.8 315.53,-113.8 315.53,-149.8"/>
<text text-anchor="middle" x="244" y="-127.6" font-family="Times,serif" font-size="14.00">ProductImagesModule</text>
</g>
<!-- ProductImagesComponent&#45;&gt;ProductImagesModule -->
<g id="edge1" class="edge">
<title>ProductImagesComponent&#45;&gt;ProductImagesModule</title>
<path fill="none" stroke="black" d="M466,-84.91C466,-104.14 466,-131.8 466,-131.8 466,-131.8 325.77,-131.8 325.77,-131.8"/>
<polygon fill="black" stroke="black" points="325.77,-128.3 315.77,-131.8 325.77,-135.3 325.77,-128.3"/>
</g>
<!-- ProductImagesComponent  -->
<g id="node6" class="node">
<title>ProductImagesComponent </title>
<polygon fill="#fb8072" stroke="black" points="328.31,-214.8 159.69,-214.8 159.69,-178.8 328.31,-178.8 328.31,-214.8"/>
<text text-anchor="middle" x="244" y="-192.6" font-family="Times,serif" font-size="14.00">ProductImagesComponent </text>
</g>
<!-- ProductImagesModule&#45;&gt;ProductImagesComponent  -->
<g id="edge5" class="edge">
<title>ProductImagesModule&#45;&gt;ProductImagesComponent </title>
<path fill="none" stroke="black" stroke-dasharray="5,2" d="M244,-149.91C244,-149.91 244,-168.79 244,-168.79"/>
<polygon fill="black" stroke="black" points="240.5,-168.79 244,-178.79 247.5,-168.79 240.5,-168.79"/>
</g>
<!-- CarouselModule -->
<g id="node3" class="node">
<title>CarouselModule</title>
<polygon fill="#8dd3c7" stroke="black" points="358.82,-84.8 355.82,-88.8 334.82,-88.8 331.82,-84.8 249.18,-84.8 249.18,-48.8 358.82,-48.8 358.82,-84.8"/>
<text text-anchor="middle" x="304" y="-62.6" font-family="Times,serif" font-size="14.00">CarouselModule</text>
</g>
<!-- CarouselModule&#45;&gt;ProductImagesModule -->
<g id="edge2" class="edge">
<title>CarouselModule&#45;&gt;ProductImagesModule</title>
<path fill="none" stroke="black" d="M282.55,-84.91C282.55,-84.91 282.55,-103.79 282.55,-103.79"/>
<polygon fill="black" stroke="black" points="279.05,-103.79 282.55,-113.79 286.05,-103.79 279.05,-103.79"/>
</g>
<!-- MediaModule -->
<g id="node4" class="node">
<title>MediaModule</title>
<polygon fill="#8dd3c7" stroke="black" points="231.82,-84.8 228.82,-88.8 207.82,-88.8 204.82,-84.8 136.18,-84.8 136.18,-48.8 231.82,-48.8 231.82,-84.8"/>
<text text-anchor="middle" x="184" y="-62.6" font-family="Times,serif" font-size="14.00">MediaModule</text>
</g>
<!-- MediaModule&#45;&gt;ProductImagesModule -->
<g id="edge3" class="edge">
<title>MediaModule&#45;&gt;ProductImagesModule</title>
<path fill="none" stroke="black" d="M201.95,-84.91C201.95,-84.91 201.95,-103.79 201.95,-103.79"/>
<polygon fill="black" stroke="black" points="198.45,-103.79 201.95,-113.79 205.45,-103.79 198.45,-103.79"/>
</g>
<!-- OutletModule -->
<g id="node5" class="node">
<title>OutletModule</title>
<polygon fill="#8dd3c7" stroke="black" points="118.05,-84.8 115.05,-88.8 94.05,-88.8 91.05,-84.8 23.95,-84.8 23.95,-48.8 118.05,-48.8 118.05,-84.8"/>
<text text-anchor="middle" x="71" y="-62.6" font-family="Times,serif" font-size="14.00">OutletModule</text>
</g>
<!-- OutletModule&#45;&gt;ProductImagesModule -->
<g id="edge4" class="edge">
<title>OutletModule&#45;&gt;ProductImagesModule</title>
<path fill="none" stroke="black" d="M71,-84.91C71,-104.14 71,-131.8 71,-131.8 71,-131.8 162.39,-131.8 162.39,-131.8"/>
<polygon fill="black" stroke="black" points="162.39,-135.3 172.39,-131.8 162.39,-128.3 162.39,-135.3"/>
</g>
</g>
</svg>
