<?xml version="1.0" encoding="UTF-8" standalone="no"?>
<!DOCTYPE svg PUBLIC "-//W3C//DTD SVG 1.1//EN"
 "http://www.w3.org/Graphics/SVG/1.1/DTD/svg11.dtd">
<!-- Generated by graphviz version 5.0.0 (20220707.1540)
 -->
<!-- Title: dependencies Pages: 1 -->
<svg width="504pt" height="174pt"
 viewBox="0.00 0.00 504.00 173.80" xmlns="http://www.w3.org/2000/svg" xmlns:xlink="http://www.w3.org/1999/xlink">
<g id="graph0" class="graph" transform="scale(1 1) rotate(0) translate(4 169.8)">
<title>dependencies</title>
<polygon fill="white" stroke="transparent" points="-4,4 -4,-169.8 500,-169.8 500,4 -4,4"/>
<text text-anchor="middle" x="248" y="-8.2" font-family="sans-serif" font-size="14.00">dependencies</text>
<g id="clust1" class="cluster">
<title>cluster_VariantConfiguratorInteractiveModule</title>
<polygon fill="none" stroke="black" stroke-dasharray="1,5" points="8,-32.8 8,-157.8 488,-157.8 488,-32.8 8,-32.8"/>
</g>
<g id="clust3" class="cluster">
<title>cluster_VariantConfiguratorInteractiveModule_imports</title>
<polygon fill="none" stroke="black" points="16,-40.8 16,-92.8 480,-92.8 480,-40.8 16,-40.8"/>
</g>
<!-- HamburgerMenuModule -->
<g id="node1" class="node">
<title>HamburgerMenuModule</title>
<polygon fill="#8dd3c7" stroke="black" points="471.97,-84.8 468.97,-88.8 447.97,-88.8 444.97,-84.8 316.03,-84.8 316.03,-48.8 471.97,-48.8 471.97,-84.8"/>
<text text-anchor="middle" x="394" y="-62.6" font-family="Times,serif" font-size="14.00">HamburgerMenuModule</text>
</g>
<!-- VariantConfiguratorInteractiveModule -->
<g id="node3" class="node">
<title>VariantConfiguratorInteractiveModule</title>
<polygon fill="#8dd3c7" stroke="black" points="378.7,-149.8 375.7,-153.8 354.7,-153.8 351.7,-149.8 145.3,-149.8 145.3,-113.8 378.7,-113.8 378.7,-149.8"/>
<text text-anchor="middle" x="262" y="-127.6" font-family="Times,serif" font-size="14.00">VariantConfiguratorInteractiveModule</text>
</g>
<!-- HamburgerMenuModule&#45;&gt;VariantConfiguratorInteractiveModule -->
<g id="edge1" class="edge">
<title>HamburgerMenuModule&#45;&gt;VariantConfiguratorInteractiveModule</title>
<path fill="none" stroke="black" d="M347.43,-84.91C347.43,-84.91 347.43,-103.79 347.43,-103.79"/>
<polygon fill="black" stroke="black" points="343.93,-103.79 347.43,-113.79 350.93,-103.79 343.93,-103.79"/>
</g>
<!-- VariantConfiguratorInteractiveLayoutModule -->
<g id="node2" class="node">
<title>VariantConfiguratorInteractiveLayoutModule</title>
<polygon fill="#8dd3c7" stroke="black" points="297.85,-84.8 294.85,-88.8 273.85,-88.8 270.85,-84.8 24.15,-84.8 24.15,-48.8 297.85,-48.8 297.85,-84.8"/>
<text text-anchor="middle" x="161" y="-62.6" font-family="Times,serif" font-size="14.00">VariantConfiguratorInteractiveLayoutModule</text>
</g>
<!-- VariantConfiguratorInteractiveLayoutModule&#45;&gt;VariantConfiguratorInteractiveModule -->
<g id="edge2" class="edge">
<title>VariantConfiguratorInteractiveLayoutModule&#45;&gt;VariantConfiguratorInteractiveModule</title>
<path fill="none" stroke="black" d="M221.41,-84.91C221.41,-84.91 221.41,-103.79 221.41,-103.79"/>
<polygon fill="black" stroke="black" points="217.91,-103.79 221.41,-113.79 224.91,-103.79 217.91,-103.79"/>
</g>
</g>
</svg>
