<?xml version="1.0" encoding="UTF-8" standalone="no"?>
<!DOCTYPE svg PUBLIC "-//W3C//DTD SVG 1.1//EN"
 "http://www.w3.org/Graphics/SVG/1.1/DTD/svg11.dtd">
<!-- Generated by graphviz version 5.0.0 (20220707.1540)
 -->
<!-- Title: dependencies Pages: 1 -->
<svg width="1594pt" height="247pt"
 viewBox="0.00 0.00 1594.00 246.80" xmlns="http://www.w3.org/2000/svg" xmlns:xlink="http://www.w3.org/1999/xlink">
<g id="graph0" class="graph" transform="scale(1 1) rotate(0) translate(4 242.8)">
<title>dependencies</title>
<polygon fill="white" stroke="transparent" points="-4,4 -4,-242.8 1590,-242.8 1590,4 -4,4"/>
<text text-anchor="middle" x="793" y="-8.2" font-family="sans-serif" font-size="14.00">dependencies</text>
<g id="clust1" class="cluster">
<title>cluster_ConfiguratorAttributeDropDownModule</title>
<polygon fill="none" stroke="black" stroke-dasharray="1,5" points="8,-32.8 8,-230.8 1578,-230.8 1578,-32.8 8,-32.8"/>
</g>
<g id="clust5" class="cluster">
<title>cluster_ConfiguratorAttributeDropDownModule_exports</title>
<polygon fill="none" stroke="black" points="445,-170.8 445,-222.8 731,-222.8 731,-170.8 445,-170.8"/>
</g>
<g id="clust2" class="cluster">
<title>cluster_ConfiguratorAttributeDropDownModule_declarations</title>
<polygon fill="none" stroke="black" points="1286,-40.8 1286,-92.8 1570,-92.8 1570,-40.8 1286,-40.8"/>
</g>
<g id="clust4" class="cluster">
<title>cluster_ConfiguratorAttributeDropDownModule_imports</title>
<polygon fill="none" stroke="black" points="16,-40.8 16,-92.8 1278,-92.8 1278,-40.8 16,-40.8"/>
</g>
<!-- ConfiguratorAttributeDropDownComponent -->
<g id="node1" class="node">
<title>ConfiguratorAttributeDropDownComponent</title>
<polygon fill="#ffffb3" stroke="black" points="1561.69,-84.8 1294.31,-84.8 1294.31,-48.8 1561.69,-48.8 1561.69,-84.8"/>
<text text-anchor="middle" x="1428" y="-62.6" font-family="Times,serif" font-size="14.00">ConfiguratorAttributeDropDownComponent</text>
</g>
<!-- ConfiguratorAttributeDropDownModule -->
<g id="node2" class="node">
<title>ConfiguratorAttributeDropDownModule</title>
<polygon fill="#8dd3c7" stroke="black" points="710.91,-149.8 707.91,-153.8 686.91,-153.8 683.91,-149.8 465.09,-149.8 465.09,-113.8 710.91,-113.8 710.91,-149.8"/>
<text text-anchor="middle" x="588" y="-127.6" font-family="Times,serif" font-size="14.00">ConfiguratorAttributeDropDownModule</text>
</g>
<!-- ConfiguratorAttributeDropDownComponent&#45;&gt;ConfiguratorAttributeDropDownModule -->
<g id="edge1" class="edge">
<title>ConfiguratorAttributeDropDownComponent&#45;&gt;ConfiguratorAttributeDropDownModule</title>
<path fill="none" stroke="black" d="M1428,-85.08C1428,-106.12 1428,-137.8 1428,-137.8 1428,-137.8 721.04,-137.8 721.04,-137.8"/>
<polygon fill="black" stroke="black" points="721.04,-134.3 711.04,-137.8 721.04,-141.3 721.04,-134.3"/>
</g>
<!-- ConfiguratorAttributeDropDownComponent  -->
<g id="node9" class="node">
<title>ConfiguratorAttributeDropDownComponent </title>
<polygon fill="#fb8072" stroke="black" points="723.19,-214.8 452.81,-214.8 452.81,-178.8 723.19,-178.8 723.19,-214.8"/>
<text text-anchor="middle" x="588" y="-192.6" font-family="Times,serif" font-size="14.00">ConfiguratorAttributeDropDownComponent </text>
</g>
<!-- ConfiguratorAttributeDropDownModule&#45;&gt;ConfiguratorAttributeDropDownComponent  -->
<g id="edge8" class="edge">
<title>ConfiguratorAttributeDropDownModule&#45;&gt;ConfiguratorAttributeDropDownComponent </title>
<path fill="none" stroke="black" stroke-dasharray="5,2" d="M588,-149.91C588,-149.91 588,-168.79 588,-168.79"/>
<polygon fill="black" stroke="black" points="584.5,-168.79 588,-178.79 591.5,-168.79 584.5,-168.79"/>
</g>
<!-- ConfiguratorAttributeInputFieldModule -->
<g id="node3" class="node">
<title>ConfiguratorAttributeInputFieldModule</title>
<polygon fill="#8dd3c7" stroke="black" points="1270.25,-84.8 1267.25,-88.8 1246.25,-88.8 1243.25,-84.8 1029.75,-84.8 1029.75,-48.8 1270.25,-48.8 1270.25,-84.8"/>
<text text-anchor="middle" x="1150" y="-62.6" font-family="Times,serif" font-size="14.00">ConfiguratorAttributeInputFieldModule</text>
</g>
<!-- ConfiguratorAttributeInputFieldModule&#45;&gt;ConfiguratorAttributeDropDownModule -->
<g id="edge2" class="edge">
<title>ConfiguratorAttributeInputFieldModule&#45;&gt;ConfiguratorAttributeDropDownModule</title>
<path fill="none" stroke="black" d="M1150,-84.82C1150,-102.17 1150,-125.8 1150,-125.8 1150,-125.8 720.99,-125.8 720.99,-125.8"/>
<polygon fill="black" stroke="black" points="720.99,-122.3 710.99,-125.8 720.99,-129.3 720.99,-122.3"/>
</g>
<!-- ConfiguratorAttributeNumericInputFieldModule -->
<g id="node4" class="node">
<title>ConfiguratorAttributeNumericInputFieldModule</title>
<polygon fill="#8dd3c7" stroke="black" points="1011.72,-84.8 1008.72,-88.8 987.72,-88.8 984.72,-84.8 722.28,-84.8 722.28,-48.8 1011.72,-48.8 1011.72,-84.8"/>
<text text-anchor="middle" x="867" y="-62.6" font-family="Times,serif" font-size="14.00">ConfiguratorAttributeNumericInputFieldModule</text>
</g>
<!-- ConfiguratorAttributeNumericInputFieldModule&#45;&gt;ConfiguratorAttributeDropDownModule -->
<g id="edge3" class="edge">
<title>ConfiguratorAttributeNumericInputFieldModule&#45;&gt;ConfiguratorAttributeDropDownModule</title>
<path fill="none" stroke="black" d="M722.24,-66.8C712.94,-66.8 707.2,-66.8 707.2,-66.8 707.2,-66.8 707.2,-103.69 707.2,-103.69"/>
<polygon fill="black" stroke="black" points="703.7,-103.69 707.2,-113.69 710.7,-103.69 703.7,-103.69"/>
</g>
<!-- ConfiguratorAttributeQuantityModule -->
<g id="node5" class="node">
<title>ConfiguratorAttributeQuantityModule</title>
<polygon fill="#8dd3c7" stroke="black" points="703.91,-84.8 700.91,-88.8 679.91,-88.8 676.91,-84.8 472.09,-84.8 472.09,-48.8 703.91,-48.8 703.91,-84.8"/>
<text text-anchor="middle" x="588" y="-62.6" font-family="Times,serif" font-size="14.00">ConfiguratorAttributeQuantityModule</text>
</g>
<!-- ConfiguratorAttributeQuantityModule&#45;&gt;ConfiguratorAttributeDropDownModule -->
<g id="edge4" class="edge">
<title>ConfiguratorAttributeQuantityModule&#45;&gt;ConfiguratorAttributeDropDownModule</title>
<path fill="none" stroke="black" d="M588,-84.91C588,-84.91 588,-103.79 588,-103.79"/>
<polygon fill="black" stroke="black" points="584.5,-103.79 588,-113.79 591.5,-103.79 584.5,-103.79"/>
</g>
<!-- ConfiguratorPriceModule -->
<g id="node6" class="node">
<title>ConfiguratorPriceModule</title>
<polygon fill="#8dd3c7" stroke="black" points="454.14,-84.8 451.14,-88.8 430.14,-88.8 427.14,-84.8 293.86,-84.8 293.86,-48.8 454.14,-48.8 454.14,-84.8"/>
<text text-anchor="middle" x="374" y="-62.6" font-family="Times,serif" font-size="14.00">ConfiguratorPriceModule</text>
</g>
<!-- ConfiguratorPriceModule&#45;&gt;ConfiguratorAttributeDropDownModule -->
<g id="edge5" class="edge">
<title>ConfiguratorPriceModule&#45;&gt;ConfiguratorAttributeDropDownModule</title>
<path fill="none" stroke="black" d="M454.4,-66.8C463.06,-66.8 468.8,-66.8 468.8,-66.8 468.8,-66.8 468.8,-103.69 468.8,-103.69"/>
<polygon fill="black" stroke="black" points="465.3,-103.69 468.8,-113.69 472.3,-103.69 465.3,-103.69"/>
</g>
<!-- I18nModule -->
<g id="node7" class="node">
<title>I18nModule</title>
<polygon fill="#8dd3c7" stroke="black" points="275.71,-84.8 272.71,-88.8 251.71,-88.8 248.71,-84.8 190.29,-84.8 190.29,-48.8 275.71,-48.8 275.71,-84.8"/>
<text text-anchor="middle" x="233" y="-62.6" font-family="Times,serif" font-size="14.00">I18nModule</text>
</g>
<!-- I18nModule&#45;&gt;ConfiguratorAttributeDropDownModule -->
<g id="edge6" class="edge">
<title>I18nModule&#45;&gt;ConfiguratorAttributeDropDownModule</title>
<path fill="none" stroke="black" d="M233,-84.82C233,-102.17 233,-125.8 233,-125.8 233,-125.8 454.83,-125.8 454.83,-125.8"/>
<polygon fill="black" stroke="black" points="454.83,-129.3 464.83,-125.8 454.83,-122.3 454.83,-129.3"/>
</g>
<!-- KeyboardFocusModule -->
<g id="node8" class="node">
<title>KeyboardFocusModule</title>
<polygon fill="#8dd3c7" stroke="black" points="172.2,-84.8 169.2,-88.8 148.2,-88.8 145.2,-84.8 23.8,-84.8 23.8,-48.8 172.2,-48.8 172.2,-84.8"/>
<text text-anchor="middle" x="98" y="-62.6" font-family="Times,serif" font-size="14.00">KeyboardFocusModule</text>
</g>
<!-- KeyboardFocusModule&#45;&gt;ConfiguratorAttributeDropDownModule -->
<g id="edge7" class="edge">
<title>KeyboardFocusModule&#45;&gt;ConfiguratorAttributeDropDownModule</title>
<path fill="none" stroke="black" d="M98,-85.08C98,-106.12 98,-137.8 98,-137.8 98,-137.8 454.98,-137.8 454.98,-137.8"/>
<polygon fill="black" stroke="black" points="454.98,-141.3 464.98,-137.8 454.98,-134.3 454.98,-141.3"/>
</g>
</g>
</svg>
