<?xml version="1.0" encoding="UTF-8" standalone="no"?>
<!DOCTYPE svg PUBLIC "-//W3C//DTD SVG 1.1//EN"
 "http://www.w3.org/Graphics/SVG/1.1/DTD/svg11.dtd">
<!-- Generated by graphviz version 5.0.0 (20220707.1540)
 -->
<!-- Title: dependencies Pages: 1 -->
<svg width="396pt" height="247pt"
 viewBox="0.00 0.00 396.00 246.80" xmlns="http://www.w3.org/2000/svg" xmlns:xlink="http://www.w3.org/1999/xlink">
<g id="graph0" class="graph" transform="scale(1 1) rotate(0) translate(4 242.8)">
<title>dependencies</title>
<polygon fill="white" stroke="transparent" points="-4,4 -4,-242.8 392,-242.8 392,4 -4,4"/>
<text text-anchor="middle" x="194" y="-8.2" font-family="sans-serif" font-size="14.00">dependencies</text>
<g id="clust1" class="cluster">
<title>cluster_ListNavigationModule</title>
<polygon fill="none" stroke="black" stroke-dasharray="1,5" points="8,-32.8 8,-230.8 380,-230.8 380,-32.8 8,-32.8"/>
</g>
<g id="clust3" class="cluster">
<title>cluster_ListNavigationModule_imports</title>
<polygon fill="none" stroke="black" points="16,-40.8 16,-92.8 372,-92.8 372,-40.8 16,-40.8"/>
</g>
<g id="clust4" class="cluster">
<title>cluster_ListNavigationModule_exports</title>
<polygon fill="none" stroke="black" points="42,-170.8 42,-222.8 346,-222.8 346,-170.8 42,-170.8"/>
</g>
<!-- IconModule -->
<g id="node1" class="node">
<title>IconModule</title>
<polygon fill="#8dd3c7" stroke="black" points="364.43,-84.8 361.43,-88.8 340.43,-88.8 337.43,-84.8 279.57,-84.8 279.57,-48.8 364.43,-48.8 364.43,-84.8"/>
<text text-anchor="middle" x="322" y="-62.6" font-family="Times,serif" font-size="14.00">IconModule</text>
</g>
<!-- ListNavigationModule -->
<g id="node4" class="node">
<title>ListNavigationModule</title>
<polygon fill="#8dd3c7" stroke="black" points="273.54,-149.8 270.54,-153.8 249.54,-153.8 246.54,-149.8 130.46,-149.8 130.46,-113.8 273.54,-113.8 273.54,-149.8"/>
<text text-anchor="middle" x="202" y="-127.6" font-family="Times,serif" font-size="14.00">ListNavigationModule</text>
</g>
<!-- IconModule&#45;&gt;ListNavigationModule -->
<g id="edge1" class="edge">
<title>IconModule&#45;&gt;ListNavigationModule</title>
<path fill="none" stroke="black" d="M279.78,-66.8C272.78,-66.8 267.74,-66.8 267.74,-66.8 267.74,-66.8 267.74,-103.69 267.74,-103.69"/>
<polygon fill="black" stroke="black" points="264.24,-103.69 267.74,-113.69 271.24,-103.69 264.24,-103.69"/>
</g>
<!-- PaginationModule -->
<g id="node2" class="node">
<title>PaginationModule</title>
<polygon fill="#8dd3c7" stroke="black" points="261.94,-84.8 258.94,-88.8 237.94,-88.8 234.94,-84.8 142.06,-84.8 142.06,-48.8 261.94,-48.8 261.94,-84.8"/>
<text text-anchor="middle" x="202" y="-62.6" font-family="Times,serif" font-size="14.00">PaginationModule</text>
</g>
<!-- PaginationModule&#45;&gt;ListNavigationModule -->
<g id="edge2" class="edge">
<title>PaginationModule&#45;&gt;ListNavigationModule</title>
<path fill="none" stroke="black" d="M202,-84.91C202,-84.91 202,-103.79 202,-103.79"/>
<polygon fill="black" stroke="black" points="198.5,-103.79 202,-113.79 205.5,-103.79 198.5,-103.79"/>
</g>
<!-- SortingModule -->
<g id="node3" class="node">
<title>SortingModule</title>
<polygon fill="#8dd3c7" stroke="black" points="124.28,-84.8 121.28,-88.8 100.28,-88.8 97.28,-84.8 23.72,-84.8 23.72,-48.8 124.28,-48.8 124.28,-84.8"/>
<text text-anchor="middle" x="74" y="-62.6" font-family="Times,serif" font-size="14.00">SortingModule</text>
</g>
<!-- SortingModule&#45;&gt;ListNavigationModule -->
<g id="edge3" class="edge">
<title>SortingModule&#45;&gt;ListNavigationModule</title>
<path fill="none" stroke="black" d="M124.55,-66.8C131.47,-66.8 136.26,-66.8 136.26,-66.8 136.26,-66.8 136.26,-103.69 136.26,-103.69"/>
<polygon fill="black" stroke="black" points="132.76,-103.69 136.26,-113.69 139.76,-103.69 132.76,-103.69"/>
</g>
<!-- PaginationComponent  -->
<g id="node5" class="node">
<title>PaginationComponent </title>
<polygon fill="#fb8072" stroke="black" points="338.21,-214.8 193.79,-214.8 193.79,-178.8 338.21,-178.8 338.21,-214.8"/>
<text text-anchor="middle" x="266" y="-192.6" font-family="Times,serif" font-size="14.00">PaginationComponent </text>
</g>
<!-- ListNavigationModule&#45;&gt;PaginationComponent  -->
<g id="edge4" class="edge">
<title>ListNavigationModule&#45;&gt;PaginationComponent </title>
<path fill="none" stroke="black" stroke-dasharray="5,2" d="M233.71,-149.91C233.71,-149.91 233.71,-168.79 233.71,-168.79"/>
<polygon fill="black" stroke="black" points="230.21,-168.79 233.71,-178.79 237.21,-168.79 230.21,-168.79"/>
</g>
<!-- SortingComponent  -->
<g id="node6" class="node">
<title>SortingComponent </title>
<polygon fill="#fb8072" stroke="black" points="176.06,-214.8 49.94,-214.8 49.94,-178.8 176.06,-178.8 176.06,-214.8"/>
<text text-anchor="middle" x="113" y="-192.6" font-family="Times,serif" font-size="14.00">SortingComponent </text>
</g>
<!-- ListNavigationModule&#45;&gt;SortingComponent  -->
<g id="edge5" class="edge">
<title>ListNavigationModule&#45;&gt;SortingComponent </title>
<path fill="none" stroke="black" stroke-dasharray="5,2" d="M153.13,-149.91C153.13,-149.91 153.13,-168.79 153.13,-168.79"/>
<polygon fill="black" stroke="black" points="149.63,-168.79 153.13,-178.79 156.63,-168.79 149.63,-168.79"/>
</g>
</g>
</svg>
