<?xml version="1.0" encoding="UTF-8" standalone="no"?>
<!DOCTYPE svg PUBLIC "-//W3C//DTD SVG 1.1//EN"
 "http://www.w3.org/Graphics/SVG/1.1/DTD/svg11.dtd">
<!-- Generated by graphviz version 5.0.0 (20220707.1540)
 -->
<!-- Title: dependencies Pages: 1 -->
<svg width="360pt" height="247pt"
 viewBox="0.00 0.00 360.00 246.80" xmlns="http://www.w3.org/2000/svg" xmlns:xlink="http://www.w3.org/1999/xlink">
<g id="graph0" class="graph" transform="scale(1 1) rotate(0) translate(4 242.8)">
<title>dependencies</title>
<polygon fill="white" stroke="transparent" points="-4,4 -4,-242.8 356,-242.8 356,4 -4,4"/>
<text text-anchor="middle" x="176" y="-8.2" font-family="sans-serif" font-size="14.00">dependencies</text>
<g id="clust1" class="cluster">
<title>cluster_ProductDetailsTabModule</title>
<polygon fill="none" stroke="black" stroke-dasharray="1,5" points="8,-32.8 8,-230.8 344,-230.8 344,-32.8 8,-32.8"/>
</g>
<g id="clust2" class="cluster">
<title>cluster_ProductDetailsTabModule_declarations</title>
<polygon fill="none" stroke="black" points="134,-40.8 134,-92.8 336,-92.8 336,-40.8 134,-40.8"/>
</g>
<g id="clust5" class="cluster">
<title>cluster_ProductDetailsTabModule_exports</title>
<polygon fill="none" stroke="black" points="73,-170.8 73,-222.8 279,-222.8 279,-170.8 73,-170.8"/>
</g>
<g id="clust4" class="cluster">
<title>cluster_ProductDetailsTabModule_imports</title>
<polygon fill="none" stroke="black" points="16,-40.8 16,-92.8 126,-92.8 126,-40.8 16,-40.8"/>
</g>
<!-- ProductDetailsTabComponent -->
<g id="node1" class="node">
<title>ProductDetailsTabComponent</title>
<polygon fill="#ffffb3" stroke="black" points="328.3,-84.8 141.7,-84.8 141.7,-48.8 328.3,-48.8 328.3,-84.8"/>
<text text-anchor="middle" x="235" y="-62.6" font-family="Times,serif" font-size="14.00">ProductDetailsTabComponent</text>
</g>
<!-- ProductDetailsTabModule -->
<g id="node2" class="node">
<title>ProductDetailsTabModule</title>
<polygon fill="#8dd3c7" stroke="black" points="258.03,-149.8 255.03,-153.8 234.03,-153.8 231.03,-149.8 93.97,-149.8 93.97,-113.8 258.03,-113.8 258.03,-149.8"/>
<text text-anchor="middle" x="176" y="-127.6" font-family="Times,serif" font-size="14.00">ProductDetailsTabModule</text>
</g>
<!-- ProductDetailsTabComponent&#45;&gt;ProductDetailsTabModule -->
<g id="edge1" class="edge">
<title>ProductDetailsTabComponent&#45;&gt;ProductDetailsTabModule</title>
<path fill="none" stroke="black" d="M200.06,-84.91C200.06,-84.91 200.06,-103.79 200.06,-103.79"/>
<polygon fill="black" stroke="black" points="196.56,-103.79 200.06,-113.79 203.56,-103.79 196.56,-103.79"/>
</g>
<!-- ProductDetailsTabComponent  -->
<g id="node4" class="node">
<title>ProductDetailsTabComponent </title>
<polygon fill="#fb8072" stroke="black" points="270.8,-214.8 81.2,-214.8 81.2,-178.8 270.8,-178.8 270.8,-214.8"/>
<text text-anchor="middle" x="176" y="-192.6" font-family="Times,serif" font-size="14.00">ProductDetailsTabComponent </text>
</g>
<!-- ProductDetailsTabModule&#45;&gt;ProductDetailsTabComponent  -->
<g id="edge3" class="edge">
<title>ProductDetailsTabModule&#45;&gt;ProductDetailsTabComponent </title>
<path fill="none" stroke="black" stroke-dasharray="5,2" d="M176,-149.91C176,-149.91 176,-168.79 176,-168.79"/>
<polygon fill="black" stroke="black" points="172.5,-168.79 176,-178.79 179.5,-168.79 172.5,-168.79"/>
</g>
<!-- OutletModule -->
<g id="node3" class="node">
<title>OutletModule</title>
<polygon fill="#8dd3c7" stroke="black" points="118.05,-84.8 115.05,-88.8 94.05,-88.8 91.05,-84.8 23.95,-84.8 23.95,-48.8 118.05,-48.8 118.05,-84.8"/>
<text text-anchor="middle" x="71" y="-62.6" font-family="Times,serif" font-size="14.00">OutletModule</text>
</g>
<!-- OutletModule&#45;&gt;ProductDetailsTabModule -->
<g id="edge2" class="edge">
<title>OutletModule&#45;&gt;ProductDetailsTabModule</title>
<path fill="none" stroke="black" d="M106.01,-84.91C106.01,-84.91 106.01,-103.79 106.01,-103.79"/>
<polygon fill="black" stroke="black" points="102.51,-103.79 106.01,-113.79 109.51,-103.79 102.51,-103.79"/>
</g>
</g>
</svg>
