<?xml version="1.0" encoding="UTF-8" standalone="no"?>
<!DOCTYPE svg PUBLIC "-//W3C//DTD SVG 1.1//EN"
 "http://www.w3.org/Graphics/SVG/1.1/DTD/svg11.dtd">
<!-- Generated by graphviz version 5.0.0 (20220707.1540)
 -->
<!-- Title: dependencies Pages: 1 -->
<svg width="664pt" height="247pt"
 viewBox="0.00 0.00 664.00 246.80" xmlns="http://www.w3.org/2000/svg" xmlns:xlink="http://www.w3.org/1999/xlink">
<g id="graph0" class="graph" transform="scale(1 1) rotate(0) translate(4 242.8)">
<title>dependencies</title>
<polygon fill="white" stroke="transparent" points="-4,4 -4,-242.8 660,-242.8 660,4 -4,4"/>
<text text-anchor="middle" x="328" y="-8.2" font-family="sans-serif" font-size="14.00">dependencies</text>
<g id="clust1" class="cluster">
<title>cluster_VideoModule</title>
<polygon fill="none" stroke="black" stroke-dasharray="1,5" points="8,-32.8 8,-230.8 648,-230.8 648,-32.8 8,-32.8"/>
</g>
<g id="clust4" class="cluster">
<title>cluster_VideoModule_imports</title>
<polygon fill="none" stroke="black" points="156,-40.8 156,-92.8 640,-92.8 640,-40.8 156,-40.8"/>
</g>
<g id="clust5" class="cluster">
<title>cluster_VideoModule_exports</title>
<polygon fill="none" stroke="black" points="265,-170.8 265,-222.8 401,-222.8 401,-170.8 265,-170.8"/>
</g>
<g id="clust2" class="cluster">
<title>cluster_VideoModule_declarations</title>
<polygon fill="none" stroke="black" points="16,-40.8 16,-92.8 148,-92.8 148,-40.8 16,-40.8"/>
</g>
<!-- VideoComponent -->
<g id="node1" class="node">
<title>VideoComponent</title>
<polygon fill="#ffffb3" stroke="black" points="139.55,-84.8 24.45,-84.8 24.45,-48.8 139.55,-48.8 139.55,-84.8"/>
<text text-anchor="middle" x="82" y="-62.6" font-family="Times,serif" font-size="14.00">VideoComponent</text>
</g>
<!-- VideoModule -->
<g id="node2" class="node">
<title>VideoModule</title>
<polygon fill="#8dd3c7" stroke="black" points="379.77,-149.8 376.77,-153.8 355.77,-153.8 352.77,-149.8 286.23,-149.8 286.23,-113.8 379.77,-113.8 379.77,-149.8"/>
<text text-anchor="middle" x="333" y="-127.6" font-family="Times,serif" font-size="14.00">VideoModule</text>
</g>
<!-- VideoComponent&#45;&gt;VideoModule -->
<g id="edge1" class="edge">
<title>VideoComponent&#45;&gt;VideoModule</title>
<path fill="none" stroke="black" d="M82,-85.08C82,-106.12 82,-137.8 82,-137.8 82,-137.8 276.08,-137.8 276.08,-137.8"/>
<polygon fill="black" stroke="black" points="276.08,-141.3 286.08,-137.8 276.08,-134.3 276.08,-141.3"/>
</g>
<!-- VideoComponent  -->
<g id="node7" class="node">
<title>VideoComponent </title>
<polygon fill="#fb8072" stroke="black" points="392.54,-214.8 273.46,-214.8 273.46,-178.8 392.54,-178.8 392.54,-214.8"/>
<text text-anchor="middle" x="333" y="-192.6" font-family="Times,serif" font-size="14.00">VideoComponent </text>
</g>
<!-- VideoModule&#45;&gt;VideoComponent  -->
<g id="edge6" class="edge">
<title>VideoModule&#45;&gt;VideoComponent </title>
<path fill="none" stroke="black" stroke-dasharray="5,2" d="M333,-149.91C333,-149.91 333,-168.79 333,-168.79"/>
<polygon fill="black" stroke="black" points="329.5,-168.79 333,-178.79 336.5,-168.79 329.5,-168.79"/>
</g>
<!-- GenericLinkModule -->
<g id="node3" class="node">
<title>GenericLinkModule</title>
<polygon fill="#8dd3c7" stroke="black" points="632.3,-84.8 629.3,-88.8 608.3,-88.8 605.3,-84.8 501.7,-84.8 501.7,-48.8 632.3,-48.8 632.3,-84.8"/>
<text text-anchor="middle" x="567" y="-62.6" font-family="Times,serif" font-size="14.00">GenericLinkModule</text>
</g>
<!-- GenericLinkModule&#45;&gt;VideoModule -->
<g id="edge2" class="edge">
<title>GenericLinkModule&#45;&gt;VideoModule</title>
<path fill="none" stroke="black" d="M567,-85.08C567,-106.12 567,-137.8 567,-137.8 567,-137.8 389.79,-137.8 389.79,-137.8"/>
<polygon fill="black" stroke="black" points="389.79,-134.3 379.79,-137.8 389.79,-141.3 389.79,-134.3"/>
</g>
<!-- I18nModule -->
<g id="node4" class="node">
<title>I18nModule</title>
<polygon fill="#8dd3c7" stroke="black" points="483.71,-84.8 480.71,-88.8 459.71,-88.8 456.71,-84.8 398.29,-84.8 398.29,-48.8 483.71,-48.8 483.71,-84.8"/>
<text text-anchor="middle" x="441" y="-62.6" font-family="Times,serif" font-size="14.00">I18nModule</text>
</g>
<!-- I18nModule&#45;&gt;VideoModule -->
<g id="edge3" class="edge">
<title>I18nModule&#45;&gt;VideoModule</title>
<path fill="none" stroke="black" d="M441,-84.82C441,-102.17 441,-125.8 441,-125.8 441,-125.8 390.06,-125.8 390.06,-125.8"/>
<polygon fill="black" stroke="black" points="390.06,-122.3 380.06,-125.8 390.06,-129.3 390.06,-122.3"/>
</g>
<!-- MediaModule -->
<g id="node5" class="node">
<title>MediaModule</title>
<polygon fill="#8dd3c7" stroke="black" points="380.82,-84.8 377.82,-88.8 356.82,-88.8 353.82,-84.8 285.18,-84.8 285.18,-48.8 380.82,-48.8 380.82,-84.8"/>
<text text-anchor="middle" x="333" y="-62.6" font-family="Times,serif" font-size="14.00">MediaModule</text>
</g>
<!-- MediaModule&#45;&gt;VideoModule -->
<g id="edge4" class="edge">
<title>MediaModule&#45;&gt;VideoModule</title>
<path fill="none" stroke="black" d="M333,-84.91C333,-84.91 333,-103.79 333,-103.79"/>
<polygon fill="black" stroke="black" points="329.5,-103.79 333,-113.79 336.5,-103.79 329.5,-103.79"/>
</g>
<!-- SpinnerModule -->
<g id="node6" class="node">
<title>SpinnerModule</title>
<polygon fill="#8dd3c7" stroke="black" points="267.6,-84.8 264.6,-88.8 243.6,-88.8 240.6,-84.8 164.4,-84.8 164.4,-48.8 267.6,-48.8 267.6,-84.8"/>
<text text-anchor="middle" x="216" y="-62.6" font-family="Times,serif" font-size="14.00">SpinnerModule</text>
</g>
<!-- SpinnerModule&#45;&gt;VideoModule -->
<g id="edge5" class="edge">
<title>SpinnerModule&#45;&gt;VideoModule</title>
<path fill="none" stroke="black" d="M216,-84.82C216,-102.17 216,-125.8 216,-125.8 216,-125.8 276.09,-125.8 276.09,-125.8"/>
<polygon fill="black" stroke="black" points="276.09,-129.3 286.09,-125.8 276.09,-122.3 276.09,-129.3"/>
</g>
</g>
</svg>
