<?xml version="1.0" encoding="UTF-8" standalone="no"?>
<!DOCTYPE svg PUBLIC "-//W3C//DTD SVG 1.1//EN"
 "http://www.w3.org/Graphics/SVG/1.1/DTD/svg11.dtd">
<!-- Generated by graphviz version 5.0.0 (20220707.1540)
 -->
<!-- Title: dependencies Pages: 1 -->
<svg width="432pt" height="174pt"
 viewBox="0.00 0.00 432.00 173.80" xmlns="http://www.w3.org/2000/svg" xmlns:xlink="http://www.w3.org/1999/xlink">
<g id="graph0" class="graph" transform="scale(1 1) rotate(0) translate(4 169.8)">
<title>dependencies</title>
<polygon fill="white" stroke="transparent" points="-4,4 -4,-169.8 428,-169.8 428,4 -4,4"/>
<text text-anchor="middle" x="212" y="-8.2" font-family="sans-serif" font-size="14.00">dependencies</text>
<g id="clust1" class="cluster">
<title>cluster_RulebasedCpqConfiguratorModule</title>
<polygon fill="none" stroke="black" stroke-dasharray="1,5" points="8,-32.8 8,-157.8 416,-157.8 416,-32.8 8,-32.8"/>
</g>
<g id="clust3" class="cluster">
<title>cluster_RulebasedCpqConfiguratorModule_imports</title>
<polygon fill="none" stroke="black" points="16,-40.8 16,-92.8 408,-92.8 408,-40.8 16,-40.8"/>
</g>
<!-- CpqConfiguratorOccModule -->
<g id="node1" class="node">
<title>CpqConfiguratorOccModule</title>
<polygon fill="#8dd3c7" stroke="black" points="399.75,-84.8 396.75,-88.8 375.75,-88.8 372.75,-84.8 222.25,-84.8 222.25,-48.8 399.75,-48.8 399.75,-84.8"/>
<text text-anchor="middle" x="311" y="-62.6" font-family="Times,serif" font-size="14.00">CpqConfiguratorOccModule</text>
</g>
<!-- RulebasedCpqConfiguratorModule -->
<g id="node3" class="node">
<title>RulebasedCpqConfiguratorModule</title>
<polygon fill="#8dd3c7" stroke="black" points="318.52,-149.8 315.52,-153.8 294.52,-153.8 291.52,-149.8 105.48,-149.8 105.48,-113.8 318.52,-113.8 318.52,-149.8"/>
<text text-anchor="middle" x="212" y="-127.6" font-family="Times,serif" font-size="14.00">RulebasedCpqConfiguratorModule</text>
</g>
<!-- CpqConfiguratorOccModule&#45;&gt;RulebasedCpqConfiguratorModule -->
<g id="edge1" class="edge">
<title>CpqConfiguratorOccModule&#45;&gt;RulebasedCpqConfiguratorModule</title>
<path fill="none" stroke="black" d="M270.44,-84.91C270.44,-84.91 270.44,-103.79 270.44,-103.79"/>
<polygon fill="black" stroke="black" points="266.94,-103.79 270.44,-113.79 273.94,-103.79 266.94,-103.79"/>
</g>
<!-- CpqConfiguratorRestModule -->
<g id="node2" class="node">
<title>CpqConfiguratorRestModule</title>
<polygon fill="#8dd3c7" stroke="black" points="204.1,-84.8 201.1,-88.8 180.1,-88.8 177.1,-84.8 23.9,-84.8 23.9,-48.8 204.1,-48.8 204.1,-84.8"/>
<text text-anchor="middle" x="114" y="-62.6" font-family="Times,serif" font-size="14.00">CpqConfiguratorRestModule</text>
</g>
<!-- CpqConfiguratorRestModule&#45;&gt;RulebasedCpqConfiguratorModule -->
<g id="edge2" class="edge">
<title>CpqConfiguratorRestModule&#45;&gt;RulebasedCpqConfiguratorModule</title>
<path fill="none" stroke="black" d="M154.64,-84.91C154.64,-84.91 154.64,-103.79 154.64,-103.79"/>
<polygon fill="black" stroke="black" points="151.14,-103.79 154.64,-113.79 158.14,-103.79 151.14,-103.79"/>
</g>
</g>
</svg>
