<?xml version="1.0" encoding="UTF-8" standalone="no"?>
<!DOCTYPE svg PUBLIC "-//W3C//DTD SVG 1.1//EN"
 "http://www.w3.org/Graphics/SVG/1.1/DTD/svg11.dtd">
<!-- Generated by graphviz version 5.0.0 (20220707.1540)
 -->
<!-- Title: dependencies Pages: 1 -->
<svg width="619pt" height="247pt"
 viewBox="0.00 0.00 619.00 246.80" xmlns="http://www.w3.org/2000/svg" xmlns:xlink="http://www.w3.org/1999/xlink">
<g id="graph0" class="graph" transform="scale(1 1) rotate(0) translate(4 242.8)">
<title>dependencies</title>
<polygon fill="white" stroke="transparent" points="-4,4 -4,-242.8 615,-242.8 615,4 -4,4"/>
<text text-anchor="middle" x="305.5" y="-8.2" font-family="sans-serif" font-size="14.00">dependencies</text>
<g id="clust1" class="cluster">
<title>cluster_ProductReviewsModule</title>
<polygon fill="none" stroke="black" stroke-dasharray="1,5" points="8,-32.8 8,-230.8 603,-230.8 603,-32.8 8,-32.8"/>
</g>
<g id="clust4" class="cluster">
<title>cluster_ProductReviewsModule_imports</title>
<polygon fill="none" stroke="black" points="214,-40.8 214,-92.8 595,-92.8 595,-40.8 214,-40.8"/>
</g>
<g id="clust5" class="cluster">
<title>cluster_ProductReviewsModule_exports</title>
<polygon fill="none" stroke="black" points="246,-170.8 246,-222.8 438,-222.8 438,-170.8 246,-170.8"/>
</g>
<g id="clust2" class="cluster">
<title>cluster_ProductReviewsModule_declarations</title>
<polygon fill="none" stroke="black" points="16,-40.8 16,-92.8 206,-92.8 206,-40.8 16,-40.8"/>
</g>
<!-- ProductReviewsComponent -->
<g id="node1" class="node">
<title>ProductReviewsComponent</title>
<polygon fill="#ffffb3" stroke="black" points="197.6,-84.8 24.4,-84.8 24.4,-48.8 197.6,-48.8 197.6,-84.8"/>
<text text-anchor="middle" x="111" y="-62.6" font-family="Times,serif" font-size="14.00">ProductReviewsComponent</text>
</g>
<!-- ProductReviewsModule -->
<g id="node2" class="node">
<title>ProductReviewsModule</title>
<polygon fill="#8dd3c7" stroke="black" points="417.82,-149.8 414.82,-153.8 393.82,-153.8 390.82,-149.8 266.18,-149.8 266.18,-113.8 417.82,-113.8 417.82,-149.8"/>
<text text-anchor="middle" x="342" y="-127.6" font-family="Times,serif" font-size="14.00">ProductReviewsModule</text>
</g>
<!-- ProductReviewsComponent&#45;&gt;ProductReviewsModule -->
<g id="edge1" class="edge">
<title>ProductReviewsComponent&#45;&gt;ProductReviewsModule</title>
<path fill="none" stroke="black" d="M111,-84.91C111,-104.14 111,-131.8 111,-131.8 111,-131.8 256.04,-131.8 256.04,-131.8"/>
<polygon fill="black" stroke="black" points="256.04,-135.3 266.04,-131.8 256.04,-128.3 256.04,-135.3"/>
</g>
<!-- ProductReviewsComponent  -->
<g id="node6" class="node">
<title>ProductReviewsComponent </title>
<polygon fill="#fb8072" stroke="black" points="430.1,-214.8 253.9,-214.8 253.9,-178.8 430.1,-178.8 430.1,-214.8"/>
<text text-anchor="middle" x="342" y="-192.6" font-family="Times,serif" font-size="14.00">ProductReviewsComponent </text>
</g>
<!-- ProductReviewsModule&#45;&gt;ProductReviewsComponent  -->
<g id="edge5" class="edge">
<title>ProductReviewsModule&#45;&gt;ProductReviewsComponent </title>
<path fill="none" stroke="black" stroke-dasharray="5,2" d="M342,-149.91C342,-149.91 342,-168.79 342,-168.79"/>
<polygon fill="black" stroke="black" points="338.5,-168.79 342,-178.79 345.5,-168.79 338.5,-168.79"/>
</g>
<!-- FormErrorsModule -->
<g id="node3" class="node">
<title>FormErrorsModule</title>
<polygon fill="#8dd3c7" stroke="black" points="587.38,-84.8 584.38,-88.8 563.38,-88.8 560.38,-84.8 462.62,-84.8 462.62,-48.8 587.38,-48.8 587.38,-84.8"/>
<text text-anchor="middle" x="525" y="-62.6" font-family="Times,serif" font-size="14.00">FormErrorsModule</text>
</g>
<!-- FormErrorsModule&#45;&gt;ProductReviewsModule -->
<g id="edge2" class="edge">
<title>FormErrorsModule&#45;&gt;ProductReviewsModule</title>
<path fill="none" stroke="black" d="M525,-84.91C525,-104.14 525,-131.8 525,-131.8 525,-131.8 427.75,-131.8 427.75,-131.8"/>
<polygon fill="black" stroke="black" points="427.75,-128.3 417.75,-131.8 427.75,-135.3 427.75,-128.3"/>
</g>
<!-- I18nModule -->
<g id="node4" class="node">
<title>I18nModule</title>
<polygon fill="#8dd3c7" stroke="black" points="444.71,-84.8 441.71,-88.8 420.71,-88.8 417.71,-84.8 359.29,-84.8 359.29,-48.8 444.71,-48.8 444.71,-84.8"/>
<text text-anchor="middle" x="402" y="-62.6" font-family="Times,serif" font-size="14.00">I18nModule</text>
</g>
<!-- I18nModule&#45;&gt;ProductReviewsModule -->
<g id="edge3" class="edge">
<title>I18nModule&#45;&gt;ProductReviewsModule</title>
<path fill="none" stroke="black" d="M388.53,-84.91C388.53,-84.91 388.53,-103.79 388.53,-103.79"/>
<polygon fill="black" stroke="black" points="385.03,-103.79 388.53,-113.79 392.03,-103.79 385.03,-103.79"/>
</g>
<!-- StarRatingModule -->
<g id="node5" class="node">
<title>StarRatingModule</title>
<polygon fill="#8dd3c7" stroke="black" points="341.94,-84.8 338.94,-88.8 317.94,-88.8 314.94,-84.8 222.06,-84.8 222.06,-48.8 341.94,-48.8 341.94,-84.8"/>
<text text-anchor="middle" x="282" y="-62.6" font-family="Times,serif" font-size="14.00">StarRatingModule</text>
</g>
<!-- StarRatingModule&#45;&gt;ProductReviewsModule -->
<g id="edge4" class="edge">
<title>StarRatingModule&#45;&gt;ProductReviewsModule</title>
<path fill="none" stroke="black" d="M304.03,-84.91C304.03,-84.91 304.03,-103.79 304.03,-103.79"/>
<polygon fill="black" stroke="black" points="300.53,-103.79 304.03,-113.79 307.53,-103.79 300.53,-103.79"/>
</g>
</g>
</svg>
