<?xml version="1.0" encoding="UTF-8" standalone="no"?>
<!DOCTYPE svg PUBLIC "-//W3C//DTD SVG 1.1//EN"
 "http://www.w3.org/Graphics/SVG/1.1/DTD/svg11.dtd">
<!-- Generated by graphviz version 5.0.0 (20220707.1540)
 -->
<!-- Title: dependencies Pages: 1 -->
<svg width="619pt" height="247pt"
 viewBox="0.00 0.00 619.00 246.80" xmlns="http://www.w3.org/2000/svg" xmlns:xlink="http://www.w3.org/1999/xlink">
<g id="graph0" class="graph" transform="scale(1 1) rotate(0) translate(4 242.8)">
<title>dependencies</title>
<polygon fill="white" stroke="transparent" points="-4,4 -4,-242.8 615,-242.8 615,4 -4,4"/>
<text text-anchor="middle" x="305.5" y="-8.2" font-family="sans-serif" font-size="14.00">dependencies</text>
<g id="clust1" class="cluster">
<title>cluster_ProductReviewsModule</title>
<polygon fill="none" stroke="black" stroke-dasharray="1,5" points="8,-32.8 8,-230.8 603,-230.8 603,-32.8 8,-32.8"/>
</g>
<g id="clust2" class="cluster">
<title>cluster_ProductReviewsModule_declarations</title>
<polygon fill="none" stroke="black" points="405,-40.8 405,-92.8 595,-92.8 595,-40.8 405,-40.8"/>
</g>
<g id="clust5" class="cluster">
<title>cluster_ProductReviewsModule_exports</title>
<polygon fill="none" stroke="black" points="169,-170.8 169,-222.8 361,-222.8 361,-170.8 169,-170.8"/>
</g>
<g id="clust4" class="cluster">
<title>cluster_ProductReviewsModule_imports</title>
<polygon fill="none" stroke="black" points="16,-40.8 16,-92.8 397,-92.8 397,-40.8 16,-40.8"/>
</g>
<!-- ProductReviewsComponent -->
<g id="node1" class="node">
<title>ProductReviewsComponent</title>
<polygon fill="#ffffb3" stroke="black" points="586.6,-84.8 413.4,-84.8 413.4,-48.8 586.6,-48.8 586.6,-84.8"/>
<text text-anchor="middle" x="500" y="-62.6" font-family="Times,serif" font-size="14.00">ProductReviewsComponent</text>
</g>
<!-- ProductReviewsModule -->
<g id="node2" class="node">
<title>ProductReviewsModule</title>
<polygon fill="#8dd3c7" stroke="black" points="340.82,-149.8 337.82,-153.8 316.82,-153.8 313.82,-149.8 189.18,-149.8 189.18,-113.8 340.82,-113.8 340.82,-149.8"/>
<text text-anchor="middle" x="265" y="-127.6" font-family="Times,serif" font-size="14.00">ProductReviewsModule</text>
</g>
<!-- ProductReviewsComponent&#45;&gt;ProductReviewsModule -->
<g id="edge1" class="edge">
<title>ProductReviewsComponent&#45;&gt;ProductReviewsModule</title>
<path fill="none" stroke="black" d="M500,-84.91C500,-104.14 500,-131.8 500,-131.8 500,-131.8 350.97,-131.8 350.97,-131.8"/>
<polygon fill="black" stroke="black" points="350.97,-128.3 340.97,-131.8 350.97,-135.3 350.97,-128.3"/>
</g>
<!-- ProductReviewsComponent  -->
<g id="node6" class="node">
<title>ProductReviewsComponent </title>
<polygon fill="#fb8072" stroke="black" points="353.1,-214.8 176.9,-214.8 176.9,-178.8 353.1,-178.8 353.1,-214.8"/>
<text text-anchor="middle" x="265" y="-192.6" font-family="Times,serif" font-size="14.00">ProductReviewsComponent </text>
</g>
<!-- ProductReviewsModule&#45;&gt;ProductReviewsComponent  -->
<g id="edge5" class="edge">
<title>ProductReviewsModule&#45;&gt;ProductReviewsComponent </title>
<path fill="none" stroke="black" stroke-dasharray="5,2" d="M265,-149.91C265,-149.91 265,-168.79 265,-168.79"/>
<polygon fill="black" stroke="black" points="261.5,-168.79 265,-178.79 268.5,-168.79 261.5,-168.79"/>
</g>
<!-- FormErrorsModule -->
<g id="node3" class="node">
<title>FormErrorsModule</title>
<polygon fill="#8dd3c7" stroke="black" points="389.38,-84.8 386.38,-88.8 365.38,-88.8 362.38,-84.8 264.62,-84.8 264.62,-48.8 389.38,-48.8 389.38,-84.8"/>
<text text-anchor="middle" x="327" y="-62.6" font-family="Times,serif" font-size="14.00">FormErrorsModule</text>
</g>
<!-- FormErrorsModule&#45;&gt;ProductReviewsModule -->
<g id="edge2" class="edge">
<title>FormErrorsModule&#45;&gt;ProductReviewsModule</title>
<path fill="none" stroke="black" d="M302.61,-84.91C302.61,-84.91 302.61,-103.79 302.61,-103.79"/>
<polygon fill="black" stroke="black" points="299.11,-103.79 302.61,-113.79 306.11,-103.79 299.11,-103.79"/>
</g>
<!-- I18nModule -->
<g id="node4" class="node">
<title>I18nModule</title>
<polygon fill="#8dd3c7" stroke="black" points="246.71,-84.8 243.71,-88.8 222.71,-88.8 219.71,-84.8 161.29,-84.8 161.29,-48.8 246.71,-48.8 246.71,-84.8"/>
<text text-anchor="middle" x="204" y="-62.6" font-family="Times,serif" font-size="14.00">I18nModule</text>
</g>
<!-- I18nModule&#45;&gt;ProductReviewsModule -->
<g id="edge3" class="edge">
<title>I18nModule&#45;&gt;ProductReviewsModule</title>
<path fill="none" stroke="black" d="M217.97,-84.91C217.97,-84.91 217.97,-103.79 217.97,-103.79"/>
<polygon fill="black" stroke="black" points="214.47,-103.79 217.97,-113.79 221.47,-103.79 214.47,-103.79"/>
</g>
<!-- StarRatingModule -->
<g id="node5" class="node">
<title>StarRatingModule</title>
<polygon fill="#8dd3c7" stroke="black" points="143.94,-84.8 140.94,-88.8 119.94,-88.8 116.94,-84.8 24.06,-84.8 24.06,-48.8 143.94,-48.8 143.94,-84.8"/>
<text text-anchor="middle" x="84" y="-62.6" font-family="Times,serif" font-size="14.00">StarRatingModule</text>
</g>
<!-- StarRatingModule&#45;&gt;ProductReviewsModule -->
<g id="edge4" class="edge">
<title>StarRatingModule&#45;&gt;ProductReviewsModule</title>
<path fill="none" stroke="black" d="M84,-84.91C84,-104.14 84,-131.8 84,-131.8 84,-131.8 179.29,-131.8 179.29,-131.8"/>
<polygon fill="black" stroke="black" points="179.29,-135.3 189.29,-131.8 179.29,-128.3 179.29,-135.3"/>
</g>
</g>
</svg>
