<?xml version="1.0" encoding="UTF-8" standalone="no"?>
<!DOCTYPE svg PUBLIC "-//W3C//DTD SVG 1.1//EN"
 "http://www.w3.org/Graphics/SVG/1.1/DTD/svg11.dtd">
<!-- Generated by graphviz version 5.0.0 (20220707.1540)
 -->
<!-- Title: dependencies Pages: 1 -->
<svg width="342pt" height="247pt"
 viewBox="0.00 0.00 342.00 246.80" xmlns="http://www.w3.org/2000/svg" xmlns:xlink="http://www.w3.org/1999/xlink">
<g id="graph0" class="graph" transform="scale(1 1) rotate(0) translate(4 242.8)">
<title>dependencies</title>
<polygon fill="white" stroke="transparent" points="-4,4 -4,-242.8 338,-242.8 338,4 -4,4"/>
<text text-anchor="middle" x="167" y="-8.2" font-family="sans-serif" font-size="14.00">dependencies</text>
<g id="clust1" class="cluster">
<title>cluster_CartTotalsModule</title>
<polygon fill="none" stroke="black" stroke-dasharray="1,5" points="8,-32.8 8,-230.8 326,-230.8 326,-32.8 8,-32.8"/>
</g>
<g id="clust4" class="cluster">
<title>cluster_CartTotalsModule_imports</title>
<polygon fill="none" stroke="black" points="180,-40.8 180,-92.8 318,-92.8 318,-40.8 180,-40.8"/>
</g>
<g id="clust2" class="cluster">
<title>cluster_CartTotalsModule_declarations</title>
<polygon fill="none" stroke="black" points="16,-40.8 16,-92.8 172,-92.8 172,-40.8 16,-40.8"/>
</g>
<g id="clust5" class="cluster">
<title>cluster_CartTotalsModule_exports</title>
<polygon fill="none" stroke="black" points="87,-170.8 87,-222.8 247,-222.8 247,-170.8 87,-170.8"/>
</g>
<!-- CartTotalsComponent -->
<g id="node1" class="node">
<title>CartTotalsComponent</title>
<polygon fill="#ffffb3" stroke="black" points="164.43,-84.8 23.57,-84.8 23.57,-48.8 164.43,-48.8 164.43,-84.8"/>
<text text-anchor="middle" x="94" y="-62.6" font-family="Times,serif" font-size="14.00">CartTotalsComponent</text>
</g>
<!-- CartTotalsModule -->
<g id="node2" class="node">
<title>CartTotalsModule</title>
<polygon fill="#8dd3c7" stroke="black" points="226.15,-149.8 223.15,-153.8 202.15,-153.8 199.15,-149.8 107.85,-149.8 107.85,-113.8 226.15,-113.8 226.15,-149.8"/>
<text text-anchor="middle" x="167" y="-127.6" font-family="Times,serif" font-size="14.00">CartTotalsModule</text>
</g>
<!-- CartTotalsComponent&#45;&gt;CartTotalsModule -->
<g id="edge1" class="edge">
<title>CartTotalsComponent&#45;&gt;CartTotalsModule</title>
<path fill="none" stroke="black" d="M135.94,-84.91C135.94,-84.91 135.94,-103.79 135.94,-103.79"/>
<polygon fill="black" stroke="black" points="132.44,-103.79 135.94,-113.79 139.44,-103.79 132.44,-103.79"/>
</g>
<!-- CartTotalsComponent  -->
<g id="node4" class="node">
<title>CartTotalsComponent </title>
<polygon fill="#fb8072" stroke="black" points="238.93,-214.8 95.07,-214.8 95.07,-178.8 238.93,-178.8 238.93,-214.8"/>
<text text-anchor="middle" x="167" y="-192.6" font-family="Times,serif" font-size="14.00">CartTotalsComponent </text>
</g>
<!-- CartTotalsModule&#45;&gt;CartTotalsComponent  -->
<g id="edge3" class="edge">
<title>CartTotalsModule&#45;&gt;CartTotalsComponent </title>
<path fill="none" stroke="black" stroke-dasharray="5,2" d="M167,-149.91C167,-149.91 167,-168.79 167,-168.79"/>
<polygon fill="black" stroke="black" points="163.5,-168.79 167,-178.79 170.5,-168.79 163.5,-168.79"/>
</g>
<!-- CartSharedModule -->
<g id="node3" class="node">
<title>CartSharedModule</title>
<polygon fill="#8dd3c7" stroke="black" points="310.03,-84.8 307.03,-88.8 286.03,-88.8 283.03,-84.8 187.97,-84.8 187.97,-48.8 310.03,-48.8 310.03,-84.8"/>
<text text-anchor="middle" x="249" y="-62.6" font-family="Times,serif" font-size="14.00">CartSharedModule</text>
</g>
<!-- CartSharedModule&#45;&gt;CartTotalsModule -->
<g id="edge2" class="edge">
<title>CartSharedModule&#45;&gt;CartTotalsModule</title>
<path fill="none" stroke="black" d="M207.03,-84.91C207.03,-84.91 207.03,-103.79 207.03,-103.79"/>
<polygon fill="black" stroke="black" points="203.53,-103.79 207.03,-113.79 210.53,-103.79 203.53,-103.79"/>
</g>
</g>
</svg>
