<?xml version="1.0" encoding="UTF-8" standalone="no"?>
<!DOCTYPE svg PUBLIC "-//W3C//DTD SVG 1.1//EN"
 "http://www.w3.org/Graphics/SVG/1.1/DTD/svg11.dtd">
<!-- Generated by graphviz version 5.0.0 (20220707.1540)
 -->
<!-- Title: dependencies Pages: 1 -->
<svg width="647pt" height="174pt"
 viewBox="0.00 0.00 647.00 173.80" xmlns="http://www.w3.org/2000/svg" xmlns:xlink="http://www.w3.org/1999/xlink">
<g id="graph0" class="graph" transform="scale(1 1) rotate(0) translate(4 169.8)">
<title>dependencies</title>
<polygon fill="white" stroke="transparent" points="-4,4 -4,-169.8 643,-169.8 643,4 -4,4"/>
<text text-anchor="middle" x="319.5" y="-8.2" font-family="sans-serif" font-size="14.00">dependencies</text>
<g id="clust1" class="cluster">
<title>cluster_WishListCoreModule</title>
<polygon fill="none" stroke="black" stroke-dasharray="1,5" points="8,-32.8 8,-157.8 631,-157.8 631,-32.8 8,-32.8"/>
</g>
<g id="clust3" class="cluster">
<title>cluster_WishListCoreModule_imports</title>
<polygon fill="none" stroke="black" points="467,-40.8 467,-92.8 623,-92.8 623,-40.8 467,-40.8"/>
</g>
<g id="clust6" class="cluster">
<title>cluster_WishListCoreModule_providers</title>
<polygon fill="none" stroke="black" points="16,-40.8 16,-92.8 459,-92.8 459,-40.8 16,-40.8"/>
</g>
<!-- WishListStoreModule -->
<g id="node1" class="node">
<title>WishListStoreModule</title>
<polygon fill="#8dd3c7" stroke="black" points="615.44,-84.8 612.44,-88.8 591.44,-88.8 588.44,-84.8 474.56,-84.8 474.56,-48.8 615.44,-48.8 615.44,-84.8"/>
<text text-anchor="middle" x="545" y="-62.6" font-family="Times,serif" font-size="14.00">WishListStoreModule</text>
</g>
<!-- WishListCoreModule -->
<g id="node2" class="node">
<title>WishListCoreModule</title>
<polygon fill="#8dd3c7" stroke="black" points="426.1,-149.8 423.1,-153.8 402.1,-153.8 399.1,-149.8 287.9,-149.8 287.9,-113.8 426.1,-113.8 426.1,-149.8"/>
<text text-anchor="middle" x="357" y="-127.6" font-family="Times,serif" font-size="14.00">WishListCoreModule</text>
</g>
<!-- WishListStoreModule&#45;&gt;WishListCoreModule -->
<g id="edge1" class="edge">
<title>WishListStoreModule&#45;&gt;WishListCoreModule</title>
<path fill="none" stroke="black" d="M545,-84.91C545,-104.14 545,-131.8 545,-131.8 545,-131.8 436.2,-131.8 436.2,-131.8"/>
<polygon fill="black" stroke="black" points="436.2,-128.3 426.2,-131.8 436.2,-135.3 436.2,-128.3"/>
</g>
<!-- AsmBindCartService -->
<g id="node3" class="node">
<title>AsmBindCartService</title>
<ellipse fill="#fdb462" stroke="black" cx="357" cy="-66.8" rx="93.79" ry="18"/>
<text text-anchor="middle" x="357" y="-62.6" font-family="Times,serif" font-size="14.00">AsmBindCartService</text>
</g>
<!-- AsmBindCartService&#45;&gt;WishListCoreModule -->
<g id="edge2" class="edge">
<title>AsmBindCartService&#45;&gt;WishListCoreModule</title>
<path fill="none" stroke="black" d="M357,-84.91C357,-84.91 357,-103.79 357,-103.79"/>
<polygon fill="black" stroke="black" points="353.5,-103.79 357,-113.79 360.5,-103.79 353.5,-103.79"/>
</g>
<!-- AsmCustomerListService -->
<g id="node4" class="node">
<title>AsmCustomerListService</title>
<ellipse fill="#fdb462" stroke="black" cx="135" cy="-66.8" rx="110.63" ry="18"/>
<text text-anchor="middle" x="135" y="-62.6" font-family="Times,serif" font-size="14.00">AsmCustomerListService</text>
</g>
<!-- AsmCustomerListService&#45;&gt;WishListCoreModule -->
<g id="edge3" class="edge">
<title>AsmCustomerListService&#45;&gt;WishListCoreModule</title>
<path fill="none" stroke="black" d="M135,-84.91C135,-104.14 135,-131.8 135,-131.8 135,-131.8 277.67,-131.8 277.67,-131.8"/>
<polygon fill="black" stroke="black" points="277.67,-135.3 287.67,-131.8 277.67,-128.3 277.67,-135.3"/>
</g>
</g>
</svg>
