<?xml version="1.0" encoding="UTF-8" standalone="no"?>
<!DOCTYPE svg PUBLIC "-//W3C//DTD SVG 1.1//EN"
 "http://www.w3.org/Graphics/SVG/1.1/DTD/svg11.dtd">
<!-- Generated by graphviz version 5.0.0 (20220707.1540)
 -->
<!-- Title: dependencies Pages: 1 -->
<svg width="647pt" height="174pt"
 viewBox="0.00 0.00 647.00 173.80" xmlns="http://www.w3.org/2000/svg" xmlns:xlink="http://www.w3.org/1999/xlink">
<g id="graph0" class="graph" transform="scale(1 1) rotate(0) translate(4 169.8)">
<title>dependencies</title>
<polygon fill="white" stroke="transparent" points="-4,4 -4,-169.8 643,-169.8 643,4 -4,4"/>
<text text-anchor="middle" x="319.5" y="-8.2" font-family="sans-serif" font-size="14.00">dependencies</text>
<g id="clust1" class="cluster">
<title>cluster_WishListCoreModule</title>
<polygon fill="none" stroke="black" stroke-dasharray="1,5" points="8,-32.8 8,-157.8 631,-157.8 631,-32.8 8,-32.8"/>
</g>
<g id="clust6" class="cluster">
<title>cluster_WishListCoreModule_providers</title>
<polygon fill="none" stroke="black" points="180,-40.8 180,-92.8 623,-92.8 623,-40.8 180,-40.8"/>
</g>
<g id="clust3" class="cluster">
<title>cluster_WishListCoreModule_imports</title>
<polygon fill="none" stroke="black" points="16,-40.8 16,-92.8 172,-92.8 172,-40.8 16,-40.8"/>
</g>
<!-- WishListStoreModule -->
<g id="node1" class="node">
<title>WishListStoreModule</title>
<polygon fill="#8dd3c7" stroke="black" points="164.44,-84.8 161.44,-88.8 140.44,-88.8 137.44,-84.8 23.56,-84.8 23.56,-48.8 164.44,-48.8 164.44,-84.8"/>
<text text-anchor="middle" x="94" y="-62.6" font-family="Times,serif" font-size="14.00">WishListStoreModule</text>
</g>
<!-- WishListCoreModule -->
<g id="node2" class="node">
<title>WishListCoreModule</title>
<polygon fill="#8dd3c7" stroke="black" points="368.1,-149.8 365.1,-153.8 344.1,-153.8 341.1,-149.8 229.9,-149.8 229.9,-113.8 368.1,-113.8 368.1,-149.8"/>
<text text-anchor="middle" x="299" y="-127.6" font-family="Times,serif" font-size="14.00">WishListCoreModule</text>
</g>
<!-- WishListStoreModule&#45;&gt;WishListCoreModule -->
<g id="edge1" class="edge">
<title>WishListStoreModule&#45;&gt;WishListCoreModule</title>
<path fill="none" stroke="black" d="M94,-84.91C94,-104.14 94,-131.8 94,-131.8 94,-131.8 219.88,-131.8 219.88,-131.8"/>
<polygon fill="black" stroke="black" points="219.88,-135.3 229.88,-131.8 219.88,-128.3 219.88,-135.3"/>
</g>
<!-- AsmBindCartService -->
<g id="node3" class="node">
<title>AsmBindCartService</title>
<ellipse fill="#fdb462" stroke="black" cx="521" cy="-66.8" rx="93.79" ry="18"/>
<text text-anchor="middle" x="521" y="-62.6" font-family="Times,serif" font-size="14.00">AsmBindCartService</text>
</g>
<!-- AsmBindCartService&#45;&gt;WishListCoreModule -->
<g id="edge2" class="edge">
<title>AsmBindCartService&#45;&gt;WishListCoreModule</title>
<path fill="none" stroke="black" d="M521,-84.91C521,-104.14 521,-131.8 521,-131.8 521,-131.8 378.33,-131.8 378.33,-131.8"/>
<polygon fill="black" stroke="black" points="378.33,-128.3 368.33,-131.8 378.33,-135.3 378.33,-128.3"/>
</g>
<!-- AsmCustomerListService -->
<g id="node4" class="node">
<title>AsmCustomerListService</title>
<ellipse fill="#fdb462" stroke="black" cx="299" cy="-66.8" rx="110.63" ry="18"/>
<text text-anchor="middle" x="299" y="-62.6" font-family="Times,serif" font-size="14.00">AsmCustomerListService</text>
</g>
<!-- AsmCustomerListService&#45;&gt;WishListCoreModule -->
<g id="edge3" class="edge">
<title>AsmCustomerListService&#45;&gt;WishListCoreModule</title>
<path fill="none" stroke="black" d="M299,-84.91C299,-84.91 299,-103.79 299,-103.79"/>
<polygon fill="black" stroke="black" points="295.5,-103.79 299,-113.79 302.5,-103.79 295.5,-103.79"/>
</g>
</g>
</svg>
