<?xml version="1.0" encoding="UTF-8" standalone="no"?>
<!DOCTYPE svg PUBLIC "-//W3C//DTD SVG 1.1//EN"
 "http://www.w3.org/Graphics/SVG/1.1/DTD/svg11.dtd">
<!-- Generated by graphviz version 5.0.0 (20220707.1540)
 -->
<!-- Title: dependencies Pages: 1 -->
<svg width="768pt" height="174pt"
 viewBox="0.00 0.00 768.00 173.80" xmlns="http://www.w3.org/2000/svg" xmlns:xlink="http://www.w3.org/1999/xlink">
<g id="graph0" class="graph" transform="scale(1 1) rotate(0) translate(4 169.8)">
<title>dependencies</title>
<polygon fill="white" stroke="transparent" points="-4,4 -4,-169.8 764,-169.8 764,4 -4,4"/>
<text text-anchor="middle" x="380" y="-8.2" font-family="sans-serif" font-size="14.00">dependencies</text>
<g id="clust1" class="cluster">
<title>cluster_RulebasedConfiguratorCoreModule</title>
<polygon fill="none" stroke="black" stroke-dasharray="1,5" points="8,-32.8 8,-157.8 752,-157.8 752,-32.8 8,-32.8"/>
</g>
<g id="clust6" class="cluster">
<title>cluster_RulebasedConfiguratorCoreModule_providers</title>
<polygon fill="none" stroke="black" points="446,-40.8 446,-92.8 744,-92.8 744,-40.8 446,-40.8"/>
</g>
<g id="clust3" class="cluster">
<title>cluster_RulebasedConfiguratorCoreModule_imports</title>
<polygon fill="none" stroke="black" points="16,-40.8 16,-92.8 438,-92.8 438,-40.8 16,-40.8"/>
</g>
<!-- ConfiguratorRouterModule -->
<g id="node1" class="node">
<title>ConfiguratorRouterModule</title>
<polygon fill="#8dd3c7" stroke="black" points="429.97,-84.8 426.97,-88.8 405.97,-88.8 402.97,-84.8 260.03,-84.8 260.03,-48.8 429.97,-48.8 429.97,-84.8"/>
<text text-anchor="middle" x="345" y="-62.6" font-family="Times,serif" font-size="14.00">ConfiguratorRouterModule</text>
</g>
<!-- RulebasedConfiguratorCoreModule -->
<g id="node3" class="node">
<title>RulebasedConfiguratorCoreModule</title>
<polygon fill="#8dd3c7" stroke="black" points="453.9,-149.8 450.9,-153.8 429.9,-153.8 426.9,-149.8 236.1,-149.8 236.1,-113.8 453.9,-113.8 453.9,-149.8"/>
<text text-anchor="middle" x="345" y="-127.6" font-family="Times,serif" font-size="14.00">RulebasedConfiguratorCoreModule</text>
</g>
<!-- ConfiguratorRouterModule&#45;&gt;RulebasedConfiguratorCoreModule -->
<g id="edge1" class="edge">
<title>ConfiguratorRouterModule&#45;&gt;RulebasedConfiguratorCoreModule</title>
<path fill="none" stroke="black" d="M345,-84.91C345,-84.91 345,-103.79 345,-103.79"/>
<polygon fill="black" stroke="black" points="341.5,-103.79 345,-113.79 348.5,-103.79 341.5,-103.79"/>
</g>
<!-- RulebasedConfiguratorStateModule -->
<g id="node2" class="node">
<title>RulebasedConfiguratorStateModule</title>
<polygon fill="#8dd3c7" stroke="black" points="242.18,-84.8 239.18,-88.8 218.18,-88.8 215.18,-84.8 23.82,-84.8 23.82,-48.8 242.18,-48.8 242.18,-84.8"/>
<text text-anchor="middle" x="133" y="-62.6" font-family="Times,serif" font-size="14.00">RulebasedConfiguratorStateModule</text>
</g>
<!-- RulebasedConfiguratorStateModule&#45;&gt;RulebasedConfiguratorCoreModule -->
<g id="edge2" class="edge">
<title>RulebasedConfiguratorStateModule&#45;&gt;RulebasedConfiguratorCoreModule</title>
<path fill="none" stroke="black" d="M242.18,-66.8C247.72,-66.8 251.05,-66.8 251.05,-66.8 251.05,-66.8 251.05,-103.69 251.05,-103.69"/>
<polygon fill="black" stroke="black" points="247.55,-103.69 251.05,-113.69 254.55,-103.69 247.55,-103.69"/>
</g>
<!-- RulebasedConfiguratorConnector -->
<g id="node4" class="node">
<title>RulebasedConfiguratorConnector</title>
<ellipse fill="#fdb462" stroke="black" cx="595" cy="-66.8" rx="141.24" ry="18"/>
<text text-anchor="middle" x="595" y="-62.6" font-family="Times,serif" font-size="14.00">RulebasedConfiguratorConnector</text>
</g>
<!-- RulebasedConfiguratorConnector&#45;&gt;RulebasedConfiguratorCoreModule -->
<g id="edge3" class="edge">
<title>RulebasedConfiguratorConnector&#45;&gt;RulebasedConfiguratorCoreModule</title>
<path fill="none" stroke="black" d="M453.32,-66.8C446.13,-66.8 441.81,-66.8 441.81,-66.8 441.81,-66.8 441.81,-103.69 441.81,-103.69"/>
<polygon fill="black" stroke="black" points="438.31,-103.69 441.81,-113.69 445.31,-103.69 438.31,-103.69"/>
</g>
</g>
</svg>
