<?xml version="1.0" encoding="UTF-8" standalone="no"?>
<!DOCTYPE svg PUBLIC "-//W3C//DTD SVG 1.1//EN"
 "http://www.w3.org/Graphics/SVG/1.1/DTD/svg11.dtd">
<!-- Generated by graphviz version 5.0.0 (20220707.1540)
 -->
<!-- Title: dependencies Pages: 1 -->
<svg width="768pt" height="174pt"
 viewBox="0.00 0.00 768.00 173.80" xmlns="http://www.w3.org/2000/svg" xmlns:xlink="http://www.w3.org/1999/xlink">
<g id="graph0" class="graph" transform="scale(1 1) rotate(0) translate(4 169.8)">
<title>dependencies</title>
<polygon fill="white" stroke="transparent" points="-4,4 -4,-169.8 764,-169.8 764,4 -4,4"/>
<text text-anchor="middle" x="380" y="-8.2" font-family="sans-serif" font-size="14.00">dependencies</text>
<g id="clust1" class="cluster">
<title>cluster_RulebasedConfiguratorCoreModule</title>
<polygon fill="none" stroke="black" stroke-dasharray="1,5" points="8,-32.8 8,-157.8 752,-157.8 752,-32.8 8,-32.8"/>
</g>
<g id="clust3" class="cluster">
<title>cluster_RulebasedConfiguratorCoreModule_imports</title>
<polygon fill="none" stroke="black" points="322,-40.8 322,-92.8 744,-92.8 744,-40.8 322,-40.8"/>
</g>
<g id="clust6" class="cluster">
<title>cluster_RulebasedConfiguratorCoreModule_providers</title>
<polygon fill="none" stroke="black" points="16,-40.8 16,-92.8 314,-92.8 314,-40.8 16,-40.8"/>
</g>
<!-- ConfiguratorRouterModule -->
<g id="node1" class="node">
<title>ConfiguratorRouterModule</title>
<polygon fill="#8dd3c7" stroke="black" points="735.97,-84.8 732.97,-88.8 711.97,-88.8 708.97,-84.8 566.03,-84.8 566.03,-48.8 735.97,-48.8 735.97,-84.8"/>
<text text-anchor="middle" x="651" y="-62.6" font-family="Times,serif" font-size="14.00">ConfiguratorRouterModule</text>
</g>
<!-- RulebasedConfiguratorCoreModule -->
<g id="node3" class="node">
<title>RulebasedConfiguratorCoreModule</title>
<polygon fill="#8dd3c7" stroke="black" points="547.9,-149.8 544.9,-153.8 523.9,-153.8 520.9,-149.8 330.1,-149.8 330.1,-113.8 547.9,-113.8 547.9,-149.8"/>
<text text-anchor="middle" x="439" y="-127.6" font-family="Times,serif" font-size="14.00">RulebasedConfiguratorCoreModule</text>
</g>
<!-- ConfiguratorRouterModule&#45;&gt;RulebasedConfiguratorCoreModule -->
<g id="edge1" class="edge">
<title>ConfiguratorRouterModule&#45;&gt;RulebasedConfiguratorCoreModule</title>
<path fill="none" stroke="black" d="M651,-84.91C651,-104.14 651,-131.8 651,-131.8 651,-131.8 557.79,-131.8 557.79,-131.8"/>
<polygon fill="black" stroke="black" points="557.79,-128.3 547.79,-131.8 557.79,-135.3 557.79,-128.3"/>
</g>
<!-- RulebasedConfiguratorStateModule -->
<g id="node2" class="node">
<title>RulebasedConfiguratorStateModule</title>
<polygon fill="#8dd3c7" stroke="black" points="548.18,-84.8 545.18,-88.8 524.18,-88.8 521.18,-84.8 329.82,-84.8 329.82,-48.8 548.18,-48.8 548.18,-84.8"/>
<text text-anchor="middle" x="439" y="-62.6" font-family="Times,serif" font-size="14.00">RulebasedConfiguratorStateModule</text>
</g>
<!-- RulebasedConfiguratorStateModule&#45;&gt;RulebasedConfiguratorCoreModule -->
<g id="edge2" class="edge">
<title>RulebasedConfiguratorStateModule&#45;&gt;RulebasedConfiguratorCoreModule</title>
<path fill="none" stroke="black" d="M439,-84.91C439,-84.91 439,-103.79 439,-103.79"/>
<polygon fill="black" stroke="black" points="435.5,-103.79 439,-113.79 442.5,-103.79 435.5,-103.79"/>
</g>
<!-- RulebasedConfiguratorConnector -->
<g id="node4" class="node">
<title>RulebasedConfiguratorConnector</title>
<ellipse fill="#fdb462" stroke="black" cx="165" cy="-66.8" rx="141.24" ry="18"/>
<text text-anchor="middle" x="165" y="-62.6" font-family="Times,serif" font-size="14.00">RulebasedConfiguratorConnector</text>
</g>
<!-- RulebasedConfiguratorConnector&#45;&gt;RulebasedConfiguratorCoreModule -->
<g id="edge3" class="edge">
<title>RulebasedConfiguratorConnector&#45;&gt;RulebasedConfiguratorCoreModule</title>
<path fill="none" stroke="black" d="M165,-84.91C165,-104.14 165,-131.8 165,-131.8 165,-131.8 319.92,-131.8 319.92,-131.8"/>
<polygon fill="black" stroke="black" points="319.92,-135.3 329.92,-131.8 319.92,-128.3 319.92,-135.3"/>
</g>
</g>
</svg>
