<?xml version="1.0" encoding="UTF-8" standalone="no"?>
<!DOCTYPE svg PUBLIC "-//W3C//DTD SVG 1.1//EN"
 "http://www.w3.org/Graphics/SVG/1.1/DTD/svg11.dtd">
<!-- Generated by graphviz version 5.0.0 (20220707.1540)
 -->
<!-- Title: dependencies Pages: 1 -->
<svg width="744pt" height="174pt"
 viewBox="0.00 0.00 744.00 173.80" xmlns="http://www.w3.org/2000/svg" xmlns:xlink="http://www.w3.org/1999/xlink">
<g id="graph0" class="graph" transform="scale(1 1) rotate(0) translate(4 169.8)">
<title>dependencies</title>
<polygon fill="white" stroke="transparent" points="-4,4 -4,-169.8 740,-169.8 740,4 -4,4"/>
<text text-anchor="middle" x="368" y="-8.2" font-family="sans-serif" font-size="14.00">dependencies</text>
<g id="clust1" class="cluster">
<title>cluster_AccountSummaryCoreModule</title>
<polygon fill="none" stroke="black" stroke-dasharray="1,5" points="8,-32.8 8,-157.8 728,-157.8 728,-32.8 8,-32.8"/>
</g>
<g id="clust6" class="cluster">
<title>cluster_AccountSummaryCoreModule_providers</title>
<polygon fill="none" stroke="black" points="16,-40.8 16,-92.8 720,-92.8 720,-40.8 16,-40.8"/>
</g>
<!-- AccountSummaryConnector -->
<g id="node1" class="node">
<title>AccountSummaryConnector</title>
<ellipse fill="#fdb462" stroke="black" cx="590" cy="-66.8" rx="121.56" ry="18"/>
<text text-anchor="middle" x="590" y="-62.6" font-family="Times,serif" font-size="14.00">AccountSummaryConnector</text>
</g>
<!-- AccountSummaryCoreModule -->
<g id="node4" class="node">
<title>AccountSummaryCoreModule</title>
<polygon fill="#8dd3c7" stroke="black" points="451.14,-149.8 448.14,-153.8 427.14,-153.8 424.14,-149.8 262.86,-149.8 262.86,-113.8 451.14,-113.8 451.14,-149.8"/>
<text text-anchor="middle" x="357" y="-127.6" font-family="Times,serif" font-size="14.00">AccountSummaryCoreModule</text>
</g>
<!-- AccountSummaryConnector&#45;&gt;AccountSummaryCoreModule -->
<g id="edge1" class="edge">
<title>AccountSummaryConnector&#45;&gt;AccountSummaryCoreModule</title>
<path fill="none" stroke="black" d="M590,-84.91C590,-104.14 590,-131.8 590,-131.8 590,-131.8 461.43,-131.8 461.43,-131.8"/>
<polygon fill="black" stroke="black" points="461.43,-128.3 451.43,-131.8 461.43,-135.3 461.43,-128.3"/>
</g>
<!-- AsmBindCartService -->
<g id="node2" class="node">
<title>AsmBindCartService</title>
<ellipse fill="#fdb462" stroke="black" cx="357" cy="-66.8" rx="93.79" ry="18"/>
<text text-anchor="middle" x="357" y="-62.6" font-family="Times,serif" font-size="14.00">AsmBindCartService</text>
</g>
<!-- AsmBindCartService&#45;&gt;AccountSummaryCoreModule -->
<g id="edge2" class="edge">
<title>AsmBindCartService&#45;&gt;AccountSummaryCoreModule</title>
<path fill="none" stroke="black" d="M357,-84.91C357,-84.91 357,-103.79 357,-103.79"/>
<polygon fill="black" stroke="black" points="353.5,-103.79 357,-113.79 360.5,-103.79 353.5,-103.79"/>
</g>
<!-- AsmCustomerListService -->
<g id="node3" class="node">
<title>AsmCustomerListService</title>
<ellipse fill="#fdb462" stroke="black" cx="135" cy="-66.8" rx="110.63" ry="18"/>
<text text-anchor="middle" x="135" y="-62.6" font-family="Times,serif" font-size="14.00">AsmCustomerListService</text>
</g>
<!-- AsmCustomerListService&#45;&gt;AccountSummaryCoreModule -->
<g id="edge3" class="edge">
<title>AsmCustomerListService&#45;&gt;AccountSummaryCoreModule</title>
<path fill="none" stroke="black" d="M135,-84.91C135,-104.14 135,-131.8 135,-131.8 135,-131.8 252.85,-131.8 252.85,-131.8"/>
<polygon fill="black" stroke="black" points="252.85,-135.3 262.85,-131.8 252.85,-128.3 252.85,-135.3"/>
</g>
</g>
</svg>
