<?xml version="1.0" encoding="UTF-8" standalone="no"?>
<!DOCTYPE svg PUBLIC "-//W3C//DTD SVG 1.1//EN"
 "http://www.w3.org/Graphics/SVG/1.1/DTD/svg11.dtd">
<!-- Generated by graphviz version 5.0.0 (20220707.1540)
 -->
<!-- Title: dependencies Pages: 1 -->
<svg width="250pt" height="174pt"
 viewBox="0.00 0.00 250.00 173.80" xmlns="http://www.w3.org/2000/svg" xmlns:xlink="http://www.w3.org/1999/xlink">
<g id="graph0" class="graph" transform="scale(1 1) rotate(0) translate(4 169.8)">
<title>dependencies</title>
<polygon fill="white" stroke="transparent" points="-4,4 -4,-169.8 246,-169.8 246,4 -4,4"/>
<text text-anchor="middle" x="121" y="-8.2" font-family="sans-serif" font-size="14.00">dependencies</text>
<g id="clust1" class="cluster">
<title>cluster_CpqConfiguratorOverviewModule</title>
<polygon fill="none" stroke="black" stroke-dasharray="1,5" points="8,-32.8 8,-157.8 234,-157.8 234,-32.8 8,-32.8"/>
</g>
<g id="clust3" class="cluster">
<title>cluster_CpqConfiguratorOverviewModule_imports</title>
<polygon fill="none" stroke="black" points="16,-40.8 16,-92.8 226,-92.8 226,-40.8 16,-40.8"/>
</g>
<!-- CpqConfiguratorLayoutModule -->
<g id="node1" class="node">
<title>CpqConfiguratorLayoutModule</title>
<polygon fill="#8dd3c7" stroke="black" points="218.36,-84.8 215.36,-88.8 194.36,-88.8 191.36,-84.8 23.64,-84.8 23.64,-48.8 218.36,-48.8 218.36,-84.8"/>
<text text-anchor="middle" x="121" y="-62.6" font-family="Times,serif" font-size="14.00">CpqConfiguratorLayoutModule</text>
</g>
<!-- CpqConfiguratorOverviewModule -->
<g id="node2" class="node">
<title>CpqConfiguratorOverviewModule</title>
<polygon fill="#8dd3c7" stroke="black" points="226.41,-149.8 223.41,-153.8 202.41,-153.8 199.41,-149.8 15.59,-149.8 15.59,-113.8 226.41,-113.8 226.41,-149.8"/>
<text text-anchor="middle" x="121" y="-127.6" font-family="Times,serif" font-size="14.00">CpqConfiguratorOverviewModule</text>
</g>
<!-- CpqConfiguratorLayoutModule&#45;&gt;CpqConfiguratorOverviewModule -->
<g id="edge1" class="edge">
<title>CpqConfiguratorLayoutModule&#45;&gt;CpqConfiguratorOverviewModule</title>
<path fill="none" stroke="black" d="M121,-84.91C121,-84.91 121,-103.79 121,-103.79"/>
<polygon fill="black" stroke="black" points="117.5,-103.79 121,-113.79 124.5,-103.79 117.5,-103.79"/>
</g>
</g>
</svg>
