<?xml version="1.0" encoding="UTF-8" standalone="no"?>
<!DOCTYPE svg PUBLIC "-//W3C//DTD SVG 1.1//EN"
 "http://www.w3.org/Graphics/SVG/1.1/DTD/svg11.dtd">
<!-- Generated by graphviz version 5.0.0 (20220707.1540)
 -->
<!-- Title: dependencies Pages: 1 -->
<svg width="456pt" height="174pt"
 viewBox="0.00 0.00 456.00 173.80" xmlns="http://www.w3.org/2000/svg" xmlns:xlink="http://www.w3.org/1999/xlink">
<g id="graph0" class="graph" transform="scale(1 1) rotate(0) translate(4 169.8)">
<title>dependencies</title>
<polygon fill="white" stroke="transparent" points="-4,4 -4,-169.8 452,-169.8 452,4 -4,4"/>
<text text-anchor="middle" x="224" y="-8.2" font-family="sans-serif" font-size="14.00">dependencies</text>
<g id="clust1" class="cluster">
<title>cluster_AsmRootModule</title>
<polygon fill="none" stroke="black" stroke-dasharray="1,5" points="8,-32.8 8,-157.8 440,-157.8 440,-32.8 8,-32.8"/>
</g>
<g id="clust6" class="cluster">
<title>cluster_AsmRootModule_providers</title>
<polygon fill="none" stroke="black" points="166,-40.8 166,-92.8 432,-92.8 432,-40.8 166,-40.8"/>
</g>
<g id="clust3" class="cluster">
<title>cluster_AsmRootModule_imports</title>
<polygon fill="none" stroke="black" points="16,-40.8 16,-92.8 158,-92.8 158,-40.8 16,-40.8"/>
</g>
<!-- AsmLoaderModule -->
<g id="node1" class="node">
<title>AsmLoaderModule</title>
<polygon fill="#8dd3c7" stroke="black" points="149.64,-84.8 146.64,-88.8 125.64,-88.8 122.64,-84.8 24.36,-84.8 24.36,-48.8 149.64,-48.8 149.64,-84.8"/>
<text text-anchor="middle" x="87" y="-62.6" font-family="Times,serif" font-size="14.00">AsmLoaderModule</text>
</g>
<!-- AsmRootModule -->
<g id="node2" class="node">
<title>AsmRootModule</title>
<polygon fill="#8dd3c7" stroke="black" points="249.73,-149.8 246.73,-153.8 225.73,-153.8 222.73,-149.8 136.27,-149.8 136.27,-113.8 249.73,-113.8 249.73,-149.8"/>
<text text-anchor="middle" x="193" y="-127.6" font-family="Times,serif" font-size="14.00">AsmRootModule</text>
</g>
<!-- AsmLoaderModule&#45;&gt;AsmRootModule -->
<g id="edge1" class="edge">
<title>AsmLoaderModule&#45;&gt;AsmRootModule</title>
<path fill="none" stroke="black" d="M143.1,-84.91C143.1,-84.91 143.1,-103.79 143.1,-103.79"/>
<polygon fill="black" stroke="black" points="139.6,-103.79 143.1,-113.79 146.6,-103.79 139.6,-103.79"/>
</g>
<!-- UserIdHttpHeaderInterceptor -->
<g id="node3" class="node">
<title>UserIdHttpHeaderInterceptor</title>
<ellipse fill="#fdb462" stroke="black" cx="299" cy="-66.8" rx="124.94" ry="18"/>
<text text-anchor="middle" x="299" y="-62.6" font-family="Times,serif" font-size="14.00">UserIdHttpHeaderInterceptor</text>
</g>
<!-- UserIdHttpHeaderInterceptor&#45;&gt;AsmRootModule -->
<g id="edge2" class="edge">
<title>UserIdHttpHeaderInterceptor&#45;&gt;AsmRootModule</title>
<path fill="none" stroke="black" d="M211.95,-79.95C211.95,-79.95 211.95,-103.49 211.95,-103.49"/>
<polygon fill="black" stroke="black" points="208.45,-103.49 211.95,-113.49 215.45,-103.49 208.45,-103.49"/>
</g>
</g>
</svg>
