<?xml version="1.0" encoding="UTF-8" standalone="no"?>
<!DOCTYPE svg PUBLIC "-//W3C//DTD SVG 1.1//EN"
 "http://www.w3.org/Graphics/SVG/1.1/DTD/svg11.dtd">
<!-- Generated by graphviz version 5.0.0 (20220707.1540)
 -->
<!-- Title: dependencies Pages: 1 -->
<svg width="558pt" height="247pt"
 viewBox="0.00 0.00 558.00 246.80" xmlns="http://www.w3.org/2000/svg" xmlns:xlink="http://www.w3.org/1999/xlink">
<g id="graph0" class="graph" transform="scale(1 1) rotate(0) translate(4 242.8)">
<title>dependencies</title>
<polygon fill="white" stroke="transparent" points="-4,4 -4,-242.8 554,-242.8 554,4 -4,4"/>
<text text-anchor="middle" x="275" y="-8.2" font-family="sans-serif" font-size="14.00">dependencies</text>
<g id="clust1" class="cluster">
<title>cluster_ConfigureCartEntryModule</title>
<polygon fill="none" stroke="black" stroke-dasharray="1,5" points="8,-32.8 8,-230.8 542,-230.8 542,-32.8 8,-32.8"/>
</g>
<g id="clust2" class="cluster">
<title>cluster_ConfigureCartEntryModule_declarations</title>
<polygon fill="none" stroke="black" points="324,-40.8 324,-92.8 534,-92.8 534,-40.8 324,-40.8"/>
</g>
<g id="clust4" class="cluster">
<title>cluster_ConfigureCartEntryModule_imports</title>
<polygon fill="none" stroke="black" points="16,-40.8 16,-92.8 316,-92.8 316,-40.8 16,-40.8"/>
</g>
<g id="clust5" class="cluster">
<title>cluster_ConfigureCartEntryModule_exports</title>
<polygon fill="none" stroke="black" points="107,-170.8 107,-222.8 319,-222.8 319,-170.8 107,-170.8"/>
</g>
<!-- ConfigureCartEntryComponent -->
<g id="node1" class="node">
<title>ConfigureCartEntryComponent</title>
<polygon fill="#ffffb3" stroke="black" points="525.8,-84.8 332.2,-84.8 332.2,-48.8 525.8,-48.8 525.8,-84.8"/>
<text text-anchor="middle" x="429" y="-62.6" font-family="Times,serif" font-size="14.00">ConfigureCartEntryComponent</text>
</g>
<!-- ConfigureCartEntryModule -->
<g id="node2" class="node">
<title>ConfigureCartEntryModule</title>
<polygon fill="#8dd3c7" stroke="black" points="298.53,-149.8 295.53,-153.8 274.53,-153.8 271.53,-149.8 127.47,-149.8 127.47,-113.8 298.53,-113.8 298.53,-149.8"/>
<text text-anchor="middle" x="213" y="-127.6" font-family="Times,serif" font-size="14.00">ConfigureCartEntryModule</text>
</g>
<!-- ConfigureCartEntryComponent&#45;&gt;ConfigureCartEntryModule -->
<g id="edge1" class="edge">
<title>ConfigureCartEntryComponent&#45;&gt;ConfigureCartEntryModule</title>
<path fill="none" stroke="black" d="M429,-84.91C429,-104.14 429,-131.8 429,-131.8 429,-131.8 308.68,-131.8 308.68,-131.8"/>
<polygon fill="black" stroke="black" points="308.68,-128.3 298.68,-131.8 308.68,-135.3 308.68,-128.3"/>
</g>
<!-- ConfigureCartEntryComponent  -->
<g id="node6" class="node">
<title>ConfigureCartEntryComponent </title>
<polygon fill="#fb8072" stroke="black" points="311.3,-214.8 114.7,-214.8 114.7,-178.8 311.3,-178.8 311.3,-214.8"/>
<text text-anchor="middle" x="213" y="-192.6" font-family="Times,serif" font-size="14.00">ConfigureCartEntryComponent </text>
</g>
<!-- ConfigureCartEntryModule&#45;&gt;ConfigureCartEntryComponent  -->
<g id="edge5" class="edge">
<title>ConfigureCartEntryModule&#45;&gt;ConfigureCartEntryComponent </title>
<path fill="none" stroke="black" stroke-dasharray="5,2" d="M213,-149.91C213,-149.91 213,-168.79 213,-168.79"/>
<polygon fill="black" stroke="black" points="209.5,-168.79 213,-178.79 216.5,-168.79 209.5,-168.79"/>
</g>
<!-- I18nModule -->
<g id="node3" class="node">
<title>I18nModule</title>
<polygon fill="#8dd3c7" stroke="black" points="307.71,-84.8 304.71,-88.8 283.71,-88.8 280.71,-84.8 222.29,-84.8 222.29,-48.8 307.71,-48.8 307.71,-84.8"/>
<text text-anchor="middle" x="265" y="-62.6" font-family="Times,serif" font-size="14.00">I18nModule</text>
</g>
<!-- I18nModule&#45;&gt;ConfigureCartEntryModule -->
<g id="edge2" class="edge">
<title>I18nModule&#45;&gt;ConfigureCartEntryModule</title>
<path fill="none" stroke="black" d="M260.58,-84.91C260.58,-84.91 260.58,-103.79 260.58,-103.79"/>
<polygon fill="black" stroke="black" points="257.08,-103.79 260.58,-113.79 264.08,-103.79 257.08,-103.79"/>
</g>
<!-- IconModule -->
<g id="node4" class="node">
<title>IconModule</title>
<polygon fill="#8dd3c7" stroke="black" points="204.43,-84.8 201.43,-88.8 180.43,-88.8 177.43,-84.8 119.57,-84.8 119.57,-48.8 204.43,-48.8 204.43,-84.8"/>
<text text-anchor="middle" x="162" y="-62.6" font-family="Times,serif" font-size="14.00">IconModule</text>
</g>
<!-- IconModule&#45;&gt;ConfigureCartEntryModule -->
<g id="edge3" class="edge">
<title>IconModule&#45;&gt;ConfigureCartEntryModule</title>
<path fill="none" stroke="black" d="M165.73,-84.91C165.73,-84.91 165.73,-103.79 165.73,-103.79"/>
<polygon fill="black" stroke="black" points="162.23,-103.79 165.73,-113.79 169.23,-103.79 162.23,-103.79"/>
</g>
<!-- UrlModule -->
<g id="node5" class="node">
<title>UrlModule</title>
<polygon fill="#8dd3c7" stroke="black" points="102.21,-84.8 99.21,-88.8 78.21,-88.8 75.21,-84.8 23.79,-84.8 23.79,-48.8 102.21,-48.8 102.21,-84.8"/>
<text text-anchor="middle" x="63" y="-62.6" font-family="Times,serif" font-size="14.00">UrlModule</text>
</g>
<!-- UrlModule&#45;&gt;ConfigureCartEntryModule -->
<g id="edge4" class="edge">
<title>UrlModule&#45;&gt;ConfigureCartEntryModule</title>
<path fill="none" stroke="black" d="M63,-84.91C63,-104.14 63,-131.8 63,-131.8 63,-131.8 117.05,-131.8 117.05,-131.8"/>
<polygon fill="black" stroke="black" points="117.05,-135.3 127.05,-131.8 117.05,-128.3 117.05,-135.3"/>
</g>
</g>
</svg>
