<?xml version="1.0" encoding="UTF-8" standalone="no"?>
<!DOCTYPE svg PUBLIC "-//W3C//DTD SVG 1.1//EN"
 "http://www.w3.org/Graphics/SVG/1.1/DTD/svg11.dtd">
<!-- Generated by graphviz version 5.0.0 (20220707.1540)
 -->
<!-- Title: dependencies Pages: 1 -->
<svg width="376pt" height="247pt"
 viewBox="0.00 0.00 376.00 246.80" xmlns="http://www.w3.org/2000/svg" xmlns:xlink="http://www.w3.org/1999/xlink">
<g id="graph0" class="graph" transform="scale(1 1) rotate(0) translate(4 242.8)">
<title>dependencies</title>
<polygon fill="white" stroke="transparent" points="-4,4 -4,-242.8 372,-242.8 372,4 -4,4"/>
<text text-anchor="middle" x="184" y="-8.2" font-family="sans-serif" font-size="14.00">dependencies</text>
<g id="clust1" class="cluster">
<title>cluster_PDFModule</title>
<polygon fill="none" stroke="black" stroke-dasharray="1,5" points="8,-32.8 8,-230.8 360,-230.8 360,-32.8 8,-32.8"/>
</g>
<g id="clust2" class="cluster">
<title>cluster_PDFModule_declarations</title>
<polygon fill="none" stroke="black" points="228,-40.8 228,-92.8 352,-92.8 352,-40.8 228,-40.8"/>
</g>
<g id="clust4" class="cluster">
<title>cluster_PDFModule_imports</title>
<polygon fill="none" stroke="black" points="16,-40.8 16,-92.8 220,-92.8 220,-40.8 16,-40.8"/>
</g>
<g id="clust5" class="cluster">
<title>cluster_PDFModule_exports</title>
<polygon fill="none" stroke="black" points="106,-170.8 106,-222.8 232,-222.8 232,-170.8 106,-170.8"/>
</g>
<!-- PDFComponent -->
<g id="node1" class="node">
<title>PDFComponent</title>
<polygon fill="#ffffb3" stroke="black" points="343.51,-84.8 236.49,-84.8 236.49,-48.8 343.51,-48.8 343.51,-84.8"/>
<text text-anchor="middle" x="290" y="-62.6" font-family="Times,serif" font-size="14.00">PDFComponent</text>
</g>
<!-- PDFModule -->
<g id="node2" class="node">
<title>PDFModule</title>
<polygon fill="#8dd3c7" stroke="black" points="211.73,-149.8 208.73,-153.8 187.73,-153.8 184.73,-149.8 126.27,-149.8 126.27,-113.8 211.73,-113.8 211.73,-149.8"/>
<text text-anchor="middle" x="169" y="-127.6" font-family="Times,serif" font-size="14.00">PDFModule</text>
</g>
<!-- PDFComponent&#45;&gt;PDFModule -->
<g id="edge1" class="edge">
<title>PDFComponent&#45;&gt;PDFModule</title>
<path fill="none" stroke="black" d="M290,-84.91C290,-104.14 290,-131.8 290,-131.8 290,-131.8 221.66,-131.8 221.66,-131.8"/>
<polygon fill="black" stroke="black" points="221.66,-128.3 211.66,-131.8 221.66,-135.3 221.66,-128.3"/>
</g>
<!-- PDFComponent  -->
<g id="node5" class="node">
<title>PDFComponent </title>
<polygon fill="#fb8072" stroke="black" points="224.01,-214.8 113.99,-214.8 113.99,-178.8 224.01,-178.8 224.01,-214.8"/>
<text text-anchor="middle" x="169" y="-192.6" font-family="Times,serif" font-size="14.00">PDFComponent </text>
</g>
<!-- PDFModule&#45;&gt;PDFComponent  -->
<g id="edge4" class="edge">
<title>PDFModule&#45;&gt;PDFComponent </title>
<path fill="none" stroke="black" stroke-dasharray="5,2" d="M169,-149.91C169,-149.91 169,-168.79 169,-168.79"/>
<polygon fill="black" stroke="black" points="165.5,-168.79 169,-178.79 172.5,-168.79 165.5,-168.79"/>
</g>
<!-- I18nModule -->
<g id="node3" class="node">
<title>I18nModule</title>
<polygon fill="#8dd3c7" stroke="black" points="211.71,-84.8 208.71,-88.8 187.71,-88.8 184.71,-84.8 126.29,-84.8 126.29,-48.8 211.71,-48.8 211.71,-84.8"/>
<text text-anchor="middle" x="169" y="-62.6" font-family="Times,serif" font-size="14.00">I18nModule</text>
</g>
<!-- I18nModule&#45;&gt;PDFModule -->
<g id="edge2" class="edge">
<title>I18nModule&#45;&gt;PDFModule</title>
<path fill="none" stroke="black" d="M169,-84.91C169,-84.91 169,-103.79 169,-103.79"/>
<polygon fill="black" stroke="black" points="165.5,-103.79 169,-113.79 172.5,-103.79 165.5,-103.79"/>
</g>
<!-- IconModule -->
<g id="node4" class="node">
<title>IconModule</title>
<polygon fill="#8dd3c7" stroke="black" points="108.43,-84.8 105.43,-88.8 84.43,-88.8 81.43,-84.8 23.57,-84.8 23.57,-48.8 108.43,-48.8 108.43,-84.8"/>
<text text-anchor="middle" x="66" y="-62.6" font-family="Times,serif" font-size="14.00">IconModule</text>
</g>
<!-- IconModule&#45;&gt;PDFModule -->
<g id="edge3" class="edge">
<title>IconModule&#45;&gt;PDFModule</title>
<path fill="none" stroke="black" d="M66,-84.91C66,-104.14 66,-131.8 66,-131.8 66,-131.8 116.21,-131.8 116.21,-131.8"/>
<polygon fill="black" stroke="black" points="116.21,-135.3 126.21,-131.8 116.21,-128.3 116.21,-135.3"/>
</g>
</g>
</svg>
