<?xml version="1.0" encoding="UTF-8" standalone="no"?>
<!DOCTYPE svg PUBLIC "-//W3C//DTD SVG 1.1//EN"
 "http://www.w3.org/Graphics/SVG/1.1/DTD/svg11.dtd">
<!-- Generated by graphviz version 5.0.0 (20220707.1540)
 -->
<!-- Title: dependencies Pages: 1 -->
<svg width="376pt" height="247pt"
 viewBox="0.00 0.00 376.00 246.80" xmlns="http://www.w3.org/2000/svg" xmlns:xlink="http://www.w3.org/1999/xlink">
<g id="graph0" class="graph" transform="scale(1 1) rotate(0) translate(4 242.8)">
<title>dependencies</title>
<polygon fill="white" stroke="transparent" points="-4,4 -4,-242.8 372,-242.8 372,4 -4,4"/>
<text text-anchor="middle" x="184" y="-8.2" font-family="sans-serif" font-size="14.00">dependencies</text>
<g id="clust1" class="cluster">
<title>cluster_PDFModule</title>
<polygon fill="none" stroke="black" stroke-dasharray="1,5" points="8,-32.8 8,-230.8 360,-230.8 360,-32.8 8,-32.8"/>
</g>
<g id="clust5" class="cluster">
<title>cluster_PDFModule_exports</title>
<polygon fill="none" stroke="black" points="135,-170.8 135,-222.8 261,-222.8 261,-170.8 135,-170.8"/>
</g>
<g id="clust4" class="cluster">
<title>cluster_PDFModule_imports</title>
<polygon fill="none" stroke="black" points="148,-40.8 148,-92.8 352,-92.8 352,-40.8 148,-40.8"/>
</g>
<g id="clust2" class="cluster">
<title>cluster_PDFModule_declarations</title>
<polygon fill="none" stroke="black" points="16,-40.8 16,-92.8 140,-92.8 140,-40.8 16,-40.8"/>
</g>
<!-- PDFComponent -->
<g id="node1" class="node">
<title>PDFComponent</title>
<polygon fill="#ffffb3" stroke="black" points="131.51,-84.8 24.49,-84.8 24.49,-48.8 131.51,-48.8 131.51,-84.8"/>
<text text-anchor="middle" x="78" y="-62.6" font-family="Times,serif" font-size="14.00">PDFComponent</text>
</g>
<!-- PDFModule -->
<g id="node2" class="node">
<title>PDFModule</title>
<polygon fill="#8dd3c7" stroke="black" points="240.73,-149.8 237.73,-153.8 216.73,-153.8 213.73,-149.8 155.27,-149.8 155.27,-113.8 240.73,-113.8 240.73,-149.8"/>
<text text-anchor="middle" x="198" y="-127.6" font-family="Times,serif" font-size="14.00">PDFModule</text>
</g>
<!-- PDFComponent&#45;&gt;PDFModule -->
<g id="edge1" class="edge">
<title>PDFComponent&#45;&gt;PDFModule</title>
<path fill="none" stroke="black" d="M78,-84.91C78,-104.14 78,-131.8 78,-131.8 78,-131.8 145.35,-131.8 145.35,-131.8"/>
<polygon fill="black" stroke="black" points="145.35,-135.3 155.35,-131.8 145.35,-128.3 145.35,-135.3"/>
</g>
<!-- PDFComponent  -->
<g id="node5" class="node">
<title>PDFComponent </title>
<polygon fill="#fb8072" stroke="black" points="253.01,-214.8 142.99,-214.8 142.99,-178.8 253.01,-178.8 253.01,-214.8"/>
<text text-anchor="middle" x="198" y="-192.6" font-family="Times,serif" font-size="14.00">PDFComponent </text>
</g>
<!-- PDFModule&#45;&gt;PDFComponent  -->
<g id="edge4" class="edge">
<title>PDFModule&#45;&gt;PDFComponent </title>
<path fill="none" stroke="black" stroke-dasharray="5,2" d="M198,-149.91C198,-149.91 198,-168.79 198,-168.79"/>
<polygon fill="black" stroke="black" points="194.5,-168.79 198,-178.79 201.5,-168.79 194.5,-168.79"/>
</g>
<!-- I18nModule -->
<g id="node3" class="node">
<title>I18nModule</title>
<polygon fill="#8dd3c7" stroke="black" points="343.71,-84.8 340.71,-88.8 319.71,-88.8 316.71,-84.8 258.29,-84.8 258.29,-48.8 343.71,-48.8 343.71,-84.8"/>
<text text-anchor="middle" x="301" y="-62.6" font-family="Times,serif" font-size="14.00">I18nModule</text>
</g>
<!-- I18nModule&#45;&gt;PDFModule -->
<g id="edge2" class="edge">
<title>I18nModule&#45;&gt;PDFModule</title>
<path fill="none" stroke="black" d="M301,-84.91C301,-104.14 301,-131.8 301,-131.8 301,-131.8 250.79,-131.8 250.79,-131.8"/>
<polygon fill="black" stroke="black" points="250.79,-128.3 240.79,-131.8 250.79,-135.3 250.79,-128.3"/>
</g>
<!-- IconModule -->
<g id="node4" class="node">
<title>IconModule</title>
<polygon fill="#8dd3c7" stroke="black" points="240.43,-84.8 237.43,-88.8 216.43,-88.8 213.43,-84.8 155.57,-84.8 155.57,-48.8 240.43,-48.8 240.43,-84.8"/>
<text text-anchor="middle" x="198" y="-62.6" font-family="Times,serif" font-size="14.00">IconModule</text>
</g>
<!-- IconModule&#45;&gt;PDFModule -->
<g id="edge3" class="edge">
<title>IconModule&#45;&gt;PDFModule</title>
<path fill="none" stroke="black" d="M198,-84.91C198,-84.91 198,-103.79 198,-103.79"/>
<polygon fill="black" stroke="black" points="194.5,-103.79 198,-113.79 201.5,-103.79 194.5,-103.79"/>
</g>
</g>
</svg>
