<?xml version="1.0" encoding="UTF-8" standalone="no"?>
<!DOCTYPE svg PUBLIC "-//W3C//DTD SVG 1.1//EN"
 "http://www.w3.org/Graphics/SVG/1.1/DTD/svg11.dtd">
<!-- Generated by graphviz version 5.0.0 (20220707.1540)
 -->
<!-- Title: dependencies Pages: 1 -->
<svg width="372pt" height="174pt"
 viewBox="0.00 0.00 372.00 173.80" xmlns="http://www.w3.org/2000/svg" xmlns:xlink="http://www.w3.org/1999/xlink">
<g id="graph0" class="graph" transform="scale(1 1) rotate(0) translate(4 169.8)">
<title>dependencies</title>
<polygon fill="white" stroke="transparent" points="-4,4 -4,-169.8 368,-169.8 368,4 -4,4"/>
<text text-anchor="middle" x="182" y="-8.2" font-family="sans-serif" font-size="14.00">dependencies</text>
<g id="clust1" class="cluster">
<title>cluster_EpdVisualizationComponentsModule</title>
<polygon fill="none" stroke="black" stroke-dasharray="1,5" points="8,-32.8 8,-157.8 356,-157.8 356,-32.8 8,-32.8"/>
</g>
<g id="clust3" class="cluster">
<title>cluster_EpdVisualizationComponentsModule_imports</title>
<polygon fill="none" stroke="black" points="16,-40.8 16,-92.8 348,-92.8 348,-40.8 16,-40.8"/>
</g>
<!-- VisualPickingTabModule -->
<g id="node1" class="node">
<title>VisualPickingTabModule</title>
<polygon fill="#8dd3c7" stroke="black" points="340.15,-84.8 337.15,-88.8 316.15,-88.8 313.15,-84.8 179.85,-84.8 179.85,-48.8 340.15,-48.8 340.15,-84.8"/>
<text text-anchor="middle" x="260" y="-62.6" font-family="Times,serif" font-size="14.00">VisualPickingTabModule</text>
</g>
<!-- EpdVisualizationComponentsModule -->
<g id="node3" class="node">
<title>EpdVisualizationComponentsModule</title>
<polygon fill="#8dd3c7" stroke="black" points="295.53,-149.8 292.53,-153.8 271.53,-153.8 268.53,-149.8 68.47,-149.8 68.47,-113.8 295.53,-113.8 295.53,-149.8"/>
<text text-anchor="middle" x="182" y="-127.6" font-family="Times,serif" font-size="14.00">EpdVisualizationComponentsModule</text>
</g>
<!-- VisualPickingTabModule&#45;&gt;EpdVisualizationComponentsModule -->
<g id="edge1" class="edge">
<title>VisualPickingTabModule&#45;&gt;EpdVisualizationComponentsModule</title>
<path fill="none" stroke="black" d="M237.72,-84.91C237.72,-84.91 237.72,-103.79 237.72,-103.79"/>
<polygon fill="black" stroke="black" points="234.22,-103.79 237.72,-113.79 241.22,-103.79 234.22,-103.79"/>
</g>
<!-- VisualViewerModule -->
<g id="node2" class="node">
<title>VisualViewerModule</title>
<polygon fill="#8dd3c7" stroke="black" points="161.8,-84.8 158.8,-88.8 137.8,-88.8 134.8,-84.8 24.2,-84.8 24.2,-48.8 161.8,-48.8 161.8,-84.8"/>
<text text-anchor="middle" x="93" y="-62.6" font-family="Times,serif" font-size="14.00">VisualViewerModule</text>
</g>
<!-- VisualViewerModule&#45;&gt;EpdVisualizationComponentsModule -->
<g id="edge2" class="edge">
<title>VisualViewerModule&#45;&gt;EpdVisualizationComponentsModule</title>
<path fill="none" stroke="black" d="M114.94,-84.91C114.94,-84.91 114.94,-103.79 114.94,-103.79"/>
<polygon fill="black" stroke="black" points="111.44,-103.79 114.94,-113.79 118.44,-103.79 111.44,-103.79"/>
</g>
</g>
</svg>
