<?xml version="1.0" encoding="UTF-8" standalone="no"?>
<!DOCTYPE svg PUBLIC "-//W3C//DTD SVG 1.1//EN"
 "http://www.w3.org/Graphics/SVG/1.1/DTD/svg11.dtd">
<!-- Generated by graphviz version 5.0.0 (20220707.1540)
 -->
<!-- Title: dependencies Pages: 1 -->
<svg width="801pt" height="247pt"
 viewBox="0.00 0.00 801.00 246.80" xmlns="http://www.w3.org/2000/svg" xmlns:xlink="http://www.w3.org/1999/xlink">
<g id="graph0" class="graph" transform="scale(1 1) rotate(0) translate(4 242.8)">
<title>dependencies</title>
<polygon fill="white" stroke="transparent" points="-4,4 -4,-242.8 797,-242.8 797,4 -4,4"/>
<text text-anchor="middle" x="396.5" y="-8.2" font-family="sans-serif" font-size="14.00">dependencies</text>
<g id="clust1" class="cluster">
<title>cluster_B2BCheckoutDeliveryAddressModule</title>
<polygon fill="none" stroke="black" stroke-dasharray="1,5" points="8,-32.8 8,-230.8 785,-230.8 785,-32.8 8,-32.8"/>
</g>
<g id="clust5" class="cluster">
<title>cluster_B2BCheckoutDeliveryAddressModule_exports</title>
<polygon fill="none" stroke="black" points="330,-170.8 330,-222.8 606,-222.8 606,-170.8 330,-170.8"/>
</g>
<g id="clust4" class="cluster">
<title>cluster_B2BCheckoutDeliveryAddressModule_imports</title>
<polygon fill="none" stroke="black" points="296,-40.8 296,-92.8 777,-92.8 777,-40.8 296,-40.8"/>
</g>
<g id="clust2" class="cluster">
<title>cluster_B2BCheckoutDeliveryAddressModule_declarations</title>
<polygon fill="none" stroke="black" points="16,-40.8 16,-92.8 288,-92.8 288,-40.8 16,-40.8"/>
</g>
<!-- B2BCheckoutDeliveryAddressComponent -->
<g id="node1" class="node">
<title>B2BCheckoutDeliveryAddressComponent</title>
<polygon fill="#ffffb3" stroke="black" points="279.52,-84.8 24.48,-84.8 24.48,-48.8 279.52,-48.8 279.52,-84.8"/>
<text text-anchor="middle" x="152" y="-62.6" font-family="Times,serif" font-size="14.00">B2BCheckoutDeliveryAddressComponent</text>
</g>
<!-- B2BCheckoutDeliveryAddressModule -->
<g id="node2" class="node">
<title>B2BCheckoutDeliveryAddressModule</title>
<polygon fill="#8dd3c7" stroke="black" points="584.75,-149.8 581.75,-153.8 560.75,-153.8 557.75,-149.8 351.25,-149.8 351.25,-113.8 584.75,-113.8 584.75,-149.8"/>
<text text-anchor="middle" x="468" y="-127.6" font-family="Times,serif" font-size="14.00">B2BCheckoutDeliveryAddressModule</text>
</g>
<!-- B2BCheckoutDeliveryAddressComponent&#45;&gt;B2BCheckoutDeliveryAddressModule -->
<g id="edge1" class="edge">
<title>B2BCheckoutDeliveryAddressComponent&#45;&gt;B2BCheckoutDeliveryAddressModule</title>
<path fill="none" stroke="black" d="M152,-84.91C152,-104.14 152,-131.8 152,-131.8 152,-131.8 341.23,-131.8 341.23,-131.8"/>
<polygon fill="black" stroke="black" points="341.23,-135.3 351.23,-131.8 341.23,-128.3 341.23,-135.3"/>
</g>
<!-- B2BCheckoutDeliveryAddressComponent  -->
<g id="node7" class="node">
<title>B2BCheckoutDeliveryAddressComponent </title>
<polygon fill="#fb8072" stroke="black" points="597.52,-214.8 338.48,-214.8 338.48,-178.8 597.52,-178.8 597.52,-214.8"/>
<text text-anchor="middle" x="468" y="-192.6" font-family="Times,serif" font-size="14.00">B2BCheckoutDeliveryAddressComponent </text>
</g>
<!-- B2BCheckoutDeliveryAddressModule&#45;&gt;B2BCheckoutDeliveryAddressComponent  -->
<g id="edge6" class="edge">
<title>B2BCheckoutDeliveryAddressModule&#45;&gt;B2BCheckoutDeliveryAddressComponent </title>
<path fill="none" stroke="black" stroke-dasharray="5,2" d="M468,-149.91C468,-149.91 468,-168.79 468,-168.79"/>
<polygon fill="black" stroke="black" points="464.5,-168.79 468,-178.79 471.5,-168.79 464.5,-168.79"/>
</g>
<!-- AddressFormModule -->
<g id="node3" class="node">
<title>AddressFormModule</title>
<polygon fill="#8dd3c7" stroke="black" points="768.77,-84.8 765.77,-88.8 744.77,-88.8 741.77,-84.8 633.23,-84.8 633.23,-48.8 768.77,-48.8 768.77,-84.8"/>
<text text-anchor="middle" x="701" y="-62.6" font-family="Times,serif" font-size="14.00">AddressFormModule</text>
</g>
<!-- AddressFormModule&#45;&gt;B2BCheckoutDeliveryAddressModule -->
<g id="edge2" class="edge">
<title>AddressFormModule&#45;&gt;B2BCheckoutDeliveryAddressModule</title>
<path fill="none" stroke="black" d="M701,-84.91C701,-104.14 701,-131.8 701,-131.8 701,-131.8 594.84,-131.8 594.84,-131.8"/>
<polygon fill="black" stroke="black" points="594.84,-128.3 584.84,-131.8 594.84,-135.3 594.84,-128.3"/>
</g>
<!-- CardModule -->
<g id="node4" class="node">
<title>CardModule</title>
<polygon fill="#8dd3c7" stroke="black" points="615.27,-84.8 612.27,-88.8 591.27,-88.8 588.27,-84.8 528.73,-84.8 528.73,-48.8 615.27,-48.8 615.27,-84.8"/>
<text text-anchor="middle" x="572" y="-62.6" font-family="Times,serif" font-size="14.00">CardModule</text>
</g>
<!-- CardModule&#45;&gt;B2BCheckoutDeliveryAddressModule -->
<g id="edge3" class="edge">
<title>CardModule&#45;&gt;B2BCheckoutDeliveryAddressModule</title>
<path fill="none" stroke="black" d="M556.74,-84.91C556.74,-84.91 556.74,-103.79 556.74,-103.79"/>
<polygon fill="black" stroke="black" points="553.24,-103.79 556.74,-113.79 560.24,-103.79 553.24,-103.79"/>
</g>
<!-- I18nModule -->
<g id="node5" class="node">
<title>I18nModule</title>
<polygon fill="#8dd3c7" stroke="black" points="510.71,-84.8 507.71,-88.8 486.71,-88.8 483.71,-84.8 425.29,-84.8 425.29,-48.8 510.71,-48.8 510.71,-84.8"/>
<text text-anchor="middle" x="468" y="-62.6" font-family="Times,serif" font-size="14.00">I18nModule</text>
</g>
<!-- I18nModule&#45;&gt;B2BCheckoutDeliveryAddressModule -->
<g id="edge4" class="edge">
<title>I18nModule&#45;&gt;B2BCheckoutDeliveryAddressModule</title>
<path fill="none" stroke="black" d="M468,-84.91C468,-84.91 468,-103.79 468,-103.79"/>
<polygon fill="black" stroke="black" points="464.5,-103.79 468,-113.79 471.5,-103.79 464.5,-103.79"/>
</g>
<!-- SpinnerModule -->
<g id="node6" class="node">
<title>SpinnerModule</title>
<polygon fill="#8dd3c7" stroke="black" points="407.6,-84.8 404.6,-88.8 383.6,-88.8 380.6,-84.8 304.4,-84.8 304.4,-48.8 407.6,-48.8 407.6,-84.8"/>
<text text-anchor="middle" x="356" y="-62.6" font-family="Times,serif" font-size="14.00">SpinnerModule</text>
</g>
<!-- SpinnerModule&#45;&gt;B2BCheckoutDeliveryAddressModule -->
<g id="edge5" class="edge">
<title>SpinnerModule&#45;&gt;B2BCheckoutDeliveryAddressModule</title>
<path fill="none" stroke="black" d="M379.34,-84.91C379.34,-84.91 379.34,-103.79 379.34,-103.79"/>
<polygon fill="black" stroke="black" points="375.84,-103.79 379.34,-113.79 382.84,-103.79 375.84,-103.79"/>
</g>
</g>
</svg>
