<?xml version="1.0" encoding="UTF-8" standalone="no"?>
<!DOCTYPE svg PUBLIC "-//W3C//DTD SVG 1.1//EN"
 "http://www.w3.org/Graphics/SVG/1.1/DTD/svg11.dtd">
<!-- Generated by graphviz version 5.0.0 (20220707.1540)
 -->
<!-- Title: dependencies Pages: 1 -->
<svg width="1340pt" height="312pt"
 viewBox="0.00 0.00 1340.00 311.80" xmlns="http://www.w3.org/2000/svg" xmlns:xlink="http://www.w3.org/1999/xlink">
<g id="graph0" class="graph" transform="scale(1 1) rotate(0) translate(4 307.8)">
<title>dependencies</title>
<polygon fill="white" stroke="transparent" points="-4,4 -4,-307.8 1336,-307.8 1336,4 -4,4"/>
<text text-anchor="middle" x="666" y="-8.2" font-family="sans-serif" font-size="14.00">dependencies</text>
<g id="clust1" class="cluster">
<title>cluster_VisualPickingProductListModule</title>
<polygon fill="none" stroke="black" stroke-dasharray="1,5" points="8,-32.8 8,-295.8 1324,-295.8 1324,-32.8 8,-32.8"/>
</g>
<g id="clust2" class="cluster">
<title>cluster_VisualPickingProductListModule_declarations</title>
<polygon fill="none" stroke="black" points="16,-105.8 16,-157.8 258,-157.8 258,-105.8 16,-105.8"/>
</g>
<g id="clust4" class="cluster">
<title>cluster_VisualPickingProductListModule_imports</title>
<polygon fill="none" stroke="black" points="266,-105.8 266,-157.8 1316,-157.8 1316,-105.8 266,-105.8"/>
</g>
<g id="clust3" class="cluster">
<title>cluster_VisualPickingProductListModule_VisualPickingProductListComponent_providers</title>
<polygon fill="none" stroke="black" points="16,-40.8 16,-92.8 312,-92.8 312,-40.8 16,-40.8"/>
</g>
<g id="clust5" class="cluster">
<title>cluster_VisualPickingProductListModule_exports</title>
<polygon fill="none" stroke="black" points="611,-235.8 611,-287.8 857,-287.8 857,-235.8 611,-235.8"/>
</g>
<!-- VisualPickingProductListComponent -->
<g id="node1" class="node">
<title>VisualPickingProductListComponent</title>
<polygon fill="#ffffb3" stroke="black" points="249.99,-149.8 24.01,-149.8 24.01,-113.8 249.99,-113.8 249.99,-149.8"/>
<text text-anchor="middle" x="137" y="-127.6" font-family="Times,serif" font-size="14.00">VisualPickingProductListComponent</text>
</g>
<!-- VisualPickingProductListModule -->
<g id="node2" class="node">
<title>VisualPickingProductListModule</title>
<polygon fill="#8dd3c7" stroke="black" points="836.21,-214.8 833.21,-218.8 812.21,-218.8 809.21,-214.8 631.79,-214.8 631.79,-178.8 836.21,-178.8 836.21,-214.8"/>
<text text-anchor="middle" x="734" y="-192.6" font-family="Times,serif" font-size="14.00">VisualPickingProductListModule</text>
</g>
<!-- VisualPickingProductListComponent&#45;&gt;VisualPickingProductListModule -->
<g id="edge1" class="edge">
<title>VisualPickingProductListComponent&#45;&gt;VisualPickingProductListModule</title>
<path fill="none" stroke="black" d="M137,-150.09C137,-172.01 137,-205.8 137,-205.8 137,-205.8 621.71,-205.8 621.71,-205.8"/>
<polygon fill="black" stroke="black" points="621.71,-209.3 631.71,-205.8 621.71,-202.3 621.71,-209.3"/>
</g>
<!-- VisualPickingProductListComponent  -->
<g id="node12" class="node">
<title>VisualPickingProductListComponent </title>
<polygon fill="#fb8072" stroke="black" points="848.99,-279.8 619.01,-279.8 619.01,-243.8 848.99,-243.8 848.99,-279.8"/>
<text text-anchor="middle" x="734" y="-257.6" font-family="Times,serif" font-size="14.00">VisualPickingProductListComponent </text>
</g>
<!-- VisualPickingProductListModule&#45;&gt;VisualPickingProductListComponent  -->
<g id="edge11" class="edge">
<title>VisualPickingProductListModule&#45;&gt;VisualPickingProductListComponent </title>
<path fill="none" stroke="black" stroke-dasharray="5,2" d="M734,-214.91C734,-214.91 734,-233.79 734,-233.79"/>
<polygon fill="black" stroke="black" points="730.5,-233.79 734,-243.79 737.5,-233.79 730.5,-233.79"/>
</g>
<!-- VisualPickingProductListService -->
<g id="node3" class="node">
<title>VisualPickingProductListService</title>
<ellipse fill="#fdb462" stroke="black" cx="164" cy="-66.8" rx="139.56" ry="18"/>
<text text-anchor="middle" x="164" y="-62.6" font-family="Times,serif" font-size="14.00">VisualPickingProductListService</text>
</g>
<!-- VisualPickingProductListService&#45;&gt;VisualPickingProductListComponent -->
<g id="edge2" class="edge">
<title>VisualPickingProductListService&#45;&gt;VisualPickingProductListComponent</title>
<path fill="none" stroke="black" d="M137.11,-84.56C137.11,-84.56 137.11,-103.61 137.11,-103.61"/>
<polygon fill="black" stroke="black" points="133.61,-103.61 137.11,-113.61 140.61,-103.61 133.61,-103.61"/>
</g>
<!-- CarouselModule -->
<g id="node4" class="node">
<title>CarouselModule</title>
<polygon fill="#8dd3c7" stroke="black" points="1307.82,-149.8 1304.82,-153.8 1283.82,-153.8 1280.82,-149.8 1198.18,-149.8 1198.18,-113.8 1307.82,-113.8 1307.82,-149.8"/>
<text text-anchor="middle" x="1253" y="-127.6" font-family="Times,serif" font-size="14.00">CarouselModule</text>
</g>
<!-- CarouselModule&#45;&gt;VisualPickingProductListModule -->
<g id="edge3" class="edge">
<title>CarouselModule&#45;&gt;VisualPickingProductListModule</title>
<path fill="none" stroke="black" d="M1253,-150.09C1253,-172.01 1253,-205.8 1253,-205.8 1253,-205.8 846.23,-205.8 846.23,-205.8"/>
<polygon fill="black" stroke="black" points="846.23,-202.3 836.23,-205.8 846.23,-209.3 846.23,-202.3"/>
</g>
<!-- CompactAddToCartModule -->
<g id="node5" class="node">
<title>CompactAddToCartModule</title>
<polygon fill="#8dd3c7" stroke="black" points="1179.86,-149.8 1176.86,-153.8 1155.86,-153.8 1152.86,-149.8 1006.14,-149.8 1006.14,-113.8 1179.86,-113.8 1179.86,-149.8"/>
<text text-anchor="middle" x="1093" y="-127.6" font-family="Times,serif" font-size="14.00">CompactAddToCartModule</text>
</g>
<!-- CompactAddToCartModule&#45;&gt;VisualPickingProductListModule -->
<g id="edge4" class="edge">
<title>CompactAddToCartModule&#45;&gt;VisualPickingProductListModule</title>
<path fill="none" stroke="black" d="M1093,-149.91C1093,-169.14 1093,-196.8 1093,-196.8 1093,-196.8 846.39,-196.8 846.39,-196.8"/>
<polygon fill="black" stroke="black" points="846.39,-193.3 836.39,-196.8 846.39,-200.3 846.39,-193.3"/>
</g>
<!-- I18nModule -->
<g id="node6" class="node">
<title>I18nModule</title>
<polygon fill="#8dd3c7" stroke="black" points="987.71,-149.8 984.71,-153.8 963.71,-153.8 960.71,-149.8 902.29,-149.8 902.29,-113.8 987.71,-113.8 987.71,-149.8"/>
<text text-anchor="middle" x="945" y="-127.6" font-family="Times,serif" font-size="14.00">I18nModule</text>
</g>
<!-- I18nModule&#45;&gt;VisualPickingProductListModule -->
<g id="edge5" class="edge">
<title>I18nModule&#45;&gt;VisualPickingProductListModule</title>
<path fill="none" stroke="black" d="M945,-149.83C945,-166.2 945,-187.8 945,-187.8 945,-187.8 846.41,-187.8 846.41,-187.8"/>
<polygon fill="black" stroke="black" points="846.41,-184.3 836.41,-187.8 846.41,-191.3 846.41,-184.3"/>
</g>
<!-- IconModule -->
<g id="node7" class="node">
<title>IconModule</title>
<polygon fill="#8dd3c7" stroke="black" points="884.43,-149.8 881.43,-153.8 860.43,-153.8 857.43,-149.8 799.57,-149.8 799.57,-113.8 884.43,-113.8 884.43,-149.8"/>
<text text-anchor="middle" x="842" y="-127.6" font-family="Times,serif" font-size="14.00">IconModule</text>
</g>
<!-- IconModule&#45;&gt;VisualPickingProductListModule -->
<g id="edge6" class="edge">
<title>IconModule&#45;&gt;VisualPickingProductListModule</title>
<path fill="none" stroke="black" d="M817.95,-149.91C817.95,-149.91 817.95,-168.79 817.95,-168.79"/>
<polygon fill="black" stroke="black" points="814.45,-168.79 817.95,-178.79 821.45,-168.79 814.45,-168.79"/>
</g>
<!-- MediaModule -->
<g id="node8" class="node">
<title>MediaModule</title>
<polygon fill="#8dd3c7" stroke="black" points="781.82,-149.8 778.82,-153.8 757.82,-153.8 754.82,-149.8 686.18,-149.8 686.18,-113.8 781.82,-113.8 781.82,-149.8"/>
<text text-anchor="middle" x="734" y="-127.6" font-family="Times,serif" font-size="14.00">MediaModule</text>
</g>
<!-- MediaModule&#45;&gt;VisualPickingProductListModule -->
<g id="edge7" class="edge">
<title>MediaModule&#45;&gt;VisualPickingProductListModule</title>
<path fill="none" stroke="black" d="M734,-149.91C734,-149.91 734,-168.79 734,-168.79"/>
<polygon fill="black" stroke="black" points="730.5,-168.79 734,-178.79 737.5,-168.79 730.5,-168.79"/>
</g>
<!-- PagedListModule -->
<g id="node9" class="node">
<title>PagedListModule</title>
<polygon fill="#8dd3c7" stroke="black" points="668.55,-149.8 665.55,-153.8 644.55,-153.8 641.55,-149.8 553.45,-149.8 553.45,-113.8 668.55,-113.8 668.55,-149.8"/>
<text text-anchor="middle" x="611" y="-127.6" font-family="Times,serif" font-size="14.00">PagedListModule</text>
</g>
<!-- PagedListModule&#45;&gt;VisualPickingProductListModule -->
<g id="edge8" class="edge">
<title>PagedListModule&#45;&gt;VisualPickingProductListModule</title>
<path fill="none" stroke="black" d="M650.33,-149.91C650.33,-149.91 650.33,-168.79 650.33,-168.79"/>
<polygon fill="black" stroke="black" points="646.83,-168.79 650.33,-178.79 653.83,-168.79 646.83,-168.79"/>
</g>
<!-- ProductReferencesModule -->
<g id="node10" class="node">
<title>ProductReferencesModule</title>
<polygon fill="#8dd3c7" stroke="black" points="535.78,-149.8 532.78,-153.8 511.78,-153.8 508.78,-149.8 370.22,-149.8 370.22,-113.8 535.78,-113.8 535.78,-149.8"/>
<text text-anchor="middle" x="453" y="-127.6" font-family="Times,serif" font-size="14.00">ProductReferencesModule</text>
</g>
<!-- ProductReferencesModule&#45;&gt;VisualPickingProductListModule -->
<g id="edge9" class="edge">
<title>ProductReferencesModule&#45;&gt;VisualPickingProductListModule</title>
<path fill="none" stroke="black" d="M453,-149.83C453,-166.2 453,-187.8 453,-187.8 453,-187.8 621.76,-187.8 621.76,-187.8"/>
<polygon fill="black" stroke="black" points="621.76,-191.3 631.76,-187.8 621.76,-184.3 621.76,-191.3"/>
</g>
<!-- UrlModule -->
<g id="node11" class="node">
<title>UrlModule</title>
<polygon fill="#8dd3c7" stroke="black" points="352.21,-149.8 349.21,-153.8 328.21,-153.8 325.21,-149.8 273.79,-149.8 273.79,-113.8 352.21,-113.8 352.21,-149.8"/>
<text text-anchor="middle" x="313" y="-127.6" font-family="Times,serif" font-size="14.00">UrlModule</text>
</g>
<!-- UrlModule&#45;&gt;VisualPickingProductListModule -->
<g id="edge10" class="edge">
<title>UrlModule&#45;&gt;VisualPickingProductListModule</title>
<path fill="none" stroke="black" d="M313,-149.91C313,-169.14 313,-196.8 313,-196.8 313,-196.8 621.82,-196.8 621.82,-196.8"/>
<polygon fill="black" stroke="black" points="621.82,-200.3 631.82,-196.8 621.82,-193.3 621.82,-200.3"/>
</g>
</g>
</svg>
