<?xml version="1.0" encoding="UTF-8" standalone="no"?>
<!DOCTYPE svg PUBLIC "-//W3C//DTD SVG 1.1//EN"
 "http://www.w3.org/Graphics/SVG/1.1/DTD/svg11.dtd">
<!-- Generated by graphviz version 5.0.0 (20220707.1540)
 -->
<!-- Title: dependencies Pages: 1 -->
<svg width="1340pt" height="312pt"
 viewBox="0.00 0.00 1340.00 311.80" xmlns="http://www.w3.org/2000/svg" xmlns:xlink="http://www.w3.org/1999/xlink">
<g id="graph0" class="graph" transform="scale(1 1) rotate(0) translate(4 307.8)">
<title>dependencies</title>
<polygon fill="white" stroke="transparent" points="-4,4 -4,-307.8 1336,-307.8 1336,4 -4,4"/>
<text text-anchor="middle" x="666" y="-8.2" font-family="sans-serif" font-size="14.00">dependencies</text>
<g id="clust1" class="cluster">
<title>cluster_VisualPickingProductListModule</title>
<polygon fill="none" stroke="black" stroke-dasharray="1,5" points="8,-32.8 8,-295.8 1324,-295.8 1324,-32.8 8,-32.8"/>
</g>
<g id="clust2" class="cluster">
<title>cluster_VisualPickingProductListModule_declarations</title>
<polygon fill="none" stroke="black" points="1074,-105.8 1074,-157.8 1316,-157.8 1316,-105.8 1074,-105.8"/>
</g>
<g id="clust3" class="cluster">
<title>cluster_VisualPickingProductListModule_VisualPickingProductListComponent_providers</title>
<polygon fill="none" stroke="black" points="1020,-40.8 1020,-92.8 1316,-92.8 1316,-40.8 1020,-40.8"/>
</g>
<g id="clust5" class="cluster">
<title>cluster_VisualPickingProductListModule_exports</title>
<polygon fill="none" stroke="black" points="469,-235.8 469,-287.8 715,-287.8 715,-235.8 469,-235.8"/>
</g>
<g id="clust4" class="cluster">
<title>cluster_VisualPickingProductListModule_imports</title>
<polygon fill="none" stroke="black" points="16,-105.8 16,-157.8 1066,-157.8 1066,-105.8 16,-105.8"/>
</g>
<!-- VisualPickingProductListComponent -->
<g id="node1" class="node">
<title>VisualPickingProductListComponent</title>
<polygon fill="#ffffb3" stroke="black" points="1307.99,-149.8 1082.01,-149.8 1082.01,-113.8 1307.99,-113.8 1307.99,-149.8"/>
<text text-anchor="middle" x="1195" y="-127.6" font-family="Times,serif" font-size="14.00">VisualPickingProductListComponent</text>
</g>
<!-- VisualPickingProductListModule -->
<g id="node2" class="node">
<title>VisualPickingProductListModule</title>
<polygon fill="#8dd3c7" stroke="black" points="694.21,-214.8 691.21,-218.8 670.21,-218.8 667.21,-214.8 489.79,-214.8 489.79,-178.8 694.21,-178.8 694.21,-214.8"/>
<text text-anchor="middle" x="592" y="-192.6" font-family="Times,serif" font-size="14.00">VisualPickingProductListModule</text>
</g>
<!-- VisualPickingProductListComponent&#45;&gt;VisualPickingProductListModule -->
<g id="edge1" class="edge">
<title>VisualPickingProductListComponent&#45;&gt;VisualPickingProductListModule</title>
<path fill="none" stroke="black" d="M1195,-150.09C1195,-172.01 1195,-205.8 1195,-205.8 1195,-205.8 704.29,-205.8 704.29,-205.8"/>
<polygon fill="black" stroke="black" points="704.29,-202.3 694.29,-205.8 704.29,-209.3 704.29,-202.3"/>
</g>
<!-- VisualPickingProductListComponent  -->
<g id="node12" class="node">
<title>VisualPickingProductListComponent </title>
<polygon fill="#fb8072" stroke="black" points="706.99,-279.8 477.01,-279.8 477.01,-243.8 706.99,-243.8 706.99,-279.8"/>
<text text-anchor="middle" x="592" y="-257.6" font-family="Times,serif" font-size="14.00">VisualPickingProductListComponent </text>
</g>
<!-- VisualPickingProductListModule&#45;&gt;VisualPickingProductListComponent  -->
<g id="edge11" class="edge">
<title>VisualPickingProductListModule&#45;&gt;VisualPickingProductListComponent </title>
<path fill="none" stroke="black" stroke-dasharray="5,2" d="M592,-214.91C592,-214.91 592,-233.79 592,-233.79"/>
<polygon fill="black" stroke="black" points="588.5,-233.79 592,-243.79 595.5,-233.79 588.5,-233.79"/>
</g>
<!-- VisualPickingProductListService -->
<g id="node3" class="node">
<title>VisualPickingProductListService</title>
<ellipse fill="#fdb462" stroke="black" cx="1168" cy="-66.8" rx="139.56" ry="18"/>
<text text-anchor="middle" x="1168" y="-62.6" font-family="Times,serif" font-size="14.00">VisualPickingProductListService</text>
</g>
<!-- VisualPickingProductListService&#45;&gt;VisualPickingProductListComponent -->
<g id="edge2" class="edge">
<title>VisualPickingProductListService&#45;&gt;VisualPickingProductListComponent</title>
<path fill="none" stroke="black" d="M1194.89,-84.56C1194.89,-84.56 1194.89,-103.61 1194.89,-103.61"/>
<polygon fill="black" stroke="black" points="1191.39,-103.61 1194.89,-113.61 1198.39,-103.61 1191.39,-103.61"/>
</g>
<!-- CarouselModule -->
<g id="node4" class="node">
<title>CarouselModule</title>
<polygon fill="#8dd3c7" stroke="black" points="1057.82,-149.8 1054.82,-153.8 1033.82,-153.8 1030.82,-149.8 948.18,-149.8 948.18,-113.8 1057.82,-113.8 1057.82,-149.8"/>
<text text-anchor="middle" x="1003" y="-127.6" font-family="Times,serif" font-size="14.00">CarouselModule</text>
</g>
<!-- CarouselModule&#45;&gt;VisualPickingProductListModule -->
<g id="edge3" class="edge">
<title>CarouselModule&#45;&gt;VisualPickingProductListModule</title>
<path fill="none" stroke="black" d="M1003,-149.91C1003,-169.14 1003,-196.8 1003,-196.8 1003,-196.8 704.12,-196.8 704.12,-196.8"/>
<polygon fill="black" stroke="black" points="704.12,-193.3 694.12,-196.8 704.12,-200.3 704.12,-193.3"/>
</g>
<!-- CompactAddToCartModule -->
<g id="node5" class="node">
<title>CompactAddToCartModule</title>
<polygon fill="#8dd3c7" stroke="black" points="929.86,-149.8 926.86,-153.8 905.86,-153.8 902.86,-149.8 756.14,-149.8 756.14,-113.8 929.86,-113.8 929.86,-149.8"/>
<text text-anchor="middle" x="843" y="-127.6" font-family="Times,serif" font-size="14.00">CompactAddToCartModule</text>
</g>
<!-- CompactAddToCartModule&#45;&gt;VisualPickingProductListModule -->
<g id="edge4" class="edge">
<title>CompactAddToCartModule&#45;&gt;VisualPickingProductListModule</title>
<path fill="none" stroke="black" d="M843,-149.83C843,-166.2 843,-187.8 843,-187.8 843,-187.8 704.45,-187.8 704.45,-187.8"/>
<polygon fill="black" stroke="black" points="704.45,-184.3 694.45,-187.8 704.45,-191.3 704.45,-184.3"/>
</g>
<!-- I18nModule -->
<g id="node6" class="node">
<title>I18nModule</title>
<polygon fill="#8dd3c7" stroke="black" points="737.71,-149.8 734.71,-153.8 713.71,-153.8 710.71,-149.8 652.29,-149.8 652.29,-113.8 737.71,-113.8 737.71,-149.8"/>
<text text-anchor="middle" x="695" y="-127.6" font-family="Times,serif" font-size="14.00">I18nModule</text>
</g>
<!-- I18nModule&#45;&gt;VisualPickingProductListModule -->
<g id="edge5" class="edge">
<title>I18nModule&#45;&gt;VisualPickingProductListModule</title>
<path fill="none" stroke="black" d="M673.25,-149.91C673.25,-149.91 673.25,-168.79 673.25,-168.79"/>
<polygon fill="black" stroke="black" points="669.75,-168.79 673.25,-178.79 676.75,-168.79 669.75,-168.79"/>
</g>
<!-- IconModule -->
<g id="node7" class="node">
<title>IconModule</title>
<polygon fill="#8dd3c7" stroke="black" points="634.43,-149.8 631.43,-153.8 610.43,-153.8 607.43,-149.8 549.57,-149.8 549.57,-113.8 634.43,-113.8 634.43,-149.8"/>
<text text-anchor="middle" x="592" y="-127.6" font-family="Times,serif" font-size="14.00">IconModule</text>
</g>
<!-- IconModule&#45;&gt;VisualPickingProductListModule -->
<g id="edge6" class="edge">
<title>IconModule&#45;&gt;VisualPickingProductListModule</title>
<path fill="none" stroke="black" d="M592,-149.91C592,-149.91 592,-168.79 592,-168.79"/>
<polygon fill="black" stroke="black" points="588.5,-168.79 592,-178.79 595.5,-168.79 588.5,-168.79"/>
</g>
<!-- MediaModule -->
<g id="node8" class="node">
<title>MediaModule</title>
<polygon fill="#8dd3c7" stroke="black" points="531.82,-149.8 528.82,-153.8 507.82,-153.8 504.82,-149.8 436.18,-149.8 436.18,-113.8 531.82,-113.8 531.82,-149.8"/>
<text text-anchor="middle" x="484" y="-127.6" font-family="Times,serif" font-size="14.00">MediaModule</text>
</g>
<!-- MediaModule&#45;&gt;VisualPickingProductListModule -->
<g id="edge7" class="edge">
<title>MediaModule&#45;&gt;VisualPickingProductListModule</title>
<path fill="none" stroke="black" d="M510.78,-149.91C510.78,-149.91 510.78,-168.79 510.78,-168.79"/>
<polygon fill="black" stroke="black" points="507.28,-168.79 510.78,-178.79 514.28,-168.79 507.28,-168.79"/>
</g>
<!-- PagedListModule -->
<g id="node9" class="node">
<title>PagedListModule</title>
<polygon fill="#8dd3c7" stroke="black" points="418.55,-149.8 415.55,-153.8 394.55,-153.8 391.55,-149.8 303.45,-149.8 303.45,-113.8 418.55,-113.8 418.55,-149.8"/>
<text text-anchor="middle" x="361" y="-127.6" font-family="Times,serif" font-size="14.00">PagedListModule</text>
</g>
<!-- PagedListModule&#45;&gt;VisualPickingProductListModule -->
<g id="edge8" class="edge">
<title>PagedListModule&#45;&gt;VisualPickingProductListModule</title>
<path fill="none" stroke="black" d="M361,-149.83C361,-166.2 361,-187.8 361,-187.8 361,-187.8 479.67,-187.8 479.67,-187.8"/>
<polygon fill="black" stroke="black" points="479.67,-191.3 489.67,-187.8 479.67,-184.3 479.67,-191.3"/>
</g>
<!-- ProductReferencesModule -->
<g id="node10" class="node">
<title>ProductReferencesModule</title>
<polygon fill="#8dd3c7" stroke="black" points="285.78,-149.8 282.78,-153.8 261.78,-153.8 258.78,-149.8 120.22,-149.8 120.22,-113.8 285.78,-113.8 285.78,-149.8"/>
<text text-anchor="middle" x="203" y="-127.6" font-family="Times,serif" font-size="14.00">ProductReferencesModule</text>
</g>
<!-- ProductReferencesModule&#45;&gt;VisualPickingProductListModule -->
<g id="edge9" class="edge">
<title>ProductReferencesModule&#45;&gt;VisualPickingProductListModule</title>
<path fill="none" stroke="black" d="M203,-149.91C203,-169.14 203,-196.8 203,-196.8 203,-196.8 479.79,-196.8 479.79,-196.8"/>
<polygon fill="black" stroke="black" points="479.79,-200.3 489.79,-196.8 479.79,-193.3 479.79,-200.3"/>
</g>
<!-- UrlModule -->
<g id="node11" class="node">
<title>UrlModule</title>
<polygon fill="#8dd3c7" stroke="black" points="102.21,-149.8 99.21,-153.8 78.21,-153.8 75.21,-149.8 23.79,-149.8 23.79,-113.8 102.21,-113.8 102.21,-149.8"/>
<text text-anchor="middle" x="63" y="-127.6" font-family="Times,serif" font-size="14.00">UrlModule</text>
</g>
<!-- UrlModule&#45;&gt;VisualPickingProductListModule -->
<g id="edge10" class="edge">
<title>UrlModule&#45;&gt;VisualPickingProductListModule</title>
<path fill="none" stroke="black" d="M63,-150.09C63,-172.01 63,-205.8 63,-205.8 63,-205.8 479.69,-205.8 479.69,-205.8"/>
<polygon fill="black" stroke="black" points="479.69,-209.3 489.69,-205.8 479.69,-202.3 479.69,-209.3"/>
</g>
</g>
</svg>
