<?xml version="1.0" encoding="UTF-8" standalone="no"?>
<!DOCTYPE svg PUBLIC "-//W3C//DTD SVG 1.1//EN"
 "http://www.w3.org/Graphics/SVG/1.1/DTD/svg11.dtd">
<!-- Generated by graphviz version 5.0.0 (20220707.1540)
 -->
<!-- Title: dependencies Pages: 1 -->
<svg width="188pt" height="247pt"
 viewBox="0.00 0.00 188.00 246.80" xmlns="http://www.w3.org/2000/svg" xmlns:xlink="http://www.w3.org/1999/xlink">
<g id="graph0" class="graph" transform="scale(1 1) rotate(0) translate(4 242.8)">
<title>dependencies</title>
<polygon fill="white" stroke="transparent" points="-4,4 -4,-242.8 184,-242.8 184,4 -4,4"/>
<text text-anchor="middle" x="90" y="-8.2" font-family="sans-serif" font-size="14.00">dependencies</text>
<g id="clust1" class="cluster">
<title>cluster_KeyboardFocusModule</title>
<polygon fill="none" stroke="black" stroke-dasharray="1,5" points="8,-32.8 8,-230.8 172,-230.8 172,-32.8 8,-32.8"/>
</g>
<g id="clust2" class="cluster">
<title>cluster_KeyboardFocusModule_declarations</title>
<polygon fill="none" stroke="black" points="31,-40.8 31,-92.8 149,-92.8 149,-40.8 31,-40.8"/>
</g>
<g id="clust5" class="cluster">
<title>cluster_KeyboardFocusModule_exports</title>
<polygon fill="none" stroke="black" points="29,-170.8 29,-222.8 151,-222.8 151,-170.8 29,-170.8"/>
</g>
<!-- FocusDirective -->
<g id="node1" class="node">
<title>FocusDirective</title>
<polygon fill="#ffffb3" stroke="black" points="140.53,-84.8 39.47,-84.8 39.47,-48.8 140.53,-48.8 140.53,-84.8"/>
<text text-anchor="middle" x="90" y="-62.6" font-family="Times,serif" font-size="14.00">FocusDirective</text>
</g>
<!-- KeyboardFocusModule -->
<g id="node2" class="node">
<title>KeyboardFocusModule</title>
<polygon fill="#8dd3c7" stroke="black" points="164.2,-149.8 161.2,-153.8 140.2,-153.8 137.2,-149.8 15.8,-149.8 15.8,-113.8 164.2,-113.8 164.2,-149.8"/>
<text text-anchor="middle" x="90" y="-127.6" font-family="Times,serif" font-size="14.00">KeyboardFocusModule</text>
</g>
<!-- FocusDirective&#45;&gt;KeyboardFocusModule -->
<g id="edge1" class="edge">
<title>FocusDirective&#45;&gt;KeyboardFocusModule</title>
<path fill="none" stroke="black" d="M90,-84.91C90,-84.91 90,-103.79 90,-103.79"/>
<polygon fill="black" stroke="black" points="86.5,-103.79 90,-113.79 93.5,-103.79 86.5,-103.79"/>
</g>
<!-- FocusDirective  -->
<g id="node3" class="node">
<title>FocusDirective </title>
<polygon fill="#fb8072" stroke="black" points="142.53,-214.8 37.47,-214.8 37.47,-178.8 142.53,-178.8 142.53,-214.8"/>
<text text-anchor="middle" x="90" y="-192.6" font-family="Times,serif" font-size="14.00">FocusDirective </text>
</g>
<!-- KeyboardFocusModule&#45;&gt;FocusDirective  -->
<g id="edge2" class="edge">
<title>KeyboardFocusModule&#45;&gt;FocusDirective </title>
<path fill="none" stroke="black" stroke-dasharray="5,2" d="M90,-149.91C90,-149.91 90,-168.79 90,-168.79"/>
<polygon fill="black" stroke="black" points="86.5,-168.79 90,-178.79 93.5,-168.79 86.5,-168.79"/>
</g>
</g>
</svg>
