<?xml version="1.0" encoding="UTF-8" standalone="no"?>
<!DOCTYPE svg PUBLIC "-//W3C//DTD SVG 1.1//EN"
 "http://www.w3.org/Graphics/SVG/1.1/DTD/svg11.dtd">
<!-- Generated by graphviz version 5.0.0 (20220707.1540)
 -->
<!-- Title: dependencies Pages: 1 -->
<svg width="894pt" height="247pt"
 viewBox="0.00 0.00 894.00 246.80" xmlns="http://www.w3.org/2000/svg" xmlns:xlink="http://www.w3.org/1999/xlink">
<g id="graph0" class="graph" transform="scale(1 1) rotate(0) translate(4 242.8)">
<title>dependencies</title>
<polygon fill="white" stroke="transparent" points="-4,4 -4,-242.8 890,-242.8 890,4 -4,4"/>
<text text-anchor="middle" x="443" y="-8.2" font-family="sans-serif" font-size="14.00">dependencies</text>
<g id="clust1" class="cluster">
<title>cluster_ProductCarouselModule</title>
<polygon fill="none" stroke="black" stroke-dasharray="1,5" points="8,-32.8 8,-230.8 878,-230.8 878,-32.8 8,-32.8"/>
</g>
<g id="clust2" class="cluster">
<title>cluster_ProductCarouselModule_declarations</title>
<polygon fill="none" stroke="black" points="462,-40.8 462,-92.8 870,-92.8 870,-40.8 462,-40.8"/>
</g>
<g id="clust5" class="cluster">
<title>cluster_ProductCarouselModule_imports</title>
<polygon fill="none" stroke="black" points="16,-40.8 16,-92.8 454,-92.8 454,-40.8 16,-40.8"/>
</g>
<g id="clust6" class="cluster">
<title>cluster_ProductCarouselModule_exports</title>
<polygon fill="none" stroke="black" points="120,-170.8 120,-222.8 536,-222.8 536,-170.8 120,-170.8"/>
</g>
<!-- ProductCarouselComponent -->
<g id="node1" class="node">
<title>ProductCarouselComponent</title>
<polygon fill="#ffffb3" stroke="black" points="862.15,-84.8 687.85,-84.8 687.85,-48.8 862.15,-48.8 862.15,-84.8"/>
<text text-anchor="middle" x="775" y="-62.6" font-family="Times,serif" font-size="14.00">ProductCarouselComponent</text>
</g>
<!-- ProductCarouselModule -->
<g id="node3" class="node">
<title>ProductCarouselModule</title>
<polygon fill="#8dd3c7" stroke="black" points="409.37,-149.8 406.37,-153.8 385.37,-153.8 382.37,-149.8 256.63,-149.8 256.63,-113.8 409.37,-113.8 409.37,-149.8"/>
<text text-anchor="middle" x="333" y="-127.6" font-family="Times,serif" font-size="14.00">ProductCarouselModule</text>
</g>
<!-- ProductCarouselComponent&#45;&gt;ProductCarouselModule -->
<g id="edge1" class="edge">
<title>ProductCarouselComponent&#45;&gt;ProductCarouselModule</title>
<path fill="none" stroke="black" d="M775,-85.08C775,-106.12 775,-137.8 775,-137.8 775,-137.8 419.49,-137.8 419.49,-137.8"/>
<polygon fill="black" stroke="black" points="419.49,-134.3 409.49,-137.8 419.49,-141.3 419.49,-134.3"/>
</g>
<!-- ProductCarouselItemComponent -->
<g id="node2" class="node">
<title>ProductCarouselItemComponent</title>
<polygon fill="#ffffb3" stroke="black" points="670.3,-84.8 469.7,-84.8 469.7,-48.8 670.3,-48.8 670.3,-84.8"/>
<text text-anchor="middle" x="570" y="-62.6" font-family="Times,serif" font-size="14.00">ProductCarouselItemComponent</text>
</g>
<!-- ProductCarouselItemComponent&#45;&gt;ProductCarouselModule -->
<g id="edge2" class="edge">
<title>ProductCarouselItemComponent&#45;&gt;ProductCarouselModule</title>
<path fill="none" stroke="black" d="M498.96,-84.82C498.96,-102.17 498.96,-125.8 498.96,-125.8 498.96,-125.8 419.67,-125.8 419.67,-125.8"/>
<polygon fill="black" stroke="black" points="419.67,-122.3 409.67,-125.8 419.67,-129.3 419.67,-122.3"/>
</g>
<!-- ProductCarouselComponent  -->
<g id="node8" class="node">
<title>ProductCarouselComponent </title>
<polygon fill="#fb8072" stroke="black" points="528.15,-214.8 349.85,-214.8 349.85,-178.8 528.15,-178.8 528.15,-214.8"/>
<text text-anchor="middle" x="439" y="-192.6" font-family="Times,serif" font-size="14.00">ProductCarouselComponent </text>
</g>
<!-- ProductCarouselModule&#45;&gt;ProductCarouselComponent  -->
<g id="edge7" class="edge">
<title>ProductCarouselModule&#45;&gt;ProductCarouselComponent </title>
<path fill="none" stroke="black" stroke-dasharray="5,2" d="M379.68,-149.91C379.68,-149.91 379.68,-168.79 379.68,-168.79"/>
<polygon fill="black" stroke="black" points="376.18,-168.79 379.68,-178.79 383.18,-168.79 376.18,-168.79"/>
</g>
<!-- ProductCarouselItemComponent  -->
<g id="node9" class="node">
<title>ProductCarouselItemComponent </title>
<polygon fill="#fb8072" stroke="black" points="331.8,-214.8 128.2,-214.8 128.2,-178.8 331.8,-178.8 331.8,-214.8"/>
<text text-anchor="middle" x="230" y="-192.6" font-family="Times,serif" font-size="14.00">ProductCarouselItemComponent </text>
</g>
<!-- ProductCarouselModule&#45;&gt;ProductCarouselItemComponent  -->
<g id="edge8" class="edge">
<title>ProductCarouselModule&#45;&gt;ProductCarouselItemComponent </title>
<path fill="none" stroke="black" stroke-dasharray="5,2" d="M294.23,-149.91C294.23,-149.91 294.23,-168.79 294.23,-168.79"/>
<polygon fill="black" stroke="black" points="290.73,-168.79 294.23,-178.79 297.73,-168.79 290.73,-168.79"/>
</g>
<!-- CarouselModule -->
<g id="node4" class="node">
<title>CarouselModule</title>
<polygon fill="#8dd3c7" stroke="black" points="445.82,-84.8 442.82,-88.8 421.82,-88.8 418.82,-84.8 336.18,-84.8 336.18,-48.8 445.82,-48.8 445.82,-84.8"/>
<text text-anchor="middle" x="391" y="-62.6" font-family="Times,serif" font-size="14.00">CarouselModule</text>
</g>
<!-- CarouselModule&#45;&gt;ProductCarouselModule -->
<g id="edge3" class="edge">
<title>CarouselModule&#45;&gt;ProductCarouselModule</title>
<path fill="none" stroke="black" d="M372.89,-84.91C372.89,-84.91 372.89,-103.79 372.89,-103.79"/>
<polygon fill="black" stroke="black" points="369.39,-103.79 372.89,-113.79 376.39,-103.79 369.39,-103.79"/>
</g>
<!-- I18nModule -->
<g id="node5" class="node">
<title>I18nModule</title>
<polygon fill="#8dd3c7" stroke="black" points="318.71,-84.8 315.71,-88.8 294.71,-88.8 291.71,-84.8 233.29,-84.8 233.29,-48.8 318.71,-48.8 318.71,-84.8"/>
<text text-anchor="middle" x="276" y="-62.6" font-family="Times,serif" font-size="14.00">I18nModule</text>
</g>
<!-- I18nModule&#45;&gt;ProductCarouselModule -->
<g id="edge4" class="edge">
<title>I18nModule&#45;&gt;ProductCarouselModule</title>
<path fill="none" stroke="black" d="M287.59,-84.91C287.59,-84.91 287.59,-103.79 287.59,-103.79"/>
<polygon fill="black" stroke="black" points="284.09,-103.79 287.59,-113.79 291.09,-103.79 284.09,-103.79"/>
</g>
<!-- MediaModule -->
<g id="node6" class="node">
<title>MediaModule</title>
<polygon fill="#8dd3c7" stroke="black" points="215.82,-84.8 212.82,-88.8 191.82,-88.8 188.82,-84.8 120.18,-84.8 120.18,-48.8 215.82,-48.8 215.82,-84.8"/>
<text text-anchor="middle" x="168" y="-62.6" font-family="Times,serif" font-size="14.00">MediaModule</text>
</g>
<!-- MediaModule&#45;&gt;ProductCarouselModule -->
<g id="edge5" class="edge">
<title>MediaModule&#45;&gt;ProductCarouselModule</title>
<path fill="none" stroke="black" d="M171.88,-84.82C171.88,-102.17 171.88,-125.8 171.88,-125.8 171.88,-125.8 246.21,-125.8 246.21,-125.8"/>
<polygon fill="black" stroke="black" points="246.21,-129.3 256.21,-125.8 246.21,-122.3 246.21,-129.3"/>
</g>
<!-- UrlModule -->
<g id="node7" class="node">
<title>UrlModule</title>
<polygon fill="#8dd3c7" stroke="black" points="102.21,-84.8 99.21,-88.8 78.21,-88.8 75.21,-84.8 23.79,-84.8 23.79,-48.8 102.21,-48.8 102.21,-84.8"/>
<text text-anchor="middle" x="63" y="-62.6" font-family="Times,serif" font-size="14.00">UrlModule</text>
</g>
<!-- UrlModule&#45;&gt;ProductCarouselModule -->
<g id="edge6" class="edge">
<title>UrlModule&#45;&gt;ProductCarouselModule</title>
<path fill="none" stroke="black" d="M63,-85.08C63,-106.12 63,-137.8 63,-137.8 63,-137.8 246.35,-137.8 246.35,-137.8"/>
<polygon fill="black" stroke="black" points="246.35,-141.3 256.35,-137.8 246.35,-134.3 246.35,-141.3"/>
</g>
</g>
</svg>
