<?xml version="1.0" encoding="UTF-8" standalone="no"?>
<!DOCTYPE svg PUBLIC "-//W3C//DTD SVG 1.1//EN"
 "http://www.w3.org/Graphics/SVG/1.1/DTD/svg11.dtd">
<!-- Generated by graphviz version 5.0.0 (20220707.1540)
 -->
<!-- Title: dependencies Pages: 1 -->
<svg width="200pt" height="174pt"
 viewBox="0.00 0.00 200.00 173.80" xmlns="http://www.w3.org/2000/svg" xmlns:xlink="http://www.w3.org/1999/xlink">
<g id="graph0" class="graph" transform="scale(1 1) rotate(0) translate(4 169.8)">
<title>dependencies</title>
<polygon fill="white" stroke="transparent" points="-4,4 -4,-169.8 196,-169.8 196,4 -4,4"/>
<text text-anchor="middle" x="96" y="-8.2" font-family="sans-serif" font-size="14.00">dependencies</text>
<g id="clust1" class="cluster">
<title>cluster_CartBaseRootModule</title>
<polygon fill="none" stroke="black" stroke-dasharray="1,5" points="8,-32.8 8,-157.8 184,-157.8 184,-32.8 8,-32.8"/>
</g>
<g id="clust3" class="cluster">
<title>cluster_CartBaseRootModule_imports</title>
<polygon fill="none" stroke="black" points="16,-40.8 16,-92.8 176,-92.8 176,-40.8 16,-40.8"/>
</g>
<!-- CartBaseEventModule -->
<g id="node1" class="node">
<title>CartBaseEventModule</title>
<polygon fill="#8dd3c7" stroke="black" points="167.53,-84.8 164.53,-88.8 143.53,-88.8 140.53,-84.8 24.47,-84.8 24.47,-48.8 167.53,-48.8 167.53,-84.8"/>
<text text-anchor="middle" x="96" y="-62.6" font-family="Times,serif" font-size="14.00">CartBaseEventModule</text>
</g>
<!-- CartBaseRootModule -->
<g id="node2" class="node">
<title>CartBaseRootModule</title>
<polygon fill="#8dd3c7" stroke="black" points="165.1,-149.8 162.1,-153.8 141.1,-153.8 138.1,-149.8 26.9,-149.8 26.9,-113.8 165.1,-113.8 165.1,-149.8"/>
<text text-anchor="middle" x="96" y="-127.6" font-family="Times,serif" font-size="14.00">CartBaseRootModule</text>
</g>
<!-- CartBaseEventModule&#45;&gt;CartBaseRootModule -->
<g id="edge1" class="edge">
<title>CartBaseEventModule&#45;&gt;CartBaseRootModule</title>
<path fill="none" stroke="black" d="M96,-84.91C96,-84.91 96,-103.79 96,-103.79"/>
<polygon fill="black" stroke="black" points="92.5,-103.79 96,-113.79 99.5,-103.79 92.5,-103.79"/>
</g>
</g>
</svg>
