<?xml version="1.0" encoding="UTF-8" standalone="no"?>
<!DOCTYPE svg PUBLIC "-//W3C//DTD SVG 1.1//EN"
 "http://www.w3.org/Graphics/SVG/1.1/DTD/svg11.dtd">
<!-- Generated by graphviz version 5.0.0 (20220707.1540)
 -->
<!-- Title: dependencies Pages: 1 -->
<svg width="646pt" height="247pt"
 viewBox="0.00 0.00 646.00 246.80" xmlns="http://www.w3.org/2000/svg" xmlns:xlink="http://www.w3.org/1999/xlink">
<g id="graph0" class="graph" transform="scale(1 1) rotate(0) translate(4 242.8)">
<title>dependencies</title>
<polygon fill="white" stroke="transparent" points="-4,4 -4,-242.8 642,-242.8 642,4 -4,4"/>
<text text-anchor="middle" x="319" y="-8.2" font-family="sans-serif" font-size="14.00">dependencies</text>
<g id="clust1" class="cluster">
<title>cluster_CartProceedToCheckoutModule</title>
<polygon fill="none" stroke="black" stroke-dasharray="1,5" points="8,-32.8 8,-230.8 630,-230.8 630,-32.8 8,-32.8"/>
</g>
<g id="clust2" class="cluster">
<title>cluster_CartProceedToCheckoutModule_declarations</title>
<polygon fill="none" stroke="black" points="386,-40.8 386,-92.8 622,-92.8 622,-40.8 386,-40.8"/>
</g>
<g id="clust4" class="cluster">
<title>cluster_CartProceedToCheckoutModule_imports</title>
<polygon fill="none" stroke="black" points="16,-40.8 16,-92.8 378,-92.8 378,-40.8 16,-40.8"/>
</g>
<g id="clust5" class="cluster">
<title>cluster_CartProceedToCheckoutModule_exports</title>
<polygon fill="none" stroke="black" points="140,-170.8 140,-222.8 380,-222.8 380,-170.8 140,-170.8"/>
</g>
<!-- CartProceedToCheckoutComponent -->
<g id="node1" class="node">
<title>CartProceedToCheckoutComponent</title>
<polygon fill="#ffffb3" stroke="black" points="613.73,-84.8 394.27,-84.8 394.27,-48.8 613.73,-48.8 613.73,-84.8"/>
<text text-anchor="middle" x="504" y="-62.6" font-family="Times,serif" font-size="14.00">CartProceedToCheckoutComponent</text>
</g>
<!-- CartProceedToCheckoutModule -->
<g id="node2" class="node">
<title>CartProceedToCheckoutModule</title>
<polygon fill="#8dd3c7" stroke="black" points="358.95,-149.8 355.95,-153.8 334.95,-153.8 331.95,-149.8 161.05,-149.8 161.05,-113.8 358.95,-113.8 358.95,-149.8"/>
<text text-anchor="middle" x="260" y="-127.6" font-family="Times,serif" font-size="14.00">CartProceedToCheckoutModule</text>
</g>
<!-- CartProceedToCheckoutComponent&#45;&gt;CartProceedToCheckoutModule -->
<g id="edge1" class="edge">
<title>CartProceedToCheckoutComponent&#45;&gt;CartProceedToCheckoutModule</title>
<path fill="none" stroke="black" d="M504,-84.91C504,-104.14 504,-131.8 504,-131.8 504,-131.8 369.24,-131.8 369.24,-131.8"/>
<polygon fill="black" stroke="black" points="369.24,-128.3 359.24,-131.8 369.24,-135.3 369.24,-128.3"/>
</g>
<!-- CartProceedToCheckoutComponent  -->
<g id="node6" class="node">
<title>CartProceedToCheckoutComponent </title>
<polygon fill="#fb8072" stroke="black" points="371.73,-214.8 148.27,-214.8 148.27,-178.8 371.73,-178.8 371.73,-214.8"/>
<text text-anchor="middle" x="260" y="-192.6" font-family="Times,serif" font-size="14.00">CartProceedToCheckoutComponent </text>
</g>
<!-- CartProceedToCheckoutModule&#45;&gt;CartProceedToCheckoutComponent  -->
<g id="edge5" class="edge">
<title>CartProceedToCheckoutModule&#45;&gt;CartProceedToCheckoutComponent </title>
<path fill="none" stroke="black" stroke-dasharray="5,2" d="M260,-149.91C260,-149.91 260,-168.79 260,-168.79"/>
<polygon fill="black" stroke="black" points="256.5,-168.79 260,-178.79 263.5,-168.79 256.5,-168.79"/>
</g>
<!-- I18nModule -->
<g id="node3" class="node">
<title>I18nModule</title>
<polygon fill="#8dd3c7" stroke="black" points="369.71,-84.8 366.71,-88.8 345.71,-88.8 342.71,-84.8 284.29,-84.8 284.29,-48.8 369.71,-48.8 369.71,-84.8"/>
<text text-anchor="middle" x="327" y="-62.6" font-family="Times,serif" font-size="14.00">I18nModule</text>
</g>
<!-- I18nModule&#45;&gt;CartProceedToCheckoutModule -->
<g id="edge2" class="edge">
<title>I18nModule&#45;&gt;CartProceedToCheckoutModule</title>
<path fill="none" stroke="black" d="M321.68,-84.91C321.68,-84.91 321.68,-103.79 321.68,-103.79"/>
<polygon fill="black" stroke="black" points="318.18,-103.79 321.68,-113.79 325.18,-103.79 318.18,-103.79"/>
</g>
<!-- ProgressButtonModule -->
<g id="node4" class="node">
<title>ProgressButtonModule</title>
<polygon fill="#8dd3c7" stroke="black" points="265.89,-84.8 262.89,-88.8 241.89,-88.8 238.89,-84.8 120.11,-84.8 120.11,-48.8 265.89,-48.8 265.89,-84.8"/>
<text text-anchor="middle" x="193" y="-62.6" font-family="Times,serif" font-size="14.00">ProgressButtonModule</text>
</g>
<!-- ProgressButtonModule&#45;&gt;CartProceedToCheckoutModule -->
<g id="edge3" class="edge">
<title>ProgressButtonModule&#45;&gt;CartProceedToCheckoutModule</title>
<path fill="none" stroke="black" d="M213.48,-84.91C213.48,-84.91 213.48,-103.79 213.48,-103.79"/>
<polygon fill="black" stroke="black" points="209.98,-103.79 213.48,-113.79 216.98,-103.79 209.98,-103.79"/>
</g>
<!-- UrlModule -->
<g id="node5" class="node">
<title>UrlModule</title>
<polygon fill="#8dd3c7" stroke="black" points="102.21,-84.8 99.21,-88.8 78.21,-88.8 75.21,-84.8 23.79,-84.8 23.79,-48.8 102.21,-48.8 102.21,-84.8"/>
<text text-anchor="middle" x="63" y="-62.6" font-family="Times,serif" font-size="14.00">UrlModule</text>
</g>
<!-- UrlModule&#45;&gt;CartProceedToCheckoutModule -->
<g id="edge4" class="edge">
<title>UrlModule&#45;&gt;CartProceedToCheckoutModule</title>
<path fill="none" stroke="black" d="M63,-84.91C63,-104.14 63,-131.8 63,-131.8 63,-131.8 150.92,-131.8 150.92,-131.8"/>
<polygon fill="black" stroke="black" points="150.92,-135.3 160.92,-131.8 150.92,-128.3 150.92,-135.3"/>
</g>
</g>
</svg>
