<?xml version="1.0" encoding="UTF-8" standalone="no"?>
<!DOCTYPE svg PUBLIC "-//W3C//DTD SVG 1.1//EN"
 "http://www.w3.org/Graphics/SVG/1.1/DTD/svg11.dtd">
<!-- Generated by graphviz version 5.0.0 (20220707.1540)
 -->
<!-- Title: dependencies Pages: 1 -->
<svg width="1602pt" height="247pt"
 viewBox="0.00 0.00 1602.00 246.80" xmlns="http://www.w3.org/2000/svg" xmlns:xlink="http://www.w3.org/1999/xlink">
<g id="graph0" class="graph" transform="scale(1 1) rotate(0) translate(4 242.8)">
<title>dependencies</title>
<polygon fill="white" stroke="transparent" points="-4,4 -4,-242.8 1598,-242.8 1598,4 -4,4"/>
<text text-anchor="middle" x="797" y="-8.2" font-family="sans-serif" font-size="14.00">dependencies</text>
<g id="clust1" class="cluster">
<title>cluster_ConfiguratorAttributeRadioButtonModule</title>
<polygon fill="none" stroke="black" stroke-dasharray="1,5" points="8,-32.8 8,-230.8 1586,-230.8 1586,-32.8 8,-32.8"/>
</g>
<g id="clust2" class="cluster">
<title>cluster_ConfiguratorAttributeRadioButtonModule_declarations</title>
<polygon fill="none" stroke="black" points="1286,-40.8 1286,-92.8 1578,-92.8 1578,-40.8 1286,-40.8"/>
</g>
<g id="clust5" class="cluster">
<title>cluster_ConfiguratorAttributeRadioButtonModule_exports</title>
<polygon fill="none" stroke="black" points="440,-170.8 440,-222.8 736,-222.8 736,-170.8 440,-170.8"/>
</g>
<g id="clust4" class="cluster">
<title>cluster_ConfiguratorAttributeRadioButtonModule_imports</title>
<polygon fill="none" stroke="black" points="16,-40.8 16,-92.8 1278,-92.8 1278,-40.8 16,-40.8"/>
</g>
<!-- ConfiguratorAttributeRadioButtonComponent -->
<g id="node1" class="node">
<title>ConfiguratorAttributeRadioButtonComponent</title>
<polygon fill="#ffffb3" stroke="black" points="1569.75,-84.8 1294.25,-84.8 1294.25,-48.8 1569.75,-48.8 1569.75,-84.8"/>
<text text-anchor="middle" x="1432" y="-62.6" font-family="Times,serif" font-size="14.00">ConfiguratorAttributeRadioButtonComponent</text>
</g>
<!-- ConfiguratorAttributeRadioButtonModule -->
<g id="node2" class="node">
<title>ConfiguratorAttributeRadioButtonModule</title>
<polygon fill="#8dd3c7" stroke="black" points="714.97,-149.8 711.97,-153.8 690.97,-153.8 687.97,-149.8 461.03,-149.8 461.03,-113.8 714.97,-113.8 714.97,-149.8"/>
<text text-anchor="middle" x="588" y="-127.6" font-family="Times,serif" font-size="14.00">ConfiguratorAttributeRadioButtonModule</text>
</g>
<!-- ConfiguratorAttributeRadioButtonComponent&#45;&gt;ConfiguratorAttributeRadioButtonModule -->
<g id="edge1" class="edge">
<title>ConfiguratorAttributeRadioButtonComponent&#45;&gt;ConfiguratorAttributeRadioButtonModule</title>
<path fill="none" stroke="black" d="M1432,-85.08C1432,-106.12 1432,-137.8 1432,-137.8 1432,-137.8 725.27,-137.8 725.27,-137.8"/>
<polygon fill="black" stroke="black" points="725.27,-134.3 715.27,-137.8 725.27,-141.3 725.27,-134.3"/>
</g>
<!-- ConfiguratorAttributeRadioButtonComponent  -->
<g id="node9" class="node">
<title>ConfiguratorAttributeRadioButtonComponent </title>
<polygon fill="#fb8072" stroke="black" points="727.75,-214.8 448.25,-214.8 448.25,-178.8 727.75,-178.8 727.75,-214.8"/>
<text text-anchor="middle" x="588" y="-192.6" font-family="Times,serif" font-size="14.00">ConfiguratorAttributeRadioButtonComponent </text>
</g>
<!-- ConfiguratorAttributeRadioButtonModule&#45;&gt;ConfiguratorAttributeRadioButtonComponent  -->
<g id="edge8" class="edge">
<title>ConfiguratorAttributeRadioButtonModule&#45;&gt;ConfiguratorAttributeRadioButtonComponent </title>
<path fill="none" stroke="black" stroke-dasharray="5,2" d="M588,-149.91C588,-149.91 588,-168.79 588,-168.79"/>
<polygon fill="black" stroke="black" points="584.5,-168.79 588,-178.79 591.5,-168.79 584.5,-168.79"/>
</g>
<!-- ConfiguratorAttributeInputFieldModule -->
<g id="node3" class="node">
<title>ConfiguratorAttributeInputFieldModule</title>
<polygon fill="#8dd3c7" stroke="black" points="1270.25,-84.8 1267.25,-88.8 1246.25,-88.8 1243.25,-84.8 1029.75,-84.8 1029.75,-48.8 1270.25,-48.8 1270.25,-84.8"/>
<text text-anchor="middle" x="1150" y="-62.6" font-family="Times,serif" font-size="14.00">ConfiguratorAttributeInputFieldModule</text>
</g>
<!-- ConfiguratorAttributeInputFieldModule&#45;&gt;ConfiguratorAttributeRadioButtonModule -->
<g id="edge2" class="edge">
<title>ConfiguratorAttributeInputFieldModule&#45;&gt;ConfiguratorAttributeRadioButtonModule</title>
<path fill="none" stroke="black" d="M1150,-84.82C1150,-102.17 1150,-125.8 1150,-125.8 1150,-125.8 725.18,-125.8 725.18,-125.8"/>
<polygon fill="black" stroke="black" points="725.18,-122.3 715.18,-125.8 725.18,-129.3 725.18,-122.3"/>
</g>
<!-- ConfiguratorAttributeNumericInputFieldModule -->
<g id="node4" class="node">
<title>ConfiguratorAttributeNumericInputFieldModule</title>
<polygon fill="#8dd3c7" stroke="black" points="1011.72,-84.8 1008.72,-88.8 987.72,-88.8 984.72,-84.8 722.28,-84.8 722.28,-48.8 1011.72,-48.8 1011.72,-84.8"/>
<text text-anchor="middle" x="867" y="-62.6" font-family="Times,serif" font-size="14.00">ConfiguratorAttributeNumericInputFieldModule</text>
</g>
<!-- ConfiguratorAttributeNumericInputFieldModule&#45;&gt;ConfiguratorAttributeRadioButtonModule -->
<g id="edge3" class="edge">
<title>ConfiguratorAttributeNumericInputFieldModule&#45;&gt;ConfiguratorAttributeRadioButtonModule</title>
<path fill="none" stroke="black" d="M722.25,-66.8C714.22,-66.8 709.34,-66.8 709.34,-66.8 709.34,-66.8 709.34,-103.69 709.34,-103.69"/>
<polygon fill="black" stroke="black" points="705.85,-103.69 709.34,-113.69 712.85,-103.69 705.85,-103.69"/>
</g>
<!-- ConfiguratorAttributeQuantityModule -->
<g id="node5" class="node">
<title>ConfiguratorAttributeQuantityModule</title>
<polygon fill="#8dd3c7" stroke="black" points="703.91,-84.8 700.91,-88.8 679.91,-88.8 676.91,-84.8 472.09,-84.8 472.09,-48.8 703.91,-48.8 703.91,-84.8"/>
<text text-anchor="middle" x="588" y="-62.6" font-family="Times,serif" font-size="14.00">ConfiguratorAttributeQuantityModule</text>
</g>
<!-- ConfiguratorAttributeQuantityModule&#45;&gt;ConfiguratorAttributeRadioButtonModule -->
<g id="edge4" class="edge">
<title>ConfiguratorAttributeQuantityModule&#45;&gt;ConfiguratorAttributeRadioButtonModule</title>
<path fill="none" stroke="black" d="M588,-84.91C588,-84.91 588,-103.79 588,-103.79"/>
<polygon fill="black" stroke="black" points="584.5,-103.79 588,-113.79 591.5,-103.79 584.5,-103.79"/>
</g>
<!-- ConfiguratorPriceModule -->
<g id="node6" class="node">
<title>ConfiguratorPriceModule</title>
<polygon fill="#8dd3c7" stroke="black" points="454.14,-84.8 451.14,-88.8 430.14,-88.8 427.14,-84.8 293.86,-84.8 293.86,-48.8 454.14,-48.8 454.14,-84.8"/>
<text text-anchor="middle" x="374" y="-62.6" font-family="Times,serif" font-size="14.00">ConfiguratorPriceModule</text>
</g>
<!-- ConfiguratorPriceModule&#45;&gt;ConfiguratorAttributeRadioButtonModule -->
<g id="edge5" class="edge">
<title>ConfiguratorPriceModule&#45;&gt;ConfiguratorAttributeRadioButtonModule</title>
<path fill="none" stroke="black" d="M454.16,-66.8C461.73,-66.8 466.66,-66.8 466.66,-66.8 466.66,-66.8 466.66,-103.69 466.66,-103.69"/>
<polygon fill="black" stroke="black" points="463.16,-103.69 466.66,-113.69 470.16,-103.69 463.16,-103.69"/>
</g>
<!-- I18nModule -->
<g id="node7" class="node">
<title>I18nModule</title>
<polygon fill="#8dd3c7" stroke="black" points="275.71,-84.8 272.71,-88.8 251.71,-88.8 248.71,-84.8 190.29,-84.8 190.29,-48.8 275.71,-48.8 275.71,-84.8"/>
<text text-anchor="middle" x="233" y="-62.6" font-family="Times,serif" font-size="14.00">I18nModule</text>
</g>
<!-- I18nModule&#45;&gt;ConfiguratorAttributeRadioButtonModule -->
<g id="edge6" class="edge">
<title>I18nModule&#45;&gt;ConfiguratorAttributeRadioButtonModule</title>
<path fill="none" stroke="black" d="M233,-84.82C233,-102.17 233,-125.8 233,-125.8 233,-125.8 450.84,-125.8 450.84,-125.8"/>
<polygon fill="black" stroke="black" points="450.84,-129.3 460.84,-125.8 450.84,-122.3 450.84,-129.3"/>
</g>
<!-- KeyboardFocusModule -->
<g id="node8" class="node">
<title>KeyboardFocusModule</title>
<polygon fill="#8dd3c7" stroke="black" points="172.2,-84.8 169.2,-88.8 148.2,-88.8 145.2,-84.8 23.8,-84.8 23.8,-48.8 172.2,-48.8 172.2,-84.8"/>
<text text-anchor="middle" x="98" y="-62.6" font-family="Times,serif" font-size="14.00">KeyboardFocusModule</text>
</g>
<!-- KeyboardFocusModule&#45;&gt;ConfiguratorAttributeRadioButtonModule -->
<g id="edge7" class="edge">
<title>KeyboardFocusModule&#45;&gt;ConfiguratorAttributeRadioButtonModule</title>
<path fill="none" stroke="black" d="M98,-85.08C98,-106.12 98,-137.8 98,-137.8 98,-137.8 450.86,-137.8 450.86,-137.8"/>
<polygon fill="black" stroke="black" points="450.86,-141.3 460.86,-137.8 450.86,-134.3 450.86,-141.3"/>
</g>
</g>
</svg>
