<?xml version="1.0" encoding="UTF-8" standalone="no"?>
<!DOCTYPE svg PUBLIC "-//W3C//DTD SVG 1.1//EN"
 "http://www.w3.org/Graphics/SVG/1.1/DTD/svg11.dtd">
<!-- Generated by graphviz version 5.0.0 (20220707.1540)
 -->
<!-- Title: dependencies Pages: 1 -->
<svg width="799pt" height="174pt"
 viewBox="0.00 0.00 799.00 173.80" xmlns="http://www.w3.org/2000/svg" xmlns:xlink="http://www.w3.org/1999/xlink">
<g id="graph0" class="graph" transform="scale(1 1) rotate(0) translate(4 169.8)">
<title>dependencies</title>
<polygon fill="white" stroke="transparent" points="-4,4 -4,-169.8 795,-169.8 795,4 -4,4"/>
<text text-anchor="middle" x="395.5" y="-8.2" font-family="sans-serif" font-size="14.00">dependencies</text>
<g id="clust1" class="cluster">
<title>cluster_QuickOrderCoreModule</title>
<polygon fill="none" stroke="black" stroke-dasharray="1,5" points="8,-32.8 8,-157.8 783,-157.8 783,-32.8 8,-32.8"/>
</g>
<g id="clust6" class="cluster">
<title>cluster_QuickOrderCoreModule_providers</title>
<polygon fill="none" stroke="black" points="16,-40.8 16,-92.8 775,-92.8 775,-40.8 16,-40.8"/>
</g>
<!-- AsmBindCartService -->
<g id="node1" class="node">
<title>AsmBindCartService</title>
<ellipse fill="#fdb462" stroke="black" cx="673" cy="-66.8" rx="93.79" ry="18"/>
<text text-anchor="middle" x="673" y="-62.6" font-family="Times,serif" font-size="14.00">AsmBindCartService</text>
</g>
<!-- QuickOrderCoreModule -->
<g id="node4" class="node">
<title>QuickOrderCoreModule</title>
<polygon fill="#8dd3c7" stroke="black" points="527.63,-149.8 524.63,-153.8 503.63,-153.8 500.63,-149.8 374.37,-149.8 374.37,-113.8 527.63,-113.8 527.63,-149.8"/>
<text text-anchor="middle" x="451" y="-127.6" font-family="Times,serif" font-size="14.00">QuickOrderCoreModule</text>
</g>
<!-- AsmBindCartService&#45;&gt;QuickOrderCoreModule -->
<g id="edge1" class="edge">
<title>AsmBindCartService&#45;&gt;QuickOrderCoreModule</title>
<path fill="none" stroke="black" d="M673,-84.91C673,-104.14 673,-131.8 673,-131.8 673,-131.8 537.71,-131.8 537.71,-131.8"/>
<polygon fill="black" stroke="black" points="537.71,-128.3 527.71,-131.8 537.71,-135.3 537.71,-128.3"/>
</g>
<!-- AsmCustomerListService -->
<g id="node2" class="node">
<title>AsmCustomerListService</title>
<ellipse fill="#fdb462" stroke="black" cx="451" cy="-66.8" rx="110.63" ry="18"/>
<text text-anchor="middle" x="451" y="-62.6" font-family="Times,serif" font-size="14.00">AsmCustomerListService</text>
</g>
<!-- AsmCustomerListService&#45;&gt;QuickOrderCoreModule -->
<g id="edge2" class="edge">
<title>AsmCustomerListService&#45;&gt;QuickOrderCoreModule</title>
<path fill="none" stroke="black" d="M451,-84.91C451,-84.91 451,-103.79 451,-103.79"/>
<polygon fill="black" stroke="black" points="447.5,-103.79 451,-113.79 454.5,-103.79 447.5,-103.79"/>
</g>
<!-- QuickOrderStatePersistenceService -->
<g id="node3" class="node">
<title>QuickOrderStatePersistenceService</title>
<ellipse fill="#fdb462" stroke="black" cx="173" cy="-66.8" rx="148.73" ry="18"/>
<text text-anchor="middle" x="173" y="-62.6" font-family="Times,serif" font-size="14.00">QuickOrderStatePersistenceService</text>
</g>
<!-- QuickOrderStatePersistenceService&#45;&gt;QuickOrderCoreModule -->
<g id="edge3" class="edge">
<title>QuickOrderStatePersistenceService&#45;&gt;QuickOrderCoreModule</title>
<path fill="none" stroke="black" d="M173,-84.91C173,-104.14 173,-131.8 173,-131.8 173,-131.8 364.3,-131.8 364.3,-131.8"/>
<polygon fill="black" stroke="black" points="364.3,-135.3 374.3,-131.8 364.3,-128.3 364.3,-135.3"/>
</g>
</g>
</svg>
