<?xml version="1.0" encoding="UTF-8" standalone="no"?>
<!DOCTYPE svg PUBLIC "-//W3C//DTD SVG 1.1//EN"
 "http://www.w3.org/Graphics/SVG/1.1/DTD/svg11.dtd">
<!-- Generated by graphviz version 5.0.0 (20220707.1540)
 -->
<!-- Title: dependencies Pages: 1 -->
<svg width="574pt" height="174pt"
 viewBox="0.00 0.00 574.00 173.80" xmlns="http://www.w3.org/2000/svg" xmlns:xlink="http://www.w3.org/1999/xlink">
<g id="graph0" class="graph" transform="scale(1 1) rotate(0) translate(4 169.8)">
<title>dependencies</title>
<polygon fill="white" stroke="transparent" points="-4,4 -4,-169.8 570,-169.8 570,4 -4,4"/>
<text text-anchor="middle" x="283" y="-8.2" font-family="sans-serif" font-size="14.00">dependencies</text>
<g id="clust1" class="cluster">
<title>cluster_UnitAddressModule</title>
<polygon fill="none" stroke="black" stroke-dasharray="1,5" points="8,-32.8 8,-157.8 558,-157.8 558,-32.8 8,-32.8"/>
</g>
<g id="clust3" class="cluster">
<title>cluster_UnitAddressModule_imports</title>
<polygon fill="none" stroke="black" points="16,-40.8 16,-92.8 550,-92.8 550,-40.8 16,-40.8"/>
</g>
<!-- UnitAddressDetailsModule -->
<g id="node1" class="node">
<title>UnitAddressDetailsModule</title>
<polygon fill="#8dd3c7" stroke="black" points="541.98,-84.8 538.98,-88.8 517.98,-88.8 514.98,-84.8 372.02,-84.8 372.02,-48.8 541.98,-48.8 541.98,-84.8"/>
<text text-anchor="middle" x="457" y="-62.6" font-family="Times,serif" font-size="14.00">UnitAddressDetailsModule</text>
</g>
<!-- UnitAddressModule -->
<g id="node4" class="node">
<title>UnitAddressModule</title>
<polygon fill="#8dd3c7" stroke="black" points="339.32,-149.8 336.32,-153.8 315.32,-153.8 312.32,-149.8 208.68,-149.8 208.68,-113.8 339.32,-113.8 339.32,-149.8"/>
<text text-anchor="middle" x="274" y="-127.6" font-family="Times,serif" font-size="14.00">UnitAddressModule</text>
</g>
<!-- UnitAddressDetailsModule&#45;&gt;UnitAddressModule -->
<g id="edge1" class="edge">
<title>UnitAddressDetailsModule&#45;&gt;UnitAddressModule</title>
<path fill="none" stroke="black" d="M457,-84.91C457,-104.14 457,-131.8 457,-131.8 457,-131.8 349.29,-131.8 349.29,-131.8"/>
<polygon fill="black" stroke="black" points="349.29,-128.3 339.29,-131.8 349.29,-135.3 349.29,-128.3"/>
</g>
<!-- UnitAddressFormModule -->
<g id="node2" class="node">
<title>UnitAddressFormModule</title>
<polygon fill="#8dd3c7" stroke="black" points="354.16,-84.8 351.16,-88.8 330.16,-88.8 327.16,-84.8 193.84,-84.8 193.84,-48.8 354.16,-48.8 354.16,-84.8"/>
<text text-anchor="middle" x="274" y="-62.6" font-family="Times,serif" font-size="14.00">UnitAddressFormModule</text>
</g>
<!-- UnitAddressFormModule&#45;&gt;UnitAddressModule -->
<g id="edge2" class="edge">
<title>UnitAddressFormModule&#45;&gt;UnitAddressModule</title>
<path fill="none" stroke="black" d="M274,-84.91C274,-84.91 274,-103.79 274,-103.79"/>
<polygon fill="black" stroke="black" points="270.5,-103.79 274,-113.79 277.5,-103.79 270.5,-103.79"/>
</g>
<!-- UnitAddressListModule -->
<g id="node3" class="node">
<title>UnitAddressListModule</title>
<polygon fill="#8dd3c7" stroke="black" points="176.1,-84.8 173.1,-88.8 152.1,-88.8 149.1,-84.8 23.9,-84.8 23.9,-48.8 176.1,-48.8 176.1,-84.8"/>
<text text-anchor="middle" x="100" y="-62.6" font-family="Times,serif" font-size="14.00">UnitAddressListModule</text>
</g>
<!-- UnitAddressListModule&#45;&gt;UnitAddressModule -->
<g id="edge3" class="edge">
<title>UnitAddressListModule&#45;&gt;UnitAddressModule</title>
<path fill="none" stroke="black" d="M100,-84.91C100,-104.14 100,-131.8 100,-131.8 100,-131.8 198.71,-131.8 198.71,-131.8"/>
<polygon fill="black" stroke="black" points="198.71,-135.3 208.71,-131.8 198.71,-128.3 198.71,-135.3"/>
</g>
</g>
</svg>
