<?xml version="1.0" encoding="UTF-8" standalone="no"?>
<!DOCTYPE svg PUBLIC "-//W3C//DTD SVG 1.1//EN"
 "http://www.w3.org/Graphics/SVG/1.1/DTD/svg11.dtd">
<!-- Generated by graphviz version 5.0.0 (20220707.1540)
 -->
<!-- Title: dependencies Pages: 1 -->
<svg width="743pt" height="247pt"
 viewBox="0.00 0.00 743.00 246.80" xmlns="http://www.w3.org/2000/svg" xmlns:xlink="http://www.w3.org/1999/xlink">
<g id="graph0" class="graph" transform="scale(1 1) rotate(0) translate(4 242.8)">
<title>dependencies</title>
<polygon fill="white" stroke="transparent" points="-4,4 -4,-242.8 739,-242.8 739,4 -4,4"/>
<text text-anchor="middle" x="367.5" y="-8.2" font-family="sans-serif" font-size="14.00">dependencies</text>
<g id="clust1" class="cluster">
<title>cluster_OrderHistoryModule</title>
<polygon fill="none" stroke="black" stroke-dasharray="1,5" points="8,-32.8 8,-230.8 727,-230.8 727,-32.8 8,-32.8"/>
</g>
<g id="clust4" class="cluster">
<title>cluster_OrderHistoryModule_imports</title>
<polygon fill="none" stroke="black" points="196,-40.8 196,-92.8 719,-92.8 719,-40.8 196,-40.8"/>
</g>
<g id="clust2" class="cluster">
<title>cluster_OrderHistoryModule_declarations</title>
<polygon fill="none" stroke="black" points="16,-40.8 16,-92.8 188,-92.8 188,-40.8 16,-40.8"/>
</g>
<g id="clust5" class="cluster">
<title>cluster_OrderHistoryModule_exports</title>
<polygon fill="none" stroke="black" points="284,-170.8 284,-222.8 460,-222.8 460,-170.8 284,-170.8"/>
</g>
<!-- OrderHistoryComponent -->
<g id="node1" class="node">
<title>OrderHistoryComponent</title>
<polygon fill="#ffffb3" stroke="black" points="179.98,-84.8 24.02,-84.8 24.02,-48.8 179.98,-48.8 179.98,-84.8"/>
<text text-anchor="middle" x="102" y="-62.6" font-family="Times,serif" font-size="14.00">OrderHistoryComponent</text>
</g>
<!-- OrderHistoryModule -->
<g id="node2" class="node">
<title>OrderHistoryModule</title>
<polygon fill="#8dd3c7" stroke="black" points="439.2,-149.8 436.2,-153.8 415.2,-153.8 412.2,-149.8 304.8,-149.8 304.8,-113.8 439.2,-113.8 439.2,-149.8"/>
<text text-anchor="middle" x="372" y="-127.6" font-family="Times,serif" font-size="14.00">OrderHistoryModule</text>
</g>
<!-- OrderHistoryComponent&#45;&gt;OrderHistoryModule -->
<g id="edge1" class="edge">
<title>OrderHistoryComponent&#45;&gt;OrderHistoryModule</title>
<path fill="none" stroke="black" d="M102,-85.08C102,-106.12 102,-137.8 102,-137.8 102,-137.8 294.56,-137.8 294.56,-137.8"/>
<polygon fill="black" stroke="black" points="294.56,-141.3 304.56,-137.8 294.56,-134.3 294.56,-141.3"/>
</g>
<!-- OrderHistoryComponent  -->
<g id="node7" class="node">
<title>OrderHistoryComponent </title>
<polygon fill="#fb8072" stroke="black" points="451.98,-214.8 292.02,-214.8 292.02,-178.8 451.98,-178.8 451.98,-214.8"/>
<text text-anchor="middle" x="372" y="-192.6" font-family="Times,serif" font-size="14.00">OrderHistoryComponent </text>
</g>
<!-- OrderHistoryModule&#45;&gt;OrderHistoryComponent  -->
<g id="edge6" class="edge">
<title>OrderHistoryModule&#45;&gt;OrderHistoryComponent </title>
<path fill="none" stroke="black" stroke-dasharray="5,2" d="M372,-149.91C372,-149.91 372,-168.79 372,-168.79"/>
<polygon fill="black" stroke="black" points="368.5,-168.79 372,-178.79 375.5,-168.79 368.5,-168.79"/>
</g>
<!-- FeaturesConfigModule -->
<g id="node3" class="node">
<title>FeaturesConfigModule</title>
<polygon fill="#8dd3c7" stroke="black" points="710.87,-84.8 707.87,-88.8 686.87,-88.8 683.87,-84.8 565.13,-84.8 565.13,-48.8 710.87,-48.8 710.87,-84.8"/>
<text text-anchor="middle" x="638" y="-62.6" font-family="Times,serif" font-size="14.00">FeaturesConfigModule</text>
</g>
<!-- FeaturesConfigModule&#45;&gt;OrderHistoryModule -->
<g id="edge2" class="edge">
<title>FeaturesConfigModule&#45;&gt;OrderHistoryModule</title>
<path fill="none" stroke="black" d="M638,-85.08C638,-106.12 638,-137.8 638,-137.8 638,-137.8 449.12,-137.8 449.12,-137.8"/>
<polygon fill="black" stroke="black" points="449.12,-134.3 439.12,-137.8 449.12,-141.3 449.12,-134.3"/>
</g>
<!-- I18nModule -->
<g id="node4" class="node">
<title>I18nModule</title>
<polygon fill="#8dd3c7" stroke="black" points="546.71,-84.8 543.71,-88.8 522.71,-88.8 519.71,-84.8 461.29,-84.8 461.29,-48.8 546.71,-48.8 546.71,-84.8"/>
<text text-anchor="middle" x="504" y="-62.6" font-family="Times,serif" font-size="14.00">I18nModule</text>
</g>
<!-- I18nModule&#45;&gt;OrderHistoryModule -->
<g id="edge3" class="edge">
<title>I18nModule&#45;&gt;OrderHistoryModule</title>
<path fill="none" stroke="black" d="M504,-84.82C504,-102.17 504,-125.8 504,-125.8 504,-125.8 449.16,-125.8 449.16,-125.8"/>
<polygon fill="black" stroke="black" points="449.16,-122.3 439.16,-125.8 449.16,-129.3 449.16,-122.3"/>
</g>
<!-- ListNavigationModule -->
<g id="node5" class="node">
<title>ListNavigationModule</title>
<polygon fill="#8dd3c7" stroke="black" points="443.54,-84.8 440.54,-88.8 419.54,-88.8 416.54,-84.8 300.46,-84.8 300.46,-48.8 443.54,-48.8 443.54,-84.8"/>
<text text-anchor="middle" x="372" y="-62.6" font-family="Times,serif" font-size="14.00">ListNavigationModule</text>
</g>
<!-- ListNavigationModule&#45;&gt;OrderHistoryModule -->
<g id="edge4" class="edge">
<title>ListNavigationModule&#45;&gt;OrderHistoryModule</title>
<path fill="none" stroke="black" d="M372,-84.91C372,-84.91 372,-103.79 372,-103.79"/>
<polygon fill="black" stroke="black" points="368.5,-103.79 372,-113.79 375.5,-103.79 368.5,-103.79"/>
</g>
<!-- UrlModule -->
<g id="node6" class="node">
<title>UrlModule</title>
<polygon fill="#8dd3c7" stroke="black" points="282.21,-84.8 279.21,-88.8 258.21,-88.8 255.21,-84.8 203.79,-84.8 203.79,-48.8 282.21,-48.8 282.21,-84.8"/>
<text text-anchor="middle" x="243" y="-62.6" font-family="Times,serif" font-size="14.00">UrlModule</text>
</g>
<!-- UrlModule&#45;&gt;OrderHistoryModule -->
<g id="edge5" class="edge">
<title>UrlModule&#45;&gt;OrderHistoryModule</title>
<path fill="none" stroke="black" d="M243,-84.82C243,-102.17 243,-125.8 243,-125.8 243,-125.8 294.86,-125.8 294.86,-125.8"/>
<polygon fill="black" stroke="black" points="294.86,-129.3 304.86,-125.8 294.86,-122.3 294.86,-129.3"/>
</g>
</g>
</svg>
