<?xml version="1.0" encoding="UTF-8" standalone="no"?>
<!DOCTYPE svg PUBLIC "-//W3C//DTD SVG 1.1//EN"
 "http://www.w3.org/Graphics/SVG/1.1/DTD/svg11.dtd">
<!-- Generated by graphviz version 5.0.0 (20220707.1540)
 -->
<!-- Title: dependencies Pages: 1 -->
<svg width="743pt" height="247pt"
 viewBox="0.00 0.00 743.00 246.80" xmlns="http://www.w3.org/2000/svg" xmlns:xlink="http://www.w3.org/1999/xlink">
<g id="graph0" class="graph" transform="scale(1 1) rotate(0) translate(4 242.8)">
<title>dependencies</title>
<polygon fill="white" stroke="transparent" points="-4,4 -4,-242.8 739,-242.8 739,4 -4,4"/>
<text text-anchor="middle" x="367.5" y="-8.2" font-family="sans-serif" font-size="14.00">dependencies</text>
<g id="clust1" class="cluster">
<title>cluster_OrderHistoryModule</title>
<polygon fill="none" stroke="black" stroke-dasharray="1,5" points="8,-32.8 8,-230.8 727,-230.8 727,-32.8 8,-32.8"/>
</g>
<g id="clust5" class="cluster">
<title>cluster_OrderHistoryModule_exports</title>
<polygon fill="none" stroke="black" points="236,-170.8 236,-222.8 412,-222.8 412,-170.8 236,-170.8"/>
</g>
<g id="clust2" class="cluster">
<title>cluster_OrderHistoryModule_declarations</title>
<polygon fill="none" stroke="black" points="547,-40.8 547,-92.8 719,-92.8 719,-40.8 547,-40.8"/>
</g>
<g id="clust4" class="cluster">
<title>cluster_OrderHistoryModule_imports</title>
<polygon fill="none" stroke="black" points="16,-40.8 16,-92.8 539,-92.8 539,-40.8 16,-40.8"/>
</g>
<!-- OrderHistoryComponent -->
<g id="node1" class="node">
<title>OrderHistoryComponent</title>
<polygon fill="#ffffb3" stroke="black" points="710.98,-84.8 555.02,-84.8 555.02,-48.8 710.98,-48.8 710.98,-84.8"/>
<text text-anchor="middle" x="633" y="-62.6" font-family="Times,serif" font-size="14.00">OrderHistoryComponent</text>
</g>
<!-- OrderHistoryModule -->
<g id="node2" class="node">
<title>OrderHistoryModule</title>
<polygon fill="#8dd3c7" stroke="black" points="391.2,-149.8 388.2,-153.8 367.2,-153.8 364.2,-149.8 256.8,-149.8 256.8,-113.8 391.2,-113.8 391.2,-149.8"/>
<text text-anchor="middle" x="324" y="-127.6" font-family="Times,serif" font-size="14.00">OrderHistoryModule</text>
</g>
<!-- OrderHistoryComponent&#45;&gt;OrderHistoryModule -->
<g id="edge1" class="edge">
<title>OrderHistoryComponent&#45;&gt;OrderHistoryModule</title>
<path fill="none" stroke="black" d="M633,-85.08C633,-106.12 633,-137.8 633,-137.8 633,-137.8 401.43,-137.8 401.43,-137.8"/>
<polygon fill="black" stroke="black" points="401.43,-134.3 391.43,-137.8 401.43,-141.3 401.43,-134.3"/>
</g>
<!-- OrderHistoryComponent  -->
<g id="node7" class="node">
<title>OrderHistoryComponent </title>
<polygon fill="#fb8072" stroke="black" points="403.98,-214.8 244.02,-214.8 244.02,-178.8 403.98,-178.8 403.98,-214.8"/>
<text text-anchor="middle" x="324" y="-192.6" font-family="Times,serif" font-size="14.00">OrderHistoryComponent </text>
</g>
<!-- OrderHistoryModule&#45;&gt;OrderHistoryComponent  -->
<g id="edge6" class="edge">
<title>OrderHistoryModule&#45;&gt;OrderHistoryComponent </title>
<path fill="none" stroke="black" stroke-dasharray="5,2" d="M324,-149.91C324,-149.91 324,-168.79 324,-168.79"/>
<polygon fill="black" stroke="black" points="320.5,-168.79 324,-178.79 327.5,-168.79 320.5,-168.79"/>
</g>
<!-- FeaturesConfigModule -->
<g id="node3" class="node">
<title>FeaturesConfigModule</title>
<polygon fill="#8dd3c7" stroke="black" points="530.87,-84.8 527.87,-88.8 506.87,-88.8 503.87,-84.8 385.13,-84.8 385.13,-48.8 530.87,-48.8 530.87,-84.8"/>
<text text-anchor="middle" x="458" y="-62.6" font-family="Times,serif" font-size="14.00">FeaturesConfigModule</text>
</g>
<!-- FeaturesConfigModule&#45;&gt;OrderHistoryModule -->
<g id="edge2" class="edge">
<title>FeaturesConfigModule&#45;&gt;OrderHistoryModule</title>
<path fill="none" stroke="black" d="M397.42,-84.82C397.42,-102.17 397.42,-125.8 397.42,-125.8 397.42,-125.8 396.79,-125.8 396.79,-125.8"/>
<polygon fill="black" stroke="black" points="401.16,-122.3 391.16,-125.8 401.16,-129.3 401.16,-122.3"/>
</g>
<!-- I18nModule -->
<g id="node4" class="node">
<title>I18nModule</title>
<polygon fill="#8dd3c7" stroke="black" points="366.71,-84.8 363.71,-88.8 342.71,-88.8 339.71,-84.8 281.29,-84.8 281.29,-48.8 366.71,-48.8 366.71,-84.8"/>
<text text-anchor="middle" x="324" y="-62.6" font-family="Times,serif" font-size="14.00">I18nModule</text>
</g>
<!-- I18nModule&#45;&gt;OrderHistoryModule -->
<g id="edge3" class="edge">
<title>I18nModule&#45;&gt;OrderHistoryModule</title>
<path fill="none" stroke="black" d="M324,-84.91C324,-84.91 324,-103.79 324,-103.79"/>
<polygon fill="black" stroke="black" points="320.5,-103.79 324,-113.79 327.5,-103.79 320.5,-103.79"/>
</g>
<!-- ListNavigationModule -->
<g id="node5" class="node">
<title>ListNavigationModule</title>
<polygon fill="#8dd3c7" stroke="black" points="263.54,-84.8 260.54,-88.8 239.54,-88.8 236.54,-84.8 120.46,-84.8 120.46,-48.8 263.54,-48.8 263.54,-84.8"/>
<text text-anchor="middle" x="192" y="-62.6" font-family="Times,serif" font-size="14.00">ListNavigationModule</text>
</g>
<!-- ListNavigationModule&#45;&gt;OrderHistoryModule -->
<g id="edge4" class="edge">
<title>ListNavigationModule&#45;&gt;OrderHistoryModule</title>
<path fill="none" stroke="black" d="M250.58,-85.08C250.58,-106.12 250.58,-137.8 250.58,-137.8 250.58,-137.8 251.21,-137.8 251.21,-137.8"/>
<polygon fill="black" stroke="black" points="246.84,-141.3 256.84,-137.8 246.84,-134.3 246.84,-141.3"/>
</g>
<!-- UrlModule -->
<g id="node6" class="node">
<title>UrlModule</title>
<polygon fill="#8dd3c7" stroke="black" points="102.21,-84.8 99.21,-88.8 78.21,-88.8 75.21,-84.8 23.79,-84.8 23.79,-48.8 102.21,-48.8 102.21,-84.8"/>
<text text-anchor="middle" x="63" y="-62.6" font-family="Times,serif" font-size="14.00">UrlModule</text>
</g>
<!-- UrlModule&#45;&gt;OrderHistoryModule -->
<g id="edge5" class="edge">
<title>UrlModule&#45;&gt;OrderHistoryModule</title>
<path fill="none" stroke="black" d="M63,-84.82C63,-102.17 63,-125.8 63,-125.8 63,-125.8 246.79,-125.8 246.79,-125.8"/>
<polygon fill="black" stroke="black" points="246.79,-129.3 256.79,-125.8 246.79,-122.3 246.79,-129.3"/>
</g>
</g>
</svg>
