<?xml version="1.0" encoding="UTF-8" standalone="no"?>
<!DOCTYPE svg PUBLIC "-//W3C//DTD SVG 1.1//EN"
 "http://www.w3.org/Graphics/SVG/1.1/DTD/svg11.dtd">
<!-- Generated by graphviz version 5.0.0 (20220707.1540)
 -->
<!-- Title: dependencies Pages: 1 -->
<svg width="846pt" height="174pt"
 viewBox="0.00 0.00 846.00 173.80" xmlns="http://www.w3.org/2000/svg" xmlns:xlink="http://www.w3.org/1999/xlink">
<g id="graph0" class="graph" transform="scale(1 1) rotate(0) translate(4 169.8)">
<title>dependencies</title>
<polygon fill="white" stroke="transparent" points="-4,4 -4,-169.8 842,-169.8 842,4 -4,4"/>
<text text-anchor="middle" x="419" y="-8.2" font-family="sans-serif" font-size="14.00">dependencies</text>
<g id="clust1" class="cluster">
<title>cluster_UpdateProfileModule</title>
<polygon fill="none" stroke="black" stroke-dasharray="1,5" points="8,-32.8 8,-157.8 830,-157.8 830,-32.8 8,-32.8"/>
</g>
<g id="clust4" class="cluster">
<title>cluster_UpdateProfileModule_imports</title>
<polygon fill="none" stroke="black" points="200,-40.8 200,-92.8 822,-92.8 822,-40.8 200,-40.8"/>
</g>
<g id="clust2" class="cluster">
<title>cluster_UpdateProfileModule_declarations</title>
<polygon fill="none" stroke="black" points="16,-40.8 16,-92.8 192,-92.8 192,-40.8 16,-40.8"/>
</g>
<!-- UpdateProfileComponent -->
<g id="node1" class="node">
<title>UpdateProfileComponent</title>
<polygon fill="#ffffb3" stroke="black" points="183.86,-84.8 24.14,-84.8 24.14,-48.8 183.86,-48.8 183.86,-84.8"/>
<text text-anchor="middle" x="104" y="-62.6" font-family="Times,serif" font-size="14.00">UpdateProfileComponent</text>
</g>
<!-- UpdateProfileModule -->
<g id="node2" class="node">
<title>UpdateProfileModule</title>
<polygon fill="#8dd3c7" stroke="black" points="495.08,-149.8 492.08,-153.8 471.08,-153.8 468.08,-149.8 356.92,-149.8 356.92,-113.8 495.08,-113.8 495.08,-149.8"/>
<text text-anchor="middle" x="426" y="-127.6" font-family="Times,serif" font-size="14.00">UpdateProfileModule</text>
</g>
<!-- UpdateProfileComponent&#45;&gt;UpdateProfileModule -->
<g id="edge1" class="edge">
<title>UpdateProfileComponent&#45;&gt;UpdateProfileModule</title>
<path fill="none" stroke="black" d="M104,-85.08C104,-106.12 104,-137.8 104,-137.8 104,-137.8 346.92,-137.8 346.92,-137.8"/>
<polygon fill="black" stroke="black" points="346.92,-141.3 356.92,-137.8 346.92,-134.3 346.92,-141.3"/>
</g>
<!-- FormErrorsModule -->
<g id="node3" class="node">
<title>FormErrorsModule</title>
<polygon fill="#8dd3c7" stroke="black" points="814.38,-84.8 811.38,-88.8 790.38,-88.8 787.38,-84.8 689.62,-84.8 689.62,-48.8 814.38,-48.8 814.38,-84.8"/>
<text text-anchor="middle" x="752" y="-62.6" font-family="Times,serif" font-size="14.00">FormErrorsModule</text>
</g>
<!-- FormErrorsModule&#45;&gt;UpdateProfileModule -->
<g id="edge2" class="edge">
<title>FormErrorsModule&#45;&gt;UpdateProfileModule</title>
<path fill="none" stroke="black" d="M752,-85.08C752,-106.12 752,-137.8 752,-137.8 752,-137.8 505.14,-137.8 505.14,-137.8"/>
<polygon fill="black" stroke="black" points="505.14,-134.3 495.14,-137.8 505.14,-141.3 505.14,-134.3"/>
</g>
<!-- I18nModule -->
<g id="node4" class="node">
<title>I18nModule</title>
<polygon fill="#8dd3c7" stroke="black" points="671.71,-84.8 668.71,-88.8 647.71,-88.8 644.71,-84.8 586.29,-84.8 586.29,-48.8 671.71,-48.8 671.71,-84.8"/>
<text text-anchor="middle" x="629" y="-62.6" font-family="Times,serif" font-size="14.00">I18nModule</text>
</g>
<!-- I18nModule&#45;&gt;UpdateProfileModule -->
<g id="edge3" class="edge">
<title>I18nModule&#45;&gt;UpdateProfileModule</title>
<path fill="none" stroke="black" d="M629,-84.82C629,-102.17 629,-125.8 629,-125.8 629,-125.8 505.29,-125.8 505.29,-125.8"/>
<polygon fill="black" stroke="black" points="505.29,-122.3 495.29,-125.8 505.29,-129.3 505.29,-122.3"/>
</g>
<!-- NgSelectA11yModule -->
<g id="node5" class="node">
<title>NgSelectA11yModule</title>
<polygon fill="#8dd3c7" stroke="black" points="567.98,-84.8 564.98,-88.8 543.98,-88.8 540.98,-84.8 426.02,-84.8 426.02,-48.8 567.98,-48.8 567.98,-84.8"/>
<text text-anchor="middle" x="497" y="-62.6" font-family="Times,serif" font-size="14.00">NgSelectA11yModule</text>
</g>
<!-- NgSelectA11yModule&#45;&gt;UpdateProfileModule -->
<g id="edge4" class="edge">
<title>NgSelectA11yModule&#45;&gt;UpdateProfileModule</title>
<path fill="none" stroke="black" d="M460.53,-84.91C460.53,-84.91 460.53,-103.79 460.53,-103.79"/>
<polygon fill="black" stroke="black" points="457.03,-103.79 460.53,-113.79 464.03,-103.79 457.03,-103.79"/>
</g>
<!-- SpinnerModule -->
<g id="node6" class="node">
<title>SpinnerModule</title>
<polygon fill="#8dd3c7" stroke="black" points="407.6,-84.8 404.6,-88.8 383.6,-88.8 380.6,-84.8 304.4,-84.8 304.4,-48.8 407.6,-48.8 407.6,-84.8"/>
<text text-anchor="middle" x="356" y="-62.6" font-family="Times,serif" font-size="14.00">SpinnerModule</text>
</g>
<!-- SpinnerModule&#45;&gt;UpdateProfileModule -->
<g id="edge5" class="edge">
<title>SpinnerModule&#45;&gt;UpdateProfileModule</title>
<path fill="none" stroke="black" d="M382.26,-84.91C382.26,-84.91 382.26,-103.79 382.26,-103.79"/>
<polygon fill="black" stroke="black" points="378.76,-103.79 382.26,-113.79 385.76,-103.79 378.76,-103.79"/>
</g>
<!-- UrlModule -->
<g id="node7" class="node">
<title>UrlModule</title>
<polygon fill="#8dd3c7" stroke="black" points="286.21,-84.8 283.21,-88.8 262.21,-88.8 259.21,-84.8 207.79,-84.8 207.79,-48.8 286.21,-48.8 286.21,-84.8"/>
<text text-anchor="middle" x="247" y="-62.6" font-family="Times,serif" font-size="14.00">UrlModule</text>
</g>
<!-- UrlModule&#45;&gt;UpdateProfileModule -->
<g id="edge6" class="edge">
<title>UrlModule&#45;&gt;UpdateProfileModule</title>
<path fill="none" stroke="black" d="M247,-84.82C247,-102.17 247,-125.8 247,-125.8 247,-125.8 346.79,-125.8 346.79,-125.8"/>
<polygon fill="black" stroke="black" points="346.79,-129.3 356.79,-125.8 346.79,-122.3 346.79,-129.3"/>
</g>
</g>
</svg>
