<?xml version="1.0" encoding="UTF-8" standalone="no"?>
<!DOCTYPE svg PUBLIC "-//W3C//DTD SVG 1.1//EN"
 "http://www.w3.org/Graphics/SVG/1.1/DTD/svg11.dtd">
<!-- Generated by graphviz version 5.0.0 (20220707.1540)
 -->
<!-- Title: dependencies Pages: 1 -->
<svg width="846pt" height="174pt"
 viewBox="0.00 0.00 846.00 173.80" xmlns="http://www.w3.org/2000/svg" xmlns:xlink="http://www.w3.org/1999/xlink">
<g id="graph0" class="graph" transform="scale(1 1) rotate(0) translate(4 169.8)">
<title>dependencies</title>
<polygon fill="white" stroke="transparent" points="-4,4 -4,-169.8 842,-169.8 842,4 -4,4"/>
<text text-anchor="middle" x="419" y="-8.2" font-family="sans-serif" font-size="14.00">dependencies</text>
<g id="clust1" class="cluster">
<title>cluster_UpdateProfileModule</title>
<polygon fill="none" stroke="black" stroke-dasharray="1,5" points="8,-32.8 8,-157.8 830,-157.8 830,-32.8 8,-32.8"/>
</g>
<g id="clust2" class="cluster">
<title>cluster_UpdateProfileModule_declarations</title>
<polygon fill="none" stroke="black" points="646,-40.8 646,-92.8 822,-92.8 822,-40.8 646,-40.8"/>
</g>
<g id="clust4" class="cluster">
<title>cluster_UpdateProfileModule_imports</title>
<polygon fill="none" stroke="black" points="16,-40.8 16,-92.8 638,-92.8 638,-40.8 16,-40.8"/>
</g>
<!-- UpdateProfileComponent -->
<g id="node1" class="node">
<title>UpdateProfileComponent</title>
<polygon fill="#ffffb3" stroke="black" points="813.86,-84.8 654.14,-84.8 654.14,-48.8 813.86,-48.8 813.86,-84.8"/>
<text text-anchor="middle" x="734" y="-62.6" font-family="Times,serif" font-size="14.00">UpdateProfileComponent</text>
</g>
<!-- UpdateProfileModule -->
<g id="node2" class="node">
<title>UpdateProfileModule</title>
<polygon fill="#8dd3c7" stroke="black" points="448.08,-149.8 445.08,-153.8 424.08,-153.8 421.08,-149.8 309.92,-149.8 309.92,-113.8 448.08,-113.8 448.08,-149.8"/>
<text text-anchor="middle" x="379" y="-127.6" font-family="Times,serif" font-size="14.00">UpdateProfileModule</text>
</g>
<!-- UpdateProfileComponent&#45;&gt;UpdateProfileModule -->
<g id="edge1" class="edge">
<title>UpdateProfileComponent&#45;&gt;UpdateProfileModule</title>
<path fill="none" stroke="black" d="M734,-85.08C734,-106.12 734,-137.8 734,-137.8 734,-137.8 458.29,-137.8 458.29,-137.8"/>
<polygon fill="black" stroke="black" points="458.29,-134.3 448.29,-137.8 458.29,-141.3 458.29,-134.3"/>
</g>
<!-- FormErrorsModule -->
<g id="node3" class="node">
<title>FormErrorsModule</title>
<polygon fill="#8dd3c7" stroke="black" points="630.38,-84.8 627.38,-88.8 606.38,-88.8 603.38,-84.8 505.62,-84.8 505.62,-48.8 630.38,-48.8 630.38,-84.8"/>
<text text-anchor="middle" x="568" y="-62.6" font-family="Times,serif" font-size="14.00">FormErrorsModule</text>
</g>
<!-- FormErrorsModule&#45;&gt;UpdateProfileModule -->
<g id="edge2" class="edge">
<title>FormErrorsModule&#45;&gt;UpdateProfileModule</title>
<path fill="none" stroke="black" d="M568,-84.82C568,-102.17 568,-125.8 568,-125.8 568,-125.8 458.3,-125.8 458.3,-125.8"/>
<polygon fill="black" stroke="black" points="458.3,-122.3 448.3,-125.8 458.3,-129.3 458.3,-122.3"/>
</g>
<!-- I18nModule -->
<g id="node4" class="node">
<title>I18nModule</title>
<polygon fill="#8dd3c7" stroke="black" points="487.71,-84.8 484.71,-88.8 463.71,-88.8 460.71,-84.8 402.29,-84.8 402.29,-48.8 487.71,-48.8 487.71,-84.8"/>
<text text-anchor="middle" x="445" y="-62.6" font-family="Times,serif" font-size="14.00">I18nModule</text>
</g>
<!-- I18nModule&#45;&gt;UpdateProfileModule -->
<g id="edge3" class="edge">
<title>I18nModule&#45;&gt;UpdateProfileModule</title>
<path fill="none" stroke="black" d="M425.22,-84.91C425.22,-84.91 425.22,-103.79 425.22,-103.79"/>
<polygon fill="black" stroke="black" points="421.72,-103.79 425.22,-113.79 428.72,-103.79 421.72,-103.79"/>
</g>
<!-- NgSelectA11yModule -->
<g id="node5" class="node">
<title>NgSelectA11yModule</title>
<polygon fill="#8dd3c7" stroke="black" points="383.98,-84.8 380.98,-88.8 359.98,-88.8 356.98,-84.8 242.02,-84.8 242.02,-48.8 383.98,-48.8 383.98,-84.8"/>
<text text-anchor="middle" x="313" y="-62.6" font-family="Times,serif" font-size="14.00">NgSelectA11yModule</text>
</g>
<!-- NgSelectA11yModule&#45;&gt;UpdateProfileModule -->
<g id="edge4" class="edge">
<title>NgSelectA11yModule&#45;&gt;UpdateProfileModule</title>
<path fill="none" stroke="black" d="M346.97,-84.91C346.97,-84.91 346.97,-103.79 346.97,-103.79"/>
<polygon fill="black" stroke="black" points="343.47,-103.79 346.97,-113.79 350.47,-103.79 343.47,-103.79"/>
</g>
<!-- SpinnerModule -->
<g id="node6" class="node">
<title>SpinnerModule</title>
<polygon fill="#8dd3c7" stroke="black" points="223.6,-84.8 220.6,-88.8 199.6,-88.8 196.6,-84.8 120.4,-84.8 120.4,-48.8 223.6,-48.8 223.6,-84.8"/>
<text text-anchor="middle" x="172" y="-62.6" font-family="Times,serif" font-size="14.00">SpinnerModule</text>
</g>
<!-- SpinnerModule&#45;&gt;UpdateProfileModule -->
<g id="edge5" class="edge">
<title>SpinnerModule&#45;&gt;UpdateProfileModule</title>
<path fill="none" stroke="black" d="M172,-84.82C172,-102.17 172,-125.8 172,-125.8 172,-125.8 299.78,-125.8 299.78,-125.8"/>
<polygon fill="black" stroke="black" points="299.78,-129.3 309.78,-125.8 299.78,-122.3 299.78,-129.3"/>
</g>
<!-- UrlModule -->
<g id="node7" class="node">
<title>UrlModule</title>
<polygon fill="#8dd3c7" stroke="black" points="102.21,-84.8 99.21,-88.8 78.21,-88.8 75.21,-84.8 23.79,-84.8 23.79,-48.8 102.21,-48.8 102.21,-84.8"/>
<text text-anchor="middle" x="63" y="-62.6" font-family="Times,serif" font-size="14.00">UrlModule</text>
</g>
<!-- UrlModule&#45;&gt;UpdateProfileModule -->
<g id="edge6" class="edge">
<title>UrlModule&#45;&gt;UpdateProfileModule</title>
<path fill="none" stroke="black" d="M63,-85.08C63,-106.12 63,-137.8 63,-137.8 63,-137.8 299.65,-137.8 299.65,-137.8"/>
<polygon fill="black" stroke="black" points="299.65,-141.3 309.65,-137.8 299.65,-134.3 299.65,-141.3"/>
</g>
</g>
</svg>
