<?xml version="1.0" encoding="UTF-8" standalone="no"?>
<!DOCTYPE svg PUBLIC "-//W3C//DTD SVG 1.1//EN"
 "http://www.w3.org/Graphics/SVG/1.1/DTD/svg11.dtd">
<!-- Generated by graphviz version 5.0.0 (20220707.1540)
 -->
<!-- Title: dependencies Pages: 1 -->
<svg width="615pt" height="247pt"
 viewBox="0.00 0.00 615.00 246.80" xmlns="http://www.w3.org/2000/svg" xmlns:xlink="http://www.w3.org/1999/xlink">
<g id="graph0" class="graph" transform="scale(1 1) rotate(0) translate(4 242.8)">
<title>dependencies</title>
<polygon fill="white" stroke="transparent" points="-4,4 -4,-242.8 611,-242.8 611,4 -4,4"/>
<text text-anchor="middle" x="303.5" y="-8.2" font-family="sans-serif" font-size="14.00">dependencies</text>
<g id="clust1" class="cluster">
<title>cluster_CheckoutPaymentTypeModule</title>
<polygon fill="none" stroke="black" stroke-dasharray="1,5" points="8,-32.8 8,-230.8 599,-230.8 599,-32.8 8,-32.8"/>
</g>
<g id="clust5" class="cluster">
<title>cluster_CheckoutPaymentTypeModule_exports</title>
<polygon fill="none" stroke="black" points="127,-170.8 127,-222.8 359,-222.8 359,-170.8 127,-170.8"/>
</g>
<g id="clust2" class="cluster">
<title>cluster_CheckoutPaymentTypeModule_declarations</title>
<polygon fill="none" stroke="black" points="363,-40.8 363,-92.8 591,-92.8 591,-40.8 363,-40.8"/>
</g>
<g id="clust4" class="cluster">
<title>cluster_CheckoutPaymentTypeModule_imports</title>
<polygon fill="none" stroke="black" points="16,-40.8 16,-92.8 355,-92.8 355,-40.8 16,-40.8"/>
</g>
<!-- CheckoutPaymentTypeComponent -->
<g id="node1" class="node">
<title>CheckoutPaymentTypeComponent</title>
<polygon fill="#ffffb3" stroke="black" points="583.25,-84.8 370.75,-84.8 370.75,-48.8 583.25,-48.8 583.25,-84.8"/>
<text text-anchor="middle" x="477" y="-62.6" font-family="Times,serif" font-size="14.00">CheckoutPaymentTypeComponent</text>
</g>
<!-- CheckoutPaymentTypeModule -->
<g id="node2" class="node">
<title>CheckoutPaymentTypeModule</title>
<polygon fill="#8dd3c7" stroke="black" points="338.47,-149.8 335.47,-153.8 314.47,-153.8 311.47,-149.8 147.53,-149.8 147.53,-113.8 338.47,-113.8 338.47,-149.8"/>
<text text-anchor="middle" x="243" y="-127.6" font-family="Times,serif" font-size="14.00">CheckoutPaymentTypeModule</text>
</g>
<!-- CheckoutPaymentTypeComponent&#45;&gt;CheckoutPaymentTypeModule -->
<g id="edge1" class="edge">
<title>CheckoutPaymentTypeComponent&#45;&gt;CheckoutPaymentTypeModule</title>
<path fill="none" stroke="black" d="M477,-84.91C477,-104.14 477,-131.8 477,-131.8 477,-131.8 348.51,-131.8 348.51,-131.8"/>
<polygon fill="black" stroke="black" points="348.51,-128.3 338.51,-131.8 348.51,-135.3 348.51,-128.3"/>
</g>
<!-- CheckoutPaymentTypeComponent  -->
<g id="node6" class="node">
<title>CheckoutPaymentTypeComponent </title>
<polygon fill="#fb8072" stroke="black" points="351.25,-214.8 134.75,-214.8 134.75,-178.8 351.25,-178.8 351.25,-214.8"/>
<text text-anchor="middle" x="243" y="-192.6" font-family="Times,serif" font-size="14.00">CheckoutPaymentTypeComponent </text>
</g>
<!-- CheckoutPaymentTypeModule&#45;&gt;CheckoutPaymentTypeComponent  -->
<g id="edge5" class="edge">
<title>CheckoutPaymentTypeModule&#45;&gt;CheckoutPaymentTypeComponent </title>
<path fill="none" stroke="black" stroke-dasharray="5,2" d="M243,-149.91C243,-149.91 243,-168.79 243,-168.79"/>
<polygon fill="black" stroke="black" points="239.5,-168.79 243,-178.79 246.5,-168.79 239.5,-168.79"/>
</g>
<!-- ConfigModule -->
<g id="node3" class="node">
<title>ConfigModule</title>
<polygon fill="#8dd3c7" stroke="black" points="347.44,-84.8 344.44,-88.8 323.44,-88.8 320.44,-84.8 248.56,-84.8 248.56,-48.8 347.44,-48.8 347.44,-84.8"/>
<text text-anchor="middle" x="298" y="-62.6" font-family="Times,serif" font-size="14.00">ConfigModule</text>
</g>
<!-- ConfigModule&#45;&gt;CheckoutPaymentTypeModule -->
<g id="edge2" class="edge">
<title>ConfigModule&#45;&gt;CheckoutPaymentTypeModule</title>
<path fill="none" stroke="black" d="M293.63,-84.91C293.63,-84.91 293.63,-103.79 293.63,-103.79"/>
<polygon fill="black" stroke="black" points="290.13,-103.79 293.63,-113.79 297.13,-103.79 290.13,-103.79"/>
</g>
<!-- I18nModule -->
<g id="node4" class="node">
<title>I18nModule</title>
<polygon fill="#8dd3c7" stroke="black" points="230.71,-84.8 227.71,-88.8 206.71,-88.8 203.71,-84.8 145.29,-84.8 145.29,-48.8 230.71,-48.8 230.71,-84.8"/>
<text text-anchor="middle" x="188" y="-62.6" font-family="Times,serif" font-size="14.00">I18nModule</text>
</g>
<!-- I18nModule&#45;&gt;CheckoutPaymentTypeModule -->
<g id="edge3" class="edge">
<title>I18nModule&#45;&gt;CheckoutPaymentTypeModule</title>
<path fill="none" stroke="black" d="M189.06,-84.91C189.06,-84.91 189.06,-103.79 189.06,-103.79"/>
<polygon fill="black" stroke="black" points="185.56,-103.79 189.06,-113.79 192.56,-103.79 185.56,-103.79"/>
</g>
<!-- SpinnerModule -->
<g id="node5" class="node">
<title>SpinnerModule</title>
<polygon fill="#8dd3c7" stroke="black" points="127.6,-84.8 124.6,-88.8 103.6,-88.8 100.6,-84.8 24.4,-84.8 24.4,-48.8 127.6,-48.8 127.6,-84.8"/>
<text text-anchor="middle" x="76" y="-62.6" font-family="Times,serif" font-size="14.00">SpinnerModule</text>
</g>
<!-- SpinnerModule&#45;&gt;CheckoutPaymentTypeModule -->
<g id="edge4" class="edge">
<title>SpinnerModule&#45;&gt;CheckoutPaymentTypeModule</title>
<path fill="none" stroke="black" d="M76,-84.91C76,-104.14 76,-131.8 76,-131.8 76,-131.8 137.31,-131.8 137.31,-131.8"/>
<polygon fill="black" stroke="black" points="137.31,-135.3 147.31,-131.8 137.31,-128.3 137.31,-135.3"/>
</g>
</g>
</svg>
