<?xml version="1.0" encoding="UTF-8" standalone="no"?>
<!DOCTYPE svg PUBLIC "-//W3C//DTD SVG 1.1//EN"
 "http://www.w3.org/Graphics/SVG/1.1/DTD/svg11.dtd">
<!-- Generated by graphviz version 5.0.0 (20220707.1540)
 -->
<!-- Title: dependencies Pages: 1 -->
<svg width="522pt" height="247pt"
 viewBox="0.00 0.00 522.00 246.80" xmlns="http://www.w3.org/2000/svg" xmlns:xlink="http://www.w3.org/1999/xlink">
<g id="graph0" class="graph" transform="scale(1 1) rotate(0) translate(4 242.8)">
<title>dependencies</title>
<polygon fill="white" stroke="transparent" points="-4,4 -4,-242.8 518,-242.8 518,4 -4,4"/>
<text text-anchor="middle" x="257" y="-8.2" font-family="sans-serif" font-size="14.00">dependencies</text>
<g id="clust1" class="cluster">
<title>cluster_ConfiguratorExitButtonModule</title>
<polygon fill="none" stroke="black" stroke-dasharray="1,5" points="8,-32.8 8,-230.8 506,-230.8 506,-32.8 8,-32.8"/>
</g>
<g id="clust4" class="cluster">
<title>cluster_ConfiguratorExitButtonModule_imports</title>
<polygon fill="none" stroke="black" points="396,-40.8 396,-92.8 498,-92.8 498,-40.8 396,-40.8"/>
</g>
<g id="clust2" class="cluster">
<title>cluster_ConfiguratorExitButtonModule_declarations</title>
<polygon fill="none" stroke="black" points="156,-40.8 156,-92.8 388,-92.8 388,-40.8 156,-40.8"/>
</g>
<g id="clust7" class="cluster">
<title>cluster_ConfiguratorExitButtonModule_providers</title>
<polygon fill="none" stroke="black" points="16,-40.8 16,-92.8 148,-92.8 148,-40.8 16,-40.8"/>
</g>
<g id="clust5" class="cluster">
<title>cluster_ConfiguratorExitButtonModule_exports</title>
<polygon fill="none" stroke="black" points="155,-170.8 155,-222.8 389,-222.8 389,-170.8 155,-170.8"/>
</g>
<!-- ConfiguratorExitButtonComponent -->
<g id="node1" class="node">
<title>ConfiguratorExitButtonComponent</title>
<polygon fill="#ffffb3" stroke="black" points="379.6,-84.8 164.4,-84.8 164.4,-48.8 379.6,-48.8 379.6,-84.8"/>
<text text-anchor="middle" x="272" y="-62.6" font-family="Times,serif" font-size="14.00">ConfiguratorExitButtonComponent</text>
</g>
<!-- ConfiguratorExitButtonModule -->
<g id="node2" class="node">
<title>ConfiguratorExitButtonModule</title>
<polygon fill="#8dd3c7" stroke="black" points="368.82,-149.8 365.82,-153.8 344.82,-153.8 341.82,-149.8 175.18,-149.8 175.18,-113.8 368.82,-113.8 368.82,-149.8"/>
<text text-anchor="middle" x="272" y="-127.6" font-family="Times,serif" font-size="14.00">ConfiguratorExitButtonModule</text>
</g>
<!-- ConfiguratorExitButtonComponent&#45;&gt;ConfiguratorExitButtonModule -->
<g id="edge1" class="edge">
<title>ConfiguratorExitButtonComponent&#45;&gt;ConfiguratorExitButtonModule</title>
<path fill="none" stroke="black" d="M272,-84.91C272,-84.91 272,-103.79 272,-103.79"/>
<polygon fill="black" stroke="black" points="268.5,-103.79 272,-113.79 275.5,-103.79 268.5,-103.79"/>
</g>
<!-- ConfiguratorExitButtonComponent  -->
<g id="node4" class="node">
<title>ConfiguratorExitButtonComponent </title>
<polygon fill="#fb8072" stroke="black" points="381.1,-214.8 162.9,-214.8 162.9,-178.8 381.1,-178.8 381.1,-214.8"/>
<text text-anchor="middle" x="272" y="-192.6" font-family="Times,serif" font-size="14.00">ConfiguratorExitButtonComponent </text>
</g>
<!-- ConfiguratorExitButtonModule&#45;&gt;ConfiguratorExitButtonComponent  -->
<g id="edge3" class="edge">
<title>ConfiguratorExitButtonModule&#45;&gt;ConfiguratorExitButtonComponent </title>
<path fill="none" stroke="black" stroke-dasharray="5,2" d="M272,-149.91C272,-149.91 272,-168.79 272,-168.79"/>
<polygon fill="black" stroke="black" points="268.5,-168.79 272,-178.79 275.5,-168.79 268.5,-168.79"/>
</g>
<!-- I18nModule -->
<g id="node3" class="node">
<title>I18nModule</title>
<polygon fill="#8dd3c7" stroke="black" points="489.71,-84.8 486.71,-88.8 465.71,-88.8 462.71,-84.8 404.29,-84.8 404.29,-48.8 489.71,-48.8 489.71,-84.8"/>
<text text-anchor="middle" x="447" y="-62.6" font-family="Times,serif" font-size="14.00">I18nModule</text>
</g>
<!-- I18nModule&#45;&gt;ConfiguratorExitButtonModule -->
<g id="edge2" class="edge">
<title>I18nModule&#45;&gt;ConfiguratorExitButtonModule</title>
<path fill="none" stroke="black" d="M447,-84.91C447,-104.14 447,-131.8 447,-131.8 447,-131.8 378.71,-131.8 378.71,-131.8"/>
<polygon fill="black" stroke="black" points="378.71,-128.3 368.71,-131.8 378.71,-135.3 378.71,-128.3"/>
</g>
<!-- WindowRef -->
<g id="node5" class="node">
<title>WindowRef</title>
<ellipse fill="#fdb462" stroke="black" cx="82" cy="-66.8" rx="58.47" ry="18"/>
<text text-anchor="middle" x="82" y="-62.6" font-family="Times,serif" font-size="14.00">WindowRef</text>
</g>
<!-- WindowRef&#45;&gt;ConfiguratorExitButtonModule -->
<g id="edge4" class="edge">
<title>WindowRef&#45;&gt;ConfiguratorExitButtonModule</title>
<path fill="none" stroke="black" d="M82,-84.91C82,-104.14 82,-131.8 82,-131.8 82,-131.8 165.33,-131.8 165.33,-131.8"/>
<polygon fill="black" stroke="black" points="165.33,-135.3 175.33,-131.8 165.33,-128.3 165.33,-135.3"/>
</g>
</g>
</svg>
