<?xml version="1.0" encoding="UTF-8" standalone="no"?>
<!DOCTYPE svg PUBLIC "-//W3C//DTD SVG 1.1//EN"
 "http://www.w3.org/Graphics/SVG/1.1/DTD/svg11.dtd">
<!-- Generated by graphviz version 5.0.0 (20220707.1540)
 -->
<!-- Title: dependencies Pages: 1 -->
<svg width="891pt" height="247pt"
 viewBox="0.00 0.00 891.00 246.80" xmlns="http://www.w3.org/2000/svg" xmlns:xlink="http://www.w3.org/1999/xlink">
<g id="graph0" class="graph" transform="scale(1 1) rotate(0) translate(4 242.8)">
<title>dependencies</title>
<polygon fill="white" stroke="transparent" points="-4,4 -4,-242.8 887,-242.8 887,4 -4,4"/>
<text text-anchor="middle" x="441.5" y="-8.2" font-family="sans-serif" font-size="14.00">dependencies</text>
<g id="clust1" class="cluster">
<title>cluster_OrderApprovalListModule</title>
<polygon fill="none" stroke="black" stroke-dasharray="1,5" points="8,-32.8 8,-230.8 875,-230.8 875,-32.8 8,-32.8"/>
</g>
<g id="clust2" class="cluster">
<title>cluster_OrderApprovalListModule_declarations</title>
<polygon fill="none" stroke="black" points="663,-40.8 663,-92.8 867,-92.8 867,-40.8 663,-40.8"/>
</g>
<g id="clust5" class="cluster">
<title>cluster_OrderApprovalListModule_exports</title>
<polygon fill="none" stroke="black" points="287,-170.8 287,-222.8 495,-222.8 495,-170.8 287,-170.8"/>
</g>
<g id="clust4" class="cluster">
<title>cluster_OrderApprovalListModule_imports</title>
<polygon fill="none" stroke="black" points="16,-40.8 16,-92.8 655,-92.8 655,-40.8 16,-40.8"/>
</g>
<!-- OrderApprovalListComponent -->
<g id="node1" class="node">
<title>OrderApprovalListComponent</title>
<polygon fill="#ffffb3" stroke="black" points="859.14,-84.8 670.86,-84.8 670.86,-48.8 859.14,-48.8 859.14,-84.8"/>
<text text-anchor="middle" x="765" y="-62.6" font-family="Times,serif" font-size="14.00">OrderApprovalListComponent</text>
</g>
<!-- OrderApprovalListModule -->
<g id="node2" class="node">
<title>OrderApprovalListModule</title>
<polygon fill="#8dd3c7" stroke="black" points="474.36,-149.8 471.36,-153.8 450.36,-153.8 447.36,-149.8 307.64,-149.8 307.64,-113.8 474.36,-113.8 474.36,-149.8"/>
<text text-anchor="middle" x="391" y="-127.6" font-family="Times,serif" font-size="14.00">OrderApprovalListModule</text>
</g>
<!-- OrderApprovalListComponent&#45;&gt;OrderApprovalListModule -->
<g id="edge1" class="edge">
<title>OrderApprovalListComponent&#45;&gt;OrderApprovalListModule</title>
<path fill="none" stroke="black" d="M765,-85.08C765,-106.12 765,-137.8 765,-137.8 765,-137.8 484.47,-137.8 484.47,-137.8"/>
<polygon fill="black" stroke="black" points="484.47,-134.3 474.47,-137.8 484.47,-141.3 484.47,-134.3"/>
</g>
<!-- OrderApprovalListComponent  -->
<g id="node8" class="node">
<title>OrderApprovalListComponent </title>
<polygon fill="#fb8072" stroke="black" points="487.13,-214.8 294.87,-214.8 294.87,-178.8 487.13,-178.8 487.13,-214.8"/>
<text text-anchor="middle" x="391" y="-192.6" font-family="Times,serif" font-size="14.00">OrderApprovalListComponent </text>
</g>
<!-- OrderApprovalListModule&#45;&gt;OrderApprovalListComponent  -->
<g id="edge7" class="edge">
<title>OrderApprovalListModule&#45;&gt;OrderApprovalListComponent </title>
<path fill="none" stroke="black" stroke-dasharray="5,2" d="M391,-149.91C391,-149.91 391,-168.79 391,-168.79"/>
<polygon fill="black" stroke="black" points="387.5,-168.79 391,-178.79 394.5,-168.79 387.5,-168.79"/>
</g>
<!-- ConfigModule -->
<g id="node3" class="node">
<title>ConfigModule</title>
<polygon fill="#8dd3c7" stroke="black" points="647.44,-84.8 644.44,-88.8 623.44,-88.8 620.44,-84.8 548.56,-84.8 548.56,-48.8 647.44,-48.8 647.44,-84.8"/>
<text text-anchor="middle" x="598" y="-62.6" font-family="Times,serif" font-size="14.00">ConfigModule</text>
</g>
<!-- ConfigModule&#45;&gt;OrderApprovalListModule -->
<g id="edge2" class="edge">
<title>ConfigModule&#45;&gt;OrderApprovalListModule</title>
<path fill="none" stroke="black" d="M598,-84.82C598,-102.17 598,-125.8 598,-125.8 598,-125.8 484.6,-125.8 484.6,-125.8"/>
<polygon fill="black" stroke="black" points="484.6,-122.3 474.6,-125.8 484.6,-129.3 484.6,-122.3"/>
</g>
<!-- FeaturesConfigModule -->
<g id="node4" class="node">
<title>FeaturesConfigModule</title>
<polygon fill="#8dd3c7" stroke="black" points="530.87,-84.8 527.87,-88.8 506.87,-88.8 503.87,-84.8 385.13,-84.8 385.13,-48.8 530.87,-48.8 530.87,-84.8"/>
<text text-anchor="middle" x="458" y="-62.6" font-family="Times,serif" font-size="14.00">FeaturesConfigModule</text>
</g>
<!-- FeaturesConfigModule&#45;&gt;OrderApprovalListModule -->
<g id="edge3" class="edge">
<title>FeaturesConfigModule&#45;&gt;OrderApprovalListModule</title>
<path fill="none" stroke="black" d="M429.75,-84.91C429.75,-84.91 429.75,-103.79 429.75,-103.79"/>
<polygon fill="black" stroke="black" points="426.25,-103.79 429.75,-113.79 433.25,-103.79 426.25,-103.79"/>
</g>
<!-- I18nModule -->
<g id="node5" class="node">
<title>I18nModule</title>
<polygon fill="#8dd3c7" stroke="black" points="366.71,-84.8 363.71,-88.8 342.71,-88.8 339.71,-84.8 281.29,-84.8 281.29,-48.8 366.71,-48.8 366.71,-84.8"/>
<text text-anchor="middle" x="324" y="-62.6" font-family="Times,serif" font-size="14.00">I18nModule</text>
</g>
<!-- I18nModule&#45;&gt;OrderApprovalListModule -->
<g id="edge4" class="edge">
<title>I18nModule&#45;&gt;OrderApprovalListModule</title>
<path fill="none" stroke="black" d="M337.09,-84.91C337.09,-84.91 337.09,-103.79 337.09,-103.79"/>
<polygon fill="black" stroke="black" points="333.59,-103.79 337.09,-113.79 340.59,-103.79 333.59,-103.79"/>
</g>
<!-- ListNavigationModule -->
<g id="node6" class="node">
<title>ListNavigationModule</title>
<polygon fill="#8dd3c7" stroke="black" points="263.54,-84.8 260.54,-88.8 239.54,-88.8 236.54,-84.8 120.46,-84.8 120.46,-48.8 263.54,-48.8 263.54,-84.8"/>
<text text-anchor="middle" x="192" y="-62.6" font-family="Times,serif" font-size="14.00">ListNavigationModule</text>
</g>
<!-- ListNavigationModule&#45;&gt;OrderApprovalListModule -->
<g id="edge5" class="edge">
<title>ListNavigationModule&#45;&gt;OrderApprovalListModule</title>
<path fill="none" stroke="black" d="M192,-84.82C192,-102.17 192,-125.8 192,-125.8 192,-125.8 297.47,-125.8 297.47,-125.8"/>
<polygon fill="black" stroke="black" points="297.47,-129.3 307.47,-125.8 297.47,-122.3 297.47,-129.3"/>
</g>
<!-- UrlModule -->
<g id="node7" class="node">
<title>UrlModule</title>
<polygon fill="#8dd3c7" stroke="black" points="102.21,-84.8 99.21,-88.8 78.21,-88.8 75.21,-84.8 23.79,-84.8 23.79,-48.8 102.21,-48.8 102.21,-84.8"/>
<text text-anchor="middle" x="63" y="-62.6" font-family="Times,serif" font-size="14.00">UrlModule</text>
</g>
<!-- UrlModule&#45;&gt;OrderApprovalListModule -->
<g id="edge6" class="edge">
<title>UrlModule&#45;&gt;OrderApprovalListModule</title>
<path fill="none" stroke="black" d="M63,-85.08C63,-106.12 63,-137.8 63,-137.8 63,-137.8 297.38,-137.8 297.38,-137.8"/>
<polygon fill="black" stroke="black" points="297.38,-141.3 307.38,-137.8 297.38,-134.3 297.38,-141.3"/>
</g>
</g>
</svg>
