<?xml version="1.0" encoding="UTF-8" standalone="no"?>
<!DOCTYPE svg PUBLIC "-//W3C//DTD SVG 1.1//EN"
 "http://www.w3.org/Graphics/SVG/1.1/DTD/svg11.dtd">
<!-- Generated by graphviz version 5.0.0 (20220707.1540)
 -->
<!-- Title: dependencies Pages: 1 -->
<svg width="1136pt" height="247pt"
 viewBox="0.00 0.00 1136.00 246.80" xmlns="http://www.w3.org/2000/svg" xmlns:xlink="http://www.w3.org/1999/xlink">
<g id="graph0" class="graph" transform="scale(1 1) rotate(0) translate(4 242.8)">
<title>dependencies</title>
<polygon fill="white" stroke="transparent" points="-4,4 -4,-242.8 1132,-242.8 1132,4 -4,4"/>
<text text-anchor="middle" x="564" y="-8.2" font-family="sans-serif" font-size="14.00">dependencies</text>
<g id="clust1" class="cluster">
<title>cluster_CompactAddToCartModule</title>
<polygon fill="none" stroke="black" stroke-dasharray="1,5" points="8,-32.8 8,-230.8 1120,-230.8 1120,-32.8 8,-32.8"/>
</g>
<g id="clust2" class="cluster">
<title>cluster_CompactAddToCartModule_declarations</title>
<polygon fill="none" stroke="black" points="900,-40.8 900,-92.8 1112,-92.8 1112,-40.8 900,-40.8"/>
</g>
<g id="clust5" class="cluster">
<title>cluster_CompactAddToCartModule_exports</title>
<polygon fill="none" stroke="black" points="403,-170.8 403,-222.8 619,-222.8 619,-170.8 403,-170.8"/>
</g>
<g id="clust4" class="cluster">
<title>cluster_CompactAddToCartModule_imports</title>
<polygon fill="none" stroke="black" points="16,-40.8 16,-92.8 892,-92.8 892,-40.8 16,-40.8"/>
</g>
<!-- CompactAddToCartComponent -->
<g id="node1" class="node">
<title>CompactAddToCartComponent</title>
<polygon fill="#ffffb3" stroke="black" points="1103.64,-84.8 908.36,-84.8 908.36,-48.8 1103.64,-48.8 1103.64,-84.8"/>
<text text-anchor="middle" x="1006" y="-62.6" font-family="Times,serif" font-size="14.00">CompactAddToCartComponent</text>
</g>
<!-- CompactAddToCartModule -->
<g id="node2" class="node">
<title>CompactAddToCartModule</title>
<polygon fill="#8dd3c7" stroke="black" points="597.86,-149.8 594.86,-153.8 573.86,-153.8 570.86,-149.8 424.14,-149.8 424.14,-113.8 597.86,-113.8 597.86,-149.8"/>
<text text-anchor="middle" x="511" y="-127.6" font-family="Times,serif" font-size="14.00">CompactAddToCartModule</text>
</g>
<!-- CompactAddToCartComponent&#45;&gt;CompactAddToCartModule -->
<g id="edge1" class="edge">
<title>CompactAddToCartComponent&#45;&gt;CompactAddToCartModule</title>
<path fill="none" stroke="black" d="M1006,-85.09C1006,-107.01 1006,-140.8 1006,-140.8 1006,-140.8 608.07,-140.8 608.07,-140.8"/>
<polygon fill="black" stroke="black" points="608.07,-137.3 598.07,-140.8 608.07,-144.3 608.07,-137.3"/>
</g>
<!-- CompactAddToCartComponent  -->
<g id="node10" class="node">
<title>CompactAddToCartComponent </title>
<polygon fill="#fb8072" stroke="black" points="610.64,-214.8 411.36,-214.8 411.36,-178.8 610.64,-178.8 610.64,-214.8"/>
<text text-anchor="middle" x="511" y="-192.6" font-family="Times,serif" font-size="14.00">CompactAddToCartComponent </text>
</g>
<!-- CompactAddToCartModule&#45;&gt;CompactAddToCartComponent  -->
<g id="edge9" class="edge">
<title>CompactAddToCartModule&#45;&gt;CompactAddToCartComponent </title>
<path fill="none" stroke="black" stroke-dasharray="5,2" d="M511,-149.91C511,-149.91 511,-168.79 511,-168.79"/>
<polygon fill="black" stroke="black" points="507.5,-168.79 511,-178.79 514.5,-168.79 507.5,-168.79"/>
</g>
<!-- FeaturesConfigModule -->
<g id="node3" class="node">
<title>FeaturesConfigModule</title>
<polygon fill="#8dd3c7" stroke="black" points="883.87,-84.8 880.87,-88.8 859.87,-88.8 856.87,-84.8 738.13,-84.8 738.13,-48.8 883.87,-48.8 883.87,-84.8"/>
<text text-anchor="middle" x="811" y="-62.6" font-family="Times,serif" font-size="14.00">FeaturesConfigModule</text>
</g>
<!-- FeaturesConfigModule&#45;&gt;CompactAddToCartModule -->
<g id="edge2" class="edge">
<title>FeaturesConfigModule&#45;&gt;CompactAddToCartModule</title>
<path fill="none" stroke="black" d="M811,-84.91C811,-104.14 811,-131.8 811,-131.8 811,-131.8 608.18,-131.8 608.18,-131.8"/>
<polygon fill="black" stroke="black" points="608.18,-128.3 598.18,-131.8 608.18,-135.3 608.18,-128.3"/>
</g>
<!-- I18nModule -->
<g id="node4" class="node">
<title>I18nModule</title>
<polygon fill="#8dd3c7" stroke="black" points="719.71,-84.8 716.71,-88.8 695.71,-88.8 692.71,-84.8 634.29,-84.8 634.29,-48.8 719.71,-48.8 719.71,-84.8"/>
<text text-anchor="middle" x="677" y="-62.6" font-family="Times,serif" font-size="14.00">I18nModule</text>
</g>
<!-- I18nModule&#45;&gt;CompactAddToCartModule -->
<g id="edge3" class="edge">
<title>I18nModule&#45;&gt;CompactAddToCartModule</title>
<path fill="none" stroke="black" d="M677,-84.83C677,-101.2 677,-122.8 677,-122.8 677,-122.8 607.89,-122.8 607.89,-122.8"/>
<polygon fill="black" stroke="black" points="607.89,-119.3 597.89,-122.8 607.89,-126.3 607.89,-119.3"/>
</g>
<!-- IconModule -->
<g id="node5" class="node">
<title>IconModule</title>
<polygon fill="#8dd3c7" stroke="black" points="616.43,-84.8 613.43,-88.8 592.43,-88.8 589.43,-84.8 531.57,-84.8 531.57,-48.8 616.43,-48.8 616.43,-84.8"/>
<text text-anchor="middle" x="574" y="-62.6" font-family="Times,serif" font-size="14.00">IconModule</text>
</g>
<!-- IconModule&#45;&gt;CompactAddToCartModule -->
<g id="edge4" class="edge">
<title>IconModule&#45;&gt;CompactAddToCartModule</title>
<path fill="none" stroke="black" d="M564.86,-84.91C564.86,-84.91 564.86,-103.79 564.86,-103.79"/>
<polygon fill="black" stroke="black" points="561.36,-103.79 564.86,-113.79 568.36,-103.79 561.36,-103.79"/>
</g>
<!-- ItemCounterModule -->
<g id="node6" class="node">
<title>ItemCounterModule</title>
<polygon fill="#8dd3c7" stroke="black" points="514.31,-84.8 511.31,-88.8 490.31,-88.8 487.31,-84.8 383.69,-84.8 383.69,-48.8 514.31,-48.8 514.31,-84.8"/>
<text text-anchor="middle" x="449" y="-62.6" font-family="Times,serif" font-size="14.00">ItemCounterModule</text>
</g>
<!-- ItemCounterModule&#45;&gt;CompactAddToCartModule -->
<g id="edge5" class="edge">
<title>ItemCounterModule&#45;&gt;CompactAddToCartModule</title>
<path fill="none" stroke="black" d="M469.11,-84.91C469.11,-84.91 469.11,-103.79 469.11,-103.79"/>
<polygon fill="black" stroke="black" points="465.61,-103.79 469.11,-113.79 472.61,-103.79 465.61,-103.79"/>
</g>
<!-- PromotionsModule -->
<g id="node7" class="node">
<title>PromotionsModule</title>
<polygon fill="#8dd3c7" stroke="black" points="366.12,-84.8 363.12,-88.8 342.12,-88.8 339.12,-84.8 241.88,-84.8 241.88,-48.8 366.12,-48.8 366.12,-84.8"/>
<text text-anchor="middle" x="304" y="-62.6" font-family="Times,serif" font-size="14.00">PromotionsModule</text>
</g>
<!-- PromotionsModule&#45;&gt;CompactAddToCartModule -->
<g id="edge6" class="edge">
<title>PromotionsModule&#45;&gt;CompactAddToCartModule</title>
<path fill="none" stroke="black" d="M304,-84.83C304,-101.2 304,-122.8 304,-122.8 304,-122.8 414.11,-122.8 414.11,-122.8"/>
<polygon fill="black" stroke="black" points="414.11,-126.3 424.11,-122.8 414.11,-119.3 414.11,-126.3"/>
</g>
<!-- SpinnerModule -->
<g id="node8" class="node">
<title>SpinnerModule</title>
<polygon fill="#8dd3c7" stroke="black" points="223.6,-84.8 220.6,-88.8 199.6,-88.8 196.6,-84.8 120.4,-84.8 120.4,-48.8 223.6,-48.8 223.6,-84.8"/>
<text text-anchor="middle" x="172" y="-62.6" font-family="Times,serif" font-size="14.00">SpinnerModule</text>
</g>
<!-- SpinnerModule&#45;&gt;CompactAddToCartModule -->
<g id="edge7" class="edge">
<title>SpinnerModule&#45;&gt;CompactAddToCartModule</title>
<path fill="none" stroke="black" d="M172,-84.91C172,-104.14 172,-131.8 172,-131.8 172,-131.8 413.7,-131.8 413.7,-131.8"/>
<polygon fill="black" stroke="black" points="413.7,-135.3 423.7,-131.8 413.7,-128.3 413.7,-135.3"/>
</g>
<!-- UrlModule -->
<g id="node9" class="node">
<title>UrlModule</title>
<polygon fill="#8dd3c7" stroke="black" points="102.21,-84.8 99.21,-88.8 78.21,-88.8 75.21,-84.8 23.79,-84.8 23.79,-48.8 102.21,-48.8 102.21,-84.8"/>
<text text-anchor="middle" x="63" y="-62.6" font-family="Times,serif" font-size="14.00">UrlModule</text>
</g>
<!-- UrlModule&#45;&gt;CompactAddToCartModule -->
<g id="edge8" class="edge">
<title>UrlModule&#45;&gt;CompactAddToCartModule</title>
<path fill="none" stroke="black" d="M63,-85.09C63,-107.01 63,-140.8 63,-140.8 63,-140.8 414.09,-140.8 414.09,-140.8"/>
<polygon fill="black" stroke="black" points="414.09,-144.3 424.09,-140.8 414.09,-137.3 414.09,-144.3"/>
</g>
</g>
</svg>
