<?xml version="1.0" encoding="UTF-8" standalone="no"?>
<!DOCTYPE svg PUBLIC "-//W3C//DTD SVG 1.1//EN"
 "http://www.w3.org/Graphics/SVG/1.1/DTD/svg11.dtd">
<!-- Generated by graphviz version 5.0.0 (20220707.1540)
 -->
<!-- Title: dependencies Pages: 1 -->
<svg width="924pt" height="174pt"
 viewBox="0.00 0.00 924.00 173.80" xmlns="http://www.w3.org/2000/svg" xmlns:xlink="http://www.w3.org/1999/xlink">
<g id="graph0" class="graph" transform="scale(1 1) rotate(0) translate(4 169.8)">
<title>dependencies</title>
<polygon fill="white" stroke="transparent" points="-4,4 -4,-169.8 920,-169.8 920,4 -4,4"/>
<text text-anchor="middle" x="458" y="-8.2" font-family="sans-serif" font-size="14.00">dependencies</text>
<g id="clust1" class="cluster">
<title>cluster_UpdatePasswordModule</title>
<polygon fill="none" stroke="black" stroke-dasharray="1,5" points="8,-32.8 8,-157.8 908,-157.8 908,-32.8 8,-32.8"/>
</g>
<g id="clust2" class="cluster">
<title>cluster_UpdatePasswordModule_declarations</title>
<polygon fill="none" stroke="black" points="708,-40.8 708,-92.8 900,-92.8 900,-40.8 708,-40.8"/>
</g>
<g id="clust4" class="cluster">
<title>cluster_UpdatePasswordModule_imports</title>
<polygon fill="none" stroke="black" points="16,-40.8 16,-92.8 700,-92.8 700,-40.8 16,-40.8"/>
</g>
<!-- UpdatePasswordComponent -->
<g id="node1" class="node">
<title>UpdatePasswordComponent</title>
<polygon fill="#ffffb3" stroke="black" points="891.93,-84.8 716.07,-84.8 716.07,-48.8 891.93,-48.8 891.93,-84.8"/>
<text text-anchor="middle" x="804" y="-62.6" font-family="Times,serif" font-size="14.00">UpdatePasswordComponent</text>
</g>
<!-- UpdatePasswordModule -->
<g id="node2" class="node">
<title>UpdatePasswordModule</title>
<polygon fill="#8dd3c7" stroke="black" points="501.65,-149.8 498.65,-153.8 477.65,-153.8 474.65,-149.8 348.35,-149.8 348.35,-113.8 501.65,-113.8 501.65,-149.8"/>
<text text-anchor="middle" x="425" y="-127.6" font-family="Times,serif" font-size="14.00">UpdatePasswordModule</text>
</g>
<!-- UpdatePasswordComponent&#45;&gt;UpdatePasswordModule -->
<g id="edge1" class="edge">
<title>UpdatePasswordComponent&#45;&gt;UpdatePasswordModule</title>
<path fill="none" stroke="black" d="M804,-85.08C804,-106.12 804,-137.8 804,-137.8 804,-137.8 511.7,-137.8 511.7,-137.8"/>
<polygon fill="black" stroke="black" points="511.7,-134.3 501.7,-137.8 511.7,-141.3 511.7,-134.3"/>
</g>
<!-- FormErrorsModule -->
<g id="node3" class="node">
<title>FormErrorsModule</title>
<polygon fill="#8dd3c7" stroke="black" points="692.38,-84.8 689.38,-88.8 668.38,-88.8 665.38,-84.8 567.62,-84.8 567.62,-48.8 692.38,-48.8 692.38,-84.8"/>
<text text-anchor="middle" x="630" y="-62.6" font-family="Times,serif" font-size="14.00">FormErrorsModule</text>
</g>
<!-- FormErrorsModule&#45;&gt;UpdatePasswordModule -->
<g id="edge2" class="edge">
<title>FormErrorsModule&#45;&gt;UpdatePasswordModule</title>
<path fill="none" stroke="black" d="M630,-84.82C630,-102.17 630,-125.8 630,-125.8 630,-125.8 511.92,-125.8 511.92,-125.8"/>
<polygon fill="black" stroke="black" points="511.92,-122.3 501.92,-125.8 511.92,-129.3 511.92,-122.3"/>
</g>
<!-- I18nModule -->
<g id="node4" class="node">
<title>I18nModule</title>
<polygon fill="#8dd3c7" stroke="black" points="549.71,-84.8 546.71,-88.8 525.71,-88.8 522.71,-84.8 464.29,-84.8 464.29,-48.8 549.71,-48.8 549.71,-84.8"/>
<text text-anchor="middle" x="507" y="-62.6" font-family="Times,serif" font-size="14.00">I18nModule</text>
</g>
<!-- I18nModule&#45;&gt;UpdatePasswordModule -->
<g id="edge3" class="edge">
<title>I18nModule&#45;&gt;UpdatePasswordModule</title>
<path fill="none" stroke="black" d="M483.11,-84.91C483.11,-84.91 483.11,-103.79 483.11,-103.79"/>
<polygon fill="black" stroke="black" points="479.61,-103.79 483.11,-113.79 486.61,-103.79 479.61,-103.79"/>
</g>
<!-- PasswordVisibilityToggleModule -->
<g id="node5" class="node">
<title>PasswordVisibilityToggleModule</title>
<polygon fill="#8dd3c7" stroke="black" points="446.77,-84.8 443.77,-88.8 422.77,-88.8 419.77,-84.8 241.23,-84.8 241.23,-48.8 446.77,-48.8 446.77,-84.8"/>
<text text-anchor="middle" x="344" y="-62.6" font-family="Times,serif" font-size="14.00">PasswordVisibilityToggleModule</text>
</g>
<!-- PasswordVisibilityToggleModule&#45;&gt;UpdatePasswordModule -->
<g id="edge4" class="edge">
<title>PasswordVisibilityToggleModule&#45;&gt;UpdatePasswordModule</title>
<path fill="none" stroke="black" d="M397.53,-84.91C397.53,-84.91 397.53,-103.79 397.53,-103.79"/>
<polygon fill="black" stroke="black" points="394.03,-103.79 397.53,-113.79 401.03,-103.79 394.03,-103.79"/>
</g>
<!-- SpinnerModule -->
<g id="node6" class="node">
<title>SpinnerModule</title>
<polygon fill="#8dd3c7" stroke="black" points="223.6,-84.8 220.6,-88.8 199.6,-88.8 196.6,-84.8 120.4,-84.8 120.4,-48.8 223.6,-48.8 223.6,-84.8"/>
<text text-anchor="middle" x="172" y="-62.6" font-family="Times,serif" font-size="14.00">SpinnerModule</text>
</g>
<!-- SpinnerModule&#45;&gt;UpdatePasswordModule -->
<g id="edge5" class="edge">
<title>SpinnerModule&#45;&gt;UpdatePasswordModule</title>
<path fill="none" stroke="black" d="M172,-84.82C172,-102.17 172,-125.8 172,-125.8 172,-125.8 338.06,-125.8 338.06,-125.8"/>
<polygon fill="black" stroke="black" points="338.06,-129.3 348.06,-125.8 338.06,-122.3 338.06,-129.3"/>
</g>
<!-- UrlModule -->
<g id="node7" class="node">
<title>UrlModule</title>
<polygon fill="#8dd3c7" stroke="black" points="102.21,-84.8 99.21,-88.8 78.21,-88.8 75.21,-84.8 23.79,-84.8 23.79,-48.8 102.21,-48.8 102.21,-84.8"/>
<text text-anchor="middle" x="63" y="-62.6" font-family="Times,serif" font-size="14.00">UrlModule</text>
</g>
<!-- UrlModule&#45;&gt;UpdatePasswordModule -->
<g id="edge6" class="edge">
<title>UrlModule&#45;&gt;UpdatePasswordModule</title>
<path fill="none" stroke="black" d="M63,-85.08C63,-106.12 63,-137.8 63,-137.8 63,-137.8 338.23,-137.8 338.23,-137.8"/>
<polygon fill="black" stroke="black" points="338.23,-141.3 348.23,-137.8 338.23,-134.3 338.23,-141.3"/>
</g>
</g>
</svg>
