<?xml version="1.0" encoding="UTF-8" standalone="no"?>
<!DOCTYPE svg PUBLIC "-//W3C//DTD SVG 1.1//EN"
 "http://www.w3.org/Graphics/SVG/1.1/DTD/svg11.dtd">
<!-- Generated by graphviz version 5.0.0 (20220707.1540)
 -->
<!-- Title: dependencies Pages: 1 -->
<svg width="460pt" height="247pt"
 viewBox="0.00 0.00 460.00 246.80" xmlns="http://www.w3.org/2000/svg" xmlns:xlink="http://www.w3.org/1999/xlink">
<g id="graph0" class="graph" transform="scale(1 1) rotate(0) translate(4 242.8)">
<title>dependencies</title>
<polygon fill="white" stroke="transparent" points="-4,4 -4,-242.8 456,-242.8 456,4 -4,4"/>
<text text-anchor="middle" x="226" y="-8.2" font-family="sans-serif" font-size="14.00">dependencies</text>
<g id="clust1" class="cluster">
<title>cluster_AddToCartModule</title>
<polygon fill="none" stroke="black" stroke-dasharray="1,5" points="8,-32.8 8,-230.8 444,-230.8 444,-32.8 8,-32.8"/>
</g>
<g id="clust5" class="cluster">
<title>cluster_AddToCartModule_exports</title>
<polygon fill="none" stroke="black" points="133,-170.8 133,-222.8 297,-222.8 297,-170.8 133,-170.8"/>
</g>
<g id="clust2" class="cluster">
<title>cluster_AddToCartModule_declarations</title>
<polygon fill="none" stroke="black" points="274,-40.8 274,-92.8 436,-92.8 436,-40.8 274,-40.8"/>
</g>
<g id="clust4" class="cluster">
<title>cluster_AddToCartModule_imports</title>
<polygon fill="none" stroke="black" points="16,-40.8 16,-92.8 266,-92.8 266,-40.8 16,-40.8"/>
</g>
<!-- AddToCartComponent -->
<g id="node1" class="node">
<title>AddToCartComponent</title>
<polygon fill="#ffffb3" stroke="black" points="427.6,-84.8 282.4,-84.8 282.4,-48.8 427.6,-48.8 427.6,-84.8"/>
<text text-anchor="middle" x="355" y="-62.6" font-family="Times,serif" font-size="14.00">AddToCartComponent</text>
</g>
<!-- AddToCartModule -->
<g id="node2" class="node">
<title>AddToCartModule</title>
<polygon fill="#8dd3c7" stroke="black" points="276.82,-149.8 273.82,-153.8 252.82,-153.8 249.82,-149.8 153.18,-149.8 153.18,-113.8 276.82,-113.8 276.82,-149.8"/>
<text text-anchor="middle" x="215" y="-127.6" font-family="Times,serif" font-size="14.00">AddToCartModule</text>
</g>
<!-- AddToCartComponent&#45;&gt;AddToCartModule -->
<g id="edge1" class="edge">
<title>AddToCartComponent&#45;&gt;AddToCartModule</title>
<path fill="none" stroke="black" d="M282.44,-66.8C273.33,-66.8 267.13,-66.8 267.13,-66.8 267.13,-66.8 267.13,-103.69 267.13,-103.69"/>
<polygon fill="black" stroke="black" points="263.63,-103.69 267.13,-113.69 270.63,-103.69 263.63,-103.69"/>
</g>
<!-- AddToCartComponent  -->
<g id="node5" class="node">
<title>AddToCartComponent </title>
<polygon fill="#fb8072" stroke="black" points="289.1,-214.8 140.9,-214.8 140.9,-178.8 289.1,-178.8 289.1,-214.8"/>
<text text-anchor="middle" x="215" y="-192.6" font-family="Times,serif" font-size="14.00">AddToCartComponent </text>
</g>
<!-- AddToCartModule&#45;&gt;AddToCartComponent  -->
<g id="edge4" class="edge">
<title>AddToCartModule&#45;&gt;AddToCartComponent </title>
<path fill="none" stroke="black" stroke-dasharray="5,2" d="M215,-149.91C215,-149.91 215,-168.79 215,-168.79"/>
<polygon fill="black" stroke="black" points="211.5,-168.79 215,-178.79 218.5,-168.79 211.5,-168.79"/>
</g>
<!-- I18nModule -->
<g id="node3" class="node">
<title>I18nModule</title>
<polygon fill="#8dd3c7" stroke="black" points="257.71,-84.8 254.71,-88.8 233.71,-88.8 230.71,-84.8 172.29,-84.8 172.29,-48.8 257.71,-48.8 257.71,-84.8"/>
<text text-anchor="middle" x="215" y="-62.6" font-family="Times,serif" font-size="14.00">I18nModule</text>
</g>
<!-- I18nModule&#45;&gt;AddToCartModule -->
<g id="edge2" class="edge">
<title>I18nModule&#45;&gt;AddToCartModule</title>
<path fill="none" stroke="black" d="M215,-84.91C215,-84.91 215,-103.79 215,-103.79"/>
<polygon fill="black" stroke="black" points="211.5,-103.79 215,-113.79 218.5,-103.79 211.5,-103.79"/>
</g>
<!-- ItemCounterModule -->
<g id="node4" class="node">
<title>ItemCounterModule</title>
<polygon fill="#8dd3c7" stroke="black" points="154.31,-84.8 151.31,-88.8 130.31,-88.8 127.31,-84.8 23.69,-84.8 23.69,-48.8 154.31,-48.8 154.31,-84.8"/>
<text text-anchor="middle" x="89" y="-62.6" font-family="Times,serif" font-size="14.00">ItemCounterModule</text>
</g>
<!-- ItemCounterModule&#45;&gt;AddToCartModule -->
<g id="edge3" class="edge">
<title>ItemCounterModule&#45;&gt;AddToCartModule</title>
<path fill="none" stroke="black" d="M147.02,-84.91C147.02,-104.14 147.02,-131.8 147.02,-131.8 147.02,-131.8 147.65,-131.8 147.65,-131.8"/>
<polygon fill="black" stroke="black" points="143.29,-135.3 153.29,-131.8 143.29,-128.3 143.29,-135.3"/>
</g>
</g>
</svg>
