<?xml version="1.0" encoding="UTF-8" standalone="no"?>
<!DOCTYPE svg PUBLIC "-//W3C//DTD SVG 1.1//EN"
 "http://www.w3.org/Graphics/SVG/1.1/DTD/svg11.dtd">
<!-- Generated by graphviz version 5.0.0 (20220707.1540)
 -->
<!-- Title: dependencies Pages: 1 -->
<svg width="334pt" height="247pt"
 viewBox="0.00 0.00 334.00 246.80" xmlns="http://www.w3.org/2000/svg" xmlns:xlink="http://www.w3.org/1999/xlink">
<g id="graph0" class="graph" transform="scale(1 1) rotate(0) translate(4 242.8)">
<title>dependencies</title>
<polygon fill="white" stroke="transparent" points="-4,4 -4,-242.8 330,-242.8 330,4 -4,4"/>
<text text-anchor="middle" x="163" y="-8.2" font-family="sans-serif" font-size="14.00">dependencies</text>
<g id="clust1" class="cluster">
<title>cluster_ProgressButtonModule</title>
<polygon fill="none" stroke="black" stroke-dasharray="1,5" points="8,-32.8 8,-230.8 318,-230.8 318,-32.8 8,-32.8"/>
</g>
<g id="clust4" class="cluster">
<title>cluster_ProgressButtonModule_imports</title>
<polygon fill="none" stroke="black" points="208,-40.8 208,-92.8 310,-92.8 310,-40.8 208,-40.8"/>
</g>
<g id="clust5" class="cluster">
<title>cluster_ProgressButtonModule_exports</title>
<polygon fill="none" stroke="black" points="69,-170.8 69,-222.8 257,-222.8 257,-170.8 69,-170.8"/>
</g>
<g id="clust2" class="cluster">
<title>cluster_ProgressButtonModule_declarations</title>
<polygon fill="none" stroke="black" points="16,-40.8 16,-92.8 200,-92.8 200,-40.8 16,-40.8"/>
</g>
<!-- ProgressButtonComponent -->
<g id="node1" class="node">
<title>ProgressButtonComponent</title>
<polygon fill="#ffffb3" stroke="black" points="191.67,-84.8 24.33,-84.8 24.33,-48.8 191.67,-48.8 191.67,-84.8"/>
<text text-anchor="middle" x="108" y="-62.6" font-family="Times,serif" font-size="14.00">ProgressButtonComponent</text>
</g>
<!-- ProgressButtonModule -->
<g id="node2" class="node">
<title>ProgressButtonModule</title>
<polygon fill="#8dd3c7" stroke="black" points="235.89,-149.8 232.89,-153.8 211.89,-153.8 208.89,-149.8 90.11,-149.8 90.11,-113.8 235.89,-113.8 235.89,-149.8"/>
<text text-anchor="middle" x="163" y="-127.6" font-family="Times,serif" font-size="14.00">ProgressButtonModule</text>
</g>
<!-- ProgressButtonComponent&#45;&gt;ProgressButtonModule -->
<g id="edge1" class="edge">
<title>ProgressButtonComponent&#45;&gt;ProgressButtonModule</title>
<path fill="none" stroke="black" d="M140.94,-84.91C140.94,-84.91 140.94,-103.79 140.94,-103.79"/>
<polygon fill="black" stroke="black" points="137.44,-103.79 140.94,-113.79 144.44,-103.79 137.44,-103.79"/>
</g>
<!-- ProgressButtonComponent  -->
<g id="node4" class="node">
<title>ProgressButtonComponent </title>
<polygon fill="#fb8072" stroke="black" points="248.67,-214.8 77.33,-214.8 77.33,-178.8 248.67,-178.8 248.67,-214.8"/>
<text text-anchor="middle" x="163" y="-192.6" font-family="Times,serif" font-size="14.00">ProgressButtonComponent </text>
</g>
<!-- ProgressButtonModule&#45;&gt;ProgressButtonComponent  -->
<g id="edge3" class="edge">
<title>ProgressButtonModule&#45;&gt;ProgressButtonComponent </title>
<path fill="none" stroke="black" stroke-dasharray="5,2" d="M163,-149.91C163,-149.91 163,-168.79 163,-168.79"/>
<polygon fill="black" stroke="black" points="159.5,-168.79 163,-178.79 166.5,-168.79 159.5,-168.79"/>
</g>
<!-- I18nModule -->
<g id="node3" class="node">
<title>I18nModule</title>
<polygon fill="#8dd3c7" stroke="black" points="301.71,-84.8 298.71,-88.8 277.71,-88.8 274.71,-84.8 216.29,-84.8 216.29,-48.8 301.71,-48.8 301.71,-84.8"/>
<text text-anchor="middle" x="259" y="-62.6" font-family="Times,serif" font-size="14.00">I18nModule</text>
</g>
<!-- I18nModule&#45;&gt;ProgressButtonModule -->
<g id="edge2" class="edge">
<title>I18nModule&#45;&gt;ProgressButtonModule</title>
<path fill="none" stroke="black" d="M226.17,-84.91C226.17,-84.91 226.17,-103.79 226.17,-103.79"/>
<polygon fill="black" stroke="black" points="222.67,-103.79 226.17,-113.79 229.67,-103.79 222.67,-103.79"/>
</g>
</g>
</svg>
