<?xml version="1.0" encoding="UTF-8" standalone="no"?>
<!DOCTYPE svg PUBLIC "-//W3C//DTD SVG 1.1//EN"
 "http://www.w3.org/Graphics/SVG/1.1/DTD/svg11.dtd">
<!-- Generated by graphviz version 5.0.0 (20220707.1540)
 -->
<!-- Title: dependencies Pages: 1 -->
<svg width="1109pt" height="247pt"
 viewBox="0.00 0.00 1109.00 246.80" xmlns="http://www.w3.org/2000/svg" xmlns:xlink="http://www.w3.org/1999/xlink">
<g id="graph0" class="graph" transform="scale(1 1) rotate(0) translate(4 242.8)">
<title>dependencies</title>
<polygon fill="white" stroke="transparent" points="-4,4 -4,-242.8 1105,-242.8 1105,4 -4,4"/>
<text text-anchor="middle" x="550.5" y="-8.2" font-family="sans-serif" font-size="14.00">dependencies</text>
<g id="clust1" class="cluster">
<title>cluster_WishListComponentsModule</title>
<polygon fill="none" stroke="black" stroke-dasharray="1,5" points="8,-32.8 8,-230.8 1093,-230.8 1093,-32.8 8,-32.8"/>
</g>
<g id="clust2" class="cluster">
<title>cluster_WishListComponentsModule_declarations</title>
<polygon fill="none" stroke="black" points="761,-40.8 761,-92.8 1085,-92.8 1085,-40.8 761,-40.8"/>
</g>
<g id="clust5" class="cluster">
<title>cluster_WishListComponentsModule_imports</title>
<polygon fill="none" stroke="black" points="16,-40.8 16,-92.8 753,-92.8 753,-40.8 16,-40.8"/>
</g>
<g id="clust6" class="cluster">
<title>cluster_WishListComponentsModule_exports</title>
<polygon fill="none" stroke="black" points="326,-170.8 326,-222.8 658,-222.8 658,-170.8 326,-170.8"/>
</g>
<!-- WishListComponent -->
<g id="node1" class="node">
<title>WishListComponent</title>
<polygon fill="#ffffb3" stroke="black" points="1077.16,-84.8 944.84,-84.8 944.84,-48.8 1077.16,-48.8 1077.16,-84.8"/>
<text text-anchor="middle" x="1011" y="-62.6" font-family="Times,serif" font-size="14.00">WishListComponent</text>
</g>
<!-- WishListComponentsModule -->
<g id="node3" class="node">
<title>WishListComponentsModule</title>
<polygon fill="#8dd3c7" stroke="black" points="589.66,-149.8 586.66,-153.8 565.66,-153.8 562.66,-149.8 408.34,-149.8 408.34,-113.8 589.66,-113.8 589.66,-149.8"/>
<text text-anchor="middle" x="499" y="-127.6" font-family="Times,serif" font-size="14.00">WishListComponentsModule</text>
</g>
<!-- WishListComponent&#45;&gt;WishListComponentsModule -->
<g id="edge1" class="edge">
<title>WishListComponent&#45;&gt;WishListComponentsModule</title>
<path fill="none" stroke="black" d="M1011,-85.09C1011,-107.01 1011,-140.8 1011,-140.8 1011,-140.8 599.95,-140.8 599.95,-140.8"/>
<polygon fill="black" stroke="black" points="599.95,-137.3 589.95,-140.8 599.95,-144.3 599.95,-137.3"/>
</g>
<!-- WishListItemComponent -->
<g id="node2" class="node">
<title>WishListItemComponent</title>
<polygon fill="#ffffb3" stroke="black" points="927.32,-84.8 768.68,-84.8 768.68,-48.8 927.32,-48.8 927.32,-84.8"/>
<text text-anchor="middle" x="848" y="-62.6" font-family="Times,serif" font-size="14.00">WishListItemComponent</text>
</g>
<!-- WishListItemComponent&#45;&gt;WishListComponentsModule -->
<g id="edge2" class="edge">
<title>WishListItemComponent&#45;&gt;WishListComponentsModule</title>
<path fill="none" stroke="black" d="M848,-84.91C848,-104.14 848,-131.8 848,-131.8 848,-131.8 599.78,-131.8 599.78,-131.8"/>
<polygon fill="black" stroke="black" points="599.78,-128.3 589.78,-131.8 599.78,-135.3 599.78,-128.3"/>
</g>
<!-- WishListComponent  -->
<g id="node10" class="node">
<title>WishListComponent </title>
<polygon fill="#fb8072" stroke="black" points="650.16,-214.8 513.84,-214.8 513.84,-178.8 650.16,-178.8 650.16,-214.8"/>
<text text-anchor="middle" x="582" y="-192.6" font-family="Times,serif" font-size="14.00">WishListComponent </text>
</g>
<!-- WishListComponentsModule&#45;&gt;WishListComponent  -->
<g id="edge9" class="edge">
<title>WishListComponentsModule&#45;&gt;WishListComponent </title>
<path fill="none" stroke="black" stroke-dasharray="5,2" d="M551.88,-149.91C551.88,-149.91 551.88,-168.79 551.88,-168.79"/>
<polygon fill="black" stroke="black" points="548.38,-168.79 551.88,-178.79 555.38,-168.79 548.38,-168.79"/>
</g>
<!-- WishListItemComponent  -->
<g id="node11" class="node">
<title>WishListItemComponent </title>
<polygon fill="#fb8072" stroke="black" points="495.82,-214.8 334.18,-214.8 334.18,-178.8 495.82,-178.8 495.82,-214.8"/>
<text text-anchor="middle" x="415" y="-192.6" font-family="Times,serif" font-size="14.00">WishListItemComponent </text>
</g>
<!-- WishListComponentsModule&#45;&gt;WishListItemComponent  -->
<g id="edge10" class="edge">
<title>WishListComponentsModule&#45;&gt;WishListItemComponent </title>
<path fill="none" stroke="black" stroke-dasharray="5,2" d="M452.04,-149.91C452.04,-149.91 452.04,-168.79 452.04,-168.79"/>
<polygon fill="black" stroke="black" points="448.54,-168.79 452.04,-178.79 455.54,-168.79 448.54,-168.79"/>
</g>
<!-- AtMessageModule -->
<g id="node4" class="node">
<title>AtMessageModule</title>
<polygon fill="#8dd3c7" stroke="black" points="745.04,-84.8 742.04,-88.8 721.04,-88.8 718.04,-84.8 622.96,-84.8 622.96,-48.8 745.04,-48.8 745.04,-84.8"/>
<text text-anchor="middle" x="684" y="-62.6" font-family="Times,serif" font-size="14.00">AtMessageModule</text>
</g>
<!-- AtMessageModule&#45;&gt;WishListComponentsModule -->
<g id="edge3" class="edge">
<title>AtMessageModule&#45;&gt;WishListComponentsModule</title>
<path fill="none" stroke="black" d="M636.41,-84.83C636.41,-101.2 636.41,-122.8 636.41,-122.8 636.41,-122.8 599.89,-122.8 599.89,-122.8"/>
<polygon fill="black" stroke="black" points="599.89,-119.3 589.89,-122.8 599.89,-126.3 599.89,-119.3"/>
</g>
<!-- I18nModule -->
<g id="node5" class="node">
<title>I18nModule</title>
<polygon fill="#8dd3c7" stroke="black" points="604.71,-84.8 601.71,-88.8 580.71,-88.8 577.71,-84.8 519.29,-84.8 519.29,-48.8 604.71,-48.8 604.71,-84.8"/>
<text text-anchor="middle" x="562" y="-62.6" font-family="Times,serif" font-size="14.00">I18nModule</text>
</g>
<!-- I18nModule&#45;&gt;WishListComponentsModule -->
<g id="edge4" class="edge">
<title>I18nModule&#45;&gt;WishListComponentsModule</title>
<path fill="none" stroke="black" d="M554.61,-84.91C554.61,-84.91 554.61,-103.79 554.61,-103.79"/>
<polygon fill="black" stroke="black" points="551.11,-103.79 554.61,-113.79 558.11,-103.79 551.11,-103.79"/>
</g>
<!-- ItemCounterModule -->
<g id="node6" class="node">
<title>ItemCounterModule</title>
<polygon fill="#8dd3c7" stroke="black" points="501.31,-84.8 498.31,-88.8 477.31,-88.8 474.31,-84.8 370.69,-84.8 370.69,-48.8 501.31,-48.8 501.31,-84.8"/>
<text text-anchor="middle" x="436" y="-62.6" font-family="Times,serif" font-size="14.00">ItemCounterModule</text>
</g>
<!-- ItemCounterModule&#45;&gt;WishListComponentsModule -->
<g id="edge5" class="edge">
<title>ItemCounterModule&#45;&gt;WishListComponentsModule</title>
<path fill="none" stroke="black" d="M454.66,-84.91C454.66,-84.91 454.66,-103.79 454.66,-103.79"/>
<polygon fill="black" stroke="black" points="451.16,-103.79 454.66,-113.79 458.16,-103.79 451.16,-103.79"/>
</g>
<!-- MediaModule -->
<g id="node7" class="node">
<title>MediaModule</title>
<polygon fill="#8dd3c7" stroke="black" points="352.82,-84.8 349.82,-88.8 328.82,-88.8 325.82,-84.8 257.18,-84.8 257.18,-48.8 352.82,-48.8 352.82,-84.8"/>
<text text-anchor="middle" x="305" y="-62.6" font-family="Times,serif" font-size="14.00">MediaModule</text>
</g>
<!-- MediaModule&#45;&gt;WishListComponentsModule -->
<g id="edge6" class="edge">
<title>MediaModule&#45;&gt;WishListComponentsModule</title>
<path fill="none" stroke="black" d="M343.38,-84.83C343.38,-101.2 343.38,-122.8 343.38,-122.8 343.38,-122.8 398.02,-122.8 398.02,-122.8"/>
<polygon fill="black" stroke="black" points="398.02,-126.3 408.02,-122.8 398.02,-119.3 398.02,-126.3"/>
</g>
<!-- StarRatingModule -->
<g id="node8" class="node">
<title>StarRatingModule</title>
<polygon fill="#8dd3c7" stroke="black" points="239.94,-84.8 236.94,-88.8 215.94,-88.8 212.94,-84.8 120.06,-84.8 120.06,-48.8 239.94,-48.8 239.94,-84.8"/>
<text text-anchor="middle" x="180" y="-62.6" font-family="Times,serif" font-size="14.00">StarRatingModule</text>
</g>
<!-- StarRatingModule&#45;&gt;WishListComponentsModule -->
<g id="edge7" class="edge">
<title>StarRatingModule&#45;&gt;WishListComponentsModule</title>
<path fill="none" stroke="black" d="M180,-84.91C180,-104.14 180,-131.8 180,-131.8 180,-131.8 398.01,-131.8 398.01,-131.8"/>
<polygon fill="black" stroke="black" points="398.01,-135.3 408.01,-131.8 398.01,-128.3 398.01,-135.3"/>
</g>
<!-- UrlModule -->
<g id="node9" class="node">
<title>UrlModule</title>
<polygon fill="#8dd3c7" stroke="black" points="102.21,-84.8 99.21,-88.8 78.21,-88.8 75.21,-84.8 23.79,-84.8 23.79,-48.8 102.21,-48.8 102.21,-84.8"/>
<text text-anchor="middle" x="63" y="-62.6" font-family="Times,serif" font-size="14.00">UrlModule</text>
</g>
<!-- UrlModule&#45;&gt;WishListComponentsModule -->
<g id="edge8" class="edge">
<title>UrlModule&#45;&gt;WishListComponentsModule</title>
<path fill="none" stroke="black" d="M63,-85.09C63,-107.01 63,-140.8 63,-140.8 63,-140.8 398.13,-140.8 398.13,-140.8"/>
<polygon fill="black" stroke="black" points="398.13,-144.3 408.13,-140.8 398.13,-137.3 398.13,-144.3"/>
</g>
</g>
</svg>
