<?xml version="1.0" encoding="UTF-8" standalone="no"?>
<!DOCTYPE svg PUBLIC "-//W3C//DTD SVG 1.1//EN"
 "http://www.w3.org/Graphics/SVG/1.1/DTD/svg11.dtd">
<!-- Generated by graphviz version 5.0.0 (20220707.1540)
 -->
<!-- Title: dependencies Pages: 1 -->
<svg width="402pt" height="247pt"
 viewBox="0.00 0.00 402.00 246.80" xmlns="http://www.w3.org/2000/svg" xmlns:xlink="http://www.w3.org/1999/xlink">
<g id="graph0" class="graph" transform="scale(1 1) rotate(0) translate(4 242.8)">
<title>dependencies</title>
<polygon fill="white" stroke="transparent" points="-4,4 -4,-242.8 398,-242.8 398,4 -4,4"/>
<text text-anchor="middle" x="197" y="-8.2" font-family="sans-serif" font-size="14.00">dependencies</text>
<g id="clust1" class="cluster">
<title>cluster_ConfiguratorPriceSummaryModule</title>
<polygon fill="none" stroke="black" stroke-dasharray="1,5" points="8,-32.8 8,-230.8 386,-230.8 386,-32.8 8,-32.8"/>
</g>
<g id="clust2" class="cluster">
<title>cluster_ConfiguratorPriceSummaryModule_declarations</title>
<polygon fill="none" stroke="black" points="126,-40.8 126,-92.8 378,-92.8 378,-40.8 126,-40.8"/>
</g>
<g id="clust4" class="cluster">
<title>cluster_ConfiguratorPriceSummaryModule_imports</title>
<polygon fill="none" stroke="black" points="16,-40.8 16,-92.8 118,-92.8 118,-40.8 16,-40.8"/>
</g>
<g id="clust5" class="cluster">
<title>cluster_ConfiguratorPriceSummaryModule_exports</title>
<polygon fill="none" stroke="black" points="69,-170.8 69,-222.8 325,-222.8 325,-170.8 69,-170.8"/>
</g>
<!-- ConfiguratorPriceSummaryComponent -->
<g id="node1" class="node">
<title>ConfiguratorPriceSummaryComponent</title>
<polygon fill="#ffffb3" stroke="black" points="370.36,-84.8 133.64,-84.8 133.64,-48.8 370.36,-48.8 370.36,-84.8"/>
<text text-anchor="middle" x="252" y="-62.6" font-family="Times,serif" font-size="14.00">ConfiguratorPriceSummaryComponent</text>
</g>
<!-- ConfiguratorPriceSummaryModule -->
<g id="node2" class="node">
<title>ConfiguratorPriceSummaryModule</title>
<polygon fill="#8dd3c7" stroke="black" points="304.58,-149.8 301.58,-153.8 280.58,-153.8 277.58,-149.8 89.42,-149.8 89.42,-113.8 304.58,-113.8 304.58,-149.8"/>
<text text-anchor="middle" x="197" y="-127.6" font-family="Times,serif" font-size="14.00">ConfiguratorPriceSummaryModule</text>
</g>
<!-- ConfiguratorPriceSummaryComponent&#45;&gt;ConfiguratorPriceSummaryModule -->
<g id="edge1" class="edge">
<title>ConfiguratorPriceSummaryComponent&#45;&gt;ConfiguratorPriceSummaryModule</title>
<path fill="none" stroke="black" d="M219.06,-84.91C219.06,-84.91 219.06,-103.79 219.06,-103.79"/>
<polygon fill="black" stroke="black" points="215.56,-103.79 219.06,-113.79 222.56,-103.79 215.56,-103.79"/>
</g>
<!-- ConfiguratorPriceSummaryComponent  -->
<g id="node4" class="node">
<title>ConfiguratorPriceSummaryComponent </title>
<polygon fill="#fb8072" stroke="black" points="317.36,-214.8 76.64,-214.8 76.64,-178.8 317.36,-178.8 317.36,-214.8"/>
<text text-anchor="middle" x="197" y="-192.6" font-family="Times,serif" font-size="14.00">ConfiguratorPriceSummaryComponent </text>
</g>
<!-- ConfiguratorPriceSummaryModule&#45;&gt;ConfiguratorPriceSummaryComponent  -->
<g id="edge3" class="edge">
<title>ConfiguratorPriceSummaryModule&#45;&gt;ConfiguratorPriceSummaryComponent </title>
<path fill="none" stroke="black" stroke-dasharray="5,2" d="M197,-149.91C197,-149.91 197,-168.79 197,-168.79"/>
<polygon fill="black" stroke="black" points="193.5,-168.79 197,-178.79 200.5,-168.79 193.5,-168.79"/>
</g>
<!-- I18nModule -->
<g id="node3" class="node">
<title>I18nModule</title>
<polygon fill="#8dd3c7" stroke="black" points="109.71,-84.8 106.71,-88.8 85.71,-88.8 82.71,-84.8 24.29,-84.8 24.29,-48.8 109.71,-48.8 109.71,-84.8"/>
<text text-anchor="middle" x="67" y="-62.6" font-family="Times,serif" font-size="14.00">I18nModule</text>
</g>
<!-- I18nModule&#45;&gt;ConfiguratorPriceSummaryModule -->
<g id="edge2" class="edge">
<title>I18nModule&#45;&gt;ConfiguratorPriceSummaryModule</title>
<path fill="none" stroke="black" d="M99.53,-84.91C99.53,-84.91 99.53,-103.79 99.53,-103.79"/>
<polygon fill="black" stroke="black" points="96.03,-103.79 99.53,-113.79 103.03,-103.79 96.03,-103.79"/>
</g>
</g>
</svg>
