<?xml version="1.0" encoding="UTF-8" standalone="no"?>
<!DOCTYPE svg PUBLIC "-//W3C//DTD SVG 1.1//EN"
 "http://www.w3.org/Graphics/SVG/1.1/DTD/svg11.dtd">
<!-- Generated by graphviz version 5.0.0 (20220707.1540)
 -->
<!-- Title: dependencies Pages: 1 -->
<svg width="705pt" height="174pt"
 viewBox="0.00 0.00 705.00 173.80" xmlns="http://www.w3.org/2000/svg" xmlns:xlink="http://www.w3.org/1999/xlink">
<g id="graph0" class="graph" transform="scale(1 1) rotate(0) translate(4 169.8)">
<title>dependencies</title>
<polygon fill="white" stroke="transparent" points="-4,4 -4,-169.8 701,-169.8 701,4 -4,4"/>
<text text-anchor="middle" x="348.5" y="-8.2" font-family="sans-serif" font-size="14.00">dependencies</text>
<g id="clust1" class="cluster">
<title>cluster_UserAccountCoreModule</title>
<polygon fill="none" stroke="black" stroke-dasharray="1,5" points="8,-32.8 8,-157.8 689,-157.8 689,-32.8 8,-32.8"/>
</g>
<g id="clust6" class="cluster">
<title>cluster_UserAccountCoreModule_providers</title>
<polygon fill="none" stroke="black" points="16,-40.8 16,-92.8 681,-92.8 681,-40.8 16,-40.8"/>
</g>
<!-- AsmBindCartService -->
<g id="node1" class="node">
<title>AsmBindCartService</title>
<ellipse fill="#fdb462" stroke="black" cx="579" cy="-66.8" rx="93.79" ry="18"/>
<text text-anchor="middle" x="579" y="-62.6" font-family="Times,serif" font-size="14.00">AsmBindCartService</text>
</g>
<!-- UserAccountCoreModule -->
<g id="node4" class="node">
<title>UserAccountCoreModule</title>
<polygon fill="#8dd3c7" stroke="black" points="437.13,-149.8 434.13,-153.8 413.13,-153.8 410.13,-149.8 276.87,-149.8 276.87,-113.8 437.13,-113.8 437.13,-149.8"/>
<text text-anchor="middle" x="357" y="-127.6" font-family="Times,serif" font-size="14.00">UserAccountCoreModule</text>
</g>
<!-- AsmBindCartService&#45;&gt;UserAccountCoreModule -->
<g id="edge1" class="edge">
<title>AsmBindCartService&#45;&gt;UserAccountCoreModule</title>
<path fill="none" stroke="black" d="M579,-84.91C579,-104.14 579,-131.8 579,-131.8 579,-131.8 447.15,-131.8 447.15,-131.8"/>
<polygon fill="black" stroke="black" points="447.15,-128.3 437.15,-131.8 447.15,-135.3 447.15,-128.3"/>
</g>
<!-- AsmCustomerListService -->
<g id="node2" class="node">
<title>AsmCustomerListService</title>
<ellipse fill="#fdb462" stroke="black" cx="357" cy="-66.8" rx="110.63" ry="18"/>
<text text-anchor="middle" x="357" y="-62.6" font-family="Times,serif" font-size="14.00">AsmCustomerListService</text>
</g>
<!-- AsmCustomerListService&#45;&gt;UserAccountCoreModule -->
<g id="edge2" class="edge">
<title>AsmCustomerListService&#45;&gt;UserAccountCoreModule</title>
<path fill="none" stroke="black" d="M357,-84.91C357,-84.91 357,-103.79 357,-103.79"/>
<polygon fill="black" stroke="black" points="353.5,-103.79 357,-113.79 360.5,-103.79 353.5,-103.79"/>
</g>
<!-- UserAccountConnector -->
<g id="node3" class="node">
<title>UserAccountConnector</title>
<ellipse fill="#fdb462" stroke="black" cx="126" cy="-66.8" rx="102.42" ry="18"/>
<text text-anchor="middle" x="126" y="-62.6" font-family="Times,serif" font-size="14.00">UserAccountConnector</text>
</g>
<!-- UserAccountConnector&#45;&gt;UserAccountCoreModule -->
<g id="edge3" class="edge">
<title>UserAccountConnector&#45;&gt;UserAccountCoreModule</title>
<path fill="none" stroke="black" d="M126,-84.91C126,-104.14 126,-131.8 126,-131.8 126,-131.8 266.86,-131.8 266.86,-131.8"/>
<polygon fill="black" stroke="black" points="266.86,-135.3 276.86,-131.8 266.86,-128.3 266.86,-135.3"/>
</g>
</g>
</svg>
