<?xml version="1.0" encoding="UTF-8" standalone="no"?>
<!DOCTYPE svg PUBLIC "-//W3C//DTD SVG 1.1//EN"
 "http://www.w3.org/Graphics/SVG/1.1/DTD/svg11.dtd">
<!-- Generated by graphviz version 5.0.0 (20220707.1540)
 -->
<!-- Title: dependencies Pages: 1 -->
<svg width="604pt" height="247pt"
 viewBox="0.00 0.00 604.00 246.80" xmlns="http://www.w3.org/2000/svg" xmlns:xlink="http://www.w3.org/1999/xlink">
<g id="graph0" class="graph" transform="scale(1 1) rotate(0) translate(4 242.8)">
<title>dependencies</title>
<polygon fill="white" stroke="transparent" points="-4,4 -4,-242.8 600,-242.8 600,4 -4,4"/>
<text text-anchor="middle" x="298" y="-8.2" font-family="sans-serif" font-size="14.00">dependencies</text>
<g id="clust1" class="cluster">
<title>cluster_ConfiguratorOverviewAttributeModule</title>
<polygon fill="none" stroke="black" stroke-dasharray="1,5" points="8,-32.8 8,-230.8 588,-230.8 588,-32.8 8,-32.8"/>
</g>
<g id="clust4" class="cluster">
<title>cluster_ConfiguratorOverviewAttributeModule_imports</title>
<polygon fill="none" stroke="black" points="300,-40.8 300,-92.8 580,-92.8 580,-40.8 300,-40.8"/>
</g>
<g id="clust5" class="cluster">
<title>cluster_ConfiguratorOverviewAttributeModule_exports</title>
<polygon fill="none" stroke="black" points="212,-170.8 212,-222.8 490,-222.8 490,-170.8 212,-170.8"/>
</g>
<g id="clust2" class="cluster">
<title>cluster_ConfiguratorOverviewAttributeModule_declarations</title>
<polygon fill="none" stroke="black" points="16,-40.8 16,-92.8 292,-92.8 292,-40.8 16,-40.8"/>
</g>
<!-- ConfiguratorOverviewAttributeComponent -->
<g id="node1" class="node">
<title>ConfiguratorOverviewAttributeComponent</title>
<polygon fill="#ffffb3" stroke="black" points="283.89,-84.8 24.11,-84.8 24.11,-48.8 283.89,-48.8 283.89,-84.8"/>
<text text-anchor="middle" x="154" y="-62.6" font-family="Times,serif" font-size="14.00">ConfiguratorOverviewAttributeComponent</text>
</g>
<!-- ConfiguratorOverviewAttributeModule -->
<g id="node2" class="node">
<title>ConfiguratorOverviewAttributeModule</title>
<polygon fill="#8dd3c7" stroke="black" points="469.61,-149.8 466.61,-153.8 445.61,-153.8 442.61,-149.8 232.39,-149.8 232.39,-113.8 469.61,-113.8 469.61,-149.8"/>
<text text-anchor="middle" x="351" y="-127.6" font-family="Times,serif" font-size="14.00">ConfiguratorOverviewAttributeModule</text>
</g>
<!-- ConfiguratorOverviewAttributeComponent&#45;&gt;ConfiguratorOverviewAttributeModule -->
<g id="edge1" class="edge">
<title>ConfiguratorOverviewAttributeComponent&#45;&gt;ConfiguratorOverviewAttributeModule</title>
<path fill="none" stroke="black" d="M257.94,-84.91C257.94,-84.91 257.94,-103.79 257.94,-103.79"/>
<polygon fill="black" stroke="black" points="254.44,-103.79 257.94,-113.79 261.44,-103.79 254.44,-103.79"/>
</g>
<!-- ConfiguratorOverviewAttributeComponent  -->
<g id="node5" class="node">
<title>ConfiguratorOverviewAttributeComponent </title>
<polygon fill="#fb8072" stroke="black" points="482.39,-214.8 219.61,-214.8 219.61,-178.8 482.39,-178.8 482.39,-214.8"/>
<text text-anchor="middle" x="351" y="-192.6" font-family="Times,serif" font-size="14.00">ConfiguratorOverviewAttributeComponent </text>
</g>
<!-- ConfiguratorOverviewAttributeModule&#45;&gt;ConfiguratorOverviewAttributeComponent  -->
<g id="edge4" class="edge">
<title>ConfiguratorOverviewAttributeModule&#45;&gt;ConfiguratorOverviewAttributeComponent </title>
<path fill="none" stroke="black" stroke-dasharray="5,2" d="M351,-149.91C351,-149.91 351,-168.79 351,-168.79"/>
<polygon fill="black" stroke="black" points="347.5,-168.79 351,-178.79 354.5,-168.79 347.5,-168.79"/>
</g>
<!-- ConfiguratorPriceModule -->
<g id="node3" class="node">
<title>ConfiguratorPriceModule</title>
<polygon fill="#8dd3c7" stroke="black" points="572.14,-84.8 569.14,-88.8 548.14,-88.8 545.14,-84.8 411.86,-84.8 411.86,-48.8 572.14,-48.8 572.14,-84.8"/>
<text text-anchor="middle" x="492" y="-62.6" font-family="Times,serif" font-size="14.00">ConfiguratorPriceModule</text>
</g>
<!-- ConfiguratorPriceModule&#45;&gt;ConfiguratorOverviewAttributeModule -->
<g id="edge2" class="edge">
<title>ConfiguratorPriceModule&#45;&gt;ConfiguratorOverviewAttributeModule</title>
<path fill="none" stroke="black" d="M440.74,-84.91C440.74,-84.91 440.74,-103.79 440.74,-103.79"/>
<polygon fill="black" stroke="black" points="437.24,-103.79 440.74,-113.79 444.24,-103.79 437.24,-103.79"/>
</g>
<!-- I18nModule -->
<g id="node4" class="node">
<title>I18nModule</title>
<polygon fill="#8dd3c7" stroke="black" points="393.71,-84.8 390.71,-88.8 369.71,-88.8 366.71,-84.8 308.29,-84.8 308.29,-48.8 393.71,-48.8 393.71,-84.8"/>
<text text-anchor="middle" x="351" y="-62.6" font-family="Times,serif" font-size="14.00">I18nModule</text>
</g>
<!-- I18nModule&#45;&gt;ConfiguratorOverviewAttributeModule -->
<g id="edge3" class="edge">
<title>I18nModule&#45;&gt;ConfiguratorOverviewAttributeModule</title>
<path fill="none" stroke="black" d="M351,-84.91C351,-84.91 351,-103.79 351,-103.79"/>
<polygon fill="black" stroke="black" points="347.5,-103.79 351,-113.79 354.5,-103.79 347.5,-103.79"/>
</g>
</g>
</svg>
