<?xml version="1.0" encoding="UTF-8" standalone="no"?>
<!DOCTYPE svg PUBLIC "-//W3C//DTD SVG 1.1//EN"
 "http://www.w3.org/Graphics/SVG/1.1/DTD/svg11.dtd">
<!-- Generated by graphviz version 5.0.0 (20220707.1540)
 -->
<!-- Title: dependencies Pages: 1 -->
<svg width="650pt" height="174pt"
 viewBox="0.00 0.00 650.00 173.80" xmlns="http://www.w3.org/2000/svg" xmlns:xlink="http://www.w3.org/1999/xlink">
<g id="graph0" class="graph" transform="scale(1 1) rotate(0) translate(4 169.8)">
<title>dependencies</title>
<polygon fill="white" stroke="transparent" points="-4,4 -4,-169.8 646,-169.8 646,4 -4,4"/>
<text text-anchor="middle" x="321" y="-8.2" font-family="sans-serif" font-size="14.00">dependencies</text>
<g id="clust1" class="cluster">
<title>cluster_ProfileTagModule</title>
<polygon fill="none" stroke="black" stroke-dasharray="1,5" points="8,-32.8 8,-157.8 634,-157.8 634,-32.8 8,-32.8"/>
</g>
<g id="clust6" class="cluster">
<title>cluster_ProfileTagModule_providers</title>
<polygon fill="none" stroke="black" points="186,-40.8 186,-92.8 626,-92.8 626,-40.8 186,-40.8"/>
</g>
<g id="clust3" class="cluster">
<title>cluster_ProfileTagModule_imports</title>
<polygon fill="none" stroke="black" points="16,-40.8 16,-92.8 178,-92.8 178,-40.8 16,-40.8"/>
</g>
<!-- ProfileTagCmsModule -->
<g id="node1" class="node">
<title>ProfileTagCmsModule</title>
<polygon fill="#8dd3c7" stroke="black" points="169.6,-84.8 166.6,-88.8 145.6,-88.8 142.6,-84.8 24.4,-84.8 24.4,-48.8 169.6,-48.8 169.6,-84.8"/>
<text text-anchor="middle" x="97" y="-62.6" font-family="Times,serif" font-size="14.00">ProfileTagCmsModule</text>
</g>
<!-- ProfileTagModule -->
<g id="node2" class="node">
<title>ProfileTagModule</title>
<polygon fill="#8dd3c7" stroke="black" points="332.92,-149.8 329.92,-153.8 308.92,-153.8 305.92,-149.8 213.08,-149.8 213.08,-113.8 332.92,-113.8 332.92,-149.8"/>
<text text-anchor="middle" x="273" y="-127.6" font-family="Times,serif" font-size="14.00">ProfileTagModule</text>
</g>
<!-- ProfileTagCmsModule&#45;&gt;ProfileTagModule -->
<g id="edge1" class="edge">
<title>ProfileTagCmsModule&#45;&gt;ProfileTagModule</title>
<path fill="none" stroke="black" d="M97,-84.91C97,-104.14 97,-131.8 97,-131.8 97,-131.8 202.92,-131.8 202.92,-131.8"/>
<polygon fill="black" stroke="black" points="202.92,-135.3 212.92,-131.8 202.92,-128.3 202.92,-135.3"/>
</g>
<!-- ConsentReferenceInterceptor -->
<g id="node3" class="node">
<title>ConsentReferenceInterceptor</title>
<ellipse fill="#fdb462" stroke="black" cx="494" cy="-66.8" rx="124.36" ry="18"/>
<text text-anchor="middle" x="494" y="-62.6" font-family="Times,serif" font-size="14.00">ConsentReferenceInterceptor</text>
</g>
<!-- ConsentReferenceInterceptor&#45;&gt;ProfileTagModule -->
<g id="edge2" class="edge">
<title>ConsentReferenceInterceptor&#45;&gt;ProfileTagModule</title>
<path fill="none" stroke="black" d="M494,-84.91C494,-104.14 494,-131.8 494,-131.8 494,-131.8 342.81,-131.8 342.81,-131.8"/>
<polygon fill="black" stroke="black" points="342.81,-128.3 332.81,-131.8 342.81,-135.3 342.81,-128.3"/>
</g>
<!-- DebugInterceptor -->
<g id="node4" class="node">
<title>DebugInterceptor</title>
<ellipse fill="#fdb462" stroke="black" cx="273" cy="-66.8" rx="79.28" ry="18"/>
<text text-anchor="middle" x="273" y="-62.6" font-family="Times,serif" font-size="14.00">DebugInterceptor</text>
</g>
<!-- DebugInterceptor&#45;&gt;ProfileTagModule -->
<g id="edge3" class="edge">
<title>DebugInterceptor&#45;&gt;ProfileTagModule</title>
<path fill="none" stroke="black" d="M273,-84.91C273,-84.91 273,-103.79 273,-103.79"/>
<polygon fill="black" stroke="black" points="269.5,-103.79 273,-113.79 276.5,-103.79 269.5,-103.79"/>
</g>
</g>
</svg>
