<?xml version="1.0" encoding="UTF-8" standalone="no"?>
<!DOCTYPE svg PUBLIC "-//W3C//DTD SVG 1.1//EN"
 "http://www.w3.org/Graphics/SVG/1.1/DTD/svg11.dtd">
<!-- Generated by graphviz version 5.0.0 (20220707.1540)
 -->
<!-- Title: dependencies Pages: 1 -->
<svg width="1037pt" height="174pt"
 viewBox="0.00 0.00 1037.00 173.80" xmlns="http://www.w3.org/2000/svg" xmlns:xlink="http://www.w3.org/1999/xlink">
<g id="graph0" class="graph" transform="scale(1 1) rotate(0) translate(4 169.8)">
<title>dependencies</title>
<polygon fill="white" stroke="transparent" points="-4,4 -4,-169.8 1033,-169.8 1033,4 -4,4"/>
<text text-anchor="middle" x="514.5" y="-8.2" font-family="sans-serif" font-size="14.00">dependencies</text>
<g id="clust1" class="cluster">
<title>cluster_RegisterComponentModule</title>
<polygon fill="none" stroke="black" stroke-dasharray="1,5" points="8,-32.8 8,-157.8 1021,-157.8 1021,-32.8 8,-32.8"/>
</g>
<g id="clust2" class="cluster">
<title>cluster_RegisterComponentModule_declarations</title>
<polygon fill="none" stroke="black" points="869,-40.8 869,-92.8 1013,-92.8 1013,-40.8 869,-40.8"/>
</g>
<g id="clust4" class="cluster">
<title>cluster_RegisterComponentModule_imports</title>
<polygon fill="none" stroke="black" points="16,-40.8 16,-92.8 861,-92.8 861,-40.8 16,-40.8"/>
</g>
<!-- RegisterComponent -->
<g id="node1" class="node">
<title>RegisterComponent</title>
<polygon fill="#ffffb3" stroke="black" points="1004.99,-84.8 877.01,-84.8 877.01,-48.8 1004.99,-48.8 1004.99,-84.8"/>
<text text-anchor="middle" x="941" y="-62.6" font-family="Times,serif" font-size="14.00">RegisterComponent</text>
</g>
<!-- RegisterComponentModule -->
<g id="node2" class="node">
<title>RegisterComponentModule</title>
<polygon fill="#8dd3c7" stroke="black" points="621.54,-149.8 618.54,-153.8 597.54,-153.8 594.54,-149.8 450.46,-149.8 450.46,-113.8 621.54,-113.8 621.54,-149.8"/>
<text text-anchor="middle" x="536" y="-127.6" font-family="Times,serif" font-size="14.00">RegisterComponentModule</text>
</g>
<!-- RegisterComponent&#45;&gt;RegisterComponentModule -->
<g id="edge1" class="edge">
<title>RegisterComponent&#45;&gt;RegisterComponentModule</title>
<path fill="none" stroke="black" d="M941,-85.08C941,-106.12 941,-137.8 941,-137.8 941,-137.8 631.89,-137.8 631.89,-137.8"/>
<polygon fill="black" stroke="black" points="631.89,-134.3 621.89,-137.8 631.89,-141.3 631.89,-134.3"/>
</g>
<!-- FormErrorsModule -->
<g id="node3" class="node">
<title>FormErrorsModule</title>
<polygon fill="#8dd3c7" stroke="black" points="853.38,-84.8 850.38,-88.8 829.38,-88.8 826.38,-84.8 728.62,-84.8 728.62,-48.8 853.38,-48.8 853.38,-84.8"/>
<text text-anchor="middle" x="791" y="-62.6" font-family="Times,serif" font-size="14.00">FormErrorsModule</text>
</g>
<!-- FormErrorsModule&#45;&gt;RegisterComponentModule -->
<g id="edge2" class="edge">
<title>FormErrorsModule&#45;&gt;RegisterComponentModule</title>
<path fill="none" stroke="black" d="M791,-84.82C791,-102.17 791,-125.8 791,-125.8 791,-125.8 631.62,-125.8 631.62,-125.8"/>
<polygon fill="black" stroke="black" points="631.62,-122.3 621.62,-125.8 631.62,-129.3 631.62,-122.3"/>
</g>
<!-- I18nModule -->
<g id="node4" class="node">
<title>I18nModule</title>
<polygon fill="#8dd3c7" stroke="black" points="710.71,-84.8 707.71,-88.8 686.71,-88.8 683.71,-84.8 625.29,-84.8 625.29,-48.8 710.71,-48.8 710.71,-84.8"/>
<text text-anchor="middle" x="668" y="-62.6" font-family="Times,serif" font-size="14.00">I18nModule</text>
</g>
<!-- I18nModule&#45;&gt;RegisterComponentModule -->
<g id="edge3" class="edge">
<title>I18nModule&#45;&gt;RegisterComponentModule</title>
<path fill="none" stroke="black" d="M625.23,-66.8C618.86,-66.8 614.38,-66.8 614.38,-66.8 614.38,-66.8 614.38,-103.69 614.38,-103.69"/>
<polygon fill="black" stroke="black" points="610.88,-103.69 614.38,-113.69 617.88,-103.69 610.88,-103.69"/>
</g>
<!-- NgSelectA11yModule -->
<g id="node5" class="node">
<title>NgSelectA11yModule</title>
<polygon fill="#8dd3c7" stroke="black" points="606.98,-84.8 603.98,-88.8 582.98,-88.8 579.98,-84.8 465.02,-84.8 465.02,-48.8 606.98,-48.8 606.98,-84.8"/>
<text text-anchor="middle" x="536" y="-62.6" font-family="Times,serif" font-size="14.00">NgSelectA11yModule</text>
</g>
<!-- NgSelectA11yModule&#45;&gt;RegisterComponentModule -->
<g id="edge4" class="edge">
<title>NgSelectA11yModule&#45;&gt;RegisterComponentModule</title>
<path fill="none" stroke="black" d="M536,-84.91C536,-84.91 536,-103.79 536,-103.79"/>
<polygon fill="black" stroke="black" points="532.5,-103.79 536,-113.79 539.5,-103.79 532.5,-103.79"/>
</g>
<!-- PasswordVisibilityToggleModule -->
<g id="node6" class="node">
<title>PasswordVisibilityToggleModule</title>
<polygon fill="#8dd3c7" stroke="black" points="446.77,-84.8 443.77,-88.8 422.77,-88.8 419.77,-84.8 241.23,-84.8 241.23,-48.8 446.77,-48.8 446.77,-84.8"/>
<text text-anchor="middle" x="344" y="-62.6" font-family="Times,serif" font-size="14.00">PasswordVisibilityToggleModule</text>
</g>
<!-- PasswordVisibilityToggleModule&#45;&gt;RegisterComponentModule -->
<g id="edge5" class="edge">
<title>PasswordVisibilityToggleModule&#45;&gt;RegisterComponentModule</title>
<path fill="none" stroke="black" d="M447.14,-66.8C453.63,-66.8 457.62,-66.8 457.62,-66.8 457.62,-66.8 457.62,-103.69 457.62,-103.69"/>
<polygon fill="black" stroke="black" points="454.12,-103.69 457.62,-113.69 461.12,-103.69 454.12,-103.69"/>
</g>
<!-- SpinnerModule -->
<g id="node7" class="node">
<title>SpinnerModule</title>
<polygon fill="#8dd3c7" stroke="black" points="223.6,-84.8 220.6,-88.8 199.6,-88.8 196.6,-84.8 120.4,-84.8 120.4,-48.8 223.6,-48.8 223.6,-84.8"/>
<text text-anchor="middle" x="172" y="-62.6" font-family="Times,serif" font-size="14.00">SpinnerModule</text>
</g>
<!-- SpinnerModule&#45;&gt;RegisterComponentModule -->
<g id="edge6" class="edge">
<title>SpinnerModule&#45;&gt;RegisterComponentModule</title>
<path fill="none" stroke="black" d="M172,-84.82C172,-102.17 172,-125.8 172,-125.8 172,-125.8 440.2,-125.8 440.2,-125.8"/>
<polygon fill="black" stroke="black" points="440.2,-129.3 450.2,-125.8 440.2,-122.3 440.2,-129.3"/>
</g>
<!-- UrlModule -->
<g id="node8" class="node">
<title>UrlModule</title>
<polygon fill="#8dd3c7" stroke="black" points="102.21,-84.8 99.21,-88.8 78.21,-88.8 75.21,-84.8 23.79,-84.8 23.79,-48.8 102.21,-48.8 102.21,-84.8"/>
<text text-anchor="middle" x="63" y="-62.6" font-family="Times,serif" font-size="14.00">UrlModule</text>
</g>
<!-- UrlModule&#45;&gt;RegisterComponentModule -->
<g id="edge7" class="edge">
<title>UrlModule&#45;&gt;RegisterComponentModule</title>
<path fill="none" stroke="black" d="M63,-85.08C63,-106.12 63,-137.8 63,-137.8 63,-137.8 440.34,-137.8 440.34,-137.8"/>
<polygon fill="black" stroke="black" points="440.34,-141.3 450.34,-137.8 440.34,-134.3 440.34,-141.3"/>
</g>
</g>
</svg>
