<?xml version="1.0" encoding="UTF-8" standalone="no"?>
<!DOCTYPE svg PUBLIC "-//W3C//DTD SVG 1.1//EN"
 "http://www.w3.org/Graphics/SVG/1.1/DTD/svg11.dtd">
<!-- Generated by graphviz version 5.0.0 (20220707.1540)
 -->
<!-- Title: dependencies Pages: 1 -->
<svg width="571pt" height="247pt"
 viewBox="0.00 0.00 571.00 246.80" xmlns="http://www.w3.org/2000/svg" xmlns:xlink="http://www.w3.org/1999/xlink">
<g id="graph0" class="graph" transform="scale(1 1) rotate(0) translate(4 242.8)">
<title>dependencies</title>
<polygon fill="white" stroke="transparent" points="-4,4 -4,-242.8 567,-242.8 567,4 -4,4"/>
<text text-anchor="middle" x="281.5" y="-8.2" font-family="sans-serif" font-size="14.00">dependencies</text>
<g id="clust1" class="cluster">
<title>cluster_PaymentMethodsModule</title>
<polygon fill="none" stroke="black" stroke-dasharray="1,5" points="8,-32.8 8,-230.8 555,-230.8 555,-32.8 8,-32.8"/>
</g>
<g id="clust4" class="cluster">
<title>cluster_PaymentMethodsModule_imports</title>
<polygon fill="none" stroke="black" points="220,-40.8 220,-92.8 547,-92.8 547,-40.8 220,-40.8"/>
</g>
<g id="clust5" class="cluster">
<title>cluster_PaymentMethodsModule_exports</title>
<polygon fill="none" stroke="black" points="237,-170.8 237,-222.8 435,-222.8 435,-170.8 237,-170.8"/>
</g>
<g id="clust2" class="cluster">
<title>cluster_PaymentMethodsModule_declarations</title>
<polygon fill="none" stroke="black" points="16,-40.8 16,-92.8 212,-92.8 212,-40.8 16,-40.8"/>
</g>
<!-- PaymentMethodsComponent -->
<g id="node1" class="node">
<title>PaymentMethodsComponent</title>
<polygon fill="#ffffb3" stroke="black" points="203.82,-84.8 24.18,-84.8 24.18,-48.8 203.82,-48.8 203.82,-84.8"/>
<text text-anchor="middle" x="114" y="-62.6" font-family="Times,serif" font-size="14.00">PaymentMethodsComponent</text>
</g>
<!-- PaymentMethodsModule -->
<g id="node2" class="node">
<title>PaymentMethodsModule</title>
<polygon fill="#8dd3c7" stroke="black" points="414.55,-149.8 411.55,-153.8 390.55,-153.8 387.55,-149.8 257.45,-149.8 257.45,-113.8 414.55,-113.8 414.55,-149.8"/>
<text text-anchor="middle" x="336" y="-127.6" font-family="Times,serif" font-size="14.00">PaymentMethodsModule</text>
</g>
<!-- PaymentMethodsComponent&#45;&gt;PaymentMethodsModule -->
<g id="edge1" class="edge">
<title>PaymentMethodsComponent&#45;&gt;PaymentMethodsModule</title>
<path fill="none" stroke="black" d="M114,-84.91C114,-104.14 114,-131.8 114,-131.8 114,-131.8 247.42,-131.8 247.42,-131.8"/>
<polygon fill="black" stroke="black" points="247.42,-135.3 257.42,-131.8 247.42,-128.3 247.42,-135.3"/>
</g>
<!-- PaymentMethodsComponent  -->
<g id="node6" class="node">
<title>PaymentMethodsComponent </title>
<polygon fill="#fb8072" stroke="black" points="427.32,-214.8 244.68,-214.8 244.68,-178.8 427.32,-178.8 427.32,-214.8"/>
<text text-anchor="middle" x="336" y="-192.6" font-family="Times,serif" font-size="14.00">PaymentMethodsComponent </text>
</g>
<!-- PaymentMethodsModule&#45;&gt;PaymentMethodsComponent  -->
<g id="edge5" class="edge">
<title>PaymentMethodsModule&#45;&gt;PaymentMethodsComponent </title>
<path fill="none" stroke="black" stroke-dasharray="5,2" d="M336,-149.91C336,-149.91 336,-168.79 336,-168.79"/>
<polygon fill="black" stroke="black" points="332.5,-168.79 336,-178.79 339.5,-168.79 332.5,-168.79"/>
</g>
<!-- CardModule -->
<g id="node3" class="node">
<title>CardModule</title>
<polygon fill="#8dd3c7" stroke="black" points="539.27,-84.8 536.27,-88.8 515.27,-88.8 512.27,-84.8 452.73,-84.8 452.73,-48.8 539.27,-48.8 539.27,-84.8"/>
<text text-anchor="middle" x="496" y="-62.6" font-family="Times,serif" font-size="14.00">CardModule</text>
</g>
<!-- CardModule&#45;&gt;PaymentMethodsModule -->
<g id="edge2" class="edge">
<title>CardModule&#45;&gt;PaymentMethodsModule</title>
<path fill="none" stroke="black" d="M496,-84.91C496,-104.14 496,-131.8 496,-131.8 496,-131.8 424.59,-131.8 424.59,-131.8"/>
<polygon fill="black" stroke="black" points="424.59,-128.3 414.59,-131.8 424.59,-135.3 424.59,-128.3"/>
</g>
<!-- I18nModule -->
<g id="node4" class="node">
<title>I18nModule</title>
<polygon fill="#8dd3c7" stroke="black" points="434.71,-84.8 431.71,-88.8 410.71,-88.8 407.71,-84.8 349.29,-84.8 349.29,-48.8 434.71,-48.8 434.71,-84.8"/>
<text text-anchor="middle" x="392" y="-62.6" font-family="Times,serif" font-size="14.00">I18nModule</text>
</g>
<!-- I18nModule&#45;&gt;PaymentMethodsModule -->
<g id="edge3" class="edge">
<title>I18nModule&#45;&gt;PaymentMethodsModule</title>
<path fill="none" stroke="black" d="M382.08,-84.91C382.08,-84.91 382.08,-103.79 382.08,-103.79"/>
<polygon fill="black" stroke="black" points="378.58,-103.79 382.08,-113.79 385.58,-103.79 378.58,-103.79"/>
</g>
<!-- SpinnerModule -->
<g id="node5" class="node">
<title>SpinnerModule</title>
<polygon fill="#8dd3c7" stroke="black" points="331.6,-84.8 328.6,-88.8 307.6,-88.8 304.6,-84.8 228.4,-84.8 228.4,-48.8 331.6,-48.8 331.6,-84.8"/>
<text text-anchor="middle" x="280" y="-62.6" font-family="Times,serif" font-size="14.00">SpinnerModule</text>
</g>
<!-- SpinnerModule&#45;&gt;PaymentMethodsModule -->
<g id="edge4" class="edge">
<title>SpinnerModule&#45;&gt;PaymentMethodsModule</title>
<path fill="none" stroke="black" d="M294.39,-84.91C294.39,-84.91 294.39,-103.79 294.39,-103.79"/>
<polygon fill="black" stroke="black" points="290.89,-103.79 294.39,-113.79 297.89,-103.79 290.89,-103.79"/>
</g>
</g>
</svg>
