<?xml version="1.0" encoding="UTF-8" standalone="no"?>
<!DOCTYPE svg PUBLIC "-//W3C//DTD SVG 1.1//EN"
 "http://www.w3.org/Graphics/SVG/1.1/DTD/svg11.dtd">
<!-- Generated by graphviz version 5.0.0 (20220707.1540)
 -->
<!-- Title: dependencies Pages: 1 -->
<svg width="1066pt" height="247pt"
 viewBox="0.00 0.00 1066.00 246.80" xmlns="http://www.w3.org/2000/svg" xmlns:xlink="http://www.w3.org/1999/xlink">
<g id="graph0" class="graph" transform="scale(1 1) rotate(0) translate(4 242.8)">
<title>dependencies</title>
<polygon fill="white" stroke="transparent" points="-4,4 -4,-242.8 1062,-242.8 1062,4 -4,4"/>
<text text-anchor="middle" x="529" y="-8.2" font-family="sans-serif" font-size="14.00">dependencies</text>
<g id="clust1" class="cluster">
<title>cluster_DpPaymentMethodModule</title>
<polygon fill="none" stroke="black" stroke-dasharray="1,5" points="8,-32.8 8,-230.8 1050,-230.8 1050,-32.8 8,-32.8"/>
</g>
<g id="clust4" class="cluster">
<title>cluster_DpPaymentMethodModule_imports</title>
<polygon fill="none" stroke="black" points="230,-40.8 230,-92.8 1042,-92.8 1042,-40.8 230,-40.8"/>
</g>
<g id="clust2" class="cluster">
<title>cluster_DpPaymentMethodModule_declarations</title>
<polygon fill="none" stroke="black" points="16,-40.8 16,-92.8 222,-92.8 222,-40.8 16,-40.8"/>
</g>
<g id="clust5" class="cluster">
<title>cluster_DpPaymentMethodModule_exports</title>
<polygon fill="none" stroke="black" points="436,-170.8 436,-222.8 646,-222.8 646,-170.8 436,-170.8"/>
</g>
<!-- DpPaymentMethodComponent -->
<g id="node1" class="node">
<title>DpPaymentMethodComponent</title>
<polygon fill="#ffffb3" stroke="black" points="214.49,-84.8 23.51,-84.8 23.51,-48.8 214.49,-48.8 214.49,-84.8"/>
<text text-anchor="middle" x="119" y="-62.6" font-family="Times,serif" font-size="14.00">DpPaymentMethodComponent</text>
</g>
<!-- DpPaymentMethodModule -->
<g id="node2" class="node">
<title>DpPaymentMethodModule</title>
<polygon fill="#8dd3c7" stroke="black" points="625.71,-149.8 622.71,-153.8 601.71,-153.8 598.71,-149.8 456.29,-149.8 456.29,-113.8 625.71,-113.8 625.71,-149.8"/>
<text text-anchor="middle" x="541" y="-127.6" font-family="Times,serif" font-size="14.00">DpPaymentMethodModule</text>
</g>
<!-- DpPaymentMethodComponent&#45;&gt;DpPaymentMethodModule -->
<g id="edge1" class="edge">
<title>DpPaymentMethodComponent&#45;&gt;DpPaymentMethodModule</title>
<path fill="none" stroke="black" d="M119,-85.09C119,-107.01 119,-140.8 119,-140.8 119,-140.8 446.36,-140.8 446.36,-140.8"/>
<polygon fill="black" stroke="black" points="446.36,-144.3 456.36,-140.8 446.36,-137.3 446.36,-144.3"/>
</g>
<!-- DpPaymentMethodComponent  -->
<g id="node9" class="node">
<title>DpPaymentMethodComponent </title>
<polygon fill="#fb8072" stroke="black" points="638.49,-214.8 443.51,-214.8 443.51,-178.8 638.49,-178.8 638.49,-214.8"/>
<text text-anchor="middle" x="541" y="-192.6" font-family="Times,serif" font-size="14.00">DpPaymentMethodComponent </text>
</g>
<!-- DpPaymentMethodModule&#45;&gt;DpPaymentMethodComponent  -->
<g id="edge8" class="edge">
<title>DpPaymentMethodModule&#45;&gt;DpPaymentMethodComponent </title>
<path fill="none" stroke="black" stroke-dasharray="5,2" d="M541,-149.91C541,-149.91 541,-168.79 541,-168.79"/>
<polygon fill="black" stroke="black" points="537.5,-168.79 541,-178.79 544.5,-168.79 537.5,-168.79"/>
</g>
<!-- CardModule -->
<g id="node3" class="node">
<title>CardModule</title>
<polygon fill="#8dd3c7" stroke="black" points="1034.27,-84.8 1031.27,-88.8 1010.27,-88.8 1007.27,-84.8 947.73,-84.8 947.73,-48.8 1034.27,-48.8 1034.27,-84.8"/>
<text text-anchor="middle" x="991" y="-62.6" font-family="Times,serif" font-size="14.00">CardModule</text>
</g>
<!-- CardModule&#45;&gt;DpPaymentMethodModule -->
<g id="edge2" class="edge">
<title>CardModule&#45;&gt;DpPaymentMethodModule</title>
<path fill="none" stroke="black" d="M991,-85.09C991,-107.01 991,-140.8 991,-140.8 991,-140.8 635.64,-140.8 635.64,-140.8"/>
<polygon fill="black" stroke="black" points="635.64,-137.3 625.64,-140.8 635.64,-144.3 635.64,-137.3"/>
</g>
<!-- ConfigModule -->
<g id="node4" class="node">
<title>ConfigModule</title>
<polygon fill="#8dd3c7" stroke="black" points="929.44,-84.8 926.44,-88.8 905.44,-88.8 902.44,-84.8 830.56,-84.8 830.56,-48.8 929.44,-48.8 929.44,-84.8"/>
<text text-anchor="middle" x="880" y="-62.6" font-family="Times,serif" font-size="14.00">ConfigModule</text>
</g>
<!-- ConfigModule&#45;&gt;DpPaymentMethodModule -->
<g id="edge3" class="edge">
<title>ConfigModule&#45;&gt;DpPaymentMethodModule</title>
<path fill="none" stroke="black" d="M880,-84.91C880,-104.14 880,-131.8 880,-131.8 880,-131.8 635.67,-131.8 635.67,-131.8"/>
<polygon fill="black" stroke="black" points="635.67,-128.3 625.67,-131.8 635.67,-135.3 635.67,-128.3"/>
</g>
<!-- DpPaymentCallbackModule -->
<g id="node5" class="node">
<title>DpPaymentCallbackModule</title>
<polygon fill="#8dd3c7" stroke="black" points="812.91,-84.8 809.91,-88.8 788.91,-88.8 785.91,-84.8 637.09,-84.8 637.09,-48.8 812.91,-48.8 812.91,-84.8"/>
<text text-anchor="middle" x="725" y="-62.6" font-family="Times,serif" font-size="14.00">DpPaymentCallbackModule</text>
</g>
<!-- DpPaymentCallbackModule&#45;&gt;DpPaymentMethodModule -->
<g id="edge4" class="edge">
<title>DpPaymentCallbackModule&#45;&gt;DpPaymentMethodModule</title>
<path fill="none" stroke="black" d="M725.48,-84.83C725.48,-101.2 725.48,-122.8 725.48,-122.8 725.48,-122.8 635.68,-122.8 635.68,-122.8"/>
<polygon fill="black" stroke="black" points="635.68,-119.3 625.68,-122.8 635.68,-126.3 635.68,-119.3"/>
</g>
<!-- DpPaymentFormModule -->
<g id="node6" class="node">
<title>DpPaymentFormModule</title>
<polygon fill="#8dd3c7" stroke="black" points="618.99,-84.8 615.99,-88.8 594.99,-88.8 591.99,-84.8 463.01,-84.8 463.01,-48.8 618.99,-48.8 618.99,-84.8"/>
<text text-anchor="middle" x="541" y="-62.6" font-family="Times,serif" font-size="14.00">DpPaymentFormModule</text>
</g>
<!-- DpPaymentFormModule&#45;&gt;DpPaymentMethodModule -->
<g id="edge5" class="edge">
<title>DpPaymentFormModule&#45;&gt;DpPaymentMethodModule</title>
<path fill="none" stroke="black" d="M541,-84.91C541,-84.91 541,-103.79 541,-103.79"/>
<polygon fill="black" stroke="black" points="537.5,-103.79 541,-113.79 544.5,-103.79 537.5,-103.79"/>
</g>
<!-- I18nModule -->
<g id="node7" class="node">
<title>I18nModule</title>
<polygon fill="#8dd3c7" stroke="black" points="444.71,-84.8 441.71,-88.8 420.71,-88.8 417.71,-84.8 359.29,-84.8 359.29,-48.8 444.71,-48.8 444.71,-84.8"/>
<text text-anchor="middle" x="402" y="-62.6" font-family="Times,serif" font-size="14.00">I18nModule</text>
</g>
<!-- I18nModule&#45;&gt;DpPaymentMethodModule -->
<g id="edge6" class="edge">
<title>I18nModule&#45;&gt;DpPaymentMethodModule</title>
<path fill="none" stroke="black" d="M401.57,-84.83C401.57,-101.2 401.57,-122.8 401.57,-122.8 401.57,-122.8 446.28,-122.8 446.28,-122.8"/>
<polygon fill="black" stroke="black" points="446.28,-126.3 456.28,-122.8 446.28,-119.3 446.28,-126.3"/>
</g>
<!-- SpinnerModule -->
<g id="node8" class="node">
<title>SpinnerModule</title>
<polygon fill="#8dd3c7" stroke="black" points="341.6,-84.8 338.6,-88.8 317.6,-88.8 314.6,-84.8 238.4,-84.8 238.4,-48.8 341.6,-48.8 341.6,-84.8"/>
<text text-anchor="middle" x="290" y="-62.6" font-family="Times,serif" font-size="14.00">SpinnerModule</text>
</g>
<!-- SpinnerModule&#45;&gt;DpPaymentMethodModule -->
<g id="edge7" class="edge">
<title>SpinnerModule&#45;&gt;DpPaymentMethodModule</title>
<path fill="none" stroke="black" d="M290,-84.91C290,-104.14 290,-131.8 290,-131.8 290,-131.8 446.37,-131.8 446.37,-131.8"/>
<polygon fill="black" stroke="black" points="446.37,-135.3 456.37,-131.8 446.37,-128.3 446.37,-135.3"/>
</g>
</g>
</svg>
