<?xml version="1.0" encoding="UTF-8" standalone="no"?>
<!DOCTYPE svg PUBLIC "-//W3C//DTD SVG 1.1//EN"
 "http://www.w3.org/Graphics/SVG/1.1/DTD/svg11.dtd">
<!-- Generated by graphviz version 5.0.0 (20220707.1540)
 -->
<!-- Title: dependencies Pages: 1 -->
<svg width="410pt" height="247pt"
 viewBox="0.00 0.00 410.00 246.80" xmlns="http://www.w3.org/2000/svg" xmlns:xlink="http://www.w3.org/1999/xlink">
<g id="graph0" class="graph" transform="scale(1 1) rotate(0) translate(4 242.8)">
<title>dependencies</title>
<polygon fill="white" stroke="transparent" points="-4,4 -4,-242.8 406,-242.8 406,4 -4,4"/>
<text text-anchor="middle" x="201" y="-8.2" font-family="sans-serif" font-size="14.00">dependencies</text>
<g id="clust1" class="cluster">
<title>cluster_StarRatingModule</title>
<polygon fill="none" stroke="black" stroke-dasharray="1,5" points="8,-32.8 8,-230.8 394,-230.8 394,-32.8 8,-32.8"/>
</g>
<g id="clust2" class="cluster">
<title>cluster_StarRatingModule_declarations</title>
<polygon fill="none" stroke="black" points="228,-40.8 228,-92.8 386,-92.8 386,-40.8 228,-40.8"/>
</g>
<g id="clust4" class="cluster">
<title>cluster_StarRatingModule_imports</title>
<polygon fill="none" stroke="black" points="16,-40.8 16,-92.8 220,-92.8 220,-40.8 16,-40.8"/>
</g>
<g id="clust5" class="cluster">
<title>cluster_StarRatingModule_exports</title>
<polygon fill="none" stroke="black" points="89,-170.8 89,-222.8 249,-222.8 249,-170.8 89,-170.8"/>
</g>
<!-- StarRatingComponent -->
<g id="node1" class="node">
<title>StarRatingComponent</title>
<polygon fill="#ffffb3" stroke="black" points="377.71,-84.8 236.29,-84.8 236.29,-48.8 377.71,-48.8 377.71,-84.8"/>
<text text-anchor="middle" x="307" y="-62.6" font-family="Times,serif" font-size="14.00">StarRatingComponent</text>
</g>
<!-- StarRatingModule -->
<g id="node2" class="node">
<title>StarRatingModule</title>
<polygon fill="#8dd3c7" stroke="black" points="228.94,-149.8 225.94,-153.8 204.94,-153.8 201.94,-149.8 109.06,-149.8 109.06,-113.8 228.94,-113.8 228.94,-149.8"/>
<text text-anchor="middle" x="169" y="-127.6" font-family="Times,serif" font-size="14.00">StarRatingModule</text>
</g>
<!-- StarRatingComponent&#45;&gt;StarRatingModule -->
<g id="edge1" class="edge">
<title>StarRatingComponent&#45;&gt;StarRatingModule</title>
<path fill="none" stroke="black" d="M236.09,-66.8C226.65,-66.8 220.16,-66.8 220.16,-66.8 220.16,-66.8 220.16,-103.69 220.16,-103.69"/>
<polygon fill="black" stroke="black" points="216.66,-103.69 220.16,-113.69 223.66,-103.69 216.66,-103.69"/>
</g>
<!-- StarRatingComponent  -->
<g id="node5" class="node">
<title>StarRatingComponent </title>
<polygon fill="#fb8072" stroke="black" points="241.21,-214.8 96.79,-214.8 96.79,-178.8 241.21,-178.8 241.21,-214.8"/>
<text text-anchor="middle" x="169" y="-192.6" font-family="Times,serif" font-size="14.00">StarRatingComponent </text>
</g>
<!-- StarRatingModule&#45;&gt;StarRatingComponent  -->
<g id="edge4" class="edge">
<title>StarRatingModule&#45;&gt;StarRatingComponent </title>
<path fill="none" stroke="black" stroke-dasharray="5,2" d="M169,-149.91C169,-149.91 169,-168.79 169,-168.79"/>
<polygon fill="black" stroke="black" points="165.5,-168.79 169,-178.79 172.5,-168.79 165.5,-168.79"/>
</g>
<!-- I18nModule -->
<g id="node3" class="node">
<title>I18nModule</title>
<polygon fill="#8dd3c7" stroke="black" points="211.71,-84.8 208.71,-88.8 187.71,-88.8 184.71,-84.8 126.29,-84.8 126.29,-48.8 211.71,-48.8 211.71,-84.8"/>
<text text-anchor="middle" x="169" y="-62.6" font-family="Times,serif" font-size="14.00">I18nModule</text>
</g>
<!-- I18nModule&#45;&gt;StarRatingModule -->
<g id="edge2" class="edge">
<title>I18nModule&#45;&gt;StarRatingModule</title>
<path fill="none" stroke="black" d="M169,-84.91C169,-84.91 169,-103.79 169,-103.79"/>
<polygon fill="black" stroke="black" points="165.5,-103.79 169,-113.79 172.5,-103.79 165.5,-103.79"/>
</g>
<!-- IconModule -->
<g id="node4" class="node">
<title>IconModule</title>
<polygon fill="#8dd3c7" stroke="black" points="108.43,-84.8 105.43,-88.8 84.43,-88.8 81.43,-84.8 23.57,-84.8 23.57,-48.8 108.43,-48.8 108.43,-84.8"/>
<text text-anchor="middle" x="66" y="-62.6" font-family="Times,serif" font-size="14.00">IconModule</text>
</g>
<!-- IconModule&#45;&gt;StarRatingModule -->
<g id="edge3" class="edge">
<title>IconModule&#45;&gt;StarRatingModule</title>
<path fill="none" stroke="black" d="M102.43,-84.91C102.43,-104.14 102.43,-131.8 102.43,-131.8 102.43,-131.8 103.09,-131.8 103.09,-131.8"/>
<polygon fill="black" stroke="black" points="99.06,-135.3 109.05,-131.8 99.05,-128.3 99.06,-135.3"/>
</g>
</g>
</svg>
