<?xml version="1.0" encoding="UTF-8" standalone="no"?>
<!DOCTYPE svg PUBLIC "-//W3C//DTD SVG 1.1//EN"
 "http://www.w3.org/Graphics/SVG/1.1/DTD/svg11.dtd">
<!-- Generated by graphviz version 5.0.0 (20220707.1540)
 -->
<!-- Title: dependencies Pages: 1 -->
<svg width="1839pt" height="174pt"
 viewBox="0.00 0.00 1839.00 173.80" xmlns="http://www.w3.org/2000/svg" xmlns:xlink="http://www.w3.org/1999/xlink">
<g id="graph0" class="graph" transform="scale(1 1) rotate(0) translate(4 169.8)">
<title>dependencies</title>
<polygon fill="white" stroke="transparent" points="-4,4 -4,-169.8 1835,-169.8 1835,4 -4,4"/>
<text text-anchor="middle" x="915.5" y="-8.2" font-family="sans-serif" font-size="14.00">dependencies</text>
<g id="clust1" class="cluster">
<title>cluster_CheckoutCoreModule</title>
<polygon fill="none" stroke="black" stroke-dasharray="1,5" points="8,-32.8 8,-157.8 1823,-157.8 1823,-32.8 8,-32.8"/>
</g>
<g id="clust6" class="cluster">
<title>cluster_CheckoutCoreModule_providers</title>
<polygon fill="none" stroke="black" points="16,-40.8 16,-92.8 1815,-92.8 1815,-40.8 16,-40.8"/>
</g>
<!-- AsmBindCartService -->
<g id="node1" class="node">
<title>AsmBindCartService</title>
<ellipse fill="#fdb462" stroke="black" cx="1713" cy="-66.8" rx="93.79" ry="18"/>
<text text-anchor="middle" x="1713" y="-62.6" font-family="Times,serif" font-size="14.00">AsmBindCartService</text>
</g>
<!-- CheckoutCoreModule -->
<g id="node8" class="node">
<title>CheckoutCoreModule</title>
<polygon fill="#8dd3c7" stroke="black" points="1084.42,-149.8 1081.42,-153.8 1060.42,-153.8 1057.42,-149.8 943.58,-149.8 943.58,-113.8 1084.42,-113.8 1084.42,-149.8"/>
<text text-anchor="middle" x="1014" y="-127.6" font-family="Times,serif" font-size="14.00">CheckoutCoreModule</text>
</g>
<!-- AsmBindCartService&#45;&gt;CheckoutCoreModule -->
<g id="edge1" class="edge">
<title>AsmBindCartService&#45;&gt;CheckoutCoreModule</title>
<path fill="none" stroke="black" d="M1713,-85.09C1713,-107.01 1713,-140.8 1713,-140.8 1713,-140.8 1094.22,-140.8 1094.22,-140.8"/>
<polygon fill="black" stroke="black" points="1094.22,-137.3 1084.22,-140.8 1094.22,-144.3 1094.22,-137.3"/>
</g>
<!-- AsmCustomerListService -->
<g id="node2" class="node">
<title>AsmCustomerListService</title>
<ellipse fill="#fdb462" stroke="black" cx="1491" cy="-66.8" rx="110.63" ry="18"/>
<text text-anchor="middle" x="1491" y="-62.6" font-family="Times,serif" font-size="14.00">AsmCustomerListService</text>
</g>
<!-- AsmCustomerListService&#45;&gt;CheckoutCoreModule -->
<g id="edge2" class="edge">
<title>AsmCustomerListService&#45;&gt;CheckoutCoreModule</title>
<path fill="none" stroke="black" d="M1491,-84.91C1491,-104.14 1491,-131.8 1491,-131.8 1491,-131.8 1094.38,-131.8 1094.38,-131.8"/>
<polygon fill="black" stroke="black" points="1094.38,-128.3 1084.38,-131.8 1094.38,-135.3 1094.38,-128.3"/>
</g>
<!-- CheckoutConnector -->
<g id="node3" class="node">
<title>CheckoutConnector</title>
<ellipse fill="#fdb462" stroke="black" cx="1274" cy="-66.8" rx="88.05" ry="18"/>
<text text-anchor="middle" x="1274" y="-62.6" font-family="Times,serif" font-size="14.00">CheckoutConnector</text>
</g>
<!-- CheckoutConnector&#45;&gt;CheckoutCoreModule -->
<g id="edge3" class="edge">
<title>CheckoutConnector&#45;&gt;CheckoutCoreModule</title>
<path fill="none" stroke="black" d="M1274,-84.83C1274,-101.2 1274,-122.8 1274,-122.8 1274,-122.8 1094.36,-122.8 1094.36,-122.8"/>
<polygon fill="black" stroke="black" points="1094.36,-119.3 1084.36,-122.8 1094.36,-126.3 1094.36,-119.3"/>
</g>
<!-- CheckoutDeliveryAddressConnector -->
<g id="node4" class="node">
<title>CheckoutDeliveryAddressConnector</title>
<ellipse fill="#fdb462" stroke="black" cx="1014" cy="-66.8" rx="153.92" ry="18"/>
<text text-anchor="middle" x="1014" y="-62.6" font-family="Times,serif" font-size="14.00">CheckoutDeliveryAddressConnector</text>
</g>
<!-- CheckoutDeliveryAddressConnector&#45;&gt;CheckoutCoreModule -->
<g id="edge4" class="edge">
<title>CheckoutDeliveryAddressConnector&#45;&gt;CheckoutCoreModule</title>
<path fill="none" stroke="black" d="M1014,-84.91C1014,-84.91 1014,-103.79 1014,-103.79"/>
<polygon fill="black" stroke="black" points="1010.5,-103.79 1014,-113.79 1017.5,-103.79 1010.5,-103.79"/>
</g>
<!-- CheckoutDeliveryModesConnector -->
<g id="node5" class="node">
<title>CheckoutDeliveryModesConnector</title>
<ellipse fill="#fdb462" stroke="black" cx="694" cy="-66.8" rx="148.19" ry="18"/>
<text text-anchor="middle" x="694" y="-62.6" font-family="Times,serif" font-size="14.00">CheckoutDeliveryModesConnector</text>
</g>
<!-- CheckoutDeliveryModesConnector&#45;&gt;CheckoutCoreModule -->
<g id="edge5" class="edge">
<title>CheckoutDeliveryModesConnector&#45;&gt;CheckoutCoreModule</title>
<path fill="none" stroke="black" d="M694,-84.83C694,-101.2 694,-122.8 694,-122.8 694,-122.8 933.77,-122.8 933.77,-122.8"/>
<polygon fill="black" stroke="black" points="933.77,-126.3 943.77,-122.8 933.77,-119.3 933.77,-126.3"/>
</g>
<!-- CheckoutPageMetaResolver -->
<g id="node6" class="node">
<title>CheckoutPageMetaResolver</title>
<ellipse fill="#fdb462" stroke="black" cx="407" cy="-66.8" rx="120.98" ry="18"/>
<text text-anchor="middle" x="407" y="-62.6" font-family="Times,serif" font-size="14.00">CheckoutPageMetaResolver</text>
</g>
<!-- CheckoutPageMetaResolver&#45;&gt;CheckoutCoreModule -->
<g id="edge6" class="edge">
<title>CheckoutPageMetaResolver&#45;&gt;CheckoutCoreModule</title>
<path fill="none" stroke="black" d="M407,-84.91C407,-104.14 407,-131.8 407,-131.8 407,-131.8 933.78,-131.8 933.78,-131.8"/>
<polygon fill="black" stroke="black" points="933.78,-135.3 943.78,-131.8 933.78,-128.3 933.78,-135.3"/>
</g>
<!-- CheckoutPaymentConnector -->
<g id="node7" class="node">
<title>CheckoutPaymentConnector</title>
<ellipse fill="#fdb462" stroke="black" cx="146" cy="-66.8" rx="122.14" ry="18"/>
<text text-anchor="middle" x="146" y="-62.6" font-family="Times,serif" font-size="14.00">CheckoutPaymentConnector</text>
</g>
<!-- CheckoutPaymentConnector&#45;&gt;CheckoutCoreModule -->
<g id="edge7" class="edge">
<title>CheckoutPaymentConnector&#45;&gt;CheckoutCoreModule</title>
<path fill="none" stroke="black" d="M146,-85.09C146,-107.01 146,-140.8 146,-140.8 146,-140.8 933.7,-140.8 933.7,-140.8"/>
<polygon fill="black" stroke="black" points="933.7,-144.3 943.7,-140.8 933.7,-137.3 933.7,-144.3"/>
</g>
</g>
</svg>
