<?xml version="1.0" encoding="UTF-8" standalone="no"?>
<!DOCTYPE svg PUBLIC "-//W3C//DTD SVG 1.1//EN"
 "http://www.w3.org/Graphics/SVG/1.1/DTD/svg11.dtd">
<!-- Generated by graphviz version 5.0.0 (20220707.1540)
 -->
<!-- Title: dependencies Pages: 1 -->
<svg width="396pt" height="247pt"
 viewBox="0.00 0.00 396.00 246.80" xmlns="http://www.w3.org/2000/svg" xmlns:xlink="http://www.w3.org/1999/xlink">
<g id="graph0" class="graph" transform="scale(1 1) rotate(0) translate(4 242.8)">
<title>dependencies</title>
<polygon fill="white" stroke="transparent" points="-4,4 -4,-242.8 392,-242.8 392,4 -4,4"/>
<text text-anchor="middle" x="194" y="-8.2" font-family="sans-serif" font-size="14.00">dependencies</text>
<g id="clust1" class="cluster">
<title>cluster_CheckoutOrderSummaryModule</title>
<polygon fill="none" stroke="black" stroke-dasharray="1,5" points="8,-32.8 8,-230.8 380,-230.8 380,-32.8 8,-32.8"/>
</g>
<g id="clust2" class="cluster">
<title>cluster_CheckoutOrderSummaryModule_declarations</title>
<polygon fill="none" stroke="black" points="134,-40.8 134,-92.8 372,-92.8 372,-40.8 134,-40.8"/>
</g>
<g id="clust5" class="cluster">
<title>cluster_CheckoutOrderSummaryModule_exports</title>
<polygon fill="none" stroke="black" points="73,-170.8 73,-222.8 315,-222.8 315,-170.8 73,-170.8"/>
</g>
<g id="clust4" class="cluster">
<title>cluster_CheckoutOrderSummaryModule_imports</title>
<polygon fill="none" stroke="black" points="16,-40.8 16,-92.8 126,-92.8 126,-40.8 16,-40.8"/>
</g>
<!-- CheckoutOrderSummaryComponent -->
<g id="node1" class="node">
<title>CheckoutOrderSummaryComponent</title>
<polygon fill="#ffffb3" stroke="black" points="364.08,-84.8 141.92,-84.8 141.92,-48.8 364.08,-48.8 364.08,-84.8"/>
<text text-anchor="middle" x="253" y="-62.6" font-family="Times,serif" font-size="14.00">CheckoutOrderSummaryComponent</text>
</g>
<!-- CheckoutOrderSummaryModule -->
<g id="node2" class="node">
<title>CheckoutOrderSummaryModule</title>
<polygon fill="#8dd3c7" stroke="black" points="294.3,-149.8 291.3,-153.8 270.3,-153.8 267.3,-149.8 93.7,-149.8 93.7,-113.8 294.3,-113.8 294.3,-149.8"/>
<text text-anchor="middle" x="194" y="-127.6" font-family="Times,serif" font-size="14.00">CheckoutOrderSummaryModule</text>
</g>
<!-- CheckoutOrderSummaryComponent&#45;&gt;CheckoutOrderSummaryModule -->
<g id="edge1" class="edge">
<title>CheckoutOrderSummaryComponent&#45;&gt;CheckoutOrderSummaryModule</title>
<path fill="none" stroke="black" d="M218.06,-84.91C218.06,-84.91 218.06,-103.79 218.06,-103.79"/>
<polygon fill="black" stroke="black" points="214.56,-103.79 218.06,-113.79 221.56,-103.79 214.56,-103.79"/>
</g>
<!-- CheckoutOrderSummaryComponent  -->
<g id="node4" class="node">
<title>CheckoutOrderSummaryComponent </title>
<polygon fill="#fb8072" stroke="black" points="306.58,-214.8 81.42,-214.8 81.42,-178.8 306.58,-178.8 306.58,-214.8"/>
<text text-anchor="middle" x="194" y="-192.6" font-family="Times,serif" font-size="14.00">CheckoutOrderSummaryComponent </text>
</g>
<!-- CheckoutOrderSummaryModule&#45;&gt;CheckoutOrderSummaryComponent  -->
<g id="edge3" class="edge">
<title>CheckoutOrderSummaryModule&#45;&gt;CheckoutOrderSummaryComponent </title>
<path fill="none" stroke="black" stroke-dasharray="5,2" d="M194,-149.91C194,-149.91 194,-168.79 194,-168.79"/>
<polygon fill="black" stroke="black" points="190.5,-168.79 194,-178.79 197.5,-168.79 190.5,-168.79"/>
</g>
<!-- OutletModule -->
<g id="node3" class="node">
<title>OutletModule</title>
<polygon fill="#8dd3c7" stroke="black" points="118.05,-84.8 115.05,-88.8 94.05,-88.8 91.05,-84.8 23.95,-84.8 23.95,-48.8 118.05,-48.8 118.05,-84.8"/>
<text text-anchor="middle" x="71" y="-62.6" font-family="Times,serif" font-size="14.00">OutletModule</text>
</g>
<!-- OutletModule&#45;&gt;CheckoutOrderSummaryModule -->
<g id="edge2" class="edge">
<title>OutletModule&#45;&gt;CheckoutOrderSummaryModule</title>
<path fill="none" stroke="black" d="M106.06,-84.91C106.06,-84.91 106.06,-103.79 106.06,-103.79"/>
<polygon fill="black" stroke="black" points="102.56,-103.79 106.06,-113.79 109.56,-103.79 102.56,-103.79"/>
</g>
</g>
</svg>
