<?xml version="1.0" encoding="UTF-8" standalone="no"?>
<!DOCTYPE svg PUBLIC "-//W3C//DTD SVG 1.1//EN"
 "http://www.w3.org/Graphics/SVG/1.1/DTD/svg11.dtd">
<!-- Generated by graphviz version 5.0.0 (20220707.1540)
 -->
<!-- Title: dependencies Pages: 1 -->
<svg width="676pt" height="247pt"
 viewBox="0.00 0.00 676.00 246.80" xmlns="http://www.w3.org/2000/svg" xmlns:xlink="http://www.w3.org/1999/xlink">
<g id="graph0" class="graph" transform="scale(1 1) rotate(0) translate(4 242.8)">
<title>dependencies</title>
<polygon fill="white" stroke="transparent" points="-4,4 -4,-242.8 672,-242.8 672,4 -4,4"/>
<text text-anchor="middle" x="334" y="-8.2" font-family="sans-serif" font-size="14.00">dependencies</text>
<g id="clust1" class="cluster">
<title>cluster_ConfiguratorAttributeHeaderModule</title>
<polygon fill="none" stroke="black" stroke-dasharray="1,5" points="8,-32.8 8,-230.8 660,-230.8 660,-32.8 8,-32.8"/>
</g>
<g id="clust5" class="cluster">
<title>cluster_ConfiguratorAttributeHeaderModule_exports</title>
<polygon fill="none" stroke="black" points="104,-170.8 104,-222.8 368,-222.8 368,-170.8 104,-170.8"/>
</g>
<g id="clust2" class="cluster">
<title>cluster_ConfiguratorAttributeHeaderModule_declarations</title>
<polygon fill="none" stroke="black" points="392,-40.8 392,-92.8 652,-92.8 652,-40.8 392,-40.8"/>
</g>
<g id="clust4" class="cluster">
<title>cluster_ConfiguratorAttributeHeaderModule_imports</title>
<polygon fill="none" stroke="black" points="16,-40.8 16,-92.8 384,-92.8 384,-40.8 16,-40.8"/>
</g>
<!-- ConfiguratorAttributeHeaderComponent -->
<g id="node1" class="node">
<title>ConfiguratorAttributeHeaderComponent</title>
<polygon fill="#ffffb3" stroke="black" points="644.11,-84.8 399.89,-84.8 399.89,-48.8 644.11,-48.8 644.11,-84.8"/>
<text text-anchor="middle" x="522" y="-62.6" font-family="Times,serif" font-size="14.00">ConfiguratorAttributeHeaderComponent</text>
</g>
<!-- ConfiguratorAttributeHeaderModule -->
<g id="node2" class="node">
<title>ConfiguratorAttributeHeaderModule</title>
<polygon fill="#8dd3c7" stroke="black" points="347.33,-149.8 344.33,-153.8 323.33,-153.8 320.33,-149.8 124.67,-149.8 124.67,-113.8 347.33,-113.8 347.33,-149.8"/>
<text text-anchor="middle" x="236" y="-127.6" font-family="Times,serif" font-size="14.00">ConfiguratorAttributeHeaderModule</text>
</g>
<!-- ConfiguratorAttributeHeaderComponent&#45;&gt;ConfiguratorAttributeHeaderModule -->
<g id="edge1" class="edge">
<title>ConfiguratorAttributeHeaderComponent&#45;&gt;ConfiguratorAttributeHeaderModule</title>
<path fill="none" stroke="black" d="M522,-84.91C522,-104.14 522,-131.8 522,-131.8 522,-131.8 357.39,-131.8 357.39,-131.8"/>
<polygon fill="black" stroke="black" points="357.39,-128.3 347.39,-131.8 357.39,-135.3 357.39,-128.3"/>
</g>
<!-- ConfiguratorAttributeHeaderComponent  -->
<g id="node6" class="node">
<title>ConfiguratorAttributeHeaderComponent </title>
<polygon fill="#fb8072" stroke="black" points="360.11,-214.8 111.89,-214.8 111.89,-178.8 360.11,-178.8 360.11,-214.8"/>
<text text-anchor="middle" x="236" y="-192.6" font-family="Times,serif" font-size="14.00">ConfiguratorAttributeHeaderComponent </text>
</g>
<!-- ConfiguratorAttributeHeaderModule&#45;&gt;ConfiguratorAttributeHeaderComponent  -->
<g id="edge5" class="edge">
<title>ConfiguratorAttributeHeaderModule&#45;&gt;ConfiguratorAttributeHeaderComponent </title>
<path fill="none" stroke="black" stroke-dasharray="5,2" d="M236,-149.91C236,-149.91 236,-168.79 236,-168.79"/>
<polygon fill="black" stroke="black" points="232.5,-168.79 236,-178.79 239.5,-168.79 232.5,-168.79"/>
</g>
<!-- FeaturesConfigModule -->
<g id="node3" class="node">
<title>FeaturesConfigModule</title>
<polygon fill="#8dd3c7" stroke="black" points="375.87,-84.8 372.87,-88.8 351.87,-88.8 348.87,-84.8 230.13,-84.8 230.13,-48.8 375.87,-48.8 375.87,-84.8"/>
<text text-anchor="middle" x="303" y="-62.6" font-family="Times,serif" font-size="14.00">FeaturesConfigModule</text>
</g>
<!-- FeaturesConfigModule&#45;&gt;ConfiguratorAttributeHeaderModule -->
<g id="edge2" class="edge">
<title>FeaturesConfigModule&#45;&gt;ConfiguratorAttributeHeaderModule</title>
<path fill="none" stroke="black" d="M288.74,-84.91C288.74,-84.91 288.74,-103.79 288.74,-103.79"/>
<polygon fill="black" stroke="black" points="285.24,-103.79 288.74,-113.79 292.24,-103.79 285.24,-103.79"/>
</g>
<!-- I18nModule -->
<g id="node4" class="node">
<title>I18nModule</title>
<polygon fill="#8dd3c7" stroke="black" points="211.71,-84.8 208.71,-88.8 187.71,-88.8 184.71,-84.8 126.29,-84.8 126.29,-48.8 211.71,-48.8 211.71,-84.8"/>
<text text-anchor="middle" x="169" y="-62.6" font-family="Times,serif" font-size="14.00">I18nModule</text>
</g>
<!-- I18nModule&#45;&gt;ConfiguratorAttributeHeaderModule -->
<g id="edge3" class="edge">
<title>I18nModule&#45;&gt;ConfiguratorAttributeHeaderModule</title>
<path fill="none" stroke="black" d="M169,-84.91C169,-84.91 169,-103.79 169,-103.79"/>
<polygon fill="black" stroke="black" points="165.5,-103.79 169,-113.79 172.5,-103.79 165.5,-103.79"/>
</g>
<!-- IconModule -->
<g id="node5" class="node">
<title>IconModule</title>
<polygon fill="#8dd3c7" stroke="black" points="108.43,-84.8 105.43,-88.8 84.43,-88.8 81.43,-84.8 23.57,-84.8 23.57,-48.8 108.43,-48.8 108.43,-84.8"/>
<text text-anchor="middle" x="66" y="-62.6" font-family="Times,serif" font-size="14.00">IconModule</text>
</g>
<!-- IconModule&#45;&gt;ConfiguratorAttributeHeaderModule -->
<g id="edge4" class="edge">
<title>IconModule&#45;&gt;ConfiguratorAttributeHeaderModule</title>
<path fill="none" stroke="black" d="M66,-84.91C66,-104.14 66,-131.8 66,-131.8 66,-131.8 114.5,-131.8 114.5,-131.8"/>
<polygon fill="black" stroke="black" points="114.5,-135.3 124.5,-131.8 114.5,-128.3 114.5,-135.3"/>
</g>
</g>
</svg>
