<?xml version="1.0" encoding="UTF-8" standalone="no"?>
<!DOCTYPE svg PUBLIC "-//W3C//DTD SVG 1.1//EN"
 "http://www.w3.org/Graphics/SVG/1.1/DTD/svg11.dtd">
<!-- Generated by graphviz version 5.0.0 (20220707.1540)
 -->
<!-- Title: dependencies Pages: 1 -->
<svg width="676pt" height="247pt"
 viewBox="0.00 0.00 676.00 246.80" xmlns="http://www.w3.org/2000/svg" xmlns:xlink="http://www.w3.org/1999/xlink">
<g id="graph0" class="graph" transform="scale(1 1) rotate(0) translate(4 242.8)">
<title>dependencies</title>
<polygon fill="white" stroke="transparent" points="-4,4 -4,-242.8 672,-242.8 672,4 -4,4"/>
<text text-anchor="middle" x="334" y="-8.2" font-family="sans-serif" font-size="14.00">dependencies</text>
<g id="clust1" class="cluster">
<title>cluster_AddToWishListModule</title>
<polygon fill="none" stroke="black" stroke-dasharray="1,5" points="8,-32.8 8,-230.8 660,-230.8 660,-32.8 8,-32.8"/>
</g>
<g id="clust5" class="cluster">
<title>cluster_AddToWishListModule_exports</title>
<polygon fill="none" stroke="black" points="169,-170.8 169,-222.8 361,-222.8 361,-170.8 169,-170.8"/>
</g>
<g id="clust2" class="cluster">
<title>cluster_AddToWishListModule_declarations</title>
<polygon fill="none" stroke="black" points="464,-40.8 464,-92.8 652,-92.8 652,-40.8 464,-40.8"/>
</g>
<g id="clust4" class="cluster">
<title>cluster_AddToWishListModule_imports</title>
<polygon fill="none" stroke="black" points="16,-40.8 16,-92.8 456,-92.8 456,-40.8 16,-40.8"/>
</g>
<!-- AddToWishListComponent -->
<g id="node1" class="node">
<title>AddToWishListComponent</title>
<polygon fill="#ffffb3" stroke="black" points="644.32,-84.8 471.68,-84.8 471.68,-48.8 644.32,-48.8 644.32,-84.8"/>
<text text-anchor="middle" x="558" y="-62.6" font-family="Times,serif" font-size="14.00">AddToWishListComponent</text>
</g>
<!-- AddToWishListModule -->
<g id="node2" class="node">
<title>AddToWishListModule</title>
<polygon fill="#8dd3c7" stroke="black" points="340.05,-149.8 337.05,-153.8 316.05,-153.8 313.05,-149.8 189.95,-149.8 189.95,-113.8 340.05,-113.8 340.05,-149.8"/>
<text text-anchor="middle" x="265" y="-127.6" font-family="Times,serif" font-size="14.00">AddToWishListModule</text>
</g>
<!-- AddToWishListComponent&#45;&gt;AddToWishListModule -->
<g id="edge1" class="edge">
<title>AddToWishListComponent&#45;&gt;AddToWishListModule</title>
<path fill="none" stroke="black" d="M558,-84.91C558,-104.14 558,-131.8 558,-131.8 558,-131.8 350.07,-131.8 350.07,-131.8"/>
<polygon fill="black" stroke="black" points="350.07,-128.3 340.07,-131.8 350.07,-135.3 350.07,-128.3"/>
</g>
<!-- AddToWishListComponent  -->
<g id="node7" class="node">
<title>AddToWishListComponent </title>
<polygon fill="#fb8072" stroke="black" points="352.82,-214.8 177.18,-214.8 177.18,-178.8 352.82,-178.8 352.82,-214.8"/>
<text text-anchor="middle" x="265" y="-192.6" font-family="Times,serif" font-size="14.00">AddToWishListComponent </text>
</g>
<!-- AddToWishListModule&#45;&gt;AddToWishListComponent  -->
<g id="edge6" class="edge">
<title>AddToWishListModule&#45;&gt;AddToWishListComponent </title>
<path fill="none" stroke="black" stroke-dasharray="5,2" d="M265,-149.91C265,-149.91 265,-168.79 265,-168.79"/>
<polygon fill="black" stroke="black" points="261.5,-168.79 265,-178.79 268.5,-168.79 261.5,-168.79"/>
</g>
<!-- AtMessageModule -->
<g id="node3" class="node">
<title>AtMessageModule</title>
<polygon fill="#8dd3c7" stroke="black" points="448.04,-84.8 445.04,-88.8 424.04,-88.8 421.04,-84.8 325.96,-84.8 325.96,-48.8 448.04,-48.8 448.04,-84.8"/>
<text text-anchor="middle" x="387" y="-62.6" font-family="Times,serif" font-size="14.00">AtMessageModule</text>
</g>
<!-- AtMessageModule&#45;&gt;AddToWishListModule -->
<g id="edge2" class="edge">
<title>AtMessageModule&#45;&gt;AddToWishListModule</title>
<path fill="none" stroke="black" d="M333,-84.91C333,-84.91 333,-103.79 333,-103.79"/>
<polygon fill="black" stroke="black" points="329.5,-103.79 333,-113.79 336.5,-103.79 329.5,-103.79"/>
</g>
<!-- I18nModule -->
<g id="node4" class="node">
<title>I18nModule</title>
<polygon fill="#8dd3c7" stroke="black" points="307.71,-84.8 304.71,-88.8 283.71,-88.8 280.71,-84.8 222.29,-84.8 222.29,-48.8 307.71,-48.8 307.71,-84.8"/>
<text text-anchor="middle" x="265" y="-62.6" font-family="Times,serif" font-size="14.00">I18nModule</text>
</g>
<!-- I18nModule&#45;&gt;AddToWishListModule -->
<g id="edge3" class="edge">
<title>I18nModule&#45;&gt;AddToWishListModule</title>
<path fill="none" stroke="black" d="M265,-84.91C265,-84.91 265,-103.79 265,-103.79"/>
<polygon fill="black" stroke="black" points="261.5,-103.79 265,-113.79 268.5,-103.79 261.5,-103.79"/>
</g>
<!-- IconModule -->
<g id="node5" class="node">
<title>IconModule</title>
<polygon fill="#8dd3c7" stroke="black" points="204.43,-84.8 201.43,-88.8 180.43,-88.8 177.43,-84.8 119.57,-84.8 119.57,-48.8 204.43,-48.8 204.43,-84.8"/>
<text text-anchor="middle" x="162" y="-62.6" font-family="Times,serif" font-size="14.00">IconModule</text>
</g>
<!-- IconModule&#45;&gt;AddToWishListModule -->
<g id="edge4" class="edge">
<title>IconModule&#45;&gt;AddToWishListModule</title>
<path fill="none" stroke="black" d="M196.97,-84.91C196.97,-84.91 196.97,-103.79 196.97,-103.79"/>
<polygon fill="black" stroke="black" points="193.47,-103.79 196.97,-113.79 200.47,-103.79 193.47,-103.79"/>
</g>
<!-- UrlModule -->
<g id="node6" class="node">
<title>UrlModule</title>
<polygon fill="#8dd3c7" stroke="black" points="102.21,-84.8 99.21,-88.8 78.21,-88.8 75.21,-84.8 23.79,-84.8 23.79,-48.8 102.21,-48.8 102.21,-84.8"/>
<text text-anchor="middle" x="63" y="-62.6" font-family="Times,serif" font-size="14.00">UrlModule</text>
</g>
<!-- UrlModule&#45;&gt;AddToWishListModule -->
<g id="edge5" class="edge">
<title>UrlModule&#45;&gt;AddToWishListModule</title>
<path fill="none" stroke="black" d="M63,-84.91C63,-104.14 63,-131.8 63,-131.8 63,-131.8 179.78,-131.8 179.78,-131.8"/>
<polygon fill="black" stroke="black" points="179.78,-135.3 189.78,-131.8 179.78,-128.3 179.78,-135.3"/>
</g>
</g>
</svg>
