<?xml version="1.0" encoding="UTF-8" standalone="no"?>
<!DOCTYPE svg PUBLIC "-//W3C//DTD SVG 1.1//EN"
 "http://www.w3.org/Graphics/SVG/1.1/DTD/svg11.dtd">
<!-- Generated by graphviz version 5.0.0 (20220707.1540)
 -->
<!-- Title: dependencies Pages: 1 -->
<svg width="709pt" height="247pt"
 viewBox="0.00 0.00 709.00 246.80" xmlns="http://www.w3.org/2000/svg" xmlns:xlink="http://www.w3.org/1999/xlink">
<g id="graph0" class="graph" transform="scale(1 1) rotate(0) translate(4 242.8)">
<title>dependencies</title>
<polygon fill="white" stroke="transparent" points="-4,4 -4,-242.8 705,-242.8 705,4 -4,4"/>
<text text-anchor="middle" x="350.5" y="-8.2" font-family="sans-serif" font-size="14.00">dependencies</text>
<g id="clust1" class="cluster">
<title>cluster_ConfiguratorVariantCarouselModule</title>
<polygon fill="none" stroke="black" stroke-dasharray="1,5" points="8,-32.8 8,-230.8 693,-230.8 693,-32.8 8,-32.8"/>
</g>
<g id="clust2" class="cluster">
<title>cluster_ConfiguratorVariantCarouselModule_declarations</title>
<polygon fill="none" stroke="black" points="423,-40.8 423,-92.8 685,-92.8 685,-40.8 423,-40.8"/>
</g>
<g id="clust4" class="cluster">
<title>cluster_ConfiguratorVariantCarouselModule_imports</title>
<polygon fill="none" stroke="black" points="16,-40.8 16,-92.8 415,-92.8 415,-40.8 16,-40.8"/>
</g>
<g id="clust5" class="cluster">
<title>cluster_ConfiguratorVariantCarouselModule_exports</title>
<polygon fill="none" stroke="black" points="162,-170.8 162,-222.8 426,-222.8 426,-170.8 162,-170.8"/>
</g>
<!-- ConfiguratorVariantCarouselComponent -->
<g id="node1" class="node">
<title>ConfiguratorVariantCarouselComponent</title>
<polygon fill="#ffffb3" stroke="black" points="676.89,-84.8 431.11,-84.8 431.11,-48.8 676.89,-48.8 676.89,-84.8"/>
<text text-anchor="middle" x="554" y="-62.6" font-family="Times,serif" font-size="14.00">ConfiguratorVariantCarouselComponent</text>
</g>
<!-- ConfiguratorVariantCarouselModule -->
<g id="node2" class="node">
<title>ConfiguratorVariantCarouselModule</title>
<polygon fill="#8dd3c7" stroke="black" points="405.61,-149.8 402.61,-153.8 381.61,-153.8 378.61,-149.8 182.39,-149.8 182.39,-113.8 405.61,-113.8 405.61,-149.8"/>
<text text-anchor="middle" x="294" y="-127.6" font-family="Times,serif" font-size="14.00">ConfiguratorVariantCarouselModule</text>
</g>
<!-- ConfiguratorVariantCarouselComponent&#45;&gt;ConfiguratorVariantCarouselModule -->
<g id="edge1" class="edge">
<title>ConfiguratorVariantCarouselComponent&#45;&gt;ConfiguratorVariantCarouselModule</title>
<path fill="none" stroke="black" d="M554,-84.91C554,-104.14 554,-131.8 554,-131.8 554,-131.8 415.77,-131.8 415.77,-131.8"/>
<polygon fill="black" stroke="black" points="415.77,-128.3 405.77,-131.8 415.77,-135.3 415.77,-128.3"/>
</g>
<!-- ConfiguratorVariantCarouselComponent  -->
<g id="node6" class="node">
<title>ConfiguratorVariantCarouselComponent </title>
<polygon fill="#fb8072" stroke="black" points="418.39,-214.8 169.61,-214.8 169.61,-178.8 418.39,-178.8 418.39,-214.8"/>
<text text-anchor="middle" x="294" y="-192.6" font-family="Times,serif" font-size="14.00">ConfiguratorVariantCarouselComponent </text>
</g>
<!-- ConfiguratorVariantCarouselModule&#45;&gt;ConfiguratorVariantCarouselComponent  -->
<g id="edge5" class="edge">
<title>ConfiguratorVariantCarouselModule&#45;&gt;ConfiguratorVariantCarouselComponent </title>
<path fill="none" stroke="black" stroke-dasharray="5,2" d="M294,-149.91C294,-149.91 294,-168.79 294,-168.79"/>
<polygon fill="black" stroke="black" points="290.5,-168.79 294,-178.79 297.5,-168.79 290.5,-168.79"/>
</g>
<!-- CarouselModule -->
<g id="node3" class="node">
<title>CarouselModule</title>
<polygon fill="#8dd3c7" stroke="black" points="406.82,-84.8 403.82,-88.8 382.82,-88.8 379.82,-84.8 297.18,-84.8 297.18,-48.8 406.82,-48.8 406.82,-84.8"/>
<text text-anchor="middle" x="352" y="-62.6" font-family="Times,serif" font-size="14.00">CarouselModule</text>
</g>
<!-- CarouselModule&#45;&gt;ConfiguratorVariantCarouselModule -->
<g id="edge2" class="edge">
<title>CarouselModule&#45;&gt;ConfiguratorVariantCarouselModule</title>
<path fill="none" stroke="black" d="M351.57,-84.91C351.57,-84.91 351.57,-103.79 351.57,-103.79"/>
<polygon fill="black" stroke="black" points="348.07,-103.79 351.57,-113.79 355.07,-103.79 348.07,-103.79"/>
</g>
<!-- I18nModule -->
<g id="node4" class="node">
<title>I18nModule</title>
<polygon fill="#8dd3c7" stroke="black" points="279.71,-84.8 276.71,-88.8 255.71,-88.8 252.71,-84.8 194.29,-84.8 194.29,-48.8 279.71,-48.8 279.71,-84.8"/>
<text text-anchor="middle" x="237" y="-62.6" font-family="Times,serif" font-size="14.00">I18nModule</text>
</g>
<!-- I18nModule&#45;&gt;ConfiguratorVariantCarouselModule -->
<g id="edge3" class="edge">
<title>I18nModule&#45;&gt;ConfiguratorVariantCarouselModule</title>
<path fill="none" stroke="black" d="M237,-84.91C237,-84.91 237,-103.79 237,-103.79"/>
<polygon fill="black" stroke="black" points="233.5,-103.79 237,-113.79 240.5,-103.79 233.5,-103.79"/>
</g>
<!-- ProductCarouselModule -->
<g id="node5" class="node">
<title>ProductCarouselModule</title>
<polygon fill="#8dd3c7" stroke="black" points="176.37,-84.8 173.37,-88.8 152.37,-88.8 149.37,-84.8 23.63,-84.8 23.63,-48.8 176.37,-48.8 176.37,-84.8"/>
<text text-anchor="middle" x="100" y="-62.6" font-family="Times,serif" font-size="14.00">ProductCarouselModule</text>
</g>
<!-- ProductCarouselModule&#45;&gt;ConfiguratorVariantCarouselModule -->
<g id="edge4" class="edge">
<title>ProductCarouselModule&#45;&gt;ConfiguratorVariantCarouselModule</title>
<path fill="none" stroke="black" d="M176.39,-66.8C183.6,-66.8 188.29,-66.8 188.29,-66.8 188.29,-66.8 188.29,-103.69 188.29,-103.69"/>
<polygon fill="black" stroke="black" points="184.79,-103.69 188.29,-113.69 191.79,-103.69 184.79,-103.69"/>
</g>
</g>
</svg>
