<?xml version="1.0" encoding="UTF-8" standalone="no"?>
<!DOCTYPE svg PUBLIC "-//W3C//DTD SVG 1.1//EN"
 "http://www.w3.org/Graphics/SVG/1.1/DTD/svg11.dtd">
<!-- Generated by graphviz version 5.0.0 (20220707.1540)
 -->
<!-- Title: dependencies Pages: 1 -->
<svg width="406pt" height="247pt"
 viewBox="0.00 0.00 406.00 246.80" xmlns="http://www.w3.org/2000/svg" xmlns:xlink="http://www.w3.org/1999/xlink">
<g id="graph0" class="graph" transform="scale(1 1) rotate(0) translate(4 242.8)">
<title>dependencies</title>
<polygon fill="white" stroke="transparent" points="-4,4 -4,-242.8 402,-242.8 402,4 -4,4"/>
<text text-anchor="middle" x="199" y="-8.2" font-family="sans-serif" font-size="14.00">dependencies</text>
<g id="clust1" class="cluster">
<title>cluster_VisualViewerToolbarButtonModule</title>
<polygon fill="none" stroke="black" stroke-dasharray="1,5" points="8,-32.8 8,-230.8 390,-230.8 390,-32.8 8,-32.8"/>
</g>
<g id="clust4" class="cluster">
<title>cluster_VisualViewerToolbarButtonModule_imports</title>
<polygon fill="none" stroke="black" points="282,-40.8 282,-92.8 382,-92.8 382,-40.8 282,-40.8"/>
</g>
<g id="clust5" class="cluster">
<title>cluster_VisualViewerToolbarButtonModule_exports</title>
<polygon fill="none" stroke="black" points="68,-170.8 68,-222.8 330,-222.8 330,-170.8 68,-170.8"/>
</g>
<g id="clust2" class="cluster">
<title>cluster_VisualViewerToolbarButtonModule_declarations</title>
<polygon fill="none" stroke="black" points="16,-40.8 16,-92.8 274,-92.8 274,-40.8 16,-40.8"/>
</g>
<!-- VisualViewerToolbarButtonComponent -->
<g id="node1" class="node">
<title>VisualViewerToolbarButtonComponent</title>
<polygon fill="#ffffb3" stroke="black" points="265.52,-84.8 24.48,-84.8 24.48,-48.8 265.52,-48.8 265.52,-84.8"/>
<text text-anchor="middle" x="145" y="-62.6" font-family="Times,serif" font-size="14.00">VisualViewerToolbarButtonComponent</text>
</g>
<!-- VisualViewerToolbarButtonModule -->
<g id="node2" class="node">
<title>VisualViewerToolbarButtonModule</title>
<polygon fill="#8dd3c7" stroke="black" points="308.74,-149.8 305.74,-153.8 284.74,-153.8 281.74,-149.8 89.26,-149.8 89.26,-113.8 308.74,-113.8 308.74,-149.8"/>
<text text-anchor="middle" x="199" y="-127.6" font-family="Times,serif" font-size="14.00">VisualViewerToolbarButtonModule</text>
</g>
<!-- VisualViewerToolbarButtonComponent&#45;&gt;VisualViewerToolbarButtonModule -->
<g id="edge1" class="edge">
<title>VisualViewerToolbarButtonComponent&#45;&gt;VisualViewerToolbarButtonModule</title>
<path fill="none" stroke="black" d="M177.44,-84.91C177.44,-84.91 177.44,-103.79 177.44,-103.79"/>
<polygon fill="black" stroke="black" points="173.94,-103.79 177.44,-113.79 180.94,-103.79 173.94,-103.79"/>
</g>
<!-- VisualViewerToolbarButtonComponent  -->
<g id="node4" class="node">
<title>VisualViewerToolbarButtonComponent </title>
<polygon fill="#fb8072" stroke="black" points="321.52,-214.8 76.48,-214.8 76.48,-178.8 321.52,-178.8 321.52,-214.8"/>
<text text-anchor="middle" x="199" y="-192.6" font-family="Times,serif" font-size="14.00">VisualViewerToolbarButtonComponent </text>
</g>
<!-- VisualViewerToolbarButtonModule&#45;&gt;VisualViewerToolbarButtonComponent  -->
<g id="edge3" class="edge">
<title>VisualViewerToolbarButtonModule&#45;&gt;VisualViewerToolbarButtonComponent </title>
<path fill="none" stroke="black" stroke-dasharray="5,2" d="M199,-149.91C199,-149.91 199,-168.79 199,-168.79"/>
<polygon fill="black" stroke="black" points="195.5,-168.79 199,-178.79 202.5,-168.79 195.5,-168.79"/>
</g>
<!-- IconModule -->
<g id="node3" class="node">
<title>IconModule</title>
<polygon fill="#8dd3c7" stroke="black" points="374.43,-84.8 371.43,-88.8 350.43,-88.8 347.43,-84.8 289.57,-84.8 289.57,-48.8 374.43,-48.8 374.43,-84.8"/>
<text text-anchor="middle" x="332" y="-62.6" font-family="Times,serif" font-size="14.00">IconModule</text>
</g>
<!-- IconModule&#45;&gt;VisualViewerToolbarButtonModule -->
<g id="edge2" class="edge">
<title>IconModule&#45;&gt;VisualViewerToolbarButtonModule</title>
<path fill="none" stroke="black" d="M299.33,-84.91C299.33,-84.91 299.33,-103.79 299.33,-103.79"/>
<polygon fill="black" stroke="black" points="295.83,-103.79 299.33,-113.79 302.83,-103.79 295.83,-103.79"/>
</g>
</g>
</svg>
