<?xml version="1.0" encoding="UTF-8" standalone="no"?>
<!DOCTYPE svg PUBLIC "-//W3C//DTD SVG 1.1//EN"
 "http://www.w3.org/Graphics/SVG/1.1/DTD/svg11.dtd">
<!-- Generated by graphviz version 5.0.0 (20220707.1540)
 -->
<!-- Title: dependencies Pages: 1 -->
<svg width="1175pt" height="247pt"
 viewBox="0.00 0.00 1175.00 246.80" xmlns="http://www.w3.org/2000/svg" xmlns:xlink="http://www.w3.org/1999/xlink">
<g id="graph0" class="graph" transform="scale(1 1) rotate(0) translate(4 242.8)">
<title>dependencies</title>
<polygon fill="white" stroke="transparent" points="-4,4 -4,-242.8 1171,-242.8 1171,4 -4,4"/>
<text text-anchor="middle" x="583.5" y="-8.2" font-family="sans-serif" font-size="14.00">dependencies</text>
<g id="clust1" class="cluster">
<title>cluster_CartBaseComponentsModule</title>
<polygon fill="none" stroke="black" stroke-dasharray="1,5" points="8,-32.8 8,-230.8 1159,-230.8 1159,-32.8 8,-32.8"/>
</g>
<g id="clust4" class="cluster">
<title>cluster_CartBaseComponentsModule_exports</title>
<polygon fill="none" stroke="black" points="16,-170.8 16,-222.8 1151,-222.8 1151,-170.8 16,-170.8"/>
</g>
<g id="clust3" class="cluster">
<title>cluster_CartBaseComponentsModule_imports</title>
<polygon fill="none" stroke="black" points="55,-40.8 55,-92.8 1086,-92.8 1086,-40.8 55,-40.8"/>
</g>
<!-- CartDetailsModule -->
<g id="node1" class="node">
<title>CartDetailsModule</title>
<polygon fill="#8dd3c7" stroke="black" points="1077.81,-84.8 1074.81,-88.8 1053.81,-88.8 1050.81,-84.8 954.19,-84.8 954.19,-48.8 1077.81,-48.8 1077.81,-84.8"/>
<text text-anchor="middle" x="1016" y="-62.6" font-family="Times,serif" font-size="14.00">CartDetailsModule</text>
</g>
<!-- CartBaseComponentsModule -->
<g id="node8" class="node">
<title>CartBaseComponentsModule</title>
<polygon fill="#8dd3c7" stroke="black" points="610.65,-149.8 607.65,-153.8 586.65,-153.8 583.65,-149.8 429.35,-149.8 429.35,-113.8 610.65,-113.8 610.65,-149.8"/>
<text text-anchor="middle" x="520" y="-127.6" font-family="Times,serif" font-size="14.00">CartBaseComponentsModule</text>
</g>
<!-- CartDetailsModule&#45;&gt;CartBaseComponentsModule -->
<g id="edge1" class="edge">
<title>CartDetailsModule&#45;&gt;CartBaseComponentsModule</title>
<path fill="none" stroke="black" d="M959.64,-85.07C959.64,-103.36 959.64,-128.8 959.64,-128.8 959.64,-128.8 620.83,-128.8 620.83,-128.8"/>
<polygon fill="black" stroke="black" points="620.83,-125.3 610.83,-128.8 620.83,-132.3 620.83,-125.3"/>
</g>
<!-- CartProceedToCheckoutModule -->
<g id="node2" class="node">
<title>CartProceedToCheckoutModule</title>
<polygon fill="#8dd3c7" stroke="black" points="935.95,-84.8 932.95,-88.8 911.95,-88.8 908.95,-84.8 738.05,-84.8 738.05,-48.8 935.95,-48.8 935.95,-84.8"/>
<text text-anchor="middle" x="837" y="-62.6" font-family="Times,serif" font-size="14.00">CartProceedToCheckoutModule</text>
</g>
<!-- CartProceedToCheckoutModule&#45;&gt;CartBaseComponentsModule -->
<g id="edge2" class="edge">
<title>CartProceedToCheckoutModule&#45;&gt;CartBaseComponentsModule</title>
<path fill="none" stroke="black" d="M770.38,-84.81C770.38,-100.85 770.38,-121.8 770.38,-121.8 770.38,-121.8 620.75,-121.8 620.75,-121.8"/>
<polygon fill="black" stroke="black" points="620.75,-118.3 610.75,-121.8 620.75,-125.3 620.75,-118.3"/>
</g>
<!-- CartSharedModule -->
<g id="node3" class="node">
<title>CartSharedModule</title>
<polygon fill="#8dd3c7" stroke="black" points="720.03,-84.8 717.03,-88.8 696.03,-88.8 693.03,-84.8 597.97,-84.8 597.97,-48.8 720.03,-48.8 720.03,-84.8"/>
<text text-anchor="middle" x="659" y="-62.6" font-family="Times,serif" font-size="14.00">CartSharedModule</text>
</g>
<!-- CartSharedModule&#45;&gt;CartBaseComponentsModule -->
<g id="edge3" class="edge">
<title>CartSharedModule&#45;&gt;CartBaseComponentsModule</title>
<path fill="none" stroke="black" d="M604.28,-84.91C604.28,-84.91 604.28,-103.79 604.28,-103.79"/>
<polygon fill="black" stroke="black" points="600.78,-103.79 604.28,-113.79 607.78,-103.79 600.78,-103.79"/>
</g>
<!-- CartTotalsModule -->
<g id="node4" class="node">
<title>CartTotalsModule</title>
<polygon fill="#8dd3c7" stroke="black" points="579.15,-84.8 576.15,-88.8 555.15,-88.8 552.15,-84.8 460.85,-84.8 460.85,-48.8 579.15,-48.8 579.15,-84.8"/>
<text text-anchor="middle" x="520" y="-62.6" font-family="Times,serif" font-size="14.00">CartTotalsModule</text>
</g>
<!-- CartTotalsModule&#45;&gt;CartBaseComponentsModule -->
<g id="edge4" class="edge">
<title>CartTotalsModule&#45;&gt;CartBaseComponentsModule</title>
<path fill="none" stroke="black" d="M520,-84.91C520,-84.91 520,-103.79 520,-103.79"/>
<polygon fill="black" stroke="black" points="516.5,-103.79 520,-113.79 523.5,-103.79 516.5,-103.79"/>
</g>
<!-- ClearCartModule -->
<g id="node5" class="node">
<title>ClearCartModule</title>
<polygon fill="#8dd3c7" stroke="black" points="442.97,-84.8 439.97,-88.8 418.97,-88.8 415.97,-84.8 329.03,-84.8 329.03,-48.8 442.97,-48.8 442.97,-84.8"/>
<text text-anchor="middle" x="386" y="-62.6" font-family="Times,serif" font-size="14.00">ClearCartModule</text>
</g>
<!-- ClearCartModule&#45;&gt;CartBaseComponentsModule -->
<g id="edge5" class="edge">
<title>ClearCartModule&#45;&gt;CartBaseComponentsModule</title>
<path fill="none" stroke="black" d="M436.08,-84.91C436.08,-84.91 436.08,-103.79 436.08,-103.79"/>
<polygon fill="black" stroke="black" points="432.58,-103.79 436.08,-113.79 439.58,-103.79 432.58,-103.79"/>
</g>
<!-- OutletModule -->
<g id="node6" class="node">
<title>OutletModule</title>
<polygon fill="#8dd3c7" stroke="black" points="311.05,-84.8 308.05,-88.8 287.05,-88.8 284.05,-84.8 216.95,-84.8 216.95,-48.8 311.05,-48.8 311.05,-84.8"/>
<text text-anchor="middle" x="264" y="-62.6" font-family="Times,serif" font-size="14.00">OutletModule</text>
</g>
<!-- OutletModule&#45;&gt;CartBaseComponentsModule -->
<g id="edge6" class="edge">
<title>OutletModule&#45;&gt;CartBaseComponentsModule</title>
<path fill="none" stroke="black" d="M305,-84.81C305,-100.85 305,-121.8 305,-121.8 305,-121.8 419.13,-121.8 419.13,-121.8"/>
<polygon fill="black" stroke="black" points="419.13,-125.3 429.13,-121.8 419.13,-118.3 419.13,-125.3"/>
</g>
<!-- SaveForLaterModule -->
<g id="node7" class="node">
<title>SaveForLaterModule</title>
<polygon fill="#8dd3c7" stroke="black" points="198.75,-84.8 195.75,-88.8 174.75,-88.8 171.75,-84.8 63.25,-84.8 63.25,-48.8 198.75,-48.8 198.75,-84.8"/>
<text text-anchor="middle" x="131" y="-62.6" font-family="Times,serif" font-size="14.00">SaveForLaterModule</text>
</g>
<!-- SaveForLaterModule&#45;&gt;CartBaseComponentsModule -->
<g id="edge7" class="edge">
<title>SaveForLaterModule&#45;&gt;CartBaseComponentsModule</title>
<path fill="none" stroke="black" d="M190.07,-85.07C190.07,-103.36 190.07,-128.8 190.07,-128.8 190.07,-128.8 418.97,-128.8 418.97,-128.8"/>
<polygon fill="black" stroke="black" points="418.97,-132.3 428.97,-128.8 418.97,-125.3 418.97,-132.3"/>
</g>
<!-- AddedToCartDialogModule  -->
<g id="node9" class="node">
<title>AddedToCartDialogModule </title>
<polygon fill="#fb8072" stroke="black" points="1143.13,-214.8 964.87,-214.8 964.87,-178.8 1143.13,-178.8 1143.13,-214.8"/>
<text text-anchor="middle" x="1054" y="-192.6" font-family="Times,serif" font-size="14.00">AddedToCartDialogModule </text>
</g>
<!-- CartBaseComponentsModule&#45;&gt;AddedToCartDialogModule  -->
<g id="edge8" class="edge">
<title>CartBaseComponentsModule&#45;&gt;AddedToCartDialogModule </title>
<path fill="none" stroke="black" stroke-dasharray="5,2" d="M610.78,-135.8C755.24,-135.8 1021.29,-135.8 1021.29,-135.8 1021.29,-135.8 1021.29,-168.5 1021.29,-168.5"/>
<polygon fill="black" stroke="black" points="1017.79,-168.5 1021.29,-178.5 1024.79,-168.5 1017.79,-168.5"/>
</g>
<!-- CartDetailsModule  -->
<g id="node10" class="node">
<title>CartDetailsModule </title>
<polygon fill="#fb8072" stroke="black" points="947.31,-214.8 820.69,-214.8 820.69,-178.8 947.31,-178.8 947.31,-214.8"/>
<text text-anchor="middle" x="884" y="-192.6" font-family="Times,serif" font-size="14.00">CartDetailsModule </text>
</g>
<!-- CartBaseComponentsModule&#45;&gt;CartDetailsModule  -->
<g id="edge9" class="edge">
<title>CartBaseComponentsModule&#45;&gt;CartDetailsModule </title>
<path fill="none" stroke="black" stroke-dasharray="5,2" d="M610.87,-142.8C717.02,-142.8 878.29,-142.8 878.29,-142.8 878.29,-142.8 878.29,-168.52 878.29,-168.52"/>
<polygon fill="black" stroke="black" points="874.79,-168.52 878.29,-178.52 881.79,-168.52 874.79,-168.52"/>
</g>
<!-- CartProceedToCheckoutModule  -->
<g id="node11" class="node">
<title>CartProceedToCheckoutModule </title>
<polygon fill="#fb8072" stroke="black" points="802.95,-214.8 601.05,-214.8 601.05,-178.8 802.95,-178.8 802.95,-214.8"/>
<text text-anchor="middle" x="702" y="-192.6" font-family="Times,serif" font-size="14.00">CartProceedToCheckoutModule </text>
</g>
<!-- CartBaseComponentsModule&#45;&gt;CartProceedToCheckoutModule  -->
<g id="edge10" class="edge">
<title>CartBaseComponentsModule&#45;&gt;CartProceedToCheckoutModule </title>
<path fill="none" stroke="black" stroke-dasharray="5,2" d="M606.05,-149.91C606.05,-149.91 606.05,-168.79 606.05,-168.79"/>
<polygon fill="black" stroke="black" points="602.55,-168.79 606.05,-178.79 609.55,-168.79 602.55,-168.79"/>
</g>
<!-- CartSharedModule  -->
<g id="node12" class="node">
<title>CartSharedModule </title>
<polygon fill="#fb8072" stroke="black" points="583.03,-214.8 456.97,-214.8 456.97,-178.8 583.03,-178.8 583.03,-214.8"/>
<text text-anchor="middle" x="520" y="-192.6" font-family="Times,serif" font-size="14.00">CartSharedModule </text>
</g>
<!-- CartBaseComponentsModule&#45;&gt;CartSharedModule  -->
<g id="edge11" class="edge">
<title>CartBaseComponentsModule&#45;&gt;CartSharedModule </title>
<path fill="none" stroke="black" stroke-dasharray="5,2" d="M520,-149.91C520,-149.91 520,-168.79 520,-168.79"/>
<polygon fill="black" stroke="black" points="516.5,-168.79 520,-178.79 523.5,-168.79 516.5,-168.79"/>
</g>
<!-- CartTotalsModule  -->
<g id="node13" class="node">
<title>CartTotalsModule </title>
<polygon fill="#fb8072" stroke="black" points="439.15,-214.8 316.85,-214.8 316.85,-178.8 439.15,-178.8 439.15,-214.8"/>
<text text-anchor="middle" x="378" y="-192.6" font-family="Times,serif" font-size="14.00">CartTotalsModule </text>
</g>
<!-- CartBaseComponentsModule&#45;&gt;CartTotalsModule  -->
<g id="edge12" class="edge">
<title>CartBaseComponentsModule&#45;&gt;CartTotalsModule </title>
<path fill="none" stroke="black" stroke-dasharray="5,2" d="M434.12,-149.91C434.12,-149.91 434.12,-168.79 434.12,-168.79"/>
<polygon fill="black" stroke="black" points="430.63,-168.79 434.12,-178.79 437.63,-168.79 430.63,-168.79"/>
</g>
<!-- ClearCartModule  -->
<g id="node14" class="node">
<title>ClearCartModule </title>
<polygon fill="#fb8072" stroke="black" points="298.97,-214.8 181.03,-214.8 181.03,-178.8 298.97,-178.8 298.97,-214.8"/>
<text text-anchor="middle" x="240" y="-192.6" font-family="Times,serif" font-size="14.00">ClearCartModule </text>
</g>
<!-- CartBaseComponentsModule&#45;&gt;ClearCartModule  -->
<g id="edge13" class="edge">
<title>CartBaseComponentsModule&#45;&gt;ClearCartModule </title>
<path fill="none" stroke="black" stroke-dasharray="5,2" d="M429.01,-142.8C353.26,-142.8 257.73,-142.8 257.73,-142.8 257.73,-142.8 257.73,-168.52 257.73,-168.52"/>
<polygon fill="black" stroke="black" points="254.23,-168.52 257.73,-178.52 261.23,-168.52 254.23,-168.52"/>
</g>
<!-- SaveForLaterModule  -->
<g id="node15" class="node">
<title>SaveForLaterModule </title>
<polygon fill="#fb8072" stroke="black" points="163.75,-214.8 24.25,-214.8 24.25,-178.8 163.75,-178.8 163.75,-214.8"/>
<text text-anchor="middle" x="94" y="-192.6" font-family="Times,serif" font-size="14.00">SaveForLaterModule </text>
</g>
<!-- CartBaseComponentsModule&#45;&gt;SaveForLaterModule  -->
<g id="edge14" class="edge">
<title>CartBaseComponentsModule&#45;&gt;SaveForLaterModule </title>
<path fill="none" stroke="black" stroke-dasharray="5,2" d="M429.25,-135.8C309.41,-135.8 113.38,-135.8 113.38,-135.8 113.38,-135.8 113.38,-168.5 113.38,-168.5"/>
<polygon fill="black" stroke="black" points="109.88,-168.5 113.38,-178.5 116.88,-168.5 109.88,-168.5"/>
</g>
</g>
</svg>
