<?xml version="1.0" encoding="UTF-8" standalone="no"?>
<!DOCTYPE svg PUBLIC "-//W3C//DTD SVG 1.1//EN"
 "http://www.w3.org/Graphics/SVG/1.1/DTD/svg11.dtd">
<!-- Generated by graphviz version 5.0.0 (20220707.1540)
 -->
<!-- Title: dependencies Pages: 1 -->
<svg width="590pt" height="247pt"
 viewBox="0.00 0.00 590.00 246.80" xmlns="http://www.w3.org/2000/svg" xmlns:xlink="http://www.w3.org/1999/xlink">
<g id="graph0" class="graph" transform="scale(1 1) rotate(0) translate(4 242.8)">
<title>dependencies</title>
<polygon fill="white" stroke="transparent" points="-4,4 -4,-242.8 586,-242.8 586,4 -4,4"/>
<text text-anchor="middle" x="291" y="-8.2" font-family="sans-serif" font-size="14.00">dependencies</text>
<g id="clust1" class="cluster">
<title>cluster_PopoverModule</title>
<polygon fill="none" stroke="black" stroke-dasharray="1,5" points="8,-32.8 8,-230.8 574,-230.8 574,-32.8 8,-32.8"/>
</g>
<g id="clust5" class="cluster">
<title>cluster_PopoverModule_imports</title>
<polygon fill="none" stroke="black" points="300,-40.8 300,-92.8 566,-92.8 566,-40.8 300,-40.8"/>
</g>
<g id="clust2" class="cluster">
<title>cluster_PopoverModule_declarations</title>
<polygon fill="none" stroke="black" points="16,-40.8 16,-92.8 292,-92.8 292,-40.8 16,-40.8"/>
</g>
<g id="clust6" class="cluster">
<title>cluster_PopoverModule_exports</title>
<polygon fill="none" stroke="black" points="146,-170.8 146,-222.8 430,-222.8 430,-170.8 146,-170.8"/>
</g>
<!-- PopoverComponent -->
<g id="node1" class="node">
<title>PopoverComponent</title>
<polygon fill="#ffffb3" stroke="black" points="283.99,-84.8 156.01,-84.8 156.01,-48.8 283.99,-48.8 283.99,-84.8"/>
<text text-anchor="middle" x="220" y="-62.6" font-family="Times,serif" font-size="14.00">PopoverComponent</text>
</g>
<!-- PopoverModule -->
<g id="node3" class="node">
<title>PopoverModule</title>
<polygon fill="#8dd3c7" stroke="black" points="337.21,-149.8 334.21,-153.8 313.21,-153.8 310.21,-149.8 230.79,-149.8 230.79,-113.8 337.21,-113.8 337.21,-149.8"/>
<text text-anchor="middle" x="284" y="-127.6" font-family="Times,serif" font-size="14.00">PopoverModule</text>
</g>
<!-- PopoverComponent&#45;&gt;PopoverModule -->
<g id="edge1" class="edge">
<title>PopoverComponent&#45;&gt;PopoverModule</title>
<path fill="none" stroke="black" d="M257.44,-84.91C257.44,-84.91 257.44,-103.79 257.44,-103.79"/>
<polygon fill="black" stroke="black" points="253.94,-103.79 257.44,-113.79 260.94,-103.79 253.94,-103.79"/>
</g>
<!-- PopoverDirective -->
<g id="node2" class="node">
<title>PopoverDirective</title>
<polygon fill="#ffffb3" stroke="black" points="138.25,-84.8 23.75,-84.8 23.75,-48.8 138.25,-48.8 138.25,-84.8"/>
<text text-anchor="middle" x="81" y="-62.6" font-family="Times,serif" font-size="14.00">PopoverDirective</text>
</g>
<!-- PopoverDirective&#45;&gt;PopoverModule -->
<g id="edge2" class="edge">
<title>PopoverDirective&#45;&gt;PopoverModule</title>
<path fill="none" stroke="black" d="M81,-84.91C81,-104.14 81,-131.8 81,-131.8 81,-131.8 220.66,-131.8 220.66,-131.8"/>
<polygon fill="black" stroke="black" points="220.66,-135.3 230.66,-131.8 220.66,-128.3 220.66,-135.3"/>
</g>
<!-- PopoverComponent  -->
<g id="node6" class="node">
<title>PopoverComponent </title>
<polygon fill="#fb8072" stroke="black" points="421.99,-214.8 290.01,-214.8 290.01,-178.8 421.99,-178.8 421.99,-214.8"/>
<text text-anchor="middle" x="356" y="-192.6" font-family="Times,serif" font-size="14.00">PopoverComponent </text>
</g>
<!-- PopoverModule&#45;&gt;PopoverComponent  -->
<g id="edge5" class="edge">
<title>PopoverModule&#45;&gt;PopoverComponent </title>
<path fill="none" stroke="black" stroke-dasharray="5,2" d="M313.68,-149.91C313.68,-149.91 313.68,-168.79 313.68,-168.79"/>
<polygon fill="black" stroke="black" points="310.18,-168.79 313.68,-178.79 317.18,-168.79 310.18,-168.79"/>
</g>
<!-- PopoverDirective  -->
<g id="node7" class="node">
<title>PopoverDirective </title>
<polygon fill="#fb8072" stroke="black" points="272.25,-214.8 153.75,-214.8 153.75,-178.8 272.25,-178.8 272.25,-214.8"/>
<text text-anchor="middle" x="213" y="-192.6" font-family="Times,serif" font-size="14.00">PopoverDirective </text>
</g>
<!-- PopoverModule&#45;&gt;PopoverDirective  -->
<g id="edge6" class="edge">
<title>PopoverModule&#45;&gt;PopoverDirective </title>
<path fill="none" stroke="black" stroke-dasharray="5,2" d="M251.51,-149.91C251.51,-149.91 251.51,-168.79 251.51,-168.79"/>
<polygon fill="black" stroke="black" points="248.01,-168.79 251.51,-178.79 255.01,-168.79 248.01,-168.79"/>
</g>
<!-- IconModule -->
<g id="node4" class="node">
<title>IconModule</title>
<polygon fill="#8dd3c7" stroke="black" points="558.43,-84.8 555.43,-88.8 534.43,-88.8 531.43,-84.8 473.57,-84.8 473.57,-48.8 558.43,-48.8 558.43,-84.8"/>
<text text-anchor="middle" x="516" y="-62.6" font-family="Times,serif" font-size="14.00">IconModule</text>
</g>
<!-- IconModule&#45;&gt;PopoverModule -->
<g id="edge3" class="edge">
<title>IconModule&#45;&gt;PopoverModule</title>
<path fill="none" stroke="black" d="M516,-84.91C516,-104.14 516,-131.8 516,-131.8 516,-131.8 347.23,-131.8 347.23,-131.8"/>
<polygon fill="black" stroke="black" points="347.23,-128.3 337.23,-131.8 347.23,-135.3 347.23,-128.3"/>
</g>
<!-- KeyboardFocusModule -->
<g id="node5" class="node">
<title>KeyboardFocusModule</title>
<polygon fill="#8dd3c7" stroke="black" points="456.2,-84.8 453.2,-88.8 432.2,-88.8 429.2,-84.8 307.8,-84.8 307.8,-48.8 456.2,-48.8 456.2,-84.8"/>
<text text-anchor="middle" x="382" y="-62.6" font-family="Times,serif" font-size="14.00">KeyboardFocusModule</text>
</g>
<!-- KeyboardFocusModule&#45;&gt;PopoverModule -->
<g id="edge4" class="edge">
<title>KeyboardFocusModule&#45;&gt;PopoverModule</title>
<path fill="none" stroke="black" d="M322.5,-84.91C322.5,-84.91 322.5,-103.79 322.5,-103.79"/>
<polygon fill="black" stroke="black" points="319,-103.79 322.5,-113.79 326,-103.79 319,-103.79"/>
</g>
</g>
</svg>
