<?xml version="1.0" encoding="UTF-8" standalone="no"?>
<!DOCTYPE svg PUBLIC "-//W3C//DTD SVG 1.1//EN"
 "http://www.w3.org/Graphics/SVG/1.1/DTD/svg11.dtd">
<!-- Generated by graphviz version 5.0.0 (20220707.1540)
 -->
<!-- Title: dependencies Pages: 1 -->
<svg width="551pt" height="174pt"
 viewBox="0.00 0.00 551.00 173.80" xmlns="http://www.w3.org/2000/svg" xmlns:xlink="http://www.w3.org/1999/xlink">
<g id="graph0" class="graph" transform="scale(1 1) rotate(0) translate(4 169.8)">
<title>dependencies</title>
<polygon fill="white" stroke="transparent" points="-4,4 -4,-169.8 547,-169.8 547,4 -4,4"/>
<text text-anchor="middle" x="271.5" y="-8.2" font-family="sans-serif" font-size="14.00">dependencies</text>
<g id="clust1" class="cluster">
<title>cluster_LoginRegisterModule</title>
<polygon fill="none" stroke="black" stroke-dasharray="1,5" points="8,-32.8 8,-157.8 535,-157.8 535,-32.8 8,-32.8"/>
</g>
<g id="clust4" class="cluster">
<title>cluster_LoginRegisterModule_imports</title>
<polygon fill="none" stroke="black" points="202,-40.8 202,-92.8 527,-92.8 527,-40.8 202,-40.8"/>
</g>
<g id="clust2" class="cluster">
<title>cluster_LoginRegisterModule_declarations</title>
<polygon fill="none" stroke="black" points="16,-40.8 16,-92.8 194,-92.8 194,-40.8 16,-40.8"/>
</g>
<!-- LoginRegisterComponent -->
<g id="node1" class="node">
<title>LoginRegisterComponent</title>
<polygon fill="#ffffb3" stroke="black" points="185.93,-84.8 24.07,-84.8 24.07,-48.8 185.93,-48.8 185.93,-84.8"/>
<text text-anchor="middle" x="105" y="-62.6" font-family="Times,serif" font-size="14.00">LoginRegisterComponent</text>
</g>
<!-- LoginRegisterModule -->
<g id="node2" class="node">
<title>LoginRegisterModule</title>
<polygon fill="#8dd3c7" stroke="black" points="374.65,-149.8 371.65,-153.8 350.65,-153.8 347.65,-149.8 235.35,-149.8 235.35,-113.8 374.65,-113.8 374.65,-149.8"/>
<text text-anchor="middle" x="305" y="-127.6" font-family="Times,serif" font-size="14.00">LoginRegisterModule</text>
</g>
<!-- LoginRegisterComponent&#45;&gt;LoginRegisterModule -->
<g id="edge1" class="edge">
<title>LoginRegisterComponent&#45;&gt;LoginRegisterModule</title>
<path fill="none" stroke="black" d="M105,-84.91C105,-104.14 105,-131.8 105,-131.8 105,-131.8 225.33,-131.8 225.33,-131.8"/>
<polygon fill="black" stroke="black" points="225.33,-135.3 235.33,-131.8 225.33,-128.3 225.33,-135.3"/>
</g>
<!-- I18nModule -->
<g id="node3" class="node">
<title>I18nModule</title>
<polygon fill="#8dd3c7" stroke="black" points="518.71,-84.8 515.71,-88.8 494.71,-88.8 491.71,-84.8 433.29,-84.8 433.29,-48.8 518.71,-48.8 518.71,-84.8"/>
<text text-anchor="middle" x="476" y="-62.6" font-family="Times,serif" font-size="14.00">I18nModule</text>
</g>
<!-- I18nModule&#45;&gt;LoginRegisterModule -->
<g id="edge2" class="edge">
<title>I18nModule&#45;&gt;LoginRegisterModule</title>
<path fill="none" stroke="black" d="M476,-84.91C476,-104.14 476,-131.8 476,-131.8 476,-131.8 385.05,-131.8 385.05,-131.8"/>
<polygon fill="black" stroke="black" points="385.05,-128.3 375.05,-131.8 385.05,-135.3 385.05,-128.3"/>
</g>
<!-- PageSlotModule -->
<g id="node4" class="node">
<title>PageSlotModule</title>
<polygon fill="#8dd3c7" stroke="black" points="415.83,-84.8 412.83,-88.8 391.83,-88.8 388.83,-84.8 306.17,-84.8 306.17,-48.8 415.83,-48.8 415.83,-84.8"/>
<text text-anchor="middle" x="361" y="-62.6" font-family="Times,serif" font-size="14.00">PageSlotModule</text>
</g>
<!-- PageSlotModule&#45;&gt;LoginRegisterModule -->
<g id="edge3" class="edge">
<title>PageSlotModule&#45;&gt;LoginRegisterModule</title>
<path fill="none" stroke="black" d="M340.58,-84.91C340.58,-84.91 340.58,-103.79 340.58,-103.79"/>
<polygon fill="black" stroke="black" points="337.08,-103.79 340.58,-113.79 344.08,-103.79 337.08,-103.79"/>
</g>
<!-- UrlModule -->
<g id="node5" class="node">
<title>UrlModule</title>
<polygon fill="#8dd3c7" stroke="black" points="288.21,-84.8 285.21,-88.8 264.21,-88.8 261.21,-84.8 209.79,-84.8 209.79,-48.8 288.21,-48.8 288.21,-84.8"/>
<text text-anchor="middle" x="249" y="-62.6" font-family="Times,serif" font-size="14.00">UrlModule</text>
</g>
<!-- UrlModule&#45;&gt;LoginRegisterModule -->
<g id="edge4" class="edge">
<title>UrlModule&#45;&gt;LoginRegisterModule</title>
<path fill="none" stroke="black" d="M261.64,-84.91C261.64,-84.91 261.64,-103.79 261.64,-103.79"/>
<polygon fill="black" stroke="black" points="258.14,-103.79 261.64,-113.79 265.14,-103.79 258.14,-103.79"/>
</g>
</g>
</svg>
