<?xml version="1.0" encoding="UTF-8" standalone="no"?>
<!DOCTYPE svg PUBLIC "-//W3C//DTD SVG 1.1//EN"
 "http://www.w3.org/Graphics/SVG/1.1/DTD/svg11.dtd">
<!-- Generated by graphviz version 5.0.0 (20220707.1540)
 -->
<!-- Title: dependencies Pages: 1 -->
<svg width="582pt" height="247pt"
 viewBox="0.00 0.00 582.00 246.80" xmlns="http://www.w3.org/2000/svg" xmlns:xlink="http://www.w3.org/1999/xlink">
<g id="graph0" class="graph" transform="scale(1 1) rotate(0) translate(4 242.8)">
<title>dependencies</title>
<polygon fill="white" stroke="transparent" points="-4,4 -4,-242.8 578,-242.8 578,4 -4,4"/>
<text text-anchor="middle" x="287" y="-8.2" font-family="sans-serif" font-size="14.00">dependencies</text>
<g id="clust1" class="cluster">
<title>cluster_CartValidationWarningsModule</title>
<polygon fill="none" stroke="black" stroke-dasharray="1,5" points="8,-32.8 8,-230.8 566,-230.8 566,-32.8 8,-32.8"/>
</g>
<g id="clust5" class="cluster">
<title>cluster_CartValidationWarningsModule_exports</title>
<polygon fill="none" stroke="black" points="235,-170.8 235,-222.8 473,-222.8 473,-170.8 235,-170.8"/>
</g>
<g id="clust4" class="cluster">
<title>cluster_CartValidationWarningsModule_imports</title>
<polygon fill="none" stroke="black" points="258,-40.8 258,-92.8 558,-92.8 558,-40.8 258,-40.8"/>
</g>
<g id="clust2" class="cluster">
<title>cluster_CartValidationWarningsModule_declarations</title>
<polygon fill="none" stroke="black" points="16,-40.8 16,-92.8 250,-92.8 250,-40.8 16,-40.8"/>
</g>
<!-- CartValidationWarningsComponent -->
<g id="node1" class="node">
<title>CartValidationWarningsComponent</title>
<polygon fill="#ffffb3" stroke="black" points="242.46,-84.8 23.54,-84.8 23.54,-48.8 242.46,-48.8 242.46,-84.8"/>
<text text-anchor="middle" x="133" y="-62.6" font-family="Times,serif" font-size="14.00">CartValidationWarningsComponent</text>
</g>
<!-- CartValidationWarningsModule -->
<g id="node2" class="node">
<title>CartValidationWarningsModule</title>
<polygon fill="#8dd3c7" stroke="black" points="452.68,-149.8 449.68,-153.8 428.68,-153.8 425.68,-149.8 255.32,-149.8 255.32,-113.8 452.68,-113.8 452.68,-149.8"/>
<text text-anchor="middle" x="354" y="-127.6" font-family="Times,serif" font-size="14.00">CartValidationWarningsModule</text>
</g>
<!-- CartValidationWarningsComponent&#45;&gt;CartValidationWarningsModule -->
<g id="edge1" class="edge">
<title>CartValidationWarningsComponent&#45;&gt;CartValidationWarningsModule</title>
<path fill="none" stroke="black" d="M242.63,-66.8C253.52,-66.8 260.65,-66.8 260.65,-66.8 260.65,-66.8 260.65,-103.69 260.65,-103.69"/>
<polygon fill="black" stroke="black" points="257.15,-103.69 260.65,-113.69 264.15,-103.69 257.15,-103.69"/>
</g>
<!-- CartValidationWarningsComponent  -->
<g id="node6" class="node">
<title>CartValidationWarningsComponent </title>
<polygon fill="#fb8072" stroke="black" points="465.46,-214.8 242.54,-214.8 242.54,-178.8 465.46,-178.8 465.46,-214.8"/>
<text text-anchor="middle" x="354" y="-192.6" font-family="Times,serif" font-size="14.00">CartValidationWarningsComponent </text>
</g>
<!-- CartValidationWarningsModule&#45;&gt;CartValidationWarningsComponent  -->
<g id="edge5" class="edge">
<title>CartValidationWarningsModule&#45;&gt;CartValidationWarningsComponent </title>
<path fill="none" stroke="black" stroke-dasharray="5,2" d="M354,-149.91C354,-149.91 354,-168.79 354,-168.79"/>
<polygon fill="black" stroke="black" points="350.5,-168.79 354,-178.79 357.5,-168.79 350.5,-168.79"/>
</g>
<!-- I18nModule -->
<g id="node3" class="node">
<title>I18nModule</title>
<polygon fill="#8dd3c7" stroke="black" points="549.71,-84.8 546.71,-88.8 525.71,-88.8 522.71,-84.8 464.29,-84.8 464.29,-48.8 549.71,-48.8 549.71,-84.8"/>
<text text-anchor="middle" x="507" y="-62.6" font-family="Times,serif" font-size="14.00">I18nModule</text>
</g>
<!-- I18nModule&#45;&gt;CartValidationWarningsModule -->
<g id="edge2" class="edge">
<title>I18nModule&#45;&gt;CartValidationWarningsModule</title>
<path fill="none" stroke="black" d="M507.42,-84.91C507.42,-104.14 507.42,-131.8 507.42,-131.8 507.42,-131.8 462.9,-131.8 462.9,-131.8"/>
<polygon fill="black" stroke="black" points="462.9,-128.3 452.9,-131.8 462.9,-135.3 462.9,-128.3"/>
</g>
<!-- IconModule -->
<g id="node4" class="node">
<title>IconModule</title>
<polygon fill="#8dd3c7" stroke="black" points="446.43,-84.8 443.43,-88.8 422.43,-88.8 419.43,-84.8 361.57,-84.8 361.57,-48.8 446.43,-48.8 446.43,-84.8"/>
<text text-anchor="middle" x="404" y="-62.6" font-family="Times,serif" font-size="14.00">IconModule</text>
</g>
<!-- IconModule&#45;&gt;CartValidationWarningsModule -->
<g id="edge3" class="edge">
<title>IconModule&#45;&gt;CartValidationWarningsModule</title>
<path fill="none" stroke="black" d="M404,-84.91C404,-84.91 404,-103.79 404,-103.79"/>
<polygon fill="black" stroke="black" points="400.5,-103.79 404,-113.79 407.5,-103.79 400.5,-103.79"/>
</g>
<!-- UrlModule -->
<g id="node5" class="node">
<title>UrlModule</title>
<polygon fill="#8dd3c7" stroke="black" points="344.21,-84.8 341.21,-88.8 320.21,-88.8 317.21,-84.8 265.79,-84.8 265.79,-48.8 344.21,-48.8 344.21,-84.8"/>
<text text-anchor="middle" x="305" y="-62.6" font-family="Times,serif" font-size="14.00">UrlModule</text>
</g>
<!-- UrlModule&#45;&gt;CartValidationWarningsModule -->
<g id="edge4" class="edge">
<title>UrlModule&#45;&gt;CartValidationWarningsModule</title>
<path fill="none" stroke="black" d="M305,-84.91C305,-84.91 305,-103.79 305,-103.79"/>
<polygon fill="black" stroke="black" points="301.5,-103.79 305,-113.79 308.5,-103.79 301.5,-103.79"/>
</g>
</g>
</svg>
