<?xml version="1.0" encoding="UTF-8" standalone="no"?>
<!DOCTYPE svg PUBLIC "-//W3C//DTD SVG 1.1//EN"
 "http://www.w3.org/Graphics/SVG/1.1/DTD/svg11.dtd">
<!-- Generated by graphviz version 5.0.0 (20220707.1540)
 -->
<!-- Title: dependencies Pages: 1 -->
<svg width="1011pt" height="247pt"
 viewBox="0.00 0.00 1011.00 246.80" xmlns="http://www.w3.org/2000/svg" xmlns:xlink="http://www.w3.org/1999/xlink">
<g id="graph0" class="graph" transform="scale(1 1) rotate(0) translate(4 242.8)">
<title>dependencies</title>
<polygon fill="white" stroke="transparent" points="-4,4 -4,-242.8 1007,-242.8 1007,4 -4,4"/>
<text text-anchor="middle" x="501.5" y="-8.2" font-family="sans-serif" font-size="14.00">dependencies</text>
<g id="clust1" class="cluster">
<title>cluster_CheckoutPaymentFormModule</title>
<polygon fill="none" stroke="black" stroke-dasharray="1,5" points="8,-32.8 8,-230.8 995,-230.8 995,-32.8 8,-32.8"/>
</g>
<g id="clust5" class="cluster">
<title>cluster_CheckoutPaymentFormModule_exports</title>
<polygon fill="none" stroke="black" points="334,-170.8 334,-222.8 568,-222.8 568,-170.8 334,-170.8"/>
</g>
<g id="clust2" class="cluster">
<title>cluster_CheckoutPaymentFormModule_declarations</title>
<polygon fill="none" stroke="black" points="757,-40.8 757,-92.8 987,-92.8 987,-40.8 757,-40.8"/>
</g>
<g id="clust4" class="cluster">
<title>cluster_CheckoutPaymentFormModule_imports</title>
<polygon fill="none" stroke="black" points="16,-40.8 16,-92.8 749,-92.8 749,-40.8 16,-40.8"/>
</g>
<!-- CheckoutPaymentFormComponent -->
<g id="node1" class="node">
<title>CheckoutPaymentFormComponent</title>
<polygon fill="#ffffb3" stroke="black" points="979.32,-84.8 764.68,-84.8 764.68,-48.8 979.32,-48.8 979.32,-84.8"/>
<text text-anchor="middle" x="872" y="-62.6" font-family="Times,serif" font-size="14.00">CheckoutPaymentFormComponent</text>
</g>
<!-- CheckoutPaymentFormModule -->
<g id="node2" class="node">
<title>CheckoutPaymentFormModule</title>
<polygon fill="#8dd3c7" stroke="black" points="547.04,-149.8 544.04,-153.8 523.04,-153.8 520.04,-149.8 354.96,-149.8 354.96,-113.8 547.04,-113.8 547.04,-149.8"/>
<text text-anchor="middle" x="451" y="-127.6" font-family="Times,serif" font-size="14.00">CheckoutPaymentFormModule</text>
</g>
<!-- CheckoutPaymentFormComponent&#45;&gt;CheckoutPaymentFormModule -->
<g id="edge1" class="edge">
<title>CheckoutPaymentFormComponent&#45;&gt;CheckoutPaymentFormModule</title>
<path fill="none" stroke="black" d="M872,-85.08C872,-106.12 872,-137.8 872,-137.8 872,-137.8 557.06,-137.8 557.06,-137.8"/>
<polygon fill="black" stroke="black" points="557.06,-134.3 547.06,-137.8 557.06,-141.3 557.06,-134.3"/>
</g>
<!-- CheckoutPaymentFormComponent  -->
<g id="node9" class="node">
<title>CheckoutPaymentFormComponent </title>
<polygon fill="#fb8072" stroke="black" points="559.82,-214.8 342.18,-214.8 342.18,-178.8 559.82,-178.8 559.82,-214.8"/>
<text text-anchor="middle" x="451" y="-192.6" font-family="Times,serif" font-size="14.00">CheckoutPaymentFormComponent </text>
</g>
<!-- CheckoutPaymentFormModule&#45;&gt;CheckoutPaymentFormComponent  -->
<g id="edge8" class="edge">
<title>CheckoutPaymentFormModule&#45;&gt;CheckoutPaymentFormComponent </title>
<path fill="none" stroke="black" stroke-dasharray="5,2" d="M451,-149.91C451,-149.91 451,-168.79 451,-168.79"/>
<polygon fill="black" stroke="black" points="447.5,-168.79 451,-178.79 454.5,-168.79 447.5,-168.79"/>
</g>
<!-- CardModule -->
<g id="node3" class="node">
<title>CardModule</title>
<polygon fill="#8dd3c7" stroke="black" points="741.27,-84.8 738.27,-88.8 717.27,-88.8 714.27,-84.8 654.73,-84.8 654.73,-48.8 741.27,-48.8 741.27,-84.8"/>
<text text-anchor="middle" x="698" y="-62.6" font-family="Times,serif" font-size="14.00">CardModule</text>
</g>
<!-- CardModule&#45;&gt;CheckoutPaymentFormModule -->
<g id="edge2" class="edge">
<title>CardModule&#45;&gt;CheckoutPaymentFormModule</title>
<path fill="none" stroke="black" d="M698,-84.82C698,-102.17 698,-125.8 698,-125.8 698,-125.8 557.2,-125.8 557.2,-125.8"/>
<polygon fill="black" stroke="black" points="557.2,-122.3 547.2,-125.8 557.2,-129.3 557.2,-122.3"/>
</g>
<!-- FormErrorsModule -->
<g id="node4" class="node">
<title>FormErrorsModule</title>
<polygon fill="#8dd3c7" stroke="black" points="636.38,-84.8 633.38,-88.8 612.38,-88.8 609.38,-84.8 511.62,-84.8 511.62,-48.8 636.38,-48.8 636.38,-84.8"/>
<text text-anchor="middle" x="574" y="-62.6" font-family="Times,serif" font-size="14.00">FormErrorsModule</text>
</g>
<!-- FormErrorsModule&#45;&gt;CheckoutPaymentFormModule -->
<g id="edge3" class="edge">
<title>FormErrorsModule&#45;&gt;CheckoutPaymentFormModule</title>
<path fill="none" stroke="black" d="M529.42,-84.91C529.42,-84.91 529.42,-103.79 529.42,-103.79"/>
<polygon fill="black" stroke="black" points="525.92,-103.79 529.42,-113.79 532.92,-103.79 525.92,-103.79"/>
</g>
<!-- I18nModule -->
<g id="node5" class="node">
<title>I18nModule</title>
<polygon fill="#8dd3c7" stroke="black" points="493.71,-84.8 490.71,-88.8 469.71,-88.8 466.71,-84.8 408.29,-84.8 408.29,-48.8 493.71,-48.8 493.71,-84.8"/>
<text text-anchor="middle" x="451" y="-62.6" font-family="Times,serif" font-size="14.00">I18nModule</text>
</g>
<!-- I18nModule&#45;&gt;CheckoutPaymentFormModule -->
<g id="edge4" class="edge">
<title>I18nModule&#45;&gt;CheckoutPaymentFormModule</title>
<path fill="none" stroke="black" d="M451,-84.91C451,-84.91 451,-103.79 451,-103.79"/>
<polygon fill="black" stroke="black" points="447.5,-103.79 451,-113.79 454.5,-103.79 447.5,-103.79"/>
</g>
<!-- IconModule -->
<g id="node6" class="node">
<title>IconModule</title>
<polygon fill="#8dd3c7" stroke="black" points="390.43,-84.8 387.43,-88.8 366.43,-88.8 363.43,-84.8 305.57,-84.8 305.57,-48.8 390.43,-48.8 390.43,-84.8"/>
<text text-anchor="middle" x="348" y="-62.6" font-family="Times,serif" font-size="14.00">IconModule</text>
</g>
<!-- IconModule&#45;&gt;CheckoutPaymentFormModule -->
<g id="edge5" class="edge">
<title>IconModule&#45;&gt;CheckoutPaymentFormModule</title>
<path fill="none" stroke="black" d="M372.47,-84.91C372.47,-84.91 372.47,-103.79 372.47,-103.79"/>
<polygon fill="black" stroke="black" points="368.97,-103.79 372.47,-113.79 375.97,-103.79 368.97,-103.79"/>
</g>
<!-- NgSelectA11yModule -->
<g id="node7" class="node">
<title>NgSelectA11yModule</title>
<polygon fill="#8dd3c7" stroke="black" points="287.98,-84.8 284.98,-88.8 263.98,-88.8 260.98,-84.8 146.02,-84.8 146.02,-48.8 287.98,-48.8 287.98,-84.8"/>
<text text-anchor="middle" x="217" y="-62.6" font-family="Times,serif" font-size="14.00">NgSelectA11yModule</text>
</g>
<!-- NgSelectA11yModule&#45;&gt;CheckoutPaymentFormModule -->
<g id="edge6" class="edge">
<title>NgSelectA11yModule&#45;&gt;CheckoutPaymentFormModule</title>
<path fill="none" stroke="black" d="M217,-84.82C217,-102.17 217,-125.8 217,-125.8 217,-125.8 344.81,-125.8 344.81,-125.8"/>
<polygon fill="black" stroke="black" points="344.81,-129.3 354.81,-125.8 344.81,-122.3 344.81,-129.3"/>
</g>
<!-- SpinnerModule -->
<g id="node8" class="node">
<title>SpinnerModule</title>
<polygon fill="#8dd3c7" stroke="black" points="127.6,-84.8 124.6,-88.8 103.6,-88.8 100.6,-84.8 24.4,-84.8 24.4,-48.8 127.6,-48.8 127.6,-84.8"/>
<text text-anchor="middle" x="76" y="-62.6" font-family="Times,serif" font-size="14.00">SpinnerModule</text>
</g>
<!-- SpinnerModule&#45;&gt;CheckoutPaymentFormModule -->
<g id="edge7" class="edge">
<title>SpinnerModule&#45;&gt;CheckoutPaymentFormModule</title>
<path fill="none" stroke="black" d="M76,-85.08C76,-106.12 76,-137.8 76,-137.8 76,-137.8 344.92,-137.8 344.92,-137.8"/>
<polygon fill="black" stroke="black" points="344.92,-141.3 354.92,-137.8 344.92,-134.3 344.92,-141.3"/>
</g>
</g>
</svg>
