<?xml version="1.0" encoding="UTF-8" standalone="no"?>
<!DOCTYPE svg PUBLIC "-//W3C//DTD SVG 1.1//EN"
 "http://www.w3.org/Graphics/SVG/1.1/DTD/svg11.dtd">
<!-- Generated by graphviz version 5.0.0 (20220707.1540)
 -->
<!-- Title: dependencies Pages: 1 -->
<svg width="346pt" height="174pt"
 viewBox="0.00 0.00 346.00 173.80" xmlns="http://www.w3.org/2000/svg" xmlns:xlink="http://www.w3.org/1999/xlink">
<g id="graph0" class="graph" transform="scale(1 1) rotate(0) translate(4 169.8)">
<title>dependencies</title>
<polygon fill="white" stroke="transparent" points="-4,4 -4,-169.8 342,-169.8 342,4 -4,4"/>
<text text-anchor="middle" x="169" y="-8.2" font-family="sans-serif" font-size="14.00">dependencies</text>
<g id="clust1" class="cluster">
<title>cluster_CartBaseModule</title>
<polygon fill="none" stroke="black" stroke-dasharray="1,5" points="8,-32.8 8,-157.8 330,-157.8 330,-32.8 8,-32.8"/>
</g>
<g id="clust3" class="cluster">
<title>cluster_CartBaseModule_imports</title>
<polygon fill="none" stroke="black" points="16,-40.8 16,-92.8 322,-92.8 322,-40.8 16,-40.8"/>
</g>
<!-- CartBaseCoreModule -->
<g id="node1" class="node">
<title>CartBaseCoreModule</title>
<polygon fill="#8dd3c7" stroke="black" points="314.08,-84.8 311.08,-88.8 290.08,-88.8 287.08,-84.8 175.92,-84.8 175.92,-48.8 314.08,-48.8 314.08,-84.8"/>
<text text-anchor="middle" x="245" y="-62.6" font-family="Times,serif" font-size="14.00">CartBaseCoreModule</text>
</g>
<!-- CartBaseModule -->
<g id="node3" class="node">
<title>CartBaseModule</title>
<polygon fill="#8dd3c7" stroke="black" points="223.37,-149.8 220.37,-153.8 199.37,-153.8 196.37,-149.8 112.63,-149.8 112.63,-113.8 223.37,-113.8 223.37,-149.8"/>
<text text-anchor="middle" x="168" y="-127.6" font-family="Times,serif" font-size="14.00">CartBaseModule</text>
</g>
<!-- CartBaseCoreModule&#45;&gt;CartBaseModule -->
<g id="edge1" class="edge">
<title>CartBaseCoreModule&#45;&gt;CartBaseModule</title>
<path fill="none" stroke="black" d="M199.7,-84.91C199.7,-84.91 199.7,-103.79 199.7,-103.79"/>
<polygon fill="black" stroke="black" points="196.2,-103.79 199.7,-113.79 203.2,-103.79 196.2,-103.79"/>
</g>
<!-- CartBaseOccModule -->
<g id="node2" class="node">
<title>CartBaseOccModule</title>
<polygon fill="#8dd3c7" stroke="black" points="157.91,-84.8 154.91,-88.8 133.91,-88.8 130.91,-84.8 24.09,-84.8 24.09,-48.8 157.91,-48.8 157.91,-84.8"/>
<text text-anchor="middle" x="91" y="-62.6" font-family="Times,serif" font-size="14.00">CartBaseOccModule</text>
</g>
<!-- CartBaseOccModule&#45;&gt;CartBaseModule -->
<g id="edge2" class="edge">
<title>CartBaseOccModule&#45;&gt;CartBaseModule</title>
<path fill="none" stroke="black" d="M135.13,-84.91C135.13,-84.91 135.13,-103.79 135.13,-103.79"/>
<polygon fill="black" stroke="black" points="131.63,-103.79 135.13,-113.79 138.63,-103.79 131.63,-103.79"/>
</g>
</g>
</svg>
