<?xml version="1.0" encoding="UTF-8" standalone="no"?>
<!DOCTYPE svg PUBLIC "-//W3C//DTD SVG 1.1//EN"
 "http://www.w3.org/Graphics/SVG/1.1/DTD/svg11.dtd">
<!-- Generated by graphviz version 5.0.0 (20220707.1540)
 -->
<!-- Title: dependencies Pages: 1 -->
<svg width="501pt" height="174pt"
 viewBox="0.00 0.00 501.00 173.80" xmlns="http://www.w3.org/2000/svg" xmlns:xlink="http://www.w3.org/1999/xlink">
<g id="graph0" class="graph" transform="scale(1 1) rotate(0) translate(4 169.8)">
<title>dependencies</title>
<polygon fill="white" stroke="transparent" points="-4,4 -4,-169.8 497,-169.8 497,4 -4,4"/>
<text text-anchor="middle" x="246.5" y="-8.2" font-family="sans-serif" font-size="14.00">dependencies</text>
<g id="clust1" class="cluster">
<title>cluster_CDCForgotPasswordModule</title>
<polygon fill="none" stroke="black" stroke-dasharray="1,5" points="8,-32.8 8,-157.8 485,-157.8 485,-32.8 8,-32.8"/>
</g>
<g id="clust3" class="cluster">
<title>cluster_CDCForgotPasswordModule_imports</title>
<polygon fill="none" stroke="black" points="16,-40.8 16,-92.8 477,-92.8 477,-40.8 16,-40.8"/>
</g>
<!-- FormErrorsModule -->
<g id="node1" class="node">
<title>FormErrorsModule</title>
<polygon fill="#8dd3c7" stroke="black" points="469.38,-84.8 466.38,-88.8 445.38,-88.8 442.38,-84.8 344.62,-84.8 344.62,-48.8 469.38,-48.8 469.38,-84.8"/>
<text text-anchor="middle" x="407" y="-62.6" font-family="Times,serif" font-size="14.00">FormErrorsModule</text>
</g>
<!-- CDCForgotPasswordModule -->
<g id="node5" class="node">
<title>CDCForgotPasswordModule</title>
<polygon fill="#8dd3c7" stroke="black" points="317.85,-149.8 314.85,-153.8 293.85,-153.8 290.85,-149.8 138.15,-149.8 138.15,-113.8 317.85,-113.8 317.85,-149.8"/>
<text text-anchor="middle" x="228" y="-127.6" font-family="Times,serif" font-size="14.00">CDCForgotPasswordModule</text>
</g>
<!-- FormErrorsModule&#45;&gt;CDCForgotPasswordModule -->
<g id="edge1" class="edge">
<title>FormErrorsModule&#45;&gt;CDCForgotPasswordModule</title>
<path fill="none" stroke="black" d="M407,-84.91C407,-104.14 407,-131.8 407,-131.8 407,-131.8 327.76,-131.8 327.76,-131.8"/>
<polygon fill="black" stroke="black" points="327.76,-128.3 317.76,-131.8 327.76,-135.3 327.76,-128.3"/>
</g>
<!-- I18nModule -->
<g id="node2" class="node">
<title>I18nModule</title>
<polygon fill="#8dd3c7" stroke="black" points="326.71,-84.8 323.71,-88.8 302.71,-88.8 299.71,-84.8 241.29,-84.8 241.29,-48.8 326.71,-48.8 326.71,-84.8"/>
<text text-anchor="middle" x="284" y="-62.6" font-family="Times,serif" font-size="14.00">I18nModule</text>
</g>
<!-- I18nModule&#45;&gt;CDCForgotPasswordModule -->
<g id="edge2" class="edge">
<title>I18nModule&#45;&gt;CDCForgotPasswordModule</title>
<path fill="none" stroke="black" d="M279.53,-84.91C279.53,-84.91 279.53,-103.79 279.53,-103.79"/>
<polygon fill="black" stroke="black" points="276.03,-103.79 279.53,-113.79 283.03,-103.79 276.03,-103.79"/>
</g>
<!-- SpinnerModule -->
<g id="node3" class="node">
<title>SpinnerModule</title>
<polygon fill="#8dd3c7" stroke="black" points="223.6,-84.8 220.6,-88.8 199.6,-88.8 196.6,-84.8 120.4,-84.8 120.4,-48.8 223.6,-48.8 223.6,-84.8"/>
<text text-anchor="middle" x="172" y="-62.6" font-family="Times,serif" font-size="14.00">SpinnerModule</text>
</g>
<!-- SpinnerModule&#45;&gt;CDCForgotPasswordModule -->
<g id="edge3" class="edge">
<title>SpinnerModule&#45;&gt;CDCForgotPasswordModule</title>
<path fill="none" stroke="black" d="M180.94,-84.91C180.94,-84.91 180.94,-103.79 180.94,-103.79"/>
<polygon fill="black" stroke="black" points="177.44,-103.79 180.94,-113.79 184.44,-103.79 177.44,-103.79"/>
</g>
<!-- UrlModule -->
<g id="node4" class="node">
<title>UrlModule</title>
<polygon fill="#8dd3c7" stroke="black" points="102.21,-84.8 99.21,-88.8 78.21,-88.8 75.21,-84.8 23.79,-84.8 23.79,-48.8 102.21,-48.8 102.21,-84.8"/>
<text text-anchor="middle" x="63" y="-62.6" font-family="Times,serif" font-size="14.00">UrlModule</text>
</g>
<!-- UrlModule&#45;&gt;CDCForgotPasswordModule -->
<g id="edge4" class="edge">
<title>UrlModule&#45;&gt;CDCForgotPasswordModule</title>
<path fill="none" stroke="black" d="M63,-84.91C63,-104.14 63,-131.8 63,-131.8 63,-131.8 128.26,-131.8 128.26,-131.8"/>
<polygon fill="black" stroke="black" points="128.26,-135.3 138.26,-131.8 128.26,-128.3 128.26,-135.3"/>
</g>
</g>
</svg>
