<?xml version="1.0" encoding="UTF-8" standalone="no"?>
<!DOCTYPE svg PUBLIC "-//W3C//DTD SVG 1.1//EN"
 "http://www.w3.org/Graphics/SVG/1.1/DTD/svg11.dtd">
<!-- Generated by graphviz version 5.0.0 (20220707.1540)
 -->
<!-- Title: dependencies Pages: 1 -->
<svg width="632pt" height="174pt"
 viewBox="0.00 0.00 632.00 173.80" xmlns="http://www.w3.org/2000/svg" xmlns:xlink="http://www.w3.org/1999/xlink">
<g id="graph0" class="graph" transform="scale(1 1) rotate(0) translate(4 169.8)">
<title>dependencies</title>
<polygon fill="white" stroke="transparent" points="-4,4 -4,-169.8 628,-169.8 628,4 -4,4"/>
<text text-anchor="middle" x="312" y="-8.2" font-family="sans-serif" font-size="14.00">dependencies</text>
<g id="clust1" class="cluster">
<title>cluster_NotificationMessageModule</title>
<polygon fill="none" stroke="black" stroke-dasharray="1,5" points="8,-32.8 8,-157.8 616,-157.8 616,-32.8 8,-32.8"/>
</g>
<g id="clust4" class="cluster">
<title>cluster_NotificationMessageModule_imports</title>
<polygon fill="none" stroke="black" points="238,-40.8 238,-92.8 608,-92.8 608,-40.8 238,-40.8"/>
</g>
<g id="clust2" class="cluster">
<title>cluster_NotificationMessageModule_declarations</title>
<polygon fill="none" stroke="black" points="16,-40.8 16,-92.8 230,-92.8 230,-40.8 16,-40.8"/>
</g>
<!-- NotificationMessageComponent -->
<g id="node1" class="node">
<title>NotificationMessageComponent</title>
<polygon fill="#ffffb3" stroke="black" points="221.97,-84.8 24.03,-84.8 24.03,-48.8 221.97,-48.8 221.97,-84.8"/>
<text text-anchor="middle" x="123" y="-62.6" font-family="Times,serif" font-size="14.00">NotificationMessageComponent</text>
</g>
<!-- NotificationMessageModule -->
<g id="node2" class="node">
<title>NotificationMessageModule</title>
<polygon fill="#8dd3c7" stroke="black" points="475.19,-149.8 472.19,-153.8 451.19,-153.8 448.19,-149.8 298.81,-149.8 298.81,-113.8 475.19,-113.8 475.19,-149.8"/>
<text text-anchor="middle" x="387" y="-127.6" font-family="Times,serif" font-size="14.00">NotificationMessageModule</text>
</g>
<!-- NotificationMessageComponent&#45;&gt;NotificationMessageModule -->
<g id="edge1" class="edge">
<title>NotificationMessageComponent&#45;&gt;NotificationMessageModule</title>
<path fill="none" stroke="black" d="M123,-84.91C123,-104.14 123,-131.8 123,-131.8 123,-131.8 288.72,-131.8 288.72,-131.8"/>
<polygon fill="black" stroke="black" points="288.72,-135.3 298.72,-131.8 288.72,-128.3 288.72,-135.3"/>
</g>
<!-- I18nModule -->
<g id="node3" class="node">
<title>I18nModule</title>
<polygon fill="#8dd3c7" stroke="black" points="599.71,-84.8 596.71,-88.8 575.71,-88.8 572.71,-84.8 514.29,-84.8 514.29,-48.8 599.71,-48.8 599.71,-84.8"/>
<text text-anchor="middle" x="557" y="-62.6" font-family="Times,serif" font-size="14.00">I18nModule</text>
</g>
<!-- I18nModule&#45;&gt;NotificationMessageModule -->
<g id="edge2" class="edge">
<title>I18nModule&#45;&gt;NotificationMessageModule</title>
<path fill="none" stroke="black" d="M557,-84.91C557,-104.14 557,-131.8 557,-131.8 557,-131.8 485.49,-131.8 485.49,-131.8"/>
<polygon fill="black" stroke="black" points="485.49,-128.3 475.49,-131.8 485.49,-135.3 485.49,-128.3"/>
</g>
<!-- IconModule -->
<g id="node4" class="node">
<title>IconModule</title>
<polygon fill="#8dd3c7" stroke="black" points="496.43,-84.8 493.43,-88.8 472.43,-88.8 469.43,-84.8 411.57,-84.8 411.57,-48.8 496.43,-48.8 496.43,-84.8"/>
<text text-anchor="middle" x="454" y="-62.6" font-family="Times,serif" font-size="14.00">IconModule</text>
</g>
<!-- IconModule&#45;&gt;NotificationMessageModule -->
<g id="edge3" class="edge">
<title>IconModule&#45;&gt;NotificationMessageModule</title>
<path fill="none" stroke="black" d="M443.44,-84.91C443.44,-84.91 443.44,-103.79 443.44,-103.79"/>
<polygon fill="black" stroke="black" points="439.94,-103.79 443.44,-113.79 446.94,-103.79 439.94,-103.79"/>
</g>
<!-- KeyboardFocusModule -->
<g id="node5" class="node">
<title>KeyboardFocusModule</title>
<polygon fill="#8dd3c7" stroke="black" points="394.2,-84.8 391.2,-88.8 370.2,-88.8 367.2,-84.8 245.8,-84.8 245.8,-48.8 394.2,-48.8 394.2,-84.8"/>
<text text-anchor="middle" x="320" y="-62.6" font-family="Times,serif" font-size="14.00">KeyboardFocusModule</text>
</g>
<!-- KeyboardFocusModule&#45;&gt;NotificationMessageModule -->
<g id="edge4" class="edge">
<title>KeyboardFocusModule&#45;&gt;NotificationMessageModule</title>
<path fill="none" stroke="black" d="M346.5,-84.91C346.5,-84.91 346.5,-103.79 346.5,-103.79"/>
<polygon fill="black" stroke="black" points="343,-103.79 346.5,-113.79 350,-103.79 343,-103.79"/>
</g>
</g>
</svg>
