<?xml version="1.0" encoding="UTF-8" standalone="no"?>
<!DOCTYPE svg PUBLIC "-//W3C//DTD SVG 1.1//EN"
 "http://www.w3.org/Graphics/SVG/1.1/DTD/svg11.dtd">
<!-- Generated by graphviz version 5.0.0 (20220707.1540)
 -->
<!-- Title: dependencies Pages: 1 -->
<svg width="442pt" height="247pt"
 viewBox="0.00 0.00 442.00 246.80" xmlns="http://www.w3.org/2000/svg" xmlns:xlink="http://www.w3.org/1999/xlink">
<g id="graph0" class="graph" transform="scale(1 1) rotate(0) translate(4 242.8)">
<title>dependencies</title>
<polygon fill="white" stroke="transparent" points="-4,4 -4,-242.8 438,-242.8 438,4 -4,4"/>
<text text-anchor="middle" x="217" y="-8.2" font-family="sans-serif" font-size="14.00">dependencies</text>
<g id="clust1" class="cluster">
<title>cluster_AddToSavedCartModule</title>
<polygon fill="none" stroke="black" stroke-dasharray="1,5" points="8,-32.8 8,-230.8 426,-230.8 426,-32.8 8,-32.8"/>
</g>
<g id="clust5" class="cluster">
<title>cluster_AddToSavedCartModule_exports</title>
<polygon fill="none" stroke="black" points="64,-170.8 64,-222.8 262,-222.8 262,-170.8 64,-170.8"/>
</g>
<g id="clust2" class="cluster">
<title>cluster_AddToSavedCartModule_declarations</title>
<polygon fill="none" stroke="black" points="222,-40.8 222,-92.8 418,-92.8 418,-40.8 222,-40.8"/>
</g>
<g id="clust4" class="cluster">
<title>cluster_AddToSavedCartModule_imports</title>
<polygon fill="none" stroke="black" points="16,-40.8 16,-92.8 214,-92.8 214,-40.8 16,-40.8"/>
</g>
<!-- AddToSavedCartComponent -->
<g id="node1" class="node">
<title>AddToSavedCartComponent</title>
<polygon fill="#ffffb3" stroke="black" points="409.81,-84.8 230.19,-84.8 230.19,-48.8 409.81,-48.8 409.81,-84.8"/>
<text text-anchor="middle" x="320" y="-62.6" font-family="Times,serif" font-size="14.00">AddToSavedCartComponent</text>
</g>
<!-- AddToSavedCartModule -->
<g id="node2" class="node">
<title>AddToSavedCartModule</title>
<polygon fill="#8dd3c7" stroke="black" points="241.53,-149.8 238.53,-153.8 217.53,-153.8 214.53,-149.8 84.47,-149.8 84.47,-113.8 241.53,-113.8 241.53,-149.8"/>
<text text-anchor="middle" x="163" y="-127.6" font-family="Times,serif" font-size="14.00">AddToSavedCartModule</text>
</g>
<!-- AddToSavedCartComponent&#45;&gt;AddToSavedCartModule -->
<g id="edge1" class="edge">
<title>AddToSavedCartComponent&#45;&gt;AddToSavedCartModule</title>
<path fill="none" stroke="black" d="M236.06,-84.91C236.06,-84.91 236.06,-103.79 236.06,-103.79"/>
<polygon fill="black" stroke="black" points="232.56,-103.79 236.06,-113.79 239.56,-103.79 232.56,-103.79"/>
</g>
<!-- AddToSavedCartComponent  -->
<g id="node5" class="node">
<title>AddToSavedCartComponent </title>
<polygon fill="#fb8072" stroke="black" points="254.31,-214.8 71.69,-214.8 71.69,-178.8 254.31,-178.8 254.31,-214.8"/>
<text text-anchor="middle" x="163" y="-192.6" font-family="Times,serif" font-size="14.00">AddToSavedCartComponent </text>
</g>
<!-- AddToSavedCartModule&#45;&gt;AddToSavedCartComponent  -->
<g id="edge4" class="edge">
<title>AddToSavedCartModule&#45;&gt;AddToSavedCartComponent </title>
<path fill="none" stroke="black" stroke-dasharray="5,2" d="M163,-149.91C163,-149.91 163,-168.79 163,-168.79"/>
<polygon fill="black" stroke="black" points="159.5,-168.79 163,-178.79 166.5,-168.79 159.5,-168.79"/>
</g>
<!-- I18nModule -->
<g id="node3" class="node">
<title>I18nModule</title>
<polygon fill="#8dd3c7" stroke="black" points="205.71,-84.8 202.71,-88.8 181.71,-88.8 178.71,-84.8 120.29,-84.8 120.29,-48.8 205.71,-48.8 205.71,-84.8"/>
<text text-anchor="middle" x="163" y="-62.6" font-family="Times,serif" font-size="14.00">I18nModule</text>
</g>
<!-- I18nModule&#45;&gt;AddToSavedCartModule -->
<g id="edge2" class="edge">
<title>I18nModule&#45;&gt;AddToSavedCartModule</title>
<path fill="none" stroke="black" d="M163,-84.91C163,-84.91 163,-103.79 163,-103.79"/>
<polygon fill="black" stroke="black" points="159.5,-103.79 163,-113.79 166.5,-103.79 159.5,-103.79"/>
</g>
<!-- UrlModule -->
<g id="node4" class="node">
<title>UrlModule</title>
<polygon fill="#8dd3c7" stroke="black" points="102.21,-84.8 99.21,-88.8 78.21,-88.8 75.21,-84.8 23.79,-84.8 23.79,-48.8 102.21,-48.8 102.21,-84.8"/>
<text text-anchor="middle" x="63" y="-62.6" font-family="Times,serif" font-size="14.00">UrlModule</text>
</g>
<!-- UrlModule&#45;&gt;AddToSavedCartModule -->
<g id="edge3" class="edge">
<title>UrlModule&#45;&gt;AddToSavedCartModule</title>
<path fill="none" stroke="black" d="M93.17,-84.91C93.17,-84.91 93.17,-103.79 93.17,-103.79"/>
<polygon fill="black" stroke="black" points="89.67,-103.79 93.17,-113.79 96.67,-103.79 89.67,-103.79"/>
</g>
</g>
</svg>
