<?xml version="1.0" encoding="UTF-8" standalone="no"?>
<!DOCTYPE svg PUBLIC "-//W3C//DTD SVG 1.1//EN"
 "http://www.w3.org/Graphics/SVG/1.1/DTD/svg11.dtd">
<!-- Generated by graphviz version 5.0.0 (20220707.1540)
 -->
<!-- Title: dependencies Pages: 1 -->
<svg width="3181pt" height="247pt"
 viewBox="0.00 0.00 3181.00 246.80" xmlns="http://www.w3.org/2000/svg" xmlns:xlink="http://www.w3.org/1999/xlink">
<g id="graph0" class="graph" transform="scale(1 1) rotate(0) translate(4 242.8)">
<title>dependencies</title>
<polygon fill="white" stroke="transparent" points="-4,4 -4,-242.8 3177,-242.8 3177,4 -4,4"/>
<text text-anchor="middle" x="1586.5" y="-8.2" font-family="sans-serif" font-size="14.00">dependencies</text>
<g id="clust1" class="cluster">
<title>cluster_AsmComponentsModule</title>
<polygon fill="none" stroke="black" stroke-dasharray="1,5" points="8,-32.8 8,-230.8 3165,-230.8 3165,-32.8 8,-32.8"/>
</g>
<g id="clust2" class="cluster">
<title>cluster_AsmComponentsModule_declarations</title>
<polygon fill="none" stroke="black" points="1324,-40.8 1324,-92.8 3157,-92.8 3157,-40.8 1324,-40.8"/>
</g>
<g id="clust14" class="cluster">
<title>cluster_AsmComponentsModule_exports</title>
<polygon fill="none" stroke="black" points="483,-170.8 483,-222.8 2350,-222.8 2350,-170.8 483,-170.8"/>
</g>
<g id="clust13" class="cluster">
<title>cluster_AsmComponentsModule_imports</title>
<polygon fill="none" stroke="black" points="16,-40.8 16,-92.8 1316,-92.8 1316,-40.8 16,-40.8"/>
</g>
<!-- AsmBindCartComponent -->
<g id="node1" class="node">
<title>AsmBindCartComponent</title>
<polygon fill="#ffffb3" stroke="black" points="3148.61,-84.8 2989.39,-84.8 2989.39,-48.8 3148.61,-48.8 3148.61,-84.8"/>
<text text-anchor="middle" x="3069" y="-62.6" font-family="Times,serif" font-size="14.00">AsmBindCartComponent</text>
</g>
<!-- AsmComponentsModule -->
<g id="node11" class="node">
<title>AsmComponentsModule</title>
<polygon fill="#8dd3c7" stroke="black" points="1468.28,-149.8 1465.28,-153.8 1444.28,-153.8 1441.28,-149.8 1311.72,-149.8 1311.72,-113.8 1468.28,-113.8 1468.28,-149.8"/>
<text text-anchor="middle" x="1390" y="-127.6" font-family="Times,serif" font-size="14.00">AsmComponentsModule</text>
</g>
<!-- AsmBindCartComponent&#45;&gt;AsmComponentsModule -->
<g id="edge1" class="edge">
<title>AsmBindCartComponent&#45;&gt;AsmComponentsModule</title>
<path fill="none" stroke="black" d="M3069,-84.83C3069,-105.57 3069,-136.8 3069,-136.8 3069,-136.8 1478.45,-136.8 1478.45,-136.8"/>
<polygon fill="black" stroke="black" points="1478.45,-133.3 1468.45,-136.8 1478.45,-140.3 1478.45,-133.3"/>
</g>
<!-- AsmMainUiComponent -->
<g id="node2" class="node">
<title>AsmMainUiComponent</title>
<polygon fill="#ffffb3" stroke="black" points="2971.83,-84.8 2820.17,-84.8 2820.17,-48.8 2971.83,-48.8 2971.83,-84.8"/>
<text text-anchor="middle" x="2896" y="-62.6" font-family="Times,serif" font-size="14.00">AsmMainUiComponent</text>
</g>
<!-- AsmMainUiComponent&#45;&gt;AsmComponentsModule -->
<g id="edge2" class="edge">
<title>AsmMainUiComponent&#45;&gt;AsmComponentsModule</title>
<path fill="none" stroke="black" d="M2896,-85.11C2896,-104.95 2896,-133.8 2896,-133.8 2896,-133.8 1478.32,-133.8 1478.32,-133.8"/>
<polygon fill="black" stroke="black" points="1478.32,-130.3 1468.32,-133.8 1478.32,-137.3 1478.32,-130.3"/>
</g>
<!-- AsmSessionTimerComponent -->
<g id="node3" class="node">
<title>AsmSessionTimerComponent</title>
<polygon fill="#ffffb3" stroke="black" points="2802.27,-84.8 2617.73,-84.8 2617.73,-48.8 2802.27,-48.8 2802.27,-84.8"/>
<text text-anchor="middle" x="2710" y="-62.6" font-family="Times,serif" font-size="14.00">AsmSessionTimerComponent</text>
</g>
<!-- AsmSessionTimerComponent&#45;&gt;AsmComponentsModule -->
<g id="edge3" class="edge">
<title>AsmSessionTimerComponent&#45;&gt;AsmComponentsModule</title>
<path fill="none" stroke="black" d="M2710,-84.97C2710,-103.89 2710,-130.8 2710,-130.8 2710,-130.8 1478.62,-130.8 1478.62,-130.8"/>
<polygon fill="black" stroke="black" points="1478.62,-127.3 1468.62,-130.8 1478.62,-134.3 1478.62,-127.3"/>
</g>
<!-- AsmToggleUiComponent -->
<g id="node4" class="node">
<title>AsmToggleUiComponent</title>
<polygon fill="#ffffb3" stroke="black" points="2599.94,-84.8 2438.06,-84.8 2438.06,-48.8 2599.94,-48.8 2599.94,-84.8"/>
<text text-anchor="middle" x="2519" y="-62.6" font-family="Times,serif" font-size="14.00">AsmToggleUiComponent</text>
</g>
<!-- AsmToggleUiComponent&#45;&gt;AsmComponentsModule -->
<g id="edge4" class="edge">
<title>AsmToggleUiComponent&#45;&gt;AsmComponentsModule</title>
<path fill="none" stroke="black" d="M2519,-85.1C2519,-103.07 2519,-127.8 2519,-127.8 2519,-127.8 1478.49,-127.8 1478.49,-127.8"/>
<polygon fill="black" stroke="black" points="1478.49,-124.3 1468.49,-127.8 1478.49,-131.3 1478.49,-124.3"/>
</g>
<!-- CSAgentLoginFormComponent -->
<g id="node5" class="node">
<title>CSAgentLoginFormComponent</title>
<polygon fill="#ffffb3" stroke="black" points="2420.45,-84.8 2223.55,-84.8 2223.55,-48.8 2420.45,-48.8 2420.45,-84.8"/>
<text text-anchor="middle" x="2322" y="-62.6" font-family="Times,serif" font-size="14.00">CSAgentLoginFormComponent</text>
</g>
<!-- CSAgentLoginFormComponent&#45;&gt;AsmComponentsModule -->
<g id="edge5" class="edge">
<title>CSAgentLoginFormComponent&#45;&gt;AsmComponentsModule</title>
<path fill="none" stroke="black" d="M2283.04,-84.82C2283.04,-102.17 2283.04,-125.8 2283.04,-125.8 2283.04,-125.8 1478.47,-125.8 1478.47,-125.8"/>
<polygon fill="black" stroke="black" points="1478.47,-122.3 1468.47,-125.8 1478.47,-129.3 1478.47,-122.3"/>
</g>
<!-- CustomerEmulationComponent -->
<g id="node6" class="node">
<title>CustomerEmulationComponent</title>
<polygon fill="#ffffb3" stroke="black" points="2206.1,-84.8 2011.9,-84.8 2011.9,-48.8 2206.1,-48.8 2206.1,-84.8"/>
<text text-anchor="middle" x="2109" y="-62.6" font-family="Times,serif" font-size="14.00">CustomerEmulationComponent</text>
</g>
<!-- CustomerEmulationComponent&#45;&gt;AsmComponentsModule -->
<g id="edge6" class="edge">
<title>CustomerEmulationComponent&#45;&gt;AsmComponentsModule</title>
<path fill="none" stroke="black" d="M2061.77,-84.83C2061.77,-101.2 2061.77,-122.8 2061.77,-122.8 2061.77,-122.8 1478.38,-122.8 1478.38,-122.8"/>
<polygon fill="black" stroke="black" points="1478.38,-119.3 1468.38,-122.8 1478.38,-126.3 1478.38,-119.3"/>
</g>
<!-- CustomerListComponent -->
<g id="node7" class="node">
<title>CustomerListComponent</title>
<polygon fill="#ffffb3" stroke="black" points="1993.55,-84.8 1836.45,-84.8 1836.45,-48.8 1993.55,-48.8 1993.55,-84.8"/>
<text text-anchor="middle" x="1915" y="-62.6" font-family="Times,serif" font-size="14.00">CustomerListComponent</text>
</g>
<!-- CustomerListComponent&#45;&gt;AsmComponentsModule -->
<g id="edge7" class="edge">
<title>CustomerListComponent&#45;&gt;AsmComponentsModule</title>
<path fill="none" stroke="black" d="M1912.18,-85.04C1912.18,-100.37 1912.18,-119.8 1912.18,-119.8 1912.18,-119.8 1478.46,-119.8 1478.46,-119.8"/>
<polygon fill="black" stroke="black" points="1478.46,-116.3 1468.46,-119.8 1478.46,-123.3 1478.46,-116.3"/>
</g>
<!-- CustomerSelectionComponent -->
<g id="node8" class="node">
<title>CustomerSelectionComponent</title>
<polygon fill="#ffffb3" stroke="black" points="1817.87,-84.8 1630.13,-84.8 1630.13,-48.8 1817.87,-48.8 1817.87,-84.8"/>
<text text-anchor="middle" x="1724" y="-62.6" font-family="Times,serif" font-size="14.00">CustomerSelectionComponent</text>
</g>
<!-- CustomerSelectionComponent&#45;&gt;AsmComponentsModule -->
<g id="edge8" class="edge">
<title>CustomerSelectionComponent&#45;&gt;AsmComponentsModule</title>
<path fill="none" stroke="black" d="M1705.77,-84.85C1705.77,-99.17 1705.77,-116.8 1705.77,-116.8 1705.77,-116.8 1478.46,-116.8 1478.46,-116.8"/>
<polygon fill="black" stroke="black" points="1478.46,-113.3 1468.46,-116.8 1478.46,-120.3 1478.46,-113.3"/>
</g>
<!-- DotSpinnerComponent -->
<g id="node9" class="node">
<title>DotSpinnerComponent</title>
<polygon fill="#ffffb3" stroke="black" points="1611.88,-84.8 1466.12,-84.8 1466.12,-48.8 1611.88,-48.8 1611.88,-84.8"/>
<text text-anchor="middle" x="1539" y="-62.6" font-family="Times,serif" font-size="14.00">DotSpinnerComponent</text>
</g>
<!-- DotSpinnerComponent&#45;&gt;AsmComponentsModule -->
<g id="edge9" class="edge">
<title>DotSpinnerComponent&#45;&gt;AsmComponentsModule</title>
<path fill="none" stroke="black" d="M1466.01,-66.8C1460.43,-66.8 1456.91,-66.8 1456.91,-66.8 1456.91,-66.8 1456.91,-103.69 1456.91,-103.69"/>
<polygon fill="black" stroke="black" points="1453.41,-103.69 1456.91,-113.69 1460.41,-103.69 1453.41,-103.69"/>
</g>
<!-- FormatTimerPipe -->
<g id="node10" class="node">
<title>FormatTimerPipe</title>
<polygon fill="#ffffb3" stroke="black" points="1447.54,-84.8 1332.46,-84.8 1332.46,-48.8 1447.54,-48.8 1447.54,-84.8"/>
<text text-anchor="middle" x="1390" y="-62.6" font-family="Times,serif" font-size="14.00">FormatTimerPipe</text>
</g>
<!-- FormatTimerPipe&#45;&gt;AsmComponentsModule -->
<g id="edge10" class="edge">
<title>FormatTimerPipe&#45;&gt;AsmComponentsModule</title>
<path fill="none" stroke="black" d="M1390,-84.91C1390,-84.91 1390,-103.79 1390,-103.79"/>
<polygon fill="black" stroke="black" points="1386.5,-103.79 1390,-113.79 1393.5,-103.79 1386.5,-103.79"/>
</g>
<!-- AsmBindCartComponent  -->
<g id="node21" class="node">
<title>AsmBindCartComponent </title>
<polygon fill="#fb8072" stroke="black" points="2342.11,-214.8 2179.89,-214.8 2179.89,-178.8 2342.11,-178.8 2342.11,-214.8"/>
<text text-anchor="middle" x="2261" y="-192.6" font-family="Times,serif" font-size="14.00">AsmBindCartComponent </text>
</g>
<!-- AsmComponentsModule&#45;&gt;AsmBindCartComponent  -->
<g id="edge20" class="edge">
<title>AsmComponentsModule&#45;&gt;AsmBindCartComponent </title>
<path fill="none" stroke="black" stroke-dasharray="5,2" d="M1468.44,-138.8C1670.47,-138.8 2192.87,-138.8 2192.87,-138.8 2192.87,-138.8 2192.87,-168.77 2192.87,-168.77"/>
<polygon fill="black" stroke="black" points="2189.37,-168.77 2192.87,-178.77 2196.37,-168.77 2189.37,-168.77"/>
</g>
<!-- AsmMainUiComponent  -->
<g id="node22" class="node">
<title>AsmMainUiComponent </title>
<polygon fill="#fb8072" stroke="black" points="2161.33,-214.8 2006.67,-214.8 2006.67,-178.8 2161.33,-178.8 2161.33,-214.8"/>
<text text-anchor="middle" x="2084" y="-192.6" font-family="Times,serif" font-size="14.00">AsmMainUiComponent </text>
</g>
<!-- AsmComponentsModule&#45;&gt;AsmMainUiComponent  -->
<g id="edge21" class="edge">
<title>AsmComponentsModule&#45;&gt;AsmMainUiComponent </title>
<path fill="none" stroke="black" stroke-dasharray="5,2" d="M1468.6,-141.8C1655.62,-141.8 2111.59,-141.8 2111.59,-141.8 2111.59,-141.8 2111.59,-168.79 2111.59,-168.79"/>
<polygon fill="black" stroke="black" points="2108.09,-168.79 2111.59,-178.79 2115.09,-168.79 2108.09,-168.79"/>
</g>
<!-- AsmSessionTimerComponent  -->
<g id="node23" class="node">
<title>AsmSessionTimerComponent </title>
<polygon fill="#fb8072" stroke="black" points="1988.27,-214.8 1799.73,-214.8 1799.73,-178.8 1988.27,-178.8 1988.27,-214.8"/>
<text text-anchor="middle" x="1894" y="-192.6" font-family="Times,serif" font-size="14.00">AsmSessionTimerComponent </text>
</g>
<!-- AsmComponentsModule&#45;&gt;AsmSessionTimerComponent  -->
<g id="edge22" class="edge">
<title>AsmComponentsModule&#45;&gt;AsmSessionTimerComponent </title>
<path fill="none" stroke="black" stroke-dasharray="5,2" d="M1468.3,-144.8C1589.54,-144.8 1808.9,-144.8 1808.9,-144.8 1808.9,-144.8 1808.9,-168.61 1808.9,-168.61"/>
<polygon fill="black" stroke="black" points="1805.4,-168.61 1808.9,-178.61 1812.4,-168.61 1805.4,-168.61"/>
</g>
<!-- AsmToggleUiComponent  -->
<g id="node24" class="node">
<title>AsmToggleUiComponent </title>
<polygon fill="#fb8072" stroke="black" points="1781.43,-214.8 1616.57,-214.8 1616.57,-178.8 1781.43,-178.8 1781.43,-214.8"/>
<text text-anchor="middle" x="1699" y="-192.6" font-family="Times,serif" font-size="14.00">AsmToggleUiComponent </text>
</g>
<!-- AsmComponentsModule&#45;&gt;AsmToggleUiComponent  -->
<g id="edge23" class="edge">
<title>AsmComponentsModule&#45;&gt;AsmToggleUiComponent </title>
<path fill="none" stroke="black" stroke-dasharray="5,2" d="M1468.33,-147.8C1536.11,-147.8 1623.3,-147.8 1623.3,-147.8 1623.3,-147.8 1623.3,-168.55 1623.3,-168.55"/>
<polygon fill="black" stroke="black" points="1619.8,-168.55 1623.3,-178.55 1626.8,-168.55 1619.8,-168.55"/>
</g>
<!-- CSAgentLoginFormComponent  -->
<g id="node25" class="node">
<title>CSAgentLoginFormComponent </title>
<polygon fill="#fb8072" stroke="black" points="1598.95,-214.8 1399.05,-214.8 1399.05,-178.8 1598.95,-178.8 1598.95,-214.8"/>
<text text-anchor="middle" x="1499" y="-192.6" font-family="Times,serif" font-size="14.00">CSAgentLoginFormComponent </text>
</g>
<!-- AsmComponentsModule&#45;&gt;CSAgentLoginFormComponent  -->
<g id="edge24" class="edge">
<title>AsmComponentsModule&#45;&gt;CSAgentLoginFormComponent </title>
<path fill="none" stroke="black" stroke-dasharray="5,2" d="M1433.71,-149.91C1433.71,-149.91 1433.71,-168.79 1433.71,-168.79"/>
<polygon fill="black" stroke="black" points="1430.21,-168.79 1433.71,-178.79 1437.21,-168.79 1430.21,-168.79"/>
</g>
<!-- CustomerEmulationComponent  -->
<g id="node26" class="node">
<title>CustomerEmulationComponent </title>
<polygon fill="#fb8072" stroke="black" points="1380.6,-214.8 1183.4,-214.8 1183.4,-178.8 1380.6,-178.8 1380.6,-214.8"/>
<text text-anchor="middle" x="1282" y="-192.6" font-family="Times,serif" font-size="14.00">CustomerEmulationComponent </text>
</g>
<!-- AsmComponentsModule&#45;&gt;CustomerEmulationComponent  -->
<g id="edge25" class="edge">
<title>AsmComponentsModule&#45;&gt;CustomerEmulationComponent </title>
<path fill="none" stroke="black" stroke-dasharray="5,2" d="M1346.2,-149.91C1346.2,-149.91 1346.2,-168.79 1346.2,-168.79"/>
<polygon fill="black" stroke="black" points="1342.7,-168.79 1346.2,-178.79 1349.7,-168.79 1342.7,-168.79"/>
</g>
<!-- CustomerListComponent  -->
<g id="node27" class="node">
<title>CustomerListComponent </title>
<polygon fill="#fb8072" stroke="black" points="1165.55,-214.8 1004.45,-214.8 1004.45,-178.8 1165.55,-178.8 1165.55,-214.8"/>
<text text-anchor="middle" x="1085" y="-192.6" font-family="Times,serif" font-size="14.00">CustomerListComponent </text>
</g>
<!-- AsmComponentsModule&#45;&gt;CustomerListComponent  -->
<g id="edge26" class="edge">
<title>AsmComponentsModule&#45;&gt;CustomerListComponent </title>
<path fill="none" stroke="black" stroke-dasharray="5,2" d="M1311.5,-147.8C1242.58,-147.8 1153.25,-147.8 1153.25,-147.8 1153.25,-147.8 1153.25,-168.55 1153.25,-168.55"/>
<polygon fill="black" stroke="black" points="1149.75,-168.55 1153.25,-178.55 1156.75,-168.55 1149.75,-168.55"/>
</g>
<!-- CustomerSelectionComponent  -->
<g id="node28" class="node">
<title>CustomerSelectionComponent </title>
<polygon fill="#fb8072" stroke="black" points="986.87,-214.8 795.13,-214.8 795.13,-178.8 986.87,-178.8 986.87,-214.8"/>
<text text-anchor="middle" x="891" y="-192.6" font-family="Times,serif" font-size="14.00">CustomerSelectionComponent </text>
</g>
<!-- AsmComponentsModule&#45;&gt;CustomerSelectionComponent  -->
<g id="edge27" class="edge">
<title>AsmComponentsModule&#45;&gt;CustomerSelectionComponent </title>
<path fill="none" stroke="black" stroke-dasharray="5,2" d="M1311.61,-144.8C1185.49,-144.8 951.54,-144.8 951.54,-144.8 951.54,-144.8 951.54,-168.61 951.54,-168.61"/>
<polygon fill="black" stroke="black" points="948.04,-168.61 951.54,-178.61 955.04,-168.61 948.04,-168.61"/>
</g>
<!-- DotSpinnerComponent  -->
<g id="node29" class="node">
<title>DotSpinnerComponent </title>
<polygon fill="#fb8072" stroke="black" points="777.88,-214.8 628.12,-214.8 628.12,-178.8 777.88,-178.8 777.88,-214.8"/>
<text text-anchor="middle" x="703" y="-192.6" font-family="Times,serif" font-size="14.00">DotSpinnerComponent </text>
</g>
<!-- AsmComponentsModule&#45;&gt;DotSpinnerComponent  -->
<g id="edge28" class="edge">
<title>AsmComponentsModule&#45;&gt;DotSpinnerComponent </title>
<path fill="none" stroke="black" stroke-dasharray="5,2" d="M1311.65,-141.8C1133.39,-141.8 712.8,-141.8 712.8,-141.8 712.8,-141.8 712.8,-168.79 712.8,-168.79"/>
<polygon fill="black" stroke="black" points="709.3,-168.79 712.8,-178.79 716.3,-168.79 709.3,-168.79"/>
</g>
<!-- FormatTimerPipe  -->
<g id="node30" class="node">
<title>FormatTimerPipe </title>
<polygon fill="#fb8072" stroke="black" points="610.54,-214.8 491.46,-214.8 491.46,-178.8 610.54,-178.8 610.54,-214.8"/>
<text text-anchor="middle" x="551" y="-192.6" font-family="Times,serif" font-size="14.00">FormatTimerPipe </text>
</g>
<!-- AsmComponentsModule&#45;&gt;FormatTimerPipe  -->
<g id="edge29" class="edge">
<title>AsmComponentsModule&#45;&gt;FormatTimerPipe </title>
<path fill="none" stroke="black" stroke-dasharray="5,2" d="M1311.45,-138.8C1102.88,-138.8 551,-138.8 551,-138.8 551,-138.8 551,-168.77 551,-168.77"/>
<polygon fill="black" stroke="black" points="547.5,-168.77 551,-178.77 554.5,-168.77 547.5,-168.77"/>
</g>
<!-- FeaturesConfigModule -->
<g id="node12" class="node">
<title>FeaturesConfigModule</title>
<polygon fill="#8dd3c7" stroke="black" points="1307.87,-84.8 1304.87,-88.8 1283.87,-88.8 1280.87,-84.8 1162.13,-84.8 1162.13,-48.8 1307.87,-48.8 1307.87,-84.8"/>
<text text-anchor="middle" x="1235" y="-62.6" font-family="Times,serif" font-size="14.00">FeaturesConfigModule</text>
</g>
<!-- FeaturesConfigModule&#45;&gt;AsmComponentsModule -->
<g id="edge11" class="edge">
<title>FeaturesConfigModule&#45;&gt;AsmComponentsModule</title>
<path fill="none" stroke="black" d="M1307.96,-66.8C1316.32,-66.8 1321.92,-66.8 1321.92,-66.8 1321.92,-66.8 1321.92,-103.69 1321.92,-103.69"/>
<polygon fill="black" stroke="black" points="1318.42,-103.69 1321.92,-113.69 1325.42,-103.69 1318.42,-103.69"/>
</g>
<!-- FormErrorsModule -->
<g id="node13" class="node">
<title>FormErrorsModule</title>
<polygon fill="#8dd3c7" stroke="black" points="1144.38,-84.8 1141.38,-88.8 1120.38,-88.8 1117.38,-84.8 1019.62,-84.8 1019.62,-48.8 1144.38,-48.8 1144.38,-84.8"/>
<text text-anchor="middle" x="1082" y="-62.6" font-family="Times,serif" font-size="14.00">FormErrorsModule</text>
</g>
<!-- FormErrorsModule&#45;&gt;AsmComponentsModule -->
<g id="edge12" class="edge">
<title>FormErrorsModule&#45;&gt;AsmComponentsModule</title>
<path fill="none" stroke="black" d="M1082,-84.85C1082,-99.17 1082,-116.8 1082,-116.8 1082,-116.8 1301.48,-116.8 1301.48,-116.8"/>
<polygon fill="black" stroke="black" points="1301.48,-120.3 1311.48,-116.8 1301.48,-113.3 1301.48,-120.3"/>
</g>
<!-- I18nModule -->
<g id="node14" class="node">
<title>I18nModule</title>
<polygon fill="#8dd3c7" stroke="black" points="1001.71,-84.8 998.71,-88.8 977.71,-88.8 974.71,-84.8 916.29,-84.8 916.29,-48.8 1001.71,-48.8 1001.71,-84.8"/>
<text text-anchor="middle" x="959" y="-62.6" font-family="Times,serif" font-size="14.00">I18nModule</text>
</g>
<!-- I18nModule&#45;&gt;AsmComponentsModule -->
<g id="edge13" class="edge">
<title>I18nModule&#45;&gt;AsmComponentsModule</title>
<path fill="none" stroke="black" d="M994.15,-85.04C994.15,-100.37 994.15,-119.8 994.15,-119.8 994.15,-119.8 1301.32,-119.8 1301.32,-119.8"/>
<polygon fill="black" stroke="black" points="1301.32,-123.3 1311.32,-119.8 1301.32,-116.3 1301.32,-123.3"/>
</g>
<!-- IconModule -->
<g id="node15" class="node">
<title>IconModule</title>
<polygon fill="#8dd3c7" stroke="black" points="898.43,-84.8 895.43,-88.8 874.43,-88.8 871.43,-84.8 813.57,-84.8 813.57,-48.8 898.43,-48.8 898.43,-84.8"/>
<text text-anchor="middle" x="856" y="-62.6" font-family="Times,serif" font-size="14.00">IconModule</text>
</g>
<!-- IconModule&#45;&gt;AsmComponentsModule -->
<g id="edge14" class="edge">
<title>IconModule&#45;&gt;AsmComponentsModule</title>
<path fill="none" stroke="black" d="M856,-84.83C856,-101.2 856,-122.8 856,-122.8 856,-122.8 1301.49,-122.8 1301.49,-122.8"/>
<polygon fill="black" stroke="black" points="1301.49,-126.3 1311.49,-122.8 1301.49,-119.3 1301.49,-126.3"/>
</g>
<!-- KeyboardFocusModule -->
<g id="node16" class="node">
<title>KeyboardFocusModule</title>
<polygon fill="#8dd3c7" stroke="black" points="796.2,-84.8 793.2,-88.8 772.2,-88.8 769.2,-84.8 647.8,-84.8 647.8,-48.8 796.2,-48.8 796.2,-84.8"/>
<text text-anchor="middle" x="722" y="-62.6" font-family="Times,serif" font-size="14.00">KeyboardFocusModule</text>
</g>
<!-- KeyboardFocusModule&#45;&gt;AsmComponentsModule -->
<g id="edge15" class="edge">
<title>KeyboardFocusModule&#45;&gt;AsmComponentsModule</title>
<path fill="none" stroke="black" d="M786.5,-84.82C786.5,-102.17 786.5,-125.8 786.5,-125.8 786.5,-125.8 1301.41,-125.8 1301.41,-125.8"/>
<polygon fill="black" stroke="black" points="1301.41,-129.3 1311.41,-125.8 1301.41,-122.3 1301.41,-129.3"/>
</g>
<!-- NgSelectA11yModule -->
<g id="node17" class="node">
<title>NgSelectA11yModule</title>
<polygon fill="#8dd3c7" stroke="black" points="629.98,-84.8 626.98,-88.8 605.98,-88.8 602.98,-84.8 488.02,-84.8 488.02,-48.8 629.98,-48.8 629.98,-84.8"/>
<text text-anchor="middle" x="559" y="-62.6" font-family="Times,serif" font-size="14.00">NgSelectA11yModule</text>
</g>
<!-- NgSelectA11yModule&#45;&gt;AsmComponentsModule -->
<g id="edge16" class="edge">
<title>NgSelectA11yModule&#45;&gt;AsmComponentsModule</title>
<path fill="none" stroke="black" d="M619.41,-85.1C619.41,-103.07 619.41,-127.8 619.41,-127.8 619.41,-127.8 1301.51,-127.8 1301.51,-127.8"/>
<polygon fill="black" stroke="black" points="1301.51,-131.3 1311.51,-127.8 1301.51,-124.3 1301.51,-131.3"/>
</g>
<!-- PasswordVisibilityToggleModule -->
<g id="node18" class="node">
<title>PasswordVisibilityToggleModule</title>
<polygon fill="#8dd3c7" stroke="black" points="469.77,-84.8 466.77,-88.8 445.77,-88.8 442.77,-84.8 264.23,-84.8 264.23,-48.8 469.77,-48.8 469.77,-84.8"/>
<text text-anchor="middle" x="367" y="-62.6" font-family="Times,serif" font-size="14.00">PasswordVisibilityToggleModule</text>
</g>
<!-- PasswordVisibilityToggleModule&#45;&gt;AsmComponentsModule -->
<g id="edge17" class="edge">
<title>PasswordVisibilityToggleModule&#45;&gt;AsmComponentsModule</title>
<path fill="none" stroke="black" d="M367,-84.97C367,-103.89 367,-130.8 367,-130.8 367,-130.8 1301.43,-130.8 1301.43,-130.8"/>
<polygon fill="black" stroke="black" points="1301.43,-134.3 1311.43,-130.8 1301.43,-127.3 1301.43,-134.3"/>
</g>
<!-- SortingModule -->
<g id="node19" class="node">
<title>SortingModule</title>
<polygon fill="#8dd3c7" stroke="black" points="246.28,-84.8 243.28,-88.8 222.28,-88.8 219.28,-84.8 145.72,-84.8 145.72,-48.8 246.28,-48.8 246.28,-84.8"/>
<text text-anchor="middle" x="196" y="-62.6" font-family="Times,serif" font-size="14.00">SortingModule</text>
</g>
<!-- SortingModule&#45;&gt;AsmComponentsModule -->
<g id="edge18" class="edge">
<title>SortingModule&#45;&gt;AsmComponentsModule</title>
<path fill="none" stroke="black" d="M196,-85.11C196,-104.95 196,-133.8 196,-133.8 196,-133.8 1301.66,-133.8 1301.66,-133.8"/>
<polygon fill="black" stroke="black" points="1301.66,-137.3 1311.66,-133.8 1301.66,-130.3 1301.66,-137.3"/>
</g>
<!-- SpinnerModule -->
<g id="node20" class="node">
<title>SpinnerModule</title>
<polygon fill="#8dd3c7" stroke="black" points="127.6,-84.8 124.6,-88.8 103.6,-88.8 100.6,-84.8 24.4,-84.8 24.4,-48.8 127.6,-48.8 127.6,-84.8"/>
<text text-anchor="middle" x="76" y="-62.6" font-family="Times,serif" font-size="14.00">SpinnerModule</text>
</g>
<!-- SpinnerModule&#45;&gt;AsmComponentsModule -->
<g id="edge19" class="edge">
<title>SpinnerModule&#45;&gt;AsmComponentsModule</title>
<path fill="none" stroke="black" d="M76,-84.83C76,-105.57 76,-136.8 76,-136.8 76,-136.8 1301.25,-136.8 1301.25,-136.8"/>
<polygon fill="black" stroke="black" points="1301.25,-140.3 1311.25,-136.8 1301.25,-133.3 1301.25,-140.3"/>
</g>
</g>
</svg>
