<?xml version="1.0" encoding="UTF-8" standalone="no"?>
<!DOCTYPE svg PUBLIC "-//W3C//DTD SVG 1.1//EN"
 "http://www.w3.org/Graphics/SVG/1.1/DTD/svg11.dtd">
<!-- Generated by graphviz version 5.0.0 (20220707.1540)
 -->
<!-- Title: dependencies Pages: 1 -->
<svg width="780pt" height="174pt"
 viewBox="0.00 0.00 780.00 173.80" xmlns="http://www.w3.org/2000/svg" xmlns:xlink="http://www.w3.org/1999/xlink">
<g id="graph0" class="graph" transform="scale(1 1) rotate(0) translate(4 169.8)">
<title>dependencies</title>
<polygon fill="white" stroke="transparent" points="-4,4 -4,-169.8 776,-169.8 776,4 -4,4"/>
<text text-anchor="middle" x="386" y="-8.2" font-family="sans-serif" font-size="14.00">dependencies</text>
<g id="clust1" class="cluster">
<title>cluster_AsmCoreModule</title>
<polygon fill="none" stroke="black" stroke-dasharray="1,5" points="8,-32.8 8,-157.8 764,-157.8 764,-32.8 8,-32.8"/>
</g>
<g id="clust6" class="cluster">
<title>cluster_AsmCoreModule_providers</title>
<polygon fill="none" stroke="black" points="156,-40.8 156,-92.8 756,-92.8 756,-40.8 156,-40.8"/>
</g>
<g id="clust3" class="cluster">
<title>cluster_AsmCoreModule_imports</title>
<polygon fill="none" stroke="black" points="16,-40.8 16,-92.8 148,-92.8 148,-40.8 16,-40.8"/>
</g>
<!-- AsmStoreModule -->
<g id="node1" class="node">
<title>AsmStoreModule</title>
<polygon fill="#8dd3c7" stroke="black" points="139.55,-84.8 136.55,-88.8 115.55,-88.8 112.55,-84.8 24.45,-84.8 24.45,-48.8 139.55,-48.8 139.55,-84.8"/>
<text text-anchor="middle" x="82" y="-62.6" font-family="Times,serif" font-size="14.00">AsmStoreModule</text>
</g>
<!-- AsmCoreModule -->
<g id="node2" class="node">
<title>AsmCoreModule</title>
<polygon fill="#8dd3c7" stroke="black" points="430.71,-149.8 427.71,-153.8 406.71,-153.8 403.71,-149.8 317.29,-149.8 317.29,-113.8 430.71,-113.8 430.71,-149.8"/>
<text text-anchor="middle" x="374" y="-127.6" font-family="Times,serif" font-size="14.00">AsmCoreModule</text>
</g>
<!-- AsmStoreModule&#45;&gt;AsmCoreModule -->
<g id="edge1" class="edge">
<title>AsmStoreModule&#45;&gt;AsmCoreModule</title>
<path fill="none" stroke="black" d="M82,-84.91C82,-104.14 82,-131.8 82,-131.8 82,-131.8 307.35,-131.8 307.35,-131.8"/>
<polygon fill="black" stroke="black" points="307.35,-135.3 317.35,-131.8 307.35,-128.3 307.35,-135.3"/>
</g>
<!-- AsmBindCartService -->
<g id="node3" class="node">
<title>AsmBindCartService</title>
<ellipse fill="#fdb462" stroke="black" cx="654" cy="-66.8" rx="93.79" ry="18"/>
<text text-anchor="middle" x="654" y="-62.6" font-family="Times,serif" font-size="14.00">AsmBindCartService</text>
</g>
<!-- AsmBindCartService&#45;&gt;AsmCoreModule -->
<g id="edge2" class="edge">
<title>AsmBindCartService&#45;&gt;AsmCoreModule</title>
<path fill="none" stroke="black" d="M654,-84.91C654,-104.14 654,-131.8 654,-131.8 654,-131.8 440.66,-131.8 440.66,-131.8"/>
<polygon fill="black" stroke="black" points="440.66,-128.3 430.66,-131.8 440.66,-135.3 440.66,-128.3"/>
</g>
<!-- AsmConnector -->
<g id="node4" class="node">
<title>AsmConnector</title>
<ellipse fill="#fdb462" stroke="black" cx="473" cy="-66.8" rx="69.51" ry="18"/>
<text text-anchor="middle" x="473" y="-62.6" font-family="Times,serif" font-size="14.00">AsmConnector</text>
</g>
<!-- AsmConnector&#45;&gt;AsmCoreModule -->
<g id="edge3" class="edge">
<title>AsmConnector&#45;&gt;AsmCoreModule</title>
<path fill="none" stroke="black" d="M417.05,-77.53C417.05,-77.53 417.05,-103.67 417.05,-103.67"/>
<polygon fill="black" stroke="black" points="413.55,-103.67 417.05,-113.67 420.55,-103.67 413.55,-103.67"/>
</g>
<!-- AsmCustomerListService -->
<g id="node5" class="node">
<title>AsmCustomerListService</title>
<ellipse fill="#fdb462" stroke="black" cx="275" cy="-66.8" rx="110.63" ry="18"/>
<text text-anchor="middle" x="275" y="-62.6" font-family="Times,serif" font-size="14.00">AsmCustomerListService</text>
</g>
<!-- AsmCustomerListService&#45;&gt;AsmCoreModule -->
<g id="edge4" class="edge">
<title>AsmCustomerListService&#45;&gt;AsmCoreModule</title>
<path fill="none" stroke="black" d="M351.6,-79.95C351.6,-79.95 351.6,-103.49 351.6,-103.49"/>
<polygon fill="black" stroke="black" points="348.1,-103.49 351.6,-113.49 355.1,-103.49 348.1,-103.49"/>
</g>
</g>
</svg>
