<?xml version="1.0" encoding="UTF-8" standalone="no"?>
<!DOCTYPE svg PUBLIC "-//W3C//DTD SVG 1.1//EN"
 "http://www.w3.org/Graphics/SVG/1.1/DTD/svg11.dtd">
<!-- Generated by graphviz version 5.0.0 (20220707.1540)
 -->
<!-- Title: dependencies Pages: 1 -->
<svg width="780pt" height="174pt"
 viewBox="0.00 0.00 780.00 173.80" xmlns="http://www.w3.org/2000/svg" xmlns:xlink="http://www.w3.org/1999/xlink">
<g id="graph0" class="graph" transform="scale(1 1) rotate(0) translate(4 169.8)">
<title>dependencies</title>
<polygon fill="white" stroke="transparent" points="-4,4 -4,-169.8 776,-169.8 776,4 -4,4"/>
<text text-anchor="middle" x="386" y="-8.2" font-family="sans-serif" font-size="14.00">dependencies</text>
<g id="clust1" class="cluster">
<title>cluster_AsmCoreModule</title>
<polygon fill="none" stroke="black" stroke-dasharray="1,5" points="8,-32.8 8,-157.8 764,-157.8 764,-32.8 8,-32.8"/>
</g>
<g id="clust3" class="cluster">
<title>cluster_AsmCoreModule_imports</title>
<polygon fill="none" stroke="black" points="624,-40.8 624,-92.8 756,-92.8 756,-40.8 624,-40.8"/>
</g>
<g id="clust6" class="cluster">
<title>cluster_AsmCoreModule_providers</title>
<polygon fill="none" stroke="black" points="16,-40.8 16,-92.8 616,-92.8 616,-40.8 16,-40.8"/>
</g>
<!-- AsmStoreModule -->
<g id="node1" class="node">
<title>AsmStoreModule</title>
<polygon fill="#8dd3c7" stroke="black" points="747.55,-84.8 744.55,-88.8 723.55,-88.8 720.55,-84.8 632.45,-84.8 632.45,-48.8 747.55,-48.8 747.55,-84.8"/>
<text text-anchor="middle" x="690" y="-62.6" font-family="Times,serif" font-size="14.00">AsmStoreModule</text>
</g>
<!-- AsmCoreModule -->
<g id="node2" class="node">
<title>AsmCoreModule</title>
<polygon fill="#8dd3c7" stroke="black" points="479.71,-149.8 476.71,-153.8 455.71,-153.8 452.71,-149.8 366.29,-149.8 366.29,-113.8 479.71,-113.8 479.71,-149.8"/>
<text text-anchor="middle" x="423" y="-127.6" font-family="Times,serif" font-size="14.00">AsmCoreModule</text>
</g>
<!-- AsmStoreModule&#45;&gt;AsmCoreModule -->
<g id="edge1" class="edge">
<title>AsmStoreModule&#45;&gt;AsmCoreModule</title>
<path fill="none" stroke="black" d="M690,-84.91C690,-104.14 690,-131.8 690,-131.8 690,-131.8 489.62,-131.8 489.62,-131.8"/>
<polygon fill="black" stroke="black" points="489.62,-128.3 479.62,-131.8 489.62,-135.3 489.62,-128.3"/>
</g>
<!-- AsmBindCartService -->
<g id="node3" class="node">
<title>AsmBindCartService</title>
<ellipse fill="#fdb462" stroke="black" cx="514" cy="-66.8" rx="93.79" ry="18"/>
<text text-anchor="middle" x="514" y="-62.6" font-family="Times,serif" font-size="14.00">AsmBindCartService</text>
</g>
<!-- AsmBindCartService&#45;&gt;AsmCoreModule -->
<g id="edge2" class="edge">
<title>AsmBindCartService&#45;&gt;AsmCoreModule</title>
<path fill="none" stroke="black" d="M449.98,-79.95C449.98,-79.95 449.98,-103.49 449.98,-103.49"/>
<polygon fill="black" stroke="black" points="446.48,-103.49 449.98,-113.49 453.48,-103.49 446.48,-103.49"/>
</g>
<!-- AsmConnector -->
<g id="node4" class="node">
<title>AsmConnector</title>
<ellipse fill="#fdb462" stroke="black" cx="333" cy="-66.8" rx="69.51" ry="18"/>
<text text-anchor="middle" x="333" y="-62.6" font-family="Times,serif" font-size="14.00">AsmConnector</text>
</g>
<!-- AsmConnector&#45;&gt;AsmCoreModule -->
<g id="edge3" class="edge">
<title>AsmConnector&#45;&gt;AsmCoreModule</title>
<path fill="none" stroke="black" d="M384.45,-79.03C384.45,-79.03 384.45,-103.48 384.45,-103.48"/>
<polygon fill="black" stroke="black" points="380.95,-103.48 384.45,-113.48 387.95,-103.48 380.95,-103.48"/>
</g>
<!-- AsmCustomerListService -->
<g id="node5" class="node">
<title>AsmCustomerListService</title>
<ellipse fill="#fdb462" stroke="black" cx="135" cy="-66.8" rx="110.63" ry="18"/>
<text text-anchor="middle" x="135" y="-62.6" font-family="Times,serif" font-size="14.00">AsmCustomerListService</text>
</g>
<!-- AsmCustomerListService&#45;&gt;AsmCoreModule -->
<g id="edge4" class="edge">
<title>AsmCustomerListService&#45;&gt;AsmCoreModule</title>
<path fill="none" stroke="black" d="M135,-84.91C135,-104.14 135,-131.8 135,-131.8 135,-131.8 356.1,-131.8 356.1,-131.8"/>
<polygon fill="black" stroke="black" points="356.1,-135.3 366.1,-131.8 356.1,-128.3 356.1,-135.3"/>
</g>
</g>
</svg>
