<?xml version="1.0" encoding="UTF-8" standalone="no"?>
<!DOCTYPE svg PUBLIC "-//W3C//DTD SVG 1.1//EN"
 "http://www.w3.org/Graphics/SVG/1.1/DTD/svg11.dtd">
<!-- Generated by graphviz version 5.0.0 (20220707.1540)
 -->
<!-- Title: dependencies Pages: 1 -->
<svg width="838pt" height="247pt"
 viewBox="0.00 0.00 838.00 246.80" xmlns="http://www.w3.org/2000/svg" xmlns:xlink="http://www.w3.org/1999/xlink">
<g id="graph0" class="graph" transform="scale(1 1) rotate(0) translate(4 242.8)">
<title>dependencies</title>
<polygon fill="white" stroke="transparent" points="-4,4 -4,-242.8 834,-242.8 834,4 -4,4"/>
<text text-anchor="middle" x="415" y="-8.2" font-family="sans-serif" font-size="14.00">dependencies</text>
<g id="clust1" class="cluster">
<title>cluster_ConsentManagementModule</title>
<polygon fill="none" stroke="black" stroke-dasharray="1,5" points="8,-32.8 8,-230.8 822,-230.8 822,-32.8 8,-32.8"/>
</g>
<g id="clust6" class="cluster">
<title>cluster_ConsentManagementModule_exports</title>
<polygon fill="none" stroke="black" points="264,-170.8 264,-222.8 736,-222.8 736,-170.8 264,-170.8"/>
</g>
<g id="clust5" class="cluster">
<title>cluster_ConsentManagementModule_imports</title>
<polygon fill="none" stroke="black" points="488,-40.8 488,-92.8 814,-92.8 814,-40.8 488,-40.8"/>
</g>
<g id="clust2" class="cluster">
<title>cluster_ConsentManagementModule_declarations</title>
<polygon fill="none" stroke="black" points="16,-40.8 16,-92.8 480,-92.8 480,-40.8 16,-40.8"/>
</g>
<!-- ConsentManagementComponent -->
<g id="node1" class="node">
<title>ConsentManagementComponent</title>
<polygon fill="#ffffb3" stroke="black" points="472.3,-84.8 271.7,-84.8 271.7,-48.8 472.3,-48.8 472.3,-84.8"/>
<text text-anchor="middle" x="372" y="-62.6" font-family="Times,serif" font-size="14.00">ConsentManagementComponent</text>
</g>
<!-- ConsentManagementModule -->
<g id="node3" class="node">
<title>ConsentManagementModule</title>
<polygon fill="#8dd3c7" stroke="black" points="637.03,-149.8 634.03,-153.8 613.03,-153.8 610.03,-149.8 458.97,-149.8 458.97,-113.8 637.03,-113.8 637.03,-149.8"/>
<text text-anchor="middle" x="548" y="-127.6" font-family="Times,serif" font-size="14.00">ConsentManagementModule</text>
</g>
<!-- ConsentManagementComponent&#45;&gt;ConsentManagementModule -->
<g id="edge1" class="edge">
<title>ConsentManagementComponent&#45;&gt;ConsentManagementModule</title>
<path fill="none" stroke="black" d="M465.44,-84.91C465.44,-84.91 465.44,-103.79 465.44,-103.79"/>
<polygon fill="black" stroke="black" points="461.94,-103.79 465.44,-113.79 468.94,-103.79 461.94,-103.79"/>
</g>
<!-- ConsentManagementFormComponent -->
<g id="node2" class="node">
<title>ConsentManagementFormComponent</title>
<polygon fill="#ffffb3" stroke="black" points="254.14,-84.8 23.86,-84.8 23.86,-48.8 254.14,-48.8 254.14,-84.8"/>
<text text-anchor="middle" x="139" y="-62.6" font-family="Times,serif" font-size="14.00">ConsentManagementFormComponent</text>
</g>
<!-- ConsentManagementFormComponent&#45;&gt;ConsentManagementModule -->
<g id="edge2" class="edge">
<title>ConsentManagementFormComponent&#45;&gt;ConsentManagementModule</title>
<path fill="none" stroke="black" d="M139,-84.91C139,-104.14 139,-131.8 139,-131.8 139,-131.8 448.75,-131.8 448.75,-131.8"/>
<polygon fill="black" stroke="black" points="448.75,-135.3 458.75,-131.8 448.75,-128.3 448.75,-135.3"/>
</g>
<!-- ConsentManagementComponent  -->
<g id="node7" class="node">
<title>ConsentManagementComponent </title>
<polygon fill="#fb8072" stroke="black" points="727.8,-214.8 524.2,-214.8 524.2,-178.8 727.8,-178.8 727.8,-214.8"/>
<text text-anchor="middle" x="626" y="-192.6" font-family="Times,serif" font-size="14.00">ConsentManagementComponent </text>
</g>
<!-- ConsentManagementModule&#45;&gt;ConsentManagementComponent  -->
<g id="edge6" class="edge">
<title>ConsentManagementModule&#45;&gt;ConsentManagementComponent </title>
<path fill="none" stroke="black" stroke-dasharray="5,2" d="M580.68,-149.91C580.68,-149.91 580.68,-168.79 580.68,-168.79"/>
<polygon fill="black" stroke="black" points="577.18,-168.79 580.68,-178.79 584.18,-168.79 577.18,-168.79"/>
</g>
<!-- ConsentManagementFormComponent  -->
<g id="node8" class="node">
<title>ConsentManagementFormComponent </title>
<polygon fill="#fb8072" stroke="black" points="506.14,-214.8 271.86,-214.8 271.86,-178.8 506.14,-178.8 506.14,-214.8"/>
<text text-anchor="middle" x="389" y="-192.6" font-family="Times,serif" font-size="14.00">ConsentManagementFormComponent </text>
</g>
<!-- ConsentManagementModule&#45;&gt;ConsentManagementFormComponent  -->
<g id="edge7" class="edge">
<title>ConsentManagementModule&#45;&gt;ConsentManagementFormComponent </title>
<path fill="none" stroke="black" stroke-dasharray="5,2" d="M482.4,-149.91C482.4,-149.91 482.4,-168.79 482.4,-168.79"/>
<polygon fill="black" stroke="black" points="478.9,-168.79 482.4,-178.79 485.9,-168.79 478.9,-168.79"/>
</g>
<!-- I18nModule -->
<g id="node4" class="node">
<title>I18nModule</title>
<polygon fill="#8dd3c7" stroke="black" points="805.71,-84.8 802.71,-88.8 781.71,-88.8 778.71,-84.8 720.29,-84.8 720.29,-48.8 805.71,-48.8 805.71,-84.8"/>
<text text-anchor="middle" x="763" y="-62.6" font-family="Times,serif" font-size="14.00">I18nModule</text>
</g>
<!-- I18nModule&#45;&gt;ConsentManagementModule -->
<g id="edge3" class="edge">
<title>I18nModule&#45;&gt;ConsentManagementModule</title>
<path fill="none" stroke="black" d="M724.15,-84.91C724.15,-104.14 724.15,-131.8 724.15,-131.8 724.15,-131.8 647.11,-131.8 647.11,-131.8"/>
<polygon fill="black" stroke="black" points="647.11,-128.3 637.11,-131.8 647.11,-135.3 647.11,-128.3"/>
</g>
<!-- IconModule -->
<g id="node5" class="node">
<title>IconModule</title>
<polygon fill="#8dd3c7" stroke="black" points="702.43,-84.8 699.43,-88.8 678.43,-88.8 675.43,-84.8 617.57,-84.8 617.57,-48.8 702.43,-48.8 702.43,-84.8"/>
<text text-anchor="middle" x="660" y="-62.6" font-family="Times,serif" font-size="14.00">IconModule</text>
</g>
<!-- IconModule&#45;&gt;ConsentManagementModule -->
<g id="edge4" class="edge">
<title>IconModule&#45;&gt;ConsentManagementModule</title>
<path fill="none" stroke="black" d="M627.52,-84.91C627.52,-84.91 627.52,-103.79 627.52,-103.79"/>
<polygon fill="black" stroke="black" points="624.02,-103.79 627.52,-113.79 631.02,-103.79 624.02,-103.79"/>
</g>
<!-- SpinnerModule -->
<g id="node6" class="node">
<title>SpinnerModule</title>
<polygon fill="#8dd3c7" stroke="black" points="599.6,-84.8 596.6,-88.8 575.6,-88.8 572.6,-84.8 496.4,-84.8 496.4,-48.8 599.6,-48.8 599.6,-84.8"/>
<text text-anchor="middle" x="548" y="-62.6" font-family="Times,serif" font-size="14.00">SpinnerModule</text>
</g>
<!-- SpinnerModule&#45;&gt;ConsentManagementModule -->
<g id="edge5" class="edge">
<title>SpinnerModule&#45;&gt;ConsentManagementModule</title>
<path fill="none" stroke="black" d="M548,-84.91C548,-84.91 548,-103.79 548,-103.79"/>
<polygon fill="black" stroke="black" points="544.5,-103.79 548,-113.79 551.5,-103.79 544.5,-103.79"/>
</g>
</g>
</svg>
