<?xml version="1.0" encoding="UTF-8" standalone="no"?>
<!DOCTYPE svg PUBLIC "-//W3C//DTD SVG 1.1//EN"
 "http://www.w3.org/Graphics/SVG/1.1/DTD/svg11.dtd">
<!-- Generated by graphviz version 5.0.0 (20220707.1540)
 -->
<!-- Title: dependencies Pages: 1 -->
<svg width="472pt" height="247pt"
 viewBox="0.00 0.00 472.00 246.80" xmlns="http://www.w3.org/2000/svg" xmlns:xlink="http://www.w3.org/1999/xlink">
<g id="graph0" class="graph" transform="scale(1 1) rotate(0) translate(4 242.8)">
<title>dependencies</title>
<polygon fill="white" stroke="transparent" points="-4,4 -4,-242.8 468,-242.8 468,4 -4,4"/>
<text text-anchor="middle" x="232" y="-8.2" font-family="sans-serif" font-size="14.00">dependencies</text>
<g id="clust1" class="cluster">
<title>cluster_ClearCartModule</title>
<polygon fill="none" stroke="black" stroke-dasharray="1,5" points="8,-32.8 8,-230.8 456,-230.8 456,-32.8 8,-32.8"/>
</g>
<g id="clust5" class="cluster">
<title>cluster_ClearCartModule_exports</title>
<polygon fill="none" stroke="black" points="126,-170.8 126,-222.8 282,-222.8 282,-170.8 126,-170.8"/>
</g>
<g id="clust2" class="cluster">
<title>cluster_ClearCartModule_declarations</title>
<polygon fill="none" stroke="black" points="296,-40.8 296,-92.8 448,-92.8 448,-40.8 296,-40.8"/>
</g>
<g id="clust4" class="cluster">
<title>cluster_ClearCartModule_imports</title>
<polygon fill="none" stroke="black" points="16,-40.8 16,-92.8 288,-92.8 288,-40.8 16,-40.8"/>
</g>
<!-- ClearCartComponent -->
<g id="node1" class="node">
<title>ClearCartComponent</title>
<polygon fill="#ffffb3" stroke="black" points="439.75,-84.8 304.25,-84.8 304.25,-48.8 439.75,-48.8 439.75,-84.8"/>
<text text-anchor="middle" x="372" y="-62.6" font-family="Times,serif" font-size="14.00">ClearCartComponent</text>
</g>
<!-- ClearCartModule -->
<g id="node2" class="node">
<title>ClearCartModule</title>
<polygon fill="#8dd3c7" stroke="black" points="260.97,-149.8 257.97,-153.8 236.97,-153.8 233.97,-149.8 147.03,-149.8 147.03,-113.8 260.97,-113.8 260.97,-149.8"/>
<text text-anchor="middle" x="204" y="-127.6" font-family="Times,serif" font-size="14.00">ClearCartModule</text>
</g>
<!-- ClearCartComponent&#45;&gt;ClearCartModule -->
<g id="edge1" class="edge">
<title>ClearCartComponent&#45;&gt;ClearCartModule</title>
<path fill="none" stroke="black" d="M372,-84.91C372,-104.14 372,-131.8 372,-131.8 372,-131.8 271.35,-131.8 271.35,-131.8"/>
<polygon fill="black" stroke="black" points="271.35,-128.3 261.35,-131.8 271.35,-135.3 271.35,-128.3"/>
</g>
<!-- ClearCartComponent  -->
<g id="node5" class="node">
<title>ClearCartComponent </title>
<polygon fill="#fb8072" stroke="black" points="273.75,-214.8 134.25,-214.8 134.25,-178.8 273.75,-178.8 273.75,-214.8"/>
<text text-anchor="middle" x="204" y="-192.6" font-family="Times,serif" font-size="14.00">ClearCartComponent </text>
</g>
<!-- ClearCartModule&#45;&gt;ClearCartComponent  -->
<g id="edge4" class="edge">
<title>ClearCartModule&#45;&gt;ClearCartComponent </title>
<path fill="none" stroke="black" stroke-dasharray="5,2" d="M204,-149.91C204,-149.91 204,-168.79 204,-168.79"/>
<polygon fill="black" stroke="black" points="200.5,-168.79 204,-178.79 207.5,-168.79 200.5,-168.79"/>
</g>
<!-- ClearCartDialogModule -->
<g id="node3" class="node">
<title>ClearCartDialogModule</title>
<polygon fill="#8dd3c7" stroke="black" points="280.08,-84.8 277.08,-88.8 256.08,-88.8 253.08,-84.8 127.92,-84.8 127.92,-48.8 280.08,-48.8 280.08,-84.8"/>
<text text-anchor="middle" x="204" y="-62.6" font-family="Times,serif" font-size="14.00">ClearCartDialogModule</text>
</g>
<!-- ClearCartDialogModule&#45;&gt;ClearCartModule -->
<g id="edge2" class="edge">
<title>ClearCartDialogModule&#45;&gt;ClearCartModule</title>
<path fill="none" stroke="black" d="M204,-84.91C204,-84.91 204,-103.79 204,-103.79"/>
<polygon fill="black" stroke="black" points="200.5,-103.79 204,-113.79 207.5,-103.79 200.5,-103.79"/>
</g>
<!-- I18nModule -->
<g id="node4" class="node">
<title>I18nModule</title>
<polygon fill="#8dd3c7" stroke="black" points="109.71,-84.8 106.71,-88.8 85.71,-88.8 82.71,-84.8 24.29,-84.8 24.29,-48.8 109.71,-48.8 109.71,-84.8"/>
<text text-anchor="middle" x="67" y="-62.6" font-family="Times,serif" font-size="14.00">I18nModule</text>
</g>
<!-- I18nModule&#45;&gt;ClearCartModule -->
<g id="edge3" class="edge">
<title>I18nModule&#45;&gt;ClearCartModule</title>
<path fill="none" stroke="black" d="M67,-84.91C67,-104.14 67,-131.8 67,-131.8 67,-131.8 136.69,-131.8 136.69,-131.8"/>
<polygon fill="black" stroke="black" points="136.69,-135.3 146.69,-131.8 136.69,-128.3 136.69,-135.3"/>
</g>
</g>
</svg>
