<?xml version="1.0" encoding="UTF-8" standalone="no"?>
<!DOCTYPE svg PUBLIC "-//W3C//DTD SVG 1.1//EN"
 "http://www.w3.org/Graphics/SVG/1.1/DTD/svg11.dtd">
<!-- Generated by graphviz version 5.0.0 (20220707.1540)
 -->
<!-- Title: dependencies Pages: 1 -->
<svg width="472pt" height="247pt"
 viewBox="0.00 0.00 472.00 246.80" xmlns="http://www.w3.org/2000/svg" xmlns:xlink="http://www.w3.org/1999/xlink">
<g id="graph0" class="graph" transform="scale(1 1) rotate(0) translate(4 242.8)">
<title>dependencies</title>
<polygon fill="white" stroke="transparent" points="-4,4 -4,-242.8 468,-242.8 468,4 -4,4"/>
<text text-anchor="middle" x="232" y="-8.2" font-family="sans-serif" font-size="14.00">dependencies</text>
<g id="clust1" class="cluster">
<title>cluster_ClearCartModule</title>
<polygon fill="none" stroke="black" stroke-dasharray="1,5" points="8,-32.8 8,-230.8 456,-230.8 456,-32.8 8,-32.8"/>
</g>
<g id="clust4" class="cluster">
<title>cluster_ClearCartModule_imports</title>
<polygon fill="none" stroke="black" points="176,-40.8 176,-92.8 448,-92.8 448,-40.8 176,-40.8"/>
</g>
<g id="clust2" class="cluster">
<title>cluster_ClearCartModule_declarations</title>
<polygon fill="none" stroke="black" points="16,-40.8 16,-92.8 168,-92.8 168,-40.8 16,-40.8"/>
</g>
<g id="clust5" class="cluster">
<title>cluster_ClearCartModule_exports</title>
<polygon fill="none" stroke="black" points="149,-170.8 149,-222.8 305,-222.8 305,-170.8 149,-170.8"/>
</g>
<!-- ClearCartComponent -->
<g id="node1" class="node">
<title>ClearCartComponent</title>
<polygon fill="#ffffb3" stroke="black" points="159.75,-84.8 24.25,-84.8 24.25,-48.8 159.75,-48.8 159.75,-84.8"/>
<text text-anchor="middle" x="92" y="-62.6" font-family="Times,serif" font-size="14.00">ClearCartComponent</text>
</g>
<!-- ClearCartModule -->
<g id="node2" class="node">
<title>ClearCartModule</title>
<polygon fill="#8dd3c7" stroke="black" points="283.97,-149.8 280.97,-153.8 259.97,-153.8 256.97,-149.8 170.03,-149.8 170.03,-113.8 283.97,-113.8 283.97,-149.8"/>
<text text-anchor="middle" x="227" y="-127.6" font-family="Times,serif" font-size="14.00">ClearCartModule</text>
</g>
<!-- ClearCartComponent&#45;&gt;ClearCartModule -->
<g id="edge1" class="edge">
<title>ClearCartComponent&#45;&gt;ClearCartModule</title>
<path fill="none" stroke="black" d="M159.96,-66.8C170.08,-66.8 177.2,-66.8 177.2,-66.8 177.2,-66.8 177.2,-103.69 177.2,-103.69"/>
<polygon fill="black" stroke="black" points="173.7,-103.69 177.2,-113.69 180.7,-103.69 173.7,-103.69"/>
</g>
<!-- ClearCartComponent  -->
<g id="node5" class="node">
<title>ClearCartComponent </title>
<polygon fill="#fb8072" stroke="black" points="296.75,-214.8 157.25,-214.8 157.25,-178.8 296.75,-178.8 296.75,-214.8"/>
<text text-anchor="middle" x="227" y="-192.6" font-family="Times,serif" font-size="14.00">ClearCartComponent </text>
</g>
<!-- ClearCartModule&#45;&gt;ClearCartComponent  -->
<g id="edge4" class="edge">
<title>ClearCartModule&#45;&gt;ClearCartComponent </title>
<path fill="none" stroke="black" stroke-dasharray="5,2" d="M227,-149.91C227,-149.91 227,-168.79 227,-168.79"/>
<polygon fill="black" stroke="black" points="223.5,-168.79 227,-178.79 230.5,-168.79 223.5,-168.79"/>
</g>
<!-- ClearCartDialogModule -->
<g id="node3" class="node">
<title>ClearCartDialogModule</title>
<polygon fill="#8dd3c7" stroke="black" points="440.08,-84.8 437.08,-88.8 416.08,-88.8 413.08,-84.8 287.92,-84.8 287.92,-48.8 440.08,-48.8 440.08,-84.8"/>
<text text-anchor="middle" x="364" y="-62.6" font-family="Times,serif" font-size="14.00">ClearCartDialogModule</text>
</g>
<!-- ClearCartDialogModule&#45;&gt;ClearCartModule -->
<g id="edge2" class="edge">
<title>ClearCartDialogModule&#45;&gt;ClearCartModule</title>
<path fill="none" stroke="black" d="M292.29,-84.91C292.29,-104.14 292.29,-131.8 292.29,-131.8 292.29,-131.8 291.47,-131.8 291.47,-131.8"/>
<polygon fill="black" stroke="black" points="294.02,-128.3 284.02,-131.8 294.02,-135.3 294.02,-128.3"/>
</g>
<!-- I18nModule -->
<g id="node4" class="node">
<title>I18nModule</title>
<polygon fill="#8dd3c7" stroke="black" points="269.71,-84.8 266.71,-88.8 245.71,-88.8 242.71,-84.8 184.29,-84.8 184.29,-48.8 269.71,-48.8 269.71,-84.8"/>
<text text-anchor="middle" x="227" y="-62.6" font-family="Times,serif" font-size="14.00">I18nModule</text>
</g>
<!-- I18nModule&#45;&gt;ClearCartModule -->
<g id="edge3" class="edge">
<title>I18nModule&#45;&gt;ClearCartModule</title>
<path fill="none" stroke="black" d="M227,-84.91C227,-84.91 227,-103.79 227,-103.79"/>
<polygon fill="black" stroke="black" points="223.5,-103.79 227,-113.79 230.5,-103.79 223.5,-103.79"/>
</g>
</g>
</svg>
